<?xml version="1.0" encoding="utf-8"?>
<!-- Generator: Adobe Illustrator 17.0.0, SVG Export Plug-In . SVG Version: 6.00 Build 0)  -->
<!DOCTYPE svg PUBLIC "-//W3C//DTD SVG 1.1//EN" "http://www.w3.org/Graphics/SVG/1.1/DTD/svg11.dtd">
<svg version="1.1" id="Layer_1" xmlns="http://www.w3.org/2000/svg" xmlns:xlink="http://www.w3.org/1999/xlink" x="0px" y="0px"
	 width="512px" height="512px" viewBox="0 0 512 512" enable-background="new 0 0 512 512" xml:space="preserve">
<g>
	<line fill="none" stroke="#B35047" x1="32" y1="0" x2="32" y2="512"/>
	<line fill="none" stroke="#B35047" x1="64" y1="0" x2="64" y2="512"/>
	<line fill="none" stroke="#B35047" x1="96" y1="0" x2="96" y2="512"/>
	<line fill="none" stroke="#B35047" x1="128" y1="0" x2="128" y2="512"/>
	<line fill="none" stroke="#B35047" x1="160" y1="0" x2="160" y2="512"/>
	<line fill="none" stroke="#B35047" x1="192" y1="0" x2="192" y2="512"/>
	<line fill="none" stroke="#B35047" x1="224" y1="0" x2="224" y2="512"/>
	<line fill="none" stroke="#B35047" x1="256" y1="0" x2="256" y2="512"/>
	<line fill="none" stroke="#B35047" x1="288" y1="0" x2="288" y2="512"/>
	<line fill="none" stroke="#B35047" x1="320" y1="0" x2="320" y2="512"/>
	<line fill="none" stroke="#B35047" x1="352" y1="0" x2="352" y2="512"/>
	<line fill="none" stroke="#B35047" x1="384" y1="0" x2="384" y2="512"/>
	<line fill="none" stroke="#B35047" x1="416" y1="0" x2="416" y2="512"/>
	<line fill="none" stroke="#B35047" x1="448" y1="0" x2="448" y2="512"/>
	<line fill="none" stroke="#B35047" x1="480" y1="0" x2="480" y2="512"/>
	<line fill="none" stroke="#B35047" x1="0" y1="32" x2="512" y2="32"/>
	<line fill="none" stroke="#B35047" x1="0" y1="64" x2="512" y2="64"/>
	<line fill="none" stroke="#B35047" x1="0" y1="96" x2="512" y2="96"/>
	<line fill="none" stroke="#B35047" x1="0" y1="128" x2="512" y2="128"/>
	<line fill="none" stroke="#B35047" x1="0" y1="160" x2="512" y2="160"/>
	<line fill="none" stroke="#B35047" x1="0" y1="192" x2="512" y2="192"/>
	<line fill="none" stroke="#B35047" x1="0" y1="224" x2="512" y2="224"/>
	<line fill="none" stroke="#B35047" x1="0" y1="256" x2="512" y2="256"/>
	<line fill="none" stroke="#B35047" x1="0" y1="288" x2="512" y2="288"/>
	<line fill="none" stroke="#B35047" x1="0" y1="320" x2="512" y2="320"/>
	<line fill="none" stroke="#B35047" x1="0" y1="352" x2="512" y2="352"/>
	<line fill="none" stroke="#B35047" x1="0" y1="384" x2="512" y2="384"/>
	<line fill="none" stroke="#B35047" x1="0" y1="416" x2="512" y2="416"/>
	<line fill="none" stroke="#B35047" x1="0" y1="448" x2="512" y2="448"/>
	<line fill="none" stroke="#B35047" x1="0" y1="480" x2="512" y2="480"/>
	<rect x="0" fill="none" stroke="#B35047" width="512" height="512"/>
</g>
<image display="none" overflow="visible" width="512" height="512" xlink:href="../../../Knowledge/Icon/[+++++] (Full) iOS7 icons [icons8]/Sciences_and_Classes/literature/literature-512.png" >
</image>
<g>
	<path d="M508.94,107.991c0,118.47,0,236.94,0,355.41c-7.519,18.85-15.791,25.283-33.188,25.287
		c-146.846,0.034-293.692,0.041-440.538-0.005c-20.748-0.007-33.147-12.646-33.149-33.433
		C2.055,342.393,2.056,229.536,2.063,116.679c0.001-21.068,12.43-33.477,33.542-33.485c41.249-0.015,82.498-0.005,123.747-0.005
		c1.929,0,3.857,0,5.626,0c4.633-17.319,11.13-28.107,22.862-37.9c20.099-16.778,43.715-23.011,69.391-22.822
		c15.338,0.113,30.167,2.899,44.196,9.268c22.641,10.278,38.857,26.234,44.608,51.454c2.175,0,4.141,0,6.108,0
		c41.579,0,83.158,0.006,124.737-0.002c13.494-0.002,23.398,5.832,29.336,18.054C507.274,103.419,508.04,105.738,508.94,107.991z
		 M306.364,296.075c2.16,0,4.106,0,6.051,0c52.958,0,105.917,0,158.875,0c15.313,0,17.406-2.067,17.408-17.343
		c0.008-53.453,0.008-106.906-0.001-160.36c-0.002-11.993-2.98-14.988-14.862-14.989c-47.671-0.005-95.342-0.002-143.012-0.002
		c-97.992,0-195.984-0.003-293.975,0.018c-2.134,0-4.311,0.058-6.394,0.464c-4.324,0.842-6.996,3.57-7.731,7.925
		c-0.354,2.099-0.407,4.268-0.408,6.405c-0.021,53.783-0.017,107.566-0.013,161.349c0,1.319-0.01,2.643,0.093,3.956
		c0.784,9.939,3.627,12.57,13.668,12.572c54.608,0.009,109.216,0.004,163.824,0.004c1.595,0,3.19,0,4.69,0
		c2.876-20.676,14.19-30.497,34.498-30.51c11.219-0.007,22.437-0.018,33.656,0.003C292.165,265.602,303.914,276.017,306.364,296.075
		z M22.299,315.862c0,1.028,0,2.635,0,4.242c0,44.535-0.007,89.07,0.005,133.605c0.003,11.668,3.001,14.653,14.593,14.653
		c139.213,0.001,278.427,0.001,417.64,0c7.752,0,15.506,0.088,23.257-0.041c6.462-0.108,10.042-3.521,10.735-9.9
		c0.124-1.145,0.164-2.304,0.165-3.456c0.008-45.36,0.01-90.719-0.009-136.079c0-1.242-0.237-2.483-0.27-2.801
		c-60.986,0-121.536,0-181.922,0c-2.974,20.873-14.186,30.573-34.282,30.582c-12.536,0.006-25.075,0.166-37.606-0.079
		c-14.686-0.287-26.438-10.402-29.26-24.771c-0.337-1.715-0.526-3.46-0.898-5.957C143.726,315.862,83.273,315.862,22.299,315.862z
		 M324.845,82.97c-2.646-9.228-7.754-16.139-14.473-21.934c-13.104-11.303-28.723-16.485-45.642-17.923
		c-21.429-1.821-41.716,1.795-59.673,14.427c-8.933,6.284-15.681,14.336-18.922,25.429C232.509,82.97,278.418,82.97,324.845,82.97z
		 M255.887,286.017c-6.586,0-13.174-0.1-19.758,0.028c-6.858,0.133-10.761,3.791-11.034,10.637
		c-0.256,6.408-0.262,12.845,0.016,19.252c0.278,6.393,3.843,10.279,10.249,10.426c13.492,0.31,27.002,0.307,40.493-0.026
		c6.172-0.153,9.707-3.971,10.004-10.12c0.318-6.569,0.318-13.174,0.029-19.745c-0.297-6.769-4.275-10.311-11.229-10.433
		C268.402,285.925,262.144,286.011,255.887,286.017z"/>
	<path display="none" fill="#FFFFFF" d="M513.5,108.5c-0.909-2.276-1.682-4.618-2.751-6.817
		c-5.998-12.346-16.002-18.239-29.633-18.236c-41.999,0.008-83.998,0.002-125.997,0.002c-1.986,0-3.973,0-6.17,0
		c-5.809-25.475-22.189-41.593-45.059-51.974c-14.171-6.433-29.15-9.247-44.643-9.361c-25.935-0.191-49.79,6.104-70.092,23.052
		c-11.851,9.893-18.414,20.789-23.093,38.283c-1.786,0-3.734,0-5.683,0c-41.666,0-83.331-0.011-124.997,0.005
		C14.059,83.461,1.505,95.995,1.503,117.276C1.496,231.273,1.495,345.27,1.504,459.267c0.002,20.997,12.526,33.764,33.484,33.771
		c148.329,0.047,296.659,0.04,444.988,0.005c17.573-0.004,25.929-6.502,33.524-25.542c0,15.333,0,30.667,0,46c-171,0-342,0-513,0
		c0-171,0-342,0-513c171,0,342,0,513,0C513.5,36.5,513.5,72.5,513.5,108.5z"/>
	<path display="none" fill="#FFFFFF" d="M308.878,298.484c-2.474-20.261-14.343-30.781-33.972-30.816
		c-11.332-0.02-22.664-0.01-33.996-0.003c-20.514,0.013-31.941,9.933-34.847,30.818c-1.515,0-3.126,0-4.737,0
		c-55.16,0-110.319,0.004-165.479-0.005c-10.142-0.002-13.014-2.659-13.806-12.699c-0.105-1.326-0.094-2.663-0.094-3.996
		c-0.004-54.326-0.008-108.653,0.013-162.979c0.001-2.159,0.054-4.35,0.412-6.47c0.743-4.399,3.442-7.155,7.809-8.005
		c2.105-0.41,4.303-0.468,6.459-0.468c98.982-0.021,197.963-0.018,296.945-0.018c48.152,0,96.305-0.003,144.457,0.002
		c12.002,0.001,15.01,3.027,15.012,15.14c0.008,53.993,0.009,107.986,0.001,161.979c-0.002,15.431-2.116,17.518-17.584,17.518
		c-53.493,0-106.986,0-160.48,0C313.025,298.484,311.06,298.484,308.878,298.484z"/>
	<path display="none" fill="#FFFFFF" d="M21.943,318.471c61.591,0,122.654,0,183.988,0c0.376,2.523,0.567,4.284,0.908,6.017
		c2.851,14.514,14.721,24.732,29.556,25.021c12.658,0.247,25.324,0.086,37.986,0.08c20.299-0.009,31.623-9.807,34.628-30.891
		c60.996,0,122.157,0,183.759,0c0.033,0.321,0.272,1.575,0.273,2.829c0.019,45.818,0.017,91.636,0.009,137.453
		c0,1.164-0.041,2.335-0.166,3.491c-0.699,6.443-4.316,9.891-10.843,10c-7.829,0.13-15.661,0.041-23.492,0.041
		c-140.62,0.001-281.239,0.001-421.859,0c-11.709,0-14.737-3.016-14.741-14.801c-0.013-44.985-0.005-89.97-0.005-134.955
		C21.943,321.133,21.943,319.509,21.943,318.471z"/>
	<path display="none" fill="#FFFFFF" d="M327.545,83.226c-46.896,0-93.269,0-140.11,0c3.275-11.205,10.09-19.338,19.113-25.686
		c18.138-12.76,38.63-16.413,60.275-14.573c17.09,1.453,32.866,6.687,46.103,18.104C319.713,66.925,324.873,73.905,327.545,83.226z"
		/>
	<path display="none" fill="#FFFFFF" d="M257.891,288.322c6.32-0.003,12.642-0.091,18.96,0.02
		c7.024,0.123,11.042,3.702,11.342,10.539c0.292,6.637,0.292,13.309-0.03,19.944c-0.301,6.211-3.872,10.068-10.105,10.223
		c-13.627,0.337-27.274,0.339-40.902,0.026c-6.471-0.149-10.072-4.073-10.352-10.531c-0.281-6.472-0.276-12.973-0.017-19.446
		c0.277-6.915,4.218-10.61,11.146-10.744C244.583,288.224,251.238,288.325,257.891,288.322z"/>
</g>
<g display="none">
	<path fill="#FFFFFF" d="M0.5,0.5c171,0,342,0,513,0c0,171,0,342,0,513c-171,0-342,0-513,0C0.5,342.5,0.5,171.5,0.5,0.5z
		 M256.975,503.336c5.832,0,11.664,0,17.496,0c68.323,0,136.645-0.015,204.968,0.019c8.498,0.004,16.211-2.088,20.409-9.951
		c2.168-4.06,3.344-9.159,3.349-13.791c0.169-148.142,0.139-296.284,0.137-444.427c0-1,0.028-2.003-0.049-2.998
		c-0.914-11.885-8.656-19.606-20.549-20.475c-1.327-0.097-2.665-0.048-3.998-0.048c-147.476-0.002-294.951-0.002-442.427,0
		c-1.333,0-2.671-0.049-3.998,0.044c-9.441,0.665-16.841,5.885-19.291,14.089c-0.936,3.135-1.304,6.55-1.305,9.838
		c-0.061,147.976-0.053,295.951-0.052,443.927c0,1-0.034,2.003,0.033,2.999c0.803,12.086,8.722,19.985,20.815,20.736
		c1.66,0.103,3.332,0.037,4.998,0.037C110.666,503.336,183.82,503.336,256.975,503.336z"/>
	<path display="inline" d="M255.975,502.336c-73.154,0-146.309,0-219.463-0.001c-1.666,0-3.338,0.066-4.998-0.037
		c-12.093-0.751-20.012-8.65-20.815-20.736c-0.066-0.996-0.033-1.999-0.033-2.999c-0.001-147.976-0.009-295.951,0.052-443.927
		c0.001-3.288,0.369-6.703,1.305-9.838c2.449-8.204,9.849-13.424,19.291-14.089c1.327-0.093,2.665-0.044,3.998-0.044
		c147.476-0.002,294.951-0.002,442.427,0c1.333,0,2.671-0.049,3.998,0.048c11.892,0.87,19.635,8.59,20.549,20.475
		c0.076,0.995,0.049,1.999,0.049,2.998c0.002,148.142,0.032,296.285-0.137,444.427c-0.005,4.631-1.181,9.731-3.349,13.791
		c-4.199,7.862-11.911,9.955-20.409,9.951c-68.323-0.034-136.645-0.019-204.968-0.019
		C267.639,502.336,261.807,502.336,255.975,502.336z M481.384,246.062c0-71.751,0-142.99,0-214.35c-71.652,0-142.995,0-214.401,0
		c0,71.63,0,142.855,0,214.35C338.527,246.062,409.755,246.062,481.384,246.062z M245.986,246.059c0-71.865,0-143.103,0-214.311
		c-71.706,0-143.064,0-214.321,0c0,71.671,0,142.901,0,214.311C103.25,246.059,174.478,246.059,245.986,246.059z M246.061,267.013
		c-71.863,0-143.101,0-214.314,0c0,71.705,0,143.063,0,214.324c71.67,0,142.899,0,214.314,0
		C246.061,409.754,246.061,338.526,246.061,267.013z M266.933,481.344c71.616,0,142.967,0,214.309,0c0-71.69,0-143.03,0-214.319
		c-71.673,0-142.895,0-214.309,0C266.933,338.613,266.933,409.844,266.933,481.344z"/>
	<path fill="#FFFFFF" d="M482.384,247.062c-71.63,0-142.858,0-214.401,0c0-71.495,0-142.72,0-214.35c71.406,0,142.749,0,214.401,0
		C482.384,104.071,482.384,175.31,482.384,247.062z M380.467,124.428c-1.665,0-3.33,0-4.995,0
		c-14.817,0.001-29.635-0.079-44.452,0.034c-8.466,0.065-13.336,5.796-11.383,13.033c1.261,4.675,5.269,7.278,11.717,7.286
		c32.632,0.038,65.263,0.033,97.895-0.021c1.963-0.003,4.278-0.015,5.804-0.996c2.224-1.429,4.653-3.415,5.635-5.738
		c2.994-7.079-2.204-13.512-10.774-13.566C413.432,124.357,396.949,124.43,380.467,124.428z"/>
	<path fill="#FFFFFF" d="M246.986,247.059c-71.508,0-142.736,0-214.321,0c0-71.41,0-142.639,0-214.311c71.257,0,142.615,0,214.321,0
		C246.986,103.957,246.986,175.195,246.986,247.059z M134.569,124.429c-12.836,0-25.121-0.046-37.404,0.041
		c-2.295,0.016-4.665,0.289-6.861,0.925c-4.372,1.266-6.502,4.759-6.619,8.969c-0.118,4.221,1.819,7.862,6.148,9.29
		c2.314,0.763,4.869,1.078,7.32,1.099c12.286,0.106,24.574,0.049,37.417,0.049c0,2.323,0,4.104,0,5.885
		c0.001,10.995-0.095,21.992,0.033,32.986c0.099,8.535,5.656,13.498,12.828,11.749c4.893-1.193,7.669-5.36,7.711-11.971
		c0.071-10.995,0.007-21.991,0.035-32.986c0.004-1.754,0.187-3.508,0.309-5.663c2.323,0,4.127,0,5.931,0
		c10.995-0.003,21.992,0.097,32.986-0.045c7.07-0.091,11.899-4.469,11.756-10.229c-0.149-6.001-4.79-10.027-11.904-10.077
		c-11.161-0.078-22.324-0.022-33.486-0.023c-1.756,0-3.511,0-5.606,0c0-12.248,0.031-23.731-0.025-35.214
		c-0.012-2.481-0.103-5.006-0.566-7.433c-0.95-4.973-4.508-8.075-9.154-8.354c-4.741-0.285-8.803,2.716-10.164,7.795
		c-0.506,1.889-0.646,3.922-0.656,5.89C134.541,99.388,134.569,111.665,134.569,124.429z"/>
	<path fill="#FFFFFF" d="M247.061,268.013c0,71.513,0,142.74,0,214.324c-71.414,0-142.644,0-214.314,0c0-71.262,0-142.62,0-214.324
		C103.96,268.013,175.198,268.013,247.061,268.013z M144.76,366.049c-8.787-8.873-17.289-17.526-25.887-26.082
		c-1.747-1.738-3.696-3.403-5.835-4.592c-4.474-2.487-9.861-0.924-12.626,3.333c-3.056,4.704-2.289,9.359,2.572,14.253
		c8.995,9.058,18.066,18.042,27.44,27.391c-8.89,8.871-17.372,17.297-25.799,25.778c-1.513,1.522-2.994,3.143-4.151,4.937
		c-2.781,4.31-2.381,8.903,0.829,12.365c3.249,3.503,8.236,4.173,12.719,1.437c1.813-1.106,3.412-2.628,4.93-4.14
		c8.577-8.54,17.099-17.134,25.719-25.788c1.209,1.098,1.97,1.735,2.67,2.434c8.365,8.354,16.659,16.78,25.102,25.053
		c5.164,5.06,11.295,5.513,15.542,1.461c4.34-4.14,3.911-10.763-1.104-15.951c-2.893-2.993-5.869-5.904-8.821-8.839
		c-6.221-6.184-12.451-12.358-18.933-18.792c9.26-9.171,18.038-17.81,26.735-26.531c1.506-1.51,2.912-3.231,3.934-5.091
		c2.58-4.696,0.969-10.2-3.564-12.988c-4.366-2.686-9.363-1.787-13.919,2.737C163.228,347.459,154.22,356.559,144.76,366.049z"/>
	<path fill="#FFFFFF" d="M267.933,482.344c0-71.5,0-142.731,0-214.319c71.414,0,142.635,0,214.309,0c0,71.288,0,142.629,0,214.319
		C410.9,482.344,339.55,482.344,267.933,482.344z M380.269,421.41c15.819,0,31.638,0.035,47.457-0.039
		c2.296-0.011,4.654-0.302,6.87-0.89c4.387-1.162,6.563-4.477,6.903-8.757c0.329-4.136-1.468-7.609-5.311-9.351
		c-2.195-0.995-4.8-1.504-7.222-1.511c-32.304-0.096-64.609-0.076-96.913-0.033c-1.806,0.002-3.657,0.283-5.41,0.732
		c-5.224,1.338-8.145,6.078-7.18,11.405c0.958,5.286,5.17,8.394,11.849,8.421C347.632,421.452,363.951,421.408,380.269,421.41z
		 M380.52,359.842c16.15,0,32.3,0.001,48.451-0.001c4.898,0,9.366-0.968,11.603-5.99c3.317-7.447-1.837-14.358-10.879-14.376
		c-32.8-0.066-65.6-0.04-98.399,0.012c-1.793,0.003-3.657,0.33-5.364,0.888c-6.734,2.199-9.287,10.87-4.081,15.581
		c2.518,2.278,6.736,3.636,10.224,3.718C348.214,360.055,364.369,359.842,380.52,359.842z"/>
	<path display="inline" d="M379.467,123.429c16.482,0.001,32.965-0.072,49.447,0.031c8.57,0.054,13.767,6.487,10.774,13.566
		c-0.982,2.323-3.411,4.309-5.635,5.738c-1.526,0.981-3.841,0.993-5.804,0.996c-32.632,0.054-65.263,0.059-97.895,0.021
		c-6.448-0.008-10.455-2.611-11.717-7.286c-1.952-7.237,2.917-12.968,11.383-13.033c14.817-0.113,29.635-0.033,44.452-0.034
		C376.137,123.428,377.802,123.428,379.467,123.429z"/>
	<path display="inline" d="M133.569,123.429c0-12.764-0.028-25.04,0.029-37.316c0.009-1.969,0.149-4.001,0.656-5.89
		c1.361-5.079,5.423-8.08,10.164-7.795c4.646,0.279,8.204,3.381,9.154,8.354c0.463,2.427,0.554,4.951,0.566,7.433
		c0.056,11.483,0.025,22.966,0.025,35.214c2.094,0,3.85,0,5.606,0c11.162,0.001,22.324-0.055,33.486,0.023
		c7.114,0.05,11.754,4.076,11.904,10.077c0.143,5.76-4.685,10.137-11.756,10.229c-10.994,0.142-21.99,0.042-32.986,0.045
		c-1.804,0-3.608,0-5.931,0c-0.123,2.155-0.305,3.909-0.309,5.663c-0.027,10.995,0.036,21.991-0.035,32.986
		c-0.042,6.611-2.818,10.778-7.711,11.971c-7.173,1.749-12.729-3.214-12.828-11.749c-0.127-10.994-0.032-21.99-0.033-32.986
		c0-1.781,0-3.563,0-5.885c-12.844,0-25.131,0.058-37.417-0.049c-2.451-0.021-5.006-0.335-7.32-1.099
		c-4.329-1.428-6.266-5.069-6.148-9.29c0.118-4.21,2.248-7.703,6.619-8.969c2.196-0.636,4.567-0.909,6.861-0.925
		C108.449,123.383,120.733,123.429,133.569,123.429z"/>
	<path display="inline" d="M143.76,365.049c9.46-9.49,18.468-18.59,27.553-27.613c4.556-4.524,9.553-5.424,13.919-2.737
		c4.532,2.789,6.143,8.292,3.564,12.988c-1.022,1.86-2.428,3.58-3.934,5.091c-8.696,8.721-17.475,17.36-26.735,26.531
		c6.483,6.433,12.713,12.608,18.933,18.792c2.952,2.935,5.929,5.846,8.821,8.839c5.015,5.188,5.444,11.812,1.104,15.951
		c-4.248,4.052-10.378,3.599-15.542-1.461c-8.444-8.273-16.737-16.7-25.102-25.053c-0.7-0.699-1.462-1.336-2.67-2.434
		c-8.619,8.654-17.142,17.248-25.719,25.788c-1.518,1.512-3.118,3.034-4.93,4.14c-4.483,2.735-9.47,2.065-12.719-1.437
		c-3.211-3.461-3.61-8.054-0.829-12.365c1.157-1.794,2.639-3.415,4.151-4.937c8.427-8.481,16.91-16.908,25.799-25.778
		c-9.375-9.349-18.445-18.333-27.44-27.391c-4.861-4.894-5.628-9.549-2.572-14.253c2.765-4.257,8.152-5.82,12.626-3.333
		c2.139,1.189,4.088,2.853,5.835,4.592C126.471,347.523,134.973,356.176,143.76,365.049z"/>
	<path display="inline" d="M379.269,420.409c-16.319-0.001-32.638,0.043-48.956-0.022c-6.679-0.027-10.891-3.135-11.849-8.421
		c-0.965-5.327,1.956-10.067,7.18-11.405c1.754-0.449,3.604-0.729,5.41-0.732c32.304-0.043,64.609-0.063,96.913,0.033
		c2.423,0.007,5.028,0.517,7.222,1.511c3.843,1.742,5.64,5.214,5.311,9.351c-0.34,4.28-2.516,7.595-6.903,8.757
		c-2.216,0.587-4.574,0.879-6.87,0.89C410.908,420.445,395.089,420.41,379.269,420.409z"/>
	<path display="inline" d="M379.52,358.842c-16.15,0-32.305,0.213-48.447-0.168c-3.488-0.082-7.706-1.44-10.224-3.718
		c-5.206-4.711-2.652-13.381,4.081-15.581c1.707-0.557,3.571-0.885,5.364-0.888c32.8-0.052,65.6-0.078,98.399-0.012
		c9.042,0.018,14.196,6.929,10.879,14.376c-2.237,5.022-6.705,5.99-11.603,5.99C411.82,358.843,395.67,358.842,379.52,358.842z"/>
</g>
</svg>
