<?xml version="1.0" encoding="utf-8"?>
<!-- Generator: Adobe Illustrator 17.0.0, SVG Export Plug-In . SVG Version: 6.00 Build 0)  -->
<!DOCTYPE svg PUBLIC "-//W3C//DTD SVG 1.1//EN" "http://www.w3.org/Graphics/SVG/1.1/DTD/svg11.dtd">
<svg version="1.1" id="Layer_1" xmlns="http://www.w3.org/2000/svg" xmlns:xlink="http://www.w3.org/1999/xlink" x="0px" y="0px"
	 width="512px" height="512px" viewBox="0 0 512 512" enable-background="new 0 0 512 512" xml:space="preserve">
<g>
	<line fill="none" stroke="#B35047" x1="32" y1="0" x2="32" y2="512"/>
	<line fill="none" stroke="#B35047" x1="64" y1="0" x2="64" y2="512"/>
	<line fill="none" stroke="#B35047" x1="96" y1="0" x2="96" y2="512"/>
	<line fill="none" stroke="#B35047" x1="128" y1="0" x2="128" y2="512"/>
	<line fill="none" stroke="#B35047" x1="160" y1="0" x2="160" y2="512"/>
	<line fill="none" stroke="#B35047" x1="192" y1="0" x2="192" y2="512"/>
	<line fill="none" stroke="#B35047" x1="224" y1="0" x2="224" y2="512"/>
	<line fill="none" stroke="#B35047" x1="256" y1="0" x2="256" y2="512"/>
	<line fill="none" stroke="#B35047" x1="288" y1="0" x2="288" y2="512"/>
	<line fill="none" stroke="#B35047" x1="320" y1="0" x2="320" y2="512"/>
	<line fill="none" stroke="#B35047" x1="352" y1="0" x2="352" y2="512"/>
	<line fill="none" stroke="#B35047" x1="384" y1="0" x2="384" y2="512"/>
	<line fill="none" stroke="#B35047" x1="416" y1="0" x2="416" y2="512"/>
	<line fill="none" stroke="#B35047" x1="448" y1="0" x2="448" y2="512"/>
	<line fill="none" stroke="#B35047" x1="480" y1="0" x2="480" y2="512"/>
	<line fill="none" stroke="#B35047" x1="0" y1="32" x2="512" y2="32"/>
	<line fill="none" stroke="#B35047" x1="0" y1="64" x2="512" y2="64"/>
	<line fill="none" stroke="#B35047" x1="0" y1="96" x2="512" y2="96"/>
	<line fill="none" stroke="#B35047" x1="0" y1="128" x2="512" y2="128"/>
	<line fill="none" stroke="#B35047" x1="0" y1="160" x2="512" y2="160"/>
	<line fill="none" stroke="#B35047" x1="0" y1="192" x2="512" y2="192"/>
	<line fill="none" stroke="#B35047" x1="0" y1="224" x2="512" y2="224"/>
	<line fill="none" stroke="#B35047" x1="0" y1="256" x2="512" y2="256"/>
	<line fill="none" stroke="#B35047" x1="0" y1="288" x2="512" y2="288"/>
	<line fill="none" stroke="#B35047" x1="0" y1="320" x2="512" y2="320"/>
	<line fill="none" stroke="#B35047" x1="0" y1="352" x2="512" y2="352"/>
	<line fill="none" stroke="#B35047" x1="0" y1="384" x2="512" y2="384"/>
	<line fill="none" stroke="#B35047" x1="0" y1="416" x2="512" y2="416"/>
	<line fill="none" stroke="#B35047" x1="0" y1="448" x2="512" y2="448"/>
	<line fill="none" stroke="#B35047" x1="0" y1="480" x2="512" y2="480"/>
	<rect x="0" fill="none" stroke="#B35047" width="512" height="512"/>
</g>
<image display="none" overflow="visible" width="512" height="512" xlink:href="../../../Knowledge/Icon/[+++++] (Full) iOS7 icons [icons8]/Shopping/shopping_bag/shopping_bag-512.png"  transform="matrix(1 0 0 1 -1.525879e-005 0)">
</image>
<image display="none" overflow="visible" width="512" height="512" xlink:href="../../../Knowledge/Icon/[+++++] (Full) iOS7 icons [icons8]/Shopping/shopping_basket/shopping_basket-512.png"  transform="matrix(1 0 0 1 -1.525879e-005 0)">
</image>
<image display="none" overflow="visible" width="512" height="512" xlink:href="../../../Knowledge/Icon/[+++++] (Full) iOS7 icons [icons8]/Shopping/sell/sell-512.png"  transform="matrix(1 0 0 1 -1.525879e-005 0)">
</image>
<image display="none" overflow="visible" width="512" height="512" xlink:href="../../../Knowledge/Icon/[+++++] (Full) iOS7 icons [icons8]/Shopping/sale/sale-512.png"  transform="matrix(1 0 0 1 -1.525879e-005 0)">
</image>
<image display="none" overflow="visible" width="512" height="512" xlink:href="../../../Knowledge/Icon/[+++++] (Full) iOS7 icons [icons8]/Shopping/price_tag_usd/price_tag_usd-512.png"  transform="matrix(1 0 0 1 -1.525879e-005 0)">
</image>
<image display="none" overflow="visible" width="512" height="512" xlink:href="../../../Knowledge/Icon/[+++++] (Full) iOS7 icons [icons8]/Shopping/price_tag/price_tag-512.png"  transform="matrix(1 0 0 1 -1.525879e-005 0)">
</image>
<image display="none" overflow="visible" width="512" height="512" xlink:href="../../../Knowledge/Icon/[+++++] (Full) iOS7 icons [icons8]/Shopping/money/money-512.png"  transform="matrix(1 0 0 1 -1.525879e-005 0)">
</image>
<image display="none" overflow="visible" width="512" height="512" xlink:href="../../../Knowledge/Icon/[+++++] (Full) iOS7 icons [icons8]/Shopping/money_bag/money_bag-512.png"  transform="matrix(1 0 0 1 -1.525879e-005 0)">
</image>
<image display="none" overflow="visible" width="512" height="512" xlink:href="../../../Knowledge/Icon/[+++++] (Full) iOS7 icons [icons8]/Shopping/money_box/money_box-512.png"  transform="matrix(1 0 0 1 -1.525879e-005 0)">
</image>
<image display="none" overflow="visible" width="512" height="512" xlink:href="../../../Knowledge/Icon/[+++++] (Full) iOS7 icons [icons8]/Shopping/gift/gift-512.png"  transform="matrix(1 0 0 1 -1.525879e-005 0)">
</image>
<image display="none" overflow="visible" width="512" height="512" xlink:href="../../../Knowledge/Icon/[+++++] (Full) iOS7 icons [icons8]/Shopping/filled_box/filled_box-512.png"  transform="matrix(1 0 0 1 -1.525879e-005 0)">
</image>
<image display="none" overflow="visible" width="512" height="512" xlink:href="../../../Knowledge/Icon/[+++++] (Full) iOS7 icons [icons8]/Shopping/empty_box/empty_box-512.png"  transform="matrix(1 0 0 1 -1.525879e-005 0)">
</image>
<image display="none" overflow="visible" width="512" height="512" xlink:href="../../../Knowledge/Icon/[+++++] (Full) iOS7 icons [icons8]/Shopping/delivery/delivery-512.png"  transform="matrix(1 0 0 1 -1.525879e-005 0)">
</image>
<image display="none" overflow="visible" width="512" height="512" xlink:href="../../../Knowledge/Icon/[+++++] (Full) iOS7 icons [icons8]/Shopping/credit_card/credit_card-512.png"  transform="matrix(1 0 0 1 -1.525879e-005 0)">
</image>
<image display="none" overflow="visible" width="512" height="512" xlink:href="../../../Knowledge/Icon/[+++++] (Full) iOS7 icons [icons8]/Shopping/cash_receiving/cash_receiving-512.png"  transform="matrix(1 0 0 1 -1.525879e-005 0)">
</image>
<image display="none" overflow="visible" width="512" height="512" xlink:href="../../../Knowledge/Icon/[+++++] (Full) iOS7 icons [icons8]/Shopping/card_inserting/card_inserting-512.png"  transform="matrix(0.0781 0 0 0.0781 -1.525879e-005 0)">
</image>
<image display="none" overflow="visible" width="512" height="512" xlink:href="../../../Knowledge/Icon/[+++++] (Full) iOS7 icons [icons8]/Shopping/card_in_use/card_in_use-512.png"  transform="matrix(1 0 0 1 -1.525879e-005 0)">
</image>
<image display="none" overflow="visible" width="512" height="512" xlink:href="../../../Knowledge/Icon/[+++++] (Full) iOS7 icons [icons8]/Shopping/box2/box2-512.png"  transform="matrix(1 0 0 1 -1.525879e-005 0)">
</image>
<image display="none" overflow="visible" width="512" height="512" xlink:href="../../../Knowledge/Icon/[+++++] (Full) iOS7 icons [icons8]/Shopping/banknotes/banknotes-512.png"  transform="matrix(1 0 0 1 -1.525879e-005 0)">
</image>
<image display="none" overflow="visible" width="512" height="512" xlink:href="../../../Knowledge/Icon/[+++++] (Full) iOS7 icons [icons8]/Shopping/wallet/wallet-512.png"  transform="matrix(1 0 0 1 -1.525879e-005 0)">
</image>
<g display="none">
	<path fill="#FFFFFF" d="M261.5,512.5c-87.333,0-174.667,0-262,0c0-171,0-342,0-513c171,0,342,0,513,0c0,171,0,342,0,513
		c-35.667,0-71.333,0-107,0c0.592-0.26,1.16-0.627,1.779-0.766c31.018-6.935,43.452-40.392,24.431-65.719
		c-0.675-0.899-1.411-1.958-1.555-3.019c-1.37-10.157-3.825-12.404-13.906-12.405c-45.829-0.005-91.657,0.027-137.486-0.03
		c-7.992-0.01-16-0.135-23.972-0.649c-11.523-0.742-19.501-6.814-22.868-17.79c-4.282-13.956-7.838-28.135-11.924-43.008
		c3.017,0,5.141,0,7.265,0c58.994,0,117.988,0.006,176.983-0.008c8.78-0.002,11.611-1.947,14.631-9.921
		c23.742-62.693,47.486-125.385,71.174-188.097c0.808-2.14,1.412-4.486,1.478-6.755c0.21-7.186-7.117-12.359-13.353-8.813
		c-3.207,1.824-5.953,5.745-7.322,9.325c-22.804,59.668-45.393,119.418-67.874,179.208c-1.336,3.554-2.952,4.685-6.741,4.676
		c-58.494-0.133-116.988-0.142-175.482,0.009c-4.31,0.011-5.884-1.253-6.916-5.457c-18.007-73.353-36.15-146.672-54.39-219.967
		c-5.421-21.785-10.413-43.728-17.077-65.139c-7.613-24.463-23.345-35.886-48.835-36.687c-21.31-0.67-42.654-0.313-63.982-0.363
		c-4.14-0.01-8.353-0.246-12.407,0.407c-9.937,1.6-16.971,10.637-16.602,20.7c0.353,9.61,7.861,18.082,17.125,19.324
		c10.6,1.42,19.933-4.412,22.82-14.302c0.542-1.858,0.925-3.762,1.42-5.804c14.407,0,28.56-0.001,42.713,0
		c26.416,0.002,35.36,6.95,41.741,32.661c15.027,60.551,29.986,121.118,45.008,181.67c12.658,51.025,25.294,102.055,38.102,153.042
		c3.121,12.424,7.96,24.071,18.6,32.246c2.17,1.667,4.456,3.182,6.671,4.754c-12.564,18.191-11.689,38.26,2.07,53.57
		C243.449,506.767,252.143,510.261,261.5,512.5z M328.276,201.069c0-3.616,0-5.601,0-7.586c0-55.819,0.011-111.638-0.035-167.457
		c-0.002-2.634-0.21-5.348-0.863-7.886c-1.326-5.159-6.329-7.934-11.57-6.766c-5.667,1.263-8.188,5.216-8.189,13.014
		c-0.01,56.652-0.005,113.304-0.005,169.956c0,1.756,0,3.511,0,6.285c-1.983-1.819-3.194-2.852-4.318-3.973
		c-9.204-9.176-18.374-18.386-27.593-27.547c-3.455-3.433-7.318-5.947-12.456-3.853c-7.603,3.1-8.775,11.467-2.354,17.931
		c18.199,18.324,36.495,36.552,54.765,54.806c0.687,0.687,1.493,1.255,2.305,1.928c0.642-0.516,1.197-0.885,1.659-1.346
		c18.387-18.372,36.774-36.744,55.122-55.155c1.157-1.161,2.153-2.548,2.962-3.978c2.819-4.98,1.348-10.402-3.507-13.351
		c-4.554-2.766-9.066-1.913-13.818,2.818C350.026,179.222,339.728,189.591,328.276,201.069z"/>
	<path d="M271.482,507c-9.368-2.242-18.073-5.74-24.707-13.121c-13.777-15.329-14.652-35.422-2.073-53.635
		c-2.218-1.574-4.507-3.091-6.679-4.76c-10.653-8.185-15.498-19.846-18.623-32.285c-12.824-51.049-25.475-102.141-38.149-153.228
		c-15.04-60.626-30.017-121.267-45.063-181.891C129.8,42.336,120.845,35.38,94.397,35.378c-14.17-0.001-28.341,0-42.765,0
		c-0.496,2.044-0.879,3.951-1.422,5.811c-2.89,9.902-12.235,15.742-22.848,14.32c-9.276-1.243-16.793-9.725-17.146-19.347
		c-0.37-10.075,6.674-19.124,16.622-20.725c4.058-0.653,8.277-0.417,12.422-0.407c21.355,0.049,42.724-0.308,64.06,0.363
		c25.521,0.802,41.272,12.239,48.894,36.732c6.672,21.437,11.67,43.407,17.098,65.218c18.262,73.384,36.428,146.793,54.457,220.234
		c1.033,4.209,2.609,5.474,6.924,5.463c58.565-0.151,117.131-0.142,175.696-0.009c3.793,0.009,5.411-1.123,6.749-4.682
		c22.509-59.863,45.125-119.686,67.957-179.426c1.37-3.584,4.119-7.511,7.33-9.337c6.243-3.55,13.579,1.629,13.369,8.824
		c-0.066,2.271-0.67,4.62-1.48,6.763c-23.718,62.789-47.49,125.557-71.261,188.326c-3.023,7.983-5.858,9.931-14.648,9.933
		c-59.066,0.014-118.132,0.008-177.198,0.008c-2.127,0-4.253,0-7.274,0c4.091,14.891,7.651,29.087,11.938,43.06
		c3.372,10.99,11.359,17.068,22.896,17.812c7.982,0.514,15.999,0.64,24.001,0.65c45.884,0.057,91.769,0.025,137.653,0.03
		c10.093,0.001,12.551,2.251,13.923,12.42c0.143,1.062,0.88,2.122,1.556,3.022c19.043,25.357,6.594,58.855-24.461,65.798
		c-0.62,0.139-1.189,0.506-1.781,0.767c-3.671,0-7.342,0-11.013,0c-0.439-0.225-0.853-0.556-1.319-0.659
		c-23.449-5.177-36.439-22.991-33.626-46.687c0.551-4.645,2.491-9.125,3.862-13.932c-20.326,0-40.428,0-60.487,0
		c-0.067,0.456-0.156,0.645-0.105,0.782c0.284,0.768,0.594,1.527,0.91,2.282c6.559,15.697,4.719,30.233-5.939,43.601
		c-6.568,8.239-15.681,11.973-25.443,14.611C278.824,507,275.153,507,271.482,507z M409.852,445.825
		c-11.451,0.037-20.3,8.927-20.22,20.317c0.079,11.274,9.216,20.252,20.53,20.171c11.221-0.08,20.44-9.367,20.333-20.481
		C430.386,454.559,421.337,445.789,409.852,445.825z M256.399,465.828c-0.063,11.378,8.792,20.367,20.163,20.467
		c11.238,0.099,20.476-8.922,20.629-20.144c0.153-11.16-8.964-20.288-20.302-20.327
		C265.347,445.785,256.462,454.459,256.399,465.828z"/>
	<path fill="#FFFFFF" d="M272.5,512.5c9.751-2.635,18.852-6.365,25.412-14.593c10.645-13.352,12.483-27.87,5.932-43.548
		c-0.315-0.755-0.625-1.513-0.909-2.28c-0.051-0.137,0.038-0.326,0.105-0.781c20.034,0,40.113,0,60.414,0
		c-1.369,4.801-3.306,9.275-3.857,13.915c-2.809,23.667,10.166,41.46,33.586,46.63c0.465,0.103,0.879,0.434,1.317,0.658
		C353.833,512.5,313.167,512.5,272.5,512.5z"/>
	<path display="inline" d="M338.339,195.191c11.466-11.492,21.777-21.874,32.146-32.198c4.757-4.736,9.274-5.59,13.834-2.821
		c4.861,2.952,6.334,8.381,3.511,13.367c-0.81,1.432-1.807,2.821-2.966,3.983c-18.371,18.433-36.78,36.827-55.189,55.222
		c-0.462,0.462-1.018,0.831-1.661,1.348c-0.813-0.675-1.62-1.243-2.308-1.931c-18.292-18.276-36.61-36.526-54.831-54.873
		c-6.428-6.473-5.256-14.849,2.357-17.953c5.144-2.097,9.012,0.42,12.471,3.857c9.23,9.172,18.411,18.393,27.626,27.581
		c1.125,1.122,2.337,2.156,4.323,3.978c0-2.778,0-4.535,0-6.293c0-56.721-0.004-113.442,0.005-170.163
		c0.001-7.807,2.525-11.765,8.199-13.029c5.247-1.169,10.256,1.609,11.584,6.774c0.653,2.541,0.862,5.258,0.864,7.895
		c0.047,55.887,0.035,111.774,0.035,167.661C338.339,189.583,338.339,191.57,338.339,195.191z"/>
	<path fill="#FFFFFF" d="M399.702,451.4c11.471-0.037,20.508,8.723,20.618,19.983c0.108,11.101-9.1,20.376-20.308,20.456
		c-11.3,0.081-20.427-8.886-20.505-20.147C379.428,460.316,388.265,451.436,399.702,451.4z"/>
	<path fill="#FFFFFF" d="M246.435,471.378c0.063-11.355,8.937-20.018,20.465-19.979c11.323,0.039,20.429,9.156,20.277,20.302
		c-0.153,11.208-9.38,20.218-20.604,20.119C255.217,491.72,246.372,482.742,246.435,471.378z"/>
</g>
<g display="none">
	<path fill="#FFFFFF" d="M262.5,513.5c-87.333,0-174.667,0-262,0c0-171,0-342,0-513c171,0,342,0,513,0c0,171,0,342,0,513
		c-35.667,0-71.333,0-107,0c0.592-0.26,1.16-0.627,1.779-0.766c31.018-6.935,43.452-40.392,24.431-65.719
		c-0.675-0.899-1.411-1.958-1.555-3.019c-1.37-10.157-3.825-12.404-13.906-12.405c-45.829-0.005-91.657,0.027-137.486-0.03
		c-7.992-0.01-16-0.135-23.972-0.649c-11.523-0.742-19.501-6.814-22.868-17.79c-4.282-13.956-7.838-28.135-11.924-43.008
		c3.017,0,5.141,0,7.265,0c58.994,0,117.988,0.006,176.983-0.008c8.78-0.002,11.611-1.947,14.631-9.921
		c23.742-62.693,47.486-125.385,71.174-188.097c0.808-2.14,1.412-4.486,1.478-6.755c0.21-7.186-7.117-12.359-13.353-8.813
		c-3.207,1.824-5.953,5.745-7.322,9.325c-22.804,59.668-45.393,119.418-67.874,179.208c-1.336,3.554-2.952,4.685-6.741,4.676
		c-58.494-0.133-116.988-0.142-175.482,0.009c-4.31,0.011-5.884-1.253-6.916-5.457c-18.007-73.353-36.15-146.672-54.39-219.967
		c-5.421-21.785-10.413-43.728-17.077-65.139c-7.613-24.463-23.345-35.886-48.835-36.687c-21.31-0.67-42.654-0.313-63.982-0.363
		c-4.14-0.01-8.353-0.246-12.407,0.407c-9.937,1.6-16.971,10.637-16.602,20.7c0.353,9.61,7.861,18.082,17.125,19.324
		c10.6,1.42,19.933-4.412,22.82-14.302c0.542-1.858,0.925-3.762,1.42-5.804c14.407,0,28.56-0.001,42.713,0
		c26.416,0.002,35.36,6.95,41.741,32.661c15.027,60.551,29.986,121.118,45.008,181.67c12.658,51.025,25.294,102.055,38.102,153.042
		c3.121,12.424,7.96,24.071,18.6,32.246c2.17,1.667,4.456,3.182,6.671,4.754c-12.564,18.191-11.689,38.26,2.07,53.57
		C244.449,507.767,253.143,511.261,262.5,513.5z M329.276,46.691c10.939,10.97,20.757,20.862,30.643,30.684
		c1.636,1.625,3.421,3.207,5.399,4.359c5.245,3.053,11.221,1.087,13.884-4.34c2.122-4.325,0.947-8.668-3.761-13.383
		c-17.895-17.924-35.811-35.827-53.729-53.728c-0.882-0.881-1.86-1.667-2.893-2.585c-19.352,19.334-38.478,38.372-57.497,57.516
		c-3.062,3.082-4.715,6.893-2.954,11.38c2.974,7.578,11.457,8.83,17.914,2.483c9.625-9.461,19.108-19.067,28.671-28.591
		c0.95-0.946,2.041-1.752,3.661-3.127c0,2.966,0,4.958,0,6.951c0,55.987-0.002,111.975,0.002,167.962
		c0.001,9.198,3.597,14.361,10.072,14.508c6.735,0.152,10.587-5.106,10.587-14.493c0.003-55.987,0.002-111.975,0.002-167.962
		C329.276,52.334,329.276,50.345,329.276,46.691z"/>
	<path display="inline" d="M271.369,507.135c-9.299-2.223-17.941-5.693-24.526-13.014c-13.676-15.204-14.545-35.132-2.058-53.197
		c-2.201-1.561-4.474-3.065-6.63-4.721c-10.575-8.118-15.385-19.684-18.486-32.021c-12.73-50.632-25.289-101.306-37.87-151.976
		c-14.93-60.13-29.797-120.276-44.733-180.404c-6.342-25.532-15.231-32.431-41.486-32.434c-14.067-0.001-28.134,0-42.452,0
		c-0.492,2.028-0.873,3.919-1.412,5.764c-2.869,9.821-12.146,15.613-22.681,14.203c-9.208-1.233-16.67-9.646-17.021-19.189
		c-0.367-9.992,6.625-18.967,16.501-20.556c4.029-0.648,8.216-0.413,12.331-0.404c21.199,0.049,42.411-0.305,63.592,0.36
		c25.334,0.796,40.97,12.139,48.536,36.432c6.623,21.262,11.584,43.052,16.973,64.685c18.129,72.784,36.162,145.592,54.058,218.434
		c1.026,4.174,2.59,5.43,6.874,5.419c58.137-0.15,116.274-0.141,174.411-0.008c3.765,0.009,5.371-1.114,6.7-4.643
		c22.344-59.374,44.795-118.707,67.46-177.959c1.36-3.555,4.089-7.449,7.277-9.26c6.197-3.521,13.479,1.616,13.271,8.752
		c-0.066,2.253-0.665,4.582-1.469,6.708c-23.544,62.276-47.142,124.531-70.74,186.787c-3.001,7.918-5.815,9.849-14.541,9.852
		c-58.634,0.014-117.268,0.008-175.902,0.008c-2.111,0-4.222,0-7.221,0c4.061,14.769,7.595,28.849,11.851,42.708
		c3.347,10.9,11.276,16.929,22.729,17.666c7.923,0.51,15.882,0.634,23.825,0.644c45.549,0.057,91.097,0.025,136.646,0.03
		c10.019,0.001,12.459,2.232,13.821,12.318c0.142,1.053,0.874,2.105,1.545,2.998c18.904,25.15,6.546,58.374-24.282,65.261
		c-0.615,0.137-1.18,0.502-1.768,0.761c-3.644,0-7.289,0-10.933,0c-0.435-0.223-0.847-0.552-1.309-0.654
		c-23.277-5.134-36.172-22.803-33.38-46.305c0.547-4.607,2.473-9.05,3.834-13.818c-20.177,0-40.133,0-60.045,0
		c-0.067,0.452-0.155,0.64-0.104,0.776c0.282,0.762,0.59,1.514,0.903,2.264c6.511,15.569,4.684,29.986-5.896,43.245
		c-6.52,8.171-15.566,11.875-25.257,14.492C278.657,507.135,275.013,507.135,271.369,507.135z M408.852,446.459
		c-11.403,0.006-20.218,8.748-20.197,20.027c0.02,11.207,9.006,20.136,20.255,20.127c11.146-0.009,20.315-9.122,20.309-20.185
		C429.213,455.288,420.201,446.452,408.852,446.459z M276.351,446.464c-11.34,0.054-20.058,8.889-19.955,20.222
		c0.102,11.224,9.132,20.045,20.401,19.929c11.12-0.114,20.269-9.393,20.092-20.379
		C296.709,455.035,287.748,446.409,276.351,446.464z"/>
	<path fill="#FFFFFF" d="M273.5,513.5c9.751-2.635,18.852-6.365,25.412-14.593c10.645-13.352,12.483-27.87,5.932-43.548
		c-0.315-0.755-0.625-1.513-0.909-2.28c-0.051-0.137,0.038-0.326,0.105-0.781c20.035,0,40.113,0,60.414,0
		c-1.369,4.801-3.306,9.275-3.857,13.915c-2.809,23.667,10.166,41.46,33.586,46.63c0.465,0.103,0.879,0.434,1.317,0.658
		C354.833,513.5,314.167,513.5,273.5,513.5z"/>
	<path d="M337.62,43.701c0,3.627,0,5.6,0,7.574c0,55.566,0.002,111.133-0.002,166.699c-0.001,9.316-3.823,14.535-10.507,14.384
		c-6.427-0.145-9.996-5.27-9.997-14.399c-0.004-55.566-0.002-111.133-0.002-166.699c0-1.978,0-3.955,0-6.899
		c-1.607,1.365-2.69,2.165-3.633,3.104c-9.491,9.452-18.902,18.987-28.455,28.376c-6.408,6.299-14.828,5.057-17.779-2.464
		c-1.747-4.453-0.107-8.235,2.932-11.294c18.876-19,37.859-37.895,57.065-57.083c1.025,0.912,1.996,1.691,2.871,2.566
		c17.783,17.766,35.565,35.535,53.325,53.324c4.672,4.68,5.839,8.99,3.733,13.283c-2.642,5.387-8.574,7.338-13.78,4.308
		c-1.963-1.143-3.735-2.713-5.359-4.326C358.221,64.406,348.478,54.589,337.62,43.701z"/>
	<path fill="#FFFFFF" d="M400.828,452.398c11.419-0.006,20.486,8.892,20.492,20.11c0.006,11.14-9.219,20.317-20.433,20.326
		c-11.318,0.009-20.359-8.982-20.38-20.268C380.486,461.207,389.355,452.404,400.828,452.398z"/>
	<path fill="#FFFFFF" d="M267.513,452.403c11.468-0.055,20.483,8.632,20.665,19.91c0.178,11.063-9.027,20.408-20.216,20.522
		c-11.338,0.116-20.423-8.767-20.526-20.069C247.331,461.353,256.103,452.457,267.513,452.403z"/>
</g>
<image display="none" overflow="visible" width="512" height="512" xlink:href="../../../Knowledge/Icon/[+++++] (Full) iOS7 icons [icons8]/Shopping/shopping_cart_empty/shopping_cart_empty-512.png"  transform="matrix(0.0781 0 0 0.0781 -1.525879e-005 0)">
</image>
<g>
	<path display="none" fill="#FFFFFF" d="M262.5,513.5c-87.333,0-174.667,0-262,0c0-171,0-342,0-513c171,0,342,0,513,0
		c0,171,0,342,0,513c-35.667,0-71.333,0-107,0c0.592-0.26,1.159-0.627,1.778-0.766c31.024-6.937,43.449-40.378,24.428-65.724
		c-0.675-0.899-1.409-1.96-1.55-3.021c-1.357-10.141-3.824-12.396-13.915-12.397c-45.833-0.005-91.666,0.028-137.498-0.03
		c-7.993-0.01-15.995-0.2-23.975-0.645c-11.386-0.634-19.245-6.608-22.608-17.355c-4.407-14.087-8.033-28.418-12.218-43.446
		c3.081,0,5.209,0,7.337,0c58.833,0,117.666,0.004,176.499-0.005c9.417-0.001,12.094-1.83,15.338-10.4
		c14.078-37.185,28.147-74.374,42.221-111.56c9.657-25.517,19.333-51.028,28.965-76.555c2.75-7.288,1.195-12.95-4.615-15.305
		c-2.503-1.014-5.528-1.013-8.316-1.014c-79.166-0.049-158.333-0.039-237.499-0.04c-22.5,0-45.001-0.136-67.498,0.12
		c-4.245,0.048-5.788-1.354-6.63-5.261c-1.857-8.617-4.065-17.161-6.259-25.702c-5.586-21.746-10.432-43.726-17.084-65.144
		c-7.612-24.508-23.343-35.966-48.788-36.759c-21.313-0.664-42.658-0.314-63.988-0.365c-4.141-0.01-8.353-0.246-12.408,0.4
		C8.259,24.112,1.209,33.107,1.548,43.171c0.324,9.614,7.807,18.11,17.069,19.381c10.593,1.453,19.962-4.364,22.866-14.243
		c0.547-1.86,0.918-3.773,1.417-5.859c14.372,0,28.525-0.001,42.678,0c26.46,0.002,35.402,6.913,41.778,32.617
		c14.102,56.843,28.097,113.713,42.202,170.556c13.584,54.743,27.192,109.48,40.931,164.184
		c3.122,12.431,7.949,24.076,18.585,32.258c2.17,1.67,4.46,3.183,6.678,4.757c-12.563,18.212-11.692,38.258,2.069,53.571
		C244.447,507.766,253.142,511.261,262.5,513.5z"/>
	<path d="M271.324,507.5c-9.299-2.224-17.94-5.694-24.524-13.016c-13.674-15.207-14.54-35.113-2.056-53.198
		c-2.204-1.562-4.479-3.066-6.636-4.724c-10.569-8.125-15.365-19.689-18.468-32.033c-13.653-54.323-27.175-108.679-40.674-163.04
		c-14.017-56.446-27.923-112.92-41.937-169.367c-6.337-25.525-15.222-32.388-41.516-32.39c-14.064-0.001-28.128,0-42.41,0
		c-0.496,2.072-0.865,3.971-1.408,5.818C48.81,55.361,39.5,61.137,28.973,59.694c-9.204-1.262-16.64-9.699-16.962-19.246
		c-0.337-9.995,6.669-18.927,16.565-20.502c4.03-0.641,8.216-0.407,12.33-0.397c21.197,0.051,42.407-0.297,63.586,0.363
		c25.285,0.787,40.917,12.166,48.481,36.502c6.611,21.268,11.426,43.095,16.977,64.69c2.18,8.481,4.374,16.966,6.219,25.523
		c0.837,3.879,2.37,5.272,6.588,5.224c22.356-0.254,44.716-0.119,67.074-0.119c78.669,0,157.338-0.009,236.007,0.039
		c2.77,0.002,5.776,0,8.263,1.007c5.774,2.339,7.319,7.962,4.586,15.199c-9.571,25.349-19.186,50.682-28.783,76.021
		c-13.985,36.928-27.967,73.857-41.956,110.783c-3.224,8.51-5.883,10.326-15.242,10.327c-58.463,0.008-116.927,0.004-175.39,0.005
		c-2.115,0-4.23,0-7.291,0c4.159,14.924,7.762,29.155,12.141,43.144c3.341,10.672,11.151,16.604,22.466,17.234
		c7.929,0.441,15.882,0.63,23.824,0.64c45.545,0.058,91.09,0.026,136.635,0.03c10.027,0.001,12.479,2.241,13.827,12.311
		c0.141,1.054,0.87,2.107,1.541,3c18.901,25.17,6.555,58.377-24.274,65.266c-0.615,0.137-1.179,0.502-1.767,0.76
		c-3.644,0-7.287,0-10.931,0c-0.435-0.223-0.847-0.552-1.309-0.654c-23.273-5.134-36.166-22.803-33.375-46.305
		c0.547-4.607,2.472-9.05,3.833-13.818c-20.174,0-40.126,0-60.034,0c-0.067,0.452-0.155,0.64-0.104,0.776
		c0.282,0.762,0.59,1.514,0.903,2.264c6.51,15.569,4.683,29.986-5.895,43.245c-6.519,8.171-15.563,11.875-25.253,14.492
		C278.611,507.5,274.968,507.5,271.324,507.5z M475.422,172.133c-97.846,0-195.09,0-292.57,0c0.224,1.268,0.338,2.24,0.571,3.182
		c13.539,54.692,27.151,109.365,40.516,164.099c1.104,4.523,3,5.479,7.346,5.467c57.633-0.153,115.268-0.165,172.901,0.018
		c4.549,0.014,6.531-1.308,8.119-5.543c18.04-48.11,36.299-96.138,54.489-144.192C469.645,187.634,472.445,180.085,475.422,172.133z
		 M408.839,446.823c-11.419-0.007-20.243,8.696-20.25,19.972c-0.006,11.217,8.942,20.159,20.196,20.18
		c11.152,0.022,20.321-9.041,20.361-20.126C429.186,455.727,420.165,446.83,408.839,446.823z M276.745,446.824
		c-11.467-0.052-20.306,8.524-20.391,19.786c-0.085,11.299,8.664,20.221,19.957,20.352c11.158,0.13,20.33-8.771,20.529-19.922
		C297.038,455.992,287.975,446.875,276.745,446.824z"/>
	<path display="none" fill="#FFFFFF" d="M273.5,513.5c9.751-2.635,18.852-6.365,25.412-14.593
		c10.645-13.352,12.483-27.87,5.932-43.548c-0.315-0.755-0.625-1.513-0.909-2.28c-0.051-0.137,0.038-0.326,0.105-0.781
		c20.035,0,40.113,0,60.414,0c-1.369,4.801-3.306,9.275-3.857,13.915c-2.809,23.667,10.166,41.46,33.586,46.63
		c0.465,0.103,0.879,0.434,1.317,0.658C354.833,513.5,314.167,513.5,273.5,513.5z"/>
	<path display="none" fill="#FFFFFF" d="M467.889,175.78c-2.996,8.007-5.814,15.609-8.682,23.192
		c-18.305,48.391-36.68,96.756-54.834,145.204c-1.598,4.265-3.593,5.597-8.171,5.582c-57.998-0.184-115.996-0.172-173.994-0.018
		c-4.373,0.012-6.281-0.951-7.392-5.506c-13.45-55.118-27.148-110.175-40.772-165.25c-0.235-0.949-0.349-1.927-0.575-3.204
		C271.565,175.78,369.424,175.78,467.889,175.78z M304.505,257.488c-10.576,10.566-20.715,20.65-30.785,30.804
		c-1.623,1.636-3.197,3.432-4.334,5.417c-2.802,4.892-1.169,10.464,3.65,13.34c4.475,2.671,9.022,1.746,13.81-3.028
		c10.605-10.572,21.149-21.206,32.67-32.77c1.35,1.852,2.256,3.492,3.525,4.774c9.376,9.473,18.763,18.938,28.275,28.275
		c5.232,5.136,11.244,5.56,15.539,1.444c4.317-4.137,3.893-10.782-1.181-15.96c-5.946-6.069-11.942-12.094-18.033-18.017
		c-4.741-4.611-9.662-9.038-14.71-13.74c11.011-11.023,21.144-21.122,31.209-31.288c1.622-1.639,3.21-3.423,4.349-5.407
		c2.8-4.877,1.18-10.474-3.603-13.356c-4.483-2.701-9.041-1.806-13.825,2.951c-10.622,10.563-21.178,21.192-33.095,33.132
		c-1.153-1.902-1.849-3.74-3.111-5.022c-9.232-9.382-18.56-18.669-27.895-27.948c-3.457-3.436-7.334-5.935-12.465-3.878
		c-7.562,3.032-8.71,11.485-2.322,17.956C282.699,235.831,293.36,246.361,304.505,257.488z"/>
	<path display="none" fill="#FFFFFF" d="M400.885,452.397c11.397,0.007,20.476,8.967,20.436,20.167
		c-0.04,11.162-9.267,20.289-20.49,20.267c-11.325-0.022-20.33-9.026-20.324-20.322C380.513,461.154,389.393,452.39,400.885,452.397
		z"/>
	<path display="none" fill="#FFFFFF" d="M267.956,452.398c11.301,0.052,20.421,9.233,20.222,20.357
		c-0.2,11.229-9.43,20.193-20.659,20.062c-11.365-0.132-20.169-9.117-20.083-20.495
		C247.521,460.982,256.416,452.346,267.956,452.398z"/>
	<path display="none" d="M313.065,253.272c-11.075-11.049-21.669-21.506-32.128-32.096c-6.348-6.426-5.207-14.82,2.308-17.831
		c5.098-2.043,8.951,0.439,12.386,3.851c9.276,9.215,18.546,18.437,27.72,27.754c1.254,1.273,1.946,3.098,3.091,4.987
		c11.843-11.857,22.332-22.412,32.888-32.901c4.754-4.724,9.283-5.613,13.738-2.931c4.753,2.862,6.363,8.419,3.58,13.263
		c-1.132,1.97-2.709,3.742-4.322,5.369c-10.002,10.095-20.071,20.124-31.013,31.07c5.017,4.669,9.906,9.065,14.618,13.644
		c6.053,5.882,12.011,11.864,17.92,17.892c5.041,5.142,5.463,11.741,1.173,15.849c-4.267,4.086-10.242,3.665-15.441-1.434
		c-9.452-9.272-18.78-18.671-28.097-28.078c-1.26-1.273-2.161-2.901-3.503-4.74c-11.449,11.484-21.927,22.043-32.465,32.542
		c-4.759,4.741-9.276,5.659-13.723,3.007c-4.788-2.856-6.412-8.39-3.627-13.247c1.13-1.971,2.694-3.755,4.307-5.38
		C292.48,273.777,302.556,263.764,313.065,253.272z"/>
</g>
<g display="none">
	<path fill="#FFFFFF" d="M262.5,513.5c-87.333,0-174.667,0-262,0c0-171,0-342,0-513c171,0,342,0,513,0c0,171,0,342,0,513
		c-35.667,0-71.333,0-107,0c0.589-0.26,1.155-0.627,1.771-0.765c31.019-6.942,43.462-40.406,24.443-65.715
		c-0.676-0.899-1.414-1.957-1.558-3.017c-1.381-10.171-3.825-12.41-13.9-12.411c-45.829-0.005-91.659,0.024-137.488-0.027
		c-7.827-0.009-15.661-0.192-23.478-0.574c-11.809-0.576-19.876-6.716-23.331-17.854c-4.327-13.947-7.869-28.137-11.97-43.021
		c3.003,0,5.13,0,7.256,0c58.662,0,117.324,0.002,175.986-0.003c10.247-0.001,12.572-1.648,16.217-11.293
		c16.467-43.57,32.939-87.138,49.418-130.704c7.18-18.982,14.437-37.936,21.549-56.943c3.55-9.487-0.864-15.796-10.981-15.922
		c-5.665-0.07-11.344-0.235-16.995,0.062c-3.844,0.202-6.497-1.134-9.178-3.833c-26.897-27.074-53.911-54.032-80.909-81.005
		c-7.225-7.218-12.324-7.177-19.597,0.085c-9.316,9.303-18.61,18.628-27.929,27.928c-1.009,1.007-2.12,1.91-3.393,3.05
		c-10.387-10.409-20.491-20.555-30.619-30.678c-7.726-7.722-12.574-7.71-20.311,0.024c-24.75,24.743-49.809,49.191-74.051,74.423
		c-7.341,7.64-14.731,11.739-25.151,9.933c-0.162-0.028-0.336-0.025-0.499-0.001c-2.935,0.434-3.993-1.005-4.624-3.777
		c-2.066-9.082-4.382-18.11-6.704-27.132c-5.596-21.742-10.435-43.723-17.095-65.136c-7.611-24.469-23.348-35.904-48.824-36.703
		c-21.311-0.668-42.654-0.313-63.984-0.363c-4.14-0.01-8.353-0.246-12.407,0.405C8.224,24.129,1.188,33.154,1.551,43.219
		c0.346,9.612,7.848,18.089,17.112,19.337c10.599,1.428,19.94-4.4,22.831-14.288c0.543-1.857,0.923-3.761,1.42-5.817
		c14.398,0,28.551-0.001,42.705,0c26.426,0.002,35.373,6.94,41.749,32.651c14.095,56.841,28.092,113.706,42.196,170.544
		c13.583,54.739,27.19,109.472,40.93,164.171c3.122,12.43,7.952,24.073,18.588,32.253c2.169,1.668,4.457,3.182,6.672,4.755
		c-12.564,18.196-11.69,38.259,2.07,53.57C244.448,507.767,253.143,511.261,262.5,513.5z"/>
	<path display="inline" d="M271.319,507c-9.298-2.223-17.938-5.693-24.522-13.014c-13.673-15.205-14.542-35.128-2.057-53.197
		c-2.202-1.562-4.475-3.065-6.63-4.722c-10.569-8.123-15.368-19.685-18.471-32.028c-13.653-54.319-27.174-108.67-40.672-163.027
		c-14.016-56.442-27.924-112.911-41.93-169.356c-6.335-25.532-15.226-32.421-41.486-32.423c-14.064-0.001-28.128,0-42.436,0
		c-0.494,2.042-0.871,3.933-1.411,5.777c-2.872,9.819-12.155,15.607-22.687,14.189c-9.206-1.24-16.661-9.657-17.004-19.202
		c-0.36-9.995,6.632-18.957,16.513-20.543c4.028-0.646,8.215-0.412,12.329-0.402c21.195,0.049,42.404-0.303,63.581,0.361
		c25.315,0.793,40.953,12.149,48.516,36.448c6.619,21.264,11.427,43.091,16.988,64.682c2.307,8.959,4.609,17.924,6.662,26.943
		c0.627,2.753,1.678,4.182,4.594,3.751c0.162-0.024,0.335-0.027,0.496,0.001c10.354,1.794,17.698-2.276,24.993-9.863
		c24.089-25.056,48.99-49.333,73.584-73.904c7.688-7.68,12.506-7.692,20.183-0.024c10.064,10.052,20.105,20.128,30.426,30.464
		c1.265-1.131,2.369-2.029,3.371-3.028c9.26-9.235,18.496-18.495,27.753-27.733c7.227-7.211,12.294-7.252,19.473-0.084
		c26.828,26.785,53.672,53.555,80.399,80.441c2.664,2.68,5.301,4.007,9.12,3.806c5.615-0.295,11.258-0.132,16.887-0.062
		c10.052,0.125,14.439,6.389,10.911,15.811c-7.068,18.875-14.279,37.697-21.414,56.547c-16.375,43.262-32.743,86.527-49.107,129.793
		c-3.622,9.578-5.932,11.213-16.115,11.214c-58.293,0.005-116.585,0.002-174.878,0.002c-2.113,0-4.226,0-7.21,0
		c4.075,14.78,7.595,28.871,11.894,42.721c3.433,11.061,11.45,17.158,23.184,17.73c7.768,0.379,15.552,0.561,23.33,0.57
		c45.541,0.051,91.082,0.023,136.622,0.027c10.012,0.001,12.44,2.225,13.813,12.324c0.143,1.053,0.877,2.104,1.548,2.996
		c18.899,25.132,6.534,58.364-24.289,65.257c-0.613,0.137-1.175,0.501-1.76,0.759c-3.644,0-7.287,0-10.931,0
		c-0.435-0.223-0.847-0.552-1.309-0.654c-23.273-5.134-36.166-22.803-33.374-46.305c0.547-4.607,2.472-9.05,3.833-13.818
		c-20.173,0-40.125,0-60.033,0c-0.067,0.452-0.155,0.64-0.104,0.776c0.282,0.762,0.59,1.514,0.903,2.264
		c6.509,15.569,4.683,29.986-5.895,43.245c-6.519,8.171-15.563,11.875-25.252,14.492C278.607,507,274.963,507,271.319,507z
		 M475.416,171.631c-97.845,0-195.087,0-292.565,0c0.222,1.264,0.334,2.237,0.567,3.179c13.538,54.692,27.15,109.365,40.516,164.099
		c1.103,4.516,2.989,5.485,7.341,5.473c57.633-0.154,115.266-0.165,172.898,0.016c4.541,0.014,6.533-1.295,8.124-5.537
		c18.038-48.111,36.297-96.139,54.488-144.193C469.635,187.139,472.436,179.59,475.416,171.631z M226.976,150.892
		c42.265,0,84.684,0,126.647,0c-21.181-21.169-42.418-42.395-63.316-63.281C269.548,108.354,248.285,129.6,226.976,150.892z
		 M434.857,151.233c-21.299-21.31-42.585-42.606-63.561-63.593c-8.027,8.021-16.537,16.523-25.23,25.209
		c12.13,12.16,24.458,24.61,36.956,36.888c1.095,1.076,3.293,1.409,4.988,1.432c9.599,0.132,19.202,0.064,28.803,0.064
		C423.025,151.233,429.237,151.233,434.857,151.233z M408.708,446.325c-11.384,0.023-20.178,8.803-20.125,20.094
		c0.052,11.191,9.086,20.111,20.319,20.063c11.137-0.048,20.298-9.217,20.237-20.256
		C429.077,455.063,420.083,446.302,408.708,446.325z M276.409,446.327c-11.37,0.027-20.117,8.798-20.06,20.115
		c0.057,11.244,9.014,20.088,20.289,20.033c11.14-0.054,20.284-9.229,20.197-20.267C296.747,455.03,287.778,446.3,276.409,446.327z"
		/>
	<path fill="#FFFFFF" d="M273.5,513.5c9.751-2.635,18.852-6.365,25.412-14.593c10.645-13.352,12.483-27.87,5.932-43.548
		c-0.315-0.755-0.625-1.513-0.909-2.28c-0.051-0.137,0.038-0.326,0.105-0.781c20.035,0,40.113,0,60.414,0
		c-1.369,4.801-3.306,9.275-3.857,13.915c-2.809,23.667,10.166,41.46,33.586,46.63c0.465,0.103,0.879,0.434,1.317,0.658
		C354.833,513.5,314.167,513.5,273.5,513.5z"/>
	<path fill="#FFFFFF" d="M467.891,175.778c-3,8.015-5.818,15.617-8.686,23.2c-18.305,48.391-36.68,96.756-54.833,145.204
		c-1.601,4.272-3.605,5.59-8.175,5.576c-57.998-0.182-115.996-0.172-173.994-0.016c-4.38,0.012-6.278-0.964-7.388-5.512
		c-13.45-55.118-27.149-110.175-40.773-165.25c-0.235-0.949-0.347-1.928-0.571-3.202
		C271.567,175.778,369.425,175.778,467.891,175.778z"/>
	<path fill="#FFFFFF" d="M217.876,154.893c21.444-21.441,42.842-42.836,63.732-63.725c21.03,21.032,42.402,42.407,63.717,63.725
		C303.096,154.893,260.409,154.893,217.876,154.893z"/>
	<path fill="#FFFFFF" d="M427.075,155.237c-5.656,0-11.907,0-18.158,0c-9.662,0-19.325,0.068-28.985-0.065
		c-1.706-0.023-3.918-0.359-5.02-1.442c-12.576-12.364-24.983-24.901-37.19-37.147c8.748-8.746,17.311-17.308,25.389-25.385
		C384.22,112.332,405.64,133.777,427.075,155.237z"/>
	<path fill="#FFFFFF" d="M400.76,452.399c11.447-0.023,20.498,8.8,20.56,20.041c0.062,11.117-9.157,20.35-20.365,20.398
		c-11.305,0.048-20.396-8.934-20.448-20.203C380.454,461.263,389.303,452.422,400.76,452.399z"/>
	<path fill="#FFFFFF" d="M267.622,452.402c11.441-0.028,20.467,8.764,20.555,20.021c0.087,11.115-9.114,20.355-20.325,20.409
		c-11.346,0.055-20.36-8.851-20.417-20.174C247.378,461.262,256.18,452.429,267.622,452.402z"/>
</g>
</svg>
