<?xml version="1.0" encoding="utf-8"?>
<!-- Generator: Adobe Illustrator 16.0.0, SVG Export Plug-In . SVG Version: 6.00 Build 0)  -->
<!DOCTYPE svg PUBLIC "-//W3C//DTD SVG 1.1//EN" "http://www.w3.org/Graphics/SVG/1.1/DTD/svg11.dtd">
<svg version="1.1" id="Layer_1" xmlns="http://www.w3.org/2000/svg" xmlns:xlink="http://www.w3.org/1999/xlink" x="0px" y="0px"
	 width="512px" height="512px" viewBox="0 0 512 512" enable-background="new 0 0 512 512" xml:space="preserve">
<g>
	<line fill="none" stroke="#B35047" x1="32" y1="0" x2="32" y2="512"/>
	<line fill="none" stroke="#B35047" x1="64" y1="0" x2="64" y2="512"/>
	<line fill="none" stroke="#B35047" x1="96" y1="0" x2="96" y2="512"/>
	<line fill="none" stroke="#B35047" x1="128" y1="0" x2="128" y2="512"/>
	<line fill="none" stroke="#B35047" x1="160" y1="0" x2="160" y2="512"/>
	<line fill="none" stroke="#B35047" x1="192" y1="0" x2="192" y2="512"/>
	<line fill="none" stroke="#B35047" x1="224" y1="0" x2="224" y2="512"/>
	<line fill="none" stroke="#B35047" x1="256" y1="0" x2="256" y2="512"/>
	<line fill="none" stroke="#B35047" x1="288" y1="0" x2="288" y2="512"/>
	<line fill="none" stroke="#B35047" x1="320" y1="0" x2="320" y2="512"/>
	<line fill="none" stroke="#B35047" x1="352" y1="0" x2="352" y2="512"/>
	<line fill="none" stroke="#B35047" x1="384" y1="0" x2="384" y2="512"/>
	<line fill="none" stroke="#B35047" x1="416" y1="0" x2="416" y2="512"/>
	<line fill="none" stroke="#B35047" x1="448" y1="0" x2="448" y2="512"/>
	<line fill="none" stroke="#B35047" x1="480" y1="0" x2="480" y2="512"/>
	<line fill="none" stroke="#B35047" x1="0" y1="32" x2="512" y2="32"/>
	<line fill="none" stroke="#B35047" x1="0" y1="64" x2="512" y2="64"/>
	<line fill="none" stroke="#B35047" x1="0" y1="96" x2="512" y2="96"/>
	<line fill="none" stroke="#B35047" x1="0" y1="128" x2="512" y2="128"/>
	<line fill="none" stroke="#B35047" x1="0" y1="160" x2="512" y2="160"/>
	<line fill="none" stroke="#B35047" x1="0" y1="192" x2="512" y2="192"/>
	<line fill="none" stroke="#B35047" x1="0" y1="224" x2="512" y2="224"/>
	<line fill="none" stroke="#B35047" x1="0" y1="256" x2="512" y2="256"/>
	<line fill="none" stroke="#B35047" x1="0" y1="288" x2="512" y2="288"/>
	<line fill="none" stroke="#B35047" x1="0" y1="320" x2="512" y2="320"/>
	<line fill="none" stroke="#B35047" x1="0" y1="352" x2="512" y2="352"/>
	<line fill="none" stroke="#B35047" x1="0" y1="384" x2="512" y2="384"/>
	<line fill="none" stroke="#B35047" x1="0" y1="416" x2="512" y2="416"/>
	<line fill="none" stroke="#B35047" x1="0" y1="448" x2="512" y2="448"/>
	<line fill="none" stroke="#B35047" x1="0" y1="480" x2="512" y2="480"/>
	<rect fill="none" stroke="#B35047" width="512" height="512"/>
</g>
<g>
	<path fill-rule="evenodd" clip-rule="evenodd" d="M21.896,268.688c0-9.107,0-18.214,0-27.32c0.264-1.305,0.678-2.598,0.771-3.915
		c2.606-36.641,13.17-70.9,32.412-102.108c37.006-60.021,90.275-96.896,159.776-109.825c8.759-1.629,17.671-2.436,26.513-3.623
		c9.106,0,18.213,0,27.32,0c1.324,0.266,2.641,0.68,3.979,0.776c36.798,2.636,71.176,13.291,102.485,32.681
		c59.801,37.037,96.522,90.235,109.393,159.565c1.622,8.74,2.429,17.629,3.614,26.45c0,9.106,0,18.213,0,27.32
		c-0.264,1.305-0.678,2.598-0.771,3.913c-2.606,36.642-13.17,70.902-32.411,102.109c-37.007,60.021-90.274,96.896-159.776,109.825
		c-8.759,1.629-17.672,2.436-26.512,3.623c-9.107,0-18.214,0-27.32,0c-1.326-0.266-2.641-0.68-3.979-0.775
		c-36.798-2.637-71.177-13.291-102.485-32.682C75.101,417.665,38.38,364.466,25.511,295.137
		C23.888,286.396,23.081,277.508,21.896,268.688z M255.029,40.535c-118.365-0.006-214.82,96.497-214.494,214.603
		c0.327,118.528,95.469,213.722,214.262,214.381c117.868,0.653,214.381-95.705,214.721-214.376
		C469.856,137.045,373.404,40.542,255.029,40.535z"/>
	<path display="none" fill-rule="evenodd" clip-rule="evenodd" fill="#FFFFFF" d="M242.287,22.816
		c-8.841,1.187-17.753,1.994-26.513,3.624c-69.5,12.929-122.77,49.803-159.776,109.825c-19.241,31.208-29.805,65.467-32.412,102.108
		c-0.093,1.317-0.507,2.61-0.771,3.915c0-73.157,0-146.314,0-219.471C95.973,22.816,169.13,22.816,242.287,22.816z"/>
	<path display="none" fill-rule="evenodd" clip-rule="evenodd" fill="#FFFFFF" d="M489.078,242.287
		c-1.185-8.82-1.992-17.71-3.614-26.45c-12.87-69.33-49.592-122.528-109.393-159.565c-31.31-19.39-65.688-30.044-102.485-32.681
		c-1.338-0.096-2.653-0.51-3.979-0.776c73.156,0,146.314,0,219.471,0C489.078,95.973,489.078,169.13,489.078,242.287z"/>
	<path display="none" fill-rule="evenodd" clip-rule="evenodd" fill="#FFFFFF" d="M22.816,269.607
		c1.185,8.82,1.992,17.71,3.615,26.449c12.87,69.33,49.591,122.528,109.393,159.564c31.309,19.391,65.688,30.045,102.485,32.682
		c1.338,0.096,2.653,0.51,3.979,0.775c-73.157,0-146.314,0-219.471,0C22.816,415.922,22.816,342.764,22.816,269.607z"/>
	<path display="none" fill-rule="evenodd" clip-rule="evenodd" fill="#FFFFFF" d="M269.607,489.078
		c8.84-1.188,17.753-1.994,26.512-3.623c69.502-12.93,122.77-49.805,159.776-109.825c19.241-31.207,29.805-65.468,32.411-102.108
		c0.094-1.316,0.508-2.609,0.771-3.914c0,73.156,0,146.314,0,219.471C415.922,489.078,342.764,489.078,269.607,489.078z"/>
	<path display="none" fill-rule="evenodd" clip-rule="evenodd" fill="#FFFFFF" d="M255.949,41.455
		c118.375,0.006,214.827,96.51,214.489,214.607c-0.339,118.671-96.854,215.03-214.722,214.376
		c-118.793-0.659-213.935-95.853-214.262-214.381C41.129,137.953,137.584,41.449,255.949,41.455z M265.205,153.129
		c0-23.519,0.012-47.037-0.018-70.556c-0.004-1.958-0.021-3.979-0.475-5.865c-1.319-5.496-6.563-8.256-11.934-6.475
		c-4.07,1.351-6.083,4.936-6.084,11.073c-0.012,47.796-0.05,95.591,0.08,143.386c0.01,3.521-1.033,5.271-4.172,6.918
		c-11.511,6.041-17.185,19.383-13.422,31.663c1.131,3.691,0.595,5.854-2.178,8.576c-16.89,16.582-33.55,33.397-50.276,50.147
		c-3.224,3.229-5.832,6.761-3.894,11.659c2.824,7.136,10.486,8.061,16.609,1.962c16.77-16.704,33.553-33.397,50.163-50.261
		c2.827-2.87,5.148-4.438,9.292-2.568c2.361,1.065,5.365,1.165,8.039,1.008c13.026-0.773,23.441-9.412,26.207-21.445
		c2.904-12.637-2.777-24.924-14.736-31.224c-2.543-1.338-3.277-2.856-3.264-5.622C265.254,201.38,265.205,177.254,265.205,153.129z"
		/>
	<path fill-rule="evenodd" clip-rule="evenodd" d="M264.285,152.209c0,24.125,0.049,48.251-0.063,72.376
		c-0.014,2.766,0.721,4.284,3.264,5.622c11.959,6.3,17.641,18.587,14.736,31.224c-2.766,12.033-13.181,20.672-26.207,21.444
		c-2.673,0.158-5.677,0.059-8.039-1.007c-4.144-1.869-6.465-0.302-9.292,2.568c-16.61,16.863-33.393,33.557-50.163,50.261
		c-6.123,6.099-13.785,5.174-16.609-1.962c-1.938-4.898,0.669-8.431,3.894-11.66c16.726-16.749,33.386-33.564,50.276-50.146
		c2.773-2.723,3.309-4.885,2.178-8.576c-3.763-12.28,1.912-25.623,13.422-31.663c3.139-1.647,4.182-3.397,4.172-6.918
		c-0.129-47.795-0.092-95.59-0.08-143.387c0.001-6.137,2.014-9.722,6.084-11.073c5.37-1.781,10.614,0.979,11.934,6.475
		c0.452,1.886,0.471,3.907,0.475,5.865C264.297,105.172,264.285,128.69,264.285,152.209z"/>
</g>
<g display="none">
	<path fill-rule="evenodd" clip-rule="evenodd" fill="#FFFFFF" d="M22.816,242.209c0-73.157,0-146.314,0-219.471
		c74.675,0,149.35,0,224.024,0c-0.051,16.539-0.119,33.077-0.147,49.616c-0.024,13.961-0.047,27.922,0.02,41.884
		c0.027,5.724,2.199,9.038,6.426,10.35c6.67,2.071,12.028-2.505,12.047-10.499c0.055-22.459,0.016-44.919,0.03-67.379
		c0.001-1.583,0.135-3.166,0.258-5.871c12.64,1.928,24.739,3.083,36.521,5.679c110.74,24.4,183.711,130.755,165.898,242.15
		c-9.072,56.738-36.133,103.665-82.401,137.751c-66.858,49.254-140.246,58.473-216.185,25.091
		C97.175,419.802,55.379,362.547,43.63,284.464c-6.518-43.319,0.899-84.879,20.327-124.193
		c10.025-20.287,23.136-38.398,38.901-54.631c4.792-4.934,5.087-10.733,1.168-14.512c-3.934-3.791-9.68-3.417-14.159,1.187
		c-33.505,34.431-54.831,75.199-63.326,122.533C24.916,223.898,24.038,233.084,22.816,242.209z M141.698,141.018
		c-0.243,0.236-0.487,0.471-0.73,0.707c7.999,11.562,15.867,23.217,24.02,34.669c23.033,32.354,45.965,64.781,69.393,96.847
		c9.252,12.663,27.04,14.039,39.237,4.134c11.879-9.646,13.933-27.299,3.816-38.922c-4.412-5.069-10.031-9.237-15.569-13.153
		c-39.116-27.654-78.352-55.139-117.555-82.669C143.473,142.044,142.57,141.553,141.698,141.018z"/>
	<path display="inline" fill-rule="evenodd" clip-rule="evenodd" d="M21.896,241.289c1.222-9.125,2.1-18.311,3.724-27.362
		c8.496-47.334,29.822-88.103,63.327-122.533c4.479-4.603,10.226-4.978,14.159-1.187c3.919,3.779,3.625,9.579-1.168,14.512
		c-15.765,16.233-28.875,34.344-38.9,54.631c-19.427,39.313-26.844,80.874-20.327,124.193
		c11.749,78.083,53.545,135.338,125.677,167.046c75.939,33.382,149.326,24.163,216.185-25.092
		c46.269-34.085,73.329-81.012,82.401-137.75c17.813-111.395-55.158-217.75-165.898-242.15c-11.781-2.596-23.881-3.75-36.521-5.679
		c-0.124,2.705-0.257,4.288-0.259,5.871c-0.014,22.46,0.025,44.92-0.029,67.379c-0.02,7.994-5.377,12.57-12.047,10.499
		c-4.227-1.312-6.399-4.626-6.426-10.35c-0.067-13.962-0.044-27.923-0.02-41.884c0.029-16.539,0.097-33.077,0.147-49.616
		c7.589,0,15.177,0,22.767,0c1.324,0.266,2.641,0.68,3.979,0.776c36.797,2.641,71.174,13.291,102.486,32.679
		c59.811,37.034,96.516,90.242,109.391,159.567c1.623,8.739,2.43,17.629,3.615,26.45c0,9.106,0,18.213,0,27.32
		c-0.264,1.305-0.678,2.598-0.771,3.914c-2.613,36.639-13.168,70.899-32.409,102.11c-37.007,60.026-90.276,96.893-159.777,109.823
		c-8.76,1.629-17.673,2.435-26.513,3.623c-9.107,0-18.214,0-27.32,0c-1.326-0.266-2.641-0.68-3.979-0.775
		c-36.795-2.646-71.174-13.289-102.487-32.679c-59.81-37.035-96.515-90.243-109.391-159.567c-1.623-8.738-2.43-17.629-3.615-26.449
		C21.896,259.502,21.896,250.396,21.896,241.289z"/>
	<path fill-rule="evenodd" clip-rule="evenodd" fill="#FFFFFF" d="M489.078,242.209c-1.185-8.82-1.992-17.711-3.615-26.45
		c-12.875-69.325-49.58-122.533-109.391-159.567c-31.313-19.388-65.689-30.038-102.486-32.679c-1.338-0.096-2.653-0.51-3.979-0.776
		c73.156,0,146.314,0,219.471,0C489.078,95.895,489.078,169.052,489.078,242.209z"/>
	<path fill-rule="evenodd" clip-rule="evenodd" fill="#FFFFFF" d="M22.816,269.529c1.185,8.82,1.992,17.711,3.615,26.449
		c12.876,69.324,49.581,122.532,109.391,159.567c31.313,19.39,65.692,30.032,102.487,32.679c1.338,0.096,2.653,0.51,3.979,0.775
		c-73.157,0-146.314,0-219.471,0C22.816,415.844,22.816,342.686,22.816,269.529z"/>
	<path fill-rule="evenodd" clip-rule="evenodd" fill="#FFFFFF" d="M269.607,489c8.84-1.188,17.753-1.994,26.513-3.623
		c69.501-12.93,122.771-49.797,159.777-109.823c19.241-31.211,29.796-65.472,32.409-102.11c0.094-1.316,0.508-2.609,0.771-3.914
		c0,73.156,0,146.314,0,219.471C415.922,489,342.764,489,269.607,489z"/>
	<path display="inline" fill-rule="evenodd" clip-rule="evenodd" d="M140.778,140.098c0.872,0.535,1.775,1.026,2.611,1.612
		c39.204,27.531,78.439,55.016,117.556,82.67c5.538,3.916,11.157,8.084,15.569,13.153c10.116,11.623,8.063,29.276-3.816,38.922
		c-12.197,9.905-29.985,8.529-39.237-4.134c-23.427-32.065-46.36-64.493-69.393-96.847c-8.153-11.452-16.021-23.107-24.021-34.669
		C140.291,140.569,140.535,140.334,140.778,140.098z"/>
</g>
<g display="none">
	<path fill-rule="evenodd" clip-rule="evenodd" fill="#FFFFFF" d="M41.198,510.391c-12.538,0-25.077,0-37.615,0
		c0-133.631,0-267.262,0-400.893c0.203,0.607,0.547,1.205,0.589,1.822c1.2,17.921,9.171,33.471,17.15,49.015
		c0.325,0.634,0.935,1.123,0.906,1.089c46.536-46.533,92.876-92.871,140.156-140.147c-12.341-4.921-24.533-10.101-36.974-14.589
		c-5.024-1.813-10.592-2.115-15.913-3.105c98.326,0,196.652,0,294.978,0c-1.437,0.284-2.861,0.687-4.312,0.834
		c-17.608,1.795-32.864,9.788-49.111,18.361c46.85,46.89,93.241,93.321,139.633,139.753c0.702-0.067,1.403-0.133,2.104-0.198
		c4.9-12.465,10.053-24.84,14.573-37.441c1.746-4.867,2.062-10.249,3.028-15.395c0,133.631,0,267.262,0,400.893
		c-12.539,0-25.076,0-37.615,0c9.188-7.091,9.472-12.027,1.151-20.352c-15.393-15.397-30.792-30.79-46.182-46.191
		c-1.248-1.249-2.443-2.55-3.646-3.809c90.666-94.182,85.327-238.9-1.293-326.752c-84.152-85.349-220.35-92.815-313.939-15.862
		C61.5,136.372,33.353,186.853,25.926,247.774C16.932,321.562,39.322,385.6,90.463,440.826c-1.637,1.203-3.264,2.113-4.536,3.379
		c-15.784,15.707-31.54,31.442-47.249,47.225c-5.117,5.141-5.94,10.405-2.293,14.918C37.677,507.947,39.576,509.058,41.198,510.391z
		"/>
	<path display="inline" fill-rule="evenodd" clip-rule="evenodd" d="M40.198,509.391c-1.622-1.333-3.521-2.443-4.813-4.043
		c-3.647-4.513-2.824-9.777,2.293-14.918c15.709-15.782,31.465-31.518,47.249-47.225c1.272-1.266,2.899-2.176,4.536-3.379
		C38.322,384.6,15.932,320.562,24.926,246.774c7.426-60.921,35.574-111.402,82.941-150.349
		c93.589-76.954,229.787-69.487,313.939,15.862c86.62,87.853,91.959,232.571,1.293,326.752c1.202,1.259,2.397,2.56,3.646,3.809
		c15.39,15.401,30.789,30.794,46.182,46.191c8.32,8.324,8.037,13.261-1.151,20.352c-1.979,0-3.959,0-5.938,0
		c-4.698-4.299-9.541-8.451-14.066-12.924c-13.356-13.202-26.614-26.507-39.823-39.856c-1.237-1.249-1.862-3.104-2.772-4.678
		c-1.641,1.554-1.934,1.713-2.184,1.923c-32.194,27.056-68.843,44.663-110.358,51.834c-8.557,1.479-17.196,2.479-25.798,3.701
		c-9.898,0-19.797,0-29.696,0c-1.26-0.289-2.507-0.745-3.782-0.844c-34.524-2.661-66.938-12.407-96.773-29.931
		c-12.827-7.534-24.837-16.458-37.544-24.968c-7.563,7.575-15.513,15.693-23.636,23.635c-11.02,10.773-22.171,21.411-33.267,32.107
		C44.158,509.391,42.178,509.391,40.198,509.391z M256.592,63.377C139.157,63.39,45.211,157.05,43.197,272.563
		c-2.054,117.741,92.197,215.967,211.939,216.502c117.026,0.521,211.879-93.218,213.608-209.355
		C470.516,160.72,376.478,64.972,256.592,63.377z"/>
	<path display="inline" fill-rule="evenodd" clip-rule="evenodd" d="M108.498,2.583c5.321,0.99,10.889,1.292,15.913,3.105
		c12.441,4.488,24.633,9.667,36.974,14.589c-47.28,47.276-93.621,93.614-140.156,140.147c0.029,0.034-0.581-0.456-0.906-1.089
		c-7.979-15.544-15.951-31.094-17.15-49.015c-0.042-0.618-0.386-1.215-0.589-1.822c0-5.939,0-11.878,0-17.817
		c0.349-1.231,0.842-2.441,1.026-3.697c5.829-39.598,34.44-71.42,73.219-81.32c4.581-1.17,9.233-2.06,13.852-3.08
		C96.62,2.583,102.559,2.583,108.498,2.583z M125.646,27.497c-21.607-9.076-56.012-5.492-79.719,18.065
		c-23.749,23.599-27.609,58.058-18.438,80.091C60.165,92.978,92.973,60.17,125.646,27.497z"/>
	<path display="inline" fill-rule="evenodd" clip-rule="evenodd" d="M509.391,108.498c-0.967,5.146-1.282,10.528-3.028,15.395
		c-4.521,12.601-9.673,24.976-14.573,37.441c-0.7,0.065-1.401,0.131-2.104,0.198c-46.392-46.432-92.783-92.863-139.633-139.753
		c16.247-8.573,31.503-16.566,49.111-18.361c1.45-0.148,2.875-0.55,4.312-0.834c5.939,0,11.878,0,17.817,0
		c1.231,0.349,2.441,0.841,3.697,1.027c39.599,5.829,71.421,34.44,81.32,73.218c1.17,4.581,2.06,9.232,3.08,13.852
		C509.391,96.62,509.391,102.559,509.391,108.498z M386.149,27.521c32.874,32.873,65.584,65.582,98.188,98.187
		c8.92-19.912,6.102-54.688-16.813-78.636C444.345,22.847,409.618,18.006,386.149,27.521z"/>
	<path fill-rule="evenodd" clip-rule="evenodd" fill="#FFFFFF" d="M271.835,510.391c8.602-1.222,17.241-2.222,25.798-3.701
		c41.516-7.171,78.164-24.778,110.358-51.834c0.25-0.21,0.543-0.369,2.184-1.923c0.91,1.574,1.535,3.429,2.772,4.678
		c13.209,13.35,26.467,26.654,39.823,39.856c4.525,4.473,9.368,8.625,14.066,12.924
		C401.836,510.391,336.836,510.391,271.835,510.391z"/>
	<path fill-rule="evenodd" clip-rule="evenodd" fill="#FFFFFF" d="M47.137,510.391c11.095-10.696,22.247-21.334,33.267-32.107
		c8.123-7.941,16.072-16.06,23.636-23.635c12.707,8.51,24.718,17.434,37.544,24.968c29.836,17.523,62.25,27.27,96.773,29.931
		c1.274,0.099,2.521,0.555,3.782,0.844C177.139,510.391,112.138,510.391,47.137,510.391z"/>
	<path fill-rule="evenodd" clip-rule="evenodd" fill="#FFFFFF" d="M91.681,3.583c-4.619,1.02-9.271,1.91-13.852,3.08
		C39.05,16.563,10.439,48.385,4.61,87.983c-0.185,1.256-0.677,2.466-1.026,3.697c0-29.284,0-58.566,0-88.097
		C32.949,3.583,62.315,3.583,91.681,3.583z"/>
	<path fill-rule="evenodd" clip-rule="evenodd" fill="#FFFFFF" d="M510.391,91.681c-1.021-4.62-1.91-9.271-3.08-13.852
		c-9.899-38.778-41.722-67.39-81.32-73.218c-1.256-0.186-2.466-0.678-3.697-1.027c29.366,0,58.731,0,88.098,0
		C510.391,32.95,510.391,62.315,510.391,91.681z"/>
	<path fill-rule="evenodd" clip-rule="evenodd" fill="#FFFFFF" d="M257.592,64.377c119.886,1.594,213.924,97.342,212.152,216.332
		c-1.729,116.138-96.582,209.877-213.608,209.355c-119.742-0.535-213.993-98.761-211.939-216.502
		C46.211,158.05,140.157,64.39,257.592,64.377z M246.922,267.048c-2.62,0-4.422,0-6.224,0c-26.877,0-53.754-0.021-80.632,0.037
		c-2.44,0.005-4.95,0.252-7.305,0.86c-4.728,1.22-7.482,5.688-6.841,10.542c0.785,5.93,5.009,8.977,12.674,8.985
		c32.153,0.039,64.307,0.051,96.46,0.062c8.039,0.003,11.995-4.022,11.996-12.237c0.008-52.271,0.013-104.542-0.037-156.812
		c-0.002-2.272-0.209-4.653-0.904-6.795c-2.071-6.39-10.602-8.967-15.125-4.072c-2.367,2.561-3.875,6.932-3.894,10.495
		c-0.25,47.487-0.168,94.976-0.168,142.465C246.922,262.519,246.922,264.459,246.922,267.048z"/>
	<path fill-rule="evenodd" clip-rule="evenodd" fill="#FFFFFF" d="M126.646,28.497c-32.673,32.673-65.481,65.48-98.158,98.156
		c-9.171-22.034-5.31-56.492,18.438-80.091C70.634,23.005,105.039,19.421,126.646,28.497z"/>
	<path fill-rule="evenodd" clip-rule="evenodd" fill="#FFFFFF" d="M387.149,28.521c23.469-9.515,58.195-4.674,81.376,19.551
		c22.914,23.948,25.732,58.724,16.813,78.636C452.733,94.103,420.023,61.394,387.149,28.521z"/>
	<path display="inline" fill-rule="evenodd" clip-rule="evenodd" d="M245.922,266.048c0-2.589,0-4.529,0-6.47
		c0-47.489-0.083-94.978,0.168-142.465c0.018-3.563,1.526-7.935,3.894-10.495c4.523-4.895,13.054-2.317,15.125,4.072
		c0.695,2.142,0.902,4.522,0.904,6.795c0.05,52.27,0.045,104.54,0.037,156.812c-0.001,8.215-3.957,12.24-11.996,12.237
		c-32.153-0.011-64.307-0.022-96.46-0.062c-7.665-0.009-11.889-3.056-12.674-8.985c-0.642-4.854,2.113-9.322,6.841-10.542
		c2.355-0.608,4.864-0.855,7.305-0.86c26.877-0.059,53.754-0.037,80.632-0.037C241.5,266.048,243.302,266.048,245.922,266.048z"/>
</g>
<g display="none">
	<path fill-rule="evenodd" clip-rule="evenodd" fill="#FFFFFF" d="M240.747,511.9c-80.083,0-160.167,0-240.25,0
		c0-170.468,0-340.936,0-511.403c170.467,0,340.936,0,511.403,0c0,170.468,0,340.936,0,511.403c-79.751,0-159.502,0-239.253,0
		c4.581-0.625,9.161-1.26,13.744-1.874c61.703-8.266,113.325-35.832,151.914-84.475c57.022-71.877,69.357-152.351,35.286-237.395
		C444.375,115.23,389.178,69.367,313.103,49.246c-11.623-3.073-23.659-4.585-36.068-6.926c0-13.241,0-26.788,0-40.574
		c-13.734,0-26.941,0-40.833,0c0,13.906,0,27.574,0,40.756c-11.35,2.027-22.034,3.551-32.543,5.872
		C111.515,68.712,37.993,147.729,24.557,241.049c-8.499,59.022,2.536,114.186,35.424,164.121
		c36.782,55.847,88.456,90.162,154.246,102.831C222.992,509.688,231.903,510.619,240.747,511.9z M433.285,64.528
		c-5.631,5.173-10.837,9.957-15.116,13.888c5.778,5.87,11.18,11.355,17.26,17.532c4.345-4.741,9.033-9.857,14.295-15.599
		c4.374,4.905,8.343,9.353,11.925,13.371c9.972-9.951,19.44-19.396,28.411-28.347c-13.9-14.009-28.088-28.306-41.707-42.031
		c-9.279,9.14-18.785,18.504-28.958,28.526C423.562,55.667,427.942,59.659,433.285,64.528z"/>
	<path display="inline" fill-rule="evenodd" clip-rule="evenodd" d="M239.911,508.35c-8.755-1.268-17.578-2.189-26.255-3.859
		c-65.132-12.543-116.29-46.516-152.703-101.803c-32.559-49.436-43.483-104.049-35.07-162.48
		c13.302-92.386,86.088-170.613,177.311-190.749c10.404-2.297,20.982-3.806,32.218-5.813c0-13.051,0-26.582,0-40.349
		c13.752,0,26.827,0,40.424,0c0,13.648,0,27.061,0,40.168c12.285,2.317,24.201,3.814,35.708,6.857
		c75.314,19.919,129.959,65.324,158.885,137.522c33.73,84.193,21.518,163.863-34.934,235.021
		c-38.203,48.156-89.309,75.447-150.395,83.629c-4.537,0.609-9.072,1.236-13.607,1.855
		C260.965,508.35,250.438,508.35,239.911,508.35z M255.609,487.941c117.025,0.154,212.168-94.855,212.238-211.939
		c0.07-117.058-94.805-211.964-212.057-212.126C138.786,63.714,43.662,158.707,43.556,275.82
		C43.449,392.852,138.354,487.785,255.609,487.941z"/>
	<path display="inline" fill-rule="evenodd" clip-rule="evenodd" d="M430.523,65.452c-5.289-4.821-9.627-8.773-13.752-12.533
		c10.072-9.921,19.482-19.192,28.668-28.241c13.484,13.587,27.529,27.741,41.291,41.61c-8.881,8.861-18.256,18.213-28.127,28.064
		c-3.547-3.978-7.475-8.381-11.807-13.237c-5.209,5.684-9.85,10.749-14.15,15.442c-6.02-6.115-11.367-11.546-17.088-17.357
		C419.795,75.309,424.949,70.573,430.523,65.452z"/>
	<path fill-rule="evenodd" clip-rule="evenodd" fill="#FFFFFF" d="M256.604,491.285C138.164,491.129,42.3,395.236,42.409,277.022
		C42.516,158.726,138.6,62.773,256.788,62.937c118.436,0.164,214.269,96.029,214.197,214.269
		C470.915,395.472,374.811,491.441,256.604,491.285z M266.928,179.977c0-20.595,0.013-41.191-0.018-61.786
		c-0.003-2.15-0.001-4.353-0.437-6.439c-1.228-5.876-6.521-9.043-12.362-7.606c-5.176,1.272-7.635,5.168-7.638,12.344
		c-0.016,42.354-0.013,84.707,0.004,127.061c0.001,2.505,0.159,4.639-2.841,6.086c-11.381,5.491-17.396,14.99-17.421,27.411
		c-0.026,12.421,6.068,21.721,17.2,27.69c1.458,0.782,2.809,3.125,2.913,4.824c0.362,5.958-0.021,11.956,0.215,17.927
		c0.253,6.394,4.573,10.854,10.052,10.865c5.744,0.013,10.112-4.599,10.294-11.157c0.152-5.477,0.273-10.975-0.045-16.437
		c-0.206-3.517,1.143-5.233,4.163-6.828c10.628-5.615,16.133-14.896,16.179-26.681c0.046-12-5.514-21.454-16.377-27.04
		c-3.261-1.676-3.96-3.654-3.941-6.955C266.987,222.165,266.928,201.071,266.928,179.977z"/>
	<path display="inline" fill-rule="evenodd" clip-rule="evenodd" d="M265.83,179.745c0,20.883,0.059,41.767-0.061,62.649
		c-0.018,3.269,0.674,5.227,3.902,6.886c10.754,5.53,16.259,14.889,16.213,26.769c-0.045,11.668-5.495,20.855-16.017,26.414
		c-2.99,1.578-4.325,3.278-4.122,6.76c0.316,5.407,0.195,10.85,0.045,16.271c-0.18,6.494-4.504,11.059-10.191,11.047
		c-5.424-0.012-9.7-4.428-9.951-10.758c-0.234-5.91,0.146-11.849-0.213-17.747c-0.103-1.683-1.44-4.001-2.883-4.776
		c-11.02-5.91-17.054-15.116-17.028-27.413c0.026-12.296,5.98-21.701,17.247-27.137c2.97-1.433,2.814-3.546,2.813-6.026
		c-0.017-41.93-0.02-83.86-0.004-125.791c0.003-7.104,2.437-10.961,7.562-12.221c5.783-1.422,11.023,1.713,12.239,7.53
		c0.431,2.066,0.429,4.246,0.432,6.375C265.842,138.966,265.83,159.356,265.83,179.745z"/>
</g>
</svg>
