<?xml version="1.0" encoding="utf-8"?>
<!-- Generator: Adobe Illustrator 16.0.0, SVG Export Plug-In . SVG Version: 6.00 Build 0)  -->
<!DOCTYPE svg PUBLIC "-//W3C//DTD SVG 1.1//EN" "http://www.w3.org/Graphics/SVG/1.1/DTD/svg11.dtd">
<svg version="1.1" id="Layer_1" xmlns="http://www.w3.org/2000/svg" xmlns:xlink="http://www.w3.org/1999/xlink" x="0px" y="0px"
	 width="512px" height="512px" viewBox="0 0 512 512" enable-background="new 0 0 512 512" xml:space="preserve">
<g>
	<line fill="none" stroke="#B35047" x1="32" y1="0" x2="32" y2="512"/>
	<line fill="none" stroke="#B35047" x1="64" y1="0" x2="64" y2="512"/>
	<line fill="none" stroke="#B35047" x1="96" y1="0" x2="96" y2="512"/>
	<line fill="none" stroke="#B35047" x1="128" y1="0" x2="128" y2="512"/>
	<line fill="none" stroke="#B35047" x1="160" y1="0" x2="160" y2="512"/>
	<line fill="none" stroke="#B35047" x1="192" y1="0" x2="192" y2="512"/>
	<line fill="none" stroke="#B35047" x1="224" y1="0" x2="224" y2="512"/>
	<line fill="none" stroke="#B35047" x1="256" y1="0" x2="256" y2="512"/>
	<line fill="none" stroke="#B35047" x1="288" y1="0" x2="288" y2="512"/>
	<line fill="none" stroke="#B35047" x1="320" y1="0" x2="320" y2="512"/>
	<line fill="none" stroke="#B35047" x1="352" y1="0" x2="352" y2="512"/>
	<line fill="none" stroke="#B35047" x1="384" y1="0" x2="384" y2="512"/>
	<line fill="none" stroke="#B35047" x1="416" y1="0" x2="416" y2="512"/>
	<line fill="none" stroke="#B35047" x1="448" y1="0" x2="448" y2="512"/>
	<line fill="none" stroke="#B35047" x1="480" y1="0" x2="480" y2="512"/>
	<line fill="none" stroke="#B35047" x1="0" y1="32" x2="512" y2="32"/>
	<line fill="none" stroke="#B35047" x1="0" y1="64" x2="512" y2="64"/>
	<line fill="none" stroke="#B35047" x1="0" y1="96" x2="512" y2="96"/>
	<line fill="none" stroke="#B35047" x1="0" y1="128" x2="512" y2="128"/>
	<line fill="none" stroke="#B35047" x1="0" y1="160" x2="512" y2="160"/>
	<line fill="none" stroke="#B35047" x1="0" y1="192" x2="512" y2="192"/>
	<line fill="none" stroke="#B35047" x1="0" y1="224" x2="512" y2="224"/>
	<line fill="none" stroke="#B35047" x1="0" y1="256" x2="512" y2="256"/>
	<line fill="none" stroke="#B35047" x1="0" y1="288" x2="512" y2="288"/>
	<line fill="none" stroke="#B35047" x1="0" y1="320" x2="512" y2="320"/>
	<line fill="none" stroke="#B35047" x1="0" y1="352" x2="512" y2="352"/>
	<line fill="none" stroke="#B35047" x1="0" y1="384" x2="512" y2="384"/>
	<line fill="none" stroke="#B35047" x1="0" y1="416" x2="512" y2="416"/>
	<line fill="none" stroke="#B35047" x1="0" y1="448" x2="512" y2="448"/>
	<line fill="none" stroke="#B35047" x1="0" y1="480" x2="512" y2="480"/>
	<rect fill="none" stroke="#B35047" width="512" height="512"/>
</g>
<g>
	<path display="none" fill-rule="evenodd" clip-rule="evenodd" fill="#FFFFFF" d="M0.537,513.287c0-170.836,0-341.812,0-512.75
		c171.012,0,341.988,0,512.963,0c0,170.869,0,341.703,0,512.75C342.5,513.287,171.5,513.287,0.537,513.287z M177.322,301.121
		c-2.261,2.423-3.643,3.812-4.923,5.29c-15.364,17.739-31.282,35.039-45.89,53.382c-12.352,15.51-20.081,33.247-19.174,53.877
		c1.203,27.373,20.587,48.257,46.699,52.772c10.476,1.812,21.205,2.11,31.753,3.573c15.407,2.136,29.241,8.813,42.825,15.933
		c11.805,6.188,24.328,8.357,37.269,5.972c27.092-4.995,41.212-23.337,47.512-48.643c4.186-16.815,1.811-33.851-0.597-50.664
		c-2.07-14.459-5.093-28.781-7.737-43.403c0.653,0.731,1.246,1.297,1.727,1.946c29.369,39.603,62.013,76.321,98.552,109.394
		c15.146,13.708,31.655,25.939,47.885,38.399c6.15,4.722,13.631,5.986,21.388,3.837c13.407-3.716,21.606-12.791,25.536-25.706
		c3.522-11.577-0.47-18.842-11.411-24.108c-13.181-6.344-26.518-12.521-39.08-19.963c-38.814-22.995-72.674-52.276-104.402-84.137
		c-1.213-1.217-2.344-2.515-3.513-3.775c1.844,0.164,3.273,0.876,4.689,1.612c8.562,4.45,16.96,9.254,25.716,13.28
		c13.662,6.281,27.682,10.899,43.162,10.887c32.825-0.026,59.61-26.883,56.538-58.984c-2.378-24.839-0.414-48.658,8.092-72.246
		c5.644-15.652,3.277-31.332-5.525-45.553c-11.326-18.298-29.039-25.764-49.571-27.358c-14.97-1.163-29.48,2.245-43.775,6.306
		c-9.504,2.699-18.897,5.786-29.265,8.985c2.504-3.458,4.462-6.11,6.365-8.801c12.04-17.021,23.368-34.469,30.93-54.036
		c5.066-13.11,7.388-26.758,4.87-40.677c-5.189-28.699-27.989-47.502-57.277-48.084c-11.647-0.231-23.554,0.48-34.859-1.72
		c-13.099-2.55-25.88-7.271-38.418-12.048c-24.478-9.327-49.727-4.752-66.206,13.263c-12.634,13.812-17.881,30.585-17.699,49.056
		c0.259,26.224,6.669,51.404,13.572,76.476c0.577,2.094,1.06,4.214,1.678,6.688c-14.741-11.261-28.586-22.485-43.11-32.75
		c-14.547-10.279-29.646-19.876-47.88-22.539c-21.339-3.116-40.515,0.973-55.689,17.37c-10.678,11.54-15.205,25.564-15.383,41.111
		c-0.182,15.864-0.716,31.71-6.385,46.781c-3.512,9.336-8.044,18.306-11.26,27.733c-9.104,26.688,1.536,54.725,26.294,68.495
		c17.968,9.993,37.186,10.767,56.784,8.812c24.404-2.435,48.263-7.854,71.868-14.418
		C171.975,302.188,174.013,301.844,177.322,301.121z"/>
	<path fill-rule="evenodd" clip-rule="evenodd" d="M173.944,300.419c-3.409,0.744-5.509,1.099-7.548,1.664
		c-24.313,6.761-48.889,12.344-74.024,14.851c-20.186,2.014-39.98,1.218-58.487-9.075c-25.501-14.184-36.46-43.062-27.083-70.551
		c3.313-9.71,7.981-18.949,11.599-28.564c5.838-15.523,6.389-31.845,6.576-48.186c0.184-16.013,4.846-30.458,15.845-42.345
		c15.629-16.889,35.38-21.101,57.359-17.891c18.782,2.743,34.333,12.627,49.316,23.215c14.96,10.573,29.221,22.134,44.403,33.732
		c-0.637-2.548-1.134-4.731-1.728-6.888c-7.11-25.823-13.713-51.76-13.979-78.77c-0.188-19.025,5.216-36.302,18.229-50.527
		c16.974-18.556,42.979-23.268,68.191-13.661c12.914,4.921,26.079,9.783,39.57,12.409c11.646,2.267,23.909,1.533,35.905,1.771
		c30.167,0.6,53.65,19.967,58.996,49.526c2.593,14.337,0.202,28.394-5.017,41.897c-7.788,20.154-19.456,38.125-31.857,55.657
		c-1.96,2.771-3.977,5.503-6.556,9.064c10.678-3.295,20.354-6.475,30.143-9.255c14.724-4.183,29.67-7.692,45.088-6.495
		c21.148,1.643,39.393,9.333,51.059,28.18c9.067,14.647,11.504,30.797,5.691,46.919c-8.761,24.296-10.784,48.83-8.335,74.414
		c3.165,33.064-24.424,60.727-58.233,60.754c-15.945,0.013-30.386-4.744-44.457-11.214c-9.019-4.147-17.669-9.095-26.487-13.679
		c-1.459-0.758-2.932-1.491-4.83-1.66c1.203,1.298,2.368,2.635,3.617,3.889c32.681,32.815,67.556,62.976,107.535,86.66
		c12.939,7.666,26.676,14.028,40.252,20.563c11.27,5.424,15.382,12.907,11.754,24.831c-4.048,13.303-12.493,22.65-26.303,26.478
		c-7.989,2.214-15.694,0.911-22.029-3.952c-16.716-12.834-33.721-25.432-49.321-39.552
		c-37.635-34.064-71.258-71.885-101.508-112.675c-0.495-0.669-1.105-1.251-1.778-2.005c2.724,15.061,5.837,29.813,7.969,44.705
		c2.479,17.318,4.926,34.864,0.615,52.185c-6.489,26.064-21.033,44.957-48.938,50.102c-13.329,2.457-26.228,0.223-38.387-6.15
		c-13.991-7.334-28.24-14.211-44.109-16.411c-10.865-1.507-21.915-1.814-32.706-3.681c-26.895-4.65-46.86-26.161-48.1-54.355
		c-0.934-21.248,7.027-39.518,19.75-55.493c15.045-18.893,31.441-36.712,47.266-54.983
		C170.192,304.345,171.615,302.914,173.944,300.419z M85.352,120.266c-2.899,0.256-5.854,0.241-8.688,0.814
		c-17.484,3.535-29.431,17.504-30.364,35.439c-0.864,16.601-0.134,33.452-5.239,49.493c-3.783,11.888-8.703,23.425-13.371,35.015
		c-8.017,19.905-0.886,39.587,18.079,49.245c8.868,4.517,18.254,6.622,28.249,6.535c25.953-0.227,51.11-5.549,75.991-12.141
		c19.698-5.219,39.139-11.419,58.673-17.251c7.502-2.238,13.193-0.203,15.339,5.923c1.957,5.589-1.054,9.505-4.822,13.075
		c-23.679,22.434-47.744,44.549-68.028,70.201c-8.78,11.104-17.182,22.854-23.555,35.427c-7.2,14.204-7.797,29.556,2.133,43.443
		c7.771,10.867,19.155,14.904,32.082,15.68c16.99,1.02,33.889,2.824,49.767,9.524c8.518,3.594,16.84,7.661,25.175,11.671
		c10.734,5.164,21.724,6.468,32.783,1.613c16.195-7.108,23.084-21.013,24.935-37.484c2.348-20.881-1.199-41.517-5.754-61.751
		c-6.205-27.566-13.713-54.839-20.594-82.256c-0.571-2.276-1.229-4.8-0.806-7.01c1.681-8.757,10.614-11.346,18.362-5.438
		c25.951,19.785,52.694,38.388,81.444,53.923c13.273,7.173,26.785,13.972,41.839,16.702c17.434,3.161,33.672-3.199,42.022-16.288
		c5.99-9.39,5.364-19.724,5.089-30.326c-0.364-13.986-0.258-28.127,1.442-41.98c1.301-10.589,5.352-20.846,8.244-31.233
		c6.008-21.579-6.231-41.553-28.084-46.422c-12.969-2.89-25.584-1.195-38.196,1.671c-24.675,5.605-47.983,15.2-71.356,24.604
		c-2.211,0.89-4.688,2.324-6.797,1.984c-3.284-0.529-7.542-1.526-9.203-3.871c-1.8-2.543-1.592-6.899-1.296-10.384
		c0.163-1.923,2.146-3.812,3.575-5.488c17.174-20.138,33.38-40.988,46.606-63.982c7.366-12.807,13.927-25.927,15.742-40.967
		c2.233-18.493-6.067-35.082-22.408-41.577c-6.202-2.466-13.256-3.16-20.003-3.811c-14.986-1.444-30.253-1.126-44.971-3.862
		c-12.142-2.258-23.754-7.624-35.433-12.054c-24.258-9.201-46.855,2.141-54.251,26.89c-3.514,11.759-2.843,23.423-1.385,35.173
		c3.263,26.304,10.312,51.729,18.432,76.885c2.422,7.501,4.912,14.98,7.219,22.517c1.485,4.854,0.61,9.243-3.736,12.316
		c-4.363,3.085-8.774,2.349-12.875-0.62c-2.076-1.503-3.931-3.318-5.849-5.033c-25.074-22.437-50.045-45.016-78.997-62.527
		C111.126,125.384,99.258,119.628,85.352,120.266z M486.033,477.37c-16.23-8.884-32.004-16.782-47.011-25.937
		c-14.97-9.131-29.172-19.518-43.711-29.354c9.36,9.565,18.588,19.294,28.713,27.978c14.285,12.253,29.112,23.89,43.97,35.453
		c4.83,3.759,8.875,2.989,13.146-1.436C483.107,482.037,484.527,479.471,486.033,477.37z"/>
	<path display="none" fill-rule="evenodd" clip-rule="evenodd" fill="#FFFFFF" d="M91.311,126.215
		c13.501-0.619,25.023,4.97,36.078,11.656c28.109,17.002,52.353,38.924,76.696,60.706c1.862,1.665,3.663,3.428,5.679,4.887
		c3.981,2.883,8.264,3.598,12.5,0.603c4.22-2.984,5.07-7.246,3.628-11.958c-2.239-7.316-4.657-14.578-7.008-21.86
		c-7.884-24.423-14.727-49.108-17.896-74.646c-1.415-11.408-2.066-22.732,1.345-34.148c7.18-24.028,29.12-35.04,52.671-26.106
		c11.339,4.301,22.612,9.511,34.4,11.702c14.289,2.657,29.111,2.348,43.661,3.75c6.551,0.632,13.398,1.306,19.42,3.699
		c15.865,6.307,23.924,22.412,21.756,40.366c-1.763,14.603-8.132,27.341-15.283,39.774c-12.842,22.324-28.576,42.567-45.249,62.118
		c-1.388,1.628-3.313,3.462-3.472,5.329c-0.287,3.383-0.489,7.612,1.259,10.081c1.612,2.276,5.746,3.244,8.935,3.758
		c2.047,0.33,4.452-1.063,6.599-1.926c22.692-9.13,45.322-18.445,69.278-23.888c12.245-2.782,24.493-4.428,37.084-1.622
		c21.216,4.728,33.099,24.119,27.266,45.07c-2.808,10.085-6.741,20.043-8.004,30.323c-1.65,13.45-1.754,27.179-1.4,40.758
		c0.268,10.294,0.875,20.327-4.94,29.443c-8.107,12.707-23.873,18.883-40.799,15.813c-14.615-2.651-27.733-9.252-40.62-16.216
		c-27.912-15.083-53.877-33.144-79.072-52.353c-7.522-5.735-16.195-3.222-17.827,5.28c-0.411,2.146,0.228,4.596,0.782,6.806
		c6.681,26.618,13.97,53.097,19.994,79.86c4.422,19.645,7.865,39.68,5.586,59.952c-1.797,15.992-8.484,29.491-24.208,36.393
		c-10.737,4.713-21.407,3.447-31.828-1.566c-8.093-3.893-16.173-7.842-24.442-11.331c-15.416-6.505-31.822-8.257-48.317-9.247
		c-12.55-0.753-23.603-4.672-31.147-15.223c-9.641-13.483-9.062-28.388-2.071-42.178c6.188-12.206,14.344-23.614,22.869-34.396
		c19.693-24.905,43.058-46.376,66.046-68.156c3.659-3.467,6.582-7.269,4.682-12.694c-2.083-5.947-7.608-7.924-14.892-5.75
		c-18.965,5.662-37.839,11.682-56.964,16.748c-24.156,6.399-48.58,11.567-73.777,11.787c-9.705,0.084-18.817-1.96-27.427-6.345
		c-18.412-9.377-25.335-28.485-17.553-47.811c4.532-11.253,9.309-22.454,12.982-33.995c4.957-15.574,4.248-31.935,5.087-48.052
		c0.907-17.413,12.504-30.975,29.479-34.407C85.627,126.449,88.496,126.464,91.311,126.215z"/>
	<path display="none" fill-rule="evenodd" clip-rule="evenodd" fill="#FFFFFF" d="M480.321,472.919
		c-1.462,2.039-2.841,4.53-4.75,6.509c-4.146,4.296-8.074,5.043-12.764,1.394c-14.425-11.227-28.819-22.524-42.688-34.421
		c-9.83-8.431-18.789-17.876-27.877-27.162c14.115,9.55,27.904,19.635,42.438,28.499
		C449.25,456.625,464.563,464.294,480.321,472.919z"/>
</g>
<g display="none">
	<path fill-rule="evenodd" clip-rule="evenodd" fill="#FFFFFF" d="M55.5,513.5c-18.333,0-36.667,0-55,0c0-171,0-342,0-513
		c171,0,342,0,513,0c0,140,0,280,0,420c-1.172-9.553-1.965-19.169-3.58-28.646c-7.436-43.619-23.029-84.316-45.21-122.466
		c-14.633-25.168-31.576-48.611-54.649-66.964c-14.284-11.362-29.924-18.057-48.824-16.346
		c-15.168,1.372-29.389,5.339-43.073,11.737c-9.788,4.576-19.442,9.505-29.468,13.488c-6.159,2.447-12.908,3.41-20.122,5.223
		c0.431-3.84,0.673-6.124,0.944-8.405c3.159-26.596,14.408-48.908,35.012-66.305c17.814-15.043,38.903-24.125,59.971-33.345
		c20.246-8.86,40.742-17.313,60.31-27.516c18.665-9.732,32.135-24.715,36.217-46.386c0.615-3.263,0.949-6.596,1.16-9.913
		c0.44-6.907-3.457-12.206-9.18-12.736c-5.968-0.554-11.122,4.149-11.286,11.307c-0.372,16.167-8.078,28.381-21.357,36.206
		c-14.124,8.322-29.052,15.438-44.102,21.995c-23.326,10.164-47.271,18.964-68.825,32.808c-28.53,18.324-48.118,43.225-55.64,76.738
		c-1.811,8.069-2.773,16.329-4.19,24.892c-2.587-0.265-5.23-0.397-7.826-0.825c-13.857-2.283-25.861-9.313-38.507-14.806
		c-10.923-4.743-22.129-9.255-33.646-12.125c-21.801-5.433-42.588-2.318-60.227,12.502c-9.777,8.215-19.435,16.906-27.552,26.703
		C43.372,271.34,20.311,322.041,7.908,377.607c-5.936,26.596-9.371,53.554-3.273,80.689c4.956,22.053,15.374,40.432,36.794,50.519
		C45.87,510.906,50.797,511.965,55.5,513.5z"/>
	<path display="inline" fill-rule="evenodd" clip-rule="evenodd" d="M55.534,504.492c-4.656-1.52-9.534-2.568-13.93-4.639
		c-21.206-9.986-31.52-28.18-36.426-50.014c-6.037-26.863-2.636-53.553,3.241-79.881C20.696,314.947,43.527,264.754,79.64,221.17
		c8.037-9.699,17.598-18.303,27.277-26.436c17.461-14.672,38.042-17.755,59.624-12.377c11.401,2.841,22.495,7.308,33.309,12.004
		c12.52,5.437,24.403,12.397,38.122,14.658c2.569,0.423,5.187,0.555,7.748,0.817c1.403-8.477,2.355-16.654,4.148-24.643
		c7.447-33.179,26.838-57.83,55.084-75.971c21.338-13.705,45.045-22.417,68.137-32.479c14.9-6.491,29.678-13.536,43.66-21.775
		c13.146-7.747,20.775-19.839,21.145-35.844c0.162-7.085,5.266-11.742,11.174-11.193c5.664,0.525,9.523,5.771,9.088,12.609
		c-0.209,3.284-0.541,6.584-1.148,9.814c-4.043,21.454-17.377,36.287-35.855,45.922c-19.371,10.101-39.662,18.469-59.707,27.24
		c-20.855,9.127-41.734,18.119-59.371,33.011c-20.396,17.223-31.533,39.312-34.662,65.642c-0.268,2.259-0.508,4.52-0.934,8.321
		c7.141-1.794,13.822-2.748,19.92-5.17c9.926-3.943,19.484-8.823,29.174-13.353c13.547-6.334,27.627-10.262,42.643-11.62
		c18.711-1.694,34.195,4.934,48.336,16.182c22.842,18.169,39.617,41.378,54.104,66.295c21.959,37.768,37.396,78.057,44.758,121.24
		c1.598,9.383,2.383,18.902,3.543,28.359c0,6.27,0,12.541,0,18.811c-1.004,6.117-1.736,12.295-3.061,18.344
		c-4.262,19.453-12.895,36.363-30.475,46.99c-6.033,3.646-13.248,5.34-19.924,7.926c-6.27,0-12.541,0-18.811,0
		c-8.84-1.762-17.807-3.051-26.498-5.371c-25.438-6.797-47.258-20.559-68.004-36.258c-15.504-11.732-30.76-23.814-46.611-35.061
		c-11.225-7.959-23.676-13.732-37.832-14.379c-15.939-0.729-29.754,5.604-42.272,14.393c-15.903,11.168-31.117,23.314-46.621,35.047
		c-20.744,15.699-42.565,29.461-68.003,36.258c-8.691,2.32-17.658,3.609-26.499,5.371C68.074,504.492,61.804,504.492,55.534,504.492
		z M22.974,420.418c0,4.447-0.387,8.936,0.073,13.336c1.387,13.271,4.625,25.975,13.137,36.719
		c7.201,9.09,16.455,13.871,28.254,13.674c20.171-0.336,39.026-5.598,56.905-14.699c18.937-9.641,35.263-23.057,52.145-35.723
		c13.951-10.469,27.977-21.045,42.985-29.84c18.546-10.867,38.762-14.123,60.018-7.656c14.92,4.541,27.965,12.4,40.367,21.479
		c20.352,14.895,40.057,30.725,60.941,44.814c20.268,13.672,43.094,21.004,67.863,21.615c11.977,0.295,21.498-4.121,28.91-13.328
		c6.014-7.471,9.527-16.102,11.549-25.416c4.1-18.885,2.68-37.793-0.52-56.529c-9.115-53.391-30.064-101.859-62.113-145.471
		c-9.598-13.064-20.594-24.943-34.014-34.282c-6.262-4.356-12.916-8.157-20.77-8.516c-11.814-0.539-23.43,0.901-34.367,5.587
		c-9.227,3.954-18.236,8.414-27.326,12.687c-30.785,14.469-62.168,16.284-93.911,3.709c-12.993-5.147-25.24-12.249-38.357-16.994
		c-18.712-6.77-37.676-9.135-54.863,4.692c-5.003,4.024-9.974,8.146-14.542,12.647c-14.67,14.457-26.482,31.153-36.727,48.914
		C42.065,317.864,24.622,366.771,22.974,420.418z"/>
	<path fill-rule="evenodd" clip-rule="evenodd" fill="#FFFFFF" d="M74.5,513.5c8.93-1.778,17.987-3.081,26.766-5.426
		c25.694-6.864,47.736-20.766,68.69-36.623c15.66-11.852,31.028-24.121,47.092-35.4c12.644-8.878,26.599-15.275,42.699-14.539
		c14.299,0.654,26.877,6.484,38.214,14.525c16.012,11.358,31.423,23.563,47.083,35.414c20.954,15.857,42.995,29.759,68.689,36.623
		c8.779,2.345,17.837,3.647,26.767,5.426C318.5,513.5,196.5,513.5,74.5,513.5z"/>
	<path fill-rule="evenodd" clip-rule="evenodd" fill="#FFFFFF" d="M459.5,513.5c6.743-2.612,14.03-4.322,20.125-8.006
		c17.758-10.733,26.479-27.815,30.782-47.465c1.338-6.109,2.078-12.35,3.093-18.529c0,24.667,0,49.333,0,74
		C495.5,513.5,477.5,513.5,459.5,513.5z"/>
	<path fill-rule="evenodd" clip-rule="evenodd" fill="#FFFFFF" d="M22.611,428.576c1.665-54.188,19.284-103.589,46.099-150.081
		c10.348-17.94,22.279-34.806,37.098-49.408c4.614-4.547,9.635-8.71,14.689-12.775c17.36-13.967,36.516-11.577,55.417-4.739
		c13.25,4.793,25.62,11.967,38.744,17.166c32.063,12.701,63.765,10.868,94.86-3.747c9.181-4.315,18.281-8.821,27.602-12.814
		c11.048-4.733,22.781-6.188,34.714-5.644c7.933,0.362,14.655,4.201,20.98,8.602c13.556,9.433,24.661,21.432,34.357,34.628
		c32.371,44.053,53.532,93.012,62.74,146.94c3.231,18.926,4.666,38.024,0.525,57.102c-2.042,9.408-5.592,18.126-11.666,25.672
		c-7.487,9.301-17.105,13.76-29.202,13.462c-25.02-0.616-48.077-8.022-68.549-21.833c-21.097-14.231-41.001-30.223-61.557-45.268
		c-12.527-9.169-25.704-17.108-40.776-21.694c-21.469-6.532-41.89-3.244-60.623,7.732c-15.16,8.884-29.327,19.568-43.419,30.142
		c-17.053,12.795-33.544,26.346-52.672,36.084c-18.06,9.194-37.105,14.508-57.48,14.848c-11.918,0.199-21.266-4.63-28.54-13.813
		c-8.598-10.853-11.869-23.684-13.27-37.089C22.22,437.604,22.611,433.069,22.611,428.576z M185.314,349.703
		c0-10.668,0-20.539,0-30.941c-10.147,0-19.89,0-30.305,0c0-10.395,0-20.262,0-30.045c-10.575,0-20.456,0-30.765,0
		c0,10.168,0,19.93,0,30.245c-10.345,0-20.264,0-30.331,0c0,10.457,0,20.34,0,30.728c10.222,0,20.132,0,30.527,0
		c0,10.403,0,20.311,0,30.454c10.384,0,20.266,0,30.724,0c0-10.18,0-20.09,0-30.44C165.482,349.703,175.237,349.703,185.314,349.703
		z M441.661,339.514c0.036-11.301-8.839-20.348-20.104-20.493c-11.37-0.146-20.762,9.201-20.649,20.555
		c0.112,11.243,9.19,20.192,20.466,20.174C432.701,359.731,441.624,350.831,441.661,339.514z M359.744,339.496
		c0.033-11.304-8.859-20.353-20.125-20.479c-11.362-0.128-20.714,9.213-20.603,20.577c0.11,11.262,9.15,20.169,20.454,20.152
		C350.794,359.73,359.711,350.822,359.744,339.496z M400.717,380.195c-0.087-11.232-9.212-20.286-20.4-20.239
		c-11.163,0.047-20.318,9.206-20.36,20.368c-0.043,11.395,9.261,20.537,20.746,20.387
		C392.008,400.563,400.805,391.547,400.717,380.195z M400.714,298.481c0.001-11.324-8.876-20.292-20.187-20.393
		c-11.39-0.101-20.724,9.249-20.566,20.603c0.154,11.236,9.265,20.154,20.53,20.098
		C391.817,318.731,400.713,309.799,400.714,298.481z"/>
	<path display="inline" fill-rule="evenodd" clip-rule="evenodd" d="M184.05,342.332c-9.976,0-19.634,0-29.849,0
		c0,10.248,0,20.059,0,30.137c-10.353,0-20.136,0-30.417,0c0-10.041,0-19.85,0-30.148c-10.292,0-20.102,0-30.222,0
		c0-10.285,0-20.068,0-30.422c9.966,0,19.785,0,30.027,0c0-10.211,0-19.875,0-29.941c10.206,0,19.988,0,30.458,0
		c0,9.686,0,19.453,0,29.744c10.311,0,19.956,0,30.002,0C184.05,322,184.05,331.771,184.05,342.332z"/>
	<path display="inline" fill-rule="evenodd" clip-rule="evenodd" d="M437.834,332.246c-0.037,11.203-8.871,20.016-20.086,20.033
		c-11.162,0.018-20.15-8.842-20.262-19.973c-0.111-11.24,9.188-20.494,20.443-20.35
		C429.082,312.102,437.869,321.058,437.834,332.246z"/>
	<path display="inline" fill-rule="evenodd" clip-rule="evenodd" d="M356.736,332.229c-0.033,11.213-8.861,20.031-20.072,20.047
		c-11.189,0.016-20.141-8.801-20.248-19.951c-0.111-11.25,9.146-20.498,20.396-20.371
		C347.965,312.079,356.768,321.037,356.736,332.229z"/>
	<path display="inline" fill-rule="evenodd" clip-rule="evenodd" d="M397.299,372.52c0.086,11.238-8.623,20.166-19.814,20.311
		c-11.371,0.15-20.582-8.902-20.539-20.182c0.041-11.051,9.105-20.119,20.156-20.166C388.18,352.438,397.213,361.4,397.299,372.52z"
		/>
	<path display="inline" fill-rule="evenodd" clip-rule="evenodd" d="M397.295,291.623c0,11.205-8.807,20.048-20.02,20.105
		c-11.152,0.056-20.172-8.773-20.324-19.896c-0.156-11.24,9.084-20.496,20.359-20.396
		C388.508,271.534,397.297,280.412,397.295,291.623z"/>
</g>
<g display="none">
	<path fill-rule="evenodd" clip-rule="evenodd" fill="#FFFFFF" d="M513.5,162.5c0,117,0,234,0,351c-171,0-342,0-513,0
		c0-171,0-342,0-513c171,0,342,0,513,0c0,52.667,0,105.333,0,158c-0.565-2.92-0.972-5.88-1.721-8.752
		c-5.215-19.975-20.091-32.724-40.717-34.992c-17.959-1.977-35.975,8.222-44.636,25.849c-1.886,3.838-4.024,4.682-7.949,4.642
		c-16.908-0.171-33.594,1.977-49.881,6.488c-49.155,13.618-84.417,44.491-109.073,88.396c-0.764,1.359-1.569,2.695-1.86,3.194
		c-6.624-15.723-12.374-32.12-20.198-47.459c-29.264-57.364-75.994-91.744-139.38-103.22c-4.149-0.751-5.633-2.481-6.728-6.235
		C85.714,67.063,70,54.584,50.233,53.365c-19.295-1.189-37.05,9.749-44.667,27.519c-7.648,17.842-2.94,38.767,11.712,52.054
		c13.896,12.6,34.936,15.14,51.659,6.011c4.022-2.195,7.676-5.067,11.63-7.717c21.722,17.563,33.335,39.907,32.779,68.043
		c-0.342,17.294-4.414,33.961-9.416,50.394c-7.554,24.813-15.658,49.464-22.874,74.373c-4.29,14.81-5.82,30.146-3.033,45.487
		c0.996,5.481,0.529,9.007-4.163,13.051c-19.17,16.522-20.522,47.161-3.873,66.088c7.651,8.697,17.678,13.538,27.757,18.208
		c64.138,29.713,131.264,41.948,201.751,33.688c46.095-5.401,89.818-18.622,130.874-40.383
		c33.395-17.701,35.313-62.695,3.663-83.459c-1.18-0.773-2.501-2.405-2.54-3.675c-0.38-12.339-4.323-23.619-10.715-33.9
		c-8.61-13.849-18.043-27.184-26.785-40.953c-6.146-9.679-12.449-19.365-17.422-29.658c-12.779-26.453-6.367-48.032,18.793-63.154
		c9.924-5.965,20.781-10.375,31.199-15.521c2.986-1.475,5-1.246,7.657,1.527c24.782,25.858,66.861,15.532,77.06-18.779
		C512.261,169.311,512.771,165.873,513.5,162.5z"/>
	<path display="inline" fill-rule="evenodd" clip-rule="evenodd" d="M508.941,140.657c-0.721,3.339-1.227,6.743-2.197,10.007
		c-10.096,33.968-51.754,44.191-76.289,18.591c-2.631-2.746-4.623-2.972-7.58-1.512c-10.314,5.094-21.063,9.46-30.887,15.365
		c-24.908,14.971-31.258,36.334-18.605,62.523c4.924,10.19,11.164,19.779,17.248,29.361c8.654,13.632,17.992,26.833,26.518,40.544
		c6.326,10.178,10.23,21.346,10.607,33.562c0.039,1.257,1.346,2.872,2.514,3.638c31.334,20.556,29.436,65.101-3.625,82.624
		c-40.646,21.543-83.932,34.632-129.566,39.979c-69.782,8.177-136.237-3.936-199.733-33.352
		c-9.978-4.623-19.905-9.416-27.479-18.026c-16.483-18.737-15.145-49.069,3.833-65.427c4.645-4.004,5.107-7.494,4.122-12.92
		c-2.759-15.188-1.245-30.371,3.002-45.033c7.144-24.66,15.167-49.064,22.646-73.629c4.952-16.269,8.983-32.769,9.322-49.89
		c0.55-27.854-10.947-49.975-32.452-67.363c-3.914,2.623-7.531,5.466-11.514,7.64c-16.556,9.038-37.385,6.523-51.143-5.95
		C3.176,98.236-1.485,77.52,6.087,59.857c7.542-17.592,25.119-28.421,44.221-27.244c19.57,1.207,35.126,13.561,40.713,32.715
		c1.084,3.717,2.553,5.43,6.661,6.173c62.752,11.361,109.015,45.397,137.986,102.188c7.747,15.186,13.439,31.419,19.997,46.984
		c0.287-0.494,1.086-1.817,1.842-3.163c24.409-43.466,59.318-74.03,107.982-87.512c16.123-4.467,32.643-6.593,49.381-6.424
		c3.887,0.04,6.004-0.795,7.871-4.595c8.574-17.451,26.41-27.547,44.189-25.59c20.42,2.246,35.146,14.867,40.309,34.642
		c0.742,2.843,1.145,5.774,1.703,8.665C508.941,138.017,508.941,139.337,508.941,140.657z M224.658,385.114
		c0-15.967-0.142-30.76,0.03-45.55c0.329-28.244,5.109-55.697,14.785-82.297c1.008-2.771,1.231-6.203,0.676-9.109
		c-4.411-23.091-11.638-45.279-22.576-66.139c-26.287-50.133-67.273-80.438-122.978-90.731c-1.124-0.208-2.32-0.026-4.36-0.026
		c4.275,3.9,7.864,7,11.259,10.299c19.538,18.987,30.32,41.926,31.296,69.33c0.774,21.74-4.18,42.534-10.359,63.098
		c-7.528,25.056-15.64,49.94-22.862,75.081c-3.424,11.922-3.806,24.302-1.209,36.981c12.327-1.683,23.409,1.197,33.798,7.289
		c19.6,11.493,40.626,19.572,62.518,25.357C204.305,381.243,214.169,382.899,224.658,385.114z M245.209,385.847
		c0.422,0.23,0.699,0.495,0.999,0.526c1.475,0.149,2.956,0.312,4.436,0.336c43.297,0.728,83.867-9.894,122.012-29.95
		c10.855-5.708,21.359-11.812,35.012-11.17c-1.486-4.532-2.102-8.781-4.133-12.187c-8.176-13.702-16.859-27.101-25.219-40.694
		c-7.928-12.893-16.682-25.401-23.32-38.937c-16.111-32.841-8.785-61.82,20.369-83.86c12.029-9.093,25.535-15.621,39.721-20.716
		c2.539-0.912,5.254-1.723,2.949-5.313c-36.205-1.155-76.143,10.248-106.523,37.399c-27.764,24.813-44.342,56.443-55.896,91.179
		c-12.099,36.375-11.784,73.951-10.825,111.59C244.808,384.685,245.08,385.312,245.209,385.847z M255.524,457.72
		c23.52,0.072,46.772-2.396,69.741-7.289c32.055-6.83,62.896-17.173,91.814-32.801c18.17-9.82,20.783-33.32,5.195-45.834
		c-9.441-7.581-20.643-7.513-33.322-1.169c-14.406,7.207-28.875,14.563-43.965,20.082c-64.516,23.593-128.665,21.288-191.967-4.897
		c-11.84-4.897-23.116-11.165-34.609-16.888c-6.659-3.316-13.516-4.099-20.611-1.881c-10.882,3.4-18.487,12.595-19.137,23.973
		c-0.701,12.264,4.966,21.211,15.774,26.86C144.895,444.254,198.68,457.204,255.524,457.72z M463.203,112.871
		c-13.984,0.06-25.549,11.582-25.508,25.416c0.045,14.029,11.592,25.839,25.232,25.802c14.262-0.038,25.941-11.484,26.068-25.546
		C489.123,124.471,477.408,112.81,463.203,112.871z M47.614,103.127c14.378-0.164,25.813-11.624,25.691-25.747
		c-0.12-13.908-11.653-25.389-25.577-25.459c-13.794-0.071-25.655,11.643-25.688,25.368C22.006,91.624,33.55,103.288,47.614,103.127
		z"/>
	<path fill-rule="evenodd" clip-rule="evenodd" fill="#FFFFFF" d="M226.344,409.427c-10.595-2.237-20.559-3.91-30.286-6.48
		c-22.113-5.844-43.352-14.005-63.149-25.614c-10.494-6.153-21.688-9.062-34.139-7.362c-2.623-12.808-2.238-25.313,1.221-37.354
		c7.295-25.396,15.489-50.531,23.093-75.84c6.241-20.771,11.246-41.775,10.464-63.735c-0.985-27.681-11.876-50.852-31.612-70.03
		c-3.43-3.333-7.055-6.464-11.373-10.403c2.061,0,3.269-0.184,4.404,0.026c56.267,10.397,97.668,41.008,124.22,91.647
		c11.048,21.07,18.349,43.482,22.804,66.807c0.561,2.937,0.336,6.402-0.683,9.202c-9.773,26.867-14.602,54.599-14.935,83.128
		C226.201,378.356,226.344,393.299,226.344,409.427z"/>
	<path fill-rule="evenodd" clip-rule="evenodd" fill="#FFFFFF" d="M247.103,410.167c-0.131-0.541-0.406-1.174-0.422-1.814
		c-0.969-38.019-1.287-75.975,10.934-112.718c11.671-35.086,28.416-67.036,56.46-92.1c30.688-27.425,71.029-38.943,107.6-37.776
		c2.327,3.626-0.415,4.445-2.979,5.366c-14.329,5.146-27.973,11.74-40.123,20.925c-29.448,22.263-36.849,51.535-20.575,84.707
		c6.707,13.672,15.549,26.308,23.557,39.33c8.444,13.731,17.215,27.265,25.473,41.105c2.052,3.439,2.674,7.731,4.175,12.31
		c-13.789-0.648-24.399,5.518-35.364,11.283c-38.531,20.259-79.51,30.987-123.245,30.252c-1.496-0.024-2.991-0.188-4.481-0.339
		C247.809,410.667,247.529,410.399,247.103,410.167z"/>
	<path fill-rule="evenodd" clip-rule="evenodd" fill="#FFFFFF" d="M257.522,482.766c-57.418-0.521-111.748-13.602-162.714-40.246
		c-10.917-5.707-16.642-14.744-15.934-27.132c0.657-11.493,8.338-20.78,19.331-24.215c7.167-2.24,14.093-1.45,20.82,1.899
		c11.609,5.781,22.999,12.112,34.958,17.059c63.942,26.45,128.739,28.778,193.907,4.947c15.242-5.574,29.856-13.005,44.408-20.285
		c12.809-6.408,24.122-6.477,33.659,1.181c15.744,12.641,13.104,36.378-5.248,46.297c-29.211,15.786-60.363,26.233-92.742,33.133
		C304.768,480.346,281.279,482.839,257.522,482.766z"/>
	<path fill-rule="evenodd" clip-rule="evenodd" fill="#FFFFFF" d="M467.299,134.434c14.348-0.062,26.182,11.717,26.053,25.931
		c-0.128,14.204-11.926,25.767-26.331,25.805c-13.778,0.037-25.442-11.892-25.486-26.063
		C441.492,146.133,453.173,134.494,467.299,134.434z"/>
	<path fill-rule="evenodd" clip-rule="evenodd" fill="#FFFFFF" d="M47.512,124.592c-14.206,0.162-25.867-11.62-25.832-26.1
		c0.034-13.863,12.015-25.695,25.948-25.624c14.064,0.071,25.714,11.668,25.835,25.717
		C73.586,112.851,62.036,124.426,47.512,124.592z"/>
</g>
<g display="none">
	<path fill-rule="evenodd" clip-rule="evenodd" fill="#FFFFFF" d="M0.537,513.287c0-170.836,0-341.812,0-512.75
		c171.012,0,341.988,0,512.963,0c0,170.869,0,341.703,0,512.75C342.5,513.287,171.5,513.287,0.537,513.287z M493.063,229.6
		c0.029,0,0.058,0,0.087,0c0-46.16-0.009-92.32,0.008-138.48c0.003-7.773-2.713-11.258-10.664-13.244
		C409.379,59.611,336.27,41.323,263.115,23.219c-3.557-0.88-7.691-0.825-11.268,0.019c-19.105,4.508-38.115,9.413-57.162,14.166
		C140.774,50.856,86.86,64.297,32.95,77.753c-8.885,2.218-11.271,5.378-11.041,14.418c0.046,1.832,0.026,3.666,0.026,5.499
		c0.001,89.322,0.045,178.645-0.079,267.966c-0.01,7.56,2.697,12.341,9.673,15.673c75.821,36.213,151.55,72.619,227.311,108.961
		c1.644,0.788,3.339,1.484,5.049,2.117c5.687,2.104,9.797-1.619,14.265-3.948c68.47-35.703,136.908-71.466,205.442-107.044
		c6.741-3.499,9.603-8.199,9.568-15.813C492.961,320.256,493.063,274.928,493.063,229.6z"/>
	<path display="inline" fill-rule="evenodd" clip-rule="evenodd" d="M502.842,226.189c0,47.595-0.109,95.189,0.105,142.782
		c0.035,7.993-2.969,12.929-10.047,16.603c-71.961,37.357-143.822,74.908-215.715,112.396c-4.691,2.445-9.008,6.355-14.979,4.146
		c-1.795-0.664-3.574-1.396-5.301-2.223C177.358,461.734,97.842,423.508,18.23,385.484c-7.325-3.499-10.167-8.52-10.156-16.457
		c0.13-93.787,0.083-187.575,0.082-281.363c0-1.925,0.021-3.851-0.026-5.774c-0.243-9.492,2.263-12.811,11.592-15.139
		C76.328,52.622,132.937,38.51,189.543,24.384c19.999-4.99,39.96-10.142,60.021-14.874c3.756-0.887,8.096-0.943,11.831-0.02
		c76.813,19.01,153.578,38.212,230.348,57.389c8.35,2.086,11.201,5.744,11.197,13.906c-0.016,48.469-0.008,96.937-0.008,145.404
		C502.902,226.189,502.871,226.189,502.842,226.189z M29.916,92.91c-0.094,1.56-0.171,2.251-0.171,2.942
		c-0.007,89.053,0.017,178.106-0.099,267.158c-0.004,3.528,1.604,4.745,4.354,6.063c72.157,34.563,144.277,69.202,216.409,103.818
		c1.514,0.727,3.081,1.339,5.09,2.207c0-1.85,0-3.055,0-4.261c0-100.425-0.047-200.85,0.146-301.274
		c0.009-4.798-2.587-5.321-5.761-6.337c-56.719-18.139-113.429-36.303-170.145-54.448C63.3,103.52,46.847,98.301,29.916,92.91z
		 M481.264,93.457c-1.676,0.471-2.51,0.657-3.311,0.936C412.307,117.229,346.68,140.117,280.98,162.8
		c-3.828,1.322-4.049,3.443-4.049,6.614c0.041,99.378,0.031,198.755,0.045,298.133c0,1.785,0.172,3.571,0.289,5.845
		c1.938-0.872,3.066-1.315,4.135-1.873c65.375-34.101,130.725-68.246,196.166-102.217c3.346-1.737,3.74-3.852,3.738-7.012
		c-0.051-87.831-0.041-175.661-0.041-263.492C481.264,97.238,481.264,95.679,481.264,93.457z M58.72,79.256
		c2.133,0.834,2.925,1.195,3.749,1.459c66.364,21.227,132.723,42.472,199.132,63.555c2.412,0.766,5.563,0.57,7.99-0.269
		c59.584-20.586,119.117-41.318,178.656-62.043c1.588-0.553,3.105-1.31,5.422-2.298c-1.695-0.443-2.504-0.663-3.316-0.866
		C386.48,62.803,322.611,46.785,258.707,30.921c-2.54-0.63-5.545-0.245-8.152,0.4c-49.838,12.365-99.649,24.838-149.464,37.296
		C87.394,72.042,73.704,75.492,58.72,79.256z"/>
	<path fill-rule="evenodd" clip-rule="evenodd" fill="#FFFFFF" d="M42.659,102.667c16.125,5.134,31.794,10.104,47.452,15.113
		c54.015,17.281,108.025,34.58,162.042,51.855c3.023,0.967,5.496,1.466,5.487,6.035c-0.185,95.643-0.14,191.285-0.14,286.928
		c0,1.148,0,2.297,0,4.058c-1.913-0.826-3.406-1.409-4.847-2.102c-68.697-32.968-137.383-65.957-206.104-98.875
		c-2.62-1.255-4.151-2.414-4.146-5.774c0.109-84.812,0.087-169.624,0.093-254.437C42.495,104.811,42.569,104.152,42.659,102.667z
		 M188.77,205.129c-0.221,0.426-0.443,0.852-0.665,1.277c-9.07-0.234-15.982,5.88-17.667,15.631
		c-2.774,16.048,7.857,36.32,22.64,43.173c12.804,5.935,24.854-0.266,26.549-14.225c1.873-15.413-4.094-28.129-15.853-37.802
		C199.474,209.646,193.811,207.766,188.77,205.129z M119.142,264.666c0.169,17.048,11.442,34.264,25.083,38.914
		c9.66,3.294,18.503-0.792,21.283-10.595c1.233-4.345,1.617-9.311,0.906-13.758c-2.362-14.764-9.316-26.791-23.665-32.861
		c-11.229-4.75-21.293,1.379-23.186,13.439C119.279,261.61,119.242,263.454,119.142,264.666z M116.936,320.253
		c-0.537-3.407-0.683-6.793-1.633-9.936c-3.747-12.399-10.066-22.936-22.813-27.909c-8.82-3.442-17.204,0.355-19.869,9.414
		c-1.361,4.626-1.835,9.961-1.033,14.69c2.423,14.288,9.017,26.186,23.076,32.132c9.343,3.952,17.859-0.423,20.801-10.118
		C116.275,325.855,116.465,322.996,116.936,320.253z"/>
	<path fill-rule="evenodd" clip-rule="evenodd" fill="#FFFFFF" d="M472.514,103.188c0,2.116,0,3.602,0,5.087
		c0,83.648-0.01,167.296,0.039,250.944c0.002,3.01-0.373,5.023-3.56,6.678c-62.325,32.354-124.564,64.873-186.825,97.35
		c-1.019,0.531-2.094,0.953-3.938,1.784c-0.111-2.165-0.275-3.866-0.275-5.566c-0.013-94.646-0.004-189.291-0.042-283.937
		c-0.001-3.02,0.209-5.04,3.855-6.299c62.57-21.603,125.073-43.401,187.594-65.15C470.124,103.813,470.917,103.636,472.514,103.188z
		 M347.828,284.148c3.157-0.917,6.48-1.466,9.441-2.813c13.299-6.049,24.02-24.7,22.836-39.305
		c-1.386-17.092-14.838-24.074-29.32-14.772c-13.135,8.436-19.583,21.103-19.707,36.556
		C330.981,275.815,337.945,283.534,347.828,284.148z M439.522,288.015c-0.411-7.743-1.822-14.734-8.98-18.66
		c-7.043-3.861-13.748-1.623-19.587,2.677c-12.024,8.854-17.994,21.134-18.062,35.975c-0.032,7.059,2.239,13.672,9.173,17.084
		c6.883,3.386,13.439,1.26,19.178-2.934C432.852,313.675,438.339,301.781,439.522,288.015z"/>
	<path fill-rule="evenodd" clip-rule="evenodd" fill="#FFFFFF" d="M70.091,89.662c14.27-3.584,27.309-6.87,40.353-10.132
		c47.443-11.864,94.882-23.743,142.347-35.52c2.482-0.615,5.345-0.981,7.763-0.382c60.862,15.109,121.688,30.364,182.521,45.594
		c0.773,0.193,1.544,0.402,3.159,0.825c-2.207,0.941-3.652,1.662-5.165,2.188c-56.702,19.737-113.401,39.482-170.148,59.088
		c-2.313,0.799-5.312,0.985-7.608,0.256c-63.248-20.079-126.446-40.313-189.651-60.528C72.877,90.801,72.123,90.457,70.091,89.662z
		 M262.623,103.129c0.125-0.463,0.248-0.926,0.373-1.389c9.236,0.017,18.28-0.904,26.638-5.321c4.012-2.12,7.509-4.893,7.517-9.746
		c0.008-4.845-3.508-7.604-7.446-9.827c-7.858-4.435-16.604-4.959-25.198-4.955c-9.095,0.004-18.332,0.492-26.614,5.289
		c-3.926,2.273-7.335,5.01-7.264,9.914c0.068,4.69,3.224,7.954,7.263,9.275C246.004,99.024,254.365,100.92,262.623,103.129z"/>
	<path display="inline" fill-rule="evenodd" clip-rule="evenodd" d="M183.333,200.495c5.293,2.769,11.239,4.744,15.755,8.458
		c12.347,10.156,18.612,23.508,16.646,39.691c-1.781,14.657-14.434,21.167-27.877,14.937c-15.522-7.195-26.686-28.481-23.772-45.332
		c1.771-10.238,9.027-16.658,18.551-16.412C182.868,201.39,183.1,200.942,183.333,200.495z"/>
	<path display="inline" fill-rule="evenodd" clip-rule="evenodd" d="M110.223,263.01c0.105-1.272,0.145-3.209,0.441-5.104
		c1.988-12.664,12.555-19.099,24.346-14.111c15.066,6.374,22.368,19.002,24.849,34.504c0.747,4.67,0.343,9.884-0.951,14.446
		c-2.92,10.293-12.205,14.583-22.348,11.124C122.238,298.986,110.401,280.91,110.223,263.01z"/>
	<path display="inline" fill-rule="evenodd" clip-rule="evenodd" d="M107.907,321.376c-0.494,2.88-0.693,5.883-1.544,8.687
		c-3.09,10.181-12.031,14.774-21.842,10.624c-14.762-6.243-21.686-18.735-24.229-33.738c-0.843-4.966-0.345-10.567,1.084-15.425
		c2.799-9.512,11.602-13.499,20.863-9.885c13.383,5.223,20.019,16.285,23.953,29.305
		C107.189,314.243,107.343,317.798,107.907,321.376z"/>
	<path display="inline" fill-rule="evenodd" clip-rule="evenodd" d="M350.344,283.466c-10.377-0.645-17.689-8.749-17.588-21.351
		c0.131-16.226,6.9-29.526,20.693-38.384c15.205-9.767,29.33-2.435,30.785,15.512c1.244,15.335-10.014,34.918-23.977,41.27
		C357.148,281.927,353.658,282.503,350.344,283.466z"/>
	<path display="inline" fill-rule="evenodd" clip-rule="evenodd" d="M446.623,287.525c-1.242,14.455-7.004,26.943-19.193,35.849
		c-6.023,4.403-12.908,6.636-20.135,3.08c-7.281-3.582-9.666-10.526-9.633-17.938c0.07-15.583,6.34-28.478,18.965-37.773
		c6.131-4.515,13.172-6.865,20.566-2.811C444.709,272.055,446.191,279.396,446.623,287.525z"/>
	<path display="inline" fill-rule="evenodd" clip-rule="evenodd" d="M260.879,93.396c-8.671-2.319-17.451-4.31-25.969-7.098
		c-4.24-1.388-7.555-4.814-7.626-9.739c-0.074-5.149,3.505-8.022,7.627-10.41c8.696-5.036,18.396-5.549,27.945-5.553
		c9.023-0.005,18.207,0.546,26.459,5.202c4.135,2.334,7.826,5.231,7.818,10.318c-0.01,5.097-3.682,8.008-7.893,10.233
		c-8.775,4.639-18.271,5.605-27.971,5.588C261.139,92.424,261.01,92.909,260.879,93.396z"/>
</g>
</svg>
