<?xml version="1.0" encoding="utf-8"?>
<!-- Generator: Adobe Illustrator 16.0.0, SVG Export Plug-In . SVG Version: 6.00 Build 0)  -->
<!DOCTYPE svg PUBLIC "-//W3C//DTD SVG 1.1//EN" "http://www.w3.org/Graphics/SVG/1.1/DTD/svg11.dtd">
<svg version="1.1" id="Layer_1" xmlns="http://www.w3.org/2000/svg" xmlns:xlink="http://www.w3.org/1999/xlink" x="0px" y="0px"
	 width="512px" height="512px" viewBox="0 0 512 512" enable-background="new 0 0 512 512" xml:space="preserve">
<g>
	<line fill="none" stroke="#B35047" x1="32" y1="0" x2="32" y2="512"/>
	<line fill="none" stroke="#B35047" x1="64" y1="0" x2="64" y2="512"/>
	<line fill="none" stroke="#B35047" x1="96" y1="0" x2="96" y2="512"/>
	<line fill="none" stroke="#B35047" x1="128" y1="0" x2="128" y2="512"/>
	<line fill="none" stroke="#B35047" x1="160" y1="0" x2="160" y2="512"/>
	<line fill="none" stroke="#B35047" x1="192" y1="0" x2="192" y2="512"/>
	<line fill="none" stroke="#B35047" x1="224" y1="0" x2="224" y2="512"/>
	<line fill="none" stroke="#B35047" x1="256" y1="0" x2="256" y2="512"/>
	<line fill="none" stroke="#B35047" x1="288" y1="0" x2="288" y2="512"/>
	<line fill="none" stroke="#B35047" x1="320" y1="0" x2="320" y2="512"/>
	<line fill="none" stroke="#B35047" x1="352" y1="0" x2="352" y2="512"/>
	<line fill="none" stroke="#B35047" x1="384" y1="0" x2="384" y2="512"/>
	<line fill="none" stroke="#B35047" x1="416" y1="0" x2="416" y2="512"/>
	<line fill="none" stroke="#B35047" x1="448" y1="0" x2="448" y2="512"/>
	<line fill="none" stroke="#B35047" x1="480" y1="0" x2="480" y2="512"/>
	<line fill="none" stroke="#B35047" x1="0" y1="32" x2="512" y2="32"/>
	<line fill="none" stroke="#B35047" x1="0" y1="64" x2="512" y2="64"/>
	<line fill="none" stroke="#B35047" x1="0" y1="96" x2="512" y2="96"/>
	<line fill="none" stroke="#B35047" x1="0" y1="128" x2="512" y2="128"/>
	<line fill="none" stroke="#B35047" x1="0" y1="160" x2="512" y2="160"/>
	<line fill="none" stroke="#B35047" x1="0" y1="192" x2="512" y2="192"/>
	<line fill="none" stroke="#B35047" x1="0" y1="224" x2="512" y2="224"/>
	<line fill="none" stroke="#B35047" x1="0" y1="256" x2="512" y2="256"/>
	<line fill="none" stroke="#B35047" x1="0" y1="288" x2="512" y2="288"/>
	<line fill="none" stroke="#B35047" x1="0" y1="320" x2="512" y2="320"/>
	<line fill="none" stroke="#B35047" x1="0" y1="352" x2="512" y2="352"/>
	<line fill="none" stroke="#B35047" x1="0" y1="384" x2="512" y2="384"/>
	<line fill="none" stroke="#B35047" x1="0" y1="416" x2="512" y2="416"/>
	<line fill="none" stroke="#B35047" x1="0" y1="448" x2="512" y2="448"/>
	<line fill="none" stroke="#B35047" x1="0" y1="480" x2="512" y2="480"/>
	<rect fill="none" stroke="#B35047" width="512" height="512"/>
</g>
<g>
	<path display="none" fill-rule="evenodd" clip-rule="evenodd" fill="#FFFFFF" d="M421.5,513.5c-7,0-14,0-21,0
		c0.1-0.99,0.286-1.979,0.286-2.97c0.014-69.327,0.015-138.655-0.004-207.982c0-1.259-0.257-2.518-0.389-3.728
		c-27.265,0-54.162,0-81.509,0c0,2.47,0,4.607,0,6.745c0,67.161,0.003,134.322-0.017,201.483c0,2.15-0.24,4.301-0.368,6.451
		c-6.667,0-13.334,0-20,0c0-88.583,0-177.167,0-265.77c-27.65,0-54.683,0-82,0c0,88.854,0,177.313,0,265.77c-6.667,0-13.333,0-20,0
		c-0.128-2.149-0.368-4.299-0.368-6.448c-0.021-56.968-0.016-113.935-0.017-170.902c0-2.123,0-4.245,0-6.437
		c-27.635,0-54.656,0-81.916,0c0,1.768,0,3.094,0,4.42c0,58.467-0.002,116.934,0.013,175.399c0,1.323,0.188,2.646,0.288,3.968
		c-7,0-14,0-21,0c0-47.598,0-95.196,0-142.84c-27.49,0-54.498,0-81.836,0c0,10.435,0.011,20.41-0.002,30.386
		c-0.05,37.484-0.107,74.97-0.162,112.454c-3.666,0-7.331,0-10.998,0c0-170.944,0-341.889,0-512.916c170.887,0,341.776,0,512.832,0
		c0,170.916,0,341.916,0,512.916c-3.17,0-6.502,0-9.834,0c-0.055-2.163-0.157-4.327-0.157-6.49
		c-0.008-114.991-0.007-229.982-0.007-344.975c0-2.114,0-4.229,0-6.607c-27.541,0-54.452,0-81.929,0c0,2.355,0,4.479,0,6.602
		c0,107.992-0.003,215.984,0.004,323.976C421.411,495.17,421.469,504.335,421.5,513.5z M52.617,277.829
		c8.733,0.029,16.335-5.016,19.09-13.384c1.074-3.262,2.894-4.767,5.87-5.938c20.118-7.929,40.204-15.939,60.235-24.085
		c2.994-1.218,5.282-1.27,8.309,0.264c13.209,6.695,28.707-2.415,29.255-17.174c0.119-3.206,1.173-5.116,3.573-7.022
		c22.437-17.823,44.811-35.724,67.136-53.686c2.47-1.987,4.675-2.798,8.049-2.337c3.634,0.496,7.683-0.017,11.181-1.188
		c2.801-0.938,4.844-0.968,7.417,0.331c20.647,10.422,41.324,20.786,62.076,30.998c3.073,1.513,4.715,3.382,5.63,6.753
		c3.003,11.067,13.963,17.088,24.955,14.101c10.587-2.877,16.69-13.582,14.386-24.576c-0.438-2.09-0.051-5.001,1.146-6.69
		c25.616-36.146,51.374-72.191,77.246-108.154c1.15-1.6,3.551-2.978,5.514-3.203c12.366-1.42,20.504-11.481,18.772-23.658
		c-1.577-11.092-12.303-18.624-23.845-16.744c-11.3,1.841-18.811,12.997-16.027,24.576c0.816,3.396-0.026,5.534-1.868,8.103
		c-24.361,33.973-48.671,67.982-72.886,102.06c-3.283,4.621-6.046,9.492-12.867,8.918c-1.063-0.089-2.18,0.922-3.302,1.002
		c-2.124,0.151-4.62,0.71-6.354-0.14c-21.363-10.471-42.646-21.108-63.846-31.906c-1.729-0.881-3.387-3.06-3.91-4.958
		c-2.863-10.378-11.713-16.703-22.494-15.654c-9.86,0.959-17.179,9.148-17.99,19.556c-0.166,2.134-1.38,4.798-3.004,6.113
		c-22.784,18.454-45.69,36.758-68.698,54.931c-1.505,1.189-4.164,1.656-6.141,1.389c-10.716-1.446-19.788,3.79-23.596,13.477
		c-0.835,2.122-2.911,4.437-4.981,5.287c-20.15,8.29-40.443,16.234-60.635,24.427c-2.964,1.202-5.259,1.438-8.288-0.23
		c-7.378-4.065-16.554-2.58-22.731,3.046c-6.226,5.67-8.353,14.565-5.355,22.391C36.638,272.651,44.151,277.801,52.617,277.829z"/>
	<path fill-rule="evenodd" clip-rule="evenodd" d="M419.5,501.354c-0.031-9.166-0.089-18.33-0.089-27.496
		c-0.007-107.99-0.004-215.982-0.004-323.975c0-2.123,0-4.246,0-6.602c27.477,0,54.388,0,81.929,0c0,2.379,0,4.493,0,6.607
		c0,114.993-0.001,229.983,0.007,344.975c0,2.162,0.103,4.326,0.157,6.49C474.167,501.354,446.833,501.354,419.5,501.354z
		 M440.12,163.592c0,105.886,0,211.359,0,317.003c13.642,0,26.891,0,40.208,0c0-105.816,0-211.316,0-317.003
		C466.845,163.592,453.725,163.592,440.12,163.592z"/>
	<path fill-rule="evenodd" clip-rule="evenodd" d="M214.5,501.354c0-88.457,0-176.916,0-265.77c27.317,0,54.35,0,82,0
		c0,88.602,0,177.186,0,265.77C269.166,501.354,241.833,501.354,214.5,501.354z M235.365,480.598c13.511,0,26.752,0,40.275,0
		c0-75.02,0-149.74,0-224.768c-13.522,0-26.748,0-40.275,0C235.365,330.848,235.365,405.566,235.365,480.598z"/>
	<path fill-rule="evenodd" clip-rule="evenodd" d="M316.5,501.354c0.128-2.15,0.368-4.301,0.368-6.451
		c0.02-67.162,0.017-134.322,0.017-201.484c0-2.137,0-4.275,0-6.744c27.347,0,54.244,0,81.509,0
		c0.132,1.209,0.389,2.469,0.389,3.727c0.019,69.328,0.018,138.656,0.004,207.982c0,0.99-0.187,1.98-0.286,2.971
		C371.167,501.354,343.833,501.354,316.5,501.354z M337.642,307.08c0,57.955,0,115.578,0,173.49c13.595,0,26.999,0,40.571,0
		c0-57.945,0-115.549,0-173.49C364.744,307.08,351.486,307.08,337.642,307.08z"/>
	<path fill-rule="evenodd" clip-rule="evenodd" d="M112.5,501.354c-0.1-1.322-0.288-2.645-0.288-3.969
		c-0.015-58.465-0.013-116.932-0.013-175.398c0-1.326,0-2.652,0-4.42c27.26,0,54.281,0,81.916,0c0,2.191,0,4.313,0,6.436
		c0,56.969-0.004,113.936,0.017,170.902c0,2.15,0.24,4.299,0.368,6.449C167.167,501.354,139.833,501.354,112.5,501.354z
		 M173.124,480.6c0-47.895,0-95.408,0-142.811c-13.67,0-26.912,0-40.312,0c0,47.73,0,95.117,0,142.811
		C146.302,480.6,159.555,480.6,173.124,480.6z"/>
	<path fill-rule="evenodd" clip-rule="evenodd" d="M9.5,501.354c0.055-37.484,0.112-74.971,0.162-112.455
		c0.013-9.975,0.002-19.951,0.002-30.385c27.338,0,54.346,0,81.836,0c0,47.643,0,95.242,0,142.84
		C64.167,501.354,36.833,501.354,9.5,501.354z M30.566,378.635c0,34.121,0,67.885,0,101.869c13.572,0,26.958,0,40.356,0
		c0-34.16,0-67.91,0-101.869C57.453,378.635,44.332,378.635,30.566,378.635z"/>
	<path fill-rule="evenodd" clip-rule="evenodd" d="M50.617,265.682c-8.466-0.027-15.979-5.178-18.979-13.01
		c-2.998-7.825-0.871-16.72,5.355-22.39c6.177-5.626,15.353-7.111,22.731-3.046c3.029,1.669,5.324,1.433,8.288,0.23
		c20.192-8.192,40.484-16.137,60.635-24.427c2.07-0.851,4.146-3.165,4.981-5.287c3.809-9.687,12.88-14.923,23.596-13.477
		c1.978,0.268,4.636-0.199,6.141-1.389c23.008-18.173,45.915-36.477,68.698-54.931c1.625-1.315,2.838-3.979,3.004-6.113
		c0.811-10.407,8.129-18.597,17.99-19.556c10.781-1.049,19.63,5.276,22.494,15.654c0.523,1.898,2.182,4.077,3.91,4.958
		c21.2,10.798,42.482,21.436,63.846,31.906c1.734,0.85,4.23,0.291,6.354,0.14c1.122-0.08,2.239-1.091,3.302-1.002
		c6.821,0.574,9.584-4.297,12.867-8.918c24.215-34.077,48.524-68.087,72.886-102.06c1.842-2.568,2.685-4.707,1.868-8.103
		c-2.783-11.579,4.728-22.735,16.027-24.576c11.542-1.88,22.268,5.652,23.845,16.744c1.731,12.177-6.406,22.238-18.772,23.658
		c-1.963,0.226-4.363,1.604-5.514,3.203c-25.872,35.963-51.63,72.009-77.246,108.154c-1.196,1.689-1.584,4.601-1.146,6.69
		c2.305,10.994-3.799,21.699-14.386,24.576c-10.992,2.987-21.952-3.033-24.955-14.101c-0.915-3.371-2.557-5.24-5.63-6.753
		c-20.752-10.212-41.429-20.576-62.076-30.998c-2.573-1.299-4.616-1.27-7.417-0.331c-3.498,1.172-7.547,1.685-11.181,1.188
		c-3.374-0.461-5.579,0.35-8.049,2.337c-22.325,17.962-44.699,35.862-67.136,53.686c-2.4,1.906-3.454,3.816-3.573,7.022
		c-0.548,14.759-16.045,23.869-29.255,17.174c-3.026-1.533-5.315-1.481-8.309-0.264c-20.031,8.146-40.117,16.156-60.235,24.085
		c-2.976,1.172-4.795,2.677-5.87,5.938C66.952,260.666,59.35,265.711,50.617,265.682z"/>
	<path display="none" fill-rule="evenodd" clip-rule="evenodd" fill="#FFFFFF" d="M442.12,175.739c13.604,0,26.725,0,40.208,0
		c0,105.688,0,211.188,0,317.003c-13.317,0-26.566,0-40.208,0C442.12,387.098,442.12,281.626,442.12,175.739z"/>
	<path display="none" fill-rule="evenodd" clip-rule="evenodd" fill="#FFFFFF" d="M237.365,492.744c0-75.03,0-149.749,0-224.768
		c13.527,0,26.753,0,40.275,0c0,75.028,0,149.748,0,224.768C264.117,492.744,250.876,492.744,237.365,492.744z"/>
	<path display="none" fill-rule="evenodd" clip-rule="evenodd" fill="#FFFFFF" d="M339.642,319.227c13.845,0,27.103,0,40.571,0
		c0,57.941,0,115.546,0,173.49c-13.572,0-26.977,0-40.571,0C339.642,434.805,339.642,377.182,339.642,319.227z"/>
	<path display="none" fill-rule="evenodd" clip-rule="evenodd" fill="#FFFFFF" d="M175.124,492.747c-13.569,0-26.822,0-40.312,0
		c0-47.694,0-95.081,0-142.811c13.4,0,26.642,0,40.312,0C175.124,397.339,175.124,444.853,175.124,492.747z"/>
	<path display="none" fill-rule="evenodd" clip-rule="evenodd" fill="#FFFFFF" d="M32.566,390.782c13.765,0,26.887,0,40.356,0
		c0,33.958,0,67.709,0,101.868c-13.397,0-26.784,0-40.356,0C32.566,458.667,32.566,424.903,32.566,390.782z"/>
</g>
<g display="none">
	<path fill-rule="evenodd" clip-rule="evenodd" fill="#FFFFFF" d="M21.5,513.5c-6.998,0-13.996,0-20.995,0
		C0.503,342.557,0.503,171.612,0.503,0.584c170.886,0,341.776,0,512.832,0c0,170.916,0,341.916,0,512.916
		c-6.506,0-13.171,0-19.835,0c-0.146-2.313-0.418-4.625-0.418-6.938c-0.021-128.318-0.019-256.638-0.019-384.957
		c0-2.294,0.001-4.588,0.001-6.952c-48.128,0-95.651,0-143.475,0c0,2.6,0,4.747,0,6.895c0,128.485,0.001,256.971-0.003,385.457
		c-0.001,2.165-0.057,4.331-0.087,6.496c-6.667,0-13.333,0-20,0c-0.075-2.16-0.215-4.32-0.215-6.48
		c-0.011-84.299-0.01-168.598-0.01-252.896c0-2.11,0-4.222,0-6.359c-48.17,0-95.687,0-143.551,0c0,2.572,0,4.716,0,6.859
		c0,84.132,0.002,168.265-0.009,252.396c0,2.16-0.14,4.32-0.215,6.48c-6.667,0-13.333,0-20,0c0-51.047,0-102.093,0-153.198
		c-48.234,0-95.716,0-143.564,0c0,2.438,0,4.42,0,6.401c0,46.788,0.006,93.576-0.019,140.364
		C21.917,509.212,21.646,511.355,21.5,513.5z M200.693,93.593c0.353,0.529,0.705,1.059,1.058,1.587
		c-1.568,1.155-3.316,2.131-4.679,3.492C140.849,154.834,84.654,211.025,28.496,267.254c-1.974,1.976-3.932,4.158-5.208,6.604
		c-3.156,6.049,1.123,13.213,7.918,13.933c4.723,0.5,7.79-2.106,10.804-5.122c56.534-56.558,113.083-113.1,169.635-169.639
		c1.342-1.342,2.762-2.605,4.868-4.585c0,2.387,0,3.675,0,4.964c0,19.825,0.006,39.65-0.003,59.476
		c-0.002,4.921,1.077,9.354,5.964,11.664c7.487,3.54,14.475-1.818,14.502-11.269c0.091-31.986,0.072-63.974,0.065-95.961
		c0-1.25-0.306-2.5-0.508-4.047c-2.163,0-3.98,0-5.797,0c-28.155,0-56.311-0.003-84.466,0.003c-3.831,0.001-7.67-0.101-11.491,0.107
		c-4.274,0.232-7.682,2.073-9.334,6.278c-2.899,7.377,2.169,13.875,11.018,13.908c19.825,0.076,39.651,0.024,59.476,0.024
		C197.522,93.593,199.108,93.593,200.693,93.593z"/>
	<path display="inline" fill-rule="evenodd" clip-rule="evenodd" d="M347.5,476c0.03-2.165,0.086-4.331,0.087-6.496
		c0.004-128.486,0.003-256.972,0.003-385.457c0-2.147,0-4.295,0-6.895c47.823,0,95.347,0,143.475,0c0,2.364-0.001,4.658-0.001,6.952
		c0,128.319-0.002,256.639,0.019,384.957c0,2.313,0.272,4.626,0.418,6.938C443.5,476,395.5,476,347.5,476z M368.457,97.289
		c0,119.46,0,238.537,0,357.852c34.082,0,67.934,0,101.756,0c0-119.489,0-238.562,0-357.852
		C436.31,97.289,402.707,97.289,368.457,97.289z"/>
	<path display="inline" fill-rule="evenodd" clip-rule="evenodd" d="M183.5,476c0.075-2.16,0.215-4.32,0.215-6.48
		c0.011-84.132,0.009-168.265,0.009-252.396c0-2.144,0-4.287,0-6.859c47.864,0,95.381,0,143.551,0c0,2.138,0,4.249,0,6.359
		c0,84.299-0.001,168.598,0.01,252.896c0,2.16,0.14,4.32,0.215,6.48C279.5,476,231.5,476,183.5,476z M204.688,230.427
		c0,75.005,0,149.752,0,224.677c33.948,0,67.792,0,101.507,0c0-75.173,0-149.893,0-224.677
		C272.182,230.427,238.584,230.427,204.688,230.427z"/>
	<path display="inline" fill-rule="evenodd" clip-rule="evenodd" d="M19.5,476c0.146-2.145,0.417-4.288,0.417-6.433
		c0.024-46.788,0.019-93.576,0.019-140.364c0-1.981,0-3.963,0-6.401c47.848,0,95.33,0,143.564,0c0,51.105,0,102.151,0,153.198
		C115.5,476,67.5,476,19.5,476z M40.693,455.222c34.177,0,67.904,0,101.732,0c0-37.533,0-74.729,0-111.995
		c-34.091,0-67.809,0-101.732,0C40.693,380.613,40.693,417.703,40.693,455.222z"/>
	<path display="inline" fill-rule="evenodd" clip-rule="evenodd" d="M198.693,56.093c-1.585,0-3.17,0-4.755,0
		c-19.825,0-39.651,0.052-59.476-0.024c-8.848-0.033-13.917-6.531-11.018-13.908c1.652-4.205,5.061-6.046,9.334-6.278
		c3.821-0.208,7.66-0.106,11.491-0.107c28.155-0.006,56.311-0.003,84.466-0.003c1.817,0,3.635,0,5.797,0
		c0.202,1.547,0.508,2.797,0.508,4.047c0.007,31.987,0.026,63.975-0.065,95.961c-0.027,9.45-7.015,14.809-14.502,11.269
		c-4.887-2.311-5.966-6.743-5.964-11.664c0.01-19.825,0.004-39.65,0.003-59.476c0-1.289,0-2.577,0-4.964
		c-2.106,1.979-3.525,3.243-4.868,4.585C153.093,132.068,96.544,188.61,40.01,245.168c-3.015,3.016-6.082,5.622-10.804,5.122
		c-6.795-0.72-11.074-7.884-7.918-13.933c1.276-2.445,3.234-4.628,5.208-6.604c56.158-56.229,112.353-112.42,168.576-168.582
		c1.362-1.361,3.11-2.337,4.679-3.492C199.398,57.151,199.045,56.622,198.693,56.093z"/>
	<path fill-rule="evenodd" clip-rule="evenodd" fill="#FFFFFF" d="M370.457,134.789c34.25,0,67.853,0,101.756,0
		c0,119.29,0,238.362,0,357.852c-33.822,0-67.674,0-101.756,0C370.457,373.326,370.457,254.249,370.457,134.789z"/>
	<path fill-rule="evenodd" clip-rule="evenodd" fill="#FFFFFF" d="M206.688,267.927c33.896,0,67.494,0,101.507,0
		c0,74.784,0,149.504,0,224.677c-33.716,0-67.56,0-101.507,0C206.688,417.679,206.688,342.932,206.688,267.927z"/>
	<path fill-rule="evenodd" clip-rule="evenodd" fill="#FFFFFF" d="M42.693,492.722c0-37.519,0-74.608,0-111.995
		c33.923,0,67.641,0,101.732,0c0,37.266,0,74.462,0,111.995C110.597,492.722,76.87,492.722,42.693,492.722z"/>
</g>
<g display="none">
	<path fill-rule="evenodd" clip-rule="evenodd" fill="#FFFFFF" d="M20.997,505c-6.998,0-13.996,0-20.995,0
		C0,334.057,0,163.112,0-7.916c170.886,0,341.775,0,512.832,0c0,170.916,0,341.916,0,512.916c-6.506,0-13.172,0-19.836,0
		c-0.145-2.145-0.416-4.288-0.418-6.433c-0.023-46.955-0.018-93.909-0.018-140.864c0-1.938,0-3.877,0-5.941
		c-48.197,0-95.689,0-143.564,0c0,51.361,0,102.3,0,153.238c-6.666,0-13.332,0-20,0c-0.074-2.16-0.215-4.32-0.215-6.48
		c-0.01-84.299-0.01-168.598-0.01-252.896c0-2.11,0-4.222,0-6.359c-48.17,0-95.687,0-143.551,0c0,2.572,0,4.716,0,6.859
		c0,84.132,0.002,168.265-0.009,252.396c0,2.16-0.14,4.32-0.215,6.48c-6.667,0-13.333,0-20,0c-0.03-2.165-0.086-4.331-0.086-6.496
		c-0.004-128.652-0.004-257.305-0.004-385.957c0-2.114,0-4.229,0-6.584c-48.029,0-95.45,0-143.474,0c0,2.554,0,4.848,0,7.142
		c0,128.319,0.002,256.639-0.018,384.957C21.414,500.375,21.142,502.688,20.997,505z M482.189,222.581
		c-0.535,0.312-1.07,0.622-1.604,0.934c-1.24-1.549-2.344-3.232-3.738-4.627c-56.055-56.1-112.131-112.179-168.234-168.232
		c-1.75-1.748-3.631-3.478-5.738-4.733c-5.018-2.989-10.795-1.25-13.67,3.84c-2.633,4.664-1.432,8.975,4.1,14.507
		c56.549,56.553,113.1,113.101,169.643,169.657c1.32,1.321,2.553,2.731,4.576,4.906c-2.928,0-4.555,0-6.182,0
		c-19.492,0.001-38.986,0.021-58.479-0.011c-5.174-0.008-9.676,1.211-11.744,6.528c-2.869,7.371,2.273,13.75,11.189,13.768
		c32.154,0.064,64.311,0.045,96.465,0.029c1.256-0.001,2.512-0.287,3.867-0.453c0.078-1.17,0.18-1.984,0.18-2.798
		c0.01-32.155,0.025-64.312-0.029-96.467c-0.004-1.963-0.342-3.999-0.93-5.875c-1.947-6.224-10.348-9.174-14.912-4.66
		c-2.527,2.499-4.371,6.787-4.549,10.365c-0.564,11.469-0.211,22.982-0.211,34.479C482.189,203.352,482.189,212.967,482.189,222.581
		z"/>
	<path display="inline" fill-rule="evenodd" clip-rule="evenodd" d="M14.997,486c0.146-2.313,0.417-4.625,0.418-6.938
		c0.021-128.318,0.018-256.638,0.018-384.957c0-2.294,0-4.588,0-7.142c48.023,0,95.444,0,143.474,0c0,2.355,0,4.47,0,6.584
		c0,128.652,0,257.305,0.004,385.957c0,2.165,0.056,4.331,0.086,6.496C110.997,486,62.997,486,14.997,486z M138.043,107.446
		c-34.343,0-68.068,0-101.782,0c0,119.449,0,238.523,0,357.804c34.03,0,67.781,0,101.782,0
		C138.043,345.861,138.043,226.78,138.043,107.446z"/>
	<path display="inline" fill-rule="evenodd" clip-rule="evenodd" d="M178.997,486c0.075-2.16,0.215-4.32,0.215-6.48
		c0.011-84.132,0.009-168.265,0.009-252.396c0-2.144,0-4.287,0-6.859c47.864,0,95.381,0,143.551,0c0,2.138,0,4.249,0,6.359
		c0,84.299,0,168.598,0.01,252.896c0,2.16,0.141,4.32,0.215,6.48C274.996,486,226.997,486,178.997,486z M200.184,240.427
		c0,75.006,0,149.753,0,224.677c33.949,0,67.792,0,101.507,0c0-75.174,0-149.894,0-224.677
		C267.676,240.427,234.08,240.427,200.184,240.427z"/>
	<path display="inline" fill-rule="evenodd" clip-rule="evenodd" d="M342.996,486c0-50.938,0-101.877,0-153.238
		c47.875,0,95.367,0,143.564,0c0,2.064,0,4.003,0,5.941c0,46.955-0.006,93.909,0.018,140.864c0.002,2.145,0.273,4.288,0.418,6.433
		C438.996,486,390.996,486,342.996,486z M364.137,353.11c0,37.682,0,74.862,0,112.071c34.152,0,67.865,0,101.498,0
		c0-37.59,0-74.802,0-112.071C431.658,353.11,398.055,353.11,364.137,353.11z"/>
	<path display="inline" fill-rule="evenodd" clip-rule="evenodd" d="M476.189,203.581c0-9.614,0-19.229,0-28.844
		c0-11.496-0.354-23.01,0.211-34.479c0.178-3.578,2.021-7.866,4.549-10.365c4.564-4.514,12.965-1.563,14.912,4.66
		c0.588,1.876,0.926,3.912,0.93,5.875c0.055,32.155,0.039,64.312,0.029,96.467c0,0.813-0.102,1.628-0.18,2.798
		c-1.355,0.166-2.611,0.452-3.867,0.453c-32.154,0.016-64.311,0.035-96.465-0.029c-8.916-0.018-14.059-6.396-11.189-13.768
		c2.068-5.317,6.57-6.536,11.744-6.528c19.492,0.031,38.986,0.012,58.479,0.011c1.627,0,3.254,0,6.182,0
		c-2.023-2.175-3.256-3.585-4.576-4.906c-56.543-56.557-113.094-113.104-169.643-169.657c-5.531-5.532-6.732-9.843-4.1-14.507
		c2.875-5.09,8.652-6.829,13.67-3.84c2.107,1.256,3.988,2.985,5.738,4.733c56.104,56.054,112.18,112.133,168.234,168.232
		c1.395,1.395,2.498,3.078,3.738,4.627C475.119,204.203,475.654,203.893,476.189,203.581z"/>
	<path fill-rule="evenodd" clip-rule="evenodd" fill="#FFFFFF" d="M144.043,126.446c0,119.334,0,238.415,0,357.804
		c-34.001,0-67.752,0-101.782,0c0-119.28,0-238.354,0-357.804C75.975,126.446,109.7,126.446,144.043,126.446z"/>
	<path fill-rule="evenodd" clip-rule="evenodd" fill="#FFFFFF" d="M206.184,259.427c33.896,0,67.492,0,101.507,0
		c0,74.783,0,149.503,0,224.677c-33.715,0-67.558,0-101.507,0C206.184,409.18,206.184,334.433,206.184,259.427z"/>
	<path fill-rule="evenodd" clip-rule="evenodd" fill="#FFFFFF" d="M370.137,372.11c33.918,0,67.521,0,101.498,0
		c0,37.27,0,74.481,0,112.071c-33.633,0-67.346,0-101.498,0C370.137,446.973,370.137,409.792,370.137,372.11z"/>
</g>
<g display="none">
	<path fill-rule="evenodd" clip-rule="evenodd" fill="#FFFFFF" d="M513.5,323.5c0,63.315,0,126.631,0,189.974
		c-170.935,0-341.868,0-512.901,0c0-170.859,0-341.746,0-512.803c170.901,0,341.901,0,512.901,0c0,15.838,0,31.834,0,47.829
		c-0.362-0.724-0.789-1.423-1.076-2.176c-3.849-10.098-13.145-15.579-23.287-13.71c-9.89,1.822-16.533,10.664-16.684,21.383
		c-0.031,2.227-1.518,4.983-3.208,6.556c-32.337,30.065-64.836,59.956-97.201,89.991c-3.537,3.282-6.743,6.02-12.132,4.854
		c-2.247-0.486-4.844,0.886-7.307,1.068c-1.801,0.134-3.987,0.286-5.416-0.56c-22.056-13.067-44.047-26.244-65.934-39.59
		c-1.675-1.021-3.171-3.365-3.541-5.322c-1.961-10.37-11.08-17.979-21.264-17.305c-10.563,0.697-18.502,8.856-19.337,19.413
		c-0.171,2.163-1.129,4.936-2.708,6.216c-22.766,18.473-45.664,36.785-68.672,54.956c-1.659,1.31-4.541,1.986-6.65,1.654
		c-10.723-1.685-20.321,4.231-23.74,14.58c-0.71,2.149-2.748,4.517-4.788,5.471c-30.588,14.313-61.295,28.373-91.922,42.604
		c-3.043,1.414-5.433,1.744-8.763,0.234c-10.599-4.803-23.025,0.764-27.054,11.604c-3.98,10.707,1.64,22.547,12.484,26.301
		c11.064,3.83,22.894-2.107,26.104-13.454c0.877-3.098,2.441-4.631,5.239-5.913c30.701-14.069,61.354-28.243,91.982-42.473
		c2.868-1.332,5.176-1.695,8.35-0.253c13.045,5.93,27.911-3.254,28.376-17.534c0.114-3.491,1.456-5.357,3.94-7.332
		c22.302-17.722,44.547-35.516,66.741-53.373c2.459-1.979,4.539-3.072,8.02-2.279c3.065,0.698,6.524-0.521,9.813-0.554
		c2.438-0.024,5.32-0.251,7.256,0.888c21.521,12.658,42.877,25.602,64.341,38.359c2.622,1.559,3.886,3.294,4.442,6.466
		c1.886,10.75,11.434,17.63,22.118,16.51c10.476-1.098,18.541-9.687,18.204-20.243c-0.124-3.875,1.325-6.07,3.9-8.438
		c30.904-28.425,61.739-56.924,92.59-85.407c5.238-4.837,9.714-9.728,18.463-9.118c9.557,0.666,14.658-7.012,18.318-15.073
		c0,85.667,0,171.333,0,257c-0.378-0.701-0.831-1.372-1.123-2.107c-3.93-9.88-13.233-15.414-22.909-13.604
		c-10.264,1.92-16.836,10.6-17.008,21.614c-0.034,2.213-1.624,4.925-3.33,6.51c-33.078,30.729-66.282,61.324-99.455,91.951
		c-4.466,4.122-14.279,3.96-18.592-0.351c-23.213-23.205-46.39-46.445-69.673-69.579c-2.619-2.603-3.991-4.964-3.745-9.004
		c0.69-11.339-8.237-20.495-19.579-20.894c-10.984-0.387-20.331,8.09-20.756,19.235c-0.119,3.124-1.022,5.12-3.48,7.068
		c-22.713,18.003-45.292,36.176-68.023,54.155c-1.578,1.248-4.18,2.128-6.108,1.843c-7.246-1.074-13.492,0.466-18.988,5.368
		c-0.968,0.863-2.634,1.634-3.828,1.453c-30.935-4.681-61.856-9.456-92.752-14.388c-1.633-0.261-3.508-1.722-4.448-3.161
		c-6.859-10.503-19.711-13.377-29.516-6.398C0.66,390.994-1.3,404.226,5.868,413.365c7.5,9.563,20.33,10.531,30.125,2.441
		c1.207-0.997,3.221-1.794,4.695-1.573c30.448,4.564,60.881,9.233,91.282,14.105c2.058,0.329,4.421,2.007,5.64,3.757
		c5.307,7.619,14.012,11.284,22.614,9.025c8.843-2.323,14.712-9.983,15.414-19.345c0.158-2.106,1.452-4.713,3.08-6.034
		c20.301-16.484,40.823-32.695,61.136-49.164c5.551-4.5,10.533-9.023,18.753-7.132c2.962,0.682,5.459,0.94,7.734,3.23
		c23.14,23.277,46.337,46.497,69.633,69.618c2.662,2.642,3.869,5.09,3.666,9.049c-0.588,11.432,8.835,20.905,20.172,20.982
		c11.036,0.076,20.668-9.129,20.397-20.319c-0.098-4.08,1.401-6.371,4.104-8.856c32.743-30.11,65.431-60.281,98.069-90.504
		c2.781-2.575,5.209-4.387,9.518-3.509c2.851,0.581,6.263-0.518,9.18-1.553C507.718,335.23,510.757,329.436,513.5,323.5z"/>
	<path display="inline" fill-rule="evenodd" clip-rule="evenodd" d="M509.44,330.738c-2.716,5.875-5.725,11.613-12.296,13.943
		c-2.888,1.025-6.266,2.113-9.088,1.537c-4.266-0.869-6.669,0.924-9.423,3.475c-32.312,29.92-64.673,59.789-97.088,89.598
		c-2.676,2.461-4.159,4.729-4.063,8.768c0.268,11.08-9.269,20.193-20.194,20.117c-11.223-0.076-20.552-9.455-19.97-20.773
		c0.201-3.918-0.993-6.342-3.63-8.957c-23.063-22.891-46.027-45.879-68.936-68.922c-2.253-2.268-4.725-2.523-7.657-3.199
		c-8.138-1.873-13.07,2.605-18.565,7.061c-20.11,16.305-40.427,32.354-60.525,48.672c-1.612,1.309-2.893,3.889-3.049,5.975
		c-0.695,9.268-6.505,16.852-15.26,19.152c-8.516,2.234-17.134-1.393-22.388-8.936c-1.206-1.732-3.546-3.395-5.583-3.721
		c-30.096-4.822-60.225-9.445-90.369-13.963c-1.459-0.219-3.454,0.57-4.648,1.557c-9.698,8.01-22.4,7.051-29.824-2.416
		c-7.097-9.049-5.156-22.148,4.275-28.861c9.706-6.908,22.43-4.064,29.221,6.334c0.93,1.426,2.787,2.871,4.404,3.129
		c30.587,4.883,61.199,9.611,91.824,14.244c1.182,0.18,2.831-0.584,3.79-1.438c5.441-4.854,11.624-6.379,18.798-5.314
		c1.908,0.281,4.484-0.59,6.047-1.824c22.504-17.801,44.857-35.791,67.343-53.615c2.433-1.928,3.328-3.904,3.445-6.996
		c0.422-11.035,9.675-19.427,20.549-19.044c11.229,0.395,20.066,9.46,19.383,20.685c-0.243,4,1.115,6.338,3.709,8.914
		c23.05,22.902,45.994,45.91,68.976,68.883c4.27,4.268,13.984,4.428,18.405,0.348c32.842-30.32,65.714-60.609,98.461-91.031
		c1.689-1.569,3.263-4.254,3.297-6.445c0.17-10.904,6.677-19.497,16.838-21.398c9.579-1.792,18.789,3.688,22.68,13.468
		c0.289,0.728,0.738,1.393,1.112,2.087C509.44,324.798,509.44,327.768,509.44,330.738z"/>
	<path display="inline" fill-rule="evenodd" clip-rule="evenodd" d="M509.44,67.398c-3.624,7.981-8.675,15.582-18.136,14.922
		c-8.661-0.604-13.092,4.238-18.278,9.027c-30.542,28.199-61.068,56.413-91.664,84.553c-2.549,2.345-3.983,4.518-3.861,8.354
		c0.334,10.451-7.65,18.954-18.021,20.041c-10.578,1.109-20.03-5.702-21.897-16.345c-0.551-3.14-1.802-4.858-4.397-6.401
		c-21.249-12.63-42.392-25.444-63.698-37.976c-1.916-1.127-4.77-0.903-7.183-0.879c-3.257,0.032-6.681,1.239-9.715,0.548
		c-3.446-0.785-5.504,0.298-7.939,2.256c-21.972,17.679-43.995,35.295-66.074,52.839c-2.46,1.955-3.789,3.802-3.901,7.259
		c-0.46,14.137-15.178,23.229-28.092,17.359c-3.142-1.428-5.427-1.068-8.267,0.25c-30.321,14.087-60.668,28.12-91.062,42.048
		c-2.77,1.269-4.319,2.787-5.187,5.854c-3.179,11.232-14.89,17.111-25.844,13.318C5.488,280.712-0.076,268.99,3.864,258.391
		c3.989-10.731,16.29-16.242,26.783-11.488c3.297,1.495,5.663,1.168,8.676-0.232c30.32-14.088,60.72-28.007,91.002-42.177
		c2.02-0.945,4.038-3.288,4.74-5.416c3.385-10.245,12.887-16.102,23.503-14.435c2.088,0.329,4.941-0.341,6.583-1.638
		c22.778-17.989,45.446-36.119,67.985-54.406c1.563-1.268,2.511-4.012,2.681-6.154c0.827-10.451,8.686-18.529,19.144-19.219
		c10.082-0.667,19.11,6.865,21.051,17.132c0.366,1.938,1.848,4.258,3.506,5.269c21.667,13.212,43.438,26.257,65.274,39.194
		c1.414,0.837,3.579,0.687,5.361,0.554c2.438-0.181,5.009-1.539,7.233-1.058c5.335,1.153,8.509-1.557,12.011-4.806
		c32.042-29.735,64.216-59.327,96.229-89.091c1.674-1.557,3.145-4.286,3.176-6.49c0.148-10.611,6.726-19.365,16.517-21.169
		c10.041-1.85,19.244,3.576,23.055,13.573c0.284,0.745,0.706,1.438,1.065,2.154C509.44,61.458,509.44,64.428,509.44,67.398z"/>
</g>
</svg>
