<?xml version="1.0" encoding="utf-8"?>
<!-- Generator: Adobe Illustrator 16.0.0, SVG Export Plug-In . SVG Version: 6.00 Build 0)  -->
<!DOCTYPE svg PUBLIC "-//W3C//DTD SVG 1.1//EN" "http://www.w3.org/Graphics/SVG/1.1/DTD/svg11.dtd">
<svg version="1.1" id="Layer_1" xmlns="http://www.w3.org/2000/svg" xmlns:xlink="http://www.w3.org/1999/xlink" x="0px" y="0px"
	 width="512px" height="512px" viewBox="0 0 512 512" enable-background="new 0 0 512 512" xml:space="preserve">
<g>
	<line fill="none" stroke="#B35047" x1="32" y1="0" x2="32" y2="512"/>
	<line fill="none" stroke="#B35047" x1="64" y1="0" x2="64" y2="512"/>
	<line fill="none" stroke="#B35047" x1="96" y1="0" x2="96" y2="512"/>
	<line fill="none" stroke="#B35047" x1="128" y1="0" x2="128" y2="512"/>
	<line fill="none" stroke="#B35047" x1="160" y1="0" x2="160" y2="512"/>
	<line fill="none" stroke="#B35047" x1="192" y1="0" x2="192" y2="512"/>
	<line fill="none" stroke="#B35047" x1="224" y1="0" x2="224" y2="512"/>
	<line fill="none" stroke="#B35047" x1="256" y1="0" x2="256" y2="512"/>
	<line fill="none" stroke="#B35047" x1="288" y1="0" x2="288" y2="512"/>
	<line fill="none" stroke="#B35047" x1="320" y1="0" x2="320" y2="512"/>
	<line fill="none" stroke="#B35047" x1="352" y1="0" x2="352" y2="512"/>
	<line fill="none" stroke="#B35047" x1="384" y1="0" x2="384" y2="512"/>
	<line fill="none" stroke="#B35047" x1="416" y1="0" x2="416" y2="512"/>
	<line fill="none" stroke="#B35047" x1="448" y1="0" x2="448" y2="512"/>
	<line fill="none" stroke="#B35047" x1="480" y1="0" x2="480" y2="512"/>
	<line fill="none" stroke="#B35047" x1="0" y1="32" x2="512" y2="32"/>
	<line fill="none" stroke="#B35047" x1="0" y1="64" x2="512" y2="64"/>
	<line fill="none" stroke="#B35047" x1="0" y1="96" x2="512" y2="96"/>
	<line fill="none" stroke="#B35047" x1="0" y1="128" x2="512" y2="128"/>
	<line fill="none" stroke="#B35047" x1="0" y1="160" x2="512" y2="160"/>
	<line fill="none" stroke="#B35047" x1="0" y1="192" x2="512" y2="192"/>
	<line fill="none" stroke="#B35047" x1="0" y1="224" x2="512" y2="224"/>
	<line fill="none" stroke="#B35047" x1="0" y1="256" x2="512" y2="256"/>
	<line fill="none" stroke="#B35047" x1="0" y1="288" x2="512" y2="288"/>
	<line fill="none" stroke="#B35047" x1="0" y1="320" x2="512" y2="320"/>
	<line fill="none" stroke="#B35047" x1="0" y1="352" x2="512" y2="352"/>
	<line fill="none" stroke="#B35047" x1="0" y1="384" x2="512" y2="384"/>
	<line fill="none" stroke="#B35047" x1="0" y1="416" x2="512" y2="416"/>
	<line fill="none" stroke="#B35047" x1="0" y1="448" x2="512" y2="448"/>
	<line fill="none" stroke="#B35047" x1="0" y1="480" x2="512" y2="480"/>
	<rect fill="none" stroke="#B35047" width="512" height="512"/>
</g>
<g>
	<path fill-rule="evenodd" clip-rule="evenodd" d="M393.301,497.699c-107.35,0-214.7,0-322.049,0
		c-18.427-5.824-24.03-18.941-23.977-37.465c0.393-134.885,0.211-269.771,0.212-404.657c0-2.216-0.061-4.436,0.046-6.648
		c0.693-14.315,6.578-25.591,19.508-32.517c7.423-3.976,15.501-5.142,23.864-5.139c107.814,0.039,215.628,0.021,323.441,0.031
		c19.831,0,31.997,12.132,32.04,31.929c0.033,14.565-0.067,29.132,0.111,43.694c0.02,1.661,1.016,4.141,2.31,4.826
		c11.72,6.207,17.087,15.85,16.915,28.986c-0.166,12.822-0.205,25.65,0.021,38.469c0.174,9.828-0.295,19.354-7.505,27.252
		c6.383,7.057,7.668,15.287,7.508,24.104c-0.229,12.662-0.248,25.334,0.005,37.994c0.186,9.266-0.835,18.028-7.522,25.384
		c6.395,7.184,7.713,15.549,7.527,24.536c-0.266,12.818-0.26,25.649-0.002,38.468c0.181,8.98-1.111,17.354-7.523,24.572
		c6.852,7.475,7.687,16.443,7.519,25.846c-0.24,13.453-0.006,26.913-0.076,40.37c-0.099,18.983-12.259,30.983-31.331,31.026
		c-5.637,0.013-11.275,0.002-17.278,0.002c0,3.924,0.127,7.229-0.023,10.523c-0.472,10.393-5.146,18.489-13.94,23.976
		C400.084,495.145,396.582,496.242,393.301,497.699z M66.873,82.344c0,2.521,0,4.22,0,5.919c0,125.228-0.001,250.456,0.011,375.682
		c0,1.895,0.009,3.814,0.293,5.679c0.726,4.778,3.497,7.692,8.352,8.334c2.03,0.269,4.102,0.308,6.154,0.308
		c100.372,0.014,200.745,0.016,301.116-0.002c2.211,0,4.446-0.041,6.625-0.365c4.41-0.656,7.097-3.348,7.878-7.698
		c0.387-2.161,0.407-4.407,0.407-6.614c0.018-119.846,0.018-239.69,0.003-359.535c-0.001-2.209,0.007-4.452-0.351-6.62
		c-0.795-4.846-4.121-7.796-9.047-8.193c-1.889-0.151-3.797-0.083-5.696-0.083c-94.356-0.003-188.712-0.017-283.068,0.017
		C88.504,89.175,77.795,87.729,66.873,82.344z M426.612,89.008c0-16.885,0.165-33.321-0.105-49.749
		c-0.075-4.588-3.282-7.428-7.888-8.156c-2.174-0.343-4.413-0.369-6.623-0.369c-106.232-0.017-212.466-0.018-318.699,0.002
		c-2.844,0.001-5.701,0.119-8.532,0.395c-9.605,0.937-16.278,6.66-17.336,14.737c-1.362,10.398,2.325,17.55,12.348,20.641
		c6.664,2.056,13.935,2.966,20.937,2.98c94.042,0.187,188.083,0.218,282.126,0.03c15.119-0.03,26.477,5.088,32.681,19.488
		C419.083,89.008,422.536,89.008,426.612,89.008z M417.449,108.698c0,22.932,0,45.289,0,67.9c6.338,0,12.332,0.069,18.322-0.02
		c6.26-0.092,10.389-3.615,10.479-9.817c0.235-16.117,0.22-32.243-0.009-48.36c-0.08-5.693-3.574-9.283-9.157-9.615
		C430.66,108.403,424.195,108.698,417.449,108.698z M417.328,439.068c7.08,0,13.855,0.334,20.58-0.11
		c4.967-0.327,8.256-4.032,8.324-9.341c0.213-16.27,0.202-32.547-0.014-48.816c-0.064-4.947-3.567-8.992-7.967-9.242
		c-6.881-0.393-13.799-0.104-20.924-0.104C417.328,394.08,417.328,416.307,417.328,439.068z M417.283,264.027
		c6.496,0,12.487,0.043,18.478-0.012c6.326-0.061,10.396-3.451,10.491-9.713c0.24-16.117,0.168-32.241,0.009-48.36
		c-0.044-4.484-2.394-8.616-6.875-9.079c-7.269-0.751-14.671-0.202-22.103-0.202C417.283,219.259,417.283,241.336,417.283,264.027z
		 M417.278,351.151c0.947,0.159,1.405,0.303,1.864,0.305c5.69,0.02,11.381,0.083,17.069,0.005c6.025-0.08,9.95-3.465,10.04-9.598
		c0.238-16.117,0.177-32.24,0.009-48.357c-0.049-4.707-2.609-8.766-7.324-9.236c-7.122-0.711-14.368-0.186-21.658-0.186
		C417.278,306.688,417.278,328.764,417.278,351.151z"/>
	<path display="none" fill-rule="evenodd" clip-rule="evenodd" fill="#FFFFFF" d="M406.5,513.5c3.453-1.533,7.14-2.689,10.313-4.67
		c9.259-5.775,14.178-14.298,14.675-25.238c0.158-3.467,0.024-6.946,0.024-11.076c6.319,0,12.254,0.011,18.188-0.002
		c20.076-0.046,32.875-12.678,32.979-32.66c0.074-14.165-0.173-28.334,0.08-42.494c0.177-9.897-0.702-19.338-7.914-27.207
		c6.75-7.599,8.109-16.412,7.919-25.864c-0.271-13.493-0.277-27,0.002-40.493c0.195-9.461-1.192-18.266-7.924-25.828
		c7.04-7.743,8.114-16.966,7.919-26.72c-0.266-13.326-0.245-26.665-0.005-39.993c0.168-9.282-1.184-17.945-7.902-25.373
		c7.589-8.313,8.082-18.342,7.899-28.687c-0.238-13.494-0.197-26.997-0.021-40.494c0.181-13.827-5.47-23.979-17.806-30.512
		c-1.361-0.722-2.41-3.332-2.432-5.08c-0.188-15.329-0.082-30.662-0.116-45.994c-0.045-20.839-12.853-33.608-33.727-33.609
		C315.165,1.495,201.677,1.514,88.188,1.473c-8.803-0.003-17.306,1.224-25.12,5.409c-13.611,7.291-19.805,19.16-20.535,34.229
		c-0.113,2.328-0.048,4.665-0.049,6.998c-0.001,141.985,0.189,283.971-0.224,425.955c-0.057,19.498,5.842,33.306,25.238,39.437
		c-22.327,0-44.654,0-66.985,0C0.51,342.557,0.51,171.612,0.51,0.585c170.884,0,341.777,0,512.831,0c0,170.915,0,341.915,0,512.915
		C477.813,513.5,442.156,513.5,406.5,513.5z"/>
	<path display="none" fill-rule="evenodd" clip-rule="evenodd" fill="#FFFFFF" d="M62.891,76.284
		c11.498,5.668,22.77,7.19,34.398,7.187c99.322-0.035,198.644-0.021,297.966-0.018c1.999,0,4.008-0.071,5.996,0.088
		c5.185,0.418,8.687,3.523,9.523,8.624c0.375,2.282,0.367,4.644,0.368,6.969c0.016,126.152,0.016,252.305-0.003,378.458
		c0,2.323-0.021,4.688-0.429,6.962c-0.822,4.58-3.65,7.412-8.293,8.104c-2.293,0.342-4.646,0.385-6.973,0.385
		c-105.654,0.018-211.31,0.017-316.964,0.002c-2.161,0-4.341-0.041-6.479-0.324c-5.11-0.676-8.028-3.742-8.792-8.772
		c-0.298-1.963-0.308-3.983-0.308-5.978c-0.013-131.818-0.012-263.637-0.012-395.455C62.891,80.727,62.891,78.938,62.891,76.284z
		 M263.184,322.514c5.213,4.177,9.641,9.247,15.217,11.909c16.958,8.096,37.579-0.352,45.129-17.578
		c5.585-12.744,6.408-26.115,5.018-39.658c-3.192-31.075-17.444-55.384-45.441-70.223c-22.918-12.146-47.425-13.627-72.353-7.509
		c-22.858,5.609-40.79,18.392-52.931,38.738c-11.074,18.556-14.528,38.878-12.317,60.095c3.514,33.711,19.481,59.445,51.26,72.907
		c29.996,12.706,60.47,10.786,90.354-1.474c9.342-3.832,8.636-2.6,4.893-12.557c-1.238-3.296-2.766-4.584-6.301-2.862
		c-14.664,7.14-30.389,9.636-46.499,9.882c-21.05,0.32-40.281-4.927-55.869-19.917c-13.072-12.572-19.375-28.4-21.26-46.172
		c-2.022-19.06,0.681-37.307,10.782-53.838c10.474-17.142,26.117-27.265,45.724-31.021c22.744-4.357,44.764-2.344,64.017,11.477
		c25.053,17.982,31.977,43.907,29.158,73.197c-0.512,5.317-2.425,10.734-4.772,15.582c-3.149,6.503-10.374,9.579-17.198,8.486
		c-7.457-1.194-11.875-5.677-13.426-12.911c-0.621-2.897-0.848-5.928-0.86-8.899c-0.077-17.328,0.03-34.659-0.141-51.986
		c-0.018-1.787-1.274-4.969-2.265-5.096c-4.074-0.521-8.469-0.797-12.303,0.337c-1.288,0.382-1.244,5.223-1.856,8.015
		c-0.05,0.229-0.46,0.38-1.284,1.015c-0.283-0.519-0.509-1.202-0.949-1.693c-9.762-10.89-22.269-11.889-35.347-8.982
		c-11.982,2.664-19.487,10.946-22.428,22.534c-4.115,16.208-4.017,32.726-0.022,48.961c2.323,9.439,8.069,16.746,17.276,20.777
		C233.298,341.539,252.712,336.45,263.184,322.514z"/>
	<path display="none" fill-rule="evenodd" clip-rule="evenodd" fill="#FFFFFF" d="M441.564,83.299c-4.291,0-7.926,0-11.676,0
		c-6.531-15.158-18.485-20.546-34.4-20.514c-98.992,0.197-197.984,0.164-296.976-0.032c-7.371-0.015-15.024-0.973-22.039-3.137
		c-10.55-3.254-14.432-10.782-12.998-21.728c1.114-8.503,8.139-14.526,18.249-15.513c2.979-0.291,5.987-0.415,8.981-0.416
		c111.824-0.021,223.648-0.02,335.473-0.002c2.326,0,4.684,0.027,6.972,0.389c4.849,0.766,8.224,3.755,8.303,8.585
		C441.737,48.225,441.564,65.525,441.564,83.299z"/>
	<path display="none" fill-rule="evenodd" clip-rule="evenodd" fill="#FFFFFF" d="M431.919,104.024
		c7.101,0,13.906-0.31,20.669,0.093c5.877,0.35,9.555,4.129,9.64,10.121c0.24,16.966,0.257,33.94,0.009,50.905
		c-0.096,6.529-4.441,10.237-11.031,10.334c-6.306,0.094-12.614,0.021-19.286,0.021
		C431.919,151.697,431.919,128.163,431.919,104.024z"/>
	<path display="none" fill-rule="evenodd" clip-rule="evenodd" fill="#FFFFFF" d="M431.792,451.783c0-23.96,0-47.355,0-71.173
		c7.499,0,14.782-0.303,22.024,0.109c4.631,0.264,8.318,4.521,8.387,9.729c0.227,17.126,0.238,34.26,0.015,51.386
		c-0.073,5.587-3.535,9.487-8.764,9.832C446.376,452.135,439.244,451.783,431.792,451.783z"/>
	<path display="none" fill-rule="evenodd" clip-rule="evenodd" fill="#FFFFFF" d="M431.744,267.529c0-23.885,0-47.124,0-70.911
		c7.822,0,15.614-0.578,23.266,0.213c4.718,0.487,7.19,4.837,7.237,9.557c0.167,16.968,0.244,33.94-0.01,50.905
		c-0.1,6.591-4.384,10.161-11.043,10.224C444.889,267.575,438.582,267.529,431.744,267.529z"/>
	<path display="none" fill-rule="evenodd" clip-rule="evenodd" fill="#FFFFFF" d="M431.739,359.239c0-23.566,0-46.805,0-70.598
		c7.673,0,15.301-0.553,22.798,0.195c4.963,0.496,7.658,4.768,7.71,9.723c0.177,16.966,0.241,33.938-0.009,50.902
		c-0.095,6.455-4.227,10.019-10.569,10.104c-5.988,0.081-11.978,0.015-17.967-0.006
		C433.219,359.558,432.736,359.407,431.739,359.239z"/>
	<path fill-rule="evenodd" clip-rule="evenodd" d="M257.15,316.262c-9.948,13.24-28.391,18.074-44.646,10.959
		c-8.747-3.83-14.206-10.771-16.412-19.738c-3.795-15.424-3.888-31.115,0.021-46.514c2.794-11.008,9.923-18.876,21.307-21.407
		c12.424-2.761,24.305-1.812,33.58,8.533c0.418,0.467,0.633,1.116,0.901,1.609c0.783-0.603,1.173-0.746,1.22-0.964
		c0.582-2.652,0.541-7.251,1.764-7.614c3.643-1.077,7.817-0.815,11.688-0.32c0.941,0.121,2.135,3.143,2.152,4.841
		c0.162,16.46,0.061,32.925,0.133,49.386c0.012,2.824,0.228,5.703,0.818,8.455c1.473,6.873,5.67,11.131,12.754,12.266
		c6.482,1.038,13.346-1.885,16.338-8.063c2.23-4.605,4.048-9.751,4.534-14.803c2.677-27.825-3.9-52.454-27.7-69.537
		c-18.291-13.129-39.209-15.042-60.816-10.903c-18.627,3.569-33.488,13.186-43.438,29.471c-9.596,15.705-12.164,33.04-10.243,51.146
		c1.792,16.883,7.779,31.919,20.197,43.863c14.808,14.241,33.078,19.226,53.075,18.921c15.305-0.234,30.244-2.605,44.174-9.388
		c3.358-1.636,4.81-0.412,5.985,2.72c3.557,9.459,4.227,8.287-4.647,11.928c-28.391,11.647-57.341,13.471-85.837,1.4
		c-30.189-12.789-45.359-37.236-48.697-69.262c-2.101-20.156,1.181-39.463,11.701-57.09c11.534-19.33,28.568-31.473,50.284-36.802
		c23.682-5.812,46.963-4.406,68.735,7.134c26.598,14.097,40.137,37.19,43.17,66.711c1.32,12.866,0.539,25.568-4.768,37.676
		c-7.172,16.365-26.762,24.391-42.872,16.699C266.309,325.047,262.104,320.23,257.15,316.262z M253.598,284.302
		c-0.583-5.197-0.834-10.437-1.814-15.534c-1.914-9.938-8.485-15.016-19.637-15.742c-10.022-0.653-17.873,4.056-20.519,13.304
		c-3.366,11.766-3.336,23.818-0.086,35.598c2.629,9.533,10.371,14.014,21.363,13.391c10.246-0.58,17.005-5.922,18.852-15.464
		C252.742,294.758,253.004,289.52,253.598,284.302z"/>
	<path display="none" fill-rule="evenodd" clip-rule="evenodd" fill="#FFFFFF" d="M259.444,288.871
		c-0.626,5.492-0.901,11.006-1.939,16.371c-1.944,10.044-9.059,15.668-19.844,16.278c-11.57,0.655-19.719-4.062-22.487-14.096
		c-3.42-12.399-3.452-25.087,0.091-37.472c2.785-9.734,11.048-14.691,21.598-14.004c11.739,0.765,18.655,6.108,20.67,16.57
		C258.566,277.886,258.83,283.4,259.444,288.871z"/>
</g>
</svg>
