<?xml version="1.0" encoding="utf-8"?>
<!-- Generator: Adobe Illustrator 16.0.0, SVG Export Plug-In . SVG Version: 6.00 Build 0)  -->
<!DOCTYPE svg PUBLIC "-//W3C//DTD SVG 1.1//EN" "http://www.w3.org/Graphics/SVG/1.1/DTD/svg11.dtd">
<svg version="1.1" id="Layer_1" xmlns="http://www.w3.org/2000/svg" xmlns:xlink="http://www.w3.org/1999/xlink" x="0px" y="0px"
	 width="512px" height="512px" viewBox="0 0 512 512" enable-background="new 0 0 512 512" xml:space="preserve">
<g>
	<line fill="none" stroke="#B35047" x1="32" y1="0" x2="32" y2="512"/>
	<line fill="none" stroke="#B35047" x1="64" y1="0" x2="64" y2="512"/>
	<line fill="none" stroke="#B35047" x1="96" y1="0" x2="96" y2="512"/>
	<line fill="none" stroke="#B35047" x1="128" y1="0" x2="128" y2="512"/>
	<line fill="none" stroke="#B35047" x1="160" y1="0" x2="160" y2="512"/>
	<line fill="none" stroke="#B35047" x1="192" y1="0" x2="192" y2="512"/>
	<line fill="none" stroke="#B35047" x1="224" y1="0" x2="224" y2="512"/>
	<line fill="none" stroke="#B35047" x1="256" y1="0" x2="256" y2="512"/>
	<line fill="none" stroke="#B35047" x1="288" y1="0" x2="288" y2="512"/>
	<line fill="none" stroke="#B35047" x1="320" y1="0" x2="320" y2="512"/>
	<line fill="none" stroke="#B35047" x1="352" y1="0" x2="352" y2="512"/>
	<line fill="none" stroke="#B35047" x1="384" y1="0" x2="384" y2="512"/>
	<line fill="none" stroke="#B35047" x1="416" y1="0" x2="416" y2="512"/>
	<line fill="none" stroke="#B35047" x1="448" y1="0" x2="448" y2="512"/>
	<line fill="none" stroke="#B35047" x1="480" y1="0" x2="480" y2="512"/>
	<line fill="none" stroke="#B35047" x1="0" y1="32" x2="512" y2="32"/>
	<line fill="none" stroke="#B35047" x1="0" y1="64" x2="512" y2="64"/>
	<line fill="none" stroke="#B35047" x1="0" y1="96" x2="512" y2="96"/>
	<line fill="none" stroke="#B35047" x1="0" y1="128" x2="512" y2="128"/>
	<line fill="none" stroke="#B35047" x1="0" y1="160" x2="512" y2="160"/>
	<line fill="none" stroke="#B35047" x1="0" y1="192" x2="512" y2="192"/>
	<line fill="none" stroke="#B35047" x1="0" y1="224" x2="512" y2="224"/>
	<line fill="none" stroke="#B35047" x1="0" y1="256" x2="512" y2="256"/>
	<line fill="none" stroke="#B35047" x1="0" y1="288" x2="512" y2="288"/>
	<line fill="none" stroke="#B35047" x1="0" y1="320" x2="512" y2="320"/>
	<line fill="none" stroke="#B35047" x1="0" y1="352" x2="512" y2="352"/>
	<line fill="none" stroke="#B35047" x1="0" y1="384" x2="512" y2="384"/>
	<line fill="none" stroke="#B35047" x1="0" y1="416" x2="512" y2="416"/>
	<line fill="none" stroke="#B35047" x1="0" y1="448" x2="512" y2="448"/>
	<line fill="none" stroke="#B35047" x1="0" y1="480" x2="512" y2="480"/>
	<rect fill="none" stroke="#B35047" width="512" height="512"/>
</g>
<g display="none">
	<path fill-rule="evenodd" clip-rule="evenodd" fill="#FFFFFF" d="M513.5,513.457c-170.93,0-341.859,0-512.894,0
		c0-170.845,0-341.732,0-512.789c170.894,0,341.894,0,512.894,0C513.5,171.497,513.5,342.455,513.5,513.457z M442.105,203.006
		c-1.143-12.578-2.06-26.371-3.767-40.066c-1.025-8.224-2.845-16.414-5.056-24.413c-14.513-52.5-45.916-90.711-96.66-111.676
		c-34.939-14.436-71.514-17.637-108.859-12.893c-30.019,3.813-58.078,13.245-83.01,30.644c-43.019,30.02-63.82,72.868-70.285,123.73
		c-3.066,24.12-2.287,48.223,0.973,72.258c0.555,4.091-0.395,7.022-3.049,10.302c-16.688,20.611-22.825,44.583-18.043,70.271
		c5.718,30.721,26.255,50.756,52.656,65.395c2.814,1.561,4.3,3.429,5.698,6.282c5.909,12.063,11.114,24.703,18.695,35.668
		c22.515,32.563,53.757,54.062,90.733,67.396c14.004,5.05,28.527,9.198,43.492,6.435c12.188-2.251,24.549-5.153,35.928-9.927
		c47.082-19.751,82.946-51.233,101.223-100.303c0.593-1.59,2.396-3.098,4.007-3.884c23.459-11.461,40.938-29.05,50.026-53.364
		c11.604-31.039,4.401-59.499-15.666-85.218c-1.342-1.721-2.299-4.37-2.166-6.508C439.779,230.176,440.952,217.239,442.105,203.006z
		"/>
	<path fill-rule="evenodd" clip-rule="evenodd" d="M442.105,203.006c-1.153,14.233-2.326,27.17-3.131,40.129
		c-0.133,2.138,0.824,4.787,2.166,6.508c20.067,25.719,27.27,54.179,15.666,85.218c-9.089,24.314-26.567,41.903-50.026,53.364
		c-1.61,0.786-3.414,2.294-4.007,3.884c-18.276,49.069-54.141,80.552-101.223,100.303c-11.379,4.773-23.739,7.676-35.928,9.927
		c-14.965,2.764-29.488-1.385-43.492-6.435c-36.976-13.334-68.218-34.832-90.733-67.396c-7.581-10.965-12.787-23.605-18.695-35.668
		c-1.398-2.854-2.884-4.722-5.698-6.282c-26.401-14.639-46.938-34.674-52.656-65.395c-4.781-25.688,1.355-49.66,18.043-70.271
		c2.655-3.279,3.604-6.211,3.049-10.302c-3.26-24.035-4.039-48.138-0.973-72.258c6.465-50.862,27.266-93.711,70.285-123.73
		c24.933-17.398,52.992-26.831,83.01-30.644c37.345-4.744,73.919-1.543,108.859,12.893c50.744,20.965,82.147,59.176,96.66,111.676
		c2.211,7.999,4.03,16.189,5.056,24.413C440.046,176.635,440.963,190.428,442.105,203.006z M421.294,209.981
		c-0.233-26.807-2.132-47.316-7.805-67.341c-10.966-38.707-32.597-69.342-68.172-89.184c-27.589-15.389-57.554-21.24-88.857-21.184
		c-30.107,0.054-58.999,5.848-85.653,20.159c-47.355,25.427-69.869,67.126-76.301,118.906c-3.018,24.298-2.083,48.585,1.929,72.69
		c1.166,6.999,0.001,11.798-5.595,16.838c-17.094,15.396-26.294,54.838-6.372,80.326c10.514,13.45,22.891,24.072,38.664,30.604
		c2.988,1.237,4.566,3.138,5.766,6.195c3.698,9.425,7.015,19.154,12.021,27.883c20.227,35.271,51.125,57.679,88.831,71.257
		c11.791,4.246,24.086,7.729,36.697,4.732c56.282-13.376,97.913-44.394,118.296-100.148c2.036-5.571,5.027-8.56,10.34-10.737
		c20.089-8.232,34.063-22.929,42.705-42.638c9.159-20.888,2.557-51.47-14.762-67.858c-4.419-4.183-5.903-8.066-5.064-14.266
		C419.856,232.21,420.601,218.049,421.294,209.981z"/>
	<path fill-rule="evenodd" clip-rule="evenodd" fill="#FFFFFF" d="M421.294,209.981c-0.693,8.067-1.438,22.229-3.332,36.235
		c-0.839,6.199,0.646,10.083,5.064,14.266c17.318,16.389,23.921,46.971,14.762,67.858c-8.643,19.709-22.616,34.405-42.705,42.638
		c-5.313,2.178-8.304,5.166-10.34,10.737c-20.383,55.755-62.014,86.772-118.296,100.148c-12.61,2.996-24.906-0.486-36.697-4.732
		c-37.706-13.578-68.604-35.986-88.831-71.257c-5.005-8.729-8.323-18.458-12.021-27.883c-1.2-3.058-2.778-4.958-5.766-6.195
		c-15.773-6.531-28.15-17.153-38.664-30.604c-19.923-25.488-10.723-64.931,6.372-80.326c5.596-5.04,6.76-9.839,5.595-16.838
		c-4.012-24.105-4.947-48.393-1.929-72.69c6.433-51.78,28.946-93.479,76.301-118.906c26.654-14.312,55.546-20.105,85.653-20.159
		c31.303-0.057,61.268,5.795,88.857,21.184c35.575,19.842,57.206,50.477,68.172,89.184
		C419.162,162.665,421.061,183.175,421.294,209.981z M349.397,247.652c-61.549,0-122.56,0-183.709,0c0,6.724,0,13.125,0,19.604
		c61.407,0,122.531,0,183.709,0C349.397,260.564,349.397,254.283,349.397,247.652z"/>
	<path display="inline" fill-rule="evenodd" clip-rule="evenodd" d="M447.977,236.967c0,13.859,0,26.986,0,40.975
		c-127.865,0-255.613,0-383.953,0c0-13.543,0-26.922,0-40.975C191.826,236.967,319.338,236.967,447.977,236.967z"/>
</g>
<g display="none">
	<path fill-rule="evenodd" clip-rule="evenodd" fill="#FFFFFF" d="M513.5,513.457c-170.93,0-341.859,0-512.894,0
		c0-170.845,0-341.732,0-512.789c170.894,0,341.894,0,512.894,0C513.5,171.497,513.5,342.455,513.5,513.457z M442.105,202.989
		c-1.144-12.579-2.062-26.373-3.769-40.067c-1.025-8.224-2.846-16.415-5.058-24.413c-14.521-52.498-45.927-90.705-96.674-111.666
		c-34.941-14.432-71.514-17.629-108.859-12.882c-30.019,3.816-58.077,13.247-83.008,30.65
		c-43.014,30.026-63.811,72.876-70.271,123.739c-3.063,24.12-2.288,48.224,0.979,72.257c0.558,4.104-0.423,7.026-3.068,10.297
		c-16.673,20.62-22.82,44.583-18.028,70.277c5.729,30.722,26.27,50.748,52.671,65.384c2.819,1.563,4.289,3.444,5.685,6.293
		c5.912,12.061,11.12,24.7,18.702,35.664c22.517,32.563,53.768,54.043,90.738,67.39c12.556,4.533,25.478,7.938,39.045,6.944
		c22.046-1.612,42.097-9.609,61.128-20.212c37.146-20.693,65.351-49.491,80.314-90.076c0.643-1.743,2.455-3.499,4.168-4.339
		c23.446-11.488,40.929-29.067,50.012-53.386c11.595-31.041,4.386-59.5-15.686-85.216c-1.341-1.718-2.284-4.371-2.151-6.512
		C439.781,230.157,440.952,217.221,442.105,202.989z"/>
	<path fill-rule="evenodd" clip-rule="evenodd" d="M442.105,202.989c-1.153,14.231-2.324,27.168-3.128,40.127
		c-0.133,2.141,0.811,4.794,2.151,6.512c20.071,25.716,27.28,54.175,15.686,85.216c-9.083,24.318-26.565,41.897-50.012,53.386
		c-1.713,0.84-3.525,2.596-4.168,4.339c-14.964,40.585-43.169,69.383-80.314,90.076c-19.031,10.603-39.082,18.6-61.128,20.212
		c-13.567,0.993-26.489-2.411-39.045-6.944c-36.97-13.347-68.221-34.826-90.738-67.39c-7.582-10.964-12.79-23.604-18.702-35.664
		c-1.396-2.849-2.866-4.73-5.685-6.293c-26.401-14.636-46.942-34.662-52.671-65.384c-4.792-25.694,1.355-49.657,18.028-70.277
		c2.645-3.271,3.625-6.193,3.068-10.297c-3.268-24.033-4.043-48.137-0.979-72.257c6.46-50.863,27.257-93.713,70.271-123.739
		c24.931-17.403,52.989-26.834,83.008-30.65c37.346-4.747,73.918-1.55,108.859,12.882c50.747,20.961,82.153,59.168,96.674,111.666
		c2.212,7.998,4.032,16.189,5.058,24.413C440.044,176.616,440.962,190.41,442.105,202.989z M421.275,210.947
		c-0.157-26.461-1.855-46.006-6.912-65.126c-10.758-40.687-33.025-72.814-70.519-93.199c-26.472-14.393-55.157-20.126-85.081-20.348
		c-30.977-0.229-60.717,5.485-88.13,20.249c-47.313,25.479-69.771,67.219-76.146,119.011c-2.991,24.304-2.057,48.589,1.984,72.688
		c1.188,7.083-0.296,11.776-5.776,16.775c-16.969,15.479-26.177,54.838-6.108,80.353c10.223,12.997,22.112,23.511,37.373,29.877
		c4.111,1.715,6.01,4.386,7.557,8.343c3.564,9.114,6.899,18.471,11.77,26.896c20.264,35.048,51.117,57.23,88.643,70.743
		c13.624,4.906,27.653,7.745,42.11,3.642c54.372-15.432,94.796-46.538,113.681-101.641c1.241-3.623,3.185-5.758,6.817-7.072
		c12.474-4.514,22.617-12.371,31.622-22.051c29.213-31.402,18.056-72.791-2.679-91.161c-3.584-3.175-4.229-6.42-3.729-10.916
		C419.371,233.454,420.546,218.85,421.275,210.947z"/>
	<path fill-rule="evenodd" clip-rule="evenodd" fill="#FFFFFF" d="M421.275,210.947c-0.729,7.902-1.904,22.507-3.522,37.062
		c-0.499,4.496,0.146,7.741,3.729,10.916c20.734,18.37,31.892,59.759,2.679,91.161c-9.005,9.68-19.148,17.537-31.622,22.051
		c-3.633,1.314-5.576,3.449-6.817,7.072c-18.885,55.103-59.309,86.209-113.681,101.641c-14.457,4.104-28.486,1.265-42.11-3.642
		c-37.526-13.513-68.379-35.695-88.643-70.743c-4.871-8.425-8.206-17.781-11.77-26.896c-1.547-3.957-3.446-6.628-7.557-8.343
		c-15.261-6.366-27.15-16.88-37.373-29.877c-20.069-25.515-10.861-64.874,6.108-80.353c5.48-4.999,6.964-9.692,5.776-16.775
		c-4.041-24.099-4.975-48.384-1.984-72.688c6.374-51.792,28.833-93.531,76.146-119.011c27.413-14.764,57.153-20.479,88.13-20.249
		c29.924,0.222,58.609,5.955,85.081,20.348c37.493,20.385,59.761,52.513,70.519,93.199
		C419.42,164.941,421.118,184.486,421.275,210.947z M171.366,278.721c26.828,24.253,53.332,48.213,80.209,72.511
		c34.169-53.012,67.969-105.448,101.975-158.204c-5.766-3.733-11.282-7.306-17.177-11.122
		c-29.788,46.184-59.307,91.947-88.972,137.941c-21.108-19.076-41.613-37.607-62.306-56.309
		C180.421,268.707,175.984,273.614,171.366,278.721z"/>
	<path display="inline" fill-rule="evenodd" clip-rule="evenodd" d="M49.367,283.128c10.472-11.581,20.536-22.71,31.134-34.432
		c46.927,42.409,93.427,84.435,141.296,127.695c67.273-104.305,134.216-208.086,201.768-312.82
		c13.367,8.655,25.879,16.755,38.954,25.223c-77.117,119.637-153.769,238.55-231.255,358.77
		C170.31,392.465,110.205,338.128,49.367,283.128z"/>
</g>
<g display="none">
	<path fill-rule="evenodd" clip-rule="evenodd" fill="#FFFFFF" d="M513.5,513.457c-170.93,0-341.859,0-512.894,0
		c0-170.845,0-341.732,0-512.789c170.894,0,341.894,0,512.894,0C513.5,171.497,513.5,342.455,513.5,513.457z M441.484,210.699
		c-0.078-28.658-2.185-50.664-8.148-72.154c-14.563-52.487-45.944-90.708-96.684-111.684
		c-34.937-14.442-71.512-17.643-108.857-12.908c-30.019,3.806-58.079,13.237-83.015,30.63
		c-43.026,30.012-63.835,72.856-70.308,123.718c-3.07,24.119-2.466,48.248,1.084,72.239c0.798,5.396-1.904,8.209-4.471,11.82
		c-18.401,25.894-24.249,54.055-12.219,84.002c9.087,22.624,26.357,38.55,47.661,49.968c3.397,1.821,4.917,4.128,6.516,7.414
		c5.732,11.779,10.917,24.055,18.325,34.745c22.548,32.541,53.757,54.063,90.733,67.403c14.168,5.111,28.853,9.235,43.989,6.409
		c12.023-2.245,24.203-5.161,35.434-9.873c47.083-19.757,82.95-51.229,101.238-100.291c0.594-1.593,2.383-3.112,3.99-3.897
		c23.462-11.457,40.956-29.036,50.039-53.352c11.667-31.234,4.359-59.82-15.96-85.598c-1.247-1.583-2.007-4.11-1.876-6.126
		C439.797,230.208,440.95,217.271,441.484,210.699z"/>
	<path fill-rule="evenodd" clip-rule="evenodd" d="M441.484,210.699c-0.534,6.572-1.688,19.509-2.529,32.466
		c-0.131,2.016,0.629,4.543,1.876,6.126c20.319,25.777,27.627,54.363,15.96,85.598c-9.083,24.315-26.577,41.895-50.039,53.352
		c-1.607,0.785-3.396,2.305-3.99,3.897c-18.288,49.063-54.155,80.534-101.238,100.291c-11.23,4.712-23.41,7.628-35.434,9.873
		c-15.136,2.826-29.82-1.298-43.989-6.409c-36.976-13.34-68.185-34.862-90.733-67.403c-7.408-10.69-12.593-22.966-18.325-34.745
		c-1.599-3.286-3.119-5.593-6.516-7.414c-21.304-11.418-38.573-27.344-47.661-49.968c-12.03-29.947-6.182-58.108,12.219-84.002
		c2.566-3.611,5.269-6.425,4.471-11.82c-3.55-23.991-4.154-48.12-1.084-72.239c6.473-50.861,27.282-93.706,70.308-123.718
		c24.937-17.393,52.997-26.824,83.015-30.63c37.345-4.734,73.92-1.534,108.857,12.908c50.739,20.976,82.12,59.196,96.684,111.684
		C439.3,160.035,441.406,182.041,441.484,210.699z M421.296,210.452c-0.233-27.352-2.143-47.862-7.823-67.882
		c-10.823-38.149-32.036-68.52-66.913-88.415c-27.294-15.569-57.039-21.674-88.173-21.883c-30.798-0.207-60.371,5.539-87.643,20.195
		C123.401,77.909,100.91,119.627,94.5,171.411c-3.008,24.301-2.057,48.584,1.939,72.691c1.159,6.99-0.062,11.777-5.647,16.819
		c-17.061,15.401-26.263,54.831-6.277,80.328c10.419,13.292,22.61,23.907,38.244,30.338c3.384,1.393,5.046,3.601,6.357,6.934
		c3.646,9.267,6.914,18.834,11.841,27.416c20.245,35.264,51.158,57.64,88.857,71.231c13.618,4.91,27.653,7.813,42.108,3.713
		c54.354-15.418,94.85-46.443,113.763-101.556c1.225-3.568,3.028-5.831,6.735-7.155c12.66-4.523,22.92-12.516,31.995-22.362
		c28.916-31.378,17.708-72.566-2.855-90.786c-3.78-3.35-4.274-6.728-3.753-11.386C419.438,233.083,420.567,218.475,421.296,210.452z
		"/>
	<path fill-rule="evenodd" clip-rule="evenodd" fill="#FFFFFF" d="M421.296,210.452c-0.729,8.022-1.858,22.631-3.488,37.185
		c-0.521,4.658-0.027,8.036,3.753,11.386c20.563,18.22,31.771,59.408,2.855,90.786c-9.075,9.847-19.335,17.839-31.995,22.362
		c-3.707,1.324-5.511,3.587-6.735,7.155c-18.913,55.112-59.409,86.138-113.763,101.556c-14.455,4.101-28.49,1.197-42.108-3.713
		c-37.7-13.592-68.613-35.968-88.857-71.231c-4.927-8.582-8.195-18.149-11.841-27.416c-1.311-3.333-2.973-5.541-6.357-6.934
		c-15.633-6.431-27.825-17.046-38.244-30.338c-19.986-25.497-10.783-64.927,6.277-80.328c5.585-5.042,6.806-9.829,5.647-16.819
		c-3.997-24.107-4.948-48.391-1.939-72.691c6.41-51.784,28.901-93.502,76.244-118.943c27.272-14.656,56.845-20.402,87.643-20.195
		c31.134,0.209,60.879,6.313,88.173,21.883c34.877,19.896,56.09,50.266,66.913,88.415
		C419.153,162.59,421.063,183.101,421.296,210.452z M185.683,237.17c-11.29,0.071-20.236,9.066-20.23,20.342
		c0.005,11.273,8.962,20.26,20.253,20.319c11.433,0.061,20.827-9.322,20.615-20.592C206.11,246.037,196.918,237.098,185.683,237.17z
		 M329.136,277.838c11.283,0.024,20.344-8.928,20.412-20.167c0.068-11.3-8.782-20.338-20.071-20.494
		c-11.447-0.16-20.862,9.077-20.797,20.402C308.744,268.731,317.916,277.814,329.136,277.838z M257.557,237.172
		c-11.297-0.031-20.289,8.855-20.385,20.147c-0.096,11.313,8.722,20.347,20.022,20.509c11.495,0.165,20.673-8.906,20.634-20.396
		C277.789,246.14,268.848,237.203,257.557,237.172z"/>
	<path display="inline" fill-rule="evenodd" clip-rule="evenodd" d="M126.787,219.415c20.214-0.13,36.754,15.953,37.131,36.108
		c0.38,20.277-16.521,37.16-37.091,37.05c-20.315-0.107-36.43-16.276-36.439-36.56C90.378,235.729,106.472,219.544,126.787,219.415z
		"/>
	<path display="inline" fill-rule="evenodd" clip-rule="evenodd" d="M384.887,292.584c-20.188-0.043-36.689-16.383-36.805-36.448
		c-0.117-20.377,16.822-36.996,37.418-36.709c20.311,0.282,36.236,16.543,36.113,36.874
		C421.49,276.522,405.188,292.629,384.887,292.584z"/>
	<path display="inline" fill-rule="evenodd" clip-rule="evenodd" d="M256.102,219.419c20.314,0.057,36.402,16.136,36.472,36.451
		c0.07,20.672-16.441,36.996-37.125,36.696c-20.331-0.292-36.198-16.545-36.024-36.899
		C219.598,235.352,235.776,219.362,256.102,219.419z"/>
</g>
<g display="none">
	<path fill-rule="evenodd" clip-rule="evenodd" fill="#FFFFFF" d="M795.592,795.49c-358.951,0-717.902,0-1077.076,0
		c0-358.773,0-717.637,0-1076.857c358.877,0,717.977,0,1077.076,0C795.592,77.375,795.592,436.387,795.592,795.49z M644.361,159.926
		c-0.162-60.117-4.551-106.328-17.047-151.469c-30.631-110.648-96.771-191.076-203.813-235.092
		c-73.084-30.057-149.549-36.715-227.604-26.877c-63.039,7.941-121.984,27.715-174.377,64.207
		C-69.219-126.102-112.971-35.816-126.443,71.42c-6.365,50.666-4.59,101.264,2.145,151.744c1.025,7.688-0.336,13.416-5.588,19.82
		c-35.59,43.371-48.736,94.016-38.809,148.342c11.797,64.561,54.951,106.688,110.326,137.529c6.242,3.477,9.469,7.631,12.535,13.986
		c11.953,24.781,22.654,50.658,38.145,73.15c47.588,69.096,113.693,114.691,192.041,142.91
		c26.027,9.375,52.875,16.375,81.004,14.363c47.781-3.42,91.135-20.961,132.1-44.283c76.557-43.588,134.84-103.684,165.514-187.984
		c1.314-3.607,5.465-7.008,9.129-8.813c49.539-24.412,86.355-61.738,105.051-113.371c23.508-64.928,8.252-124.385-33.982-177.848
		c-2.639-3.342-4.424-8.596-4.15-12.803C640.779,200.955,643.229,173.789,644.361,159.926z"/>
	<path fill-rule="evenodd" clip-rule="evenodd" d="M644.361,159.926c-1.133,13.863-3.582,41.029-5.346,68.238
		c-0.273,4.207,1.512,9.461,4.15,12.803c42.234,53.463,57.49,112.92,33.982,177.848c-18.695,51.633-55.512,88.959-105.051,113.371
		c-3.664,1.805-7.814,5.205-9.129,8.813c-30.674,84.301-88.957,144.396-165.514,187.984c-40.965,23.322-84.318,40.863-132.1,44.283
		c-28.129,2.012-54.977-4.988-81.004-14.363c-78.348-28.219-144.453-73.814-192.041-142.91
		c-15.49-22.492-26.191-48.369-38.145-73.15c-3.066-6.355-6.293-10.51-12.535-13.986c-55.375-30.842-98.529-72.969-110.326-137.529
		c-9.928-54.326,3.219-104.971,38.809-148.342c5.252-6.404,6.613-12.133,5.588-19.82c-6.734-50.48-8.51-101.078-2.145-151.744
		c13.473-107.236,57.225-197.521,147.965-260.725c52.393-36.492,111.338-56.266,174.377-64.207
		c78.055-9.838,154.52-3.18,227.604,26.877C530.543-182.619,596.684-102.191,627.314,8.457
		C639.811,53.598,644.199,99.809,644.361,159.926z M601.959,158.207c-0.49-56.273-4.445-99.352-16.387-141.395
		c-25.084-88.316-75.924-156.121-159.947-195.836c-83.395-39.42-170.906-44.852-260.275-25.912
		c-62.236,13.189-117.529,40.32-162.318,86.471c-59.277,61.084-83.613,136.584-89.58,219.496
		c-3.205,44.541-0.625,88.881,6.824,132.787c2.238,13.188-0.467,22.17-11.035,29.418c-0.854,0.588-1.529,1.434-2.281,2.168
		c-34.445,33.637-53.949,115.025-12.35,168.303c22.064,28.26,48.059,50.564,81.182,64.285c6.264,2.592,9.607,6.557,12.129,12.99
		c7.758,19.793,14.727,40.227,25.236,58.557c42.469,74.07,107.35,121.137,186.529,149.658c24.758,8.92,50.582,16.244,77.061,9.955
		c118.189-28.082,205.631-93.197,248.445-210.285c4.273-11.684,10.533-17.992,21.695-22.564
		c42.188-17.283,71.535-48.141,89.699-89.523c19.242-43.844,5.389-108.104-30.959-142.514c-9.266-8.77-12.445-16.904-10.674-29.947
		C598.947,204.908,600.502,175.168,601.959,158.207z"/>
	<path fill-rule="evenodd" clip-rule="evenodd" fill="#FFFFFF" d="M601.959,158.207c-1.457,16.961-3.012,46.701-7.006,76.111
		c-1.771,13.043,1.408,21.178,10.674,29.947c36.348,34.41,50.201,98.67,30.959,142.514c-18.164,41.383-47.512,72.24-89.699,89.523
		c-11.162,4.572-17.422,10.881-21.695,22.564C482.377,635.955,394.936,701.07,276.746,729.152
		c-26.479,6.289-52.303-1.035-77.061-9.955c-79.18-28.521-144.061-75.588-186.529-149.658c-10.51-18.33-17.479-38.764-25.236-58.557
		c-2.521-6.434-5.865-10.398-12.129-12.99c-33.123-13.721-59.117-36.025-81.182-64.285c-41.6-53.277-22.096-134.666,12.35-168.303
		c0.752-0.734,1.428-1.58,2.281-2.168c10.568-7.248,13.273-16.23,11.035-29.418c-7.449-43.906-10.029-88.246-6.824-132.787
		c5.967-82.912,30.303-158.412,89.58-219.496c44.789-46.15,100.082-73.281,162.318-86.471
		c89.369-18.939,176.881-13.508,260.275,25.912c84.023,39.715,134.863,107.52,159.947,195.836
		C597.514,58.855,601.469,101.934,601.959,158.207z M279.396,278.873c58.297,0,114.799,0,171.303,0c0-14.535,0-27.99,0-42.484
		c-57.189,0-113.699,0-171.633,0c0-57.793,0-114.547,0-171.023c-14.914,0-28.371,0-42.854,0c0,57.283,0,113.791,0,171.348
		c-57.549,0-114.055,0-170.744,0c0,14.785,0,28.496,0,43.236c57.377,0,113.887,0,171.443,0c0,57.547,0,114.049,0,170.826
		c14.525,0,27.977,0,42.484,0C279.396,393.682,279.396,337.176,279.396,278.873z"/>
	<path display="inline" fill-rule="evenodd" clip-rule="evenodd" d="M277.396,276.873c0,58.303,0,114.809,0,171.902
		c-14.508,0-27.959,0-42.484,0c0-56.777,0-113.279,0-170.826c-57.557,0-114.066,0-171.443,0c0-14.74,0-28.451,0-43.236
		c56.689,0,113.195,0,170.744,0c0-57.557,0-114.064,0-171.348c14.482,0,27.939,0,42.854,0c0,56.477,0,113.23,0,171.023
		c57.934,0,114.443,0,171.633,0c0,14.494,0,27.949,0,42.484C392.195,276.873,335.693,276.873,277.396,276.873z"/>
</g>
<g>
	<path display="none" fill-rule="evenodd" clip-rule="evenodd" fill="#FFFFFF" d="M-2.026,513.064c0-172.643,0-345.286,0-518.029
		c172.563,0,345.164,0,517.929,0c0,172.609,0,345.319,0,518.029C343.347,513.064,170.679,513.064-2.026,513.064z M443.33,206.209
		c-0.08-28.951-2.209-51.177-8.234-72.881C420.38,80.319,388.679,41.72,337.43,20.542C302.142,5.959,265.201,2.728,227.482,7.515
		c-30.319,3.849-58.659,13.376-83.842,30.946c-43.452,30.317-64.463,73.593-70.995,124.965c-3.098,24.36-2.311,48.704,0.979,72.979
		c0.559,4.126-0.384,7.092-3.071,10.408c-16.864,20.813-23.051,45.029-18.232,70.972c5.765,31.03,26.513,51.265,53.175,66.055
		c2.84,1.574,4.349,3.454,5.762,6.339c5.966,12.184,11.222,24.951,18.878,36.025c22.739,32.891,54.292,54.605,91.636,68.073
		c14.146,5.102,28.813,9.294,43.927,6.504c12.312-2.272,24.796-5.203,36.287-10.023c47.555-19.944,83.78-51.741,102.241-101.3
		c0.599-1.607,2.416-3.133,4.042-3.927c23.693-11.575,41.348-29.337,50.531-53.894c11.725-31.349,4.45-60.094-15.812-86.072
		c-1.356-1.738-2.33-4.412-2.195-6.57C441.606,225.907,442.792,212.841,443.33,206.209z"/>
	<path display="none" fill-rule="evenodd" clip-rule="evenodd" d="M443.33,206.209c-0.538,6.632-1.724,19.698-2.535,32.786
		c-0.135,2.158,0.839,4.832,2.195,6.57c20.262,25.979,27.536,54.724,15.812,86.072c-9.184,24.557-26.838,42.318-50.531,53.894
		c-1.626,0.794-3.443,2.319-4.042,3.927c-18.461,49.559-54.687,81.355-102.241,101.3c-11.491,4.82-23.976,7.751-36.287,10.023
		c-15.114,2.79-29.781-1.402-43.927-6.504c-37.345-13.468-68.897-35.183-91.636-68.073c-7.656-11.074-12.913-23.842-18.878-36.025
		c-1.413-2.885-2.922-4.765-5.762-6.339c-26.662-14.79-47.41-35.024-53.175-66.055c-4.819-25.942,1.368-50.159,18.232-70.972
		c2.687-3.316,3.63-6.282,3.071-10.408c-3.291-24.275-4.077-48.619-0.979-72.979c6.532-51.372,27.543-94.648,70.995-124.965
		c25.183-17.569,53.522-27.097,83.842-30.946c37.719-4.788,74.659-1.556,109.947,13.026c51.249,21.178,82.95,59.777,97.666,112.787
		C441.121,155.032,443.25,177.258,443.33,206.209z M422.918,206.196c-0.162-26.554-1.886-46.295-7.005-65.602
		c-10.644-40.141-32.404-72.144-69.091-92.853c-27.625-15.594-57.717-21.632-89.157-21.736
		c-30.751-0.102-60.292,5.679-87.543,20.278c-48.034,25.73-70.827,67.98-77.267,120.493c-3.011,24.55-2.056,49.077,2.031,73.413
		c1.171,6.974-0.176,11.665-5.588,16.538c-17.301,15.581-26.806,55.644-6.37,81.544c10.568,13.395,22.915,24.058,38.695,30.563
		c3.219,1.326,4.837,3.411,6.118,6.639c3.834,9.656,7.292,19.62,12.458,28.563c20.456,35.402,51.655,57.772,89.563,71.399
		c13.601,4.89,27.635,7.801,42.047,3.75c55.153-15.494,96.105-47.02,115.236-102.863c1.269-3.706,3.331-5.758,6.951-7.074
		c12.765-4.644,23.112-12.726,32.248-22.694c29.055-31.703,17.611-73.113-2.853-91.318c-3.961-3.524-4.482-7.058-3.936-11.93
		C421.09,228.772,422.198,214.183,422.918,206.196z"/>
	<path display="none" fill-rule="evenodd" clip-rule="evenodd" fill="#FFFFFF" d="M422.918,206.196
		c-0.72,7.986-1.828,22.576-3.461,37.107c-0.547,4.872-0.025,8.405,3.936,11.93c20.464,18.205,31.907,59.615,2.853,91.318
		c-9.136,9.969-19.483,18.051-32.248,22.694c-3.62,1.316-5.683,3.368-6.951,7.074c-19.131,55.844-60.083,87.369-115.236,102.863
		c-14.412,4.051-28.446,1.14-42.047-3.75c-37.908-13.627-69.107-35.997-89.563-71.399c-5.167-8.942-8.625-18.906-12.458-28.563
		c-1.281-3.228-2.899-5.313-6.118-6.639c-15.78-6.505-28.127-17.168-38.695-30.563c-20.436-25.9-10.931-65.963,6.37-81.544
		c5.412-4.873,6.759-9.564,5.588-16.538c-4.087-24.336-5.042-48.863-2.031-73.413c6.44-52.512,29.233-94.762,77.267-120.493
		c27.251-14.599,56.792-20.379,87.543-20.278c31.44,0.104,61.532,6.143,89.157,21.736c36.687,20.709,58.447,52.712,69.091,92.853
		C421.032,159.901,422.756,179.643,422.918,206.196z M195.752,177.027c-5.211,5.103-9.887,9.681-15.096,14.781
		c20.657,20.584,41.223,41.076,62.358,62.138c-20.746,20.717-41.268,41.21-61.035,60.951c4.653,5.029,9.156,9.896,14.121,15.264
		c20.501-20.562,40.896-41.017,61.641-61.821c20.588,20.636,41.084,41.18,61.019,61.162c5.257-4.918,10.118-9.466,15.826-14.806
		c-20.662-20.623-41.199-41.122-62.109-61.993c20.405-20.367,40.869-40.791,61.124-61.007c-4.767-4.829-9.456-9.579-14.824-15.019
		c-20.437,20.497-40.931,41.054-61.71,61.895C236.589,218.019,216.19,197.543,195.752,177.027z"/>
	<path fill-rule="evenodd" clip-rule="evenodd" d="M126.067,95.596c42.922,43.083,85.758,86.081,128.76,129.246
		c43.638-43.768,86.675-86.935,129.593-129.978c11.271,11.42,21.12,21.395,31.129,31.536
		c-42.535,42.454-85.51,85.343-128.361,128.115c43.912,43.829,87.041,86.875,130.432,130.186
		c-11.988,11.213-22.197,20.765-33.235,31.091c-41.862-41.96-84.903-85.104-128.141-128.439
		c-43.562,43.688-86.393,86.646-129.444,129.823c-10.426-11.27-19.883-21.491-29.654-32.054
		c41.512-41.455,84.608-84.492,128.173-127.995c-44.385-44.23-87.573-87.265-130.952-130.49
		C105.304,115.926,115.124,106.31,126.067,95.596z"/>
</g>
</svg>
