<?xml version="1.0" encoding="utf-8"?>
<!-- Generator: Adobe Illustrator 16.0.0, SVG Export Plug-In . SVG Version: 6.00 Build 0)  -->
<!DOCTYPE svg PUBLIC "-//W3C//DTD SVG 1.1//EN" "http://www.w3.org/Graphics/SVG/1.1/DTD/svg11.dtd">
<svg version="1.1" id="Layer_1" xmlns="http://www.w3.org/2000/svg" xmlns:xlink="http://www.w3.org/1999/xlink" x="0px" y="0px"
	 width="512px" height="512px" viewBox="0 0 512 512" enable-background="new 0 0 512 512" xml:space="preserve">
<g>
	<line fill="none" stroke="#B35047" x1="32" y1="0" x2="32" y2="512"/>
	<line fill="none" stroke="#B35047" x1="64" y1="0" x2="64" y2="512"/>
	<line fill="none" stroke="#B35047" x1="96" y1="0" x2="96" y2="512"/>
	<line fill="none" stroke="#B35047" x1="128" y1="0" x2="128" y2="512"/>
	<line fill="none" stroke="#B35047" x1="160" y1="0" x2="160" y2="512"/>
	<line fill="none" stroke="#B35047" x1="192" y1="0" x2="192" y2="512"/>
	<line fill="none" stroke="#B35047" x1="224" y1="0" x2="224" y2="512"/>
	<line fill="none" stroke="#B35047" x1="256" y1="0" x2="256" y2="512"/>
	<line fill="none" stroke="#B35047" x1="288" y1="0" x2="288" y2="512"/>
	<line fill="none" stroke="#B35047" x1="320" y1="0" x2="320" y2="512"/>
	<line fill="none" stroke="#B35047" x1="352" y1="0" x2="352" y2="512"/>
	<line fill="none" stroke="#B35047" x1="384" y1="0" x2="384" y2="512"/>
	<line fill="none" stroke="#B35047" x1="416" y1="0" x2="416" y2="512"/>
	<line fill="none" stroke="#B35047" x1="448" y1="0" x2="448" y2="512"/>
	<line fill="none" stroke="#B35047" x1="480" y1="0" x2="480" y2="512"/>
	<line fill="none" stroke="#B35047" x1="0" y1="32" x2="512" y2="32"/>
	<line fill="none" stroke="#B35047" x1="0" y1="64" x2="512" y2="64"/>
	<line fill="none" stroke="#B35047" x1="0" y1="96" x2="512" y2="96"/>
	<line fill="none" stroke="#B35047" x1="0" y1="128" x2="512" y2="128"/>
	<line fill="none" stroke="#B35047" x1="0" y1="160" x2="512" y2="160"/>
	<line fill="none" stroke="#B35047" x1="0" y1="192" x2="512" y2="192"/>
	<line fill="none" stroke="#B35047" x1="0" y1="224" x2="512" y2="224"/>
	<line fill="none" stroke="#B35047" x1="0" y1="256" x2="512" y2="256"/>
	<line fill="none" stroke="#B35047" x1="0" y1="288" x2="512" y2="288"/>
	<line fill="none" stroke="#B35047" x1="0" y1="320" x2="512" y2="320"/>
	<line fill="none" stroke="#B35047" x1="0" y1="352" x2="512" y2="352"/>
	<line fill="none" stroke="#B35047" x1="0" y1="384" x2="512" y2="384"/>
	<line fill="none" stroke="#B35047" x1="0" y1="416" x2="512" y2="416"/>
	<line fill="none" stroke="#B35047" x1="0" y1="448" x2="512" y2="448"/>
	<line fill="none" stroke="#B35047" x1="0" y1="480" x2="512" y2="480"/>
	<rect fill="none" stroke="#B35047" width="512" height="512"/>
</g>
<g>
	<path display="none" fill-rule="evenodd" clip-rule="evenodd" fill="#FFFFFF" d="M223.5,513.5c-75.333,0-150.667,0-226,0
		c0-171,0-342,0-513c171,0,342,0,513,0c0,44,0,88,0,132c-1.41-2.225-2.598-4.634-4.264-6.646
		c-15.303-18.478-30.813-36.784-45.972-55.379c-4.374-5.365-9.281-7.72-16.258-7.695c-54.156,0.19-108.314,0.108-162.472,0.092
		c-2.074-0.001-4.148-0.2-6.855-0.34c0-9.692,0.474-18.862-0.115-27.964c-0.813-12.579-11.475-22.199-24.316-22.838
		c-12.376-0.615-24.166,8.611-25.786,21.139c-0.998,7.715-0.573,15.615-0.762,23.434c-0.051,2.09-0.008,4.183-0.008,6.583
		c-2.777,0-4.763,0-6.75,0c-37.327,0-74.653-0.013-111.98,0.008c-10.754,0.006-14.369,3.671-14.37,14.448
		c-0.006,38.16-0.007,76.32,0,114.48c0.002,10.989,3.625,14.562,14.745,14.563c37.327,0.006,74.654,0.002,111.98,0.002
		c1.952,0,3.903,0,6.038,0c0,10.422,0,20.302,0,30.67c-2.463,0-4.602,0-6.741,0c-50.491,0-100.982,0.07-151.473-0.081
		c-6.852-0.021-11.902,1.967-16.36,7.479c-15.086,18.651-30.63,36.932-45.975,55.375c-5.54,6.658-5.549,11.035-0.012,17.698
		c15.545,18.709,31.193,37.334,46.643,56.121c3.903,4.746,8.392,6.891,14.636,6.872c51.157-0.159,102.315-0.09,153.473-0.09
		c1.934,0,3.867,0,6.146,0c0,2.487,0,4.296,0,6.104c0,21.996,0.025,43.992-0.007,65.988C223.656,472.85,223.564,493.175,223.5,513.5
		z"/>
	<path display="none" fill-rule="evenodd" clip-rule="evenodd" fill="#FFFFFF" d="M510.5,137.5c0,125.333,0,250.667,0,376
		c-78.667,0-157.333,0-236,0c0.147-2.145,0.422-4.289,0.424-6.433c0.025-40.144,0.02-80.287,0.02-120.431c0-1.951,0-3.903,0-6.206
		c2.638,0,4.621,0,6.604,0c40.811,0,81.62,0.005,122.43-0.003c10.783-0.002,14.428-3.625,14.431-14.334
		c0.007-37.978,0.004-75.956,0.002-113.935c-0.001-11.911-3.192-15.099-15.141-15.1c-40.644-0.005-81.287-0.002-121.931-0.003
		c-1.941,0-3.883,0-6.037,0c0-10.549,0-20.432,0-30.67c2.34,0,4.322,0,6.305,0c54.469,0,108.938-0.007,163.406,0.013
		c4.798,0.001,9.316-0.588,12.621-4.607C475.254,180.36,492.877,158.931,510.5,137.5z"/>
	<path fill-rule="evenodd" clip-rule="evenodd" d="M508.941,131.751c-17.447,21.216-34.895,42.432-52.34,63.649
		c-3.271,3.979-7.744,4.563-12.494,4.562c-53.924-0.02-107.848-0.013-161.771-0.013c-1.963,0-3.926,0-6.242,0
		c0,10.136,0,19.92,0,30.363c2.133,0,4.055,0,5.977,0c40.237,0.001,80.475-0.002,120.711,0.003
		c11.83,0.001,14.988,3.157,14.99,14.949c0.002,37.599,0.004,75.197-0.002,112.795c-0.004,10.602-3.611,14.189-14.287,14.191
		c-40.4,0.008-80.803,0.002-121.205,0.002c-1.963,0-3.926,0-6.537,0c0,2.279,0,4.213,0,6.145c0,39.742,0.006,79.484-0.02,119.227
		c-0.002,2.121-0.273,4.244-0.42,6.367c-6.6,0-13.201,0-19.8,0c0-43.807,0-87.611,0-131.389c-3.677,0-6.712,0-10.063,0
		c0,3.951-0.004,7.559,0,11.168c0.053,40.074,0.108,80.148,0.162,120.221c-6.93,0-13.86,0-20.79,0
		c0.064-20.121,0.154-40.242,0.184-60.365c0.032-21.777,0.007-43.553,0.007-65.33c0-1.789,0-3.58,0-6.043c-2.256,0-4.17,0-6.084,0
		c-50.646,0-101.292-0.068-151.938,0.09c-6.182,0.018-10.626-2.105-14.49-6.805C37.195,346.939,21.703,328.5,6.313,309.979
		c-5.481-6.597-5.472-10.93,0.012-17.521c15.191-18.26,30.58-36.356,45.515-54.821c4.413-5.457,9.413-7.425,16.196-7.404
		c49.986,0.15,99.973,0.08,149.958,0.08c2.118,0,4.235,0,6.674,0c0-10.264,0-20.045,0-30.363c-2.114,0-4.045,0-5.978,0
		c-36.953,0-73.907,0.004-110.86-0.002c-11.008-0.002-14.595-3.538-14.598-14.417c-0.008-37.779-0.006-75.557,0-113.336
		c0.001-10.669,3.58-14.298,14.226-14.304c36.954-0.021,73.908-0.008,110.861-0.008c1.966,0,3.933,0,6.682,0
		c0-2.376-0.042-4.448,0.008-6.517c0.187-7.74-0.234-15.562,0.754-23.199c1.604-12.402,13.275-21.537,25.528-20.927
		c12.713,0.632,23.269,10.156,24.073,22.609c0.582,9.011,0.113,18.089,0.113,27.684c2.68,0.139,4.734,0.336,6.787,0.337
		c53.615,0.016,107.232,0.097,160.848-0.091c6.906-0.024,11.764,2.307,16.094,7.619c15.008,18.409,30.363,36.532,45.514,54.825
		c1.648,1.992,2.824,4.377,4.221,6.58C508.941,128.451,508.941,130.101,508.941,131.751z M396.965,351.865
		c0-34.26,0-67.641,0-101.314c-1.525,0-2.662,0-3.799,0c-107.227,0-214.453-0.016-321.677,0.12c-2.082,0.002-4.797,1.25-6.144,2.831
		c-12.729,14.937-25.23,30.07-37.779,45.16c-0.704,0.847-1.255,1.822-1.945,2.838c12.922,15.505,25.78,30.762,38.396,46.215
		c2.552,3.125,5.18,4.244,9.192,4.24c105.906-0.113,211.813-0.09,317.717-0.09C392.863,351.865,394.801,351.865,396.965,351.865z
		 M113.919,179.493c2.729,0,4.862,0,6.996,0c100.618,0,201.236,0.008,301.853-0.017c6.902-0.002,14.705,1.698,20.451-0.949
		c5.568-2.564,9.068-9.682,13.402-14.862c9.611-11.485,19.178-23.009,28.873-34.651c-1.301-1.661-2.367-3.101-3.514-4.477
		c-11.713-14.067-23.514-28.064-35.104-42.232c-2.389-2.921-4.816-4.158-8.688-4.153c-106.228,0.113-212.453,0.09-318.679,0.09
		c-1.772,0-3.544,0-5.591,0C113.919,112.125,113.919,145.508,113.919,179.493z M245.699,230.023c3.29,0,6.323,0,9.558,0
		c0-10.052,0-19.814,0-29.813c-3.263,0-6.281,0-9.558,0C245.699,210.225,245.699,219.98,245.699,230.023z M255.475,57.671
		c0-8.572,0.291-16.631-0.216-24.641c-0.118-1.858-2.708-4.463-4.63-4.98c-1.245-0.334-4.738,2.422-4.823,3.93
		c-0.481,8.475-0.232,16.993-0.232,25.691C249.021,57.671,251.939,57.671,255.475,57.671z"/>
	<path display="none" fill-rule="evenodd" clip-rule="evenodd" fill="#FFFFFF" d="M244.5,513.5
		c-0.055-40.479-0.11-80.957-0.164-121.437c-0.005-3.645,0-7.288,0-11.279c3.384,0,6.45,0,10.164,0c0,44.218,0,88.467,0,132.716
		C251.167,513.5,247.833,513.5,244.5,513.5z"/>
	<path display="none" fill-rule="evenodd" clip-rule="evenodd" fill="#FFFFFF" d="M397.394,359.838c-2.188,0-4.144,0-6.101,0
		c-106.975,0-213.951-0.023-320.926,0.09c-4.053,0.004-6.708-1.126-9.285-4.283c-12.744-15.609-25.731-31.02-38.784-46.682
		c0.697-1.025,1.253-2.011,1.964-2.866c12.676-15.242,25.303-30.528,38.161-45.616c1.361-1.597,4.103-2.857,6.206-2.859
		c108.308-0.137,216.617-0.121,324.926-0.121c1.148,0,2.297,0,3.839,0C397.394,291.514,397.394,325.231,397.394,359.838z"/>
	<path display="none" fill-rule="evenodd" clip-rule="evenodd" fill="#FFFFFF" d="M111.488,185.725c0-34.329,0-68.049,0-102.274
		c2.068,0,3.858,0,5.648,0c107.299,0,214.598,0.023,321.897-0.091c3.91-0.005,6.362,1.245,8.776,4.195
		c11.707,14.312,23.626,28.45,35.458,42.659c1.157,1.39,2.235,2.844,3.549,4.521c-9.794,11.76-19.456,23.4-29.165,35.001
		c-4.378,5.232-7.912,12.422-13.538,15.013c-5.804,2.673-13.685,0.956-20.656,0.958c-101.635,0.025-203.269,0.018-304.903,0.018
		C116.399,185.725,114.245,185.725,111.488,185.725z"/>
	<path display="none" fill-rule="evenodd" clip-rule="evenodd" fill="#FFFFFF" d="M244.599,236.765c0-10.145,0-19.998,0-30.114
		c3.31,0,6.358,0,9.654,0c0,10.1,0,19.961,0,30.114C250.986,236.765,247.922,236.765,244.599,236.765z"/>
	<path display="none" fill-rule="evenodd" clip-rule="evenodd" fill="#FFFFFF" d="M254.474,62.672c-3.572,0-6.52,0-10.001,0
		c0-8.786-0.251-17.39,0.234-25.95c0.086-1.523,3.615-4.308,4.872-3.97c1.941,0.521,4.558,3.153,4.677,5.03
		C254.768,45.873,254.474,54.014,254.474,62.672z"/>
</g>
<g display="none">
	<path fill-rule="evenodd" clip-rule="evenodd" fill="#FFFFFF" d="M239.5,513.5c-80.64,0-161.28,0-241.96,0
		c0-170.917,0-341.834,0-512.875c170.96,0,341.96,0,512.96,0c0,80.596,0,161.235,0,241.875c-0.29-1.434-0.744-2.854-0.847-4.301
		c-2.854-40.078-14.207-77.676-35.396-111.72C426.132,49.153,356.2,7.129,265.229,1.892c-50.65-2.915-98.473,9.096-141.662,35.839
		C46.126,85.684,4.161,155.727-1.103,246.69c-2.952,51.008,9.43,98.994,36.268,142.554C75.7,455.035,134.213,495.351,210.374,509.52
		C219.997,511.31,229.787,512.195,239.5,513.5z"/>
	<path display="inline" fill-rule="evenodd" clip-rule="evenodd" d="M241.65,508.939c-9.616-1.291-19.308-2.168-28.834-3.94
		C137.416,490.972,79.488,451.06,39.358,385.927C12.789,342.803,0.53,295.296,3.453,244.798
		C8.665,154.744,50.21,85.401,126.876,37.928c42.757-26.476,90.102-38.366,140.245-35.48
		c90.063,5.185,159.295,46.789,206.939,123.342c20.977,33.704,32.217,70.925,35.041,110.603c0.102,1.432,0.551,2.838,0.838,4.258
		c0,9.9,0,19.799,0,29.7c-0.287,1.418-0.736,2.824-0.838,4.255c-2.834,39.834-14.316,77.078-35.234,111.004
		c-40.23,65.249-98.141,105.337-173.695,119.393c-9.521,1.771-19.21,2.648-28.822,3.938
		C261.45,508.939,251.55,508.939,241.65,508.939z M488.713,245.45c0.389-44.624-20.188-112.389-74.801-161.879
		c-41.684-37.774-90.68-57.924-147.35-61.005c0,3.351,0.047,5.804-0.009,8.253c-0.157,6.9-4.306,11.675-10.109,11.695
		c-5.678,0.018-9.823-4.853-9.996-11.817c-0.064-2.562-0.011-5.126-0.011-7.699C119.896,26.69,24.646,136.094,24.378,245.445
		c2.766,0,5.541-0.106,8.306,0.022c6.248,0.29,10.704,4.451,10.822,9.964c0.116,5.355-4.441,9.731-10.698,10.085
		c-2.902,0.165-5.82,0.028-8.736,0.028c2.91,122.645,108.936,221.092,222.366,222.178c0-2.586-0.062-5.19,0.012-7.79
		c0.194-6.799,4.607-11.651,10.353-11.459c5.527,0.185,9.541,4.917,9.744,11.582c0.079,2.587,0.014,5.179,0.014,7.769
		c118.018-1.966,220.293-104.212,222.264-222.268c-2.754,0-5.512,0.089-8.262-0.018c-6.506-0.25-11.166-4.594-11.082-10.219
		c0.078-5.376,4.648-9.542,10.957-9.848C483.195,245.339,485.963,245.45,488.713,245.45z"/>
	<path fill-rule="evenodd" clip-rule="evenodd" fill="#FFFFFF" d="M269.5,513.5c9.709-1.304,19.495-2.189,29.113-3.979
		c76.318-14.197,134.813-54.69,175.449-120.599c21.129-34.269,32.729-71.889,35.591-112.125c0.103-1.445,0.557-2.865,0.847-4.298
		c0,80.333,0,160.667,0,241C430.167,513.5,349.833,513.5,269.5,513.5z"/>
	<path fill-rule="evenodd" clip-rule="evenodd" fill="#FFFFFF" d="M489.058,247.349c-2.777,0-5.573-0.112-8.357,0.022
		c-6.373,0.309-10.989,4.518-11.069,9.948c-0.083,5.681,4.624,10.068,11.195,10.321c2.777,0.107,5.563,0.019,8.346,0.019
		c-1.992,119.247-105.301,222.526-224.51,224.512c0-2.616,0.066-5.233-0.014-7.847c-0.205-6.732-4.26-11.513-9.843-11.699
		c-5.803-0.194-10.261,4.707-10.457,11.575c-0.075,2.626-0.012,5.256-0.012,7.868C129.76,490.972,22.664,391.53,19.725,267.646
		c2.945,0,5.894,0.138,8.825-0.028c6.32-0.357,10.923-4.777,10.806-10.187c-0.12-5.569-4.621-9.772-10.932-10.065
		c-2.793-0.13-5.597-0.022-8.39-0.022c0.271-110.456,96.482-220.965,224.303-224.694c0,2.599-0.054,5.188,0.011,7.776
		c0.175,7.035,4.361,11.955,10.097,11.937c5.861-0.02,10.052-4.843,10.211-11.813c0.057-2.475,0.009-4.952,0.009-8.337
		c57.242,3.112,106.734,23.465,148.839,61.621C468.667,133.824,489.45,202.273,489.058,247.349z M126.56,396.045
		c1.442-0.639,4.05-1.382,6.203-2.811c50.23-33.322,100.422-66.703,150.568-100.153c2.3-1.534,4.557-3.51,6.075-5.785
		c33.745-50.549,67.408-101.153,100.958-151.832c1.461-2.206,2.533-5.27,2.367-7.841c-0.539-8.325-8.83-10.959-16.931-5.577
		c-49.93,33.174-99.865,66.337-149.721,99.621c-2.823,1.885-5.448,4.478-7.332,7.298c-33.202,49.71-66.283,99.501-99.342,149.307
		c-1.268,1.91-2.394,4.045-2.999,6.237C114.817,390.278,119.527,396.15,126.56,396.045z"/>
	<path display="inline" fill-rule="evenodd" clip-rule="evenodd" d="M129.839,392.659c-6.963,0.104-11.625-5.709-10.05-11.421
		c0.599-2.17,1.714-4.283,2.969-6.175c32.729-49.308,65.478-98.601,98.348-147.813c1.865-2.792,4.463-5.359,7.258-7.225
		c49.356-32.951,98.793-65.783,148.224-98.625c8.02-5.328,16.229-2.721,16.762,5.521c0.164,2.546-0.898,5.579-2.344,7.763
		c-33.215,50.172-66.541,100.271-99.949,150.314c-1.503,2.252-3.737,4.208-6.014,5.727c-49.645,33.116-99.334,66.163-149.063,99.152
		C133.849,391.291,131.268,392.027,129.839,392.659z M164.47,346.769c0.258,0.253,0.517,0.506,0.776,0.759
		c36.542-24.313,73.084-48.626,108.646-72.287c-12.554-12.553-24.812-24.81-37.14-37.136
		C212.95,273.887,188.709,310.328,164.47,346.769z"/>
	<path fill-rule="evenodd" clip-rule="evenodd" fill="#FFFFFF" d="M161.54,349.69c24.485-36.809,48.97-73.618,73.012-109.762
		c12.453,12.451,24.834,24.832,37.515,37.511c-35.921,23.9-72.833,48.459-109.744,73.018
		C162.063,350.202,161.801,349.946,161.54,349.69z"/>
</g>
<g display="none">
	<path fill-rule="evenodd" clip-rule="evenodd" fill="#FFFFFF" d="M-2.465,513.5c0-170.936,0-341.87,0-512.902
		c170.859,0,341.752,0,512.805,0c0,170.902,0,341.902,0,512.902C339.486,513.5,168.528,513.5-2.465,513.5z M490.033,257.443
		C489.861,127.331,383.862,21.439,254.318,21.967c-130.29,0.53-234.787,105.022-235.351,235.339
		c-0.561,129.523,105.319,235.521,235.465,235.728C384.221,493.239,490.205,387.261,490.033,257.443z"/>
	<path display="inline" fill-rule="evenodd" clip-rule="evenodd" d="M508.521,255.439c0.184,138.905-113.22,252.302-252.094,252.081
		C117.171,507.3,3.88,393.883,4.479,255.292C5.083,115.854,116.895,4.047,256.306,3.479
		C394.918,2.915,508.337,116.22,508.521,255.439z M256.65,485.559c126.953-0.097,229.833-102.994,229.908-229.943
		c0.074-127.129-103.084-230.271-230.21-230.173C129.396,25.54,26.517,128.436,26.442,255.385
		C26.367,382.514,129.524,485.655,256.65,485.559z"/>
	<path fill-rule="evenodd" clip-rule="evenodd" fill="#FFFFFF" d="M254.641,472.508c-118.81,0.09-215.218-96.304-215.148-215.116
		c0.07-118.644,96.219-214.808,214.866-214.899c118.81-0.091,215.219,96.303,215.149,215.115
		C469.438,376.252,373.288,472.417,254.641,472.508z M244.646,267.683c0,47.486,0,94.089,0,140.692
		c0.271,0.032,0.543,0.064,0.815,0.097c40.362-87.452,80.724-174.905,121.656-263.593
		c-88.803,40.989-176.251,81.353-263.699,121.717c0.084,0.362,0.169,0.725,0.253,1.087
		C150.351,267.683,197.031,267.683,244.646,267.683z"/>
	<path display="inline" fill-rule="evenodd" clip-rule="evenodd" d="M245.957,266.396c-50.949,0-100.896,0-150.843,0
		c-0.091-0.388-0.181-0.775-0.271-1.163C188.412,222.043,281.981,178.854,377,134.996c-43.797,94.896-86.984,188.47-130.171,282.044
		c-0.291-0.034-0.582-0.069-0.872-0.104C245.957,367.071,245.957,317.206,245.957,266.396z"/>
</g>
<g display="none">
	<path display="inline" fill-rule="evenodd" clip-rule="evenodd" d="M270.464,508.939c-9.9,0-19.8,0-29.7,0
		c-1.442-0.289-2.873-0.74-4.328-0.842c-30.417-2.129-59.345-9.887-87.075-22.504C51.969,441.281-8.108,336.225,3.408,229.98
		c5.839-53.875,26.15-101.628,62.296-142.069C114.202,33.652,175.277,5,247.944,2.255c49.125-1.855,95.317,9.939,137.311,35.626
		c65.43,40.023,105.57,97.969,119.801,173.513c1.818,9.66,2.688,19.5,3.998,29.255c0,9.9,0,19.8,0,29.699
		c-0.287,1.419-0.736,2.824-0.838,4.256c-2.834,39.834-14.318,77.078-35.236,111.004c-40.229,65.248-98.139,105.336-173.693,119.393
		C289.764,506.773,280.075,507.65,270.464,508.939z M123.94,245.212c0.95-35.973,5.291-71.14,13.974-104.554
		c-22.892-8.894-45.053-17.503-67.855-26.361c-28.761,37.951-44.903,81.7-47.313,130.916
		C56.738,245.212,89.973,245.212,123.94,245.212z M387.28,245.103c34.004,0,67.371,0,101.234,0
		c-2.547-49.251-18.6-93.019-47.361-130.777c-23.09,8.957-45.229,17.545-67.871,26.329
		C382.056,174.223,386.317,209.273,387.28,245.103z M22.707,265.777c2.537,49.338,18.61,93.053,47.36,130.926
		c22.882-8.877,45.156-17.518,67.897-26.34c-8.888-33.756-13-68.943-14.079-104.586C90.002,265.777,56.767,265.777,22.707,265.777z
		 M488.519,265.939c-34.246,0-67.641,0-100.549,0c-1.615,17.975-2.594,35.616-4.936,53.074c-2.359,17.584-6.074,34.986-9.035,51.57
		c22.086,8.582,44.268,17.201,67.168,26.098C469.915,358.861,485.974,315.119,488.519,265.939z M245.218,245.173
		c0-30.718,0-60.823,0-89.93c-29.314-3.279-58.192-6.508-87.557-9.791c-8.304,32.098-12.765,65.506-13.177,99.721
		C178.443,245.173,211.677,245.173,245.218,245.173z M366.8,245.156c-0.582-34.341-4.887-67.687-13.238-99.67
		c-29.455,3.278-58.462,6.505-87.58,9.745c0,29.432,0,59.54,0,89.926C299.516,245.156,332.749,245.156,366.8,245.156z
		 M144.429,265.854c0.574,34.313,4.886,67.655,13.233,99.663c29.438-3.277,58.445-6.508,87.594-9.754c0-29.404,0-59.513,0-89.909
		C211.732,265.854,178.5,265.854,144.429,265.854z M265.915,355.717c29.588,3.313,58.457,6.543,87.686,9.816
		c8.234-32.158,12.734-65.46,13.141-99.623c-33.875,0-67.233,0-100.826,0C265.915,296.361,265.915,326.467,265.915,355.717z
		 M245.303,23.564c-2.069,0.478-3.819,0.767-5.497,1.286c-14.683,4.551-25.989,14.007-35.979,25.205
		c-14.549,16.309-24.601,35.364-32.988,55.355c-2.571,6.128-4.618,12.475-7.05,19.12c27.423,5.633,54.271,8.541,81.513,9.07
		C245.303,96.56,245.303,60.34,245.303,23.564z M265.875,487.422c1.949-0.43,3.228-0.641,4.465-0.992
		c15.352-4.355,27.044-14.121,37.286-25.771c17.118-19.477,28.299-42.334,37.07-66.498c0.875-2.414,1.639-4.871,2.457-7.311
		c-15.951-4.975-71.744-10.908-81.278-8.678C265.875,414.357,265.875,450.588,265.875,487.422z M346.976,124.23
		c-0.148-0.945-0.152-1.622-0.363-2.226c-7.711-22.009-17.194-43.167-31.136-62.009c-8.874-11.993-18.976-22.908-32.357-30.034
		c-5.259-2.8-11.026-4.642-17.104-7.143c0,37.662,0,74.006,0,110.31C279.075,134.701,331.288,128.96,346.976,124.23z
		 M164.35,386.723c0.058,0.779-0.009,1.303,0.144,1.75c7.678,22.383,17.357,43.801,31.532,62.891
		c8.797,11.844,18.82,22.605,32.044,29.654c5.26,2.805,11.03,4.652,17.158,7.178c0-37.654,0-73.994,0-110.289
		C232.694,376.266,180.485,381.971,164.35,386.723z M367.272,119.725c20.686-5.287,40.221-12.571,59.02-22.227
		c-17.977-25.197-83.527-65.014-108.098-65.774C341.985,56.922,356.212,87.29,367.272,119.725z M84.436,413.766
		c30.373,32.338,66.156,54.23,108.316,65.824c-23.564-25.449-37.735-56.008-48.834-88.316
		C123.13,396.598,103.726,403.908,84.436,413.766z M84.755,97.402c19.16,9.792,38.67,17.167,59.252,22.27
		c11.074-32.719,25.465-62.968,49.483-88.503C159.606,37.667,107.071,69.668,84.755,97.402z M318.394,479.668
		c42.23-11.699,78.109-33.557,108.434-65.967c-19.6-9.828-38.996-17.291-59.588-22.379
		C356.179,423.889,341.847,454.254,318.394,479.668z"/>
	<path fill-rule="evenodd" clip-rule="evenodd" fill="#FFFFFF" d="M513.5,242.5c-1.323-9.854-2.201-19.793-4.039-29.551
		c-14.374-76.308-54.92-134.838-121.011-175.266c-42.418-25.947-89.075-37.86-138.697-35.986
		C176.352,4.469,114.66,33.411,65.672,88.219C29.161,129.067,8.645,177.304,2.747,231.723
		C-8.886,339.04,51.798,445.158,150.174,489.918c28.01,12.744,57.23,20.581,87.955,22.73c1.47,0.104,2.915,0.56,4.372,0.852
		c-80.64,0-161.28,0-241.96,0c0-170.917,0-341.833,0-512.875c170.96,0,341.96,0,512.96,0C513.5,81.22,513.5,161.86,513.5,242.5z"/>
	<path fill-rule="evenodd" clip-rule="evenodd" fill="#FFFFFF" d="M272.5,513.5c9.709-1.304,19.495-2.189,29.113-3.979
		c76.318-14.197,134.813-54.69,175.449-120.599c21.129-34.269,32.729-71.889,35.591-112.125c0.103-1.445,0.557-2.865,0.847-4.298
		c0,80.333,0,160.667,0,241C433.167,513.5,352.833,513.5,272.5,513.5z"/>
	<path fill-rule="evenodd" clip-rule="evenodd" fill="#FFFFFF" d="M124.497,247.108c-34.31,0-67.881,0-102.217,0
		c2.435-49.713,18.74-93.903,47.792-132.238c23.033,8.948,45.417,17.645,68.541,26.628
		C129.841,175.25,125.456,210.772,124.497,247.108z"/>
	<path fill-rule="evenodd" clip-rule="evenodd" fill="#FFFFFF" d="M390.497,246.997c-0.974-36.191-5.277-71.596-14.14-105.503
		c22.871-8.872,45.234-17.548,68.557-26.595c29.052,38.14,45.268,82.35,47.839,132.098
		C458.549,246.997,424.845,246.997,390.497,246.997z"/>
	<path fill-rule="evenodd" clip-rule="evenodd" fill="#FFFFFF" d="M22.241,267.881c34.404,0,67.976,0,102.2,0
		c1.09,36.002,5.243,71.546,14.221,105.642c-22.971,8.912-45.47,17.641-68.583,26.607C41.039,361.873,24.804,317.718,22.241,267.881
		z"/>
	<path fill-rule="evenodd" clip-rule="evenodd" fill="#FFFFFF" d="M492.757,268.044c-2.569,49.678-18.791,93.86-47.829,132.064
		c-23.131-8.987-45.537-17.693-67.846-26.361c2.99-16.752,6.742-34.33,9.125-52.092c2.366-17.635,3.355-35.454,4.986-53.611
		C424.435,268.044,458.165,268.044,492.757,268.044z"/>
	<path fill-rule="evenodd" clip-rule="evenodd" fill="#FFFFFF" d="M246.999,247.068c-33.879,0-67.449,0-101.75,0
		c0.416-34.561,4.921-68.307,13.31-100.729c29.661,3.316,58.831,6.578,88.441,9.89C246.999,185.631,246.999,216.04,246.999,247.068z
		"/>
	<path fill-rule="evenodd" clip-rule="evenodd" fill="#FFFFFF" d="M369.81,247.051c-34.396,0-67.964,0-101.837,0
		c0-30.692,0-61.104,0-90.834c29.412-3.272,58.712-6.532,88.465-9.843C364.873,178.681,369.222,212.363,369.81,247.051z"/>
	<path fill-rule="evenodd" clip-rule="evenodd" fill="#FFFFFF" d="M145.192,267.959c34.416,0,67.983,0,101.845,0
		c0,30.703,0,61.115,0,90.817c-29.443,3.278-58.743,6.541-88.479,9.852C150.128,336.298,145.772,302.618,145.192,267.959z"/>
	<path fill-rule="evenodd" clip-rule="evenodd" fill="#FFFFFF" d="M267.906,358.729c0-29.546,0-59.956,0-90.714
		c33.932,0,67.627,0,101.844,0c-0.41,34.508-4.955,68.146-13.273,100.628C326.953,365.339,297.793,362.074,267.906,358.729z"/>
	<path fill-rule="evenodd" clip-rule="evenodd" fill="#FFFFFF" d="M247.085,23.221c0,37.147,0,73.733,0,111.147
		c-27.517-0.535-54.637-3.472-82.336-9.162c2.457-6.712,4.525-13.123,7.122-19.313c8.472-20.193,18.625-39.441,33.321-55.915
		c10.09-11.311,21.511-20.862,36.342-25.459C243.228,23.995,244.996,23.703,247.085,23.221z"/>
	<path fill-rule="evenodd" clip-rule="evenodd" fill="#FFFFFF" d="M267.865,491.764c0-37.205,0-73.803,0-110.354
		c9.631-2.252,65.987,3.741,82.1,8.766c-0.826,2.465-1.598,4.945-2.482,7.384c-8.86,24.408-20.153,47.498-37.444,67.17
		c-10.346,11.769-22.156,21.634-37.663,26.032C271.125,491.116,269.834,491.331,267.865,491.764z"/>
	<path fill-rule="evenodd" clip-rule="evenodd" fill="#FFFFFF" d="M349.784,124.904c-15.846,4.777-68.585,10.576-81.778,8.988
		c0-36.67,0-73.382,0-111.424c6.14,2.526,11.966,4.387,17.277,7.215c13.518,7.197,23.721,18.223,32.685,30.337
		c14.082,19.032,23.661,40.404,31.449,62.636C349.631,123.266,349.635,123.949,349.784,124.904z"/>
	<path fill-rule="evenodd" clip-rule="evenodd" fill="#FFFFFF" d="M165.314,390.049c16.298-4.802,69.035-10.563,81.695-8.907
		c0,36.663,0,73.37,0,111.404c-6.19-2.552-12.018-4.418-17.331-7.25c-13.358-7.12-23.482-17.99-32.368-29.955
		c-14.318-19.282-24.096-40.916-31.851-63.525C165.305,391.363,165.373,390.836,165.314,390.049z"/>
	<path fill-rule="evenodd" clip-rule="evenodd" fill="#FFFFFF" d="M370.287,120.354c-11.173-32.763-25.543-63.438-49.574-88.89
		c24.818,0.768,91.031,40.987,109.189,66.438C410.914,107.655,391.182,115.013,370.287,120.354z"/>
	<path fill-rule="evenodd" clip-rule="evenodd" fill="#FFFFFF" d="M84.593,417.364c19.484-9.957,39.085-17.341,60.083-22.719
		c11.21,32.635,25.525,63.502,49.327,89.207C151.417,472.142,115.273,450.028,84.593,417.364z"/>
	<path fill-rule="evenodd" clip-rule="evenodd" fill="#FFFFFF" d="M84.916,97.805c22.542-28.014,75.607-60.339,109.833-66.902
		c-24.26,25.793-38.796,56.348-49.982,89.397C123.977,115.145,104.269,107.695,84.916,97.805z"/>
	<path fill-rule="evenodd" clip-rule="evenodd" fill="#FFFFFF" d="M320.914,483.932c23.69-25.67,38.166-56.342,49.34-89.237
		c20.8,5.14,40.392,12.677,60.188,22.605C399.813,450.036,363.571,472.114,320.914,483.932z"/>
</g>
</svg>
