<?xml version="1.0" encoding="utf-8"?>
<!-- Generator: Adobe Illustrator 16.0.0, SVG Export Plug-In . SVG Version: 6.00 Build 0)  -->
<!DOCTYPE svg PUBLIC "-//W3C//DTD SVG 1.1//EN" "http://www.w3.org/Graphics/SVG/1.1/DTD/svg11.dtd">
<svg version="1.1" id="Layer_1" xmlns="http://www.w3.org/2000/svg" xmlns:xlink="http://www.w3.org/1999/xlink" x="0px" y="0px"
	 width="512px" height="512px" viewBox="0 0 512 512" enable-background="new 0 0 512 512" xml:space="preserve">
<g>
	<line fill="none" stroke="#B35047" x1="32" y1="0" x2="32" y2="512"/>
	<line fill="none" stroke="#B35047" x1="64" y1="0" x2="64" y2="512"/>
	<line fill="none" stroke="#B35047" x1="96" y1="0" x2="96" y2="512"/>
	<line fill="none" stroke="#B35047" x1="128" y1="0" x2="128" y2="512"/>
	<line fill="none" stroke="#B35047" x1="160" y1="0" x2="160" y2="512"/>
	<line fill="none" stroke="#B35047" x1="192" y1="0" x2="192" y2="512"/>
	<line fill="none" stroke="#B35047" x1="224" y1="0" x2="224" y2="512"/>
	<line fill="none" stroke="#B35047" x1="256" y1="0" x2="256" y2="512"/>
	<line fill="none" stroke="#B35047" x1="288" y1="0" x2="288" y2="512"/>
	<line fill="none" stroke="#B35047" x1="320" y1="0" x2="320" y2="512"/>
	<line fill="none" stroke="#B35047" x1="352" y1="0" x2="352" y2="512"/>
	<line fill="none" stroke="#B35047" x1="384" y1="0" x2="384" y2="512"/>
	<line fill="none" stroke="#B35047" x1="416" y1="0" x2="416" y2="512"/>
	<line fill="none" stroke="#B35047" x1="448" y1="0" x2="448" y2="512"/>
	<line fill="none" stroke="#B35047" x1="480" y1="0" x2="480" y2="512"/>
	<line fill="none" stroke="#B35047" x1="0" y1="32" x2="512" y2="32"/>
	<line fill="none" stroke="#B35047" x1="0" y1="64" x2="512" y2="64"/>
	<line fill="none" stroke="#B35047" x1="0" y1="96" x2="512" y2="96"/>
	<line fill="none" stroke="#B35047" x1="0" y1="128" x2="512" y2="128"/>
	<line fill="none" stroke="#B35047" x1="0" y1="160" x2="512" y2="160"/>
	<line fill="none" stroke="#B35047" x1="0" y1="192" x2="512" y2="192"/>
	<line fill="none" stroke="#B35047" x1="0" y1="224" x2="512" y2="224"/>
	<line fill="none" stroke="#B35047" x1="0" y1="256" x2="512" y2="256"/>
	<line fill="none" stroke="#B35047" x1="0" y1="288" x2="512" y2="288"/>
	<line fill="none" stroke="#B35047" x1="0" y1="320" x2="512" y2="320"/>
	<line fill="none" stroke="#B35047" x1="0" y1="352" x2="512" y2="352"/>
	<line fill="none" stroke="#B35047" x1="0" y1="384" x2="512" y2="384"/>
	<line fill="none" stroke="#B35047" x1="0" y1="416" x2="512" y2="416"/>
	<line fill="none" stroke="#B35047" x1="0" y1="448" x2="512" y2="448"/>
	<line fill="none" stroke="#B35047" x1="0" y1="480" x2="512" y2="480"/>
	<rect fill="none" stroke="#B35047" width="512" height="512"/>
</g>
<g>
	<path display="none" fill-rule="evenodd" clip-rule="evenodd" fill="#FFFFFF" d="M512.5,513.5c-171,0.001-341.999,0-513,0.001
		c0.002-171.002,0-342.001,0-513.001c171-0.001,342.001-0.001,513,0C512.501,171.5,512.501,342.5,512.5,513.5z M267.423,394.521
		c-0.585-0.331-1.169-0.658-1.757-0.985c0-1.941,0.001-3.88,0.001-5.82c-0.001-96.805,0.005-193.605-0.027-290.41
		c0-2.475-0.036-5.055-0.697-7.406c-2.116-7.547-11.533-10.008-16.433-3.926c-2.131,2.648-3.044,6.973-3.052,10.537
		c-0.156,97.138-0.125,194.276-0.125,291.415c0,1.914,0,3.827,0,5.741c-0.687,0.46-1.37,0.92-2.056,1.377
		c-0.909-1.589-1.522-3.473-2.769-4.725c-28.695-28.799-57.449-57.54-86.236-86.247c-1.747-1.739-3.697-3.4-5.832-4.602
		c-4.602-2.585-10.201-0.854-12.93,3.691c-2.796,4.653-1.809,9.217,3.204,14.233c37.92,37.949,75.854,75.891,113.793,113.825
		c0.908,0.909,1.92,1.718,3.021,2.694c0.957-0.847,1.72-1.456,2.406-2.139c38.177-38.168,76.355-76.333,114.5-114.534
		c1.272-1.275,2.402-2.782,3.264-4.366c2.682-4.923,0.99-10.525-3.855-13.283c-4.544-2.585-9.215-1.456-14.221,3.546
		c-28.994,28.971-57.984,57.943-86.938,86.957C269.402,391.377,268.501,393.037,267.423,394.521z"/>
	<path fill-rule="evenodd" clip-rule="evenodd" d="M272.801,455.853c1.563-2.153,2.872-4.561,4.727-6.421
		c41.982-42.066,84.019-84.079,126.061-126.085c7.258-7.254,14.032-8.891,20.617-5.143c7.028,4.001,9.48,12.121,5.593,19.264
		c-1.248,2.295-2.886,4.479-4.732,6.329c-55.31,55.39-110.664,110.73-166.024,166.072c-0.995,0.994-2.103,1.875-3.487,3.104
		c-1.598-1.417-3.065-2.591-4.382-3.907c-55.01-55.006-110.014-110.018-165-165.048c-7.268-7.273-8.699-13.891-4.646-20.639
		c3.955-6.588,12.078-9.098,18.747-5.35c3.097,1.74,5.925,4.147,8.459,6.672c41.741,41.624,83.433,83.299,125.04,125.057
		c1.81,1.815,2.699,4.547,4.016,6.854c0.994-0.666,1.989-1.332,2.982-1.999c0-2.777,0-5.551,0-8.325
		c0-140.851-0.045-281.701,0.183-422.55c0.01-5.17,1.334-11.441,4.428-15.279c7.101-8.82,20.753-5.252,23.827,5.691
		c0.956,3.409,1.009,7.15,1.009,10.738c0.047,140.366,0.04,280.731,0.04,421.098c-0.001,2.811,0.001,5.623,0,8.436
		C271.105,454.896,271.954,455.374,272.801,455.853z"/>
</g>
</svg>
