<?xml version="1.0" encoding="utf-8"?>
<!-- Generator: Adobe Illustrator 16.0.0, SVG Export Plug-In . SVG Version: 6.00 Build 0)  -->
<!DOCTYPE svg PUBLIC "-//W3C//DTD SVG 1.1//EN" "http://www.w3.org/Graphics/SVG/1.1/DTD/svg11.dtd">
<svg version="1.1" id="Layer_1" xmlns="http://www.w3.org/2000/svg" xmlns:xlink="http://www.w3.org/1999/xlink" x="0px" y="0px"
	 width="512px" height="512px" viewBox="0 0 512 512" enable-background="new 0 0 512 512" xml:space="preserve">
<g>
	<line fill="none" stroke="#B35047" x1="32" y1="0" x2="32" y2="512"/>
	<line fill="none" stroke="#B35047" x1="64" y1="0" x2="64" y2="512"/>
	<line fill="none" stroke="#B35047" x1="96" y1="0" x2="96" y2="512"/>
	<line fill="none" stroke="#B35047" x1="128" y1="0" x2="128" y2="512"/>
	<line fill="none" stroke="#B35047" x1="160" y1="0" x2="160" y2="512"/>
	<line fill="none" stroke="#B35047" x1="192" y1="0" x2="192" y2="512"/>
	<line fill="none" stroke="#B35047" x1="224" y1="0" x2="224" y2="512"/>
	<line fill="none" stroke="#B35047" x1="256" y1="0" x2="256" y2="512"/>
	<line fill="none" stroke="#B35047" x1="288" y1="0" x2="288" y2="512"/>
	<line fill="none" stroke="#B35047" x1="320" y1="0" x2="320" y2="512"/>
	<line fill="none" stroke="#B35047" x1="352" y1="0" x2="352" y2="512"/>
	<line fill="none" stroke="#B35047" x1="384" y1="0" x2="384" y2="512"/>
	<line fill="none" stroke="#B35047" x1="416" y1="0" x2="416" y2="512"/>
	<line fill="none" stroke="#B35047" x1="448" y1="0" x2="448" y2="512"/>
	<line fill="none" stroke="#B35047" x1="480" y1="0" x2="480" y2="512"/>
	<line fill="none" stroke="#B35047" x1="0" y1="32" x2="512" y2="32"/>
	<line fill="none" stroke="#B35047" x1="0" y1="64" x2="512" y2="64"/>
	<line fill="none" stroke="#B35047" x1="0" y1="96" x2="512" y2="96"/>
	<line fill="none" stroke="#B35047" x1="0" y1="128" x2="512" y2="128"/>
	<line fill="none" stroke="#B35047" x1="0" y1="160" x2="512" y2="160"/>
	<line fill="none" stroke="#B35047" x1="0" y1="192" x2="512" y2="192"/>
	<line fill="none" stroke="#B35047" x1="0" y1="224" x2="512" y2="224"/>
	<line fill="none" stroke="#B35047" x1="0" y1="256" x2="512" y2="256"/>
	<line fill="none" stroke="#B35047" x1="0" y1="288" x2="512" y2="288"/>
	<line fill="none" stroke="#B35047" x1="0" y1="320" x2="512" y2="320"/>
	<line fill="none" stroke="#B35047" x1="0" y1="352" x2="512" y2="352"/>
	<line fill="none" stroke="#B35047" x1="0" y1="384" x2="512" y2="384"/>
	<line fill="none" stroke="#B35047" x1="0" y1="416" x2="512" y2="416"/>
	<line fill="none" stroke="#B35047" x1="0" y1="448" x2="512" y2="448"/>
	<line fill="none" stroke="#B35047" x1="0" y1="480" x2="512" y2="480"/>
	<rect fill="none" stroke="#B35047" width="512" height="512"/>
</g>
<g>
	<path display="none" fill-rule="evenodd" clip-rule="evenodd" fill="#FFFFFF" d="M256,619.746
		C135.084,498.831,14.17,377.916-106.747,257.001C14.171,136.085,135.084,15.169,256-105.747
		C376.915,15.168,497.831,136.084,618.745,256.999C497.831,377.916,376.916,498.831,256,619.746z M166.835,362.319
		c-0.18-0.647-0.361-1.292-0.546-1.938c1.373-1.373,2.744-2.743,4.116-4.115c68.451-68.452,136.903-136.896,205.332-205.37
		c1.75-1.75,3.548-3.6,4.743-5.73c3.84-6.832-1.078-15.231-8.843-14.396c-3.38,0.366-7.083,2.778-9.609,5.293
		c-68.797,68.576-137.463,137.285-206.15,205.973c-1.354,1.354-2.706,2.706-4.06,4.06c-0.811-0.16-1.619-0.318-2.428-0.48
		c0.481-1.766,1.379-3.531,1.383-5.299c0.073-40.654,0.064-81.31,0.008-121.964c-0.005-2.465-0.21-5.019-0.87-7.378
		c-1.426-5.082-6.61-7.816-11.753-6.532c-5.268,1.313-7.796,5.238-7.799,12.33c-0.02,53.647-0.025,107.3-0.023,160.95
		c0,1.285,0.143,2.572,0.231,4.041c1.275,0.078,2.246,0.188,3.213,0.189c53.984,0.006,107.967,0.016,161.951-0.024
		c1.802-0.002,3.666-0.269,5.396-0.779c5.377-1.585,8.143-6.742,6.666-12.119c-1.386-5.04-5.485-7.546-12.563-7.548
		c-40.987-0.017-81.974-0.029-122.962,0.014C170.458,361.496,168.646,362.032,166.835,362.319z"/>
	<path fill-rule="evenodd" clip-rule="evenodd" d="M127.27,409.489c2.627-0.417,5.255-1.193,7.882-1.197
		c59.432-0.06,118.863-0.043,178.294-0.018c10.261,0.003,16.209,3.636,18.215,10.942c2.141,7.799-1.867,15.274-9.667,17.576
		c-2.505,0.74-5.208,1.127-7.821,1.129c-78.276,0.057-156.55,0.047-234.828,0.034c-1.406-0.001-2.813-0.161-4.66-0.271
		c-0.128-2.132-0.335-4-0.336-5.861c-0.003-77.793,0.003-155.586,0.034-233.379c0.004-10.282,3.671-15.974,11.309-17.879
		c7.455-1.861,14.974,2.107,17.039,9.474c0.959,3.42,1.257,7.122,1.264,10.699c0.083,58.948,0.095,117.896-0.012,176.845
		c-0.004,2.563-1.307,5.124-2.007,7.686c1.174,0.232,2.349,0.465,3.522,0.695c1.964-1.964,3.925-3.925,5.887-5.887
		c99.596-99.596,199.161-199.225,298.917-298.658c3.663-3.648,9.034-7.146,13.935-7.674c11.259-1.215,18.39,10.962,12.824,20.873
		c-1.734,3.087-4.343,5.77-6.88,8.307C330.96,202.212,231.702,301.46,132.448,400.714c-1.988,1.986-3.976,3.977-5.965,5.965
		C126.747,407.615,127.01,408.553,127.27,409.489z"/>
</g>
</svg>
