<?xml version="1.0" encoding="utf-8"?>
<!-- Generator: Adobe Illustrator 17.0.0, SVG Export Plug-In . SVG Version: 6.00 Build 0)  -->
<!DOCTYPE svg PUBLIC "-//W3C//DTD SVG 1.1//EN" "http://www.w3.org/Graphics/SVG/1.1/DTD/svg11.dtd">
<svg version="1.1" id="Layer_1" xmlns="http://www.w3.org/2000/svg" xmlns:xlink="http://www.w3.org/1999/xlink" x="0px" y="0px"
	 width="512px" height="512px" viewBox="0 0 512 512" enable-background="new 0 0 512 512" xml:space="preserve">
<g>
	<line fill="none" stroke="#B35047" x1="32" y1="0" x2="32" y2="512"/>
	<line fill="none" stroke="#B35047" x1="64" y1="0" x2="64" y2="512"/>
	<line fill="none" stroke="#B35047" x1="96" y1="0" x2="96" y2="512"/>
	<line fill="none" stroke="#B35047" x1="128" y1="0" x2="128" y2="512"/>
	<line fill="none" stroke="#B35047" x1="160" y1="0" x2="160" y2="512"/>
	<line fill="none" stroke="#B35047" x1="192" y1="0" x2="192" y2="512"/>
	<line fill="none" stroke="#B35047" x1="224" y1="0" x2="224" y2="512"/>
	<line fill="none" stroke="#B35047" x1="256" y1="0" x2="256" y2="512"/>
	<line fill="none" stroke="#B35047" x1="288" y1="0" x2="288" y2="512"/>
	<line fill="none" stroke="#B35047" x1="320" y1="0" x2="320" y2="512"/>
	<line fill="none" stroke="#B35047" x1="352" y1="0" x2="352" y2="512"/>
	<line fill="none" stroke="#B35047" x1="384" y1="0" x2="384" y2="512"/>
	<line fill="none" stroke="#B35047" x1="416" y1="0" x2="416" y2="512"/>
	<line fill="none" stroke="#B35047" x1="448" y1="0" x2="448" y2="512"/>
	<line fill="none" stroke="#B35047" x1="480" y1="0" x2="480" y2="512"/>
	<line fill="none" stroke="#B35047" x1="0" y1="32" x2="512" y2="32"/>
	<line fill="none" stroke="#B35047" x1="0" y1="64" x2="512" y2="64"/>
	<line fill="none" stroke="#B35047" x1="0" y1="96" x2="512" y2="96"/>
	<line fill="none" stroke="#B35047" x1="0" y1="128" x2="512" y2="128"/>
	<line fill="none" stroke="#B35047" x1="0" y1="160" x2="512" y2="160"/>
	<line fill="none" stroke="#B35047" x1="0" y1="192" x2="512" y2="192"/>
	<line fill="none" stroke="#B35047" x1="0" y1="224" x2="512" y2="224"/>
	<line fill="none" stroke="#B35047" x1="0" y1="256" x2="512" y2="256"/>
	<line fill="none" stroke="#B35047" x1="0" y1="288" x2="512" y2="288"/>
	<line fill="none" stroke="#B35047" x1="0" y1="320" x2="512" y2="320"/>
	<line fill="none" stroke="#B35047" x1="0" y1="352" x2="512" y2="352"/>
	<line fill="none" stroke="#B35047" x1="0" y1="384" x2="512" y2="384"/>
	<line fill="none" stroke="#B35047" x1="0" y1="416" x2="512" y2="416"/>
	<line fill="none" stroke="#B35047" x1="0" y1="448" x2="512" y2="448"/>
	<line fill="none" stroke="#B35047" x1="0" y1="480" x2="512" y2="480"/>
	<rect x="0" fill="none" stroke="#B35047" width="512" height="512"/>
</g>
<image display="none" overflow="visible" width="512" height="512" xlink:href="../../../Knowledge/Icon/[+++++] (Full) iOS7 icons [icons8]/Sport_and_Activity/running/running-512.png" >
</image>
<g>
	<path display="none" fill="#FFFFFF" d="M0.546,513.5c0-170.928,0-341.855,0-512.891c170.84,0,341.726,0,512.783,0
		c0,170.891,0,341.891,0,512.891C342.509,513.5,171.55,513.5,0.546,513.5z M51.559,69.615c-1.876-5.161-3.216-9.621-5.128-13.82
		c-1.195-2.625-2.817-5.417-5.024-7.138c-3.638-2.837-7.842-2.424-11.531,0.441c-4.361,3.387-4.463,7.999-2.902,12.665
		c3.481,10.405,7.146,20.75,10.849,31.079c47.733,133.146,95.482,266.286,143.261,399.416c0.722,2.011,1.654,4.02,2.868,5.765
		c3.125,4.491,8.508,5.45,13.177,2.571c4.781-2.947,5.869-7.795,3.273-15.056c-15.345-42.91-30.662-85.83-46.151-128.687
		c-1.221-3.38-0.77-5.368,1.893-7.673c14.289-12.369,29.636-23.179,46.411-31.891c19.286-10.016,39.612-15.06,61.564-13.758
		c19.75,1.171,38.96,4.776,57.815,10.509c18.544,5.638,37.315,10.262,56.808,10.051c30.259-0.327,58.923-7.717,86.135-20.877
		c5.608-2.712,7.699-7.158,7.694-13.301c-0.081-88.146-0.063-176.292-0.036-264.439c0.002-5.061-0.674-9.83-5.698-12.35
		c-4.945-2.48-9.216-0.546-13.323,2.575c-15.188,11.541-31.656,20.86-49.339,28.037c-29.233,11.865-58.415,13.586-87.64-0.097
		c-12.201-5.712-24.488-11.243-36.799-16.713c-16.827-7.476-34.249-13.098-52.706-14.381c-41.513-2.886-81.17,4.839-119.074,21.826
		C87.797,43.403,69.199,54.996,51.559,69.615z"/>
	<path d="M53.519,64.043c18.061-14.968,37.104-26.839,57.745-36.089c38.81-17.393,79.415-25.303,121.92-22.348
		c18.898,1.314,36.737,7.07,53.966,14.725c12.606,5.601,25.187,11.264,37.679,17.112c29.924,14.009,59.803,12.248,89.735,0.099
		c18.106-7.349,34.967-16.89,50.518-28.707c4.205-3.195,8.578-5.176,13.641-2.637c5.144,2.58,5.836,7.464,5.834,12.645
		c-0.027,90.253-0.046,180.506,0.037,270.76c0.006,6.29-2.136,10.842-7.878,13.619c-27.863,13.475-57.212,21.042-88.194,21.376
		c-19.959,0.215-39.179-4.519-58.166-10.292c-19.306-5.87-38.975-9.561-59.197-10.76c-22.477-1.333-43.289,3.832-63.036,14.087
		c-17.176,8.92-32.89,19.989-47.521,32.654c-2.727,2.361-3.189,4.396-1.938,7.857c15.86,43.882,31.543,87.828,47.254,131.763
		c2.659,7.434,1.544,12.398-3.351,15.416c-4.78,2.947-10.292,1.965-13.492-2.633c-1.243-1.787-2.198-3.844-2.936-5.903
		C137.219,360.478,88.328,224.155,39.454,87.826C35.663,77.25,31.91,66.658,28.346,56.004c-1.599-4.778-1.493-9.5,2.972-12.968
		c3.778-2.934,8.082-3.357,11.807-0.452c2.26,1.762,3.92,4.621,5.144,7.308C50.226,54.192,51.597,58.759,53.519,64.043z
		 M279.711,204.185c22.089,5.351,44.178,10.703,67.017,16.235c-6.598-29.054-13.112-57.74-19.847-87.402
		c25.731,11.932,51.337,15.591,78.208,8.006c2.366,27.498,4.655,54.115,6.938,80.726c-15.707,2.212-31.421,4.139-47.308,1.855
		c-5.665-0.815-11.347-1.518-17.129-2.286c-0.079,1.063-0.236,1.574-0.133,2.026c5.717,25.052,11.384,50.117,17.366,75.107
		c0.375,1.567,3.178,3.531,4.942,3.627c10.524,0.57,21.078,0.914,31.614,0.777c5.495-0.071,10.974-1.281,16.63-1.997
		c-2.092-26.977-4.119-53.118-6.146-79.26c15.767-5.343,31.521-10.729,47.313-15.997c3.435-1.146,4.523-3.14,4.502-6.791
		c-0.161-26.947-0.083-53.896-0.099-80.845c-0.001-1.295-0.181-2.59-0.297-4.147c-9.599,5.311-18.58,10.831-28.036,15.36
		c-9.541,4.57-19.551,8.158-29.947,12.419c-2.153-26.473-4.188-51.505-6.275-77.169c-31.65,8.068-61.109,3.078-90.404-11.294
		c6.189,27.175,12.068,52.989,18.098,79.464c-24.143-9.981-46.696-22.387-73.209-26.104c3.5,13.201,6.642,25.212,9.873,37.199
		c5.448,20.208,10.954,40.4,16.434,60.597c-2.024-0.256-4.049-0.502-6.07-0.771c-24.433-3.25-48.603-2.967-72.183,5.338
		c-2.646,0.932-5.314,1.799-8.095,2.738c9.891,25.972,19.563,51.369,29.411,77.232c25.759-9.077,51.677-6.653,78.037-3.393
		c-0.599-2.427-0.984-4.071-1.412-5.705C292.909,254.547,286.31,229.366,279.711,204.185z M252.843,106.291
		c0.055-0.875,0.217-1.397,0.098-1.845c-6.595-24.849-13.272-49.677-19.758-74.555c-0.847-3.25-2.673-3.745-5.503-3.84
		c-18.82-0.632-37.479,0.668-55.955,4.368c-14.867,2.977-29.369,7.134-43.631,13.215c9.9,25.483,19.659,50.602,29.479,75.878
		c-25.465,10.713-48.754,23.59-69.356,41.133c11.531,32.177,22.952,64.049,34.636,96.654c21.904-18.591,44.334-35.009,70.551-45.852
		c-12.064-31.005-23.845-61.281-35.753-91.884C188.691,108.969,220.221,103.916,252.843,106.291z"/>
	<path display="none" fill="#FFFFFF" d="M401.704,223.646c-2.236-25.995-4.473-51.99-6.783-78.846
		c-26.244,7.408-51.252,3.835-76.383-7.819c6.578,28.97,12.94,56.986,19.384,85.361c-22.305-5.404-43.879-10.63-65.452-15.856
		l0.102,0.105c-5.353-19.727-10.731-39.448-16.052-59.184c-3.156-11.707-6.224-23.438-9.643-36.331
		c25.894,3.63,47.92,15.747,71.5,25.495c-5.889-25.857-11.631-51.068-17.676-77.609c28.612,14.036,57.383,18.91,88.294,11.031
		c2.038,25.064,4.026,49.513,6.128,75.367c10.153-4.161,19.93-7.665,29.248-12.129c9.235-4.424,18.007-9.814,27.382-15.001
		c0.113,1.521,0.289,2.785,0.29,4.05c0.016,26.319-0.06,52.639,0.097,78.957c0.021,3.566-1.042,5.513-4.397,6.632
		c-15.424,5.145-30.809,10.405-46.209,15.623L401.704,223.646z"/>
	<path display="none" fill="#FFFFFF" d="M246.23,110.877c-31.86-2.32-62.654,2.616-92.968,12.962
		c11.63,29.889,23.135,59.458,34.918,89.739c-25.605,10.589-47.511,26.624-68.904,44.781
		c-11.411-31.843-22.566-62.971-33.828-94.397c20.121-17.134,42.866-29.71,67.736-40.173c-9.591-24.686-19.122-49.218-28.791-74.107
		c13.929-5.939,28.092-9.999,42.612-12.907c18.044-3.614,36.268-4.884,54.649-4.266c2.764,0.093,4.547,0.577,5.375,3.751
		c6.335,24.297,12.856,48.545,19.297,72.815C246.442,109.512,246.284,110.023,246.23,110.877z"/>
	<path display="none" fill="#FFFFFF" d="M272.471,206.485c6.444,24.593,12.89,49.187,19.33,73.781
		c0.418,1.595,0.794,3.202,1.379,5.572c-25.745-3.184-51.058-5.551-76.215,3.314c-9.619-25.259-19.065-50.063-28.725-75.429
		c2.716-0.917,5.322-1.764,7.906-2.674c23.029-8.111,46.635-8.387,70.498-5.213c1.975,0.263,3.952,0.502,5.929,0.754
		C272.573,206.59,272.471,206.485,272.471,206.485z"/>
	<path display="none" fill="#FFFFFF" d="M401.537,223.492c1.98,25.531,3.96,51.063,6.003,77.409
		c-5.523,0.7-10.875,1.881-16.241,1.951c-10.291,0.133-20.598-0.202-30.876-0.759c-1.723-0.093-4.46-2.012-4.827-3.542
		c-5.842-24.406-11.377-48.886-16.961-73.353c-0.101-0.441,0.053-0.94,0.13-1.979c5.647,0.75,11.196,1.437,16.729,2.233
		c15.516,2.231,30.864,0.349,46.207-1.809C401.704,223.646,401.537,223.492,401.537,223.492z"/>
</g>
<g display="none">
	<path fill="#FFFFFF" d="M226.5,513.5c-75.333,0-150.667,0-226,0c0-171,0-342,0-513c171,0,342,0,513,0c0,171,0,342,0,513
		c-75,0-150,0-225,0c1.469-0.214,2.932-0.548,4.408-0.622c16.303-0.817,32.621-1.396,48.908-2.46
		c8.957-0.585,17.91-1.668,26.778-3.075c8.835-1.401,12.634-7.273,11.343-16.158c-1.722-11.851-8.045-21.139-17.949-26.996
		c-13.987-8.272-28.857-15.035-43.156-22.8c-7.702-4.183-15.207-8.811-22.409-13.804c-5.056-3.505-5.795-9.017-3.062-14.293
		c2.578-4.976,5.825-9.654,9.167-14.174c5.338-7.22,11.455-13.896,16.442-21.338c19.724-29.439,32.325-62.176,43.424-95.566
		c1.4-4.211,2.645-8.472,4.334-13.906c2.808,10.712,8.057,18.107,17.006,22.264c7.258,3.372,14.89-2.077,13.612-9.964
		c-0.494-3.05-2.933-6.198-5.3-8.445c-4.813-4.569-5.947-7.213-3.588-13.154c0.973-2.45,2.063-5.031,3.75-6.991
		c10.848-12.601,21.77-25.141,32.87-37.521c16.668-18.591,34.307-36.378,50.037-55.723c15.728-19.343,26.329-41.403,28.106-67.091
		c2.277-32.904-17.947-60.292-50.135-67.278c-20.957-4.548-40.972-1.66-60.557,6.351c-2.24,0.916-4.798,1.483-7.21,1.485
		c-85.147,0.075-170.294,0.077-255.44-0.006c-2.568-0.002-5.282-0.649-7.679-1.614c-18.122-7.297-36.731-10.695-56.161-6.975
		C44.634,27.742,27.2,37.801,17.851,58.401c-8.791,19.371-7.567,39.267-0.995,58.976c7.243,21.722,20.176,40.181,35.279,56.934
		c17.953,19.913,37.123,38.725,55.257,58.481c6.922,7.542,12.965,16.046,18.413,24.735c3.952,6.303,2.361,9.81-3.117,14.798
		c-2.111,1.922-4.146,4.476-4.977,7.13c-1.29,4.118,0.273,7.86,4.004,10.405c4.159,2.837,8.282,2.028,12.138-0.49
		c7.073-4.619,11.793-11.111,14.258-20.049c0.685,1.643,1.029,2.387,1.311,3.155c7.659,20.912,14.664,42.094,23.15,62.664
		c8.388,20.333,19.088,39.543,33.176,56.695c5.47,6.66,10.909,13.464,15.352,20.813c3.866,6.395,2.997,11.675-3.168,15.793
		c-9.474,6.327-19.764,11.45-29.803,16.908c-11.814,6.424-24.067,12.115-35.497,19.149c-9.337,5.746-15.532,14.478-17.392,25.712
		c-1.686,10.179,1.996,15.94,12.16,17.232c13.696,1.74,27.47,2.947,41.24,3.993C201.238,512.394,213.878,512.833,226.5,513.5z"/>
	<path display="inline" d="M224.365,506.783c-12.884-0.681-25.786-1.129-38.647-2.107c-14.055-1.068-28.115-2.3-42.095-4.076
		c-10.374-1.318-14.132-7.199-12.412-17.589c1.899-11.467,8.222-20.38,17.753-26.245c11.668-7.181,24.174-12.989,36.233-19.546
		c10.247-5.572,20.751-10.801,30.421-17.259c6.293-4.202,7.18-9.593,3.234-16.12c-4.535-7.502-10.087-14.447-15.671-21.245
		c-14.38-17.508-25.302-37.116-33.864-57.87c-8.662-20.997-15.811-42.618-23.63-63.964c-0.287-0.784-0.639-1.544-1.338-3.22
		c-2.516,9.124-7.335,15.75-14.554,20.465c-3.936,2.57-8.144,3.396-12.39,0.5c-3.809-2.597-5.404-6.417-4.088-10.62
		c0.849-2.709,2.925-5.316,5.081-7.278c5.592-5.092,7.216-8.671,3.182-15.105c-5.561-8.87-11.729-17.55-18.795-25.248
		c-18.51-20.166-38.077-39.368-56.402-59.694c-15.416-17.1-28.617-35.942-36.011-58.114C3.665,82.328,2.416,62.02,11.389,42.247
		C20.932,21.219,38.728,10.952,60.573,6.77c19.833-3.797,38.828-0.328,57.326,7.12c2.447,0.985,5.217,1.645,7.838,1.648
		c86.912,0.084,173.825,0.082,260.737,0.006c2.461-0.002,5.073-0.581,7.359-1.516c19.991-8.177,40.422-11.125,61.813-6.483
		c32.856,7.131,53.5,35.087,51.175,68.673c-1.815,26.22-12.635,48.737-28.689,68.482c-16.056,19.747-34.061,37.902-51.074,56.879
		c-11.329,12.637-22.479,25.437-33.551,38.299c-1.723,2.001-2.835,4.635-3.828,7.136c-2.408,6.064-1.25,8.764,3.663,13.427
		c2.416,2.293,4.906,5.507,5.41,8.62c1.304,8.051-6.486,13.613-13.895,10.171c-9.134-4.244-14.491-11.792-17.358-22.726
		c-1.724,5.546-2.995,9.896-4.424,14.194c-11.329,34.082-24.191,67.499-44.324,97.548c-5.09,7.597-11.334,14.411-16.783,21.781
		c-3.412,4.615-6.727,9.389-9.358,14.468c-2.79,5.386-2.035,11.012,3.126,14.59c7.351,5.096,15.012,9.821,22.874,14.09
		c14.595,7.926,29.774,14.83,44.051,23.273c10.109,5.979,16.564,15.46,18.321,27.556c1.318,9.069-2.56,15.062-11.579,16.493
		c-9.052,1.436-18.19,2.541-27.333,3.138c-16.624,1.086-33.281,1.677-49.922,2.511c-1.506,0.075-3,0.417-4.499,0.635
		C266.555,506.783,245.46,506.783,224.365,506.783z M130.936,36.592c0,1.765-0.031,3.092,0.004,4.417
		c1.642,60.741,10.486,120.486,25.213,179.373c10.201,40.789,23.134,80.634,42.888,117.963
		c7.747,14.641,16.859,28.303,28.812,39.959c17.297,16.867,34.706,18.078,52.819,2.17c7.695-6.759,14.471-14.925,20.288-23.397
		c19.126-27.85,31.384-59.051,41.579-90.979c23.24-72.78,36.085-147.426,38.478-223.828c0.057-1.81,0.007-3.623,0.007-5.678
		C297.568,36.592,214.622,36.592,130.936,36.592z M375.733,228.134c3.165-4.165,5.707-8.199,8.911-11.611
		c17.697-18.841,36.052-37.091,53.192-56.421c12.249-13.813,23.69-28.492,34.117-43.727c9.955-14.546,14.83-31.154,13.766-49.2
		c-1.038-17.598-11.349-31.215-27.9-37.137c-17.795-6.368-35.086-4.152-52.398,1.755c-3.137,1.07-3.402,3.099-3.441,5.838
		c-0.687,48.086-6.676,95.599-15.87,142.732C383.029,196.162,379.294,211.832,375.733,228.134z M136.161,227.764
		c-0.111-1.049-0.107-1.386-0.185-1.704c-15.341-62.246-24.885-125.29-25.916-189.486c-0.05-3.099-1.514-4.377-3.994-4.904
		c-9.11-1.938-18.192-4.873-27.391-5.336c-15.709-0.791-30.744,2.805-41.839,14.959c-12.323,13.499-12.483,29.978-8.763,46.635
		c5.127,22.957,18.967,41.146,33.683,58.643C85.273,174.534,113.995,197.737,136.161,227.764z M357.148,481.477
		c0.378-0.654,0.755-1.308,1.133-1.962c-5.214-3.835-10.059-8.365-15.717-11.36c-11.84-6.267-24.208-11.527-36.177-17.562
		c-17.146-8.647-34.352-17.411-36.429-38.805c-9.524,0-18.582,0-28.039,0c-0.278,10.58-5.901,19.223-14.498,26.001
		c-4.243,3.346-8.814,6.443-13.636,8.857c-14.718,7.368-29.737,14.139-44.412,21.588c-5.778,2.933-11.486,6.437-15.419,13.171
		C222.171,487.22,289.656,487.262,357.148,481.477z"/>
	<path fill="#FFFFFF" d="M134.969,52.861c81.986,0,163.247,0,245.008,0c0,2.014,0.049,3.79-0.007,5.563
		c-2.344,74.85-14.928,147.98-37.696,219.281c-9.988,31.28-21.997,61.846-40.735,89.131c-5.7,8.299-12.337,16.3-19.876,22.921
		c-17.745,15.586-34.8,14.399-51.746-2.125c-11.711-11.419-20.637-24.804-28.227-39.148
		c-19.352-36.572-32.023-75.607-42.016-115.567c-14.428-57.691-23.093-116.222-24.701-175.729
		C134.938,55.89,134.969,54.59,134.969,52.861z M276.397,124.642c-7.604,0-14.588-0.148-21.555,0.139
		c-1.227,0.05-2.995,1.689-3.469,2.979c-3.845,10.464-11.061,17.31-21.702,20.294c-4.762,1.335-9.757,1.839-14.844,2.756
		c0,6.684,0,13.428,0,20.792c10.307,0,20.352,0,30.857,0c0,27.513,0,54.408,0,81.312c10.541,0,20.591,0,30.712,0
		C276.397,210.097,276.397,167.673,276.397,124.642z"/>
	<path fill="#FFFFFF" d="M374.793,240.512c3.489-15.97,7.148-31.322,10.167-46.799c9.008-46.176,14.874-92.723,15.548-139.833
		c0.038-2.683,0.298-4.671,3.371-5.72c16.959-5.787,33.9-7.958,51.333-1.72c16.214,5.802,26.316,19.143,27.333,36.383
		c1.043,17.679-3.733,33.95-13.486,48.2c-10.215,14.925-21.424,29.306-33.424,42.838c-16.793,18.937-34.774,36.816-52.112,55.274
		C380.384,232.479,377.894,236.431,374.793,240.512z"/>
	<path fill="#FFFFFF" d="M140.088,240.15c-21.715-29.417-49.854-52.149-72.894-79.543c-14.417-17.141-27.975-34.961-32.998-57.452
		c-3.645-16.319-3.488-32.463,8.585-45.688c10.87-11.908,25.6-15.43,40.989-14.655c9.011,0.454,17.909,3.329,26.834,5.228
		c2.429,0.517,3.864,1.769,3.912,4.805c1.011,62.892,10.361,124.655,25.39,185.637C139.983,238.792,139.98,239.123,140.088,240.15z"
		/>
	<path fill="#FFFFFF" d="M356.586,488.709c-66.121,5.667-132.236,5.626-199.066-0.071c3.853-6.597,9.445-10.03,15.106-12.903
		c14.378-7.297,29.091-13.931,43.51-21.149c4.723-2.365,9.201-5.4,13.359-8.677c8.423-6.641,13.931-15.108,14.204-25.473
		c9.265,0,18.139,0,27.469,0c2.035,20.959,18.891,29.545,35.689,38.016c11.726,5.913,23.843,11.066,35.442,17.206
		c5.543,2.934,10.29,7.372,15.398,11.13C357.326,487.427,356.956,488.068,356.586,488.709z"/>
	<path display="inline" d="M275.296,109.862c0,43.923,0,87.227,0,130.932c-10.331,0-20.59,0-31.349,0c0-27.462,0-54.914,0-82.998
		c-10.723,0-20.976,0-31.497,0c0-7.517,0-14.401,0-21.223c5.192-0.936,10.291-1.45,15.152-2.813
		c10.861-3.046,18.226-10.035,22.152-20.715c0.484-1.316,2.288-2.989,3.541-3.04C260.405,109.711,267.535,109.862,275.296,109.862z"
		/>
</g>
</svg>
