<?xml version="1.0" encoding="utf-8"?>
<!-- Generator: Adobe Illustrator 16.0.0, SVG Export Plug-In . SVG Version: 6.00 Build 0)  -->
<!DOCTYPE svg PUBLIC "-//W3C//DTD SVG 1.1//EN" "http://www.w3.org/Graphics/SVG/1.1/DTD/svg11.dtd">
<svg version="1.1" id="Layer_1" xmlns="http://www.w3.org/2000/svg" xmlns:xlink="http://www.w3.org/1999/xlink" x="0px" y="0px"
	 width="512px" height="512px" viewBox="0 0 512 512" enable-background="new 0 0 512 512" xml:space="preserve">
<g>
	<line fill="none" stroke="#B35047" x1="32" y1="0" x2="32" y2="512"/>
	<line fill="none" stroke="#B35047" x1="64" y1="0" x2="64" y2="512"/>
	<line fill="none" stroke="#B35047" x1="96" y1="0" x2="96" y2="512"/>
	<line fill="none" stroke="#B35047" x1="128" y1="0" x2="128" y2="512"/>
	<line fill="none" stroke="#B35047" x1="160" y1="0" x2="160" y2="512"/>
	<line fill="none" stroke="#B35047" x1="192" y1="0" x2="192" y2="512"/>
	<line fill="none" stroke="#B35047" x1="224" y1="0" x2="224" y2="512"/>
	<line fill="none" stroke="#B35047" x1="256" y1="0" x2="256" y2="512"/>
	<line fill="none" stroke="#B35047" x1="288" y1="0" x2="288" y2="512"/>
	<line fill="none" stroke="#B35047" x1="320" y1="0" x2="320" y2="512"/>
	<line fill="none" stroke="#B35047" x1="352" y1="0" x2="352" y2="512"/>
	<line fill="none" stroke="#B35047" x1="384" y1="0" x2="384" y2="512"/>
	<line fill="none" stroke="#B35047" x1="416" y1="0" x2="416" y2="512"/>
	<line fill="none" stroke="#B35047" x1="448" y1="0" x2="448" y2="512"/>
	<line fill="none" stroke="#B35047" x1="480" y1="0" x2="480" y2="512"/>
	<line fill="none" stroke="#B35047" x1="0" y1="32" x2="512" y2="32"/>
	<line fill="none" stroke="#B35047" x1="0" y1="64" x2="512" y2="64"/>
	<line fill="none" stroke="#B35047" x1="0" y1="96" x2="512" y2="96"/>
	<line fill="none" stroke="#B35047" x1="0" y1="128" x2="512" y2="128"/>
	<line fill="none" stroke="#B35047" x1="0" y1="160" x2="512" y2="160"/>
	<line fill="none" stroke="#B35047" x1="0" y1="192" x2="512" y2="192"/>
	<line fill="none" stroke="#B35047" x1="0" y1="224" x2="512" y2="224"/>
	<line fill="none" stroke="#B35047" x1="0" y1="256" x2="512" y2="256"/>
	<line fill="none" stroke="#B35047" x1="0" y1="288" x2="512" y2="288"/>
	<line fill="none" stroke="#B35047" x1="0" y1="320" x2="512" y2="320"/>
	<line fill="none" stroke="#B35047" x1="0" y1="352" x2="512" y2="352"/>
	<line fill="none" stroke="#B35047" x1="0" y1="384" x2="512" y2="384"/>
	<line fill="none" stroke="#B35047" x1="0" y1="416" x2="512" y2="416"/>
	<line fill="none" stroke="#B35047" x1="0" y1="448" x2="512" y2="448"/>
	<line fill="none" stroke="#B35047" x1="0" y1="480" x2="512" y2="480"/>
	<rect fill="none" stroke="#B35047" width="512" height="512"/>
</g>
<image display="none" overflow="visible" width="512" height="512" xlink:href="../../../Knowledge/Icon/[+++++] (Full) iOS7 icons [icons8]/Maps_and_Locations/directions/directions-512.png"  transform="matrix(1 0 0 1 -2.667 0)">
</image>
<image display="none" overflow="visible" width="512" height="512" xlink:href="../../../Knowledge/Icon/[+++++] (Full) iOS7 icons [icons8]/Maps_and_Locations/compas/compas-512.png"  transform="matrix(1 0 0 1 -2.667 0)">
</image>
<image display="none" overflow="visible" width="512" height="512" xlink:href="../../../Knowledge/Icon/[+++++] (Full) iOS7 icons [icons8]/Maps_and_Locations/near_me/near_me-512.png"  transform="matrix(1 0 0 1 -2.667 0)">
</image>
<g>
	<path fill-rule="evenodd" clip-rule="evenodd" d="M270.464,508.939c-9.9,0-19.8,0-29.7,0c-1.442-0.289-2.873-0.74-4.328-0.842
		c-30.417-2.129-59.345-9.887-87.075-22.504C51.969,441.281-8.108,336.225,3.408,229.98c5.839-53.875,26.15-101.628,62.296-142.069
		C114.202,33.652,175.277,5,247.944,2.255c49.125-1.855,95.317,9.939,137.311,35.626c65.43,40.023,105.57,97.969,119.801,173.513
		c1.818,9.66,2.688,19.5,3.998,29.255c0,9.9,0,19.8,0,29.699c-0.287,1.419-0.736,2.824-0.838,4.256
		c-2.834,39.834-14.318,77.078-35.236,111.004c-40.229,65.248-98.139,105.336-173.693,119.393
		C289.764,506.773,280.075,507.65,270.464,508.939z M123.94,245.212c0.95-35.973,5.291-71.14,13.974-104.554
		c-22.892-8.894-45.053-17.503-67.855-26.361c-28.761,37.951-44.903,81.7-47.313,130.916
		C56.738,245.212,89.973,245.212,123.94,245.212z M387.28,245.103c34.004,0,67.371,0,101.234,0
		c-2.547-49.251-18.6-93.019-47.361-130.777c-23.09,8.957-45.229,17.545-67.871,26.329
		C382.056,174.223,386.317,209.273,387.28,245.103z M22.707,265.777c2.537,49.338,18.61,93.053,47.36,130.926
		c22.882-8.877,45.156-17.518,67.897-26.34c-8.888-33.756-13-68.943-14.079-104.586C90.002,265.777,56.767,265.777,22.707,265.777z
		 M488.519,265.939c-34.246,0-67.641,0-100.549,0c-1.615,17.975-2.594,35.616-4.936,53.074c-2.359,17.584-6.074,34.986-9.035,51.57
		c22.086,8.582,44.268,17.201,67.168,26.098C469.915,358.861,485.974,315.119,488.519,265.939z M245.218,245.173
		c0-30.718,0-60.823,0-89.93c-29.314-3.279-58.192-6.508-87.557-9.791c-8.304,32.098-12.765,65.506-13.177,99.721
		C178.443,245.173,211.677,245.173,245.218,245.173z M366.8,245.156c-0.582-34.341-4.887-67.687-13.238-99.67
		c-29.455,3.278-58.462,6.505-87.58,9.745c0,29.432,0,59.54,0,89.926C299.516,245.156,332.749,245.156,366.8,245.156z
		 M144.429,265.854c0.574,34.313,4.886,67.655,13.233,99.663c29.438-3.277,58.445-6.508,87.594-9.754c0-29.404,0-59.513,0-89.909
		C211.732,265.854,178.5,265.854,144.429,265.854z M265.915,355.717c29.588,3.313,58.457,6.543,87.686,9.816
		c8.234-32.158,12.734-65.46,13.141-99.623c-33.875,0-67.233,0-100.826,0C265.915,296.361,265.915,326.467,265.915,355.717z
		 M245.303,23.564c-2.069,0.478-3.819,0.767-5.497,1.286c-14.683,4.551-25.989,14.007-35.979,25.205
		c-14.549,16.309-24.601,35.364-32.988,55.355c-2.571,6.128-4.618,12.475-7.05,19.12c27.423,5.633,54.271,8.541,81.513,9.07
		C245.303,96.56,245.303,60.34,245.303,23.564z M265.875,487.422c1.949-0.43,3.228-0.641,4.465-0.992
		c15.352-4.355,27.044-14.121,37.286-25.771c17.118-19.477,28.299-42.334,37.07-66.498c0.875-2.414,1.639-4.871,2.457-7.311
		c-15.951-4.975-71.744-10.908-81.278-8.678C265.875,414.357,265.875,450.588,265.875,487.422z M346.976,124.23
		c-0.148-0.945-0.152-1.622-0.363-2.226c-7.711-22.009-17.194-43.167-31.136-62.009c-8.874-11.993-18.976-22.908-32.357-30.034
		c-5.259-2.8-11.026-4.642-17.104-7.143c0,37.662,0,74.006,0,110.31C279.075,134.701,331.288,128.96,346.976,124.23z
		 M164.35,386.723c0.058,0.779-0.009,1.303,0.144,1.75c7.678,22.383,17.357,43.801,31.532,62.891
		c8.797,11.844,18.82,22.605,32.044,29.654c5.26,2.805,11.03,4.652,17.158,7.178c0-37.654,0-73.994,0-110.289
		C232.694,376.266,180.485,381.971,164.35,386.723z M367.272,119.725c20.686-5.287,40.221-12.571,59.02-22.227
		c-17.977-25.197-83.527-65.014-108.098-65.774C341.985,56.922,356.212,87.29,367.272,119.725z M84.436,413.766
		c30.373,32.338,66.156,54.23,108.316,65.824c-23.564-25.449-37.735-56.008-48.834-88.316
		C123.13,396.598,103.726,403.908,84.436,413.766z M84.755,97.402c19.16,9.792,38.67,17.167,59.252,22.27
		c11.074-32.719,25.465-62.968,49.483-88.503C159.606,37.667,107.071,69.668,84.755,97.402z M318.394,479.668
		c42.23-11.699,78.109-33.557,108.434-65.967c-19.6-9.828-38.996-17.291-59.588-22.379
		C356.179,423.889,341.847,454.254,318.394,479.668z"/>
	<path display="none" fill-rule="evenodd" clip-rule="evenodd" fill="#FFFFFF" d="M513.5,242.5
		c-1.323-9.854-2.201-19.793-4.039-29.551c-14.374-76.308-54.92-134.838-121.011-175.266
		c-42.418-25.947-89.075-37.86-138.697-35.986C176.352,4.469,114.66,33.411,65.672,88.219
		C29.161,129.067,8.645,177.304,2.747,231.723C-8.886,339.04,51.798,445.158,150.174,489.918
		c28.01,12.744,57.23,20.581,87.955,22.73c1.47,0.104,2.915,0.56,4.372,0.852c-80.64,0-161.28,0-241.96,0
		c0-170.917,0-341.833,0-512.875c170.96,0,341.96,0,512.96,0C513.5,81.22,513.5,161.86,513.5,242.5z"/>
	<path display="none" fill-rule="evenodd" clip-rule="evenodd" fill="#FFFFFF" d="M272.5,513.5
		c9.709-1.304,19.495-2.189,29.113-3.979c76.318-14.197,134.813-54.69,175.449-120.599c21.129-34.269,32.729-71.889,35.591-112.125
		c0.103-1.445,0.557-2.865,0.847-4.298c0,80.333,0,160.667,0,241C433.167,513.5,352.833,513.5,272.5,513.5z"/>
	<path display="none" fill-rule="evenodd" clip-rule="evenodd" fill="#FFFFFF" d="M124.497,247.108c-34.31,0-67.881,0-102.217,0
		c2.435-49.713,18.74-93.903,47.792-132.238c23.033,8.948,45.417,17.645,68.541,26.628
		C129.841,175.25,125.456,210.772,124.497,247.108z"/>
	<path display="none" fill-rule="evenodd" clip-rule="evenodd" fill="#FFFFFF" d="M390.497,246.997
		c-0.974-36.191-5.277-71.596-14.14-105.503c22.871-8.872,45.234-17.548,68.557-26.595c29.052,38.14,45.268,82.35,47.839,132.098
		C458.549,246.997,424.845,246.997,390.497,246.997z"/>
	<path display="none" fill-rule="evenodd" clip-rule="evenodd" fill="#FFFFFF" d="M22.241,267.881c34.404,0,67.976,0,102.2,0
		c1.09,36.002,5.243,71.546,14.221,105.642c-22.971,8.912-45.47,17.641-68.583,26.607C41.039,361.873,24.804,317.718,22.241,267.881
		z"/>
	<path display="none" fill-rule="evenodd" clip-rule="evenodd" fill="#FFFFFF" d="M492.757,268.044
		c-2.569,49.678-18.791,93.86-47.829,132.064c-23.131-8.987-45.537-17.693-67.846-26.361c2.99-16.752,6.742-34.33,9.125-52.092
		c2.366-17.635,3.355-35.454,4.986-53.611C424.435,268.044,458.165,268.044,492.757,268.044z"/>
	<path display="none" fill-rule="evenodd" clip-rule="evenodd" fill="#FFFFFF" d="M246.999,247.068c-33.879,0-67.449,0-101.75,0
		c0.416-34.561,4.921-68.307,13.31-100.729c29.661,3.316,58.831,6.578,88.441,9.89C246.999,185.631,246.999,216.04,246.999,247.068z
		"/>
	<path display="none" fill-rule="evenodd" clip-rule="evenodd" fill="#FFFFFF" d="M369.81,247.051c-34.396,0-67.964,0-101.837,0
		c0-30.692,0-61.104,0-90.834c29.412-3.272,58.712-6.532,88.465-9.843C364.873,178.681,369.222,212.363,369.81,247.051z"/>
	<path display="none" fill-rule="evenodd" clip-rule="evenodd" fill="#FFFFFF" d="M145.192,267.959c34.416,0,67.983,0,101.845,0
		c0,30.703,0,61.115,0,90.817c-29.443,3.278-58.743,6.541-88.479,9.852C150.128,336.298,145.772,302.618,145.192,267.959z"/>
	<path display="none" fill-rule="evenodd" clip-rule="evenodd" fill="#FFFFFF" d="M267.906,358.729c0-29.546,0-59.956,0-90.714
		c33.932,0,67.627,0,101.844,0c-0.41,34.508-4.955,68.146-13.273,100.628C326.953,365.339,297.793,362.074,267.906,358.729z"/>
	<path display="none" fill-rule="evenodd" clip-rule="evenodd" fill="#FFFFFF" d="M247.085,23.221c0,37.147,0,73.733,0,111.147
		c-27.517-0.535-54.637-3.472-82.336-9.162c2.457-6.712,4.525-13.123,7.122-19.313c8.472-20.193,18.625-39.441,33.321-55.915
		c10.09-11.311,21.511-20.862,36.342-25.459C243.228,23.995,244.996,23.703,247.085,23.221z"/>
	<path display="none" fill-rule="evenodd" clip-rule="evenodd" fill="#FFFFFF" d="M267.865,491.764c0-37.205,0-73.803,0-110.354
		c9.631-2.252,65.987,3.741,82.1,8.766c-0.826,2.465-1.598,4.945-2.482,7.384c-8.86,24.408-20.153,47.498-37.444,67.17
		c-10.346,11.769-22.156,21.634-37.663,26.032C271.125,491.116,269.834,491.331,267.865,491.764z"/>
	<path display="none" fill-rule="evenodd" clip-rule="evenodd" fill="#FFFFFF" d="M349.784,124.904
		c-15.846,4.777-68.585,10.576-81.778,8.988c0-36.67,0-73.382,0-111.424c6.14,2.526,11.966,4.387,17.277,7.215
		c13.518,7.197,23.721,18.223,32.685,30.337c14.082,19.032,23.661,40.404,31.449,62.636
		C349.631,123.266,349.635,123.949,349.784,124.904z"/>
	<path display="none" fill-rule="evenodd" clip-rule="evenodd" fill="#FFFFFF" d="M165.314,390.049
		c16.298-4.802,69.035-10.563,81.695-8.907c0,36.663,0,73.37,0,111.404c-6.19-2.552-12.018-4.418-17.331-7.25
		c-13.358-7.12-23.482-17.99-32.368-29.955c-14.318-19.282-24.096-40.916-31.851-63.525
		C165.305,391.363,165.373,390.836,165.314,390.049z"/>
	<path display="none" fill-rule="evenodd" clip-rule="evenodd" fill="#FFFFFF" d="M370.287,120.354
		c-11.173-32.763-25.543-63.438-49.574-88.89c24.818,0.768,91.031,40.987,109.189,66.438
		C410.914,107.655,391.182,115.013,370.287,120.354z"/>
	<path display="none" fill-rule="evenodd" clip-rule="evenodd" fill="#FFFFFF" d="M84.593,417.364
		c19.484-9.957,39.085-17.341,60.083-22.719c11.21,32.635,25.525,63.502,49.327,89.207
		C151.417,472.142,115.273,450.028,84.593,417.364z"/>
	<path display="none" fill-rule="evenodd" clip-rule="evenodd" fill="#FFFFFF" d="M84.916,97.805
		c22.542-28.014,75.607-60.339,109.833-66.902c-24.26,25.793-38.796,56.348-49.982,89.397
		C123.977,115.145,104.269,107.695,84.916,97.805z"/>
	<path display="none" fill-rule="evenodd" clip-rule="evenodd" fill="#FFFFFF" d="M320.914,483.932
		c23.69-25.67,38.166-56.342,49.34-89.237c20.8,5.14,40.392,12.677,60.188,22.605C399.813,450.036,363.571,472.114,320.914,483.932z
		"/>
</g>
</svg>
