<?xml version="1.0" encoding="utf-8"?>
<!-- Generator: Adobe Illustrator 17.0.0, SVG Export Plug-In . SVG Version: 6.00 Build 0)  -->
<!DOCTYPE svg PUBLIC "-//W3C//DTD SVG 1.1//EN" "http://www.w3.org/Graphics/SVG/1.1/DTD/svg11.dtd">
<svg version="1.1" id="Layer_1" xmlns="http://www.w3.org/2000/svg" xmlns:xlink="http://www.w3.org/1999/xlink" x="0px" y="0px"
	 width="512px" height="512px" viewBox="0 0 512 512" enable-background="new 0 0 512 512" xml:space="preserve">
<g>
	<line fill="none" stroke="#B35047" x1="32" y1="0" x2="32" y2="512"/>
	<line fill="none" stroke="#B35047" x1="64" y1="0" x2="64" y2="512"/>
	<line fill="none" stroke="#B35047" x1="96" y1="0" x2="96" y2="512"/>
	<line fill="none" stroke="#B35047" x1="128" y1="0" x2="128" y2="512"/>
	<line fill="none" stroke="#B35047" x1="160" y1="0" x2="160" y2="512"/>
	<line fill="none" stroke="#B35047" x1="192" y1="0" x2="192" y2="512"/>
	<line fill="none" stroke="#B35047" x1="224" y1="0" x2="224" y2="512"/>
	<line fill="none" stroke="#B35047" x1="256" y1="0" x2="256" y2="512"/>
	<line fill="none" stroke="#B35047" x1="288" y1="0" x2="288" y2="512"/>
	<line fill="none" stroke="#B35047" x1="320" y1="0" x2="320" y2="512"/>
	<line fill="none" stroke="#B35047" x1="352" y1="0" x2="352" y2="512"/>
	<line fill="none" stroke="#B35047" x1="384" y1="0" x2="384" y2="512"/>
	<line fill="none" stroke="#B35047" x1="416" y1="0" x2="416" y2="512"/>
	<line fill="none" stroke="#B35047" x1="448" y1="0" x2="448" y2="512"/>
	<line fill="none" stroke="#B35047" x1="480" y1="0" x2="480" y2="512"/>
	<line fill="none" stroke="#B35047" x1="0" y1="32" x2="512" y2="32"/>
	<line fill="none" stroke="#B35047" x1="0" y1="64" x2="512" y2="64"/>
	<line fill="none" stroke="#B35047" x1="0" y1="96" x2="512" y2="96"/>
	<line fill="none" stroke="#B35047" x1="0" y1="128" x2="512" y2="128"/>
	<line fill="none" stroke="#B35047" x1="0" y1="160" x2="512" y2="160"/>
	<line fill="none" stroke="#B35047" x1="0" y1="192" x2="512" y2="192"/>
	<line fill="none" stroke="#B35047" x1="0" y1="224" x2="512" y2="224"/>
	<line fill="none" stroke="#B35047" x1="0" y1="256" x2="512" y2="256"/>
	<line fill="none" stroke="#B35047" x1="0" y1="288" x2="512" y2="288"/>
	<line fill="none" stroke="#B35047" x1="0" y1="320" x2="512" y2="320"/>
	<line fill="none" stroke="#B35047" x1="0" y1="352" x2="512" y2="352"/>
	<line fill="none" stroke="#B35047" x1="0" y1="384" x2="512" y2="384"/>
	<line fill="none" stroke="#B35047" x1="0" y1="416" x2="512" y2="416"/>
	<line fill="none" stroke="#B35047" x1="0" y1="448" x2="512" y2="448"/>
	<line fill="none" stroke="#B35047" x1="0" y1="480" x2="512" y2="480"/>
	<rect x="0" fill="none" stroke="#B35047" width="512" height="512"/>
</g>
<g display="none">
	<path fill="#FFFFFF" d="M513.5,301.5c0,70.667,0,141.333,0,212c-171,0-342,0-513,0c0-171,0-342,0-513c171,0,342,0,513,0
		c0,90.667,0,181.333,0,272c-0.285-1.108-0.747-2.204-0.828-3.327c-3.157-43.751-16.045-84.506-40.852-120.61
		C413.471,63.643,332.161,25.339,229.628,33.928c-45.381,3.802-86.798,20.345-123.247,47.776
		C40.33,131.415,5.161,197.933,1.769,280.553c-1.957,47.663,9.761,92.418,33.06,134.047c3.394,6.065,7.372,11.873,11.669,17.337
		c2.939,3.738,7.513,3.669,11.418,1.46c4.064-2.3,6.172-6.073,4.701-10.929c-0.797-2.631-2.046-5.125-3.218-7.992
		c4.934-2.873,9.928-5.518,14.619-8.622c2.411-1.596,4.918-3.667,6.246-6.134c2.161-4.015,1.148-8.052-2.277-11.282
		c-3.848-3.629-8.18-3.374-12.434-1.131c-5.571,2.938-10.964,6.216-16.398,9.328c-12.834-16.81-29.267-78.589-26.044-98.158
		c6.057,0,12.2,0.216,18.321-0.053c8.376-0.368,13.21-7.303,10.133-14.284c-2.096-4.755-6.299-6.109-11.05-6.177
		c-5.923-0.085-11.849-0.02-18.223-0.02c1.621-35.192,10.299-67.6,26.272-98.471c5.555,3.182,10.706,6.162,15.887,9.09
		c3.993,2.257,8.153,3.179,12.265,0.474c6.619-4.352,6.026-13.076-1.261-17.655c-5.302-3.332-10.794-6.363-16.605-9.764
		c19.07-29.444,42.778-53.338,72.142-72.008c3.183,5.501,5.816,10.526,8.93,15.233c1.595,2.411,3.706,4.939,6.199,6.192
		c4.02,2.02,8.126,1.057,11.272-2.448c3.493-3.892,3.207-8.245,0.944-12.491c-2.953-5.54-6.21-10.919-9.602-16.831
		c31.18-15.99,63.593-24.819,98.605-26.161c0,6.788-0.033,12.761,0.01,18.733c0.034,4.674,1.706,8.543,6.207,10.48
		c6.89,2.965,13.72-1.728,14.044-9.766c0.253-6.282,0.051-12.582,0.051-19.482c35.145,1.467,67.594,10.195,98.593,26.225
		c-3.331,5.803-6.4,10.928-9.25,16.171c-3.396,6.249-2.071,12.387,3.093,15.271c5.256,2.935,10.964,0.945,14.673-5.238
		c3.077-5.13,6.035-10.333,9.031-15.479c20.052,8.847,64.366,53.253,71.77,71.984c-2.517,1.475-5.076,2.984-7.644,4.477
		c-2.59,1.506-5.232,2.929-7.776,4.509c-4.028,2.502-7.062,5.762-6.293,10.924c1.156,7.755,8.586,10.992,16.066,6.987
		c5.497-2.943,10.845-6.165,16.543-9.424c15.973,31.104,24.724,63.477,26.181,97.682c-0.878,0.384-1.168,0.619-1.461,0.623
		c-5.496,0.072-10.993,0.061-16.488,0.183c-4.711,0.105-9.005,1.259-11.158,6.019c-3.256,7.199,1.725,14.221,10.336,14.469
		c6.104,0.175,12.217,0.034,18.806,0.034c-1.698,35.115-10.284,67.61-26.354,98.432c-5.586-3.203-10.383-6.231-15.439-8.736
		c-2.572-1.274-5.653-2.359-8.428-2.2c-4.832,0.278-7.82,3.611-8.596,8.327c-0.791,4.813,1.692,8.356,5.651,10.769
		c5.362,3.268,10.854,6.322,16.415,9.539c-0.94,1.658-1.63,2.783-2.233,3.953c-3.085,5.986-1.808,12.057,3.105,14.866
		c5.016,2.868,10.907,1.131,14.573-4.515c18.334-28.229,31.22-58.71,37.186-91.909C510.668,325.257,511.878,313.341,513.5,301.5z
		 M256.954,472.515c33.309,0,66.618,0.016,99.926-0.01c9.425-0.008,13.304-3.907,13.348-13.393
		c0.053-11.491,0.059-22.983-0.002-34.474c-0.051-9.654-3.768-13.462-13.251-13.466c-66.285-0.027-132.569-0.029-198.854,0.002
		c-9.537,0.004-13.308,3.842-13.351,13.371c-0.049,10.992-0.019,21.984-0.01,32.976c0.01,11.543,3.406,14.992,14.764,14.994
		C192.001,472.518,224.478,472.516,256.954,472.515z M420.368,196.904c-1-5.118-3.885-3.212-6.431-2.211
		c-41.473,16.303-82.926,32.659-124.453,48.822c-2.136,0.831-5.018,0.507-7.354-0.077c-7.345-1.836-14.491-5.287-21.9-5.914
		c-37.447-3.169-65.296,37.348-49.494,71.442c10.201,22.009,32.536,33.615,56.676,29.451c21.972-3.79,38.956-23.241,41.156-46.779
		c0.2-2.142,1.573-4.725,3.233-6.096c21.318-17.601,42.789-35.017,64.219-52.483C390.847,220.978,405.669,208.889,420.368,196.904z"
		/>
	<path display="inline" d="M511,304.68c-1.616,11.796-2.821,23.667-4.925,35.375c-5.943,33.073-18.78,63.439-37.045,91.56
		c-3.653,5.624-9.521,7.355-14.518,4.497c-4.894-2.799-6.167-8.847-3.093-14.81c0.601-1.165,1.288-2.286,2.224-3.938
		c-5.54-3.205-11.011-6.248-16.353-9.503c-3.944-2.404-6.418-5.933-5.629-10.728c0.772-4.698,3.75-8.019,8.563-8.295
		c2.764-0.159,5.834,0.922,8.396,2.191c5.037,2.496,9.815,5.512,15.38,8.703c16.009-30.705,24.563-63.077,26.254-98.059
		c-6.564,0-12.654,0.141-18.735-0.034c-8.578-0.246-13.54-7.242-10.297-14.414c2.145-4.742,6.423-5.892,11.116-5.997
		c5.474-0.122,10.95-0.111,16.425-0.183c0.292-0.004,0.581-0.238,1.456-0.62c-1.451-34.075-10.169-66.325-26.081-97.311
		c-5.677,3.248-11.004,6.457-16.481,9.389c-7.451,3.99-14.853,0.765-16.005-6.961c-0.767-5.142,2.256-8.39,6.269-10.882
		c2.534-1.574,5.166-2.991,7.747-4.492c2.559-1.487,5.108-2.991,7.615-4.46c-7.376-18.66-51.522-62.897-71.498-71.711
		c-2.985,5.127-5.931,10.31-8.997,15.421c-3.695,6.16-9.381,8.143-14.617,5.218c-5.144-2.873-6.464-8.989-3.082-15.213
		c2.839-5.224,5.896-10.329,9.215-16.11c-30.881-15.969-63.207-24.664-98.219-26.126c0,6.874,0.202,13.15-0.051,19.408
		c-0.323,8.008-7.127,12.683-13.991,9.729c-4.484-1.929-6.15-5.784-6.183-10.44c-0.043-5.949-0.01-11.899-0.01-18.662
		c-34.879,1.337-67.169,10.133-98.231,26.062c3.38,5.891,6.625,11.248,9.566,16.768c2.254,4.23,2.538,8.567-0.941,12.444
		c-3.134,3.492-7.225,4.452-11.229,2.439c-2.483-1.248-4.586-3.767-6.175-6.169c-3.103-4.689-5.725-9.695-8.896-15.175
		c-29.253,18.599-52.871,42.403-71.869,71.735c5.79,3.389,11.26,6.408,16.542,9.727c7.259,4.562,7.849,13.253,1.256,17.588
		c-4.097,2.694-8.241,1.776-12.219-0.472c-5.161-2.917-10.293-5.886-15.827-9.056c-15.912,30.754-24.558,63.039-26.173,98.098
		c6.35,0,12.253-0.064,18.154,0.02c4.732,0.068,8.919,1.416,11.008,6.154c3.065,6.954-1.751,13.863-10.095,14.23
		c-6.098,0.268-12.217,0.052-18.251,0.052c-3.21,19.495,13.161,81.04,25.946,97.786c5.414-3.1,10.786-6.366,16.336-9.293
		c4.238-2.235,8.554-2.489,12.387,1.126c3.411,3.217,4.421,7.24,2.268,11.239c-1.323,2.458-3.821,4.521-6.223,6.111
		c-4.673,3.093-9.648,5.727-14.563,8.59c1.168,2.857,2.412,5.341,3.206,7.962c1.465,4.838-0.635,8.597-4.684,10.888
		c-3.89,2.201-8.447,2.269-11.375-1.454c-4.28-5.443-8.243-11.23-11.625-17.271C10.934,375.881-0.739,331.296,1.21,283.813
		C4.589,201.506,39.624,135.24,105.425,85.718c36.31-27.327,77.57-43.807,122.779-47.595
		c102.144-8.557,183.146,29.602,241.273,114.2c24.713,35.967,37.552,76.567,40.697,120.152c0.081,1.119,0.542,2.21,0.825,3.315
		C511,285.42,511,295.05,511,304.68z"/>
	<path display="inline" d="M255.426,475.048c-32.353,0-64.706,0.003-97.059-0.001c-11.316-0.001-14.699-3.437-14.709-14.937
		c-0.009-10.95-0.039-21.901,0.01-32.851c0.043-9.493,3.799-13.316,13.3-13.321c66.033-0.031,132.066-0.028,198.1-0.002
		c9.448,0.004,13.151,3.797,13.201,13.415c0.06,11.448,0.055,22.896,0.002,34.344c-0.044,9.45-3.909,13.335-13.297,13.342
		C321.791,475.064,288.609,475.047,255.426,475.048z M347.442,434.563c-61.234,0-122.034,0-182.968,0c0,6.728,0,13.132,0,19.818
		c61.062,0,121.88,0,182.968,0C347.442,447.73,347.442,441.33,347.442,434.563z"/>
	<path display="inline" d="M418.221,200.481c-14.643,11.939-29.409,23.982-44.179,36.02c-21.348,17.4-42.738,34.75-63.975,52.284
		c-1.654,1.365-3.021,3.939-3.22,6.072c-2.192,23.449-19.112,42.826-41,46.601c-24.048,4.148-46.299-7.415-56.461-29.34
		c-15.743-33.965,12.001-74.328,49.306-71.172c7.381,0.625,14.5,4.062,21.817,5.891c2.327,0.581,5.198,0.905,7.326,0.076
		c41.37-16.102,82.666-32.396,123.982-48.637C414.351,197.282,417.225,195.383,418.221,200.481z M255.889,321.86
		c16.719,0.053,30.383-13.419,30.637-30.205c0.252-16.621-13.999-30.884-30.722-30.749c-16.609,0.134-30.451,14.061-30.397,30.586
		C225.461,308.168,239.151,321.807,255.889,321.86z"/>
	<path fill="#FFFFFF" d="M349.319,431.877c0,6.793,0,13.218,0,19.894c-61.321,0-122.37,0-183.665,0c0-6.712,0-13.14,0-19.894
		C226.82,431.877,287.852,431.877,349.319,431.877z"/>
	<path fill="#FFFFFF" d="M257.418,318.745c-16.802-0.053-30.544-13.744-30.598-30.484c-0.053-16.588,13.84-30.568,30.513-30.703
		c16.787-0.136,31.091,14.182,30.839,30.866C287.917,305.275,274.201,318.798,257.418,318.745z"/>
</g>
<g display="none">
	<path fill="#FFFFFF" d="M513.5,434.5c0,26.333,0,52.667,0,79c-171,0-342,0-513,0c0-171,0-342,0-513c171,0,342,0,513,0
		c0,50.667,0,101.333,0,152c-1.481-3.866-2.611-7.915-4.502-11.569c-9.696-18.736-25.56-27.358-46.316-27.363
		c-136.818-0.035-273.636-0.018-410.454-0.018c-0.833,0-1.667,0-2.5,0.013c-29.538,0.493-48.727,25.203-48.52,49.672
		c0.743,87.651,0.312,175.311,0.27,262.968C1.473,440.5,7.445,451.89,17.903,461.182c10.291,9.144,22.654,11.98,36.078,11.967
		c71.492-0.071,142.984-0.033,214.476-0.033c64.493,0,128.986-0.049,193.478,0.031c17.401,0.022,32.199-5.596,42.455-20.012
		C508.345,447.576,510.516,440.749,513.5,434.5z M185.644,103.622c0-11.551,0.307-22.525-0.074-33.474
		c-0.534-15.358-12.697-27.351-28.055-27.58c-18.64-0.279-37.29-0.239-55.931-0.01c-13.576,0.166-25.968,9.734-27.471,23.057
		c-1.401,12.425-0.299,25.132-0.299,37.939c6.478,0,12.87,0,19.553,0c0.083-1.892,0.212-3.52,0.216-5.148
		c0.023-8.49-0.076-16.981,0.047-25.469c0.09-6.246,2.956-9.785,8.857-9.865c17.973-0.242,35.954-0.241,53.927-0.016
		c5.923,0.074,8.85,3.596,8.953,9.781c0.133,7.988,0.037,15.98,0.04,23.971c0.001,2.257,0,4.515,0,6.815
		C172.468,103.622,178.752,103.622,185.644,103.622z M441.611,103.633c0-11.703,0.34-22.842-0.084-33.953
		c-0.565-14.812-12.613-26.782-27.483-27.071c-18.97-0.37-37.956-0.319-56.928-0.02c-13.462,0.212-25.818,10.282-27.135,23.476
		c-1.228,12.3-0.262,24.819-0.262,37.499c6.552,0,12.944,0,19.875,0c0-9.714-0.016-19.158,0.004-28.602
		c0.02-9.205,2.745-12.024,11.851-12.058c14.149-0.052,28.299-0.015,42.449-0.015c16.736,0,17.509,0.769,17.509,17.405
		c0,7.758,0,15.517,0,23.337C428.446,103.633,434.731,103.633,441.611,103.633z"/>
	<path display="inline" d="M511,431.96c-2.97,6.221-5.132,13.018-9.069,18.551c-10.21,14.351-24.942,19.944-42.265,19.922
		c-64.204-0.08-128.408-0.031-192.612-0.031c-71.172,0-142.344-0.038-213.516,0.033c-13.364,0.013-25.671-2.811-35.916-11.913
		c-10.412-9.251-16.357-20.59-16.35-34.821c0.041-87.265,0.47-174.533-0.269-261.791c-0.206-24.359,18.897-48.959,48.303-49.45
		c0.829-0.014,1.659-0.013,2.488-0.013c136.206-0.001,272.411-0.017,408.617,0.017c20.662,0.005,36.455,8.588,46.108,27.241
		c1.883,3.638,3.007,7.668,4.482,11.517C511,244.802,511,338.381,511,431.96z M256.162,134.041
		c-67.357,0-134.715-0.014-202.072,0.036c-3.79,0.003-7.702,0.021-11.349,0.899c-13.341,3.215-20.533,13.536-20.536,29.028
		c-0.017,84.943-0.019,169.887,0.001,254.83c0.005,19.293,10.884,30.044,30.36,30.056c36.831,0.023,73.662,0.007,110.492,0.007
		c99.045,0,198.09,0.011,297.135-0.011c18.444-0.004,29.846-10.746,29.862-28.525c0.08-85.939,0.083-171.878-0.095-257.816
		c-0.01-4.652-1.056-9.719-3.094-13.87c-5.432-11.065-15.236-14.708-27.14-14.688C391.872,134.1,324.017,134.042,256.162,134.041z"
		/>
	<path display="inline" d="M184.611,102.563c-6.861,0-13.117,0-20.146,0c0-2.29,0.001-4.537,0-6.785
		c-0.002-7.955,0.093-15.911-0.039-23.863c-0.102-6.157-3.016-9.663-8.913-9.737c-17.893-0.224-35.793-0.226-53.686,0.016
		c-5.875,0.079-8.728,3.603-8.818,9.821c-0.122,8.45-0.024,16.903-0.046,25.355c-0.004,1.621-0.133,3.242-0.215,5.125
		c-6.654,0-13.017,0-19.466,0c0-12.75-1.097-25.4,0.298-37.769c1.496-13.263,13.832-22.788,27.348-22.954
		c18.558-0.227,37.124-0.267,55.681,0.01c15.289,0.229,27.398,12.168,27.93,27.457C184.917,80.14,184.611,91.064,184.611,102.563z"
		/>
	<path display="inline" d="M439.432,102.575c-6.849,0-13.105,0-20.113,0c0-7.786,0-15.509,0-23.233
		c0-16.562-0.77-17.328-17.431-17.327c-14.086,0-28.173-0.037-42.259,0.015c-9.065,0.033-11.778,2.839-11.797,12.004
		c-0.02,9.402-0.004,18.803-0.004,28.474c-6.9,0-13.263,0-19.786,0c0-12.623-0.961-25.086,0.261-37.332
		c1.311-13.135,13.612-23.16,27.013-23.371c18.887-0.298,37.788-0.348,56.673,0.02c14.804,0.288,26.797,12.204,27.36,26.95
		C439.771,79.834,439.432,90.924,439.432,102.575z"/>
	<path fill="#FFFFFF" d="M257.517,135.242c68.16,0,136.32,0.059,204.48-0.055c11.958-0.02,21.806,3.639,27.262,14.754
		c2.047,4.169,3.098,9.259,3.107,13.932c0.179,86.325,0.176,172.65,0.096,258.975c-0.017,17.859-11.469,28.649-29.996,28.654
		c-99.49,0.023-198.981,0.011-298.471,0.011c-36.996,0-73.993,0.016-110.989-0.007c-19.563-0.012-30.492-10.811-30.496-30.191
		c-0.02-85.325-0.018-170.65-0.001-255.976c0.003-15.562,7.227-25.929,20.628-29.159c3.663-0.883,7.592-0.901,11.4-0.904
		C122.196,135.228,189.856,135.241,257.517,135.242z M441.516,277.936c-2.41,0-4.218,0-6.026,0
		c-10.16-0.001-20.321-0.106-30.478,0.057c-3.271,0.052-4.341-1.028-4.272-4.3c0.185-8.823,0.062-17.653,0.062-26.481
		c0-3.26,0-6.52,0-9.843c-10.535,0-20.281,0-30.632,0c0,13.532,0,26.769,0,40.565c-13.851,0-27.108,0-40.579,0
		c0,10.464,0,20.349,0,30.746c13.547,0,26.784,0,40.703,0c0,13.864,0,27.232,0,40.644c10.451,0,20.205,0,30.629,0
		c0-13.634,0-27.014,0-40.87c13.914,0,27.164,0,40.594,0C441.516,298.185,441.516,288.413,441.516,277.936z M73.485,308.294
		c37.663,0,74.741,0,111.836,0c0-10.198,0-20.07,0-30.001c-37.482,0-74.557,0-111.836,0C73.485,288.425,73.485,298.2,73.485,308.294
		z"/>
	<path display="inline" d="M439.338,276.097c0,10.43,0,20.158,0,30.382c-13.37,0-26.56,0-40.412,0c0,13.794,0,27.115,0,40.687
		c-10.377,0-20.088,0-30.492,0c0-13.352,0-26.66,0-40.462c-13.856,0-27.034,0-40.521,0c0-10.351,0-20.191,0-30.608
		c13.411,0,26.609,0,40.397,0c0-13.734,0-26.912,0-40.383c10.305,0,20.007,0,30.495,0c0,3.309,0,6.554,0,9.799
		c0.001,8.788,0.123,17.578-0.061,26.362c-0.068,3.257,0.997,4.333,4.253,4.281c10.112-0.162,20.227-0.058,30.342-0.057
		C435.139,276.097,436.939,276.097,439.338,276.097z"/>
	<path display="inline" d="M72.955,306.319c0-10.049,0-19.78,0-29.866c37.113,0,74.021,0,111.336,0c0,9.886,0,19.714,0,29.866
		C147.362,306.319,110.449,306.319,72.955,306.319z"/>
</g>
<g>
	<path display="none" fill="#FFFFFF" d="M513.5,427.5c0,28.667,0,57.333,0,86c-171,0-342,0-513,0c0-171,0-342,0-513
		c171,0,342,0,513,0c0,137,0,274,0,411c-0.232-0.429-0.619-0.839-0.674-1.29c-3.5-28.819-19.891-48.593-44.745-61.563
		c-14.559-7.598-30.125-13.246-45.068-20.14c-7.822-3.609-15.482-7.68-22.833-12.167c-5.644-3.445-8.916-8.639-8.567-15.832
		c0.314-6.479-0.186-12.993-0.124-19.49c0.015-1.538,0.442-3.382,1.358-4.554c7.944-10.158,12.731-21.747,16.164-34.047
		c0.567-2.031,2.002-4.154,3.64-5.498c11.77-9.655,17.369-33.412,10.273-46.745c-1.781-3.347-1.723-5.922-0.921-9.251
		c4.828-20.023,7.983-40.235,4.54-60.849c-3.387-20.282-12.839-36.438-32.886-44.177c-6.105-2.357-11.796-4.788-16.608-9.317
		c-1.88-1.769-4.424-3.068-6.893-3.937c-30.341-10.687-59.253-7.055-86.737,9.168c-2.294,1.354-3.781,1.639-6.244,0.499
		c-5.107-2.363-10.491-4.122-15.721-6.229c-1.624-0.655-3.45-1.31-4.618-2.514c-8.103-8.35-18.195-12.804-29.36-14.927
		c-23.485-4.465-46.511-1.914-68.81,6.128c-13.66,4.926-25.313,13.197-34.411,24.797c-12.862,16.4-17.858,35.445-18.92,55.801
		c-1.032,19.778,1.483,39.214,5.908,58.458c0.422,1.833,0.949,4.406,0.056,5.657c-6.896,9.662-6.871,20.257-4.653,31.143
		c2.094,10.278,5.684,19.787,14.276,26.733c1.99,1.609,3.755,4.158,4.445,6.607c4.199,14.895,10.166,28.84,20.003,40.983
		c1.118,1.38,1.631,3.623,1.636,5.469c0.024,8.329-0.594,16.671-0.292,24.984c0.295,8.103-3.287,14.103-9.641,17.999
		c-9.46,5.8-19.241,11.194-29.295,15.882c-18.377,8.568-37.487,15.654-55.487,24.921c-18.376,9.46-33.193,23.353-42.113,42.595
		c-6.697,14.446-9.387,29.621-8.529,45.541c137.017,0,273.579,0,410.17,0c-1.289-16.058-0.461-29.007-13.812-54.835
		C436.668,427.5,475.084,427.5,513.5,427.5z"/>
	<path d="M511,418.467c-38.266,0-76.531,0-115.04,0c13.299,25.727,12.474,38.625,13.758,54.621c-136.056,0-272.084,0-408.565,0
		C0.3,457.229,2.979,442.114,9.65,427.725c8.885-19.167,23.644-33.005,41.948-42.428c17.929-9.23,36.964-16.288,55.269-24.823
		c10.015-4.669,19.757-10.042,29.18-15.819c6.329-3.88,9.897-9.857,9.603-17.928c-0.301-8.28,0.314-16.59,0.291-24.886
		c-0.005-1.838-0.516-4.072-1.63-5.447c-9.798-12.095-15.741-25.986-19.924-40.823c-0.688-2.439-2.445-4.979-4.428-6.581
		c-8.559-6.919-12.134-16.391-14.22-26.629c-2.209-10.843-2.234-21.397,4.635-31.021c0.889-1.246,0.364-3.808-0.056-5.635
		c-4.408-19.169-6.913-38.529-5.885-58.23c1.058-20.277,6.034-39.248,18.846-55.583c9.062-11.554,20.669-19.793,34.276-24.7
		c22.212-8.01,45.148-10.552,68.541-6.104c11.122,2.115,21.174,6.551,29.246,14.869c1.164,1.199,2.982,1.853,4.6,2.504
		c5.209,2.099,10.572,3.851,15.659,6.205c2.454,1.135,3.935,0.851,6.22-0.497c27.376-16.16,56.175-19.777,86.397-9.132
		c2.459,0.866,4.994,2.16,6.866,3.922c4.794,4.511,10.462,6.933,16.543,9.281c19.969,7.709,29.384,23.801,32.758,44.004
		c3.429,20.533,0.288,40.666-4.522,60.611c-0.8,3.316-0.857,5.882,0.917,9.215c7.068,13.281,1.491,36.946-10.233,46.562
		c-1.632,1.338-3.061,3.453-3.626,5.476c-3.419,12.252-8.187,23.796-16.1,33.914c-0.913,1.167-1.338,3.004-1.353,4.536
		c-0.062,6.471,0.436,12.961,0.123,19.414c-0.348,7.165,2.911,12.338,8.533,15.77c7.323,4.47,14.952,8.524,22.744,12.119
		c14.884,6.867,30.389,12.493,44.891,20.061c24.756,12.92,41.083,32.616,44.569,61.323c0.054,0.449,0.44,0.857,0.671,1.285
		C511,407.842,511,413.154,511,418.467z M22.86,452.858c121.692,0,242.761,0,364.192,0c-0.399-2.011-0.641-3.634-1.047-5.214
		c-5.436-21.11-19.549-35.375-38.078-44.909c-17.489-8.998-36.112-15.765-53.915-24.191c-11.029-5.22-22.002-10.92-32.006-17.84
		c-10.345-7.155-17.418-17.088-17.318-30.754c0.081-11.111-0.162-22.235-0.639-33.337c-0.235-5.469,0.497-9.957,5.725-12.998
		c1.733-1.008,2.903-3.153,4.065-4.949c7.701-11.904,12.208-25.024,13.809-39.029c0.486-4.252,2.283-5.607,6.051-6.124
		c1.844-0.253,4.251-0.945,5.217-2.29c5.364-7.47,7.009-15.965,5.528-24.994c-0.22-1.342-1.233-3.044-2.376-3.663
		c-6.889-3.731-6.247-9.004-3.626-14.992c0.988-2.258,1.53-4.728,2.132-7.138c5.255-21.032,9.053-42.216,5.602-63.989
		c-3.583-22.606-14.627-36.279-37.979-39.632c-1.74-0.25-3.964-1.353-4.831-2.758c-5.088-8.246-13.084-11.44-21.938-13.102
		c-15.773-2.961-31.445-1.598-46.865,2.212c-15.767,3.895-29.283,11.612-38.357,25.604c-8.095,12.481-10.885,26.571-11.546,41.163
		c-0.956,21.11,2.969,41.628,8.141,61.928c1.008,3.955,0.655,6.58-2.849,8.839c-3.613,2.329-5.718,5.997-5.096,10.163
		c0.874,5.847,2.279,11.688,4.222,17.266c0.729,2.094,3.512,4.755,5.509,4.888c6.308,0.419,8.084,3.83,8.132,9.312
		c0.013,1.471,0.402,2.959,0.764,4.403c3.773,15.074,8.3,29.737,21.024,40.172c1.056,0.866,1.751,2.779,1.763,4.213
		c0.099,11.452,0.222,22.913-0.151,34.355c-0.176,5.394-0.522,11.089-2.369,16.062c-4.488,12.086-13.817,20.517-24.972,25.978
		c-17.68,8.655-35.942,16.13-54.02,23.961c-15.277,6.618-30.085,13.938-42.407,25.476C31.955,426.686,25.637,438.559,22.86,452.858z
		 M488.977,397.844c-3.239-15.246-11.82-25.83-23.468-34.23c-13.737-9.906-29.594-15.475-45.081-21.785
		c-12.589-5.129-25.351-9.99-35.996-18.77c-6.985-5.761-13.747-12.329-14.534-21.757c-1.06-12.701-0.782-25.521-0.82-38.291
		c-0.005-1.671,1.288-3.521,2.384-4.985c2.65-3.539,6.537-6.495,8.13-10.415c3.585-8.823,6.341-18.017,8.892-27.21
		c1.005-3.623,1.931-6.011,6.02-7.214c2.562-0.754,5.187-3.386,6.469-5.857c1.546-2.979,2.467-6.735,2.232-10.055
		c-0.221-3.129-1.499-7.053-3.734-8.971c-3.542-3.039-3.844-5.595-2.529-9.741c5.541-17.468,9.271-35.325,8.321-53.764
		c-1.058-20.531-7.868-37.248-31.953-40.687c-1.833-0.262-3.971-1.798-5.039-3.371c-3.29-4.845-7.853-7.491-13.301-8.934
		c-12.469-3.303-24.984-2.532-37.486-0.252c-8.309,1.515-16.256,4.001-23.605,9.21c7.499,10.918,11.322,22.784,12.922,35.449
		c2.399,18.997,0.567,37.717-3.49,56.309c-2.055,9.416-6.289,18.882,0.759,28.097c0.644,0.842,0.654,2.204,0.855,3.343
		c1.95,11.029-0.175,21.633-4.931,31.412c-2.58,5.304-7.363,9.527-11.076,14.297c-1.152,1.48-2.325,3.044-3.026,4.758
		c-4.369,10.697-6.789,22.766-13.365,31.834c-7.578,10.449-8.481,20.921-7.844,32.539c0.154,2.816,0.433,5.656,0.229,8.454
		c-0.514,7.043,2.94,12.114,7.99,16.265c3.315,2.724,6.753,5.568,10.609,7.318c16.426,7.458,33.245,14.076,49.499,21.88
		c13.395,6.432,26.401,13.76,39.137,21.426c3.892,2.343,7.293,3.781,11.788,3.764c32.854-0.126,65.71-0.068,98.564-0.068
		C484.468,397.844,486.436,397.844,488.977,397.844z"/>
	<path display="none" fill="#FFFFFF" d="M23.442,462.027c2.788-14.356,9.131-26.276,19.569-36.049
		c12.371-11.584,27.237-18.932,42.574-25.576c18.149-7.862,36.483-15.366,54.232-24.056c11.2-5.483,20.565-13.946,25.07-26.08
		c1.854-4.992,2.201-10.709,2.378-16.125c0.375-11.487,0.251-22.993,0.152-34.49c-0.012-1.44-0.71-3.36-1.77-4.23
		c-12.775-10.476-17.319-25.196-21.107-40.33c-0.363-1.45-0.754-2.944-0.767-4.42c-0.048-5.503-1.831-8.928-8.164-9.348
		c-2.005-0.133-4.799-2.805-5.531-4.907c-1.951-5.599-3.362-11.463-4.239-17.333c-0.625-4.182,1.489-7.865,5.116-10.203
		c3.517-2.267,3.871-4.903,2.86-8.873c-5.192-20.38-9.132-40.978-8.173-62.171c0.663-14.649,3.465-28.794,11.591-41.324
		c9.11-14.047,22.679-21.794,38.508-25.705c15.481-3.825,31.214-5.193,47.049-2.22c8.89,1.669,16.917,4.875,22.025,13.154
		c0.87,1.411,3.103,2.519,4.85,2.769c23.444,3.366,34.531,17.093,38.128,39.788c3.465,21.859-0.349,43.127-5.625,64.241
		c-0.604,2.419-1.148,4.898-2.14,7.166c-2.631,6.012-3.276,11.305,3.64,15.051c1.147,0.621,2.164,2.33,2.385,3.677
		c1.486,9.064-0.165,17.593-5.55,25.092c-0.97,1.35-3.387,2.045-5.238,2.299c-3.783,0.519-5.587,1.879-6.075,6.148
		c-1.607,14.059-6.132,27.231-13.863,39.182c-1.167,1.804-2.341,3.956-4.081,4.969c-5.249,3.054-5.983,7.559-5.747,13.049
		c0.479,11.145,0.723,22.312,0.641,33.467c-0.1,13.719,7.001,23.691,17.386,30.874c10.044,6.947,21.06,12.67,32.132,17.91
		c17.873,8.46,36.569,15.253,54.127,24.286c18.602,9.571,32.77,23.892,38.227,45.085c0.408,1.586,0.651,3.215,1.052,5.234
		C267.157,462.027,145.612,462.027,23.442,462.027z"/>
	<path display="none" fill="#FFFFFF" d="M491.391,406.797c-2.551,0-4.527,0-6.504,0c-32.984,0-65.968-0.058-98.952,0.068
		c-4.513,0.017-7.927-1.427-11.834-3.779c-12.786-7.696-25.843-15.053-39.291-21.51c-16.317-7.835-33.202-14.479-49.693-21.966
		c-3.87-1.757-7.323-4.612-10.65-7.347c-5.07-4.167-8.537-9.258-8.022-16.329c0.205-2.809-0.075-5.66-0.23-8.487
		c-0.639-11.663,0.267-22.176,7.875-32.667c6.602-9.104,9.031-21.22,13.418-31.959c0.703-1.721,1.881-3.291,3.038-4.777
		c3.728-4.789,8.53-9.027,11.12-14.353c4.775-9.817,6.908-20.462,4.95-31.535c-0.202-1.143-0.212-2.511-0.859-3.356
		c-7.076-9.252-2.825-18.754-0.762-28.208c4.073-18.665,5.912-37.459,3.504-56.53c-1.606-12.715-5.444-24.627-12.972-35.588
		c7.378-5.229,15.356-7.725,23.698-9.246c12.552-2.288,25.115-3.063,37.633,0.253c5.469,1.449,10.05,4.105,13.353,8.969
		c1.073,1.58,3.219,3.122,5.059,3.384c24.18,3.453,31.017,20.235,32.079,40.847c0.954,18.511-2.791,36.438-8.354,53.975
		c-1.32,4.163-1.017,6.728,2.539,9.779c2.244,1.925,3.527,5.865,3.749,9.006c0.235,3.332-0.689,7.103-2.241,10.094
		c-1.287,2.481-3.922,5.124-6.494,5.88c-4.105,1.208-5.035,3.605-6.044,7.242c-2.561,9.229-5.328,18.459-8.927,27.317
		c-1.599,3.936-5.501,6.902-8.162,10.456c-1.101,1.47-2.398,3.327-2.393,5.004c0.038,12.82-0.241,25.691,0.823,38.442
		c0.79,9.465,7.579,16.059,14.591,21.842c10.687,8.814,23.499,13.694,36.137,18.843c15.548,6.335,31.468,11.926,45.258,21.871
		C479.524,380.865,488.138,391.491,491.391,406.797z"/>
</g>
<g display="none">
	<path fill="#FFFFFF" d="M512.412,512.456c-170.883,0-341.841,0-512.825,0c0-170.942,0-341.883,0-512.912
		c170.875,0,341.775,0,512.825,0C512.412,170.456,512.412,341.456,512.412,512.456z M473.198,471.277
		c-1.689-10.787-2.536-21.147-5.018-31.099c-6.637-26.609-24.054-45.136-47.602-57.478c-18.07-9.471-37.37-16.567-55.903-25.192
		c-9.457-4.401-18.622-9.523-27.559-14.916c-6.599-3.982-10.347-10.092-10.265-18.246c0.089-8.827-0.233-17.658-0.215-26.487
		c0.003-1.37,0.517-3.02,1.375-4.065c10.043-12.237,15.831-26.455,19.773-41.584c0.437-1.678,1.037-3.858,2.298-4.689
		c9.315-6.145,13.446-15.401,15.818-25.69c2.433-10.556,3.27-20.997-2.392-31.07c-1.196-2.127-1.624-5.34-1.037-7.714
		c5.952-24.084,9.885-48.313,6.096-73.171c-4.098-26.885-18.711-48.302-46.972-55.269c-1.639-0.404-3.363-1.371-4.544-2.572
		c-7.894-8.026-17.642-12.424-28.47-14.529c-22.235-4.323-44.138-2.429-65.516,4.696c-28.248,9.414-46.06,28.819-53.6,57.604
		c-6.001,22.912-4.472,45.925-0.48,68.898c1.67,9.614,5.648,19.188-1.48,28.352c-0.837,1.076-0.861,2.842-1.101,4.314
		c-1.748,10.725,0.228,21.086,4.855,30.592c2.665,5.476,7.522,9.88,11.348,14.8c1.065,1.37,2.45,2.735,2.875,4.32
		c4.18,15.588,10.146,30.267,20.693,42.775c0.78,0.924,1.32,2.38,1.313,3.585c-0.052,9.493-0.42,18.986-0.375,28.478
		c0.031,6.471-3.199,11.102-7.785,14.935c-3.305,2.763-6.758,5.637-10.63,7.386c-16.815,7.593-33.78,14.859-50.746,22.112
		c-17.692,7.564-34.584,16.347-48.78,29.69c-20.586,19.348-27.271,43.965-27.832,71.232
		C198.503,471.277,335.265,471.277,473.198,471.277z"/>
	<path display="inline" d="M496.842,511c-161.318,0-321.267,0-481.683,0c0.657-31.889,8.475-60.681,32.551-83.309
		c16.603-15.605,36.359-25.877,57.051-34.723c19.843-8.483,39.683-16.982,59.349-25.861c4.529-2.045,8.567-5.407,12.432-8.638
		c5.363-4.483,9.14-9.899,9.104-17.467c-0.053-11.101,0.377-22.203,0.438-33.306c0.008-1.41-0.624-3.112-1.536-4.193
		c-12.335-14.628-19.312-31.797-24.201-50.027c-0.497-1.854-2.117-3.45-3.363-5.052c-4.475-5.755-10.155-10.905-13.272-17.31
		c-5.411-11.118-7.722-23.236-5.678-35.779c0.281-1.722,0.309-3.787,1.287-5.045c8.336-10.717,3.685-21.916,1.731-33.159
		c-4.669-26.868-6.457-53.783,0.561-80.579c8.818-33.665,29.65-56.36,62.687-67.37c25.002-8.333,50.619-10.548,76.624-5.492
		c12.663,2.462,24.063,7.605,33.296,16.992c1.381,1.404,3.398,2.536,5.315,3.008c33.053,8.148,50.142,33.196,54.935,64.639
		c4.432,29.072-0.168,57.409-7.13,85.576c-0.686,2.777-0.186,6.534,1.212,9.022c6.622,11.781,5.643,23.992,2.798,36.338
		c-2.773,12.034-7.605,22.859-18.5,30.046c-1.474,0.973-2.176,3.522-2.688,5.484c-4.611,17.694-11.38,34.322-23.126,48.634
		c-1.003,1.222-1.604,3.152-1.608,4.754c-0.021,10.326,0.356,20.654,0.252,30.978c-0.096,9.536,4.287,16.682,12.005,21.339
		c10.452,6.307,21.171,12.298,32.231,17.445c21.675,10.087,44.248,18.386,65.381,29.463c27.541,14.435,47.911,36.103,55.673,67.223
		C493.876,486.268,494.867,498.384,496.842,511z M41.893,486.94c142.722,0,284.823,0,427.329,0c-0.264-1.59-0.39-2.719-0.643-3.819
		c-5.896-25.624-22.406-43.154-44.793-54.71c-20.518-10.591-42.387-18.531-63.274-28.454c-13.289-6.314-26.532-13.16-38.59-21.51
		c-12.582-8.712-20.392-21.104-20.069-37.527c0.284-14.41-0.284-28.836-0.145-43.252c0.021-2.144,1.524-4.521,2.916-6.356
		c3.494-4.606,7.951-8.583,10.882-13.493c7.155-11.982,11.612-25.102,13.141-38.988c0.639-5.801,2.199-9.453,8.726-9.597
		c1.705-0.038,4.027-1.149,4.958-2.519c5.901-8.687,8.314-18.346,6.454-28.77c-0.343-1.919-1.732-4.292-3.35-5.234
		c-7.116-4.145-6.196-9.411-4.133-16.231c8.164-26.988,13.701-54.434,9.722-82.857c-3.694-26.381-16.226-44.143-44.38-48.008
		c-2.221-0.305-5.044-1.719-6.18-3.51c-5.821-9.18-14.723-12.959-24.7-15.049c-18.701-3.916-37.27-2.111-55.558,2.308
		c-21.987,5.312-39.652,16.761-49.833,37.855c-8.194,16.977-10.69,35.215-8.975,53.535c1.861,19.88,5.778,39.587,9.301,59.28
		c0.881,4.924,0.541,8.023-3.581,11.439c-2.795,2.316-5.543,6.825-5.343,10.177c0.431,7.232,2.407,14.462,4.54,21.453
		c0.727,2.385,3.803,5.741,5.824,5.753c9.042,0.056,9.878,6.034,10.541,12.622c0.214,2.124,0.548,4.27,1.131,6.319
		c4.708,16.561,9.822,32.882,24.075,44.333c1.338,1.075,2.021,3.694,2.02,5.595c-0.012,15.391-0.408,30.783-0.383,46.173
		c0.015,9.283-3.65,16.983-9.148,24.056c-9.483,12.203-22.326,19.993-36.081,26.117c-21.142,9.413-42.77,17.739-63.874,27.231
		c-17.548,7.892-33.553,18.29-45.28,34.056C48.231,464.645,43.574,474.95,41.893,486.94z"/>
	<path fill="#FFFFFF" d="M84.2,450.704c1.437-10.252,5.419-19.063,11.325-27.003c10.027-13.48,23.712-22.371,38.716-29.119
		c18.045-8.116,36.538-15.235,54.615-23.283c11.761-5.236,22.742-11.897,30.85-22.331c4.7-6.048,7.834-12.632,7.821-20.569
		c-0.022-13.16,0.317-26.32,0.327-39.48c0.001-1.626-0.582-3.865-1.727-4.784c-12.187-9.791-16.559-23.746-20.585-37.906
		c-0.498-1.752-0.784-3.586-0.967-5.403c-0.567-5.633-1.282-10.745-9.013-10.793c-1.728-0.011-4.358-2.88-4.98-4.919
		c-1.823-5.977-3.513-12.159-3.882-18.343c-0.171-2.866,2.179-6.722,4.569-8.702c3.525-2.921,3.815-5.571,3.062-9.781
		c-3.012-16.838-6.362-33.688-7.953-50.687c-1.466-15.664,0.667-31.258,7.674-45.774c8.705-18.036,23.81-27.825,42.609-32.367
		c15.637-3.778,31.514-5.322,47.504-1.973c8.531,1.786,16.142,5.018,21.12,12.867c0.971,1.532,3.385,2.741,5.284,3.001
		c24.073,3.305,34.788,18.492,37.947,41.049c3.403,24.303-1.332,47.77-8.312,70.846c-1.764,5.831-2.55,10.334,3.534,13.878
		c1.383,0.805,2.571,2.834,2.864,4.475c1.591,8.913-0.473,17.172-5.518,24.599c-0.796,1.172-2.781,2.122-4.239,2.154
		c-5.58,0.123-6.915,3.245-7.461,8.206c-1.308,11.873-5.119,23.091-11.236,33.336c-2.507,4.198-6.317,7.599-9.305,11.537
		c-1.19,1.568-2.476,3.601-2.493,5.434c-0.118,12.326,0.367,24.661,0.124,36.982c-0.276,14.043,6.402,24.638,17.16,32.087
		c10.31,7.139,21.633,12.993,32.996,18.392c17.859,8.485,36.558,15.274,54.101,24.329c19.142,9.881,33.259,24.87,38.3,46.779
		c0.216,0.94,0.324,1.906,0.55,3.265C327.734,450.704,206.232,450.704,84.2,450.704z"/>
</g>
<g display="none">
	<path fill="#FFFFFF" d="M513.5,513.48c-170.945,0-341.89,0-512.917,0c0-170.883,0-341.786,0-512.835c170.917,0,341.917,0,512.917,0
		C513.5,171.543,513.5,342.501,513.5,513.48z M73.31,462.133c130.013,0,259.244,0,388.835,0c-0.221-2.553-0.306-4.845-0.643-7.099
		c-0.466-3.121-1-6.242-1.717-9.314c-5.746-24.623-21.508-41.619-43.05-52.934c-17.471-9.176-36.193-15.939-54.071-24.386
		c-10.924-5.161-21.749-10.806-31.795-17.475c-9.841-6.533-14.786-16.295-12.734-28.85c1.459-0.215,2.768-0.345,4.051-0.605
		c16.114-3.267,32.33-6.126,48.283-10.051c6.134-1.509,11.961-4.991,17.394-8.42c5.916-3.733,5.914-7.085,2.471-13.107
		c-2.115-3.698-4.191-7.84-4.674-11.971c-1.676-14.354-3.245-28.769-3.757-43.199c-0.897-25.302-0.501-50.652-1.555-75.944
		c-0.895-21.48-3.581-42.815-11.802-63.005c-8.988-22.074-23.998-37.238-48.596-39.908c-8.383-0.91-15.911-2.608-23.481-6.53
		c-11.838-6.134-24.79-6.798-37.99-4.856c-23.267,3.423-44.483,11.124-61.625,27.954c-16.38,16.081-25.114,36.193-30.33,58.054
		c-5.788,24.26-7.008,49.039-8.101,73.849c-0.989,22.441-2.111,44.899-4.167,67.258c-0.629,6.837-4.015,13.633-7.154,19.943
		c-1.717,3.451-1.934,5.853,0.458,8.459c1.555,1.694,3.346,3.258,5.273,4.509c9.95,6.461,21.226,9.492,32.636,11.864
		c10.857,2.257,21.844,3.888,32.736,5.788c1.295,10.477-1.944,19.225-9.749,26.039c-3.991,3.484-8.126,7.185-12.85,9.378
		c-17.18,7.975-34.597,15.444-51.999,22.932c-16.583,7.135-32.632,15.09-45.993,27.582C82.087,422.604,74.679,440.721,73.31,462.133
		z"/>
	<path display="inline" d="M19.146,511c1.668-26.086,10.692-48.157,29.608-65.843c16.278-15.219,35.83-24.91,56.033-33.603
		c21.2-9.122,42.419-18.222,63.349-27.937c5.756-2.672,10.793-7.18,15.655-11.425c9.51-8.302,13.455-18.959,11.877-31.723
		c-13.269-2.314-26.655-4.302-39.881-7.051c-13.901-2.89-27.638-6.583-39.76-14.453c-2.347-1.524-4.53-3.429-6.424-5.493
		c-2.913-3.175-2.65-6.101-0.558-10.305c3.824-7.687,7.949-15.966,8.715-24.296c2.505-27.24,3.872-54.599,5.077-81.939
		c1.331-30.226,2.818-60.414,9.869-89.969c6.355-26.633,16.995-51.134,36.95-70.725c20.885-20.504,46.732-29.886,75.077-34.056
		c16.081-2.366,31.86-1.557,46.282,5.916c9.222,4.778,18.394,6.847,28.606,7.956c29.968,3.253,48.254,21.727,59.204,48.619
		c10.015,24.597,13.288,50.589,14.378,76.757c1.284,30.813,0.801,61.697,1.894,92.521c0.623,17.58,2.535,35.142,4.577,52.628
		c0.588,5.032,3.118,10.079,5.694,14.584c4.195,7.336,4.197,11.42-3.01,15.968c-6.619,4.177-13.719,8.419-21.191,10.258
		c-19.435,4.782-39.191,8.264-58.822,12.245c-1.563,0.317-3.158,0.476-4.935,0.737c-2.499,15.296,3.525,27.189,15.514,35.148
		c12.239,8.124,25.427,15.001,38.735,21.289c21.78,10.29,44.589,18.529,65.874,29.709c26.244,13.784,45.446,34.49,52.447,64.488
		c0.873,3.742,1.523,7.545,2.092,11.347c0.41,2.746,0.514,5.538,0.784,8.649C334.977,511,177.538,511,19.146,511z"/>
</g>
<g display="none">
	<path display="inline" d="M289.87,511c-21.249,0-42.497,0-63.746,0c-0.75-0.29-1.477-0.728-2.253-0.848
		c-51.015-7.867-96.651-27.708-135.396-62.072C34.277,400.011,4.996,339.501,1.355,267.178
		c-2.55-50.656,9.028-98.438,35.769-141.607C84.9,48.444,154.672,6.65,245.286,1.422c50.451-2.911,97.956,9.253,141.136,35.646
		c65.847,40.247,106.224,98.563,120.544,174.571c1.831,9.72,2.706,19.619,4.023,29.436c0,9.96,0,19.921,0,29.881
		c-0.627,5.057-1.274,10.111-1.877,15.17c-6.946,58.249-31.445,108.244-72.396,149.834c-30.794,31.273-67.781,52.928-110.112,65.069
		C314.409,504.526,302.117,507.686,289.87,511z M422.501,420.621c82.427-79.944,97.01-225.884,5.263-324.059
		C332.772-5.085,172.918-3.353,81.337,99.511c-90.149,101.255-71.161,245.047,7.882,320.712c7.689-4.375,15.032-9.33,22.991-12.923
		c18.266-8.245,37.016-15.429,55.191-23.858c8.155-3.782,15.742-9.078,22.899-14.582c2.933-2.255,5.358-6.741,5.737-10.445
		c1.009-9.874,0.863-19.874,0.966-29.826c0.017-1.658-0.599-3.675-1.639-4.935c-10.032-12.154-15.939-26.257-20.044-41.273
		c-0.455-1.665-1.032-3.823-2.283-4.661c-9.881-6.618-13.839-16.62-16.201-27.554c-2.071-9.588-2.812-19.286,2.606-27.998
		c2.364-3.801,2.435-6.973,1.541-11.067c-5.888-26.96-8.88-54.071-1.702-81.277c6.256-23.709,19.985-41.557,42.413-52.228
		c21.605-10.279,44.503-12.755,67.958-10.413c14.105,1.408,27.214,5.832,37.271,16.759c0.992,1.078,2.887,1.447,4.437,1.872
		c10.751,2.942,20.361,7.756,28.158,15.992c13.179,13.92,17.826,31.084,19.033,49.509c1.258,19.213-1.27,38.116-6.096,56.659
		c-1.604,6.161-2.73,11.681,1.606,17.123c0.962,1.207,1.182,3.074,1.543,4.682c2.546,11.343,0.365,22.29-4.401,32.432
		c-2.573,5.475-7.508,9.83-11.308,14.743c-1.154,1.493-2.577,3.036-3.026,4.775c-3.934,15.249-9.775,29.549-19.74,41.966
		c-0.929,1.158-1.414,2.993-1.421,4.517c-0.043,8.961,0.231,17.924,0.168,26.884c-0.042,5.938,2.128,11.08,6.721,14.326
		c7.663,5.416,15.514,10.856,23.981,14.79C372.069,396.058,399.499,403.785,422.501,420.621z M407.112,434.746
		c-2.825-1.767-4.934-3.438-7.311-4.518c-15.371-6.982-30.75-13.951-46.226-20.697c-13.666-5.957-27.809-11.005-39.633-20.441
		c-10.709-8.546-18.748-18.564-18.369-33.445c0.266-10.437-0.089-20.905-0.564-31.341c-0.257-5.642,0.355-10.361,5.866-13.485
		c1.731-0.981,2.868-3.176,4.025-4.977c7.752-12.067,12.195-25.331,13.837-39.526c0.354-3.062,1.352-5.121,4.656-5.164
		c5.617-0.073,8.409-3.608,9.827-8.33c1.28-4.262,2.13-8.681,2.81-13.087c0.705-4.566-0.522-8.746-4.585-11.326
		c-4.248-2.698-5.187-5.946-2.909-10.335c0.449-0.866,0.59-1.892,0.865-2.847c6.452-22.441,11.13-45.12,8.217-68.653
		c-2.768-22.365-13.217-39.245-38.064-42.29c-1.881-0.231-4.259-1.525-5.246-3.067c-4.871-7.612-12.194-10.963-20.567-12.647
		c-18.669-3.757-36.997-1.811-54.921,4.022c-18.251,5.939-31.121,17.753-37.764,36.038c-4.964,13.663-6.745,27.865-5.13,42.119
		c1.843,16.259,4.975,32.385,7.963,48.492c0.726,3.913,0.209,6.261-2.847,8.927c-2.291,1.998-4.97,5.512-4.721,8.083
		c0.673,6.947,2.537,13.838,4.575,20.554c0.516,1.7,3.369,3.634,5.282,3.787c5.133,0.41,7.425,2.619,7.344,7.738
		c-0.031,1.956,0.45,3.962,0.955,5.877c3.952,14.989,8.263,29.788,21.222,40.041c0.866,0.685,1.499,2.23,1.491,3.37
		c-0.102,14.266-0.401,28.53-0.52,42.795c-0.054,6.485-2.948,11.777-6.54,16.818c-8.714,12.226-21.266,19.305-34.58,25.113
		c-15.789,6.888-31.869,13.108-47.641,20.031c-7.773,3.412-15.137,7.756-23.227,11.959c1.659,1.51,2.361,2.197,3.112,2.825
		c32.969,27.553,70.836,44.472,113.211,50.766c47.207,7.011,92.513,0.828,135.093-21.75
		C373.527,456.932,390.773,447.419,407.112,434.746z"/>
	<path fill="#FFFFFF" d="M513.5,242.5c-1.323-9.855-2.201-19.795-4.039-29.553c-14.377-76.31-54.915-134.859-121.024-175.266
		c-43.352-26.498-91.046-38.71-141.698-35.788C155.764,7.142,85.714,49.103,37.747,126.537C10.9,169.877-0.724,217.85,1.836,268.707
		c3.656,72.611,33.053,133.362,87.466,181.622c38.899,34.501,84.718,54.421,135.935,62.319c0.779,0.12,1.509,0.56,2.262,0.851
		c-75.641,0-151.283,0-226.962,0c0-170.918,0-341.835,0-512.876c170.962,0,341.962,0,512.962,0
		C513.5,81.221,513.5,161.86,513.5,242.5z"/>
	<path fill="#FFFFFF" d="M291.5,513.5c12.296-3.328,24.637-6.499,36.88-10.011c42.499-12.189,79.634-33.931,110.55-65.328
		c41.115-41.755,65.711-91.949,72.685-150.43c0.606-5.08,1.255-10.154,1.885-15.231c0,80.333,0,160.667,0,241
		C439.5,513.5,365.5,513.5,291.5,513.5z"/>
	<path fill="#FFFFFF" d="M424.659,422.761c-23.093-16.902-50.633-24.661-76.226-36.551c-8.501-3.949-16.383-9.411-24.076-14.849
		c-4.611-3.259-6.79-8.422-6.748-14.384c0.064-8.996-0.212-17.994-0.169-26.991c0.007-1.53,0.494-3.373,1.427-4.535
		c10.005-12.466,15.869-26.823,19.819-42.133c0.451-1.746,1.879-3.296,3.038-4.794c3.815-4.933,8.77-9.306,11.353-14.802
		c4.785-10.183,6.975-21.173,4.419-32.562c-0.362-1.614-0.583-3.488-1.549-4.7c-4.354-5.464-3.223-11.005-1.613-17.191
		c4.845-18.617,7.384-37.595,6.121-56.885c-1.212-18.499-5.878-35.731-19.109-49.706c-7.828-8.268-17.476-13.102-28.27-16.056
		c-1.557-0.426-3.459-0.797-4.455-1.879c-10.097-10.97-23.258-15.411-37.419-16.825c-23.549-2.351-46.538,0.134-68.229,10.454
		c-22.518,10.714-36.301,28.633-42.582,52.436c-7.207,27.314-4.203,54.533,1.708,81.6c0.898,4.111,0.827,7.295-1.547,11.112
		c-5.44,8.746-4.696,18.483-2.617,28.109c2.371,10.978,6.345,21.019,16.265,27.663c1.256,0.841,1.835,3.008,2.292,4.679
		c4.121,15.076,10.053,29.235,20.124,41.437c1.044,1.265,1.663,3.291,1.646,4.955c-0.103,9.992,0.043,20.031-0.97,29.944
		c-0.38,3.719-2.815,8.222-5.76,10.486c-7.186,5.525-14.803,10.842-22.991,14.64c-18.248,8.463-37.072,15.675-55.411,23.953
		c-7.99,3.607-15.362,8.582-23.082,12.974c-79.357-75.966-98.421-220.33-7.913-321.989C174.082-2.901,334.572-4.639,429.943,97.412
		C522.056,195.977,507.414,342.498,424.659,422.761z"/>
	<path fill="#FFFFFF" d="M409.209,436.942c-16.404,12.724-33.718,22.274-51.22,31.554c-42.749,22.667-88.236,28.875-135.63,21.836
		c-42.544-6.318-80.562-23.305-113.662-50.968c-0.754-0.63-1.458-1.32-3.124-2.836c8.122-4.22,15.516-8.581,23.319-12.007
		c15.835-6.951,31.98-13.196,47.831-20.111c13.366-5.831,25.969-12.938,34.718-25.213c3.607-5.061,6.512-10.374,6.566-16.885
		c0.119-14.322,0.42-28.643,0.522-42.966c0.008-1.144-0.627-2.696-1.496-3.384c-13.011-10.294-17.34-25.152-21.307-40.201
		c-0.507-1.923-0.99-3.937-0.959-5.9c0.081-5.139-2.219-7.357-7.373-7.768c-1.92-0.153-4.785-2.095-5.303-3.802
		c-2.045-6.744-3.917-13.661-4.593-20.636c-0.25-2.582,2.439-6.11,4.74-8.115c3.069-2.676,3.587-5.034,2.859-8.962
		c-3-16.171-6.145-32.361-7.995-48.685c-1.622-14.31,0.167-28.569,5.15-42.287c6.669-18.357,19.591-30.218,37.915-36.181
		c17.995-5.856,36.396-7.81,55.14-4.038c8.406,1.692,15.758,5.055,20.649,12.698c0.991,1.548,3.379,2.848,5.267,3.079
		c24.946,3.057,35.437,20.004,38.216,42.458c2.924,23.626-1.773,46.396-8.25,68.926c-0.276,0.959-0.417,1.989-0.868,2.858
		c-2.286,4.407-1.344,7.668,2.921,10.376c4.079,2.591,5.31,6.787,4.603,11.371c-0.682,4.423-1.536,8.86-2.821,13.139
		c-1.424,4.741-4.226,8.291-9.866,8.363c-3.316,0.043-4.319,2.111-4.674,5.185c-1.648,14.252-6.109,27.568-13.892,39.684
		c-1.162,1.808-2.303,4.012-4.041,4.996c-5.533,3.136-6.148,7.874-5.89,13.539c0.477,10.477,0.834,20.987,0.566,31.465
		c-0.381,14.94,7.69,24.998,18.442,33.578c11.871,9.474,26.071,14.541,39.791,20.522c15.537,6.773,30.978,13.769,46.41,20.779
		C404.255,433.491,406.373,435.168,409.209,436.942z"/>
</g>
<g display="none">
	<path fill="#FFFFFF" d="M513.5,513.485c-170.952,0.005-341.904,0.005-512.928,0.005c0-170.901,0-341.811,0-512.856
		c170.928,0,341.928,0,512.928,0C513.5,171.564,513.5,342.522,513.5,513.485z M207.859,331.763c-1.243,2-2.264,4.772-4.203,6.535
		c-4.282,3.894-8.553,8.286-13.668,10.688c-16.846,7.911-34.024,15.127-51.155,22.422c-18.656,7.945-36.445,17.258-50.933,31.798
		c-18.941,19.009-25.082,42.855-25.62,68.899c137.062,0,274.064,0,411.749,0c-1.498-10.028-2.322-19.696-4.459-29.065
		c-6.243-27.366-23.729-46.432-47.733-59.119c-18.181-9.61-37.682-16.693-56.351-25.423c-9.747-4.558-19.103-10.013-28.362-15.524
		c-4.235-2.521-7.145-6.61-8.569-10.849c15.266-3.621,30.06-6.719,44.604-10.726c9.64-2.655,18.875-6.764,25.62-14.705
		c6.137-7.225,6.09-13.975,0.762-21.618c-1.851-2.655-3.336-5.909-3.86-9.076c-1.383-8.357-2.789-16.797-3.043-25.239
		c-0.958-31.81-1.005-63.652-2.291-95.445c-0.89-21.996-4.052-43.784-12.706-64.344c-11.076-26.314-29.823-42.898-59.048-45.671
		c-5.529-0.525-10.65-1.243-15.496-4.372c-3.278-2.116-7.289-3.199-11.082-4.398c-15.779-4.987-31.576-3.423-47.376,0.051
		c-32.46,7.136-57.64,24.225-73.883,53.686c-11.466,20.796-17.078,43.429-19.1,66.738c-2.273,26.202-2.664,52.561-4.303,78.825
		c-0.818,13.098-2.273,26.182-4.096,39.18c-0.73,5.203-1.873,11.328-9.562,10.819c1.123,16.847,4.962,23.288,18.458,30.276
		c4.261,2.206,8.779,4.166,13.405,5.373C179.363,325.081,193.28,328.254,207.859,331.763z"/>
	<path display="inline" d="M185.913,347.868c-16.946-4.08-33.123-7.767-49.171-11.954c-5.377-1.403-10.628-3.681-15.582-6.246
		c-15.689-8.123-20.151-15.61-21.456-35.193c8.938,0.592,10.266-6.527,11.114-12.576c2.119-15.109,3.811-30.317,4.762-45.543
		c1.906-30.529,2.36-61.17,5.002-91.626c2.351-27.094,8.874-53.403,22.202-77.576c18.881-34.246,48.15-54.11,85.881-62.405
		c18.367-4.038,36.729-5.856,55.07-0.059c4.409,1.393,9.071,2.653,12.882,5.112c5.634,3.637,11.586,4.472,18.013,5.082
		c33.971,3.223,55.762,22.501,68.637,53.088c10.059,23.899,13.735,49.226,14.769,74.794c1.495,36.957,1.549,73.969,2.663,110.945
		c0.295,9.812,1.93,19.623,3.538,29.337c0.609,3.681,2.336,7.464,4.487,10.55c6.194,8.885,6.248,16.73-0.886,25.129
		c-7.84,9.23-18.575,14.006-29.78,17.093c-16.906,4.657-34.103,8.258-51.847,12.467c1.655,4.927,5.038,9.68,9.961,12.611
		c10.762,6.406,21.638,12.747,32.968,18.045c21.701,10.148,44.368,18.381,65.502,29.552c27.901,14.748,48.227,36.91,55.484,68.72
		c2.484,10.89,3.442,22.128,5.183,33.784c-160.043,0-319.294,0-478.614,0c0.625-30.273,7.764-57.991,29.781-80.087
		c16.84-16.901,37.519-27.727,59.204-36.962c19.912-8.48,39.879-16.867,59.462-26.063c5.945-2.792,10.91-7.897,15.888-12.423
		C183.281,353.416,184.468,350.194,185.913,347.868z M211.17,326.045c-0.412,5.464-1.249,10.634-1.107,15.777
		c0.472,17.021-8.422,28.804-20.92,38.717c-12.899,10.231-27.962,16.352-42.896,22.785c-19.339,8.33-38.941,16.187-57.689,25.708
		c-17.159,8.714-31.41,21.362-39.528,39.489c-2.621,5.853-4.276,12.138-6.566,18.783c142.697,0,283.921,0,425.623,0
		c-3.299-16.771-10.681-30.6-22.792-41.957c-14.665-13.752-32.383-22.3-50.535-30.21c-20.718-9.028-41.872-17.248-61.888-27.644
		c-24.193-12.565-35.746-32.942-30.489-61.399c28.438-4.304,58.424-5.473,85.26-20.505c-7.808-13.959-9.738-28.425-10.229-42.916
		c-0.958-28.249-0.902-56.53-1.531-84.793c-0.598-26.915-1.249-53.938-8.148-80.114c-3.066-11.632-7.687-23.188-13.581-33.665
		c-9.669-17.189-25.737-24.913-45.268-25.84c-4.735-0.225-10.501,0.461-13.976-1.922c-14.748-10.113-30.597-13.058-48.003-10.708
		c-40.969,5.53-71.887,24.733-88.57,63.91c-11.884,27.907-15.157,57.488-16.862,87.283c-1.371,23.967-1.429,48.008-2.636,71.987
		c-0.971,19.29-2.148,38.664-11.72,56.939C153.166,320.115,181.987,321.653,211.17,326.045z"/>
	<path fill="#FFFFFF" d="M229.587,312.989c-25.107-3.779-49.901-5.101-72.306-17.459c8.235-15.722,9.247-32.39,10.083-48.984
		c1.038-20.629,1.088-41.311,2.267-61.93c1.466-25.633,4.283-51.081,14.506-75.089c14.352-33.704,40.951-50.224,76.196-54.981
		c14.975-2.021,28.609,0.512,41.297,9.212c2.989,2.05,7.949,1.46,12.023,1.654c16.803,0.798,30.625,7.443,38.944,22.23
		c5.07,9.013,9.046,18.955,11.683,28.962c5.935,22.519,6.495,45.767,7.009,68.922c0.541,24.314,0.493,48.644,1.317,72.946
		c0.423,12.466,2.083,24.911,8.8,36.92c-23.087,12.932-48.884,13.937-73.349,17.64c-4.522,24.481,5.416,42.011,26.23,52.821
		c17.22,8.944,35.418,16.015,53.242,23.782c15.616,6.805,30.858,14.159,43.475,25.99c10.419,9.77,16.77,21.667,19.608,36.095
		c-121.905,0-243.399,0-366.161,0c1.969-5.717,3.394-11.124,5.648-16.159c6.983-15.595,19.243-26.476,34.005-33.972
		c16.128-8.191,32.992-14.951,49.629-22.117c12.848-5.534,25.807-10.801,36.904-19.602c10.752-8.528,18.403-18.665,17.997-33.308
		C228.513,322.137,229.233,317.689,229.587,312.989z"/>
</g>
<g display="none">
	<path display="inline" d="M510.927,241.061c0,9.961,0,19.922,0,29.883c-0.308,1.757-0.669,3.506-0.915,5.272
		c-1.484,10.657-2.372,21.433-4.503,31.958c-12.165,60.094-44.566,108.276-89.619,148.359
		c-28.17,25.062-62.091,39.577-98.475,48.423c-10.095,2.454-20.398,4.053-30.606,6.045c-18.261,0-36.523,0-54.784,0
		c-5.014-0.966-10.008-2.048-15.044-2.882c-58.089-9.618-107.829-35.293-147.702-78.683C17.501,373.091-4.744,306.179,2.363,230.127
		c5.054-54.079,26.1-101.895,62.275-142.498C112.566,33.837,172.93,4.932,244.844,1.336c50.642-2.532,98.276,9.256,141.585,35.748
		c65.807,40.254,106.174,98.56,120.477,174.55C508.734,221.351,509.61,231.247,510.927,241.061z M422.588,420.715
		c87.212-86.828,94.14-235.578-1.004-330.715C326.363-5.215,170.429-0.683,81.222,99.513
		C-7.626,199.305,9.04,341.779,88.126,419.241c15.819-12.509,34.42-19.556,52.984-26.76c13.268-5.149,26.514-10.424,39.437-16.367
		c6.93-3.187,12.718-8.319,15.811-16.392c-2.268-0.386-4.179-0.726-6.095-1.035c-16.231-2.611-32.292-5.826-47.395-12.686
		c-14.711-6.682-20.629-15.68-20.115-31.252c5.979,0.346,7.861-3.893,8.664-8.652c1.516-8.976,3.305-17.98,3.815-27.038
		c1.128-20.048,1.361-40.145,2.279-60.207c1.124-24.566,3.491-48.99,10.842-72.629c7.516-24.172,19.835-45.173,40.625-60.451
		c18.457-13.564,39.538-19.743,62.003-22.053c15.476-1.592,29.961,1.483,43.648,8.83c2.213,1.188,4.852,1.66,7.347,2.23
		c8.833,2.02,18.121,2.841,26.448,6.119c18.739,7.376,29.885,22.486,37.291,40.602c9.115,22.298,11.884,45.872,12.76,69.624
		c0.942,25.539,0.681,51.12,1.37,76.672c0.299,11.087,1.109,22.229,2.78,33.18c0.809,5.306,4.292,10.168,6.263,15.346
		c1.076,2.828,2.323,5.959,2.093,8.842c-0.582,7.296-4.762,13.088-11.091,16.136c-9.785,4.712-19.87,9.096-30.253,12.186
		c-10.681,3.179-21.873,4.642-33.86,7.061c2.394,3.237,3.961,6.866,6.718,8.793c7.694,5.379,15.482,10.914,23.949,14.845
		C371.94,396.022,399.357,403.786,422.588,420.715z M368.912,324.541c-1.356-3.22-2.596-5.744-3.5-8.383
		c-5.133-14.985-5.53-30.607-5.923-46.196c-0.739-29.363-0.901-58.747-2.128-88.088c-0.756-18.076-3.647-35.959-10.634-52.908
		c-7.46-18.097-19.524-31.065-39.891-33.034c-9.504-0.919-18.075-2.564-26.632-7.378c-12.099-6.807-25.577-5.406-38.868-2.935
		c-29.328,5.451-51.976,20.089-65.714,47.151c-9.146,18.016-13.689,37.443-15.244,57.339c-2.041,26.124-2.675,52.356-4.063,78.534
		c-1,18.851-1.291,37.861-10.34,55.839c22.44,12.529,47.549,13.53,71.952,17.472c-0.445,6.286-1.04,12.063-1.218,17.853
		c-0.22,7.159-3.335,13.005-7.495,18.525c-6.903,9.158-16.153,15.369-26.461,19.689c-17.872,7.489-36.131,14.052-54.037,21.464
		c-7.991,3.307-15.521,7.729-24.252,12.146c51.555,37.869,105.281,64.338,170.314,58.275c49.787-4.641,93.883-22.51,132.692-54.86
		c-2.923-1.851-5.031-3.544-7.414-4.635c-14.753-6.754-29.602-13.297-44.351-20.06c-11.736-5.381-23.823-10.199-34.959-16.641
		c-20.903-12.093-28.61-28.869-25.158-51.712C320.414,338.262,345.982,337.16,368.912,324.541z"/>
	<path fill="#FFFFFF" d="M513.5,242.5c-1.323-9.852-2.202-19.787-4.038-29.543c-14.359-76.288-54.885-134.824-120.951-175.236
		C345.032,11.126,297.21-0.709,246.369,1.833c-72.197,3.61-132.798,32.629-180.915,86.633
		C29.136,129.228,8.007,177.232,2.934,231.524c-7.135,76.35,15.198,143.525,67.179,200.091
		c40.03,43.561,89.966,69.337,148.284,78.992c5.055,0.837,10.07,1.923,15.103,2.893c-77.641,0-155.282,0-232.961,0
		c0-170.917,0-341.834,0-512.876c170.961,0,341.961,0,512.961,0C513.5,81.221,513.5,161.86,513.5,242.5z"/>
	<path fill="#FFFFFF" d="M288.5,513.5c10.248-1.999,20.592-3.605,30.727-6.069c36.526-8.88,70.581-23.452,98.862-48.613
		c45.231-40.24,77.759-88.612,89.972-148.942c2.139-10.566,3.03-21.385,4.52-32.084c0.247-1.772,0.61-3.529,0.919-5.293
		c0,80.333,0,160.667,0,241C438.5,513.5,363.5,513.5,288.5,513.5z"/>
	<path fill="#FFFFFF" d="M424.813,422.861c-23.322-16.996-50.847-24.79-76.447-36.673c-8.5-3.946-16.318-9.503-24.043-14.903
		c-2.768-1.935-4.341-5.578-6.744-8.827c12.034-2.429,23.27-3.897,33.993-7.089c10.425-3.103,20.549-7.504,30.372-12.234
		c6.354-3.06,10.551-8.875,11.135-16.2c0.231-2.894-1.021-6.038-2.101-8.877c-1.978-5.198-5.475-10.08-6.287-15.406
		c-1.677-10.994-2.49-22.18-2.791-33.31c-0.692-25.652-0.429-51.334-1.375-76.973c-0.88-23.846-3.659-47.512-12.81-69.898
		c-7.435-18.187-18.625-33.357-37.438-40.762c-8.36-3.291-17.685-4.115-26.552-6.143c-2.505-0.573-5.155-1.046-7.376-2.239
		c-13.74-7.376-28.283-10.463-43.819-8.865c-22.554,2.32-43.717,8.522-62.247,22.14c-20.871,15.338-33.239,36.421-40.785,60.688
		c-7.379,23.732-9.756,48.253-10.884,72.915c-0.922,20.141-1.155,40.317-2.288,60.444c-0.512,9.093-2.308,18.132-3.83,27.144
		c-0.807,4.777-2.696,9.034-8.698,8.686c-0.516,15.634,5.425,24.667,20.194,31.375c15.163,6.887,31.286,10.115,47.582,12.736
		c1.924,0.309,3.842,0.651,6.119,1.039c-3.106,8.104-8.916,13.256-15.873,16.456c-12.974,5.967-26.272,11.263-39.592,16.431
		c-18.637,7.232-37.312,14.307-53.193,26.865c-79.397-77.767-96.128-220.8-6.931-320.984
		C171.662-0.193,328.209-4.743,423.805,90.846C519.323,186.357,512.368,335.691,424.813,422.861z"/>
	<path fill="#FFFFFF" d="M370.926,326.308c-23.02,12.669-48.689,13.775-73.612,17.526c-3.466,22.934,4.271,39.775,25.257,51.916
		c11.18,6.468,23.314,11.304,35.096,16.706c14.807,6.789,29.715,13.358,44.526,20.139c2.393,1.095,4.509,2.795,7.444,4.654
		c-38.961,32.477-83.231,50.416-133.214,55.076c-65.289,6.086-119.226-20.487-170.984-58.504
		c8.765-4.434,16.325-8.873,24.347-12.193c17.977-7.44,36.307-14.029,54.25-21.548c10.349-4.337,19.635-10.572,26.565-19.766
		c4.177-5.542,7.304-11.411,7.525-18.598c0.179-5.813,0.775-11.613,1.222-17.923c-24.498-3.957-49.706-4.962-72.235-17.54
		c9.084-18.049,9.376-37.133,10.38-56.059c1.394-26.281,2.031-52.616,4.079-78.843c1.56-19.974,6.121-39.478,15.304-57.565
		c13.793-27.168,36.529-41.864,65.973-47.336c13.344-2.48,26.874-3.887,39.021,2.947c8.59,4.832,17.195,6.484,26.736,7.406
		c20.447,1.977,32.559,14.996,40.048,33.164c7.014,17.015,9.917,34.968,10.676,53.116c1.232,29.456,1.394,58.956,2.136,88.434
		c0.394,15.65,0.793,31.333,5.946,46.377C368.319,320.542,369.565,323.076,370.926,326.308z"/>
</g>
<g display="none">
	<path display="inline" d="M510.989,241.074c0,9.96,0,19.921,0,29.881c-0.289,1.426-0.741,2.841-0.843,4.281
		c-2.851,40.077-14.405,77.548-35.45,111.68c-40.475,65.647-98.738,105.979-174.753,120.12c-9.58,1.782-19.328,2.664-28.998,3.963
		c-9.96,0-19.921,0-29.881,0c-3.605-0.411-7.209-0.832-10.816-1.231c-54.19-5.989-102.226-26.373-142.916-62.736
		C33.743,399.143,4.938,338.878,1.351,267.134c-2.533-50.655,9.044-98.434,35.789-141.595C84.924,48.427,154.697,6.64,245.308,1.421
		c50.449-2.906,97.951,9.26,141.126,35.653c65.84,40.248,106.215,98.562,120.532,174.566
		C508.797,221.36,509.672,231.259,510.989,241.074z M21.402,261.905c0.561,6.182,0.968,18.344,2.866,30.269
		c7.926,49.817,29.751,92.762,65.009,128.864c6.904,7.07,6.888,7.081,15.06,2.008c0.985-0.612,1.962-1.264,3.015-1.736
		c16.167-7.237,32.458-14.211,48.487-21.74c12.257-5.757,24.607-11.524,36.134-18.565c9.368-5.722,15.159-14.567,14.954-26.44
		c-0.184-10.615,0.173-21.239,0.191-31.86c0.002-1.031-0.419-2.358-1.129-3.052c-11.742-11.474-17.233-26.146-21.004-41.574
		c-1.058-4.327-1.506-8.178-6.764-9.515c-1.833-0.466-3.537-2.515-4.73-4.236c-6.096-8.788-8.236-18.781-7.599-29.254
		c0.2-3.288,1.436-7.241,3.624-9.521c3.983-4.15,3.414-8.024,2.278-12.959c-5.918-25.706-9.522-51.616-3.286-77.822
		c5.247-22.047,17.451-38.819,38.453-48.372c21.157-9.624,43.413-11.765,66.164-8.361c10.799,1.616,20.863,5.423,27.747,14.89
		c0.806,1.108,2.765,1.595,4.286,1.929c10.757,2.367,20.391,6.594,27.94,15.057c11.015,12.349,14.492,27.34,15.367,43.15
		c1.186,21.446-2.647,42.282-8.73,62.751c-0.899,3.024-1.128,5.228,1.519,7.917c2.28,2.316,3.906,5.928,4.438,9.193
		c1.866,11.435-0.872,22.079-7.39,31.599c-1.422,2.077-3.777,4.023-6.118,4.84c-3.235,1.129-3.985,3.023-4.624,6.073
		c-3.403,16.233-8.8,31.582-20.631,43.93c-1.06,1.106-1.422,3.266-1.423,4.938c-0.01,10.454,0.438,20.914,0.211,31.36
		c-0.181,8.312,3.278,14.841,8.934,20.279c3.794,3.648,7.869,7.406,12.518,9.689c13.512,6.634,27.453,12.388,41.083,18.792
		c14.372,6.752,28.713,13.599,42.766,20.979c3.67,1.928,5.49,1.909,8.301-0.957c60.314-61.485,83.27-134.765,65.461-218.915
		C458.822,82.876,338.092,0.009,208.739,26.315C99.262,48.578,21.487,144.683,21.402,261.905z"/>
	<path fill="#FFFFFF" d="M513.5,242.5c-1.323-9.855-2.201-19.793-4.039-29.551c-14.374-76.307-54.91-134.853-121.012-175.261
		C345.102,11.189,297.41-1.025,246.761,1.893C155.79,7.132,85.739,49.085,37.765,126.505C10.913,169.838-0.71,217.807,1.833,268.663
		c3.601,72.03,32.521,132.535,86.324,180.615c40.852,36.508,89.079,56.973,143.485,62.986c3.621,0.4,7.239,0.823,10.859,1.235
		c-80.64,0-161.28,0-241.96,0c0-170.917,0-341.833,0-512.875c170.96,0,341.96,0,512.96,0C513.5,81.22,513.5,161.86,513.5,242.5z"/>
	<path fill="#FFFFFF" d="M272.5,513.5c9.709-1.304,19.495-2.189,29.113-3.979c76.318-14.197,134.812-54.69,175.449-120.598
		c21.129-34.269,32.729-71.889,35.591-112.125c0.103-1.445,0.556-2.866,0.847-4.298c0,80.333,0,160.667,0,241
		C433.167,513.5,352.833,513.5,272.5,513.5z"/>
	<path fill="#FFFFFF" d="M21.963,263.413c0.086-117.688,78.17-214.176,188.083-236.528
		C339.914,0.475,461.125,83.672,487.187,206.818c17.88,84.485-5.168,158.056-65.721,219.786c-2.823,2.878-4.649,2.896-8.334,0.961
		c-14.108-7.41-28.507-14.284-42.936-21.063c-13.684-6.429-27.68-12.206-41.246-18.866c-4.668-2.292-8.758-6.064-12.568-9.727
		c-5.678-5.46-9.151-12.014-8.969-20.359c0.228-10.488-0.222-20.989-0.212-31.485c0.002-1.678,0.365-3.847,1.429-4.958
		c11.878-12.397,17.297-27.807,20.713-44.105c0.642-3.062,1.395-4.964,4.643-6.097c2.35-0.82,4.714-2.774,6.142-4.859
		c6.543-9.557,9.292-20.244,7.419-31.725c-0.535-3.278-2.167-6.904-4.456-9.229c-2.657-2.699-2.428-4.912-1.525-7.948
		c6.107-20.551,9.956-41.47,8.765-63.001c-0.878-15.873-4.37-30.924-15.428-43.322c-7.579-8.497-17.251-12.741-28.051-15.117
		c-1.527-0.336-3.494-0.825-4.303-1.937c-6.912-9.504-17.016-13.327-27.858-14.949c-22.841-3.418-45.186-1.268-66.428,8.394
		c-21.086,9.591-33.338,26.43-38.606,48.564c-6.262,26.31-2.643,52.323,3.299,78.131c1.141,4.955,1.712,8.844-2.287,13.01
		c-2.197,2.289-3.438,6.258-3.639,9.559c-0.64,10.514,1.508,20.547,7.629,29.37c1.199,1.728,2.909,3.785,4.749,4.253
		c5.278,1.342,5.729,5.209,6.791,9.553c3.786,15.49,9.299,30.22,21.088,41.74c0.713,0.696,1.135,2.029,1.133,3.064
		c-0.018,10.663-0.376,21.329-0.192,31.987c0.206,11.92-5.608,20.8-15.014,26.545c-11.573,7.069-23.972,12.859-36.278,18.639
		c-16.094,7.559-32.449,14.56-48.68,21.826c-1.058,0.473-2.038,1.129-3.027,1.743c-8.205,5.093-8.188,5.082-15.12-2.016
		c-35.398-36.246-57.31-79.362-65.268-129.377C22.936,281.831,22.526,269.62,21.963,263.413z"/>
</g>
<g display="none">
	<path fill="#FFFFFF" d="M0.078,0.078c13.334,0,26.667,0,40.001,0c0,13.334,0,26.667,0,40.001c-13.334,0-26.667,0-40.001,0
		C0.078,26.745,0.078,13.412,0.078,0.078z M5.688,36.064c10.159,0,20.256,0,30.407,0c-0.074-0.448-0.122-0.872-0.217-1.286
		c-0.445-1.925-1.68-3.253-3.365-4.133c-1.413-0.738-2.91-1.317-4.374-1.955c-0.921-0.401-1.836-0.811-2.576-1.511
		c-0.413-0.39-0.752-0.832-0.766-1.441c-0.014-0.638-0.021-1.275-0.045-1.913c-0.024-0.613,0.052-1.129,0.502-1.658
		c0.703-0.827,1.037-1.879,1.242-2.953c0.027-0.141,0.079-0.356,0.173-0.391c0.836-0.312,1.036-1.044,1.207-1.786
		c0.153-0.662,0.204-1.342-0.302-1.883c-0.212-0.227-0.192-0.403-0.12-0.65c0.541-1.864,0.867-3.753,0.591-5.699
		c-0.269-1.898-1.288-3.403-3.337-3.766c-0.117-0.021-0.261-0.082-0.327-0.172c-0.49-0.663-1.195-0.941-1.956-1.111
		c-1.31-0.292-2.622-0.178-3.91,0.106c-1.363,0.3-2.567,0.911-3.448,2.051c-0.916,1.186-1.227,2.566-1.29,4.018
		c-0.068,1.572,0.189,3.11,0.55,4.636c0.035,0.15,0.015,0.374-0.077,0.484c-0.718,0.859-0.467,2.928,0.455,3.575
		c0.084,0.059,0.199,0.079,0.272,0.147c0.101,0.093,0.227,0.204,0.254,0.326c0.295,1.324,0.732,2.575,1.716,3.567
		c0.062,0.063,0.089,0.185,0.089,0.28c0.001,0.833-0.024,1.667-0.01,2.499c0.014,0.786-0.35,1.373-0.92,1.853
		c-0.277,0.234-0.569,0.472-0.895,0.621c-1.335,0.609-2.682,1.192-4.03,1.771c-1.296,0.557-2.55,1.179-3.594,2.155
		C6.374,32.976,5.796,34.392,5.688,36.064z"/>
	<path display="inline" d="M17.269,511c1.683-26.256,10.77-48.484,29.828-66.293c16.398-15.323,36.086-25.09,56.438-33.832
		c21.171-9.093,42.325-18.237,63.283-27.803c5.111-2.333,9.703-6.079,14.053-9.746c8.942-7.538,14.654-16.753,14.44-29.09
		c-0.227-13.077,0.166-26.163,0.154-39.245c-0.001-1.487-0.425-3.412-1.399-4.393c-15.463-15.584-22.315-35.224-26.952-56.012
		c-0.429-1.924-2.404-3.653-3.988-5.12c-1.148-1.063-2.949-1.383-4.267-2.307c-14.481-10.15-18.417-42.641-7.144-56.133
		c1.433-1.715,1.759-5.239,1.202-7.595c-5.663-23.948-9.698-48.098-8.634-72.789c0.983-22.804,5.866-44.476,20.254-63.091
		c13.83-17.895,32.741-27.489,54.138-32.204c20.236-4.459,40.825-6.258,61.4-1.667c11.956,2.668,23.023,7.04,30.718,17.447
		c1.045,1.414,3.297,2.369,5.139,2.695c32.172,5.7,48.168,29.332,52.393,59.129c4.334,30.564-0.796,60.231-9.284,89.493
		c-1.124,3.876-1.44,6.636,1.888,10.201c7.939,8.506,7.135,19.174,4.739,29.573c-2.687,11.658-5.821,23.148-18.953,28.046
		c-1.486,0.554-2.302,3.938-2.724,6.145c-3.225,16.873-8.46,33.384-19.505,46.373c-7.069,8.314-8.259,16.41-7.887,26.038
		c0.387,10.005,0.492,20.021,0.712,30.032c0.21,9.56,5.547,16.496,12.025,22.627c11.63,11.006,25.999,17.435,40.456,23.734
		c22.995,10.02,46.492,19.114,68.681,30.698c26.464,13.816,45.86,34.674,52.845,64.901c1.5,6.49,2.246,13.153,3.413,20.186
		C335.338,511,176.781,511,17.269,511z"/>
</g>
<g display="none">
	<path display="inline" d="M270.945,511c-9.96,0-19.921,0-29.881,0c-3.605-0.411-7.209-0.832-10.816-1.231
		c-54.19-5.989-102.226-26.373-142.916-62.736C33.743,399.143,4.938,338.878,1.351,267.134
		c-2.533-50.655,9.044-98.434,35.789-141.595C84.924,48.427,154.697,6.64,245.308,1.421c50.449-2.906,97.951,9.26,141.126,35.653
		c65.84,40.248,106.215,98.562,120.532,174.566c1.831,9.719,2.706,19.618,4.023,29.434c0,9.96,0,19.921,0,29.881
		c-0.289,1.426-0.741,2.841-0.843,4.281c-2.851,40.077-14.405,77.548-35.45,111.68c-40.475,65.647-98.738,105.979-174.753,120.12
		C290.363,508.819,280.615,509.701,270.945,511z M306.037,352.175c-2.162,12.385,4.542,21.401,14.186,28.882
		c12.901,10.008,28.415,14.811,43.041,21.421c16.126,7.288,32.073,14.994,47.871,22.968c3.353,1.693,5.116,2.103,7.897-0.72
		c60.597-61.535,83.693-134.993,65.705-219.305C457.687,78.638,331.698-1.072,205.663,26.917
		C108.091,48.586,34.702,128.962,23.199,227.857c-7.19,61.818,7.79,118.238,44.914,168.347
		c8.432,11.382,18.429,21.605,27.792,32.462c19.471-13.683,40.615-20.727,60.961-29.538c12.106-5.243,24.032-11.219,35.212-18.192
		c10.562-6.587,16.277-16.725,14.607-30.097c-8.743-1.397-17.602-2.545-26.347-4.27c-13.833-2.73-27.629-5.757-39.685-13.683
		c-6.716-4.416-7.33-7.295-3.428-14c1.162-1.996,2.457-4.094,2.894-6.303c1.922-9.728,4.439-19.453,5.102-29.29
		c1.328-19.694,1.509-39.464,2.303-59.197c0.882-21.907,2.709-43.726,7.926-65.095c4.986-20.421,13.178-39.346,27.913-54.756
		c16.771-17.54,38.052-25.94,61.614-29.536c17.328-2.645,33.699-0.853,48.555,9.341c1.215,0.834,3.159,0.781,4.774,0.83
		c29.011,0.885,47.716,14.154,58.383,41.314c8.437,21.482,10.948,44.069,11.777,66.802c1.144,31.34,1.159,62.72,2.173,94.066
		c0.352,10.888,1.458,21.946,7.282,31.676c3.798,6.346,3.531,9.786-2.948,13.689c-5.488,3.306-11.327,6.599-17.453,8.166
		C340.706,344.892,323.66,348.279,306.037,352.175z"/>
	<path fill="#FFFFFF" d="M513.5,242.5c-1.323-9.855-2.201-19.793-4.039-29.551c-14.374-76.307-54.91-134.853-121.012-175.261
		C345.102,11.189,297.41-1.025,246.761,1.893C155.79,7.132,85.739,49.085,37.765,126.505C10.913,169.838-0.71,217.807,1.833,268.663
		c3.601,72.03,32.521,132.535,86.324,180.615c40.852,36.508,89.079,56.973,143.485,62.986c3.621,0.4,7.239,0.823,10.859,1.235
		c-80.64,0-161.28,0-241.96,0c0-170.917,0-341.833,0-512.875c170.96,0,341.96,0,512.96,0C513.5,81.22,513.5,161.86,513.5,242.5z"/>
	<path fill="#FFFFFF" d="M272.5,513.5c9.709-1.304,19.495-2.189,29.113-3.979c76.318-14.197,134.812-54.69,175.449-120.598
		c21.129-34.269,32.729-71.889,35.591-112.125c0.103-1.445,0.556-2.866,0.847-4.298c0,80.333,0,160.667,0,241
		C433.167,513.5,352.833,513.5,272.5,513.5z"/>
	<path fill="#FFFFFF" d="M307.732,354.043c17.693-3.911,34.807-7.312,51.686-11.628c6.151-1.573,12.013-4.879,17.523-8.198
		c6.504-3.919,6.773-7.372,2.96-13.743c-5.847-9.769-6.958-20.871-7.311-31.802c-1.017-31.471-1.033-62.976-2.181-94.44
		c-0.833-22.823-3.353-45.5-11.824-67.068c-10.71-27.268-29.489-40.59-58.615-41.478c-1.621-0.049-3.573,0.003-4.792-0.834
		c-14.915-10.235-31.351-12.033-48.748-9.378c-23.655,3.61-45.021,12.044-61.859,29.654c-14.794,15.472-23.018,34.472-28.024,54.974
		c-5.238,21.455-7.072,43.36-7.958,65.355c-0.798,19.811-0.979,39.66-2.312,59.432c-0.666,9.876-3.193,19.64-5.122,29.407
		c-0.438,2.218-1.739,4.324-2.905,6.328c-3.918,6.732-3.301,9.622,3.442,14.055c12.104,7.958,25.955,10.997,39.843,13.738
		c8.78,1.733,17.674,2.885,26.451,4.287c1.676,13.426-4.062,23.603-14.665,30.217c-11.224,7.001-23.197,13.001-35.352,18.264
		c-20.427,8.846-41.656,15.917-61.204,29.655c-9.401-10.901-19.437-21.164-27.903-32.591
		C31.589,347.939,16.549,291.295,23.768,229.23c11.549-99.289,85.23-179.985,183.191-201.74
		C333.495-0.61,459.986,79.417,487.143,206.705c18.06,84.648-5.128,158.398-65.966,220.177c-2.791,2.835-4.561,2.422-7.928,0.723
		c-15.861-8.006-31.871-15.742-48.061-23.06c-14.684-6.637-30.26-11.458-43.212-21.506
		C312.292,375.528,305.561,366.477,307.732,354.043z"/>
</g>
</svg>
