<?xml version="1.0" encoding="utf-8"?>
<!-- Generator: Adobe Illustrator 16.0.0, SVG Export Plug-In . SVG Version: 6.00 Build 0)  -->
<!DOCTYPE svg PUBLIC "-//W3C//DTD SVG 1.1//EN" "http://www.w3.org/Graphics/SVG/1.1/DTD/svg11.dtd">
<svg version="1.1" id="Layer_1" xmlns="http://www.w3.org/2000/svg" xmlns:xlink="http://www.w3.org/1999/xlink" x="0px" y="0px"
	 width="512px" height="512px" viewBox="0 0 512 512" enable-background="new 0 0 512 512" xml:space="preserve">
<g>
	<line fill="none" stroke="#B35047" x1="32" y1="0" x2="32" y2="512"/>
	<line fill="none" stroke="#B35047" x1="64" y1="0" x2="64" y2="512"/>
	<line fill="none" stroke="#B35047" x1="96" y1="0" x2="96" y2="512"/>
	<line fill="none" stroke="#B35047" x1="128" y1="0" x2="128" y2="512"/>
	<line fill="none" stroke="#B35047" x1="160" y1="0" x2="160" y2="512"/>
	<line fill="none" stroke="#B35047" x1="192" y1="0" x2="192" y2="512"/>
	<line fill="none" stroke="#B35047" x1="224" y1="0" x2="224" y2="512"/>
	<line fill="none" stroke="#B35047" x1="256" y1="0" x2="256" y2="512"/>
	<line fill="none" stroke="#B35047" x1="288" y1="0" x2="288" y2="512"/>
	<line fill="none" stroke="#B35047" x1="320" y1="0" x2="320" y2="512"/>
	<line fill="none" stroke="#B35047" x1="352" y1="0" x2="352" y2="512"/>
	<line fill="none" stroke="#B35047" x1="384" y1="0" x2="384" y2="512"/>
	<line fill="none" stroke="#B35047" x1="416" y1="0" x2="416" y2="512"/>
	<line fill="none" stroke="#B35047" x1="448" y1="0" x2="448" y2="512"/>
	<line fill="none" stroke="#B35047" x1="480" y1="0" x2="480" y2="512"/>
	<line fill="none" stroke="#B35047" x1="0" y1="32" x2="512" y2="32"/>
	<line fill="none" stroke="#B35047" x1="0" y1="64" x2="512" y2="64"/>
	<line fill="none" stroke="#B35047" x1="0" y1="96" x2="512" y2="96"/>
	<line fill="none" stroke="#B35047" x1="0" y1="128" x2="512" y2="128"/>
	<line fill="none" stroke="#B35047" x1="0" y1="160" x2="512" y2="160"/>
	<line fill="none" stroke="#B35047" x1="0" y1="192" x2="512" y2="192"/>
	<line fill="none" stroke="#B35047" x1="0" y1="224" x2="512" y2="224"/>
	<line fill="none" stroke="#B35047" x1="0" y1="256" x2="512" y2="256"/>
	<line fill="none" stroke="#B35047" x1="0" y1="288" x2="512" y2="288"/>
	<line fill="none" stroke="#B35047" x1="0" y1="320" x2="512" y2="320"/>
	<line fill="none" stroke="#B35047" x1="0" y1="352" x2="512" y2="352"/>
	<line fill="none" stroke="#B35047" x1="0" y1="384" x2="512" y2="384"/>
	<line fill="none" stroke="#B35047" x1="0" y1="416" x2="512" y2="416"/>
	<line fill="none" stroke="#B35047" x1="0" y1="448" x2="512" y2="448"/>
	<line fill="none" stroke="#B35047" x1="0" y1="480" x2="512" y2="480"/>
	<rect fill="none" stroke="#B35047" width="512" height="512"/>
</g>
<g>
	<path display="none" fill-rule="evenodd" clip-rule="evenodd" fill="#FFFFFF" d="M0.5,0.5c171,0,342,0,513,0c0,171,0,342,0,513
		c-171,0-342,0-513,0C0.5,342.5,0.5,171.5,0.5,0.5z M165.407,277.979c-1.898-2.302-2.938-3.488-3.897-4.737
		c-5.684-7.396-11.18-14.941-17.052-22.183c-15.268-18.825-42.295-21.86-60.664-6.977c-14.36,11.636-18.983,34.146-9.689,51.423
		c17.42,32.383,34.846,64.782,53.256,96.604c9.305,16.085,20.184,31.361,31.398,46.213c13.735,18.191,30.826,32.828,52.356,41.225
		c38.963,15.195,79.192,17.267,119.805,8.938c37.063-7.602,64.575-28.836,82.306-62.348c13.135-24.828,18.316-51.577,18.322-79.468
		c0.015-66.313,0.03-132.625-0.039-198.937c-0.006-5.813-0.267-11.675-1.032-17.432c-2.866-21.556-15.412-34.838-35.454-36.219
		c-8.05-0.555-16.281,1.522-24.432,2.402c-0.637-6.17-1.086-13.472-2.193-20.672c-2.958-19.234-16.118-31.54-35.095-33.111
		c-9.498-0.785-18.535,0.964-27.126,5.561c-8.9-19.127-23.679-28.417-44.551-25.574c-19.941,2.717-30.52,15.876-34.471,33.765
		c-7.997-1.251-15.705-3.855-23.215-3.373c-23.814,1.532-38.488,17.939-38.512,41.827c-0.059,58.814-0.02,117.63-0.02,176.444
		C165.407,273.103,165.407,274.854,165.407,277.979z"/>
	<path fill-rule="evenodd" clip-rule="evenodd" d="M164.456,277.394c0-3.344,0-5.217,0-7.091c0-62.932-0.041-125.864,0.021-188.795
		c0.025-25.561,15.727-43.116,41.208-44.756c8.035-0.516,16.283,2.271,24.84,3.609c4.228-19.141,15.546-33.221,36.884-36.128
		c22.333-3.042,38.146,6.898,47.669,27.364c9.192-4.918,18.862-6.79,29.025-5.949c20.305,1.681,34.386,14.848,37.551,35.429
		c1.186,7.704,1.666,15.518,2.347,22.119c8.722-0.941,17.529-3.164,26.143-2.57c21.444,1.478,34.869,15.689,37.936,38.754
		c0.819,6.159,1.099,12.432,1.104,18.651c0.074,70.953,0.058,141.908,0.042,212.862c-0.007,29.843-5.551,58.465-19.605,85.03
		c-18.971,35.857-48.41,58.578-88.066,66.712c-43.455,8.911-86.5,6.695-128.191-9.563c-23.037-8.984-41.324-24.646-56.021-44.11
		c-11.999-15.892-23.64-32.237-33.596-49.448c-19.698-34.05-38.345-68.717-56.984-103.366c-9.944-18.487-4.998-42.572,10.367-55.022
		c19.654-15.926,48.574-12.679,64.911,7.465c6.283,7.748,12.164,15.822,18.245,23.735
		C161.313,273.661,162.425,274.931,164.456,277.394z M427.405,249.314c0-37.443,0.183-74.889-0.149-112.329
		c-0.069-7.719-1.204-15.673-3.385-23.064c-2.572-8.717-8.624-11.757-18.783-11.673c-9.795,0.079-15.643,3.167-18.112,11.828
		c-2.113,7.411-3.153,15.354-3.242,23.076c-0.352,30.665-0.114,61.335-0.197,92.003c-0.007,2.801-0.323,5.737-1.211,8.369
		c-1.619,4.803-5.654,6.992-10.415,6.695c-4.482-0.281-8.233-2.608-9.378-7.4c-0.652-2.732-0.956-5.612-0.961-8.426
		c-0.09-50.639-0.008-101.276-0.285-151.912c-0.033-5.936-1.571-11.97-3.144-17.759c-1.491-5.491-5.466-9.365-11.168-10.402
		c-16.321-2.968-28.792,1.878-29.265,21.62c-0.042,1.781-0.021,3.565-0.021,5.349c-0.001,47.606,0.004,95.213-0.014,142.82
		c-0.001,2.13,0.078,4.319-0.355,6.381c-1.183,5.619-5.72,9.105-11.084,8.819c-5.103-0.272-9.137-3.983-9.993-9.445
		c-0.328-2.097-0.277-4.264-0.278-6.398c-0.013-54.918,0-109.835-0.036-164.752c-0.002-3.019-0.14-6.075-0.627-9.047
		c-1.721-10.491-9.688-17.604-20.081-18.155c-10.79-0.572-19.509,5.623-22.182,16.189c-0.816,3.224-0.881,6.697-0.884,10.056
		c-0.05,55.452-0.02,110.904-0.083,166.356c-0.004,2.803-0.235,5.769-1.161,8.374c-2.62,7.371-12.447,9.463-17.268,3.309
		c-2.277-2.909-3.437-7.442-3.462-11.251c-0.25-36.729-0.136-73.459-0.159-110.19c-0.006-10.161,0.114-20.331-0.26-30.481
		c-0.304-8.207-4.668-14.038-12.156-17.396c-15.761-7.067-31.138,3.308-31.362,21.34c-0.199,16.045-0.045,32.094-0.045,48.141
		c0,58.662,0.018,117.324-0.049,175.985c-0.003,2.978-0.038,6.261-1.221,8.876c-3.637,8.04-13.519,8.203-19.556,0.357
		c-12.608-16.385-25.021-32.922-37.609-49.323c-2.045-2.665-4.313-5.297-6.938-7.357c-13.369-10.497-31.729-5.539-36.137,9.665
		c-1.921,6.629-1.175,13.105,2.065,19.164c11.761,21.98,23.315,44.078,35.496,65.825c15.753,28.123,31.347,56.364,51.585,81.696
		c16.218,20.301,35.734,35.864,61.092,42.823c31.706,8.702,63.947,10.61,96.355,4.828c42.408-7.564,70.745-32.27,85.945-72.362
		c7.296-19.241,10.084-39.274,10.148-59.724C427.484,316.713,427.406,283.015,427.405,249.314z"/>
	<path display="none" fill-rule="evenodd" clip-rule="evenodd" fill="#FFFFFF" d="M411.155,251.736
		c0,31.495,0.073,62.989-0.026,94.483c-0.061,19.111-2.666,37.834-9.484,55.816c-14.206,37.47-40.689,60.559-80.323,67.629
		c-30.288,5.403-60.42,3.62-90.051-4.513c-23.699-6.504-41.938-21.049-57.096-40.021c-18.914-23.675-33.487-50.068-48.21-76.352
		c-11.384-20.324-22.183-40.977-33.174-61.52c-3.029-5.662-3.726-11.715-1.93-17.91c4.12-14.209,21.278-18.843,33.772-9.032
		c2.453,1.926,4.572,4.385,6.484,6.876c11.765,15.328,23.365,30.783,35.149,46.097c5.642,7.332,14.877,7.18,18.276-0.334
		c1.105-2.444,1.138-5.513,1.141-8.296c0.062-54.823,0.045-109.647,0.046-164.472c0-14.997-0.145-29.996,0.042-44.991
		c0.21-16.853,14.581-26.549,29.311-19.944c6.998,3.138,11.077,8.588,11.36,16.258c0.35,9.486,0.237,18.991,0.243,28.487
		c0.021,34.328-0.085,68.656,0.148,102.981c0.024,3.56,1.107,7.796,3.236,10.515c4.504,5.752,13.689,3.797,16.137-3.092
		c0.865-2.435,1.082-5.207,1.085-7.826c0.06-51.824,0.031-103.648,0.078-155.474c0.002-3.139,0.063-6.385,0.825-9.397
		c2.498-9.875,10.647-15.665,20.731-15.13c9.713,0.516,17.159,7.162,18.768,16.967c0.455,2.777,0.584,5.634,0.586,8.455
		c0.033,51.324,0.021,102.648,0.033,153.974c0.001,1.995-0.046,4.021,0.261,5.98c0.8,5.104,4.57,8.572,9.339,8.827
		c5.014,0.268,9.254-2.991,10.359-8.242c0.405-1.927,0.331-3.973,0.332-5.964c0.017-44.492,0.012-88.984,0.013-133.477
		c0-1.667-0.021-3.334,0.02-4.999c0.441-18.45,12.096-22.979,27.35-20.205c5.329,0.969,9.044,4.59,10.438,9.722
		c1.47,5.41,2.907,11.05,2.938,16.597c0.26,47.323,0.183,94.648,0.267,141.974c0.005,2.63,0.289,5.321,0.898,7.875
		c1.069,4.479,4.575,6.653,8.765,6.916c4.449,0.277,8.22-1.769,9.733-6.257c0.829-2.46,1.125-5.204,1.132-7.822
		c0.077-28.661-0.145-57.325,0.185-85.983c0.083-7.218,1.055-14.641,3.029-21.566c2.309-8.095,7.773-10.98,16.928-11.055
		c9.494-0.078,15.15,2.763,17.555,10.909c2.038,6.908,3.099,14.342,3.163,21.556C411.325,181.747,411.154,216.742,411.155,251.736z"
		/>
</g>
</svg>
