<?xml version="1.0" encoding="utf-8"?>
<!-- Generator: Adobe Illustrator 16.0.0, SVG Export Plug-In . SVG Version: 6.00 Build 0)  -->
<!DOCTYPE svg PUBLIC "-//W3C//DTD SVG 1.1//EN" "http://www.w3.org/Graphics/SVG/1.1/DTD/svg11.dtd">
<svg version="1.1" id="Layer_1" xmlns="http://www.w3.org/2000/svg" xmlns:xlink="http://www.w3.org/1999/xlink" x="0px" y="0px"
	 width="512px" height="512px" viewBox="0 0 512 512" enable-background="new 0 0 512 512" xml:space="preserve">
<g>
	<line fill="none" stroke="#B35047" x1="32" y1="0" x2="32" y2="512"/>
	<line fill="none" stroke="#B35047" x1="64" y1="0" x2="64" y2="512"/>
	<line fill="none" stroke="#B35047" x1="96" y1="0" x2="96" y2="512"/>
	<line fill="none" stroke="#B35047" x1="128" y1="0" x2="128" y2="512"/>
	<line fill="none" stroke="#B35047" x1="160" y1="0" x2="160" y2="512"/>
	<line fill="none" stroke="#B35047" x1="192" y1="0" x2="192" y2="512"/>
	<line fill="none" stroke="#B35047" x1="224" y1="0" x2="224" y2="512"/>
	<line fill="none" stroke="#B35047" x1="256" y1="0" x2="256" y2="512"/>
	<line fill="none" stroke="#B35047" x1="288" y1="0" x2="288" y2="512"/>
	<line fill="none" stroke="#B35047" x1="320" y1="0" x2="320" y2="512"/>
	<line fill="none" stroke="#B35047" x1="352" y1="0" x2="352" y2="512"/>
	<line fill="none" stroke="#B35047" x1="384" y1="0" x2="384" y2="512"/>
	<line fill="none" stroke="#B35047" x1="416" y1="0" x2="416" y2="512"/>
	<line fill="none" stroke="#B35047" x1="448" y1="0" x2="448" y2="512"/>
	<line fill="none" stroke="#B35047" x1="480" y1="0" x2="480" y2="512"/>
	<line fill="none" stroke="#B35047" x1="0" y1="32" x2="512" y2="32"/>
	<line fill="none" stroke="#B35047" x1="0" y1="64" x2="512" y2="64"/>
	<line fill="none" stroke="#B35047" x1="0" y1="96" x2="512" y2="96"/>
	<line fill="none" stroke="#B35047" x1="0" y1="128" x2="512" y2="128"/>
	<line fill="none" stroke="#B35047" x1="0" y1="160" x2="512" y2="160"/>
	<line fill="none" stroke="#B35047" x1="0" y1="192" x2="512" y2="192"/>
	<line fill="none" stroke="#B35047" x1="0" y1="224" x2="512" y2="224"/>
	<line fill="none" stroke="#B35047" x1="0" y1="256" x2="512" y2="256"/>
	<line fill="none" stroke="#B35047" x1="0" y1="288" x2="512" y2="288"/>
	<line fill="none" stroke="#B35047" x1="0" y1="320" x2="512" y2="320"/>
	<line fill="none" stroke="#B35047" x1="0" y1="352" x2="512" y2="352"/>
	<line fill="none" stroke="#B35047" x1="0" y1="384" x2="512" y2="384"/>
	<line fill="none" stroke="#B35047" x1="0" y1="416" x2="512" y2="416"/>
	<line fill="none" stroke="#B35047" x1="0" y1="448" x2="512" y2="448"/>
	<line fill="none" stroke="#B35047" x1="0" y1="480" x2="512" y2="480"/>
	<rect fill="none" stroke="#B35047" width="512" height="512"/>
</g>
<g>
	<path display="none" fill-rule="evenodd" clip-rule="evenodd" fill="#FFFFFF" d="M-0.5,513.502c0-171.001,0-342,0-513.001
		C170.501,0.502,341.5,0.5,512.5,0.5c0.001,171,0.001,342.001,0,513C341.5,513.502,170.5,513.502-0.5,513.502z M118.479,268.424
		c0.331-0.585,0.658-1.169,0.985-1.756c1.942-0.001,3.88,0,5.821,0c96.805-0.001,193.605,0.005,290.41-0.027
		c2.475,0,5.054-0.036,7.405-0.697c7.547-2.116,10.009-11.533,3.927-16.433c-2.648-2.131-6.973-3.044-10.538-3.052
		c-97.137-0.156-194.275-0.126-291.414-0.126c-1.914,0-3.827,0-5.741,0c-0.46-0.687-0.92-1.37-1.377-2.057
		c1.589-0.908,3.473-1.521,4.725-2.769c28.799-28.695,57.54-57.449,86.247-86.236c1.739-1.746,3.4-3.697,4.602-5.832
		c2.585-4.603,0.854-10.201-3.691-12.93c-4.653-2.796-9.217-1.809-14.233,3.204c-37.949,37.921-75.891,75.854-113.825,113.793
		c-0.909,0.908-1.718,1.92-2.694,3.021c0.846,0.957,1.456,1.721,2.138,2.406c38.168,38.177,76.333,76.355,114.534,114.5
		c1.275,1.272,2.782,2.402,4.366,3.264c4.923,2.682,10.525,0.99,13.283-3.855c2.584-4.544,1.457-9.215-3.546-14.221
		c-28.971-28.994-57.943-57.984-86.957-86.938C121.623,270.404,119.963,269.502,118.479,268.424z"/>
	<path fill-rule="evenodd" clip-rule="evenodd" d="M57.148,273.801c2.153,1.563,4.56,2.873,6.42,4.728
		c42.066,41.982,84.079,84.019,126.085,126.061c7.253,7.257,8.891,14.032,5.143,20.617c-4.001,7.028-12.121,9.48-19.264,5.593
		c-2.295-1.248-4.479-2.886-6.329-4.732c-55.39-55.31-110.73-110.664-166.072-166.024c-0.994-0.995-1.875-2.103-3.104-3.487
		c1.417-1.598,2.591-3.065,3.907-4.382c55.005-55.011,110.018-110.014,165.048-165c7.273-7.268,13.891-8.699,20.639-4.646
		c6.587,3.955,9.098,12.078,5.35,18.747c-1.74,3.097-4.147,5.925-6.672,8.459C146.674,151.475,105,193.166,63.242,234.773
		c-1.815,1.81-4.547,2.699-6.854,4.016c0.666,0.994,1.332,1.989,1.999,2.982c2.777,0,5.551,0,8.325,0
		c140.85,0,281.701-0.045,422.549,0.184c5.17,0.01,11.442,1.334,15.279,4.426c8.821,7.103,5.253,20.755-5.69,23.828
		c-3.409,0.956-7.15,1.009-10.739,1.008c-140.365,0.048-280.73,0.041-421.097,0.041c-2.81-0.002-5.623,0.001-8.436,0
		C58.104,272.106,57.626,272.955,57.148,273.801z"/>
</g>
</svg>
