<?xml version="1.0" encoding="utf-8"?>
<!-- Generator: Adobe Illustrator 16.0.0, SVG Export Plug-In . SVG Version: 6.00 Build 0)  -->
<!DOCTYPE svg PUBLIC "-//W3C//DTD SVG 1.1//EN" "http://www.w3.org/Graphics/SVG/1.1/DTD/svg11.dtd">
<svg version="1.1" id="Layer_1" xmlns="http://www.w3.org/2000/svg" xmlns:xlink="http://www.w3.org/1999/xlink" x="0px" y="0px"
	 width="512px" height="512px" viewBox="0 0 512 512" enable-background="new 0 0 512 512" xml:space="preserve">
<g>
	<line fill="none" stroke="#B35047" x1="32" y1="0" x2="32" y2="512"/>
	<line fill="none" stroke="#B35047" x1="64" y1="0" x2="64" y2="512"/>
	<line fill="none" stroke="#B35047" x1="96" y1="0" x2="96" y2="512"/>
	<line fill="none" stroke="#B35047" x1="128" y1="0" x2="128" y2="512"/>
	<line fill="none" stroke="#B35047" x1="160" y1="0" x2="160" y2="512"/>
	<line fill="none" stroke="#B35047" x1="192" y1="0" x2="192" y2="512"/>
	<line fill="none" stroke="#B35047" x1="224" y1="0" x2="224" y2="512"/>
	<line fill="none" stroke="#B35047" x1="256" y1="0" x2="256" y2="512"/>
	<line fill="none" stroke="#B35047" x1="288" y1="0" x2="288" y2="512"/>
	<line fill="none" stroke="#B35047" x1="320" y1="0" x2="320" y2="512"/>
	<line fill="none" stroke="#B35047" x1="352" y1="0" x2="352" y2="512"/>
	<line fill="none" stroke="#B35047" x1="384" y1="0" x2="384" y2="512"/>
	<line fill="none" stroke="#B35047" x1="416" y1="0" x2="416" y2="512"/>
	<line fill="none" stroke="#B35047" x1="448" y1="0" x2="448" y2="512"/>
	<line fill="none" stroke="#B35047" x1="480" y1="0" x2="480" y2="512"/>
	<line fill="none" stroke="#B35047" x1="0" y1="32" x2="512" y2="32"/>
	<line fill="none" stroke="#B35047" x1="0" y1="64" x2="512" y2="64"/>
	<line fill="none" stroke="#B35047" x1="0" y1="96" x2="512" y2="96"/>
	<line fill="none" stroke="#B35047" x1="0" y1="128" x2="512" y2="128"/>
	<line fill="none" stroke="#B35047" x1="0" y1="160" x2="512" y2="160"/>
	<line fill="none" stroke="#B35047" x1="0" y1="192" x2="512" y2="192"/>
	<line fill="none" stroke="#B35047" x1="0" y1="224" x2="512" y2="224"/>
	<line fill="none" stroke="#B35047" x1="0" y1="256" x2="512" y2="256"/>
	<line fill="none" stroke="#B35047" x1="0" y1="288" x2="512" y2="288"/>
	<line fill="none" stroke="#B35047" x1="0" y1="320" x2="512" y2="320"/>
	<line fill="none" stroke="#B35047" x1="0" y1="352" x2="512" y2="352"/>
	<line fill="none" stroke="#B35047" x1="0" y1="384" x2="512" y2="384"/>
	<line fill="none" stroke="#B35047" x1="0" y1="416" x2="512" y2="416"/>
	<line fill="none" stroke="#B35047" x1="0" y1="448" x2="512" y2="448"/>
	<line fill="none" stroke="#B35047" x1="0" y1="480" x2="512" y2="480"/>
	<rect fill="none" stroke="#B35047" width="512" height="512"/>
</g>
<g>
	<path display="none" fill-rule="evenodd" clip-rule="evenodd" fill="#FFFFFF" d="M107.5,513.5c-35.667,0-71.333,0-107,0
		c0-171,0-342,0-513c171,0,342,0,513,0c0,35.667,0,71.333,0,107c-0.274-1.609-0.721-3.21-0.799-4.829
		c-1.281-26.4-11.44-48.913-29.402-68.151C445.402-6.065,377.583-9.227,337.067,28.565C314.784,49.352,293.822,71.549,272,92.837
		c-19.87,19.382-31.807,42.454-34.045,70.254c-1.643,20.398,2.481,39.642,11.917,57.769c0.585-0.185,0.989-0.19,1.199-0.396
		c3.572-3.49,6.955-7.197,10.727-10.453c2.93-2.526,3.312-4.754,2.016-8.522c-11.801-34.344-5.312-65.063,19.844-91.221
		c20.209-21.012,41.059-41.41,61.796-61.907c20.487-20.251,45.142-29.193,73.758-24.846c32.681,4.965,55.707,23.337,67.472,54.039
		c12.088,31.546,7.099,61.608-15.556,86.66c-21.765,24.067-45.594,46.269-68.554,69.252c-1.995,1.997-4.163,3.857-6.43,5.541
		c-25.666,19.064-53.563,22.832-83.599,12.196c-1.59-0.563-4.176-0.836-5.229,0.041c-4.836,4.025-9.291,8.508-13.855,12.799
		c0.904,0.995,1.063,1.292,1.311,1.424c38.068,20.359,87.783,14.585,119.102-14.963c23.5-22.172,46.034-45.375,68.822-68.294
		c13.937-14.016,23.205-30.812,27.458-50.124c1.703-7.733,2.267-15.717,3.349-23.586c0,135,0,270,0,405c-135,0-270,0-405,0
		c1.795-0.275,3.583-0.709,5.388-0.802c24.899-1.286,46.993-9.933,64.972-27.106c23.373-22.326,46.256-45.191,68.732-68.423
		c23.556-24.348,32.804-53.898,28.815-87.499c-1.492-12.57-5.288-24.472-11.927-36.542c-4.174,4.428-7.617,8.51-11.526,12.084
		c-2.743,2.509-3.034,4.594-1.814,8.142c11.87,34.541,5.364,65.382-20.024,91.658c-20.147,20.853-40.842,41.181-61.472,61.561
		c-20.486,20.237-45.119,29.27-73.759,24.924c-32.68-4.958-55.787-23.261-67.537-53.993c-12.135-31.738-7.073-61.903,15.836-87.077
		c21.737-23.886,45.396-46.024,68.248-68.895c1.996-1.997,4.167-3.855,6.434-5.539c25.677-19.065,53.578-22.843,83.622-12.181
		c1.584,0.562,4.171,0.806,5.226-0.076c4.828-4.038,9.275-8.531,13.62-12.634c-0.533-1.052-0.563-1.238-0.666-1.296
		c-36.552-20.438-87.944-15.007-118.44,13.692c-23.899,22.491-47.017,45.84-69.897,69.376C7.894,358.01-1.331,388.414,3.366,423.151
		c5.461,40.391,37.909,76.753,77.601,86.192C89.649,511.409,98.647,512.149,107.5,513.5z M165.955,360.616
		c3.035-2.06,6.492-3.696,9.044-6.241c59.819-59.657,119.544-119.41,179.259-179.172c1.512-1.514,3.473-3.165,3.893-5.049
		c0.673-3.02,1.225-6.723,0.067-9.366c-3.098-7.072-11.25-7.248-17.748-0.752c-60.103,60.079-120.191,120.172-180.254,180.29
		c-1.392,1.394-2.67,3.002-3.61,4.724C152.995,351.663,157.695,359.46,165.955,360.616z"/>
	<path fill-rule="evenodd" clip-rule="evenodd" d="M509.443,108.493c-1.07,7.791-1.629,15.694-3.314,23.35
		c-4.211,19.119-13.387,35.747-27.184,49.623c-22.561,22.69-44.869,45.661-68.135,67.611
		c-31.004,29.251-80.223,34.968-117.91,14.813c-0.246-0.13-0.402-0.425-1.297-1.409c4.518-4.248,8.929-8.686,13.717-12.671
		c1.043-0.868,3.604-0.598,5.177-0.041c29.735,10.529,57.353,6.8,82.763-12.074c2.244-1.667,4.391-3.508,6.365-5.486
		c22.73-22.753,46.32-44.732,67.869-68.559c22.428-24.801,27.367-54.563,15.398-85.793c-11.646-30.396-34.441-48.583-66.797-53.499
		c-28.33-4.304-52.736,4.549-73.02,24.597c-20.529,20.292-41.171,40.487-61.178,61.289c-24.904,25.896-31.329,56.308-19.646,90.308
		c1.282,3.731,0.905,5.937-1.995,8.438c-3.734,3.223-7.083,6.893-10.62,10.349c-0.208,0.203-0.608,0.208-1.187,0.392
		c-9.34-17.946-13.423-36.997-11.797-57.191c2.216-27.522,14.033-50.363,33.705-69.551c21.604-21.075,42.356-43.051,64.417-63.629
		c40.109-37.414,107.252-34.285,144.77,5.895c17.781,19.046,27.84,41.333,29.107,67.47c0.078,1.603,0.52,3.188,0.791,4.781
		C509.443,107.832,509.443,108.163,509.443,108.493z"/>
	<path fill-rule="evenodd" clip-rule="evenodd" d="M107.503,509.443c-8.764-1.338-17.672-2.07-26.268-4.115
		c-39.294-9.346-71.418-45.344-76.825-85.33c-4.65-34.391,4.482-64.49,28.674-89.375c22.651-23.301,45.539-46.416,69.198-68.683
		c30.191-28.412,81.069-33.789,117.256-13.555c0.101,0.057,0.131,0.242,0.659,1.283c-4.301,4.062-8.704,8.51-13.483,12.508
		c-1.044,0.873-3.605,0.631-5.173,0.075c-29.744-10.556-57.366-6.816-82.786,12.06c-2.245,1.666-4.394,3.506-6.37,5.482
		C89.762,302.436,66.34,324.352,44.82,348c-22.68,24.922-27.691,54.785-15.678,86.205c11.633,30.426,34.508,48.545,66.862,53.453
		c28.354,4.303,52.741-4.639,73.022-24.674c20.424-20.176,40.911-40.301,60.857-60.945c25.134-26.014,31.574-56.547,19.823-90.742
		c-1.207-3.512-0.919-5.576,1.796-8.06c3.87-3.538,7.279-7.579,11.411-11.963c6.572,11.949,10.33,23.731,11.808,36.177
		c3.949,33.264-5.206,62.52-28.527,86.623c-22.251,23-44.906,45.637-68.045,67.738c-17.799,17.004-39.672,25.563-64.322,26.836
		c-1.787,0.092-3.557,0.521-5.334,0.795C108.164,509.443,107.833,509.443,107.503,509.443z"/>
	<path fill-rule="evenodd" clip-rule="evenodd" d="M165.374,358.088c-8.177-1.145-12.831-8.863-9.256-15.41
		c0.93-1.705,2.196-3.297,3.574-4.678c59.463-59.517,118.951-119.008,178.452-178.487c6.433-6.431,14.503-6.257,17.571,0.745
		c1.145,2.617,0.6,6.283-0.068,9.272c-0.414,1.865-2.355,3.5-3.854,4.999c-59.117,59.164-118.245,118.319-177.465,177.379
		C171.801,354.428,168.379,356.049,165.374,358.088z"/>
</g>
</svg>
