<?xml version="1.0" encoding="utf-8"?>
<!-- Generator: Adobe Illustrator 16.0.0, SVG Export Plug-In . SVG Version: 6.00 Build 0)  -->
<!DOCTYPE svg PUBLIC "-//W3C//DTD SVG 1.1//EN" "http://www.w3.org/Graphics/SVG/1.1/DTD/svg11.dtd">
<svg version="1.1" id="Layer_1" xmlns="http://www.w3.org/2000/svg" xmlns:xlink="http://www.w3.org/1999/xlink" x="0px" y="0px"
	 width="512px" height="512px" viewBox="0 0 512 512" enable-background="new 0 0 512 512" xml:space="preserve">
<g>
	<line fill="none" stroke="#B35047" x1="32" y1="0" x2="32" y2="512"/>
	<line fill="none" stroke="#B35047" x1="64" y1="0" x2="64" y2="512"/>
	<line fill="none" stroke="#B35047" x1="96" y1="0" x2="96" y2="512"/>
	<line fill="none" stroke="#B35047" x1="128" y1="0" x2="128" y2="512"/>
	<line fill="none" stroke="#B35047" x1="160" y1="0" x2="160" y2="512"/>
	<line fill="none" stroke="#B35047" x1="192" y1="0" x2="192" y2="512"/>
	<line fill="none" stroke="#B35047" x1="224" y1="0" x2="224" y2="512"/>
	<line fill="none" stroke="#B35047" x1="256" y1="0" x2="256" y2="512"/>
	<line fill="none" stroke="#B35047" x1="288" y1="0" x2="288" y2="512"/>
	<line fill="none" stroke="#B35047" x1="320" y1="0" x2="320" y2="512"/>
	<line fill="none" stroke="#B35047" x1="352" y1="0" x2="352" y2="512"/>
	<line fill="none" stroke="#B35047" x1="384" y1="0" x2="384" y2="512"/>
	<line fill="none" stroke="#B35047" x1="416" y1="0" x2="416" y2="512"/>
	<line fill="none" stroke="#B35047" x1="448" y1="0" x2="448" y2="512"/>
	<line fill="none" stroke="#B35047" x1="480" y1="0" x2="480" y2="512"/>
	<line fill="none" stroke="#B35047" x1="0" y1="32" x2="512" y2="32"/>
	<line fill="none" stroke="#B35047" x1="0" y1="64" x2="512" y2="64"/>
	<line fill="none" stroke="#B35047" x1="0" y1="96" x2="512" y2="96"/>
	<line fill="none" stroke="#B35047" x1="0" y1="128" x2="512" y2="128"/>
	<line fill="none" stroke="#B35047" x1="0" y1="160" x2="512" y2="160"/>
	<line fill="none" stroke="#B35047" x1="0" y1="192" x2="512" y2="192"/>
	<line fill="none" stroke="#B35047" x1="0" y1="224" x2="512" y2="224"/>
	<line fill="none" stroke="#B35047" x1="0" y1="256" x2="512" y2="256"/>
	<line fill="none" stroke="#B35047" x1="0" y1="288" x2="512" y2="288"/>
	<line fill="none" stroke="#B35047" x1="0" y1="320" x2="512" y2="320"/>
	<line fill="none" stroke="#B35047" x1="0" y1="352" x2="512" y2="352"/>
	<line fill="none" stroke="#B35047" x1="0" y1="384" x2="512" y2="384"/>
	<line fill="none" stroke="#B35047" x1="0" y1="416" x2="512" y2="416"/>
	<line fill="none" stroke="#B35047" x1="0" y1="448" x2="512" y2="448"/>
	<line fill="none" stroke="#B35047" x1="0" y1="480" x2="512" y2="480"/>
	<rect fill="none" stroke="#B35047" width="512" height="512"/>
</g>
<g>
	<path display="none" fill-rule="evenodd" clip-rule="evenodd" fill="#FFFFFF" d="M513.5,117.5c0,132,0,264,0,396
		c-132,0-264,0-396,0c1.075-0.326,2.13-0.811,3.229-0.957c28.567-3.792,52.55-16.362,69.799-39.459
		c19.621-26.273,38.473-53.158,56.748-80.39c19.2-28.609,22.616-59.891,12.121-92.621c-3.614-11.269-9.132-21.605-17.001-31.315
		c-3.306,4.681-6.028,9.049-9.281,12.978c-2.639,3.188-2.458,5.666-0.493,9.23c17.462,31.663,16.241,62.883-3.873,92.814
		c-16.343,24.321-33.334,48.219-50.458,72.003c-20.128,27.956-47.852,40.645-81.916,36.406
		c-62.047-7.722-94.852-78.133-60.797-130.652c18.47-28.485,38.742-55.803,58.192-83.652c1.094-1.566,2.109-3.188,3.29-4.979
		c-5.733-4.028-10.988-7.722-16.359-11.496c-0.81,0.985-1.371,1.583-1.838,2.248c-19.229,27.397-38.538,54.739-57.641,82.224
		C5.69,368.228-1.213,392.985,2.534,420.104c5.645,40.85,27.822,69.524,65.749,85.426c9.514,3.989,20.116,5.383,30.217,7.97
		c-32.667,0-65.333,0-98,0c0-171,0-342,0-513c171,0,342,0,513,0c0,32.667,0,65.333,0,98c-0.267-0.953-0.67-1.892-0.779-2.862
		c-1.896-16.852-7.782-32.188-16.908-46.458c-30.18-47.188-96.699-62.485-143.563-31.845c-30.368,19.855-59.652,41.369-89.408,62.16
		c-0.494,0.345-0.818,0.934-1.271,1.467c3.83,5.423,7.545,10.684,11.395,16.135c1.941-1.31,3.461-2.301,4.946-3.343
		c26.315-18.45,52.736-36.753,78.913-55.399c34.121-24.307,77.429-20.259,105.196,3.442c43.838,37.419,41.027,102.293-5.863,136.212
		c-24.015,17.371-48.482,34.115-72.739,51.151c-11.246,7.897-23.707,12.763-37.295,14.573c-19.637,2.617-38.083-1.001-55.256-10.997
		c-1.642-0.955-4.253-2.503-5.278-1.886c-5.737,3.448-11.126,7.478-16.926,11.512c1.421,1.131,2.053,1.667,2.718,2.157
		c36.818,27.143,85.878,27.499,124.707,0.659c23.836-16.475,47.475-33.235,71.162-49.923c20.432-14.394,34.681-33.366,41.708-57.453
		C510.896,131.159,512.009,124.274,513.5,117.5z M22.432,11.304c-5.933,0.807-10.627,4.644-10.033,10.005
		c0.398,3.59,2.358,7.679,4.917,10.257c42.487,42.811,85.18,85.418,127.827,128.07c0.589,0.59,1.157,1.202,1.775,1.759
		c5.013,4.507,11.26,4.854,15.254,0.862c4.146-4.144,3.845-10.692-1.054-15.598C117.673,103.155,74.205,59.676,30.632,16.302
		C28.426,14.105,25.189,12.946,22.432,11.304z"/>
	<path fill-rule="evenodd" clip-rule="evenodd" d="M98.09,508.939c-10-2.561-20.497-3.94-29.915-7.89
		c-37.548-15.742-59.502-44.131-65.091-84.571c-3.71-26.849,3.125-51.358,18.501-73.481c18.913-27.21,38.029-54.278,57.065-81.401
		c0.462-0.658,1.018-1.25,1.819-2.227c5.318,3.737,10.521,7.395,16.196,11.382c-1.169,1.772-2.174,3.379-3.257,4.93
		c-19.256,27.571-39.325,54.615-57.611,82.815c-33.714,51.995-1.237,121.702,60.189,129.347c33.723,4.195,61.17-8.366,81.097-36.043
		c16.952-23.546,33.773-47.204,49.953-71.282c19.913-29.633,21.122-60.54,3.834-91.887c-1.946-3.529-2.125-5.982,0.488-9.139
		c3.22-3.889,5.915-8.213,9.188-12.848c7.791,9.613,13.253,19.847,16.831,31.003c10.39,32.403,7.009,63.371-12,91.694
		c-18.092,26.96-36.755,53.575-56.18,79.586c-17.077,22.866-40.819,35.311-69.101,39.064c-1.089,0.146-2.133,0.625-3.197,0.947
		C110.63,508.939,104.36,508.939,98.09,508.939z"/>
	<path fill-rule="evenodd" clip-rule="evenodd" d="M508.939,116.9c-1.475,6.707-2.578,13.522-4.496,20.1
		c-6.957,23.846-21.063,42.629-41.291,56.878c-23.451,16.521-46.852,33.114-70.449,49.424
		c-38.441,26.571-87.011,26.218-123.461-0.653c-0.658-0.485-1.283-1.016-2.69-2.135c5.741-3.994,11.077-7.983,16.757-11.397
		c1.015-0.611,3.6,0.921,5.225,1.867c17.002,9.896,35.264,13.478,54.703,10.887c13.453-1.792,25.789-6.609,36.922-14.427
		c24.016-16.866,48.238-33.442,72.014-50.64c46.42-33.58,49.203-97.805,5.803-134.85c-27.488-23.464-70.363-27.472-104.143-3.408
		c-25.916,18.46-52.072,36.58-78.125,54.845c-1.471,1.032-2.975,2.013-4.896,3.31c-3.811-5.397-7.488-10.605-11.281-15.974
		c0.449-0.528,0.77-1.111,1.26-1.452c29.458-20.583,58.449-41.882,88.514-61.539c46.395-30.334,112.248-15.19,142.127,31.526
		c9.035,14.127,14.863,29.311,16.738,45.993c0.109,0.961,0.508,1.89,0.771,2.834C508.939,104.359,508.939,110.63,508.939,116.9z"/>
	<path fill-rule="evenodd" clip-rule="evenodd" d="M22.783,11.766c2.729,1.626,5.934,2.773,8.118,4.948
		c43.137,42.94,86.17,85.985,129.18,129.054c4.85,4.856,5.148,11.339,1.044,15.441c-3.954,3.952-10.138,3.608-15.102-0.854
		c-0.612-0.551-1.174-1.157-1.757-1.741C102.045,116.388,59.78,74.207,17.717,31.825c-2.533-2.553-4.473-6.601-4.867-10.154
		C12.262,16.363,16.909,12.564,22.783,11.766z"/>
</g>
</svg>
