<?xml version="1.0" encoding="utf-8"?>
<!-- Generator: Adobe Illustrator 16.0.0, SVG Export Plug-In . SVG Version: 6.00 Build 0)  -->
<!DOCTYPE svg PUBLIC "-//W3C//DTD SVG 1.1//EN" "http://www.w3.org/Graphics/SVG/1.1/DTD/svg11.dtd">
<svg version="1.1" id="Layer_1" xmlns="http://www.w3.org/2000/svg" xmlns:xlink="http://www.w3.org/1999/xlink" x="0px" y="0px"
	 width="512px" height="512px" viewBox="0 0 512 512" enable-background="new 0 0 512 512" xml:space="preserve">
<g>
	<line fill="none" stroke="#B35047" x1="32" y1="0" x2="32" y2="512"/>
	<line fill="none" stroke="#B35047" x1="64" y1="0" x2="64" y2="512"/>
	<line fill="none" stroke="#B35047" x1="96" y1="0" x2="96" y2="512"/>
	<line fill="none" stroke="#B35047" x1="128" y1="0" x2="128" y2="512"/>
	<line fill="none" stroke="#B35047" x1="160" y1="0" x2="160" y2="512"/>
	<line fill="none" stroke="#B35047" x1="192" y1="0" x2="192" y2="512"/>
	<line fill="none" stroke="#B35047" x1="224" y1="0" x2="224" y2="512"/>
	<line fill="none" stroke="#B35047" x1="256" y1="0" x2="256" y2="512"/>
	<line fill="none" stroke="#B35047" x1="288" y1="0" x2="288" y2="512"/>
	<line fill="none" stroke="#B35047" x1="320" y1="0" x2="320" y2="512"/>
	<line fill="none" stroke="#B35047" x1="352" y1="0" x2="352" y2="512"/>
	<line fill="none" stroke="#B35047" x1="384" y1="0" x2="384" y2="512"/>
	<line fill="none" stroke="#B35047" x1="416" y1="0" x2="416" y2="512"/>
	<line fill="none" stroke="#B35047" x1="448" y1="0" x2="448" y2="512"/>
	<line fill="none" stroke="#B35047" x1="480" y1="0" x2="480" y2="512"/>
	<line fill="none" stroke="#B35047" x1="0" y1="32" x2="512" y2="32"/>
	<line fill="none" stroke="#B35047" x1="0" y1="64" x2="512" y2="64"/>
	<line fill="none" stroke="#B35047" x1="0" y1="96" x2="512" y2="96"/>
	<line fill="none" stroke="#B35047" x1="0" y1="128" x2="512" y2="128"/>
	<line fill="none" stroke="#B35047" x1="0" y1="160" x2="512" y2="160"/>
	<line fill="none" stroke="#B35047" x1="0" y1="192" x2="512" y2="192"/>
	<line fill="none" stroke="#B35047" x1="0" y1="224" x2="512" y2="224"/>
	<line fill="none" stroke="#B35047" x1="0" y1="256" x2="512" y2="256"/>
	<line fill="none" stroke="#B35047" x1="0" y1="288" x2="512" y2="288"/>
	<line fill="none" stroke="#B35047" x1="0" y1="320" x2="512" y2="320"/>
	<line fill="none" stroke="#B35047" x1="0" y1="352" x2="512" y2="352"/>
	<line fill="none" stroke="#B35047" x1="0" y1="384" x2="512" y2="384"/>
	<line fill="none" stroke="#B35047" x1="0" y1="416" x2="512" y2="416"/>
	<line fill="none" stroke="#B35047" x1="0" y1="448" x2="512" y2="448"/>
	<line fill="none" stroke="#B35047" x1="0" y1="480" x2="512" y2="480"/>
	<rect fill="none" stroke="#B35047" width="512" height="512"/>
</g>
<g>
	<path fill-rule="evenodd" clip-rule="evenodd" d="M508.941,23.86c0,155.76,0,311.52,0,467.28c-2.289-0.144-4.578-0.414-6.868-0.414
		c-164.303-0.019-328.606-0.017-492.911-0.017c-2.263,0-4.526,0-6.732,0c0-155.777,0-310.903,0-466.418c2.652,0,4.94,0,7.227,0
		c164.139,0,328.277,0.002,492.416-0.018C504.363,24.273,506.652,24.004,508.941,23.86z M407.402,44.997
		c-101.53,0-202.572,0-303.642,0c0,67.583,0,134.807,0,202.03c101.394,0,202.407,0,303.642,0
		C407.402,179.528,407.402,112.434,407.402,44.997z M103.785,267.817c0,67.592,0,134.931,0,202.144c101.432,0,202.46,0,303.427,0
		c0-67.624,0-134.847,0-202.144C305.889,267.817,204.977,267.817,103.785,267.817z M32.77,74.782c13.695,0,26.781,0,40.039,0
		c0-10.123,0-19.913,0-29.777c-13.542,0-26.773,0-40.039,0C32.77,55.06,32.77,64.747,32.77,74.782z M478.193,45.011
		c-13.516,0-26.729,0-39.927,0c0,10.162,0,19.944,0,29.79c13.482,0,26.581,0,39.927,0C478.193,64.817,478.193,55.14,478.193,45.011z
		 M72.792,125.607c0-10.334,0-20.136,0-30.119c-13.431,0-26.539,0-39.814,0c0,10.169,0,20.077,0,30.119
		C46.386,125.607,59.376,125.607,72.792,125.607z M478.255,95.615c-13.33,0-26.56,0-39.95,0c0,10.063,0,19.985,0,29.805
		c13.536,0,26.652,0,39.95,0C478.255,115.387,478.255,105.693,478.255,95.615z M32.833,176.021c13.465,0,26.673,0,39.915,0
		c0-10.122,0-19.892,0-29.798c-13.461,0-26.553,0-39.915,0C32.833,156.298,32.833,166.08,32.833,176.021z M478.02,176.155
		c0-10.319,0-20.09,0-29.885c-13.509,0-26.593,0-39.817,0c0,10.13,0,19.915,0,29.885
		C451.618,176.155,464.719,176.155,478.02,176.155z M32.764,328.225c13.691,0,26.78,0,40.055,0c0-10.124,0-19.918,0-29.785
		c-13.533,0-26.767,0-40.055,0C32.764,308.488,32.764,318.176,32.764,328.225z M478.077,328.27c0-10.305,0-20.094,0-29.924
		c-13.471,0-26.574,0-39.902,0c0,10.059,0,19.85,0,29.924C451.554,328.27,464.646,328.27,478.077,328.27z M72.819,349.006
		c-13.629,0-26.747,0-39.937,0c0,10.14,0,19.942,0,29.949c13.428,0,26.534,0,39.937,0C72.819,368.909,72.819,359.107,72.819,349.006
		z M478.243,348.987c-13.682,0-26.779,0-40.059,0c0,10.12,0,19.922,0,29.821c13.527,0,26.755,0,40.059,0
		C478.243,368.724,478.243,359.032,478.243,348.987z M72.89,399.694c-13.69,0-26.786,0-40.023,0c0,10.113,0,19.898,0,29.724
		c13.513,0,26.716,0,40.023,0C72.89,419.37,72.89,409.716,72.89,399.694z M478.288,399.724c-13.448,0-26.665,0-40.108,0
		c0,10.063,0,19.844,0,29.733c13.515,0,26.737,0,40.108,0C478.288,419.585,478.288,410.065,478.288,399.724z M32.851,196.996
		c0,10.224,0,19.865,0,29.603c13.496,0,26.698,0,39.962,0c0-10.05,0-19.696,0-29.603C59.411,196.996,46.311,196.996,32.851,196.996z
		 M478.218,197.075c-13.645,0-26.739,0-39.924,0c0,10.106,0,19.865,0,29.607c13.508,0,26.608,0,39.924,0
		C478.218,216.72,478.218,207.077,478.218,197.075z M72.87,247.764c-13.691,0-26.793,0-39.918,0c0,10.106,0,19.882,0,29.601
		c13.491,0,26.587,0,39.918,0C72.87,267.353,72.87,257.707,72.87,247.764z M478.194,247.731c-13.592,0-26.691,0-39.914,0
		c0,10.059,0,19.82,0,29.668c13.487,0,26.578,0,39.914,0C478.194,267.421,478.194,257.772,478.194,247.731z M72.795,470.221
		c0-6.881,0-13.23,0-19.767c-13.438,0-26.555,0-39.834,0c0,6.746,0,13.201,0,19.767C46.365,470.221,59.369,470.221,72.795,470.221z
		 M438.193,470.054c13.614,0,26.742,0,39.95,0c0-6.661,0-13.01,0-19.619c-13.414,0-26.529,0-39.95,0
		C438.193,457.035,438.193,463.384,438.193,470.054z"/>
	<path display="none" fill-rule="evenodd" clip-rule="evenodd" fill="#FFFFFF" d="M513.5,21.5c-2.313,0.146-4.625,0.418-6.938,0.418
		c-165.797,0.02-331.593,0.018-497.39,0.018c-2.311,0-4.621,0-7.3,0c0,157.086,0,313.778,0,471.129c2.228,0,4.514,0,6.8,0
		c165.963,0,331.927-0.002,497.89,0.018c2.313,0,4.625,0.272,6.938,0.418c0,6.667,0,13.333,0,20c-171,0-342,0-513,0
		c0-171,0-342,0-513c171,0,342,0,513,0C513.5,7.5,513.5,14.5,513.5,21.5z"/>
	<path display="none" fill-rule="evenodd" clip-rule="evenodd" fill="#FFFFFF" d="M410.935,42.851c0,68.118,0,135.89,0,204.071
		c-102.256,0-204.291,0-306.708,0c0-67.902,0-135.805,0-204.071C206.317,42.851,308.379,42.851,410.935,42.851z"/>
	<path display="none" fill-rule="evenodd" clip-rule="evenodd" fill="#FFFFFF" d="M104.25,267.922c102.214,0,204.146,0,306.492,0
		c0,67.977,0,135.878,0,204.186c-101.986,0-204.036,0-306.492,0C104.25,404.216,104.25,336.196,104.25,267.922z"/>
	<path display="none" fill-rule="evenodd" clip-rule="evenodd" fill="#FFFFFF" d="M32.519,72.937c0-10.137,0-19.921,0-30.078
		c13.399,0,26.765,0,40.443,0c0,9.964,0,19.853,0,30.078C59.57,72.937,46.352,72.937,32.519,72.937z"/>
	<path display="none" fill-rule="evenodd" clip-rule="evenodd" fill="#FFFFFF" d="M482.441,42.865c0,10.23,0,20.006,0,30.091
		c-13.48,0-26.712,0-40.33,0c0-9.945,0-19.826,0-30.091C455.441,42.865,468.789,42.865,482.441,42.865z"/>
	<path display="none" fill-rule="evenodd" clip-rule="evenodd" fill="#FFFFFF" d="M72.945,124.275c-13.552,0-26.673,0-40.216,0
		c0-10.144,0-20.151,0-30.423c13.41,0,26.649,0,40.216,0C72.945,103.936,72.945,113.837,72.945,124.275z"/>
	<path display="none" fill-rule="evenodd" clip-rule="evenodd" fill="#FFFFFF" d="M482.503,93.98c0,10.18,0,19.972,0,30.105
		c-13.432,0-26.681,0-40.354,0c0-9.919,0-19.94,0-30.105C455.676,93.98,469.038,93.98,482.503,93.98z"/>
	<path display="none" fill-rule="evenodd" clip-rule="evenodd" fill="#FFFFFF" d="M32.582,175.198c0-10.042,0-19.922,0-30.099
		c13.497,0,26.721,0,40.318,0c0,10.006,0,19.875,0,30.099C59.525,175.198,46.184,175.198,32.582,175.198z"/>
	<path display="none" fill-rule="evenodd" clip-rule="evenodd" fill="#FFFFFF" d="M482.266,175.334c-13.436,0-26.668,0-40.22,0
		c0-10.071,0-19.954,0-30.187c13.358,0,26.574,0,40.22,0C482.266,155.041,482.266,164.91,482.266,175.334z"/>
	<path display="none" fill-rule="evenodd" clip-rule="evenodd" fill="#FFFFFF" d="M32.513,328.939c0-10.15,0-19.936,0-30.087
		c13.422,0,26.79,0,40.459,0c0,9.968,0,19.86,0,30.087C59.563,328.939,46.342,328.939,32.513,328.939z"/>
	<path display="none" fill-rule="evenodd" clip-rule="evenodd" fill="#FFFFFF" d="M482.323,328.984c-13.565,0-26.791,0-40.305,0
		c0-10.176,0-20.065,0-30.227c13.463,0,26.698,0,40.305,0C482.323,308.688,482.323,318.575,482.323,328.984z"/>
	<path display="none" fill-rule="evenodd" clip-rule="evenodd" fill="#FFFFFF" d="M72.972,349.931c0,10.203,0,20.104,0,30.251
		c-13.538,0-26.776,0-40.34,0c0-10.107,0-20.009,0-30.251C45.955,349.931,59.205,349.931,72.972,349.931z"/>
	<path display="none" fill-rule="evenodd" clip-rule="evenodd" fill="#FFFFFF" d="M482.491,349.912c0,10.146,0,19.936,0,30.122
		c-13.438,0-26.799,0-40.463,0c0-9.999,0-19.9,0-30.122C455.441,349.912,468.672,349.912,482.491,349.912z"/>
	<path display="none" fill-rule="evenodd" clip-rule="evenodd" fill="#FFFFFF" d="M73.043,401.131c0,10.123,0,19.875,0,30.023
		c-13.442,0-26.778,0-40.428,0c0-9.924,0-19.808,0-30.023C45.987,401.131,59.215,401.131,73.043,401.131z"/>
	<path display="none" fill-rule="evenodd" clip-rule="evenodd" fill="#FFFFFF" d="M482.537,401.16c0,10.446,0,20.063,0,30.034
		c-13.507,0-26.862,0-40.514,0c0-9.989,0-19.87,0-30.034C455.603,401.16,468.953,401.16,482.537,401.16z"/>
	<path display="none" fill-rule="evenodd" clip-rule="evenodd" fill="#FFFFFF" d="M32.601,196.385c13.595,0,26.828,0,40.366,0
		c0,10.007,0,19.75,0,29.901c-13.398,0-26.733,0-40.366,0C32.601,216.45,32.601,206.712,32.601,196.385z"/>
	<path display="none" fill-rule="evenodd" clip-rule="evenodd" fill="#FFFFFF" d="M482.466,196.465c0,10.103,0,19.844,0,29.906
		c-13.45,0-26.683,0-40.327,0c0-9.841,0-19.697,0-29.906C455.456,196.465,468.684,196.465,482.466,196.465z"/>
	<path display="none" fill-rule="evenodd" clip-rule="evenodd" fill="#FFFFFF" d="M73.023,247.666c0,10.043,0,19.786,0,29.899
		c-13.465,0-26.694,0-40.321,0c0-9.816,0-19.691,0-29.899C45.959,247.666,59.193,247.666,73.023,247.666z"/>
	<path display="none" fill-rule="evenodd" clip-rule="evenodd" fill="#FFFFFF" d="M482.442,247.633c0,10.143,0,19.889,0,29.968
		c-13.471,0-26.694,0-40.317,0c0-9.947,0-19.808,0-29.968C455.481,247.633,468.713,247.633,482.442,247.633z"/>
	<path display="none" fill-rule="evenodd" clip-rule="evenodd" fill="#FFFFFF" d="M72.948,472.369c-13.563,0-26.697,0-40.237,0
		c0-6.631,0-13.151,0-19.966c13.414,0,26.663,0,40.237,0C72.948,459.006,72.948,465.419,72.948,472.369z"/>
	<path display="none" fill-rule="evenodd" clip-rule="evenodd" fill="#FFFFFF" d="M442.037,472.201c0-6.737,0-13.15,0-19.817
		c13.557,0,26.804,0,40.354,0c0,6.676,0,13.089,0,19.817C469.049,472.201,455.789,472.201,442.037,472.201z"/>
</g>
<g display="none">
	<path fill-rule="evenodd" clip-rule="evenodd" fill="#FFFFFF" d="M513.5,400.5c0,37.667,0,75.333,0,113c-171,0-342,0-513,0
		c0-171,0-342,0-513c171,0,342,0,513,0c0,24.333,0,48.667,0,73c-1.493-0.076-2.987-0.219-4.48-0.219
		c-167.447-0.01-334.896-0.01-502.343,0.002c-1.604,0-3.207,0.173-4.818,0.266c0,109.25,0,218.113,0,327.253c2.182,0,4.006,0,5.83,0
		c166.781,0,333.563,0.001,500.344-0.013C509.854,400.789,511.678,400.601,513.5,400.5z M257.519,441.729
		c46.325,0,92.65,0.014,138.976-0.037c2.633-0.003,5.396-0.133,7.869-0.919c6.235-1.981,8.438-9.934,4.489-15.144
		c-2.854-3.767-6.847-4.24-11.146-4.239c-93.317,0.023-186.634,0.012-279.951,0.053c-2.297,0.001-4.695,0.197-6.873,0.867
		c-6.521,2.008-8.793,10.063-4.584,15.397c2.943,3.73,6.982,4.036,11.245,4.034C164.202,441.721,210.86,441.729,257.519,441.729z"/>
	<path display="inline" fill-rule="evenodd" clip-rule="evenodd" d="M508.941,399.07c-1.804,0.1-3.608,0.285-5.413,0.285
		c-165.113,0.014-330.227,0.014-495.34,0.014c-1.806,0-3.612,0-5.772,0c0-108.049,0-215.823,0-323.98
		c1.596-0.092,3.183-0.263,4.77-0.263c165.773-0.011,331.547-0.011,497.319-0.002c1.479,0,2.958,0.141,4.436,0.217
		C508.941,183.25,508.941,291.16,508.941,399.07z M488.249,379.068c0-94.818,0-189.196,0-283.544c-155.434,0-310.414,0-465.495,0
		c0,94.668,0,189.044,0,283.544C178.074,379.068,332.939,379.068,488.249,379.068z"/>
	<path display="inline" fill-rule="evenodd" clip-rule="evenodd" d="M255.52,439.887c-46.191,0-92.383-0.008-138.575,0.012
		c-4.22,0.002-8.219-0.301-11.132-3.994c-4.167-5.281-1.917-13.254,4.538-15.242c2.156-0.664,4.53-0.857,6.804-0.859
		c92.384-0.041,184.768-0.029,277.152-0.051c4.257-0.002,8.209,0.467,11.035,4.195c3.908,5.158,1.729,13.031-4.444,14.992
		c-2.449,0.779-5.184,0.908-7.791,0.91C347.244,439.9,301.382,439.887,255.52,439.887z"/>
	<path fill-rule="evenodd" clip-rule="evenodd" fill="#FFFFFF" d="M492.599,380.297c-156.879,0-313.309,0-470.197,0
		c0-95.456,0-190.785,0-286.409c156.648,0,313.193,0,470.197,0C492.599,189.188,492.599,284.52,492.599,380.297z"/>
</g>
<g display="none">
	<path fill-rule="evenodd" clip-rule="evenodd" fill="#FFFFFF" d="M0.5,0.5c171,0,342,0,513,0c0,171,0,342,0,513c-171,0-342,0-513,0
		C0.5,342.5,0.5,171.5,0.5,0.5z M414.096,119.258c-6.214,10.713-9.359,21.278-9.361,32.645
		c-0.018,80.321-0.018,160.643,0.029,240.964c0.001,2.465,0.234,5.035,0.951,7.375c1.978,6.452,10.196,8.692,15.479,4.462
		c3.84-3.074,4.18-7.289,4.179-11.719c-0.015-79.488-0.013-158.978-0.003-238.467c0.001-2.497-0.028-5.009,0.206-7.49
		c1.553-16.442,11.401-26.333,27.111-27.321c15.828-0.994,26.489,7.498,29.881,24.021c0.664,3.233,0.939,6.602,0.941,9.907
		c0.051,82.821,0.059,165.643-0.001,248.464c-0.004,5.986-0.261,12.012-0.962,17.952c-1.828,15.491-7.074,29.601-19.333,39.917
		c-18.118,15.249-38.667,18.046-60.924,10.729c-16.812-5.526-30.362-15.014-38.446-31.213c-6.042-12.107-7.136-25.219-7.142-38.426
		c-0.06-118.982-0.032-237.964-0.038-356.945c-0.001-10.873-3.476-14.351-14.347-14.351c-105.484-0.006-210.969-0.006-316.453-0.001
		c-11.378,0-15.246,3.896-15.246,15.345c-0.003,119.149-0.037,238.298,0.08,357.447c0.008,7.612,0.749,15.294,1.925,22.822
		c2.63,16.843,9.511,31.79,21.742,43.902c18.109,17.932,40.633,25.954,65.496,26.055c97.484,0.396,194.971,0.204,292.456,0.118
		c14.083-0.013,28.31,0.513,42.214-1.241c22.567-2.848,41.229-13.439,54.398-32.63c11.605-16.912,15.084-36.103,15.123-56.004
		c0.165-84.487,0.075-168.975,0.048-253.462c-0.004-10.172-2.471-19.799-7.247-28.762c-9.896-18.571-26.82-24.45-46.34-24.65
		c-29.326-0.301-58.657-0.069-87.986-0.064c-1.608,0-3.218,0-4.852,0c0,7.208,0,13.753,0,20.62
		C376.379,119.258,394.674,119.258,414.096,119.258z"/>
	<path display="inline" fill-rule="evenodd" clip-rule="evenodd" d="M416.246,109.375c-19.813,0-38.475,0-57.555,0
		c0-7.005,0-13.682,0-21.035c1.667,0,3.309,0,4.949,0c29.919-0.005,59.839-0.241,89.755,0.066
		c19.912,0.204,37.176,6.201,47.271,25.146c4.872,9.143,7.389,18.963,7.393,29.34c0.028,86.186,0.12,172.37-0.049,258.557
		c-0.039,20.301-3.588,39.877-15.427,57.129c-13.434,19.577-32.471,30.381-55.492,33.286c-14.184,1.789-28.696,1.254-43.062,1.267
		c-99.445,0.088-198.892,0.283-298.335-0.121c-25.363-0.103-48.339-8.287-66.813-26.578c-12.478-12.355-19.496-27.604-22.18-44.785
		c-1.199-7.68-1.955-15.515-1.963-23.28C4.621,276.821,4.655,155.278,4.658,33.734c0-11.679,3.946-15.653,15.553-15.653
		c107.604-0.005,215.21-0.005,322.813,0.001c11.09,0,14.635,3.548,14.636,14.639c0.006,121.373-0.022,242.746,0.038,364.119
		c0.006,13.474,1.122,26.849,7.285,39.199c8.247,16.524,22.07,26.203,39.22,31.84c22.704,7.463,43.665,4.61,62.148-10.944
		c12.505-10.524,17.856-24.918,19.722-40.72c0.715-6.061,0.978-12.207,0.981-18.313c0.06-84.485,0.052-168.972,0.001-253.458
		c-0.002-3.372-0.283-6.808-0.961-10.106c-3.46-16.855-14.335-25.518-30.481-24.504c-16.026,1.009-26.072,11.098-27.656,27.871
		c-0.239,2.532-0.21,5.094-0.211,7.641c-0.01,81.088-0.012,162.175,0.003,243.261c0.001,4.519-0.345,8.817-4.263,11.954
		c-5.389,4.315-13.772,2.03-15.79-4.552c-0.73-2.387-0.97-5.009-0.971-7.523c-0.047-81.936-0.047-163.872-0.029-245.807
		C406.698,131.082,409.907,120.304,416.246,109.375z M25.959,39.436c0,2.424,0,4.438,0,6.453c0,111.325-0.027,222.65,0.042,333.976
		c0.007,11.202,0.092,22.445,1.033,33.595c1.227,14.554,6.386,27.729,17.066,38.139c14.944,14.565,33.519,20.157,53.818,20.193
		c87.701,0.156,175.402,0.068,263.102,0.059c1.614,0,3.229-0.137,4.663-0.203c-5.295-6.599-11.019-12.645-15.483-19.51
		c-10.66-16.391-13.285-34.938-13.276-54.102c0.047-117.274,0.023-234.548,0.023-351.823c0-2.165,0-4.329,0-6.776
		C233.154,39.436,129.896,39.436,25.959,39.436z"/>
	<path fill-rule="evenodd" clip-rule="evenodd" fill="#FFFFFF" d="M31.5,50.696c101.889,0,203.112,0,304.86,0
		c0,2.399,0,4.521,0,6.643c0,114.964,0.023,229.927-0.023,344.891c-0.008,18.786,2.565,36.968,13.016,53.036
		c4.377,6.729,9.987,12.656,15.179,19.125c-1.407,0.064-2.989,0.199-4.571,0.199c-85.973,0.01-171.946,0.096-257.918-0.058
		c-19.899-0.035-38.108-5.517-52.758-19.796c-10.469-10.204-15.526-23.119-16.73-37.387c-0.922-10.93-1.006-21.951-1.013-32.933
		C31.473,275.285,31.5,166.153,31.5,57.021C31.5,55.047,31.5,53.072,31.5,50.696z M175.971,134.571
		c32.486,0,64.973,0.021,97.459-0.042c2.457-0.004,5.038-0.227,7.346-0.997c6.438-2.148,8.92-10.834,3.861-15.259
		c-2.777-2.431-7.367-3.896-11.146-3.909c-64.639-0.23-129.278-0.171-193.917-0.144c-2.151,0.001-4.798-0.393-6.346,0.666
		c-2.803,1.918-6.197,4.449-7.004,7.371c-0.743,2.689,0.723,7.127,2.811,9.146c2.16,2.089,6.234,3.02,9.479,3.04
		C110.998,134.653,143.484,134.571,175.971,134.571z M176.035,175.552c32.488,0,64.976,0.021,97.463-0.043
		c2.457-0.005,5.038-0.24,7.344-1.016c6.197-2.085,8.286-9.99,4.288-15.151c-2.897-3.742-6.911-4.196-11.191-4.195
		c-64.976,0.015-129.952,0.004-194.927,0.04c-2.144,0.001-4.376,0.131-6.414,0.727c-7.049,2.06-9.708,10.974-4.282,15.839
		c2.524,2.264,6.774,3.612,10.256,3.641C111.058,175.661,143.547,175.552,176.035,175.552z M237.932,316.551
		c-12.479,0-24.958-0.074-37.436,0.028c-7.354,0.061-12.189,4.354-12.088,10.388c0.1,5.983,4.663,9.908,11.873,10.13
		c2.66,0.082,5.324,0.019,7.986,0.019c21.796,0,43.592-0.005,65.388,0.002c5.209,0.002,10.158-0.767,12.612-6.121
		c3.362-7.337-1.912-14.33-10.899-14.415C262.891,316.462,250.411,316.551,237.932,316.551z M238.178,357.515
		c-12.477,0-24.955-0.015-37.432,0.007c-4.939,0.008-9.262,1.308-11.4,6.307c-3.12,7.295,1.8,13.953,10.687,14.182
		c8.313,0.213,16.635,0.054,24.954,0.054c16.304,0.001,32.607-0.014,48.911,0.006c5.065,0.006,9.792-0.9,12.282-5.896
		c3.577-7.183-1.688-14.513-10.57-14.619C263.134,357.403,250.655,357.516,238.178,357.515z M237.602,298.484
		c12.478,0,24.957,0.031,37.434-0.015c4.937-0.019,9.286-1.402,11.34-6.42c2.978-7.275-2.061-13.892-10.899-14.061
		c-10.311-0.196-20.629-0.053-30.944-0.053c-14.475-0.001-28.949-0.025-43.423,0.019c-4.854,0.014-9.366,1.003-11.654,5.97
		c-3.395,7.368,1.751,14.437,10.714,14.528C212.645,298.58,225.124,298.485,237.602,298.484z M237.476,257.5
		c12.31,0,24.623,0.126,36.928-0.095c2.862-0.051,6.107-0.635,8.464-2.111c4.01-2.512,5.354-6.603,3.685-11.3
		c-1.83-5.153-5.953-6.896-10.951-6.905c-25.119-0.054-50.238-0.094-75.356,0.079c-2.662,0.019-5.69,0.897-7.888,2.366
		c-3.84,2.566-4.822,6.66-3.292,11.043c1.703,4.879,5.655,6.834,10.484,6.879C212.19,257.575,224.833,257.496,237.476,257.5z
		 M237.457,416.568c12.641,0,25.283,0.066,37.924-0.026c6.98-0.052,11.93-4.342,11.951-10.043
		c0.021-5.843-4.771-10.238-11.725-10.262c-25.115-0.085-50.232-0.103-75.347,0.067c-2.662,0.019-5.69,0.879-7.887,2.342
		c-3.845,2.56-4.833,6.649-3.314,11.039c1.693,4.891,5.617,6.816,10.474,6.852C212.174,416.627,224.816,416.567,237.457,416.568z
		 M115.035,298.486c10.479,0,20.959,0.05,31.438-0.042c2.125-0.019,4.333-0.292,6.351-0.929c6.708-2.118,9.294-10.843,4.143-15.578
		c-2.506-2.303-6.725-3.772-10.197-3.829c-21.12-0.343-42.248-0.195-63.373-0.133c-2.134,0.006-4.357,0.249-6.384,0.881
		c-6.441,2.005-9.187,10.569-4.404,15.274c2.418,2.379,6.553,3.996,9.999,4.163C93.395,298.816,104.223,298.486,115.035,298.486z
		 M114.619,339.45c10.646,0,21.295,0.163,31.934-0.104c3.014-0.075,6.384-0.775,8.902-2.315c3.909-2.392,4.984-6.506,3.562-10.957
		c-1.67-5.228-5.883-7.1-10.832-7.126c-22.122-0.117-44.246-0.121-66.367,0.053c-2.51,0.02-5.349,0.899-7.439,2.282
		c-3.865,2.557-4.839,6.598-3.57,11.027c1.226,4.282,5.357,7.058,10.875,7.108C92.663,339.519,103.641,339.447,114.619,339.45z
		 M114.874,380.427c10.979,0,21.959,0.105,32.936-0.038c7.07-0.092,11.757-4.322,11.78-10.177
		c0.023-5.962-4.581-10.287-11.651-10.325c-21.791-0.116-43.583-0.117-65.374,0.049c-2.699,0.021-5.75,0.742-8,2.154
		c-3.882,2.435-5.028,6.456-3.817,10.941c1.181,4.377,5.198,7.29,10.692,7.355C92.582,380.519,103.729,380.427,114.874,380.427z
		 M115.021,421.409c10.313,0,20.627,0.046,30.94-0.037c2.13-0.017,4.327-0.257,6.371-0.827c7.484-2.089,9.933-11.458,4-16.457
		c-2.302-1.939-5.973-3.111-9.038-3.149c-21.456-0.264-42.916-0.162-64.374-0.102c-1.966,0.006-4.005,0.309-5.883,0.886
		c-6.431,1.977-9.217,10.57-4.438,15.268c2.429,2.387,6.549,4.054,9.994,4.224C93.38,421.745,104.208,421.409,115.021,421.409z
		 M114.493,257.497c11.144,0,22.288,0.092,33.43-0.033c7.083-0.08,11.71-4.304,11.661-10.244
		c-0.049-6.047-4.53-10.093-11.768-10.124c-21.788-0.092-43.577-0.105-65.363,0.061c-2.693,0.021-5.74,0.73-7.984,2.14
		c-3.911,2.454-4.92,6.529-3.692,10.976c1.203,4.353,5.257,7.143,10.785,7.195C92.537,257.572,103.515,257.498,114.493,257.497z"/>
	<path display="inline" fill-rule="evenodd" clip-rule="evenodd" d="M173.334,124.997c-33.139,0-66.279,0.083-99.417-0.131
		c-3.311-0.021-7.466-0.97-9.67-3.101c-2.129-2.059-3.625-6.585-2.867-9.329c0.824-2.98,4.286-5.563,7.146-7.519
		c1.578-1.08,4.278-0.679,6.473-0.68c65.938-0.028,131.877-0.089,197.815,0.146c3.855,0.014,8.537,1.508,11.37,3.988
		c5.16,4.514,2.628,13.374-3.938,15.565c-2.354,0.786-4.987,1.013-7.494,1.017C239.613,125.019,206.474,124.997,173.334,124.997z"/>
	<path display="inline" fill-rule="evenodd" clip-rule="evenodd" d="M173.4,166.801c-33.141,0-66.283,0.112-99.422-0.163
		c-3.552-0.029-7.887-1.404-10.462-3.713c-5.535-4.963-2.823-14.056,4.368-16.157c2.078-0.607,4.355-0.74,6.542-0.741
		c66.282-0.037,132.563-0.025,198.845-0.041c4.366-0.001,8.46,0.463,11.416,4.28c4.078,5.265,1.948,13.329-4.374,15.456
		c-2.352,0.791-4.985,1.031-7.491,1.036C239.682,166.823,206.541,166.801,173.4,166.801z"/>
	<path display="inline" fill-rule="evenodd" clip-rule="evenodd" d="M236.541,310.634c12.729,0,25.46-0.09,38.188,0.031
		c9.168,0.087,14.549,7.221,11.119,14.705c-2.504,5.462-7.553,6.246-12.866,6.244c-22.234-0.008-44.469-0.003-66.702-0.003
		c-2.715,0-5.433,0.065-8.146-0.019c-7.354-0.226-12.009-4.229-12.11-10.333c-0.103-6.154,4.83-10.535,12.331-10.597
		C211.082,310.559,223.813,310.634,236.541,310.634z"/>
	<path display="inline" fill-rule="evenodd" clip-rule="evenodd" d="M236.791,352.421c12.729,0.001,25.459-0.113,38.186,0.041
		c9.061,0.108,14.432,7.585,10.782,14.912c-2.541,5.097-7.362,6.021-12.529,6.016c-16.632-0.021-33.263-0.005-49.895-0.006
		c-8.485,0-16.975,0.161-25.455-0.056c-9.065-0.232-14.085-7.024-10.902-14.467c2.182-5.099,6.592-6.425,11.63-6.434
		C211.335,352.406,224.063,352.421,236.791,352.421z"/>
	<path display="inline" fill-rule="evenodd" clip-rule="evenodd" d="M236.204,292.205c-12.729,0.001-25.459,0.098-38.186-0.032
		c-9.143-0.094-14.393-7.305-10.929-14.82c2.334-5.066,6.937-6.076,11.888-6.09c14.766-0.045,29.53-0.021,44.296-0.019
		c10.523,0,21.05-0.146,31.566,0.054c9.018,0.172,14.156,6.922,11.119,14.343c-2.095,5.118-6.532,6.53-11.567,6.549
		C261.663,292.236,248.934,292.205,236.204,292.205z"/>
	<path display="inline" fill-rule="evenodd" clip-rule="evenodd" d="M236.076,250.395c-12.897-0.002-25.794,0.078-38.689-0.043
		c-4.927-0.046-8.958-2.04-10.695-7.018c-1.56-4.471-0.559-8.646,3.359-11.265c2.241-1.498,5.331-2.395,8.046-2.414
		c25.623-0.176,51.247-0.135,76.871-0.08c5.099,0.01,9.305,1.787,11.172,7.044c1.702,4.792,0.331,8.965-3.759,11.527
		c-2.404,1.506-5.714,2.102-8.635,2.153C261.193,250.525,248.633,250.396,236.076,250.395z"/>
	<path display="inline" fill-rule="evenodd" clip-rule="evenodd" d="M236.057,412.662c-12.896-0.001-25.791,0.06-38.686-0.031
		c-4.954-0.037-8.957-2.001-10.685-6.989c-1.55-4.479-0.541-8.65,3.381-11.261c2.24-1.493,5.33-2.371,8.045-2.39
		c25.62-0.173,51.241-0.155,76.862-0.068c7.092,0.023,11.981,4.507,11.96,10.468c-0.022,5.815-5.071,10.191-12.192,10.245
		C261.848,412.73,248.952,412.662,236.057,412.662z"/>
	<path display="inline" fill-rule="evenodd" clip-rule="evenodd" d="M111.174,292.207c-11.03,0-22.075,0.336-33.079-0.196
		c-3.515-0.171-7.733-1.82-10.2-4.247c-4.879-4.8-2.078-13.537,4.492-15.581c2.068-0.646,4.335-0.893,6.513-0.899
		c21.55-0.063,43.102-0.214,64.646,0.136c3.542,0.058,7.845,1.558,10.402,3.905c5.255,4.831,2.617,13.731-4.226,15.893
		c-2.059,0.649-4.312,0.928-6.479,0.947C132.555,292.257,121.864,292.207,111.174,292.207z"/>
	<path display="inline" fill-rule="evenodd" clip-rule="evenodd" d="M110.75,333.992c-11.199-0.002-22.397,0.071-33.596-0.031
		c-5.629-0.052-9.844-2.883-11.094-7.252c-1.294-4.518-0.3-8.64,3.642-11.249c2.132-1.41,5.028-2.308,7.589-2.327
		c22.565-0.178,45.134-0.174,67.7-0.055c5.048,0.027,9.345,1.938,11.049,7.27c1.451,4.541,0.354,8.738-3.633,11.178
		c-2.568,1.57-6.007,2.285-9.081,2.361C132.473,334.16,121.609,333.993,110.75,333.992z"/>
	<path display="inline" fill-rule="evenodd" clip-rule="evenodd" d="M111.01,375.794c-11.37,0-22.74,0.094-34.107-0.04
		c-5.604-0.067-9.703-3.039-10.907-7.504c-1.235-4.576-0.066-8.678,3.894-11.162c2.295-1.439,5.408-2.177,8.161-2.197
		c22.229-0.17,44.459-0.169,66.688-0.049c7.213,0.038,11.91,4.45,11.885,10.531c-0.022,5.973-4.804,10.289-12.016,10.383
		C133.41,375.901,122.209,375.794,111.01,375.794z"/>
	<path display="inline" fill-rule="evenodd" clip-rule="evenodd" d="M111.16,417.601c-11.03,0-22.076,0.342-33.08-0.199
		c-3.515-0.174-7.717-1.874-10.195-4.31c-4.875-4.791-2.033-13.558,4.527-15.574c1.916-0.589,3.995-0.897,6-0.903
		c21.89-0.062,43.781-0.166,65.668,0.104c3.127,0.039,6.872,1.234,9.22,3.213c6.052,5.099,3.554,14.656-4.081,16.788
		c-2.085,0.582-4.327,0.826-6.5,0.844C132.202,417.646,121.681,417.601,111.16,417.601z"/>
	<path display="inline" fill-rule="evenodd" clip-rule="evenodd" d="M110.621,250.394c-11.198,0.001-22.397,0.076-33.594-0.031
		c-5.639-0.054-9.774-2.899-11.001-7.34c-1.252-4.535-0.222-8.692,3.767-11.196c2.289-1.438,5.396-2.161,8.145-2.183
		c22.224-0.169,44.451-0.155,66.677-0.062c7.383,0.032,11.954,4.159,12.004,10.327c0.05,6.061-4.67,10.369-11.896,10.45
		C133.356,250.487,121.988,250.394,110.621,250.394z"/>
</g>
</svg>
