<?xml version="1.0" encoding="utf-8"?>
<!-- Generator: Adobe Illustrator 17.0.0, SVG Export Plug-In . SVG Version: 6.00 Build 0)  -->
<!DOCTYPE svg PUBLIC "-//W3C//DTD SVG 1.1//EN" "http://www.w3.org/Graphics/SVG/1.1/DTD/svg11.dtd">
<svg version="1.1" id="Layer_1" xmlns="http://www.w3.org/2000/svg" xmlns:xlink="http://www.w3.org/1999/xlink" x="0px" y="0px"
	 width="512px" height="512px" viewBox="0 0 512 512" enable-background="new 0 0 512 512" xml:space="preserve">
<g>
	<line fill="none" stroke="#B35047" x1="32" y1="0" x2="32" y2="512"/>
	<line fill="none" stroke="#B35047" x1="64" y1="0" x2="64" y2="512"/>
	<line fill="none" stroke="#B35047" x1="96" y1="0" x2="96" y2="512"/>
	<line fill="none" stroke="#B35047" x1="128" y1="0" x2="128" y2="512"/>
	<line fill="none" stroke="#B35047" x1="160" y1="0" x2="160" y2="512"/>
	<line fill="none" stroke="#B35047" x1="192" y1="0" x2="192" y2="512"/>
	<line fill="none" stroke="#B35047" x1="224" y1="0" x2="224" y2="512"/>
	<line fill="none" stroke="#B35047" x1="256" y1="0" x2="256" y2="512"/>
	<line fill="none" stroke="#B35047" x1="288" y1="0" x2="288" y2="512"/>
	<line fill="none" stroke="#B35047" x1="320" y1="0" x2="320" y2="512"/>
	<line fill="none" stroke="#B35047" x1="352" y1="0" x2="352" y2="512"/>
	<line fill="none" stroke="#B35047" x1="384" y1="0" x2="384" y2="512"/>
	<line fill="none" stroke="#B35047" x1="416" y1="0" x2="416" y2="512"/>
	<line fill="none" stroke="#B35047" x1="448" y1="0" x2="448" y2="512"/>
	<line fill="none" stroke="#B35047" x1="480" y1="0" x2="480" y2="512"/>
	<line fill="none" stroke="#B35047" x1="0" y1="32" x2="512" y2="32"/>
	<line fill="none" stroke="#B35047" x1="0" y1="64" x2="512" y2="64"/>
	<line fill="none" stroke="#B35047" x1="0" y1="96" x2="512" y2="96"/>
	<line fill="none" stroke="#B35047" x1="0" y1="128" x2="512" y2="128"/>
	<line fill="none" stroke="#B35047" x1="0" y1="160" x2="512" y2="160"/>
	<line fill="none" stroke="#B35047" x1="0" y1="192" x2="512" y2="192"/>
	<line fill="none" stroke="#B35047" x1="0" y1="224" x2="512" y2="224"/>
	<line fill="none" stroke="#B35047" x1="0" y1="256" x2="512" y2="256"/>
	<line fill="none" stroke="#B35047" x1="0" y1="288" x2="512" y2="288"/>
	<line fill="none" stroke="#B35047" x1="0" y1="320" x2="512" y2="320"/>
	<line fill="none" stroke="#B35047" x1="0" y1="352" x2="512" y2="352"/>
	<line fill="none" stroke="#B35047" x1="0" y1="384" x2="512" y2="384"/>
	<line fill="none" stroke="#B35047" x1="0" y1="416" x2="512" y2="416"/>
	<line fill="none" stroke="#B35047" x1="0" y1="448" x2="512" y2="448"/>
	<line fill="none" stroke="#B35047" x1="0" y1="480" x2="512" y2="480"/>
	<rect x="0" fill="none" stroke="#B35047" width="512" height="512"/>
</g>
<image display="none" overflow="visible" width="512" height="512" xlink:href="../../../Knowledge/Icon/[+++++] (Full) iOS7 icons [icons8]/Security/delete_shield/delete_shield-512.png"  transform="matrix(1 0 0 1 -1.525879e-005 0)">
</image>
<image display="none" overflow="visible" width="512" height="512" xlink:href="../../../Knowledge/Icon/[+++++] (Full) iOS7 icons [icons8]/Security/warning_shield/warning_shield-512.png"  transform="matrix(1 0 0 1 -1.525879e-005 0)">
</image>
<image display="none" overflow="visible" width="512" height="512" xlink:href="../../../Knowledge/Icon/[+++++] (Full) iOS7 icons [icons8]/Security/user_shield/user_shield-512.png"  transform="matrix(1 0 0 1 -1.525879e-005 0)">
</image>
<image display="none" overflow="visible" width="512" height="512" xlink:href="../../../Knowledge/Icon/[+++++] (Full) iOS7 icons [icons8]/Security/shield/shield-512.png"  transform="matrix(1 0 0 1 -1.525879e-005 0)">
</image>
<image display="none" overflow="visible" width="512" height="512" xlink:href="../../../Knowledge/Icon/[+++++] (Full) iOS7 icons [icons8]/Security/restriction_shield/restriction_shield-512.png"  transform="matrix(1 0 0 1 -1.525879e-005 0)">
</image>
<image display="none" overflow="visible" width="512" height="512" xlink:href="../../../Knowledge/Icon/[+++++] (Full) iOS7 icons [icons8]/Security/refresh_shield/refresh_shield-512.png"  transform="matrix(1 0 0 1 -1.525879e-005 0)">
</image>
<g>
	<path display="none" fill="#FFFFFF" d="M513.5,513.464c-170.934,0-341.868,0-512.901,0c0-170.856,0-341.749,0-512.803
		c170.901,0,341.901,0,512.901,0C513.5,171.511,513.5,342.469,513.5,513.464z M482.748,103.886c0-4.664-0.389-9.371,0.108-13.982
		c0.507-4.702-0.938-6.549-5.704-7.586c-39.107-8.514-77.325-19.986-113.62-37.028c-22.58-10.602-44.699-22.187-66.991-33.398
		c-24.008-12.075-48.328-14.119-73.007-2.226c-12.286,5.92-24.291,12.429-36.646,18.197c-22.291,10.407-44.479,21.113-67.207,30.487
		C93.186,69.279,65.381,76.275,37.414,82.421c-4.207,0.925-5.511,2.59-5.284,6.924c0.708,13.469,0.7,26.975,1.38,40.445
		c1.665,32.995,6.327,65.588,13.988,97.727c16.214,68.025,44.953,130.062,89.35,184.375c32.677,39.975,70.762,73.667,116.772,97.848
		c3.052,1.604,5.205,1.488,8.143-0.168c31.602-17.808,59.266-40.604,84.794-66.193c35.993-36.079,64.714-77.293,86.77-123.135
		C466.206,251.906,481.029,179.397,482.748,103.886z"/>
	<path d="M478.496,104.411c-1.702,74.755-16.377,146.539-48.927,214.195c-21.835,45.384-50.269,86.186-85.902,121.904
		c-25.273,25.333-52.661,47.901-83.946,65.531c-2.908,1.639-5.04,1.754-8.061,0.166c-45.55-23.939-83.255-57.294-115.605-96.869
		c-43.953-53.77-72.404-115.187-88.457-182.532c-7.584-31.818-12.199-64.085-13.848-96.75c-0.673-13.336-0.665-26.707-1.366-40.041
		c-0.226-4.291,1.066-5.94,5.231-6.855c27.687-6.084,55.215-13.01,81.446-23.83c22.501-9.281,44.467-19.879,66.535-30.182
		c12.23-5.71,24.116-12.154,36.279-18.015c24.432-11.774,48.509-9.75,72.277,2.204c22.069,11.099,43.967,22.569,66.321,33.064
		c35.932,16.871,73.767,28.228,112.483,36.657c4.719,1.027,6.148,2.856,5.647,7.51C478.111,95.134,478.496,99.793,478.496,104.411z
		 M52.961,101.083c0,0.945-0.07,1.927,0.01,2.896c2.13,25.617,3.097,51.397,6.647,76.816c9.101,65.154,30.851,125.92,66.939,181.19
		c31.938,48.914,72.24,89.349,122.375,119.766c4.803,2.914,8.146,2.685,12.739-0.28c24.37-15.728,46.539-34.078,66.987-54.601
		c43.849-44.01,76.186-95.376,98.162-153.365c16.05-42.352,25.326-86.25,29.245-131.293c1.197-13.761,1.54-27.597,2.284-41.57
		c-2.503-0.643-4.381-1.151-6.273-1.607c-32.097-7.736-63.563-17.513-93.537-31.4c-24.354-11.284-48.349-23.376-72.221-35.657
		c-20.667-10.632-40.909-10.98-61.442-0.02c-9.881,5.274-20,10.101-29.938,15.272c-28.977,15.077-58.555,28.796-89.76,38.634
		C88.083,91.255,70.76,95.922,52.961,101.083z"/>
	<path display="none" fill="#FFFFFF" d="M52.915,100.526c17.978-5.213,35.477-9.928,52.745-15.373
		c31.52-9.938,61.396-23.796,90.666-39.025c10.038-5.223,20.259-10.099,30.24-15.426c20.741-11.071,41.187-10.719,62.063,0.02
		c24.114,12.405,48.351,24.62,72.951,36.018c30.277,14.028,62.061,23.904,94.482,31.718c1.911,0.46,3.808,0.974,6.336,1.623
		c-0.751,14.114-1.097,28.09-2.307,41.99c-3.959,45.498-13.329,89.839-29.541,132.619c-22.198,58.574-54.861,110.459-99.154,154.914
		c-20.655,20.731-43.048,39.266-67.664,55.153c-4.639,2.994-8.016,3.226-12.868,0.282c-50.641-30.724-91.35-71.567-123.611-120.975
		c-36.453-55.829-58.423-117.208-67.616-183.02c-3.586-25.676-4.563-51.716-6.714-77.592
		C52.844,102.472,52.915,101.481,52.915,100.526z M258.272,316.499c0,0.006,0,0.011,0,0.017c1.499,0,2.999,0.014,4.498-0.002
		c11.129-0.116,11.834,1.865,11.252-11.372c-0.562-12.784,3.301-23.637,11.036-33.778c10.393-13.627,20.503-27.523,29.865-41.871
		c15.125-23.179,16.968-47.559,2.252-71.51c-12.439-20.244-32.436-27.76-55.303-28.339c-36.633-0.928-63.199,20.467-70.057,55.93
		c-0.65,3.36-0.539,6.009,3.587,6.701c7.056,1.184,14.112,2.365,21.155,3.622c2.819,0.503,4.329-0.505,5.117-3.299
		c1.216-4.31,2.416-8.672,4.181-12.772c12.384-28.764,50.057-25.476,62.463-9.08c8.096,10.701,9.923,28.432,1.633,41.438
		c-10.811,16.961-22.898,33.105-34.301,49.693c-3.287,4.781-6.549,9.67-9.055,14.878c-5.567,11.572-4.05,24.105-3.848,36.372
		c0.019,1.146,2.529,3.03,4.05,3.219C250.57,316.814,254.44,316.499,258.272,316.499z M275.827,364.213
		c0-4.983-0.022-9.965,0.008-14.948c0.02-3.278-1.432-4.84-4.832-4.804c-8.469,0.09-16.941,0.075-25.411,0.004
		c-3.295-0.027-4.987,1.383-4.988,4.715c-0.001,9.799,0.005,19.598-0.008,29.397c-0.005,3.295,1.603,4.865,4.898,4.855
		c8.47-0.027,16.941-0.055,25.411,0.011c3.68,0.029,4.998-1.854,4.946-5.28C275.78,373.515,275.833,368.863,275.827,364.213z"/>
	<path d="M256.264,314.897c-3.793,0-7.625,0.311-11.36-0.152c-1.506-0.187-3.991-2.052-4.009-3.187
		c-0.201-12.144-1.702-24.552,3.809-36.008c2.481-5.157,5.711-9.996,8.965-14.729c11.289-16.422,23.256-32.405,33.958-49.196
		c8.208-12.877,6.399-30.43-1.616-41.024c-12.282-16.232-49.578-19.487-61.838,8.989c-1.747,4.059-2.935,8.377-4.139,12.644
		c-0.78,2.766-2.275,3.764-5.066,3.266c-6.973-1.244-13.959-2.413-20.944-3.585c-4.085-0.685-4.194-3.308-3.551-6.634
		c6.789-35.108,33.089-56.289,69.356-55.371c22.638,0.574,42.435,8.014,54.75,28.056c14.569,23.711,12.744,47.848-2.229,70.795
		c-9.269,14.204-19.277,27.962-29.567,41.452c-7.658,10.04-11.482,20.783-10.926,33.44c0.576,13.105-0.122,11.143-11.14,11.259
		c-1.484,0.016-2.968,0.002-4.453,0.002C256.264,314.908,256.264,314.903,256.264,314.897z"/>
	<path d="M273.647,362.134c0.003,4.604-0.049,9.209,0.021,13.811c0.051,3.392-1.253,5.256-4.897,5.227
		c-8.385-0.066-16.771-0.038-25.157-0.011c-3.262,0.01-4.854-1.544-4.849-4.806c0.013-9.701,0.007-19.402,0.008-29.103
		c0-3.298,1.676-4.695,4.938-4.668c8.385,0.07,16.772,0.085,25.157-0.004c3.366-0.036,4.804,1.511,4.784,4.756
		C273.622,352.268,273.644,357.201,273.647,362.134z"/>
</g>
</svg>
