<?xml version="1.0" encoding="utf-8"?>
<!-- Generator: Adobe Illustrator 16.0.0, SVG Export Plug-In . SVG Version: 6.00 Build 0)  -->
<!DOCTYPE svg PUBLIC "-//W3C//DTD SVG 1.1//EN" "http://www.w3.org/Graphics/SVG/1.1/DTD/svg11.dtd">
<svg version="1.1" id="Layer_1" xmlns="http://www.w3.org/2000/svg" xmlns:xlink="http://www.w3.org/1999/xlink" x="0px" y="0px"
	 width="512px" height="512px" viewBox="0 0 512 512" enable-background="new 0 0 512 512" xml:space="preserve">
<g>
	<line fill="none" stroke="#B35047" x1="32" y1="0" x2="32" y2="512"/>
	<line fill="none" stroke="#B35047" x1="64" y1="0" x2="64" y2="512"/>
	<line fill="none" stroke="#B35047" x1="96" y1="0" x2="96" y2="512"/>
	<line fill="none" stroke="#B35047" x1="128" y1="0" x2="128" y2="512"/>
	<line fill="none" stroke="#B35047" x1="160" y1="0" x2="160" y2="512"/>
	<line fill="none" stroke="#B35047" x1="192" y1="0" x2="192" y2="512"/>
	<line fill="none" stroke="#B35047" x1="224" y1="0" x2="224" y2="512"/>
	<line fill="none" stroke="#B35047" x1="256" y1="0" x2="256" y2="512"/>
	<line fill="none" stroke="#B35047" x1="288" y1="0" x2="288" y2="512"/>
	<line fill="none" stroke="#B35047" x1="320" y1="0" x2="320" y2="512"/>
	<line fill="none" stroke="#B35047" x1="352" y1="0" x2="352" y2="512"/>
	<line fill="none" stroke="#B35047" x1="384" y1="0" x2="384" y2="512"/>
	<line fill="none" stroke="#B35047" x1="416" y1="0" x2="416" y2="512"/>
	<line fill="none" stroke="#B35047" x1="448" y1="0" x2="448" y2="512"/>
	<line fill="none" stroke="#B35047" x1="480" y1="0" x2="480" y2="512"/>
	<line fill="none" stroke="#B35047" x1="0" y1="32" x2="512" y2="32"/>
	<line fill="none" stroke="#B35047" x1="0" y1="64" x2="512" y2="64"/>
	<line fill="none" stroke="#B35047" x1="0" y1="96" x2="512" y2="96"/>
	<line fill="none" stroke="#B35047" x1="0" y1="128" x2="512" y2="128"/>
	<line fill="none" stroke="#B35047" x1="0" y1="160" x2="512" y2="160"/>
	<line fill="none" stroke="#B35047" x1="0" y1="192" x2="512" y2="192"/>
	<line fill="none" stroke="#B35047" x1="0" y1="224" x2="512" y2="224"/>
	<line fill="none" stroke="#B35047" x1="0" y1="256" x2="512" y2="256"/>
	<line fill="none" stroke="#B35047" x1="0" y1="288" x2="512" y2="288"/>
	<line fill="none" stroke="#B35047" x1="0" y1="320" x2="512" y2="320"/>
	<line fill="none" stroke="#B35047" x1="0" y1="352" x2="512" y2="352"/>
	<line fill="none" stroke="#B35047" x1="0" y1="384" x2="512" y2="384"/>
	<line fill="none" stroke="#B35047" x1="0" y1="416" x2="512" y2="416"/>
	<line fill="none" stroke="#B35047" x1="0" y1="448" x2="512" y2="448"/>
	<line fill="none" stroke="#B35047" x1="0" y1="480" x2="512" y2="480"/>
	<rect fill="none" stroke="#B35047" width="512" height="512"/>
</g>
<image display="none" overflow="visible" width="512" height="512" xlink:href="../../../Knowledge/Icon/[+++++] (Full) iOS7 icons [icons8]/Industry/trash2/trash2-512.png"  transform="matrix(1 0 0 1 514 -65)">
</image>
<image display="none" overflow="visible" width="512" height="512" xlink:href="../../../Knowledge/Icon/[+++++] (Full) iOS7 icons [icons8]/Industry/recycling/recycling-512.png"  transform="matrix(1 0 0 1 514 -65)">
</image>
<g>
	<path fill-rule="evenodd" clip-rule="evenodd" d="M492.109,508.939c-15.84,0-31.68,0-47.52,0
		c-13.476-5.673-16.78-10.711-16.781-25.587c0-16.654,0-33.308,0-49.962c0-1.744,0-3.488,0-5.223c-44.267,0-87.856,0-131.732,0
		c0,18.641,0.001,36.927,0,55.212c-0.001,14.866-3.366,19.979-16.816,25.56c-15.84,0-31.68,0-47.52,0
		c-13.451-5.58-16.815-10.693-16.816-25.56c-0.001-16.653,0-33.308,0-49.962c0-1.748,0-3.496,0-5.26c-44.237,0-87.829,0-131.732,0
		c0,18.628,0.001,36.911,0,55.194c-0.001,14.876-3.306,19.914-16.781,25.587c-15.84,0-31.68,0-47.52,0
		c-12.495-5.141-16.821-10.871-16.822-22.57C2.056,332.461,2.055,178.551,2.069,24.643C2.071,10.576,10.513,2.118,24.508,2.068
		c11.877-0.042,23.754-0.025,35.631-0.004C74.842,2.09,83.15,10.369,83.183,25.057c0.032,14.187-0.001,28.374,0.019,42.56
		c0.002,1.732,0.152,3.466,0.234,5.208c44.042,0,87.519,0,131.487,0c0-2.046,0-3.822,0-5.6c0-14.187-0.037-28.374,0.012-42.559
		c0.048-14.077,8.469-22.546,22.44-22.597c11.877-0.043,23.754-0.026,35.631-0.005c14.711,0.025,23.029,8.298,23.063,22.973
		c0.033,14.187,0.008,28.374,0.008,42.561c0,1.729,0,3.457,0,5.233c44.259,0,87.737,0,131.732,0c0-2.046,0-3.816,0-5.585
		c0-14.022-0.021-28.044,0.006-42.065c0.029-14.771,8.277-23.083,22.922-23.116c10.889-0.024,21.775-0.005,32.663-0.005
		c14.943,0.001,19.982,3.321,25.54,16.83c0,157.74,0,315.48,0,473.22C506.389,500.778,500.778,506.389,492.109,508.939z
		 M62.566,488.193c0-155.197,0-310.182,0-465.64c-1.997-0.093-3.758-0.24-5.521-0.245c-8.907-0.024-17.815-0.058-26.721,0.002
		c-9.067,0.061-8.01-1.09-8.012,7.783c-0.02,150.268-0.014,300.535-0.014,450.802c0,1.32,0.119,2.651-0.019,3.956
		c-0.33,3.136,1.193,3.922,4.076,3.891c10.885-0.113,21.772-0.032,32.659-0.068C60.122,488.671,61.229,488.382,62.566,488.193z
		 M448.492,488.701c11.331,0,22.348,0.002,33.365,0c6.84-0.002,6.844-0.005,6.844-6.998c0.001-150.762,0-301.523,0-452.286
		c0-0.989-0.103-1.991,0.016-2.967c0.396-3.293-1.09-4.25-4.265-4.206c-10.885,0.15-21.772,0.044-32.659,0.087
		c-1.08,0.005-2.159,0.362-3.301,0.565C448.492,178.163,448.492,333.137,448.492,488.701z M275.73,488.668c0-3.209,0-5.495,0-7.781
		c0-150.311,0-300.621,0-450.932c0-1.155-0.113-2.323,0.02-3.462c0.377-3.264-1.047-4.29-4.243-4.246
		c-10.888,0.146-21.779,0.042-32.668,0.088c-1.072,0.005-2.142,0.388-3.57,0.664c0,2.372,0,4.496,0,6.62
		c0,150.641,0,301.281,0.001,451.922c0,1.484-0.322,3.088,0.138,4.417c0.372,1.075,1.687,2.582,2.602,2.595
		C250.348,488.724,262.689,488.668,275.73,488.668z M83.503,123.947c0,16.967,0,33.51,0,50.122c43.887,0,87.46,0,131.112,0
		c0-16.848,0-33.394,0-50.122C170.851,123.947,127.392,123.947,83.503,123.947z M296.404,123.927c0,17.03,0,33.576,0,50.12
		c43.904,0,87.479,0,131.071,0c0-16.869,0-33.413,0-50.12C383.684,123.927,340.225,123.927,296.404,123.927z M83.416,275.316
		c44.008,0,87.601,0,131.084,0c0-16.962,0-33.504,0-50.003c-43.903,0-87.382,0-131.084,0
		C83.416,242.057,83.416,258.493,83.416,275.316z M427.574,225.396c-44.038,0-87.639,0-131.083,0c0,16.951,0,33.506,0,50.018
		c43.894,0,87.371,0,131.083,0C427.574,258.651,427.574,242.204,427.574,225.396z M83.421,376.826c44.029,0,87.635,0,131.098,0
		c0-16.936,0-33.495,0-49.973c-43.893,0-87.38,0-131.098,0C83.421,343.588,83.421,360.03,83.421,376.826z M296.349,326.797
		c0,16.797,0,33.354,0,50.078c43.871,0,87.478,0,131.106,0c0-16.889,0-33.452,0-50.078
		C383.608,326.797,340.115,326.797,296.349,326.797z M83.494,397.609c0,3.445,0,6.49,0,9.695c43.889,0,87.474,0,131.129,0
		c0-3.368,0-6.416,0-9.695C170.88,397.609,127.435,397.609,83.494,397.609z M296.283,407.182c43.89,0,87.572,0,131.31,0
		c0-3.364,0-6.287,0-9.378c-43.898,0-87.579,0-131.31,0C296.283,401.166,296.283,404.093,296.283,407.182z M214.732,93.559
		c-44.05,0-87.616,0-131.208,0c0,3.373,0,6.413,0,9.469c43.896,0,87.458,0,131.208,0C214.732,99.764,214.732,96.847,214.732,93.559z
		 M427.612,93.595c-44.138,0-87.703,0-131.173,0c0,3.416,0,6.461,0,9.39c43.928,0,87.491,0,131.173,0
		C427.612,99.68,427.612,96.767,427.612,93.595z M214.748,195.087c-44.049,0-87.611,0-131.209,0c0,3.392,0,6.417,0,9.473
		c43.913,0,87.478,0,131.209,0C214.748,201.31,214.748,198.394,214.748,195.087z M296.257,204.551c44.09,0,87.656,0,131.206,0
		c0-3.393,0-6.438,0-9.454c-43.907,0-87.467,0-131.206,0C296.257,198.381,296.257,201.297,296.257,204.551z M214.731,296.368
		c-44.016,0-87.588,0-131.217,0c0,3.327,0,6.354,0,9.429c43.891,0,87.458,0,131.217,0
		C214.731,302.58,214.731,299.667,214.731,296.368z M427.631,296.402c-44.114,0-87.687,0-131.201,0c0,3.366,0,6.396,0,9.357
		c43.925,0,87.493,0,131.201,0C427.631,302.506,427.631,299.594,427.631,296.402z"/>
	<path display="none" fill-rule="evenodd" clip-rule="evenodd" fill="#FFFFFF" d="M513.5,18.5
		c-5.614-13.646-10.704-16.999-25.799-17c-10.997,0-21.994-0.02-32.992,0.005c-14.793,0.033-23.124,8.429-23.153,23.35
		c-0.027,14.163-0.006,28.326-0.006,42.49c0,1.787,0,3.574,0,5.642c-44.44,0-88.357,0-133.063,0c0-1.794,0-3.54,0-5.286
		c0-14.33,0.025-28.66-0.008-42.99c-0.034-14.823-8.436-23.18-23.295-23.205c-11.997-0.021-23.995-0.039-35.992,0.005
		c-14.112,0.052-22.618,8.606-22.667,22.825c-0.049,14.329-0.011,28.659-0.012,42.989c0,1.795,0,3.589,0,5.656
		c-44.412,0-88.329,0-132.815,0c-0.083-1.76-0.234-3.511-0.236-5.261c-0.02-14.33,0.014-28.66-0.019-42.99
		C83.41,9.894,75.017,1.53,60.166,1.505C48.169,1.483,36.172,1.467,24.175,1.509C10.038,1.559,1.511,10.103,1.51,24.312
		c-0.015,155.463-0.014,310.927-0.001,466.39C1.509,502.519,5.879,508.307,18.5,513.5c-5.997,0-11.994,0-17.994,0
		C0.504,342.583,0.504,171.666,0.504,0.625c170.996,0,341.996,0,512.996,0C513.5,6.506,513.5,12.503,513.5,18.5z"/>
	<path display="none" fill-rule="evenodd" clip-rule="evenodd" fill="#FFFFFF" d="M66.5,513.5
		c13.611-5.73,16.949-10.819,16.95-25.846c0.001-18.468,0-36.936,0-55.752c44.347,0,88.379,0,133.063,0c0,1.781,0,3.547,0,5.313
		c0,16.822,0,33.645,0,50.466c0.001,15.017,3.4,20.182,16.986,25.818C177.833,513.5,122.167,513.5,66.5,513.5z"/>
	<path display="none" fill-rule="evenodd" clip-rule="evenodd" fill="#FFFFFF" d="M281.5,513.5
		c13.586-5.637,16.985-10.802,16.986-25.818c0.001-18.47,0-36.94,0-55.77c44.319,0,88.35,0,133.063,0c0,1.752,0,3.514,0,5.275
		c0,16.822-0.001,33.645,0,50.467c0.001,15.026,3.339,20.115,16.95,25.846C392.833,513.5,337.167,513.5,281.5,513.5z"/>
	<path display="none" fill-rule="evenodd" clip-rule="evenodd" fill="#FFFFFF" d="M496.5,513.5c8.756-2.577,14.423-8.244,17-17
		c0,5.667,0,11.333,0,17C507.833,513.5,502.167,513.5,496.5,513.5z"/>
	<path display="none" fill-rule="evenodd" clip-rule="evenodd" fill="#FFFFFF" d="M62.617,492.544
		c-1.351,0.19-2.468,0.482-3.587,0.485c-10.996,0.036-21.994-0.045-32.989,0.069c-2.911,0.031-4.45-0.763-4.117-3.93
		c0.139-1.318,0.019-2.663,0.019-3.996c0-151.785-0.006-303.57,0.015-455.355c0.001-8.963-1.066-7.8,8.092-7.861
		c8.997-0.061,17.994-0.026,26.991-0.002c1.78,0.005,3.56,0.153,5.576,0.247C62.617,179.229,62.617,335.779,62.617,492.544z"/>
	<path display="none" fill-rule="evenodd" clip-rule="evenodd" fill="#FFFFFF" d="M452.441,493.057c0-157.136,0-313.675,0-470.509
		c1.153-0.206,2.243-0.566,3.335-0.571c10.996-0.043,21.994,0.063,32.988-0.088c3.207-0.045,4.709,0.922,4.308,4.248
		c-0.119,0.985-0.016,1.998-0.016,2.997c0,152.285,0.001,304.569,0,456.854c0,7.063-0.004,7.066-6.912,7.068
		C475.016,493.059,463.888,493.057,452.441,493.057z"/>
	<path display="none" fill-rule="evenodd" clip-rule="evenodd" fill="#FFFFFF" d="M277.936,493.023
		c-13.173,0-25.64,0.057-38.103-0.117c-0.924-0.013-2.252-1.535-2.628-2.621c-0.465-1.343-0.139-2.962-0.139-4.462
		c-0.001-152.162-0.001-304.324-0.001-456.486c0-2.146,0-4.291,0-6.687c1.443-0.279,2.524-0.666,3.606-0.671
		c11-0.047,22,0.059,32.999-0.089c3.229-0.044,4.667,0.992,4.285,4.289c-0.134,1.15-0.019,2.33-0.019,3.497
		c0,151.829,0,303.658,0,455.487C277.936,487.473,277.936,489.782,277.936,493.023z"/>
	<path display="none" fill-rule="evenodd" clip-rule="evenodd" fill="#FFFFFF" d="M83.766,124.618c44.332,0,88.229,0,132.437,0
		c0,16.896,0,33.609,0,50.628c-44.093,0-88.107,0-132.437,0C83.766,158.467,83.766,141.757,83.766,124.618z"/>
	<path display="none" fill-rule="evenodd" clip-rule="evenodd" fill="#FFFFFF" d="M298.817,124.599c44.264,0,88.161,0,132.396,0
		c0,16.876,0,33.587,0,50.626c-44.032,0-88.048,0-132.396,0C298.817,158.514,298.817,141.801,298.817,124.599z"/>
	<path display="none" fill-rule="evenodd" clip-rule="evenodd" fill="#FFFFFF" d="M83.678,277.517c0-16.993,0-33.596,0-50.508
		c44.144,0,88.062,0,132.408,0c0,16.665,0,33.375,0,50.508C172.163,277.517,128.13,277.517,83.678,277.517z"/>
	<path display="none" fill-rule="evenodd" clip-rule="evenodd" fill="#FFFFFF" d="M431.313,227.093c0,16.977,0,33.591,0,50.522
		c-44.153,0-88.07,0-132.407,0c0-16.678,0-33.4,0-50.522C342.789,227.093,386.83,227.093,431.313,227.093z"/>
	<path display="none" fill-rule="evenodd" clip-rule="evenodd" fill="#FFFFFF" d="M83.683,380.052c0-16.966,0-33.574,0-50.478
		c44.159,0,88.086,0,132.422,0c0,16.645,0,33.371,0,50.478C172.204,380.052,128.157,380.052,83.683,380.052z"/>
	<path display="none" fill-rule="evenodd" clip-rule="evenodd" fill="#FFFFFF" d="M298.762,329.517c44.208,0,88.141,0,132.431,0
		c0,16.795,0,33.525,0,50.585c-44.069,0-88.116,0-132.431,0C298.762,363.209,298.762,346.483,298.762,329.517z"/>
	<path display="none" fill-rule="evenodd" clip-rule="evenodd" fill="#FFFFFF" d="M83.757,401.045c44.384,0,88.269,0,132.454,0
		c0,3.313,0,6.392,0,9.793c-44.097,0-88.122,0-132.454,0C83.757,407.601,83.757,404.525,83.757,401.045z"/>
	<path display="none" fill-rule="evenodd" clip-rule="evenodd" fill="#FFFFFF" d="M298.695,410.714c0-3.12,0-6.076,0-9.473
		c44.172,0,88.294,0,132.636,0c0,3.122,0,6.074,0,9.473C387.152,410.714,343.028,410.714,298.695,410.714z"/>
	<path display="none" fill-rule="evenodd" clip-rule="evenodd" fill="#FFFFFF" d="M216.321,93.923c0,3.321,0,6.269,0,9.564
		c-44.192,0-88.193,0-132.533,0c0-3.087,0-6.157,0-9.564C127.82,93.923,171.826,93.923,216.321,93.923z"/>
	<path display="none" fill-rule="evenodd" clip-rule="evenodd" fill="#FFFFFF" d="M431.351,93.96c0,3.204,0,6.146,0,9.484
		c-44.122,0-88.126,0-132.497,0c0-2.958,0-6.034,0-9.484C342.762,93.96,386.768,93.96,431.351,93.96z"/>
	<path display="none" fill-rule="evenodd" clip-rule="evenodd" fill="#FFFFFF" d="M216.336,196.478c0,3.34,0,6.285,0,9.568
		c-44.173,0-88.178,0-132.535,0c0-3.086,0-6.143,0-9.568C127.84,196.478,171.843,196.478,216.336,196.478z"/>
	<path display="none" fill-rule="evenodd" clip-rule="evenodd" fill="#FFFFFF" d="M298.669,206.037c0-3.287,0-6.232,0-9.55
		c44.181,0,88.181,0,132.531,0c0,3.047,0,6.122,0,9.55C387.21,206.037,343.204,206.037,298.669,206.037z"/>
	<path display="none" fill-rule="evenodd" clip-rule="evenodd" fill="#FFFFFF" d="M216.319,298.781c0,3.332,0,6.274,0,9.523
		c-44.201,0-88.208,0-132.542,0c0-3.105,0-6.163,0-9.523C127.847,298.781,171.859,298.781,216.319,298.781z"/>
	<path display="none" fill-rule="evenodd" clip-rule="evenodd" fill="#FFFFFF" d="M431.37,298.816c0,3.224,0,6.164,0,9.451
		c-44.149,0-88.158,0-132.526,0c0-2.99,0-6.052,0-9.451C342.798,298.816,386.81,298.816,431.37,298.816z"/>
</g>
<g display="none">
	<path fill-rule="evenodd" clip-rule="evenodd" fill="#FFFFFF" d="M317.5,513.5c-105.641,0-211.281,0-316.96,0
		c0-170.932,0-341.862,0-512.896c170.849,0,341.738,0,512.793,0c0,170.896,0,341.896,0,512.896c-50.525,0-101.179,0-151.833,0
		c7.048-2.613,8.581-8.09,8.575-15.003c-0.098-112.995-0.097-225.989-0.04-338.984c0.008-15.341,0.48-30.664,6.38-45.215
		c4.933-12.167,13.999-18.627,26.938-19.916c2.818-0.28,5.658-0.464,8.44-0.956c5.848-1.033,9.514-5.38,9.187-10.635
		c-0.323-5.186-4.659-9.377-10.57-9.211c-21.162,0.594-42.004,6.879-52.862,33.553c-6.799,16.702-7.759,34.357-7.773,52.045
		c-0.094,113.328-0.027,226.656-0.1,339.984c-0.005,6.813,1.921,11.994,8.826,14.338c-12.667,0-25.333,0-38,0
		c6.174-2.381,8.627-6.893,8.621-13.474c-0.056-56.66,0.068-113.32,0.069-169.98c0-55.493-0.126-110.986-0.101-166.479
		c0.009-19.696,0.955-39.293,7.492-58.182c8.562-24.735,24.146-42.392,50.147-49.077c7.841-2.016,16.062-2.573,24.12-3.714
		c6.454-0.913,10.52-5.174,10.119-10.781c-0.385-5.374-4.893-9.461-11.08-9.235c-18.722,0.686-36.644,4.561-52.835,14.502
		c-23.267,14.286-36.048,35.99-42.376,61.749c-2.959,12.046-4.301,24.488-6.463,37.269c-53.982-8.487-108.623-17.078-164.161-25.811
		c1.511-9.902,2.24-19.238,4.449-28.211c4.85-19.702,13.612-26.784,33.671-28.804c2.462-0.248,4.951-0.739,7.298-1.511
		c4.575-1.504,6.554-5.145,6.249-9.662c-0.305-4.513-2.705-8.056-7.49-8.668c-3.564-0.457-7.266-0.255-10.869,0.07
		c-21.077,1.904-36.296,12.262-44.625,31.891c-7.313,17.234-8.208,35.559-8.221,53.946c-0.04,55.333-0.016,110.666-0.014,165.999
		c0.002,54.333-0.027,108.666,0.097,162.999c0.007,3.198,0.538,6.809,2.094,9.491c2.244,3.868,6.235,5.221,10.826,3.776
		c5.06-1.592,7.005-5.424,7.066-10.262c0.143-11.332,0.052-22.666,0.056-34c0.001-2.915,0-5.83,0-9.387
		c55.157,11.727,109.448,23.27,164.118,34.894c0,2.157,0,3.961,0,5.765c0,13.5,0.127,27.002-0.053,40.5
		C308.615,505.922,310.636,511.105,317.5,513.5z M83.531,282.758c0,58.325-0.012,116.65,0.04,174.975
		c0.002,2.626,0.214,5.366,0.977,7.854c1.991,6.487,10.783,9.094,15.154,4.026c2.407-2.79,3.8-7.39,3.807-11.177
		c0.196-109.151,0.103-218.303,0.21-327.453c0.019-19.353,1.312-38.605,7.811-57.134c9.827-28.017,28.796-45.362,58.427-50.265
		c5.408-0.896,10.942-1.027,16.355-1.899c6.359-1.023,9.872-5.397,9.277-10.907c-0.596-5.522-5.467-9.282-11.796-8.982
		c-3.159,0.149-6.317,0.425-9.462,0.768c-15.062,1.645-29.383,5.651-42.413,13.609C108.952,30.199,96.456,51.575,89.52,76.815
		c-4.81,17.503-5.902,35.454-5.945,53.464C83.451,181.105,83.531,231.932,83.531,282.758z"/>
	<path display="inline" fill-rule="evenodd" clip-rule="evenodd" d="M320.848,508.941c-6.796-2.371-8.796-7.502-8.706-14.242
		c0.178-13.363,0.052-26.73,0.052-40.096c0-1.785,0-3.572,0-5.707c-54.123-11.508-107.872-22.936-162.477-34.545
		c0,3.521,0.001,6.406,0,9.293c-0.003,11.221,0.086,22.441-0.055,33.66c-0.061,4.789-1.986,8.584-6.995,10.158
		c-4.544,1.432-8.496,0.092-10.718-3.738c-1.541-2.656-2.065-6.23-2.073-9.396c-0.123-53.789-0.094-107.578-0.096-161.368
		c-0.002-54.78-0.025-109.56,0.014-164.339c0.013-18.204,0.899-36.345,8.139-53.407c8.245-19.433,23.312-29.687,44.179-31.572
		c3.566-0.322,7.231-0.522,10.76-0.069c4.737,0.606,7.113,4.114,7.415,8.581c0.302,4.473-1.657,8.077-6.186,9.565
		c-2.323,0.764-4.788,1.25-7.225,1.496c-19.859,2-28.533,9.011-33.334,28.516c-2.187,8.883-2.908,18.125-4.404,27.929
		c54.982,8.645,109.077,17.15,162.52,25.552c2.141-12.652,3.469-24.97,6.398-36.896c6.265-25.501,18.918-46.988,41.952-61.131
		c16.029-9.842,33.771-13.678,52.307-14.357c6.125-0.223,10.588,3.823,10.969,9.143c0.396,5.551-3.629,9.77-10.018,10.673
		c-7.979,1.129-16.117,1.681-23.879,3.677c-25.742,6.619-41.17,24.098-49.646,48.586c-6.471,18.7-7.408,38.101-7.417,57.6
		c-0.024,54.938,0.1,109.876,0.1,164.815c-0.001,56.094-0.124,112.186-0.068,168.279c0.006,6.516-2.423,10.982-8.535,13.34
		C322.828,508.941,321.838,508.941,320.848,508.941z M149.902,174.622c53.932,9.07,107.8,18.132,161.945,27.238
		c0-12.383,0-24.325,0-36.429c-54.081-8.49-107.847-16.929-161.945-25.421C149.902,152.035,149.902,163.047,149.902,174.622z
		 M311.906,222.133c-54.285-9.133-107.968-18.165-161.788-27.22c0,11.947,0,23.215,0,34.589
		c54.093,9.7,107.817,19.334,161.788,29.013C311.906,246.08,311.906,234.281,311.906,222.133z M312.193,315.223
		c0-11.088-0.104-21.6,0.061-32.107c0.05-3.213-0.846-4.461-4.23-5.059c-43.458-7.684-86.88-15.57-130.316-23.381
		c-9.159-1.646-18.336-3.192-27.762-4.83c0,11.778,0,22.934,0,34.455C203.905,294.584,257.713,304.839,312.193,315.223z
		 M149.717,304.596c0,10.705,0.178,20.416-0.092,30.112c-0.102,3.636,1.23,4.651,4.591,5.321
		c46.967,9.355,93.902,18.875,140.846,28.344c5.535,1.115,11.083,2.154,16.887,3.279c0-12.467,0-24.113,0-36.146
		C257.999,325.227,204.214,314.979,149.717,304.596z M149.875,393.947c54.086,11.504,107.923,22.955,161.977,34.451
		c0-12.541,0-24.32,0-36.248c-54.098-10.9-107.896-21.742-161.977-32.641C149.875,371.215,149.875,382.232,149.875,393.947z"/>
	<path display="inline" fill-rule="evenodd" clip-rule="evenodd" d="M361.438,508.941c-6.836-2.32-8.742-7.449-8.738-14.195
		c0.072-112.193,0.006-224.389,0.1-336.584c0.014-17.511,0.965-34.989,7.695-51.524c10.75-26.407,31.383-32.629,52.334-33.217
		c5.852-0.164,10.145,3.985,10.465,9.119c0.322,5.202-3.307,9.505-9.096,10.528c-2.754,0.487-5.566,0.669-8.355,0.946
		c-12.809,1.276-21.785,7.671-26.668,19.717c-5.842,14.405-6.309,29.575-6.316,44.763c-0.057,111.866-0.057,223.729,0.039,335.594
		c0.006,6.844-1.512,12.266-8.488,14.854C363.418,508.941,362.428,508.941,361.438,508.941z"/>
	<path display="inline" fill-rule="evenodd" clip-rule="evenodd" d="M89.218,280.506c0-50.317-0.079-100.635,0.043-150.953
		c0.043-17.83,1.124-35.602,5.886-52.929c6.866-24.988,19.238-46.15,41.975-60.037c12.9-7.878,27.078-11.845,41.989-13.473
		c3.113-0.339,6.24-0.612,9.367-0.76c6.266-0.297,11.088,3.425,11.678,8.893c0.589,5.455-2.889,9.785-9.185,10.798
		c-5.359,0.863-10.837,0.994-16.192,1.88c-29.334,4.854-48.113,22.025-57.842,49.762c-6.434,18.343-7.714,37.403-7.733,56.563
		c-0.107,108.059-0.015,216.118-0.208,324.179c-0.007,3.748-1.386,8.303-3.769,11.064c-4.328,5.018-13.031,2.438-15.002-3.986
		c-0.756-2.463-0.965-5.176-0.967-7.775C89.207,395.99,89.218,338.248,89.218,280.506z"/>
	<path fill-rule="evenodd" clip-rule="evenodd" fill="#FFFFFF" d="M144.828,175.804c0-11.691,0-22.815,0-34.961
		c54.644,8.578,108.954,17.103,163.581,25.678c0,12.227,0,24.289,0,36.797C253.717,194.119,199.304,184.966,144.828,175.804z"/>
	<path fill-rule="evenodd" clip-rule="evenodd" fill="#FFFFFF" d="M308.469,223.795c0,12.271,0,24.188,0,36.749
		c-54.516-9.776-108.783-19.508-163.422-29.306c0-11.489,0-22.871,0-34.938C199.41,205.446,253.634,214.569,308.469,223.795z"/>
	<path fill-rule="evenodd" clip-rule="evenodd" fill="#FFFFFF" d="M308.758,317.824c-55.03-10.488-109.381-20.847-163.887-31.234
		c0-11.638,0-22.905,0-34.803c9.521,1.654,18.791,3.216,28.042,4.879c43.875,7.89,87.736,15.856,131.633,23.617
		c3.419,0.604,4.323,1.864,4.273,5.109C308.654,296.007,308.758,306.625,308.758,317.824z"/>
	<path fill-rule="evenodd" clip-rule="evenodd" fill="#FFFFFF" d="M144.641,307.09c55.047,10.488,109.375,20.84,163.871,31.223
		c0,12.155,0,23.92,0,36.512c-5.862-1.137-11.467-2.186-17.057-3.313c-47.419-9.563-94.828-19.18-142.27-28.629
		c-3.395-0.677-4.74-1.703-4.637-5.376C144.821,327.712,144.641,317.903,144.641,307.09z"/>
	<path fill-rule="evenodd" clip-rule="evenodd" fill="#FFFFFF" d="M144.8,397.345c0-11.834,0-22.963,0-34.786
		c54.627,11.009,108.969,21.96,163.613,32.972c0,12.048,0,23.945,0,36.614C253.813,420.531,199.433,408.965,144.8,397.345z"/>
</g>
<g display="none">
	<path fill-rule="evenodd" clip-rule="evenodd" fill="#FFFFFF" d="M252.5,513.5c-84,0-168,0-252,0c0-171,0-342,0-513
		c171,0,342,0,513,0c0,171,0,342,0,513c-83.667,0-167.333,0-251,0c5.213-1.617,10.695-2.661,15.59-4.958
		c15.123-7.098,23.453-19.592,26.732-36.049c6.748,0,13.4,0.165,20.043-0.034c13.331-0.4,24.289-10.898,24.578-24.182
		c0.373-17.158,0.241-34.33,0.094-51.493c-0.059-6.903-3.866-10.634-10.76-11.325c-4.108-0.413-8.229-0.705-12.27-1.045
		c-1.854-11.183-0.896-20.787,5.245-29.463c9.601-13.561,19.667-26.865,30.451-39.497c20.768-24.329,42.57-47.817,58.517-75.834
		c10.89-19.131,19.199-39.3,20.603-61.494c2.445-38.638-8.442-73.628-32.033-104.132c-33.315-43.079-78.262-65.95-131.904-71.317
		c-48.448-4.847-93.431,6.124-133.408,34.495c-35.953,25.516-59.428,59.576-68.04,103.28c-5.912,30.001-1.75,58.541,11.739,85.945
		c12.784,25.971,30.709,48.229,49.288,70.1c14.123,16.627,28.185,33.317,41.792,50.365c8.832,11.064,12.837,23.838,9.991,38.611
		c-3.714,0-7.36-0.061-11.003,0.012c-8.321,0.167-12.275,4.035-12.313,12.296c-0.074,16.166-0.122,32.333,0.012,48.498
		c0.126,15.319,10.949,26.061,26.19,26.223c6.147,0.066,12.295,0.011,18.58,0.011c2.513,13.229,8.234,24.578,19.488,31.604
		C236.575,508.407,244.853,510.448,252.5,513.5z"/>
	<path display="inline" fill-rule="evenodd" clip-rule="evenodd" d="M250.55,508.939c-7.571-3.02-15.766-5.041-22.571-9.289
		c-11.142-6.955-16.806-18.189-19.293-31.287c-6.221,0-12.308,0.055-18.394-0.012c-15.089-0.16-25.803-10.793-25.928-25.959
		c-0.132-16.004-0.085-32.01-0.012-48.014c0.038-8.178,3.952-12.008,12.19-12.174c3.606-0.07,7.216-0.012,10.893-0.012
		c2.818-14.625-1.148-27.271-9.891-38.225c-13.47-16.877-27.392-33.4-41.374-49.861c-18.392-21.652-36.139-43.688-48.795-69.399
		c-13.354-27.13-17.474-55.385-11.621-85.085c8.525-43.267,31.766-76.987,67.359-102.248c39.578-28.087,84.11-38.948,132.074-34.15
		c53.106,5.313,97.604,27.956,130.585,70.604c23.355,30.199,34.134,64.839,31.713,103.09c-1.389,21.973-9.615,41.939-20.396,60.879
		c-15.786,27.736-37.371,50.99-57.931,75.076c-10.677,12.506-20.643,25.678-30.147,39.102c-6.08,8.59-7.028,18.098-5.192,29.168
		c4,0.338,8.079,0.627,12.147,1.035c6.824,0.684,10.594,4.377,10.651,11.211c0.146,16.992,0.276,33.992-0.093,50.979
		c-0.286,13.15-11.135,23.545-24.332,23.941c-6.576,0.197-13.162,0.033-19.843,0.033c-3.246,16.293-11.493,28.662-26.465,35.688
		c-4.846,2.275-10.273,3.309-15.435,4.908C257.148,508.939,253.85,508.939,250.55,508.939z M265.721,280.229
		c-28.469,6.76-31.401,6.992-48.292,3.959c-24.065-4.322-43.849-23.336-49.177-47.232c-5.519-24.754-4.448-49.45,3.982-73.13
		c7.324-20.574,17.371-40.164,25.557-60.454c3.851-9.542,6.847-19.563,8.96-29.631c1.87-8.911,6.919-13.066,15.669-10.198
		c7.193,2.358,14.356,4.878,21.348,7.771c38.494,15.927,71.581,38.759,93.717,75.043c14.954,24.514,22.872,50.872,20.153,80.004
		c-2.618,28.045-19.176,43.706-45.825,49.678c-8.115,1.818-16.815,1.02-24.411,1.379c-2.363,17.169-4.319,35.012-7.389,52.663
		c-3.093,17.788-9.493,34.64-18.116,50.866c14.267,0,27.547,0,40.734,0c0.176-0.664,0.315-0.971,0.327-1.283
		c0.042-1.152,0.14-2.314,0.044-3.461c-1.15-13.895,2.428-26.732,10.434-37.842c9.719-13.486,20.004-26.619,30.807-39.252
		c19.616-22.938,40.165-45.11,55.323-71.475c13.485-23.456,20.95-48.341,17.197-75.691c-5.627-41.002-26.03-73.349-59.367-97.137
		c-42.802-30.541-90.704-39.313-141.589-27.694c-53.574,12.233-93.595,42.454-114.038,94.77
		c-12.165,31.132-11.666,62.418,3.358,93.005c11.753,23.929,28.172,44.475,45.237,64.653c14.797,17.494,29.719,34.912,43.823,52.96
		c9.737,12.458,15.523,26.776,14.04,43.181c-0.171,1.893-0.023,3.813-0.023,5.85c8.779,0,16.83-0.145,24.871,0.07
		c3.216,0.088,5.009-1.098,6.76-3.736c8.582-12.932,14.101-27.15,18.083-42.021C262.756,317.786,265.189,299.391,265.721,280.229z
		 M225.702,86.042c-0.973,3.231-1.484,5.85-2.524,8.239c-6.763,15.534-13.431,31.116-20.526,46.5
		c-12.043,26.111-19.442,52.853-16.617,82.183c3.384,35.142,44.63,55.647,74.455,36.29c3.656-2.374,5.594-5.133,4.971-9.758
		c-1.386-10.28-2.031-20.672-3.698-30.901c-4.345-26.666-12.311-52.176-25.222-76.048c-3.39-6.267-1.836-12.191,3.343-15.072
		c5.081-2.826,11.035-0.661,14.419,5.479c8.62,15.637,15.164,32.132,20.07,49.287c6.232,21.786,9.928,44.013,11.209,66.618
		c0.254,4.478,2.487,6.997,6.367,7.384c5.328,0.534,10.875,0.877,16.106-0.008c16.991-2.875,27.71-13.748,29.105-30.753
		c0.799-9.73,0.347-19.855-1.444-29.448c-4.666-25.012-17.348-46.031-35.005-64.098C279.68,110.415,254.057,96.366,225.702,86.042z
		 M184.446,402.17c0,12.719-0.007,24.564,0.003,36.41c0.007,8.564,1.041,9.58,9.764,9.582c40.916,0.004,81.83,0.002,122.746-0.002
		c1.318,0,2.641,0.006,3.957-0.074c3.283-0.197,5.442-1.969,5.475-5.229c0.135-13.477,0.057-26.953,0.057-40.688
		C279.161,402.17,232.221,402.17,184.446,402.17z M230.102,468.586c2.199,11.67,13.458,20.193,25.998,19.869
		c12.348-0.318,23.254-9.086,24.688-19.869C263.903,468.586,247.022,468.586,230.102,468.586z"/>
	<path fill-rule="evenodd" clip-rule="evenodd" fill="#FFFFFF" d="M267.824,282.478c-0.536,19.355-2.995,37.938-7.879,56.175
		c-4.023,15.022-9.598,29.384-18.267,42.447c-1.768,2.664-3.58,3.861-6.828,3.774c-8.123-0.218-16.255-0.071-25.123-0.071
		c0-2.058-0.149-3.998,0.023-5.909c1.498-16.57-4.346-31.032-14.182-43.617c-14.247-18.229-29.319-35.823-44.266-53.495
		c-17.237-20.381-33.822-41.135-45.694-65.306c-15.175-30.896-15.68-62.498-3.392-93.944c20.649-52.844,61.074-83.37,115.189-95.727
		c51.399-11.736,99.786-2.876,143.02,27.974c33.674,24.028,54.283,56.702,59.967,98.118c3.791,27.627-3.749,52.764-17.371,76.456
		c-15.311,26.631-36.067,49.028-55.882,72.197c-10.912,12.76-21.301,26.026-31.117,39.647
		c-8.088,11.223-11.701,24.189-10.539,38.226c0.097,1.157-0.002,2.331-0.045,3.496c-0.012,0.314-0.152,0.624-0.33,1.296
		c-13.32,0-26.735,0-41.146,0c8.711-16.391,15.176-33.412,18.3-51.381c3.1-17.829,5.076-35.853,7.463-53.194
		c7.673-0.363,16.461,0.443,24.657-1.394c26.919-6.033,43.645-21.852,46.289-50.18c2.746-29.427-5.252-56.051-20.357-80.813
		c-22.359-36.651-55.781-59.714-94.664-75.802c-7.063-2.922-14.298-5.468-21.564-7.85c-8.839-2.897-13.938,1.3-15.828,10.301
		c-2.135,10.171-5.162,20.292-9.051,29.931c-8.27,20.495-18.417,40.282-25.815,61.064c-8.515,23.92-9.597,48.865-4.022,73.869
		c5.382,24.138,25.365,43.343,49.673,47.709C236.106,289.541,239.068,289.306,267.824,282.478z"/>
	<path fill-rule="evenodd" clip-rule="evenodd" fill="#FFFFFF" d="M227.401,86.33c28.642,10.429,54.523,24.619,75.768,46.357
		c17.835,18.249,30.645,39.48,35.358,64.745c1.809,9.689,2.266,19.917,1.459,29.745c-1.41,17.177-12.236,28.159-29.399,31.063
		c-5.284,0.894-10.888,0.548-16.27,0.009c-3.919-0.392-6.175-2.936-6.431-7.459c-1.295-22.834-5.027-45.285-11.322-67.291
		c-4.957-17.328-11.566-33.99-20.273-49.785c-3.419-6.202-9.433-8.389-14.565-5.534c-5.231,2.91-6.8,8.895-3.376,15.225
		c13.042,24.113,21.088,49.881,25.477,76.816c1.684,10.332,2.336,20.829,3.736,31.213c0.629,4.672-1.328,7.459-5.021,9.856
		c-30.126,19.554-71.789-1.16-75.208-36.656c-2.854-29.626,4.621-56.638,16.785-83.013c7.167-15.539,13.902-31.278,20.733-46.97
		C225.902,92.239,226.419,89.594,227.401,86.33z"/>
	<path fill-rule="evenodd" clip-rule="evenodd" fill="#FFFFFF" d="M185.729,405.65c48.257,0,95.672,0,143.436,0
		c0,13.873,0.079,27.486-0.057,41.099c-0.033,3.294-2.214,5.082-5.53,5.282c-1.329,0.081-2.665,0.075-3.997,0.075
		c-41.329,0.004-82.657,0.006-123.986,0.001c-8.812-0.001-9.855-1.027-9.863-9.679C185.721,430.464,185.729,418.499,185.729,405.65z
		"/>
	<path fill-rule="evenodd" clip-rule="evenodd" fill="#FFFFFF" d="M231.846,472.737c17.091,0,34.143,0,51.198,0
		c-1.449,10.893-12.466,19.748-24.938,20.071C245.44,493.136,234.067,484.525,231.846,472.737z"/>
</g>
<g display="none">
	<path fill-rule="evenodd" clip-rule="evenodd" fill="#FFFFFF" d="M218.5,0.5c98.667,0,197.333,0,296,0c0,171.333,0,342.667,0,514
		c-171.333,0-342.667,0-514,0c0-171.333,0-342.666,0-514c70.667,0,141.333,0,212,0c-4.954,2.617-6.865,7.023-8.29,12.267
		c-4.836,17.805-9.457,35.714-15.398,53.162c-11.896,34.931-28.875,67.556-46.864,99.689
		c-18.284,32.658-37.827,64.688-51.854,99.552c-13.999,34.792-21.284,70.661-16.666,108.367
		c3.25,26.529,12.663,50.545,28.746,71.911c18.698,24.841,43.177,42.285,71.208,54.974c8.133,3.68,16.573,7.031,25.212,9.139
		c7.381,1.801,13.249-5.922,10.387-13.018c-1.165-2.889-3.708-5.427-6.112-7.578c-16.839-15.069-29.909-32.623-36.089-54.656
		c-4.506-16.064-3.272-32.573,1.544-47.875c9.35-29.707,20.774-58.762,31.762-89.264c2.209,2.951,3.762,4.818,5.092,6.833
		c10.806,16.373,17.559,34.275,20.211,53.726c0.967,7.088,3.687,10.261,9.349,11.181c5.018,0.815,9.004-1.797,11.755-7.923
		c21.485-47.84,33.437-97.8,33.368-150.424c-0.003-2.344,0-4.688,0-7.567c1.073,0.824,1.513,1.073,1.84,1.426
		c27.467,29.528,50.331,62.054,64.485,100.123c10.672,28.702,15.378,58.345,10.935,88.815
		c-5.899,40.447-23.294,74.693-56.429,99.939c-4.854,3.699-6.036,8.41-3.949,13.162c1.97,4.482,6.817,6.814,12.563,5.842
		c3.935-0.666,7.896-1.338,11.729-2.418c60.041-16.924,97.204-56.63,114.331-115.795c6.861-23.701,6.418-48.043,4.127-72.388
		c-2.593-27.554-9.41-54.053-20.04-79.561c-15.515-37.229-37.821-70.283-63.114-101.423
		C322.116,98.585,283.644,60.48,244.213,23.313C235.879,15.458,227.083,8.092,218.5,0.5z"/>
	<path display="inline" fill-rule="evenodd" clip-rule="evenodd" d="M219.88,3.06c8.497,7.516,17.205,14.809,25.456,22.585
		c39.036,36.795,77.124,74.519,111.004,116.231c25.04,30.828,47.123,63.552,62.482,100.409
		c10.524,25.253,17.273,51.486,19.84,78.766c2.269,24.101,2.707,48.199-4.086,71.663c-16.955,58.573-53.747,97.883-113.188,114.637
		c-3.795,1.069-7.716,1.734-11.611,2.395c-5.688,0.963-10.486-1.346-12.437-5.784c-2.065-4.704-0.896-9.368,3.909-13.03
		c32.804-24.993,50.024-58.897,55.865-98.939c4.398-30.166-0.261-59.513-10.825-87.928c-14.013-37.688-36.649-69.889-63.841-99.122
		c-0.324-0.349-0.759-0.596-1.821-1.412c0,2.851-0.003,5.171,0,7.492c0.067,52.097-11.765,101.558-33.035,148.919
		c-2.724,6.064-6.67,8.651-11.637,7.844c-5.605-0.911-8.298-4.052-9.255-11.069c-2.626-19.255-9.312-36.979-20.009-53.188
		c-1.316-1.994-2.854-3.842-5.041-6.764c-10.878,30.196-22.188,58.961-31.444,88.37c-4.768,15.149-5.989,31.493-1.529,47.396
		c6.119,21.813,19.058,39.191,35.728,54.11c2.38,2.13,4.898,4.643,6.051,7.502c2.833,7.024-2.976,14.67-10.283,12.888
		c-8.553-2.087-16.909-5.404-24.96-9.048c-27.75-12.562-51.984-29.831-70.495-54.424c-15.923-21.152-25.242-44.928-28.459-71.191
		c-4.572-37.33,2.641-72.84,16.5-107.284c13.887-34.516,33.234-66.225,51.335-98.556c17.81-31.813,34.619-64.111,46.396-98.692
		c5.882-17.274,10.457-35.004,15.245-52.63c1.411-5.191,3.302-9.553,8.207-12.144C215.92,3.06,217.9,3.06,219.88,3.06z
		 M222.861,33.221c-1.225,4.58-2.254,8.687-3.423,12.753c-12.262,42.66-30.719,82.649-52.083,121.421
		c-16.058,29.142-32.553,58.082-47.445,87.816c-16.422,32.788-26.155,67.47-23.993,104.786c2.188,37.78,17.696,68.79,46.349,93.28
		c5.482,4.686,11.514,8.73,17.291,13.07c-0.361-2.888-1.778-4.784-2.515-6.916c-3.587-10.38-8.557-20.589-10.145-31.288
		c-3.552-23.942,1.147-47.299,9.283-69.871c9.816-27.237,22.848-53.282,29.886-81.564c2.743-11.023,11.191-13.274,19.559-5.688
		c10.109,9.166,18.497,19.703,24.752,31.851c3.356,6.52,6.424,13.188,9.742,20.039c0.36-0.813,0.596-1.249,0.753-1.712
		c15.512-45.849,23.089-92.637,16.821-141.091c-0.987-7.638,0.732-11.51,5.8-13.82c5.862-2.673,10.007,0.437,14.002,4.233
		c19.784,18.795,37.948,39.011,53.563,61.427c25.643,36.815,43.678,76.627,47.476,121.955c3.568,42.588-6.331,81.749-30.009,117.381
		c-0.763,1.148-1.49,2.318-2.828,4.404c1.752-0.738,2.501-0.957,3.152-1.342c34.223-20.243,55.995-49.851,66.064-88.165
		c5.619-21.384,5.067-43.091,2.948-64.851c-2.396-24.62-8.642-48.282-18.14-71.062c-14.854-35.63-36.379-67.15-60.69-96.856
		c-34.345-41.966-72.957-79.854-112.365-116.966C225.609,35.45,224.45,34.562,222.861,33.221z"/>
	<path fill-rule="evenodd" clip-rule="evenodd" fill="#FFFFFF" d="M221.511,30.966c1.604,1.354,2.775,2.251,3.844,3.257
		c39.806,37.487,78.808,75.758,113.5,118.147c24.558,30.007,46.299,61.845,61.304,97.835c9.594,23.01,15.902,46.911,18.323,71.78
		c2.141,21.979,2.697,43.905-2.979,65.505c-10.171,38.702-32.163,68.608-66.731,89.056c-0.658,0.389-1.415,0.61-3.185,1.355
		c1.352-2.106,2.087-3.289,2.857-4.448c23.916-35.992,33.916-75.549,30.312-118.567c-3.836-45.785-22.054-85.999-47.955-123.187
		c-15.771-22.643-34.119-43.063-54.104-62.048c-4.036-3.834-8.222-6.976-14.144-4.275c-5.119,2.334-6.855,6.245-5.858,13.96
		c6.331,48.943-1.322,96.204-16.991,142.516c-0.158,0.468-0.396,0.908-0.761,1.729c-3.352-6.92-6.45-13.656-9.84-20.241
		c-6.318-12.271-14.791-22.914-25.002-32.173c-8.452-7.664-16.986-5.39-19.756,5.745c-7.109,28.568-20.272,54.876-30.188,82.389
		c-8.217,22.8-12.965,46.393-9.376,70.576c1.604,10.808,6.624,21.12,10.247,31.604c0.744,2.153,2.175,4.069,2.541,6.986
		c-5.836-4.384-11.928-8.47-17.466-13.203c-28.942-24.737-44.606-56.061-46.817-94.222c-2.184-37.692,7.647-72.726,24.235-105.845
		c15.043-30.035,31.704-59.267,47.924-88.703c21.58-39.163,40.223-79.557,52.609-122.647
		C219.235,39.74,220.274,35.592,221.511,30.966z"/>
</g>
<g display="none">
	<path fill-rule="evenodd" clip-rule="evenodd" fill="#FFFFFF" d="M223.5,513.5c-74.308,0-148.616,0-222.962,0
		c0-170.917,0-341.834,0-512.875c170.962,0,341.962,0,512.962,0c0,74.593,0,149.233,0,223.875c-2.101-5.85-6.581-8.124-12.463-9.01
		c-15.468-2.327-30.875-5.053-46.338-7.409c-3.38-0.515-5.071-1.718-5.971-5.234c-3.813-14.903-9.815-28.981-17.567-42.243
		c-1.877-3.211-1.384-5.219,0.561-7.938c9.297-13.004,18.45-26.11,27.6-39.219c4.93-7.061,4.53-11.559-1.534-17.646
		c-12.935-12.984-25.897-25.94-38.876-38.88c-6.634-6.612-10.848-6.973-18.361-1.592c-12.998,9.31-26.009,18.599-38.915,28.033
		c-2.413,1.764-4.18,2.253-7.029,0.589c-13.564-7.918-28.002-13.896-43.174-17.951c-3.097-0.827-4.327-2.276-4.826-5.27
		c-2.654-15.92-5.457-31.815-8.209-47.72c-1.438-8.312-5.129-11.491-13.512-11.502c-18.327-0.024-36.654-0.019-54.981-0.003
		c-9.693,0.008-12.878,2.957-14.421,12.73c-2.44,15.451-5.199,30.854-7.452,46.331c-0.538,3.695-2.394,4.62-5.423,5.813
		c-13.889,5.47-27.701,11.152-41.377,17.132c-3.032,1.325-4.996,1.84-7.91-0.306c-12.873-9.477-25.947-18.681-38.977-27.942
		c-7.418-5.272-11.709-4.967-18.008,1.305C83.228,69.615,70.138,82.679,57.091,95.786c-5.997,6.024-6.343,10.643-1.444,17.664
		c9.337,13.384,18.667,26.772,28.117,40.076c1.521,2.143,1.981,3.762,0.526,6.225c-8.164,13.824-14.054,28.619-18.592,44.004
		c-0.457,1.55-2.534,3.429-4.12,3.715c-15.883,2.869-31.813,5.481-47.746,8.072c-9.29,1.511-12.324,4.915-12.33,14.297
		c-0.011,18.16-0.017,36.321,0.002,54.481c0.009,9.276,2.91,12.618,11.896,14.168c15.741,2.716,31.455,5.593,47.21,8.224
		c3.245,0.542,4.389,2.132,5.568,5.141c5.625,14.361,11.576,28.604,17.778,42.726c1.184,2.694,1.193,4.293-0.478,6.593
		c-9.593,13.202-19.071,26.488-28.515,39.798c-5.003,7.05-4.597,11.469,1.526,17.617c13.051,13.104,26.122,26.187,39.233,39.229
		c6.081,6.049,10.607,6.408,17.644,1.505c13.389-9.329,26.778-18.659,40.092-28.095c2.122-1.504,3.753-2.028,6.231-0.562
		c13.817,8.178,28.613,14.063,43.999,18.601c1.557,0.459,3.446,2.533,3.736,4.122c2.842,15.55,5.54,31.131,7.917,46.758
		C216.225,505.929,218.16,510.644,223.5,513.5z"/>
	<path display="inline" fill-rule="evenodd" clip-rule="evenodd" d="M221.84,508.939c-5.287-2.827-7.202-7.495-8.074-13.222
		c-2.354-15.471-5.024-30.896-7.838-46.29c-0.288-1.573-2.158-3.627-3.699-4.081c-15.232-4.491-29.88-10.318-43.559-18.414
		c-2.454-1.452-4.068-0.934-6.169,0.556c-13.181,9.341-26.436,18.578-39.691,27.813c-6.967,4.854-11.447,4.499-17.467-1.489
		c-12.98-12.913-25.92-25.865-38.841-38.838c-6.062-6.087-6.464-10.462-1.511-17.44c9.35-13.177,18.733-26.33,28.229-39.4
		c1.654-2.276,1.645-3.859,0.473-6.526c-6.141-13.981-12.031-28.081-17.601-42.299c-1.167-2.979-2.3-4.553-5.512-5.089
		c-15.598-2.604-31.155-5.453-46.738-8.142c-8.896-1.534-11.768-4.843-11.777-14.026c-0.019-17.979-0.013-35.958-0.002-53.937
		c0.006-9.288,3.01-12.658,12.207-14.154c15.773-2.565,31.543-5.151,47.268-7.992c1.57-0.283,3.626-2.144,4.079-3.678
		c4.492-15.231,10.324-29.878,18.406-43.564c1.44-2.438,0.985-4.041-0.521-6.162c-9.355-13.171-18.592-26.425-27.836-39.675
		c-4.85-6.952-4.507-11.523,1.43-17.488c12.917-12.976,25.875-25.909,38.851-38.826c6.236-6.209,10.484-6.512,17.828-1.292
		c12.9,9.169,25.843,18.281,38.587,27.663c2.885,2.124,4.829,1.615,7.831,0.303c13.54-5.92,27.213-11.545,40.964-16.96
		c2.999-1.181,4.837-2.096,5.369-5.754c2.23-15.323,4.961-30.571,7.377-45.868c1.528-9.676,4.681-12.596,14.277-12.604
		c18.144-0.015,36.288-0.021,54.432,0.003c8.299,0.011,11.953,3.159,13.376,11.387c2.725,15.745,5.499,31.481,8.127,47.242
		c0.494,2.963,1.712,4.398,4.778,5.217c15.02,4.015,29.313,9.933,42.741,17.772c2.821,1.647,4.57,1.163,6.959-0.583
		c12.777-9.34,25.658-18.537,38.526-27.753c7.438-5.327,11.61-4.97,18.178,1.576c12.849,12.81,25.682,25.637,38.487,38.491
		c6.004,6.027,6.399,10.48,1.519,17.47c-9.058,12.977-18.119,25.953-27.323,38.827c-1.925,2.692-2.413,4.68-0.556,7.859
		c7.675,13.129,13.617,27.066,17.393,41.821c0.89,3.481,2.564,4.672,5.91,5.182c15.309,2.333,30.562,5.031,45.875,7.335
		c5.823,0.877,10.259,3.128,12.338,8.919c0,21.78,0,43.56,0,65.34c-2.739,5.043-7.085,7.191-12.692,8.08
		c-15.457,2.444-30.842,5.338-46.27,7.971c-2.748,0.47-4.073,1.66-4.845,4.543c-4.063,15.178-10.01,29.629-17.96,43.196
		c-1.405,2.399-1.185,3.94,0.408,6.115c9.349,12.771,18.536,25.658,27.765,38.518c5.792,8.071,5.503,11.987-1.445,18.956
		c-12.579,12.616-25.171,25.218-37.777,37.807c-6.683,6.673-10.695,6.981-18.623,1.444c-12.976-9.063-25.966-18.103-38.866-27.271
		c-2.281-1.621-3.986-1.98-6.601-0.438c-13.543,7.988-27.982,13.976-43.176,17.985c-3.187,0.841-4.151,2.503-4.636,5.326
		c-2.675,15.587-5.573,31.137-8.104,46.746c-0.927,5.714-3.429,9.775-8.938,11.792C265.4,508.939,243.62,508.939,221.84,508.939z
		 M488.679,276.949c0-13.925,0.076-27.59-0.155-41.251c-0.017-1.02-2.115-2.668-3.442-2.901
		c-15.254-2.682-30.522-5.296-45.838-7.597c-6.599-0.992-10.207-4.444-11.744-10.801c-4.448-18.39-11.645-35.668-21.637-51.743
		c-3.367-5.418-3.051-10.428,0.628-15.556c6.343-8.841,12.529-17.794,18.778-26.703c3.387-4.828,6.764-9.662,9.749-13.927
		c-10.554-10.59-20.659-20.731-30.995-31.102c-12.8,9.19-26.064,18.405-38.96,28.107c-6.118,4.604-11.617,4.929-18.069,0.926
		c-15.364-9.532-31.86-16.569-49.519-20.534c-7.789-1.748-11.151-6.358-12.333-13.921c-2.462-15.761-5.418-31.444-8.257-47.648
		c-13.258,0-26.26,0.128-39.256-0.083c-3.63-0.058-4.664,1.176-5.187,4.663c-2.275,15.152-5.043,30.229-7.375,45.373
		c-0.954,6.194-4.277,9.688-10.206,11.133c-18.542,4.521-35.989,11.711-52.242,21.73c-5.094,3.139-9.937,2.86-14.721-0.565
		c-4.692-3.359-9.385-6.717-14.082-10.07c-9.089-6.489-18.182-12.974-26.925-19.212c-10.467,10.486-20.573,20.609-30.932,30.986
		c0.656,1.006,1.508,2.396,2.438,3.729c8.493,12.168,16.844,24.438,25.57,36.437c4.115,5.658,4.495,10.931,0.825,16.826
		c-9.918,15.933-16.946,33.106-21.328,51.334c-1.509,6.281-5.309,9.379-11.558,10.372c-15.132,2.405-30.207,5.174-45.35,7.503
		c-3.335,0.514-4.389,1.659-4.324,4.965c0.188,9.563,0.066,19.134,0.065,28.702c0,3.574,0,7.147,0,10.854
		c16.207,2.852,31.729,5.887,47.358,8.206c8.117,1.204,12.624,5.048,14.427,13.053c3.866,17.174,10.641,33.261,19.988,48.145
		c4.33,6.895,3.705,12.605-1.036,18.964c-9.552,12.808-18.652,25.953-27.559,38.429c10.499,10.411,20.74,20.564,31.266,31.001
		c12.947-9.039,26.545-18.339,39.913-27.96c5.528-3.979,10.696-4.262,16.401-0.716c16.082,9.998,33.404,17.071,51.797,21.497
		c5.831,1.403,9.01,4.961,9.972,10.798c2.224,13.493,4.558,26.969,6.778,40.463c1.62,9.84,1.571,9.848,11.534,9.849
		c11.187,0,22.375,0,33.757,0c3.045-17.021,6.096-33.528,8.908-50.074c1.045-6.148,4.441-9.591,10.369-11.021
		c18.556-4.479,36.002-11.678,52.224-21.753c5.416-3.365,10.393-3.048,15.542,0.631c12.209,8.72,24.527,17.284,36.812,25.898
		c1.455,1.021,2.97,1.954,3.911,2.571c10.495-10.477,20.627-20.589,31.019-30.963c-9.083-12.627-18.179-25.771-27.836-38.488
		c-4.874-6.418-5.229-12.116-0.998-18.931c9.358-15.072,16.308-31.262,20.126-48.621c1.8-8.18,6.618-11.649,14.597-12.854
		C457.179,282.745,472.693,279.753,488.679,276.949z"/>
	<path fill-rule="evenodd" clip-rule="evenodd" fill="#FFFFFF" d="M289.5,513.5c5.564-2.037,8.092-6.14,9.027-11.911
		c2.558-15.768,5.484-31.475,8.187-47.219c0.489-2.852,1.464-4.53,4.683-5.38c15.348-4.05,29.933-10.098,43.612-18.167
		c2.641-1.558,4.362-1.194,6.667,0.443c13.03,9.261,26.152,18.393,39.259,27.547c8.008,5.593,12.062,5.281,18.812-1.459
		c12.733-12.716,25.452-25.445,38.158-38.188c7.019-7.039,7.311-10.995,1.46-19.147c-9.321-12.989-18.602-26.008-28.045-38.907
		c-1.608-2.196-1.832-3.753-0.412-6.177c8.03-13.704,14.037-28.302,18.142-43.633c0.779-2.911,2.117-4.114,4.894-4.589
		c15.583-2.659,31.124-5.582,46.736-8.052c5.664-0.896,10.054-3.067,12.821-8.161c0,74.333,0,148.667,0,223
		C438.833,513.5,364.167,513.5,289.5,513.5z"/>
	<path fill-rule="evenodd" clip-rule="evenodd" fill="#FFFFFF" d="M493.034,279.166c-16.146,2.832-31.818,5.854-47.587,8.231
		c-8.06,1.216-12.927,4.721-14.744,12.983c-3.857,17.534-10.877,33.888-20.329,49.111c-4.273,6.884-3.915,12.64,1.008,19.122
		c9.755,12.847,18.942,26.123,28.117,38.877c-10.497,10.479-20.73,20.693-31.332,31.275c-0.951-0.623-2.48-1.566-3.95-2.597
		c-12.408-8.701-24.852-17.353-37.184-26.16c-5.201-3.716-10.229-4.036-15.699-0.638c-16.385,10.178-34.008,17.448-52.751,21.973
		c-5.987,1.445-9.418,4.923-10.474,11.133c-2.842,16.714-5.923,33.387-8.998,50.58c-11.498,0-22.799,0-34.099,0
		c-10.063-0.001-10.014-0.009-11.65-9.948c-2.243-13.63-4.6-27.241-6.847-40.871c-0.972-5.896-4.184-9.489-10.073-10.907
		c-18.579-4.471-36.077-11.615-52.321-21.714c-5.763-3.582-10.983-3.297-16.566,0.723c-13.502,9.719-27.238,19.112-40.316,28.243
		c-10.632-10.542-20.976-20.798-31.582-31.314c8.998-12.602,18.189-25.88,27.837-38.817c4.789-6.422,5.419-12.19,1.046-19.155
		c-9.441-15.034-16.285-31.283-20.19-48.631c-1.821-8.086-6.373-11.969-14.572-13.185c-15.787-2.342-31.466-5.408-47.837-8.288
		c0-3.744,0-7.354,0-10.964c0-9.665,0.124-19.332-0.066-28.992c-0.066-3.339,0.999-4.496,4.367-5.015
		c15.296-2.353,30.523-5.15,45.809-7.579c6.312-1.003,10.149-4.132,11.674-10.477c4.426-18.412,11.525-35.759,21.543-51.853
		c3.707-5.955,3.323-11.281-0.833-16.996c-8.814-12.119-17.25-24.514-25.828-36.805c-0.94-1.347-1.801-2.75-2.463-3.767
		c10.463-10.481,20.671-20.707,31.244-31.299c8.832,6.302,18.016,12.852,27.197,19.406c4.744,3.387,9.485,6.778,14.225,10.172
		c4.833,3.46,9.724,3.741,14.869,0.57c16.417-10.12,34.041-17.382,52.77-21.949c5.988-1.46,9.345-4.988,10.309-11.245
		c2.355-15.297,5.152-30.526,7.45-45.831c0.529-3.522,1.573-4.769,5.24-4.71c13.127,0.213,26.261,0.083,39.653,0.083
		c2.867,16.368,5.853,32.21,8.34,48.13c1.193,7.639,4.59,12.296,12.457,14.062c17.837,4.005,34.5,11.113,50.02,20.741
		c6.517,4.043,12.071,3.715,18.251-0.936c13.026-9.801,26.425-19.108,39.354-28.392c10.44,10.476,20.648,20.719,31.309,31.416
		c-3.016,4.308-6.427,9.19-9.848,14.067c-6.312,8.999-12.561,18.042-18.968,26.973c-3.716,5.18-4.035,10.24-0.634,15.713
		c10.093,16.237,17.361,33.69,21.854,52.266c1.553,6.421,5.198,9.908,11.863,10.91c15.47,2.324,30.893,4.965,46.301,7.674
		c1.341,0.235,3.46,1.9,3.478,2.931C493.111,251.297,493.034,265.101,493.034,279.166z M400.741,257.664
		c0.257-79.002-63.989-143.34-143.2-143.405c-78.989-0.064-142.621,63.363-143.282,142.822
		c-0.656,78.749,63.476,143.199,142.95,143.66C336.077,401.198,400.482,336.996,400.741,257.664z"/>
	<path display="inline" fill-rule="evenodd" clip-rule="evenodd" d="M397.309,255.662c-0.256,78.539-64.018,142.099-142.098,141.646
		c-78.679-0.456-142.168-64.262-141.52-142.224c0.655-78.665,63.65-141.458,141.85-141.394
		C333.959,113.756,397.563,177.45,397.309,255.662z M377.175,255.635c0.185-66.716-54.378-121.458-121.414-121.81
		c-66.628-0.35-121.415,54.145-121.936,121.288c-0.518,66.675,54.668,122.042,121.662,122.063
		C322.286,377.194,376.989,322.558,377.175,255.635z"/>
	<path fill-rule="evenodd" clip-rule="evenodd" fill="#FFFFFF" d="M380.404,257.637c-0.188,67.599-55.443,122.787-122.918,122.768
		c-67.67-0.021-123.414-55.947-122.891-123.296c0.527-67.821,55.867-122.866,123.168-122.513
		C325.477,134.952,380.591,190.246,380.404,257.637z M329.218,257.477c-0.033-39.351-31.982-71.393-71.487-71.694
		c-39.304-0.3-71.981,32.281-71.948,71.735c0.033,39.33,32.011,71.402,71.49,71.7C296.574,329.514,329.25,296.93,329.218,257.477z"
		/>
	<path display="inline" fill-rule="evenodd" clip-rule="evenodd" d="M326.5,255.477c0.032,39.059-32.316,71.316-71.226,71.023
		c-39.084-0.295-70.742-32.046-70.775-70.982c-0.033-39.06,32.318-71.315,71.229-71.019
		C294.838,184.798,326.467,216.52,326.5,255.477z M255.334,306.078c28.075,0.062,50.674-22.39,50.744-50.41
		c0.069-28.059-22.4-50.676-50.412-50.746c-28.054-0.071-50.68,22.407-50.744,50.414
		C204.857,283.403,227.321,306.016,255.334,306.078z"/>
	<path fill-rule="evenodd" clip-rule="evenodd" fill="#FFFFFF" d="M257.332,308.589c-28.295-0.063-50.986-22.903-50.921-51.255
		c0.065-28.289,22.919-50.994,51.257-50.923c28.295,0.071,50.991,22.917,50.921,51.259
		C308.519,285.974,285.691,308.651,257.332,308.589z"/>
</g>
</svg>
