<?xml version="1.0" encoding="utf-8"?>
<!-- Generator: Adobe Illustrator 17.0.0, SVG Export Plug-In . SVG Version: 6.00 Build 0)  -->
<!DOCTYPE svg PUBLIC "-//W3C//DTD SVG 1.1//EN" "http://www.w3.org/Graphics/SVG/1.1/DTD/svg11.dtd">
<svg version="1.1" id="Layer_1" xmlns="http://www.w3.org/2000/svg" xmlns:xlink="http://www.w3.org/1999/xlink" x="0px" y="0px"
	 width="512px" height="512px" viewBox="0 0 512 512" enable-background="new 0 0 512 512" xml:space="preserve">
<g>
	<line fill="none" stroke="#B35047" x1="32" y1="0" x2="32" y2="512"/>
	<line fill="none" stroke="#B35047" x1="64" y1="0" x2="64" y2="512"/>
	<line fill="none" stroke="#B35047" x1="96" y1="0" x2="96" y2="512"/>
	<line fill="none" stroke="#B35047" x1="128" y1="0" x2="128" y2="512"/>
	<line fill="none" stroke="#B35047" x1="160" y1="0" x2="160" y2="512"/>
	<line fill="none" stroke="#B35047" x1="192" y1="0" x2="192" y2="512"/>
	<line fill="none" stroke="#B35047" x1="224" y1="0" x2="224" y2="512"/>
	<line fill="none" stroke="#B35047" x1="256" y1="0" x2="256" y2="512"/>
	<line fill="none" stroke="#B35047" x1="288" y1="0" x2="288" y2="512"/>
	<line fill="none" stroke="#B35047" x1="320" y1="0" x2="320" y2="512"/>
	<line fill="none" stroke="#B35047" x1="352" y1="0" x2="352" y2="512"/>
	<line fill="none" stroke="#B35047" x1="384" y1="0" x2="384" y2="512"/>
	<line fill="none" stroke="#B35047" x1="416" y1="0" x2="416" y2="512"/>
	<line fill="none" stroke="#B35047" x1="448" y1="0" x2="448" y2="512"/>
	<line fill="none" stroke="#B35047" x1="480" y1="0" x2="480" y2="512"/>
	<line fill="none" stroke="#B35047" x1="0" y1="32" x2="512" y2="32"/>
	<line fill="none" stroke="#B35047" x1="0" y1="64" x2="512" y2="64"/>
	<line fill="none" stroke="#B35047" x1="0" y1="96" x2="512" y2="96"/>
	<line fill="none" stroke="#B35047" x1="0" y1="128" x2="512" y2="128"/>
	<line fill="none" stroke="#B35047" x1="0" y1="160" x2="512" y2="160"/>
	<line fill="none" stroke="#B35047" x1="0" y1="192" x2="512" y2="192"/>
	<line fill="none" stroke="#B35047" x1="0" y1="224" x2="512" y2="224"/>
	<line fill="none" stroke="#B35047" x1="0" y1="256" x2="512" y2="256"/>
	<line fill="none" stroke="#B35047" x1="0" y1="288" x2="512" y2="288"/>
	<line fill="none" stroke="#B35047" x1="0" y1="320" x2="512" y2="320"/>
	<line fill="none" stroke="#B35047" x1="0" y1="352" x2="512" y2="352"/>
	<line fill="none" stroke="#B35047" x1="0" y1="384" x2="512" y2="384"/>
	<line fill="none" stroke="#B35047" x1="0" y1="416" x2="512" y2="416"/>
	<line fill="none" stroke="#B35047" x1="0" y1="448" x2="512" y2="448"/>
	<line fill="none" stroke="#B35047" x1="0" y1="480" x2="512" y2="480"/>
	<rect x="0" fill="none" stroke="#B35047" width="512" height="512"/>
</g>
<image display="none" overflow="visible" width="512" height="512" xlink:href="../../../Knowledge/Icon/[+++++] (Full) iOS7 icons [icons8]/Very_Basic/scales_of_Balance/scales_of_Balance-512.png"  transform="matrix(1 0 0 1 -1.525879e-005 0)">
</image>
<image display="none" overflow="visible" width="512" height="512" xlink:href="../../../Knowledge/Icon/[+++++] (Full) iOS7 icons [icons8]/Very_Basic/reload/reload-512.png"  transform="matrix(1 0 0 1 -1.525879e-005 0)">
</image>
<image display="none" overflow="visible" width="512" height="512" xlink:href="../../../Knowledge/Icon/[+++++] (Full) iOS7 icons [icons8]/Very_Basic/recycle_sign/recycle_sign-512.png"  transform="matrix(1 0 0 1 -1.525879e-005 0)">
</image>
<image display="none" overflow="visible" width="512" height="512" xlink:href="../../../Knowledge/Icon/[+++++] (Full) iOS7 icons [icons8]/Very_Basic/puzzle/puzzle-512.png"  transform="matrix(1 0 0 1 -1.525879e-005 0)">
</image>
<image display="none" overflow="visible" width="512" height="512" xlink:href="../../../Knowledge/Icon/[+++++] (Full) iOS7 icons [icons8]/Very_Basic/presentation/presentation-512.png"  transform="matrix(1 0 0 1 -1.525879e-005 0)">
</image>
<image display="none" overflow="visible" width="512" height="512" xlink:href="../../../Knowledge/Icon/[+++++] (Full) iOS7 icons [icons8]/Very_Basic/plugin/plugin-512.png"  transform="matrix(1 0 0 1 -1.525879e-005 0)">
</image>
<image display="none" overflow="visible" width="512" height="512" xlink:href="../../../Knowledge/Icon/[+++++] (Full) iOS7 icons [icons8]/Very_Basic/plus/plus-512.png"  transform="matrix(1 0 0 1 -1.525879e-005 0)">
</image>
<image display="none" overflow="visible" width="512" height="512" xlink:href="../../../Knowledge/Icon/[+++++] (Full) iOS7 icons [icons8]/Very_Basic/picture/picture-512.png"  transform="matrix(1 0 0 1 -1.525879e-005 0)">
</image>
<image display="none" overflow="visible" width="512" height="512" xlink:href="../../../Knowledge/Icon/[+++++] (Full) iOS7 icons [icons8]/Very_Basic/paper_clip/paper_clip-512.png"  transform="matrix(1 0 0 1 -1.525879e-005 0)">
</image>
<image display="none" overflow="visible" width="512" height="512" xlink:href="../../../Knowledge/Icon/[+++++] (Full) iOS7 icons [icons8]/Very_Basic/opened_folder/opened_folder-512.png"  transform="matrix(1 0 0 1 -1.525879e-005 0)">
</image>
<image display="none" overflow="visible" width="512" height="512" xlink:href="../../../Knowledge/Icon/[+++++] (Full) iOS7 icons [icons8]/Very_Basic/no_smoking/no_smoking-512.png"  transform="matrix(1 0 0 1 -1.525879e-005 0)">
</image>
<image display="none" overflow="visible" width="512" height="512" xlink:href="../../../Knowledge/Icon/[+++++] (Full) iOS7 icons [icons8]/Very_Basic/not_listen/not_listen-512.png"  transform="matrix(1 0 0 1 -1.525879e-005 0)">
</image>
<image display="none" overflow="visible" width="512" height="512" xlink:href="../../../Knowledge/Icon/[+++++] (Full) iOS7 icons [icons8]/Very_Basic/minus/minus-512.png"  transform="matrix(1 0 0 1 -1.525879e-005 0)">
</image>
<image display="none" overflow="visible" width="512" height="512" xlink:href="../../../Knowledge/Icon/[+++++] (Full) iOS7 icons [icons8]/Very_Basic/megaphone/megaphone-512.png"  transform="matrix(1 0 0 1 -1.525879e-005 0)">
</image>
<image display="none" overflow="visible" width="512" height="512" xlink:href="../../../Knowledge/Icon/[+++++] (Full) iOS7 icons [icons8]/Very_Basic/megaphone2/megaphone2-512.png"  transform="matrix(1 0 0 1 -1.525879e-005 0)">
</image>
<image display="none" overflow="visible" width="512" height="512" xlink:href="../../../Knowledge/Icon/[+++++] (Full) iOS7 icons [icons8]/Very_Basic/message/message-512.png"  transform="matrix(1 0 0 1 -1.525879e-005 0)">
</image>
<image display="none" overflow="visible" width="512" height="512" xlink:href="../../../Knowledge/Icon/[+++++] (Full) iOS7 icons [icons8]/Very_Basic/male/male-512.png"  transform="matrix(1 0 0 1 -1.525879e-005 0)">
</image>
<image display="none" overflow="visible" width="512" height="512" xlink:href="../../../Knowledge/Icon/[+++++] (Full) iOS7 icons [icons8]/Very_Basic/lock/lock-512.png"  transform="matrix(1 0 0 1 -1.525879e-005 0)">
</image>
<image display="none" overflow="visible" width="512" height="512" xlink:href="../../../Knowledge/Icon/[+++++] (Full) iOS7 icons [icons8]/Very_Basic/listen/listen-512.png"  transform="matrix(1 0 0 1 -1.525879e-005 0)">
</image>
<image display="none" overflow="visible" width="512" height="512" xlink:href="../../../Knowledge/Icon/[+++++] (Full) iOS7 icons [icons8]/Very_Basic/key/key-512.png"  transform="matrix(1 0 0 1 -1.525879e-005 0)">
</image>
<image display="none" overflow="visible" width="512" height="512" xlink:href="../../../Knowledge/Icon/[+++++] (Full) iOS7 icons [icons8]/Very_Basic/info/info-512.png"  transform="matrix(1 0 0 1 -1.525879e-005 0)">
</image>
<image display="none" overflow="visible" width="512" height="512" xlink:href="../../../Knowledge/Icon/[+++++] (Full) iOS7 icons [icons8]/Very_Basic/idea/idea-512.png"  transform="matrix(1 0 0 1 -1.525879e-005 0)">
</image>
<image display="none" overflow="visible" width="512" height="512" xlink:href="../../../Knowledge/Icon/[+++++] (Full) iOS7 icons [icons8]/Very_Basic/home/home-512.png"  transform="matrix(1 0 0 1 -1.525879e-005 0)">
</image>
<image display="none" overflow="visible" width="512" height="512" xlink:href="../../../Knowledge/Icon/[+++++] (Full) iOS7 icons [icons8]/Very_Basic/help2/help2-512.png"  transform="matrix(1 0 0 1 -1.525879e-005 0)">
</image>
<image display="none" overflow="visible" width="512" height="512" xlink:href="../../../Knowledge/Icon/[+++++] (Full) iOS7 icons [icons8]/Very_Basic/help/help-512.png"  transform="matrix(1 0 0 1 -1.525879e-005 0)">
</image>
<image display="none" overflow="visible" width="512" height="512" xlink:href="../../../Knowledge/Icon/[+++++] (Full) iOS7 icons [icons8]/Very_Basic/glasses/glasses-512.png"  transform="matrix(1 0 0 1 -1.525879e-005 0)">
</image>
<image display="none" overflow="visible" width="512" height="512" xlink:href="../../../Knowledge/Icon/[+++++] (Full) iOS7 icons [icons8]/Very_Basic/folder/folder-512.png"  transform="matrix(1 0 0 1 -1.525879e-005 0)">
</image>
<image display="none" overflow="visible" width="512" height="512" xlink:href="../../../Knowledge/Icon/[+++++] (Full) iOS7 icons [icons8]/Very_Basic/flag/flag-512.png"  transform="matrix(1 0 0 1 -1.525879e-005 0)">
</image>
<image display="none" overflow="visible" width="512" height="512" xlink:href="../../../Knowledge/Icon/[+++++] (Full) iOS7 icons [icons8]/Very_Basic/flash_light/flash_light-512.png"  transform="matrix(1 0 0 1 -1.525879e-005 0)">
</image>
<image display="none" overflow="visible" width="512" height="512" xlink:href="../../../Knowledge/Icon/[+++++] (Full) iOS7 icons [icons8]/Very_Basic/filter/filter-512.png"  transform="matrix(1 0 0 1 -1.525879e-005 0)">
</image>
<image display="none" overflow="visible" width="512" height="512" xlink:href="../../../Knowledge/Icon/[+++++] (Full) iOS7 icons [icons8]/Very_Basic/female/female-512.png"  transform="matrix(1 0 0 1 -1.525879e-005 0)">
</image>
<image display="none" overflow="visible" width="512" height="512" xlink:href="../../../Knowledge/Icon/[+++++] (Full) iOS7 icons [icons8]/Very_Basic/download/download-512.png"  transform="matrix(1 0 0 1 -1.525879e-005 0)">
</image>
<image display="none" overflow="visible" width="512" height="512" xlink:href="../../../Knowledge/Icon/[+++++] (Full) iOS7 icons [icons8]/Very_Basic/document/document-512.png"  transform="matrix(1 0 0 1 -1.525879e-005 0)">
</image>
<image display="none" overflow="visible" width="512" height="512" xlink:href="../../../Knowledge/Icon/[+++++] (Full) iOS7 icons [icons8]/Very_Basic/design/design-512.png"  transform="matrix(1 0 0 1 -1.525879e-005 0)">
</image>
<image display="none" overflow="visible" width="512" height="512" xlink:href="../../../Knowledge/Icon/[+++++] (Full) iOS7 icons [icons8]/Very_Basic/copy/copy-512.png"  transform="matrix(1 0 0 1 -1.525879e-005 0)">
</image>
<image display="none" overflow="visible" width="512" height="512" xlink:href="../../../Knowledge/Icon/[+++++] (Full) iOS7 icons [icons8]/Very_Basic/code/code-512.png"  transform="matrix(1 0 0 1 -1.525879e-005 0)">
</image>
<image display="none" overflow="visible" width="512" height="512" xlink:href="../../../Knowledge/Icon/[+++++] (Full) iOS7 icons [icons8]/Very_Basic/briefcase/briefcase-512.png"  transform="matrix(1 0 0 1 -1.525879e-005 0)">
</image>
<image display="none" overflow="visible" width="512" height="512" xlink:href="../../../Knowledge/Icon/[+++++] (Full) iOS7 icons [icons8]/Very_Basic/brain/brain-512.png"  transform="matrix(1 0 0 1 -1.525879e-005 0)">
</image>
<image display="none" overflow="visible" width="512" height="512" xlink:href="../../../Knowledge/Icon/[+++++] (Full) iOS7 icons [icons8]/Very_Basic/bluetooth/bluetooth-512.png"  transform="matrix(1 0 0 1 -1.525879e-005 0)">
</image>
<image display="none" overflow="visible" width="512" height="512" xlink:href="../../../Knowledge/Icon/[+++++] (Full) iOS7 icons [icons8]/Very_Basic/bookmark/bookmark-512.png"  transform="matrix(1 0 0 1 -1.525879e-005 0)">
</image>
<image display="none" overflow="visible" width="512" height="512" xlink:href="../../../Knowledge/Icon/[+++++] (Full) iOS7 icons [icons8]/Very_Basic/archive/archive-512.png"  transform="matrix(1 0 0 1 -1.525879e-005 0)">
</image>
<image display="none" overflow="visible" width="512" height="512" xlink:href="../../../Knowledge/Icon/[+++++] (Full) iOS7 icons [icons8]/Very_Basic/wifi/wifi-512.png"  transform="matrix(1 0 0 1 -1.525879e-005 0)">
</image>
<image display="none" overflow="visible" width="512" height="512" xlink:href="../../../Knowledge/Icon/[+++++] (Full) iOS7 icons [icons8]/Very_Basic/upload/upload-512.png"  transform="matrix(1 0 0 1 -1.525879e-005 0)">
</image>
<image display="none" overflow="visible" width="512" height="512" xlink:href="../../../Knowledge/Icon/[+++++] (Full) iOS7 icons [icons8]/Very_Basic/update/update-512.png"  transform="matrix(1 0 0 1 -1.525879e-005 0)">
</image>
<image display="none" overflow="visible" width="512" height="512" xlink:href="../../../Knowledge/Icon/[+++++] (Full) iOS7 icons [icons8]/Very_Basic/unlock/unlock-512.png"  transform="matrix(1 0 0 1 -1.525879e-005 0)">
</image>
<image display="none" overflow="visible" width="512" height="512" xlink:href="../../../Knowledge/Icon/[+++++] (Full) iOS7 icons [icons8]/Very_Basic/umbrella/umbrella-512.png"  transform="matrix(1 0 0 1 -1.525879e-005 0)">
</image>
<image display="none" overflow="visible" width="512" height="512" xlink:href="../../../Knowledge/Icon/[+++++] (Full) iOS7 icons [icons8]/Very_Basic/toolbox/toolbox-512.png"  transform="matrix(1 0 0 1 -1.525879e-005 0)">
</image>
<image display="none" overflow="visible" width="512" height="512" xlink:href="../../../Knowledge/Icon/[+++++] (Full) iOS7 icons [icons8]/Very_Basic/tones/tones-512.png"  transform="matrix(1 0 0 1 -1.525879e-005 0)">
</image>
<image display="none" overflow="visible" width="512" height="512" xlink:href="../../../Knowledge/Icon/[+++++] (Full) iOS7 icons [icons8]/Very_Basic/student/student-512.png"  transform="matrix(1 0 0 1 -1.525879e-005 0)">
</image>
<image display="none" overflow="visible" width="512" height="512" xlink:href="../../../Knowledge/Icon/[+++++] (Full) iOS7 icons [icons8]/Very_Basic/speech_bubble/speech_bubble-512.png"  transform="matrix(1 0 0 1 -1.525879e-005 0)">
</image>
<image display="none" overflow="visible" width="512" height="512" xlink:href="../../../Knowledge/Icon/[+++++] (Full) iOS7 icons [icons8]/Very_Basic/smoking/smoking-512.png"  transform="matrix(1 0 0 1 -1.525879e-005 0)">
</image>
<image display="none" overflow="visible" width="512" height="512" xlink:href="../../../Knowledge/Icon/[+++++] (Full) iOS7 icons [icons8]/Very_Basic/settings2/settings2-512.png"  transform="matrix(1 0 0 1 -1.525879e-005 0)">
</image>
<image display="none" overflow="visible" width="512" height="512" xlink:href="../../../Knowledge/Icon/[+++++] (Full) iOS7 icons [icons8]/Very_Basic/settings/settings-512.png"  transform="matrix(1 0 0 1 -1.525879e-005 0)">
</image>
<image display="none" overflow="visible" width="512" height="512" xlink:href="../../../Knowledge/Icon/[+++++] (Full) iOS7 icons [icons8]/Very_Basic/zoom_in/zoom_in-512.png"  transform="matrix(1 0 0 1 -1.525879e-005 0)">
</image>
<image display="none" overflow="visible" width="512" height="512" xlink:href="../../../Knowledge/Icon/[+++++] (Full) iOS7 icons [icons8]/Very_Basic/zoom_out/zoom_out-512.png"  transform="matrix(1 0 0 1 -1.525879e-005 0)">
</image>
<g>
	<path display="none" fill="#FFFFFF" d="M513.35,513.5c-170.883,0-341.841,0-512.825,0c0-170.942,0-341.883,0-512.912
		c170.875,0,341.775,0,512.825,0C513.35,171.5,513.35,342.5,513.35,513.5z M318.502,347.566
		c44.693,44.694,89.434,89.436,133.66,133.663c9.828-9.83,19.321-19.324,29.021-29.026c-21.791-21.785-43.94-43.927-66.087-66.071
		c-22.111-22.107-44.22-44.215-66.287-66.278c66.057-79.669,49.503-188.702-20.766-247.186
		c-66.95-55.721-167.386-55.019-233.484,9.601c-62.054,60.665-71.293,161.008-13.441,233.254
		C134.926,382.72,236.565,404.602,318.502,347.566z"/>
	<path d="M320.378,359.168c-93.074,64.789-208.529,39.933-269.653-36.399c-65.716-82.067-55.221-196.049,15.268-264.96
		c75.083-73.403,189.172-74.201,265.222-10.906c79.82,66.433,98.625,190.288,23.589,280.786
		c25.066,25.063,50.181,50.176,75.298,75.288c25.158,25.153,50.318,50.305,75.07,75.052c-11.018,11.02-21.802,21.805-32.966,32.971
		C421.969,460.761,371.147,409.938,320.378,359.168z M204.324,24.189C107.9,24.741,29.697,103.2,30.162,198.921
		c0.469,96.56,78.637,174.437,174.628,174.104c96.32-0.334,174.337-77.643,174.083-174.571
		C378.617,100.644,300.431,24.887,204.324,24.189z"/>
	<path display="none" fill="#FFFFFF" d="M216.335,52.672c84.606,0.614,153.436,67.306,153.662,153.412
		c0.223,85.329-68.458,153.387-153.252,153.681c-84.504,0.293-153.318-68.265-153.731-153.27
		C62.605,122.228,131.45,53.158,216.335,52.672z"/>
</g>
<g display="none">
	<path fill="#FFFFFF" d="M513.5,288.5c0,75,0,150,0,225c-171,0-342,0-513,0c0-171,0-342,0-513c171,0,342,0,513,0
		c0,89.667,0,179.333,0,269c-0.313-0.922-0.761-1.821-0.918-2.769c-5.93-35.969-25.935-60.543-59.94-73.524
		c-6.29-2.401-13.046-3.584-19.564-5.323c1.363-67.127-41.135-118.143-93.687-133.019c-70.943-20.081-124.362,5.92-162.397,67.685
		c-0.578-0.307-1.447-0.756-2.305-1.228c-25.02-13.773-50.058-13.804-74.426,1.104c-18.788,11.494-29.68,28.694-32.94,50.596
		c-0.401,2.692-0.537,5.126-3.974,6.611C15.176,200.442-8.03,248.451,5.505,298.845c10.346,38.52,47.576,69.221,87.519,70.656
		c30.124,1.082,60.306,0.541,90.463,0.662c1.802,0.007,3.677-0.302,5.396-0.849c4.256-1.354,6.602-4.496,6.859-8.869
		c0.259-4.39-1.744-7.901-5.84-9.538c-2.388-0.955-5.174-1.254-7.783-1.263c-26.329-0.087-52.66,0.032-78.988-0.119
		c-5.968-0.034-12.042-0.321-17.879-1.458c-34.01-6.629-60.4-36.513-62.94-69.407c-3.147-40.763,22.713-72.213,54.238-82.188
		c8.268-2.616,10.23-5.33,10.538-14.053c0.715-20.218,9.984-35.348,27.734-44.837c18.843-10.073,41.626-6.88,57.689,7.424
		c6.142,5.469,11.98,6.303,16.275,1.646c2.166-2.348,3.319-5.685,4.723-8.673c20.237-43.054,53.925-67.111,101.543-69.125
		c36.627-1.549,67.354,12.852,90.963,40.942c19.971,23.762,28.539,51.605,25.952,82.593c-0.959,11.491,2.281,15.774,13.765,16.111
		c41.113,1.205,73.373,40.694,66.407,81.285c-6.04,35.197-34.299,59.466-70.08,59.751c-29.661,0.237-59.325-0.011-88.987,0.146
		c-3.197,0.017-6.782,0.61-9.491,2.155c-4.198,2.394-5.198,6.739-3.824,11.371c1.326,4.469,5.654,6.974,12.058,6.981
		c29.829,0.03,59.66,0.227,89.487-0.041c40.832-0.368,74.115-24.057,87.221-61.929C510.733,301.836,511.868,295.082,513.5,288.5z
		 M247.332,447.525c-2.009-1.841-3.22-2.87-4.341-3.988c-9.199-9.18-18.38-18.379-27.571-27.568
		c-3.618-3.616-7.689-5.994-12.925-3.77c-7.288,3.095-8.34,11.388-2.112,17.659c18.317,18.442,36.733,36.786,55.118,55.161
		c0.565,0.565,1.216,1.044,1.844,1.577c0.608-0.37,1.086-0.549,1.415-0.878c18.749-18.717,37.532-37.401,56.15-56.248
		c1.745-1.766,3.044-4.455,3.499-6.91c0.841-4.539-1.19-8.134-5.438-10.167c-4.681-2.241-8.835-0.804-12.283,2.534
		c-6.943,6.72-13.769,13.566-20.502,20.496c-3.776,3.887-7.271,8.049-10.892,12.086c-0.542-0.345-1.084-0.69-1.626-1.036
		c0-1.759,0-3.518,0-5.277c0-56.318,0.012-112.636-0.037-168.954c-0.002-2.629-0.127-5.393-0.922-7.861
		c-2.192-6.808-10.864-9.219-15.537-3.892c-2.329,2.656-3.668,7.093-3.682,10.731c-0.223,56.65-0.156,113.302-0.157,169.953
		C247.333,442.927,247.332,444.682,247.332,447.525z"/>
	<path display="inline" d="M511,277.063c-1.626,6.559-2.758,13.288-4.958,19.648c-13.06,37.738-46.225,61.343-86.913,61.71
		c-29.721,0.268-59.447,0.072-89.17,0.041c-6.381-0.007-10.693-2.502-12.015-6.956c-1.37-4.615-0.373-8.945,3.81-11.33
		c2.7-1.54,6.271-2.131,9.457-2.148c29.557-0.156,59.116,0.09,88.672-0.145c35.654-0.284,63.813-24.468,69.832-59.54
		c6.942-40.448-25.204-79.796-66.172-80.997c-11.444-0.336-14.673-4.604-13.717-16.054c2.578-30.878-5.96-58.622-25.86-82.3
		C360.441,71,329.823,56.65,293.325,58.194c-47.45,2.007-81.018,25.979-101.183,68.881c-1.399,2.977-2.548,6.302-4.707,8.642
		c-4.28,4.64-10.097,3.81-16.217-1.64c-16.006-14.254-38.708-17.436-57.484-7.398c-17.687,9.455-26.923,24.531-27.636,44.678
		c-0.307,8.692-2.262,11.396-10.501,14.003c-31.414,9.94-57.182,41.279-54.046,81.897c2.531,32.778,28.828,62.556,62.717,69.162
		c5.816,1.134,11.869,1.419,17.816,1.453c26.236,0.15,52.473,0.031,78.709,0.118c2.6,0.009,5.376,0.307,7.755,1.259
		c4.082,1.632,6.077,5.13,5.819,9.504c-0.257,4.358-2.594,7.488-6.835,8.837c-1.713,0.545-3.581,0.853-5.377,0.846
		c-30.05-0.12-60.125,0.419-90.142-0.659c-39.802-1.43-76.9-32.022-87.209-70.406c-13.487-50.215,9.637-98.054,57.64-118.789
		c3.425-1.479,3.56-3.905,3.96-6.587c3.249-21.825,14.102-38.964,32.824-50.417c24.282-14.855,49.232-14.823,74.163-1.1
		c0.854,0.47,1.721,0.918,2.296,1.224c37.9-61.547,91.13-87.456,161.822-67.445c52.366,14.823,94.713,65.658,93.355,132.548
		c6.495,1.733,13.227,2.911,19.495,5.304c33.884,12.935,53.819,37.422,59.728,73.263c0.156,0.944,0.603,1.84,0.914,2.759
		C511,264.441,511,270.752,511,277.063z"/>
	<path display="inline" d="M245.775,435.524c0-2.833,0-4.581,0-6.33c0-56.451-0.067-112.902,0.156-169.352
		c0.014-3.625,1.348-8.046,3.669-10.693c4.656-5.308,13.298-2.905,15.482,3.878c0.792,2.459,0.916,5.213,0.918,7.833
		c0.049,56.119,0.037,112.237,0.037,168.356c0,1.753,0,3.505,0,5.258c0.54,0.344,1.08,0.688,1.621,1.032
		c3.609-4.023,7.091-8.17,10.854-12.044c6.709-6.906,13.511-13.727,20.43-20.424c3.436-3.326,7.575-4.757,12.24-2.525
		c4.233,2.026,6.257,5.608,5.419,10.131c-0.453,2.446-1.748,5.125-3.487,6.885c-18.552,18.78-37.268,37.398-55.951,56.049
		c-0.328,0.327-0.805,0.506-1.41,0.875c-0.625-0.531-1.274-1.008-1.837-1.571c-18.32-18.31-36.67-36.589-54.923-54.966
		c-6.206-6.248-5.158-14.512,2.104-17.596c5.218-2.216,9.275,0.153,12.879,3.757c9.159,9.156,18.307,18.322,27.474,27.47
		C242.566,432.665,243.772,433.69,245.775,435.524z"/>
</g>
<g display="none">
	<path fill="#FFFFFF" d="M513.5,288.5c0,75,0,150,0,225c-171,0-342,0-513,0c0-171,0-342,0-513c171,0,342,0,513,0
		c0,89.667,0,179.333,0,269c-0.313-0.922-0.761-1.821-0.918-2.769c-5.93-35.969-25.935-60.543-59.94-73.524
		c-6.29-2.401-13.046-3.584-19.564-5.323c1.363-67.127-41.135-118.143-93.687-133.019c-70.943-20.081-124.362,5.92-162.397,67.685
		c-0.578-0.307-1.447-0.756-2.305-1.228c-25.02-13.773-50.058-13.804-74.426,1.104c-18.788,11.494-29.68,28.694-32.94,50.596
		c-0.401,2.692-0.537,5.126-3.974,6.611C15.176,200.442-8.03,248.451,5.505,298.845c10.346,38.52,47.576,69.221,87.519,70.656
		c30.124,1.082,60.306,0.541,90.463,0.662c1.802,0.007,3.677-0.302,5.396-0.849c4.256-1.354,6.602-4.496,6.859-8.869
		c0.259-4.39-1.744-7.901-5.84-9.538c-2.388-0.955-5.174-1.254-7.783-1.263c-26.329-0.087-52.66,0.032-78.988-0.119
		c-5.968-0.034-12.042-0.321-17.879-1.458c-34.01-6.629-60.4-36.513-62.94-69.407c-3.147-40.763,22.713-72.213,54.238-82.188
		c8.268-2.616,10.23-5.33,10.538-14.053c0.715-20.218,9.984-35.348,27.734-44.837c18.843-10.073,41.626-6.88,57.689,7.424
		c6.142,5.469,11.98,6.303,16.275,1.646c2.166-2.348,3.319-5.685,4.723-8.673c20.237-43.054,53.925-67.111,101.543-69.125
		c36.627-1.549,67.354,12.852,90.963,40.942c19.971,23.762,28.539,51.605,25.952,82.593c-0.959,11.491,2.281,15.774,13.765,16.111
		c41.113,1.205,73.373,40.694,66.407,81.285c-6.04,35.197-34.299,59.466-70.08,59.751c-29.661,0.237-59.325-0.011-88.987,0.146
		c-3.197,0.017-6.782,0.61-9.491,2.155c-4.198,2.394-5.198,6.739-3.824,11.371c1.326,4.469,5.654,6.974,12.058,6.981
		c29.829,0.03,59.66,0.227,89.487-0.041c40.832-0.368,74.115-24.057,87.221-61.929C510.733,301.836,511.868,295.082,513.5,288.5z
		 M247.332,261.654c0,3.415,0,5.199,0,6.983c0,56.162-0.014,112.324,0.041,168.486c0.003,2.792,0.153,5.732,1.014,8.346
		c2.048,6.219,10.043,8.271,15.202,4.239c3.733-2.918,4.092-6.95,4.091-11.222c-0.021-56.662-0.013-113.325-0.013-169.987
		c0-1.764,0-3.527,0-6.421c2.021,1.832,3.232,2.842,4.345,3.952c9.205,9.179,18.373,18.393,27.592,27.557
		c3.449,3.428,7.294,5.999,12.461,3.993c7.775-3.018,8.844-11.575,2.193-18.256c-18.107-18.188-36.28-36.31-54.437-54.449
		c-0.677-0.676-1.46-1.246-2.38-2.023c-1.393,1.299-2.625,2.38-3.781,3.535c-17.212,17.197-34.283,34.54-51.68,51.547
		c-7.769,7.595-6.279,13.65-2.737,17.393c4.554,4.813,10.779,3.649,17.32-2.89C226.446,282.557,236.323,272.669,247.332,261.654z"/>
	<path display="inline" d="M511,277.001c-1.626,6.559-2.758,13.288-4.958,19.648c-13.06,37.738-46.225,61.343-86.913,61.71
		c-29.721,0.268-59.447,0.072-89.17,0.041c-6.381-0.007-10.693-2.502-12.015-6.956c-1.37-4.615-0.373-8.945,3.81-11.33
		c2.7-1.54,6.271-2.131,9.457-2.148c29.557-0.156,59.116,0.09,88.672-0.145c35.654-0.284,63.813-24.468,69.832-59.54
		c6.942-40.448-25.204-79.796-66.172-80.997c-11.444-0.336-14.673-4.604-13.717-16.054c2.578-30.878-5.96-58.622-25.86-82.3
		c-23.525-27.991-54.143-42.341-90.641-40.797c-47.45,2.007-81.018,25.979-101.183,68.881c-1.399,2.977-2.548,6.302-4.707,8.642
		c-4.28,4.64-10.097,3.81-16.217-1.64c-16.006-14.254-38.708-17.436-57.484-7.398c-17.687,9.455-26.923,24.531-27.636,44.678
		c-0.307,8.692-2.262,11.396-10.501,14.003c-31.414,9.94-57.182,41.279-54.046,81.897c2.531,32.778,28.828,62.556,62.717,69.162
		c5.816,1.134,11.869,1.419,17.816,1.453c26.236,0.15,52.473,0.031,78.709,0.118c2.6,0.009,5.376,0.307,7.755,1.259
		c4.082,1.632,6.077,5.13,5.819,9.504c-0.257,4.358-2.594,7.488-6.835,8.837c-1.713,0.545-3.581,0.853-5.377,0.846
		c-30.05-0.12-60.125,0.419-90.142-0.659c-39.802-1.43-76.9-32.022-87.209-70.406c-13.487-50.215,9.637-98.054,57.64-118.789
		c3.425-1.479,3.56-3.905,3.96-6.587c3.249-21.825,14.102-38.964,32.824-50.417c24.282-14.855,49.232-14.823,74.163-1.1
		c0.854,0.47,1.721,0.918,2.296,1.224c37.9-61.547,91.13-87.456,161.822-67.445c52.366,14.823,94.713,65.658,93.355,132.548
		c6.495,1.733,13.227,2.911,19.495,5.304c33.884,12.935,53.819,37.422,59.728,73.263c0.156,0.944,0.603,1.84,0.914,2.759
		C511,264.379,511,270.69,511,277.001z"/>
	<path display="inline" d="M245.775,250.25c-10.97,10.976-20.812,20.828-30.661,30.675c-6.517,6.516-12.721,7.676-17.259,2.88
		c-3.529-3.73-5.014-9.763,2.727-17.332c17.336-16.947,34.346-34.228,51.497-51.365c1.152-1.151,2.379-2.228,3.768-3.523
		c0.916,0.774,1.697,1.342,2.371,2.016c18.093,18.074,36.201,36.133,54.244,54.256c6.627,6.657,5.562,15.184-2.185,18.191
		c-5.149,1.999-8.98-0.563-12.416-3.979c-9.186-9.132-18.322-18.314-27.494-27.46c-1.109-1.106-2.316-2.113-4.33-3.938
		c0,2.883,0,4.641,0,6.398c0,56.462-0.007,112.924,0.013,169.386c0.002,4.257-0.356,8.275-4.076,11.183
		c-5.141,4.018-13.107,1.973-15.149-4.224c-0.858-2.605-1.008-5.534-1.011-8.317c-0.055-55.963-0.041-111.926-0.041-167.889
		C245.775,255.431,245.775,253.653,245.775,250.25z"/>
</g>
<g display="none">
	<path fill="#FFFFFF" d="M513.5,329.5c0,61.333,0,122.667,0,184c-171,0-342,0-513,0c0-171,0-342,0-513c171,0,342,0,513,0
		c0,103.333,0,206.667,0,310c-0.327-1.094-0.772-2.168-0.963-3.285c-6.019-35.281-25.607-59.65-58.931-72.682
		c-6.577-2.572-13.656-3.86-20.504-5.735c1.355-68.482-43.118-117.673-94.499-133.568c-26.978-8.346-54.16-8.486-81.085,0.237
		c-35.946,11.646-62.182,34.953-79.797,68.43c-1.369-0.738-2.387-1.252-3.373-1.822c-44.178-25.541-99.66,1.282-106.893,51.804
		c-0.606,4.231-2.58,6.047-6.306,7.623C13.677,241.58-10.334,296.661,7.206,344.883c14.797,40.681,50.515,66.093,94.646,66.195
		c106.309,0.246,212.619,0.205,318.928,0.016c41.335-0.073,74.831-24.067,87.905-62.351
		C510.814,342.508,511.921,335.923,513.5,329.5z"/>
	<path display="inline" d="M511,277.185c-1.573,6.398-2.675,12.956-4.796,19.167c-13.022,38.133-46.385,62.031-87.556,62.104
		c-105.888,0.188-211.776,0.229-317.663-0.016c-43.956-0.102-79.533-25.413-94.271-65.933
		c-17.47-48.031,6.445-102.893,53.728-122.891c3.712-1.57,5.678-3.379,6.281-7.593c7.204-50.322,62.466-77.038,106.469-51.599
		c0.982,0.568,1.996,1.08,3.36,1.815c17.546-33.344,43.677-56.558,79.481-68.158c26.818-8.689,53.892-8.549,80.763-0.236
		c51.177,15.832,95.474,64.828,94.124,133.038c6.822,1.868,13.872,3.15,20.423,5.712c33.193,12.98,52.703,37.253,58.698,72.394
		c0.19,1.113,0.634,2.182,0.959,3.272C511,264.569,511,270.877,511,277.185z M184.846,146.438
		c-4.954-4.486-8.837-8.101-12.824-11.598c-16.237-14.241-34.74-17.975-54.56-9.587c-19.594,8.292-29.97,23.892-31.114,45.317
		c-0.201,3.773,1.304,8.709-0.562,11.037c-2.089,2.605-7.106,2.886-10.868,4.12c-36.3,11.909-58.909,49.479-52.299,86.927
		c6.824,38.658,38.228,65.239,78.05,65.299c106.062,0.162,212.125,0.092,318.187-0.036c6.242-0.008,12.648-0.68,18.697-2.178
		c31.977-7.919,54.35-37.838,52.863-70.148c-1.587-34.482-25.705-62.193-58.887-67.144c-7.454-1.112-15.107-0.899-23.382-1.334
		c5.274-30.585,1.545-59.751-15.578-86.283c-17.196-26.646-41.427-43.536-72.394-50.246c-23.341-5.058-46.251-2.817-68.206,6.717
		C217.044,82.467,196.421,110.173,184.846,146.438z"/>
	<path fill="#FFFFFF" d="M186.047,198.232c11.622-36.409,32.327-64.225,67.392-79.452c22.042-9.572,45.043-11.822,68.477-6.744
		c31.09,6.737,55.418,23.694,72.683,50.446c17.191,26.638,20.935,55.92,15.64,86.627c8.308,0.436,15.991,0.223,23.475,1.34
		c33.314,4.971,57.528,32.792,59.121,67.412c1.493,32.439-20.969,62.477-53.073,70.428c-6.073,1.504-12.504,2.179-18.771,2.186
		c-106.484,0.129-212.969,0.199-319.454,0.036c-39.981-0.061-71.51-26.747-78.361-65.559c-6.636-37.597,16.063-75.317,52.507-87.273
		c3.777-1.239,8.814-1.522,10.911-4.137c1.874-2.337,0.362-7.292,0.564-11.081c1.148-21.51,11.565-37.172,31.237-45.498
		c19.899-8.421,38.476-4.673,54.777,9.625C177.174,190.099,181.074,193.728,186.047,198.232z"/>
</g>
</svg>
