<?xml version="1.0" encoding="utf-8"?>
<!-- Generator: Adobe Illustrator 16.0.0, SVG Export Plug-In . SVG Version: 6.00 Build 0)  -->
<!DOCTYPE svg PUBLIC "-//W3C//DTD SVG 1.1//EN" "http://www.w3.org/Graphics/SVG/1.1/DTD/svg11.dtd">
<svg version="1.1" id="Layer_1" xmlns="http://www.w3.org/2000/svg" xmlns:xlink="http://www.w3.org/1999/xlink" x="0px" y="0px"
	 width="512px" height="512px" viewBox="0 0 512 512" enable-background="new 0 0 512 512" xml:space="preserve">
<g>
	<line fill="none" stroke="#B35047" x1="32" y1="0" x2="32" y2="512"/>
	<line fill="none" stroke="#B35047" x1="64" y1="0" x2="64" y2="512"/>
	<line fill="none" stroke="#B35047" x1="96" y1="0" x2="96" y2="512"/>
	<line fill="none" stroke="#B35047" x1="128" y1="0" x2="128" y2="512"/>
	<line fill="none" stroke="#B35047" x1="160" y1="0" x2="160" y2="512"/>
	<line fill="none" stroke="#B35047" x1="192" y1="0" x2="192" y2="512"/>
	<line fill="none" stroke="#B35047" x1="224" y1="0" x2="224" y2="512"/>
	<line fill="none" stroke="#B35047" x1="256" y1="0" x2="256" y2="512"/>
	<line fill="none" stroke="#B35047" x1="288" y1="0" x2="288" y2="512"/>
	<line fill="none" stroke="#B35047" x1="320" y1="0" x2="320" y2="512"/>
	<line fill="none" stroke="#B35047" x1="352" y1="0" x2="352" y2="512"/>
	<line fill="none" stroke="#B35047" x1="384" y1="0" x2="384" y2="512"/>
	<line fill="none" stroke="#B35047" x1="416" y1="0" x2="416" y2="512"/>
	<line fill="none" stroke="#B35047" x1="448" y1="0" x2="448" y2="512"/>
	<line fill="none" stroke="#B35047" x1="480" y1="0" x2="480" y2="512"/>
	<line fill="none" stroke="#B35047" x1="0" y1="32" x2="512" y2="32"/>
	<line fill="none" stroke="#B35047" x1="0" y1="64" x2="512" y2="64"/>
	<line fill="none" stroke="#B35047" x1="0" y1="96" x2="512" y2="96"/>
	<line fill="none" stroke="#B35047" x1="0" y1="128" x2="512" y2="128"/>
	<line fill="none" stroke="#B35047" x1="0" y1="160" x2="512" y2="160"/>
	<line fill="none" stroke="#B35047" x1="0" y1="192" x2="512" y2="192"/>
	<line fill="none" stroke="#B35047" x1="0" y1="224" x2="512" y2="224"/>
	<line fill="none" stroke="#B35047" x1="0" y1="256" x2="512" y2="256"/>
	<line fill="none" stroke="#B35047" x1="0" y1="288" x2="512" y2="288"/>
	<line fill="none" stroke="#B35047" x1="0" y1="320" x2="512" y2="320"/>
	<line fill="none" stroke="#B35047" x1="0" y1="352" x2="512" y2="352"/>
	<line fill="none" stroke="#B35047" x1="0" y1="384" x2="512" y2="384"/>
	<line fill="none" stroke="#B35047" x1="0" y1="416" x2="512" y2="416"/>
	<line fill="none" stroke="#B35047" x1="0" y1="448" x2="512" y2="448"/>
	<line fill="none" stroke="#B35047" x1="0" y1="480" x2="512" y2="480"/>
	<rect fill="none" stroke="#B35047" width="512" height="512"/>
</g>
<g>
	<path display="none" fill-rule="evenodd" clip-rule="evenodd" fill="#FFFFFF" d="M0.5,0.5c171,0,342,0,513,0c0,171,0,342,0,513
		c-171,0-342,0-513,0C0.5,342.5,0.5,171.5,0.5,0.5z M460.765,42.571c-1.494,0.553-4.021,1.36-6.447,2.403
		c-86.516,37.188-173.021,74.399-259.529,111.604c-47.381,20.377-94.778,40.718-142.118,61.189
		c-2.968,1.284-6.172,3.041-8.106,5.493c-4.336,5.496-1.594,12.178,6.077,16.015c48.22,24.12,96.433,48.256,144.712,72.257
		c3.796,1.887,6.237,4.412,8.112,8.179c23.736,47.668,47.597,95.272,71.453,142.881c0.963,1.922,1.99,3.869,3.323,5.537
		c4.834,6.045,13.141,5.416,17.052-1.251c0.92-1.568,1.523-3.325,2.246-5.006c57.509-133.74,115.018-267.479,172.503-401.229
		c0.783-1.821,1.47-3.726,1.883-5.659C473.342,48.335,468.659,42.62,460.765,42.571z"/>
	<path fill-rule="evenodd" clip-rule="evenodd" d="M493.347,4.044c9.237,0.058,14.716,6.743,13.058,14.522
		c-0.483,2.262-1.286,4.49-2.203,6.621C436.943,181.675,369.658,338.15,302.373,494.627c-0.846,1.967-1.552,4.021-2.628,5.855
		c-4.576,7.801-14.295,8.537-19.95,1.465c-1.561-1.951-2.762-4.23-3.889-6.479c-27.911-55.701-55.828-111.398-83.6-167.17
		c-2.194-4.408-5.05-7.363-9.491-9.57c-56.487-28.08-112.896-56.32-169.313-84.541c-8.975-4.489-12.183-12.307-7.109-18.736
		c2.263-2.869,6.011-4.925,9.483-6.428c55.389-23.951,110.842-47.75,166.278-71.592C283.369,93.904,384.58,50.366,485.804,6.857
		C488.643,5.636,491.599,4.691,493.347,4.044z M458.239,71.436c-0.298-0.164-0.595-0.33-0.892-0.495
		c-1.128,1.023-2.301,2-3.377,3.076c-79.252,79.239-158.479,158.504-237.81,237.663c-2.896,2.891-3.074,5.012-1.306,8.523
		c23.639,46.928,47.13,93.932,70.678,140.906c0.723,1.439,1.649,2.779,2.996,5.023C345.375,333.926,401.807,202.68,458.239,71.436z
		 M441.048,54.649c-0.474-0.619-0.947-1.238-1.422-1.858C308.261,109.289,176.895,165.786,44.6,222.681
		c2.825,1.532,4.48,2.493,6.189,3.348c46.313,23.152,92.67,46.215,138.887,69.555c4.678,2.363,7.225,1.793,10.858-1.852
		C278.851,215.186,357.31,136.78,435.781,58.389C437.283,56.889,439.281,55.884,441.048,54.649z"/>
	<path display="none" fill-rule="evenodd" clip-rule="evenodd" fill="#FFFFFF" d="M430.758,100.171
		c-48.232,112.175-96.465,224.35-145.051,337.348c-1.151-1.918-1.943-3.063-2.561-4.294
		c-20.127-40.149-40.205-80.323-60.409-120.433c-1.512-3.001-1.359-4.814,1.116-7.284c67.805-67.657,135.52-135.405,203.256-203.131
		c0.92-0.92,1.923-1.755,2.887-2.629C430.25,99.889,430.504,100.03,430.758,100.171z"/>
	<path display="none" fill-rule="evenodd" clip-rule="evenodd" fill="#FFFFFF" d="M416.064,85.823
		c-1.51,1.056-3.218,1.914-4.501,3.196c-67.07,67.001-134.129,134.015-201.066,201.148c-3.106,3.114-5.283,3.602-9.281,1.583
		c-39.501-19.949-79.123-39.661-118.707-59.449c-1.46-0.73-2.875-1.552-5.29-2.861c113.072-48.629,225.351-96.917,337.629-145.206
		C415.255,84.765,415.66,85.294,416.064,85.823z"/>
</g>
</svg>
