<?xml version="1.0" encoding="utf-8"?>
<!-- Generator: Adobe Illustrator 17.0.0, SVG Export Plug-In . SVG Version: 6.00 Build 0)  -->
<!DOCTYPE svg PUBLIC "-//W3C//DTD SVG 1.1//EN" "http://www.w3.org/Graphics/SVG/1.1/DTD/svg11.dtd">
<svg version="1.1" id="Layer_1" xmlns="http://www.w3.org/2000/svg" xmlns:xlink="http://www.w3.org/1999/xlink" x="0px" y="0px"
	 width="512px" height="512px" viewBox="0 0 512 512" enable-background="new 0 0 512 512" xml:space="preserve">
<g>
	<line fill="none" stroke="#B35047" x1="32" y1="0" x2="32" y2="512"/>
	<line fill="none" stroke="#B35047" x1="64" y1="0" x2="64" y2="512"/>
	<line fill="none" stroke="#B35047" x1="96" y1="0" x2="96" y2="512"/>
	<line fill="none" stroke="#B35047" x1="128" y1="0" x2="128" y2="512"/>
	<line fill="none" stroke="#B35047" x1="160" y1="0" x2="160" y2="512"/>
	<line fill="none" stroke="#B35047" x1="192" y1="0" x2="192" y2="512"/>
	<line fill="none" stroke="#B35047" x1="224" y1="0" x2="224" y2="512"/>
	<line fill="none" stroke="#B35047" x1="256" y1="0" x2="256" y2="512"/>
	<line fill="none" stroke="#B35047" x1="288" y1="0" x2="288" y2="512"/>
	<line fill="none" stroke="#B35047" x1="320" y1="0" x2="320" y2="512"/>
	<line fill="none" stroke="#B35047" x1="352" y1="0" x2="352" y2="512"/>
	<line fill="none" stroke="#B35047" x1="384" y1="0" x2="384" y2="512"/>
	<line fill="none" stroke="#B35047" x1="416" y1="0" x2="416" y2="512"/>
	<line fill="none" stroke="#B35047" x1="448" y1="0" x2="448" y2="512"/>
	<line fill="none" stroke="#B35047" x1="480" y1="0" x2="480" y2="512"/>
	<line fill="none" stroke="#B35047" x1="0" y1="32" x2="512" y2="32"/>
	<line fill="none" stroke="#B35047" x1="0" y1="64" x2="512" y2="64"/>
	<line fill="none" stroke="#B35047" x1="0" y1="96" x2="512" y2="96"/>
	<line fill="none" stroke="#B35047" x1="0" y1="128" x2="512" y2="128"/>
	<line fill="none" stroke="#B35047" x1="0" y1="160" x2="512" y2="160"/>
	<line fill="none" stroke="#B35047" x1="0" y1="192" x2="512" y2="192"/>
	<line fill="none" stroke="#B35047" x1="0" y1="224" x2="512" y2="224"/>
	<line fill="none" stroke="#B35047" x1="0" y1="256" x2="512" y2="256"/>
	<line fill="none" stroke="#B35047" x1="0" y1="288" x2="512" y2="288"/>
	<line fill="none" stroke="#B35047" x1="0" y1="320" x2="512" y2="320"/>
	<line fill="none" stroke="#B35047" x1="0" y1="352" x2="512" y2="352"/>
	<line fill="none" stroke="#B35047" x1="0" y1="384" x2="512" y2="384"/>
	<line fill="none" stroke="#B35047" x1="0" y1="416" x2="512" y2="416"/>
	<line fill="none" stroke="#B35047" x1="0" y1="448" x2="512" y2="448"/>
	<line fill="none" stroke="#B35047" x1="0" y1="480" x2="512" y2="480"/>
	<rect x="0" fill="none" stroke="#B35047" width="512" height="512"/>
</g>
<g>
	<path display="none" fill="#FFFFFF" d="M513.5,301.5c0,70.667,0,141.333,0,212c-171,0-342,0-513,0c0-171,0-342,0-513
		c171,0,342,0,513,0c0,90.667,0,181.333,0,272c-0.285-1.108-0.747-2.204-0.828-3.327c-3.157-43.751-16.045-84.506-40.852-120.61
		C413.471,63.643,332.161,25.339,229.628,33.928c-45.381,3.802-86.798,20.345-123.247,47.776
		C40.33,131.415,5.161,197.933,1.769,280.553c-1.957,47.663,9.761,92.418,33.06,134.047c3.394,6.065,7.372,11.873,11.669,17.337
		c2.939,3.738,7.513,3.669,11.418,1.46c4.064-2.3,6.172-6.073,4.701-10.929c-0.797-2.631-2.046-5.125-3.218-7.992
		c4.934-2.873,9.928-5.518,14.619-8.622c2.411-1.596,4.918-3.667,6.246-6.134c2.161-4.015,1.148-8.052-2.277-11.282
		c-3.848-3.629-8.18-3.374-12.434-1.131c-5.571,2.938-10.964,6.216-16.398,9.328c-12.834-16.81-29.267-78.589-26.044-98.158
		c6.057,0,12.2,0.216,18.321-0.053c8.376-0.368,13.21-7.303,10.133-14.284c-2.096-4.755-6.299-6.109-11.05-6.177
		c-5.923-0.085-11.849-0.02-18.223-0.02c1.621-35.192,10.299-67.6,26.272-98.471c5.555,3.182,10.706,6.162,15.887,9.09
		c3.993,2.257,8.153,3.179,12.265,0.474c6.619-4.352,6.026-13.076-1.261-17.655c-5.302-3.332-10.794-6.363-16.605-9.764
		c19.07-29.444,42.778-53.338,72.142-72.008c3.183,5.501,5.816,10.526,8.93,15.233c1.595,2.411,3.706,4.939,6.199,6.192
		c4.02,2.02,8.126,1.057,11.272-2.448c3.493-3.892,3.207-8.245,0.944-12.491c-2.953-5.54-6.21-10.919-9.602-16.831
		c31.18-15.99,63.593-24.819,98.605-26.161c0,6.788-0.033,12.761,0.01,18.733c0.034,4.674,1.706,8.543,6.207,10.48
		c6.89,2.965,13.72-1.728,14.044-9.766c0.253-6.282,0.051-12.582,0.051-19.482c35.145,1.467,67.594,10.195,98.593,26.225
		c-3.331,5.803-6.4,10.928-9.25,16.171c-3.396,6.249-2.071,12.387,3.093,15.271c5.256,2.935,10.964,0.945,14.673-5.238
		c3.077-5.13,6.035-10.333,9.031-15.479c20.052,8.847,64.366,53.253,71.77,71.984c-2.517,1.475-5.076,2.984-7.644,4.477
		c-2.59,1.506-5.232,2.929-7.776,4.509c-4.028,2.502-7.062,5.762-6.293,10.924c1.156,7.755,8.586,10.992,16.066,6.987
		c5.497-2.943,10.845-6.165,16.543-9.424c15.973,31.104,24.724,63.477,26.181,97.682c-0.878,0.384-1.168,0.619-1.461,0.623
		c-5.496,0.072-10.993,0.061-16.488,0.183c-4.711,0.105-9.005,1.259-11.158,6.019c-3.256,7.199,1.725,14.221,10.336,14.469
		c6.104,0.175,12.217,0.034,18.806,0.034c-1.698,35.115-10.284,67.61-26.354,98.432c-5.586-3.203-10.383-6.231-15.439-8.736
		c-2.572-1.274-5.653-2.359-8.428-2.2c-4.832,0.278-7.82,3.611-8.596,8.327c-0.791,4.813,1.692,8.356,5.651,10.769
		c5.362,3.268,10.854,6.322,16.415,9.539c-0.94,1.658-1.63,2.783-2.233,3.953c-3.085,5.986-1.808,12.057,3.105,14.866
		c5.016,2.868,10.907,1.131,14.573-4.515c18.334-28.229,31.22-58.71,37.186-91.909C510.668,325.257,511.878,313.341,513.5,301.5z
		 M256.954,472.515c33.309,0,66.618,0.016,99.926-0.01c9.425-0.008,13.304-3.907,13.348-13.393
		c0.053-11.491,0.059-22.983-0.002-34.474c-0.051-9.654-3.768-13.462-13.251-13.466c-66.285-0.027-132.569-0.029-198.854,0.002
		c-9.537,0.004-13.308,3.842-13.351,13.371c-0.049,10.992-0.019,21.984-0.01,32.976c0.01,11.543,3.406,14.992,14.764,14.994
		C192.001,472.518,224.478,472.516,256.954,472.515z M420.368,196.904c-1-5.118-3.885-3.212-6.431-2.211
		c-41.473,16.303-82.926,32.659-124.453,48.822c-2.136,0.831-5.018,0.507-7.354-0.077c-7.345-1.836-14.491-5.287-21.9-5.914
		c-37.447-3.169-65.296,37.348-49.494,71.442c10.201,22.009,32.536,33.615,56.676,29.451c21.972-3.79,38.956-23.241,41.156-46.779
		c0.2-2.142,1.573-4.725,3.233-6.096c21.318-17.601,42.789-35.017,64.219-52.483C390.847,220.978,405.669,208.889,420.368,196.904z"
		/>
	<path d="M511,304.68c-1.616,11.796-2.821,23.667-4.925,35.375c-5.943,33.073-18.78,63.439-37.045,91.56
		c-3.653,5.624-9.521,7.355-14.518,4.497c-4.894-2.799-6.167-8.847-3.093-14.81c0.601-1.165,1.288-2.286,2.224-3.938
		c-5.54-3.205-11.011-6.248-16.353-9.503c-3.944-2.404-6.418-5.933-5.629-10.728c0.772-4.698,3.75-8.019,8.563-8.295
		c2.764-0.159,5.834,0.922,8.396,2.191c5.037,2.496,9.815,5.512,15.38,8.703c16.009-30.705,24.563-63.077,26.254-98.059
		c-6.564,0-12.654,0.141-18.735-0.034c-8.578-0.246-13.54-7.242-10.297-14.414c2.145-4.742,6.423-5.892,11.116-5.997
		c5.474-0.122,10.95-0.111,16.425-0.183c0.292-0.004,0.581-0.238,1.456-0.62c-1.451-34.075-10.169-66.325-26.081-97.311
		c-5.677,3.248-11.004,6.457-16.481,9.389c-7.451,3.99-14.853,0.765-16.005-6.961c-0.767-5.142,2.256-8.39,6.269-10.882
		c2.534-1.574,5.166-2.991,7.747-4.492c2.559-1.487,5.108-2.991,7.615-4.46c-7.376-18.66-51.522-62.897-71.498-71.711
		c-2.985,5.127-5.931,10.31-8.997,15.421c-3.695,6.16-9.381,8.143-14.617,5.218c-5.144-2.873-6.464-8.989-3.082-15.213
		c2.839-5.224,5.896-10.329,9.215-16.11c-30.881-15.969-63.207-24.664-98.219-26.126c0,6.874,0.202,13.15-0.051,19.408
		c-0.323,8.008-7.127,12.683-13.991,9.729c-4.484-1.929-6.15-5.784-6.183-10.44c-0.043-5.949-0.01-11.899-0.01-18.662
		c-34.879,1.337-67.169,10.133-98.231,26.062c3.38,5.891,6.625,11.248,9.566,16.768c2.254,4.23,2.538,8.567-0.941,12.444
		c-3.134,3.492-7.225,4.452-11.229,2.439c-2.483-1.248-4.586-3.767-6.175-6.169c-3.103-4.689-5.725-9.695-8.896-15.175
		c-29.253,18.599-52.871,42.403-71.869,71.735c5.79,3.389,11.26,6.408,16.542,9.727c7.259,4.562,7.849,13.253,1.256,17.588
		c-4.097,2.694-8.241,1.776-12.219-0.472c-5.161-2.917-10.293-5.886-15.827-9.056c-15.912,30.754-24.558,63.039-26.173,98.098
		c6.35,0,12.253-0.064,18.154,0.02c4.732,0.068,8.919,1.416,11.008,6.154c3.065,6.954-1.751,13.863-10.095,14.23
		c-6.098,0.268-12.217,0.052-18.251,0.052c-3.21,19.495,13.161,81.04,25.946,97.786c5.414-3.1,10.786-6.366,16.336-9.293
		c4.238-2.235,8.554-2.489,12.387,1.126c3.411,3.217,4.421,7.24,2.268,11.239c-1.323,2.458-3.821,4.521-6.223,6.111
		c-4.673,3.093-9.648,5.727-14.563,8.59c1.168,2.857,2.412,5.341,3.206,7.962c1.465,4.838-0.635,8.597-4.684,10.888
		c-3.89,2.201-8.447,2.269-11.375-1.454c-4.28-5.443-8.243-11.23-11.625-17.271C10.934,375.881-0.739,331.296,1.21,283.813
		C4.589,201.506,39.624,135.24,105.425,85.718c36.31-27.327,77.57-43.807,122.779-47.595
		c102.144-8.557,183.146,29.602,241.273,114.2c24.713,35.967,37.552,76.567,40.697,120.152c0.081,1.119,0.542,2.21,0.825,3.315
		C511,285.42,511,295.05,511,304.68z"/>
	<path d="M255.426,475.048c-32.353,0-64.706,0.003-97.059-0.001c-11.316-0.001-14.699-3.437-14.709-14.937
		c-0.009-10.95-0.039-21.901,0.01-32.851c0.043-9.493,3.799-13.316,13.3-13.321c66.033-0.031,132.066-0.028,198.1-0.002
		c9.448,0.004,13.151,3.797,13.201,13.415c0.06,11.448,0.055,22.896,0.002,34.344c-0.044,9.45-3.909,13.335-13.297,13.342
		C321.791,475.064,288.609,475.047,255.426,475.048z M347.442,434.563c-61.234,0-122.034,0-182.968,0c0,6.728,0,13.132,0,19.818
		c61.062,0,121.88,0,182.968,0C347.442,447.73,347.442,441.33,347.442,434.563z"/>
	<path d="M418.221,200.481c-14.643,11.939-29.409,23.982-44.179,36.02c-21.348,17.4-42.738,34.75-63.975,52.284
		c-1.654,1.365-3.021,3.939-3.22,6.072c-2.192,23.449-19.112,42.826-41,46.601c-24.048,4.148-46.299-7.415-56.461-29.34
		c-15.743-33.965,12.001-74.328,49.306-71.172c7.381,0.625,14.5,4.062,21.817,5.891c2.327,0.581,5.198,0.905,7.326,0.076
		c41.37-16.102,82.666-32.396,123.982-48.637C414.351,197.282,417.225,195.383,418.221,200.481z M255.889,321.86
		c16.719,0.053,30.383-13.419,30.637-30.205c0.252-16.621-13.999-30.884-30.722-30.749c-16.609,0.134-30.451,14.061-30.397,30.586
		C225.461,308.168,239.151,321.807,255.889,321.86z"/>
	<path display="none" fill="#FFFFFF" d="M349.319,431.877c0,6.793,0,13.218,0,19.894c-61.321,0-122.37,0-183.665,0
		c0-6.712,0-13.14,0-19.894C226.82,431.877,287.852,431.877,349.319,431.877z"/>
	<path display="none" fill="#FFFFFF" d="M257.418,318.745c-16.802-0.053-30.544-13.744-30.598-30.484
		c-0.053-16.588,13.84-30.568,30.513-30.703c16.787-0.136,31.091,14.182,30.839,30.866
		C287.917,305.275,274.201,318.798,257.418,318.745z"/>
</g>
<g display="none">
	<path fill="#FFFFFF" d="M513.5,434.5c0,26.333,0,52.667,0,79c-171,0-342,0-513,0c0-171,0-342,0-513c171,0,342,0,513,0
		c0,50.667,0,101.333,0,152c-1.481-3.866-2.611-7.915-4.502-11.569c-9.696-18.736-25.56-27.358-46.316-27.363
		c-136.818-0.035-273.636-0.018-410.454-0.018c-0.833,0-1.667,0-2.5,0.013c-29.538,0.493-48.727,25.203-48.52,49.672
		c0.743,87.651,0.312,175.311,0.27,262.968C1.473,440.5,7.445,451.89,17.903,461.182c10.291,9.144,22.654,11.98,36.078,11.967
		c71.492-0.071,142.984-0.033,214.476-0.033c64.493,0,128.986-0.049,193.478,0.031c17.401,0.022,32.199-5.596,42.455-20.012
		C508.345,447.576,510.516,440.749,513.5,434.5z M185.644,103.622c0-11.551,0.307-22.525-0.074-33.474
		c-0.534-15.358-12.697-27.351-28.055-27.58c-18.64-0.279-37.29-0.239-55.931-0.01c-13.576,0.166-25.968,9.734-27.471,23.057
		c-1.401,12.425-0.299,25.132-0.299,37.939c6.478,0,12.87,0,19.553,0c0.083-1.892,0.212-3.52,0.216-5.148
		c0.023-8.49-0.076-16.981,0.047-25.469c0.09-6.246,2.956-9.785,8.857-9.865c17.973-0.242,35.954-0.241,53.927-0.016
		c5.923,0.074,8.85,3.596,8.953,9.781c0.133,7.988,0.037,15.98,0.04,23.971c0.001,2.257,0,4.515,0,6.815
		C172.468,103.622,178.752,103.622,185.644,103.622z M441.611,103.633c0-11.703,0.34-22.842-0.084-33.953
		c-0.565-14.812-12.613-26.782-27.483-27.071c-18.97-0.37-37.956-0.319-56.928-0.02c-13.462,0.212-25.818,10.282-27.135,23.476
		c-1.228,12.3-0.262,24.819-0.262,37.499c6.552,0,12.944,0,19.875,0c0-9.714-0.016-19.158,0.004-28.602
		c0.02-9.205,2.745-12.024,11.851-12.058c14.149-0.052,28.299-0.015,42.449-0.015c16.736,0,17.509,0.769,17.509,17.405
		c0,7.758,0,15.517,0,23.337C428.446,103.633,434.731,103.633,441.611,103.633z"/>
	<path display="inline" d="M511,431.96c-2.97,6.221-5.132,13.018-9.069,18.551c-10.21,14.351-24.942,19.944-42.265,19.922
		c-64.204-0.08-128.408-0.031-192.612-0.031c-71.172,0-142.344-0.038-213.516,0.033c-13.364,0.013-25.671-2.811-35.916-11.913
		c-10.412-9.251-16.357-20.59-16.35-34.821c0.041-87.265,0.47-174.533-0.269-261.791c-0.206-24.359,18.897-48.959,48.303-49.45
		c0.829-0.014,1.659-0.013,2.488-0.013c136.206-0.001,272.411-0.017,408.617,0.017c20.662,0.005,36.455,8.588,46.108,27.241
		c1.883,3.638,3.007,7.668,4.482,11.517C511,244.802,511,338.381,511,431.96z M256.162,134.041
		c-67.357,0-134.715-0.014-202.072,0.036c-3.79,0.003-7.702,0.021-11.349,0.899c-13.341,3.215-20.533,13.536-20.536,29.028
		c-0.017,84.943-0.019,169.887,0.001,254.83c0.005,19.293,10.884,30.044,30.36,30.056c36.831,0.023,73.662,0.007,110.492,0.007
		c99.045,0,198.09,0.011,297.135-0.011c18.444-0.004,29.846-10.746,29.862-28.525c0.08-85.939,0.083-171.878-0.095-257.816
		c-0.01-4.652-1.056-9.719-3.094-13.87c-5.432-11.065-15.236-14.708-27.14-14.688C391.872,134.1,324.017,134.042,256.162,134.041z"
		/>
	<path display="inline" d="M184.611,102.563c-6.861,0-13.117,0-20.146,0c0-2.29,0.001-4.537,0-6.785
		c-0.002-7.955,0.093-15.911-0.039-23.863c-0.102-6.157-3.016-9.663-8.913-9.737c-17.893-0.224-35.793-0.226-53.686,0.016
		c-5.875,0.079-8.728,3.603-8.818,9.821c-0.122,8.45-0.024,16.903-0.046,25.355c-0.004,1.621-0.133,3.242-0.215,5.125
		c-6.654,0-13.017,0-19.466,0c0-12.75-1.097-25.4,0.298-37.769c1.496-13.263,13.832-22.788,27.348-22.954
		c18.558-0.227,37.124-0.267,55.681,0.01c15.289,0.229,27.398,12.168,27.93,27.457C184.917,80.14,184.611,91.064,184.611,102.563z"
		/>
	<path display="inline" d="M439.432,102.575c-6.849,0-13.105,0-20.113,0c0-7.786,0-15.509,0-23.233
		c0-16.562-0.77-17.328-17.431-17.327c-14.086,0-28.173-0.037-42.259,0.015c-9.065,0.033-11.778,2.839-11.797,12.004
		c-0.02,9.402-0.004,18.803-0.004,28.474c-6.9,0-13.263,0-19.786,0c0-12.623-0.961-25.086,0.261-37.332
		c1.311-13.135,13.612-23.16,27.013-23.371c18.887-0.298,37.788-0.348,56.673,0.02c14.804,0.288,26.797,12.204,27.36,26.95
		C439.771,79.834,439.432,90.924,439.432,102.575z"/>
	<path fill="#FFFFFF" d="M257.517,135.242c68.16,0,136.32,0.059,204.48-0.055c11.958-0.02,21.806,3.639,27.262,14.754
		c2.047,4.169,3.098,9.259,3.107,13.932c0.179,86.325,0.176,172.65,0.096,258.975c-0.017,17.859-11.469,28.649-29.996,28.654
		c-99.49,0.023-198.981,0.011-298.471,0.011c-36.996,0-73.993,0.016-110.989-0.007c-19.563-0.012-30.492-10.811-30.496-30.191
		c-0.02-85.325-0.018-170.65-0.001-255.976c0.003-15.562,7.227-25.929,20.628-29.159c3.663-0.883,7.592-0.901,11.4-0.904
		C122.196,135.228,189.856,135.241,257.517,135.242z M441.516,277.936c-2.41,0-4.218,0-6.026,0
		c-10.16-0.001-20.321-0.106-30.478,0.057c-3.271,0.052-4.341-1.028-4.272-4.3c0.185-8.823,0.062-17.653,0.062-26.481
		c0-3.26,0-6.52,0-9.843c-10.535,0-20.281,0-30.632,0c0,13.532,0,26.769,0,40.565c-13.851,0-27.108,0-40.579,0
		c0,10.464,0,20.349,0,30.746c13.547,0,26.784,0,40.703,0c0,13.864,0,27.232,0,40.644c10.451,0,20.205,0,30.629,0
		c0-13.634,0-27.014,0-40.87c13.914,0,27.164,0,40.594,0C441.516,298.185,441.516,288.413,441.516,277.936z M73.485,308.294
		c37.663,0,74.741,0,111.836,0c0-10.198,0-20.07,0-30.001c-37.482,0-74.557,0-111.836,0C73.485,288.425,73.485,298.2,73.485,308.294
		z"/>
	<path display="inline" d="M439.338,276.097c0,10.43,0,20.158,0,30.382c-13.37,0-26.56,0-40.412,0c0,13.794,0,27.115,0,40.687
		c-10.377,0-20.088,0-30.492,0c0-13.352,0-26.66,0-40.462c-13.856,0-27.034,0-40.521,0c0-10.351,0-20.191,0-30.608
		c13.411,0,26.609,0,40.397,0c0-13.734,0-26.912,0-40.383c10.305,0,20.007,0,30.495,0c0,3.309,0,6.554,0,9.799
		c0.001,8.788,0.123,17.578-0.061,26.362c-0.068,3.257,0.997,4.333,4.253,4.281c10.112-0.162,20.227-0.058,30.342-0.057
		C435.139,276.097,436.939,276.097,439.338,276.097z"/>
	<path display="inline" d="M72.955,306.319c0-10.049,0-19.78,0-29.866c37.113,0,74.021,0,111.336,0c0,9.886,0,19.714,0,29.866
		C147.362,306.319,110.449,306.319,72.955,306.319z"/>
</g>
</svg>
