<?xml version="1.0" encoding="utf-8"?>
<!-- Generator: Adobe Illustrator 16.0.0, SVG Export Plug-In . SVG Version: 6.00 Build 0)  -->
<!DOCTYPE svg PUBLIC "-//W3C//DTD SVG 1.1//EN" "http://www.w3.org/Graphics/SVG/1.1/DTD/svg11.dtd">
<svg version="1.1" id="Layer_1" xmlns="http://www.w3.org/2000/svg" xmlns:xlink="http://www.w3.org/1999/xlink" x="0px" y="0px"
	 width="512px" height="512px" viewBox="0 0 512 512" enable-background="new 0 0 512 512" xml:space="preserve">
<g>
	<line fill="none" stroke="#B35047" x1="32" y1="0" x2="32" y2="512"/>
	<line fill="none" stroke="#B35047" x1="64" y1="0" x2="64" y2="512"/>
	<line fill="none" stroke="#B35047" x1="96" y1="0" x2="96" y2="512"/>
	<line fill="none" stroke="#B35047" x1="128" y1="0" x2="128" y2="512"/>
	<line fill="none" stroke="#B35047" x1="160" y1="0" x2="160" y2="512"/>
	<line fill="none" stroke="#B35047" x1="192" y1="0" x2="192" y2="512"/>
	<line fill="none" stroke="#B35047" x1="224" y1="0" x2="224" y2="512"/>
	<line fill="none" stroke="#B35047" x1="256" y1="0" x2="256" y2="512"/>
	<line fill="none" stroke="#B35047" x1="288" y1="0" x2="288" y2="512"/>
	<line fill="none" stroke="#B35047" x1="320" y1="0" x2="320" y2="512"/>
	<line fill="none" stroke="#B35047" x1="352" y1="0" x2="352" y2="512"/>
	<line fill="none" stroke="#B35047" x1="384" y1="0" x2="384" y2="512"/>
	<line fill="none" stroke="#B35047" x1="416" y1="0" x2="416" y2="512"/>
	<line fill="none" stroke="#B35047" x1="448" y1="0" x2="448" y2="512"/>
	<line fill="none" stroke="#B35047" x1="480" y1="0" x2="480" y2="512"/>
	<line fill="none" stroke="#B35047" x1="0" y1="32" x2="512" y2="32"/>
	<line fill="none" stroke="#B35047" x1="0" y1="64" x2="512" y2="64"/>
	<line fill="none" stroke="#B35047" x1="0" y1="96" x2="512" y2="96"/>
	<line fill="none" stroke="#B35047" x1="0" y1="128" x2="512" y2="128"/>
	<line fill="none" stroke="#B35047" x1="0" y1="160" x2="512" y2="160"/>
	<line fill="none" stroke="#B35047" x1="0" y1="192" x2="512" y2="192"/>
	<line fill="none" stroke="#B35047" x1="0" y1="224" x2="512" y2="224"/>
	<line fill="none" stroke="#B35047" x1="0" y1="256" x2="512" y2="256"/>
	<line fill="none" stroke="#B35047" x1="0" y1="288" x2="512" y2="288"/>
	<line fill="none" stroke="#B35047" x1="0" y1="320" x2="512" y2="320"/>
	<line fill="none" stroke="#B35047" x1="0" y1="352" x2="512" y2="352"/>
	<line fill="none" stroke="#B35047" x1="0" y1="384" x2="512" y2="384"/>
	<line fill="none" stroke="#B35047" x1="0" y1="416" x2="512" y2="416"/>
	<line fill="none" stroke="#B35047" x1="0" y1="448" x2="512" y2="448"/>
	<line fill="none" stroke="#B35047" x1="0" y1="480" x2="512" y2="480"/>
	<rect fill="none" stroke="#B35047" width="512" height="512"/>
</g>
<image display="none" overflow="visible" width="512" height="512" xlink:href="../../../Knowledge/Icon/[+++++] (Full) iOS7 icons [icons8]/IT_Infrastructure/remote_working/remote_working-512.png"  transform="matrix(1 0 0 1 430 -65)">
</image>
<image display="none" overflow="visible" width="512" height="512" xlink:href="../../../Knowledge/Icon/[+++++] (Full) iOS7 icons [icons8]/IT_Infrastructure/workstation/workstation-512.png"  transform="matrix(1 0 0 1 430 -65)">
</image>
<image display="none" overflow="visible" width="512" height="512" xlink:href="../../../Knowledge/Icon/[+++++] (Full) iOS7 icons [icons8]/IT_Infrastructure/switch/switch-512.png"  transform="matrix(1 0 0 1 430 -65)">
</image>
<g>
	<path fill-rule="evenodd" clip-rule="evenodd" d="M492.414,508.939c-157.738,0-315.479,0-473.219,0
		c-13.509-5.559-16.83-10.597-16.83-25.539c0-23.589-0.21-47.181,0.105-70.766c0.125-9.308,0.673-18.516,0.269-27.914
		c-1.091-25.357-0.839-50.805-0.109-76.188c0.241-8.363,0.239-16.596,0-24.959c-0.729-25.547-0.325-51.13-0.192-76.698
		c0.018-3.399,0.583-6.929,1.614-10.169C22.925,137.4,41.902,78.125,60.871,18.849C64.817,6.518,70.92,2.062,83.759,2.062
		c114.646-0.003,229.293-0.003,343.94-0.001c12.918,0,19.115,4.449,23,16.646c12.939,40.633,25.795,81.295,38.795,121.91
		c6.459,20.185,13.16,40.292,19.75,60.434c0,97.021,0,194.04,0,291.06C506.693,500.778,501.084,506.389,492.414,508.939z
		 M481.781,184.208c-0.48-1.878-0.797-3.449-1.281-4.968c-16.172-50.847-32.396-101.677-48.465-152.557
		c-1.102-3.484-2.738-4.461-6.264-4.458c-113.348,0.089-226.694,0.092-340.042-0.011c-3.644-0.003-5.105,1.217-6.171,4.578
		C63.427,77.653,47.165,128.47,30.942,179.302c-0.482,1.511-0.868,3.053-1.391,4.906
		C180.487,184.208,330.896,184.208,481.781,184.208z M22.926,285.271c155.517,0,310.63,0,465.746,0c0-26.958,0-53.461,0-80.146
		c-155.363,0-310.394,0-465.746,0C22.926,231.85,22.926,258.35,22.926,285.271z M488.604,386.929c0-26.981,0-53.597,0-80.683
		c-2.021,0-3.641,0-5.258,0c-151.741,0-303.481,0.025-455.221-0.113c-4.856-0.005-5.634,1.697-5.603,5.957
		c0.172,23.088,0.082,46.181,0.082,69.271c0,1.776,0,3.552,0,5.567C178.184,386.929,333.167,386.929,488.604,386.929z
		 M22.942,408.137c-0.14,1.193-0.315,1.994-0.315,2.797c-0.017,24.582,0.076,49.164-0.103,73.744
		c-0.033,4.549,2.628,4.027,5.446,4.027c151.943-0.005,303.885-0.02,455.831,0.076c4.084,0.003,5.326-1.114,5.295-5.254
		c-0.184-23.59-0.084-47.182-0.102-70.773c0-1.454-0.166-2.908-0.268-4.617C333.428,408.137,178.416,408.137,22.942,408.137z"/>
	<path display="none" fill-rule="evenodd" clip-rule="evenodd" fill="#FFFFFF" d="M513.5,202.5
		c-6.658-20.346-13.426-40.655-19.951-61.044c-13.13-41.025-26.115-82.098-39.187-123.142C450.438,5.995,444.18,1.501,431.131,1.501
		C315.326,1.499,199.521,1.499,83.716,1.502c-12.969,0-19.133,4.501-23.119,16.957C41.436,78.334,22.268,138.207,3.204,198.113
		c-1.042,3.273-1.613,6.839-1.631,10.272c-0.134,25.826-0.542,51.667,0.194,77.473c0.241,8.447,0.243,16.764,0,25.211
		c-0.737,25.639-0.992,51.344,0.11,76.957c0.409,9.493-0.146,18.794-0.271,28.196C1.287,440.046,1.5,463.876,1.5,487.703
		c0,15.093,3.354,20.182,17,25.797c-5.998,0-11.995,0-17.995,0C0.503,342.571,0.503,171.642,0.503,0.606
		c170.997,0,341.997,0,512.997,0C513.5,67.888,513.5,135.193,513.5,202.5z"/>
	<path display="none" fill-rule="evenodd" clip-rule="evenodd" fill="#FFFFFF" d="M496.5,513.5c8.756-2.577,14.423-8.244,17-17
		c0,5.667,0,11.333,0,17C507.833,513.5,502.167,513.5,496.5,513.5z"/>
	<path display="none" fill-rule="evenodd" clip-rule="evenodd" fill="#FFFFFF" d="M485.759,185.488c-152.408,0-304.337,0-456.798,0
		c0.528-1.872,0.918-3.43,1.405-4.956c16.387-51.345,32.813-102.676,49.107-154.05c1.077-3.395,2.554-4.628,6.234-4.624
		c114.492,0.104,228.984,0.101,343.476,0.011c3.562-0.003,5.216,0.983,6.327,4.503c16.23,51.394,32.619,102.737,48.955,154.098
		C484.953,182.004,485.274,183.591,485.759,185.488z"/>
	<path display="none" fill-rule="evenodd" clip-rule="evenodd" fill="#FFFFFF" d="M22.269,287.571c0-27.192,0-53.96,0-80.955
		c156.922,0,313.519,0,470.451,0c0,26.954,0,53.726,0,80.955C336.036,287.571,179.356,287.571,22.269,287.571z M442.046,267.613
		c11.181-0.097,20.355-9.351,20.282-20.457c-0.073-11.077-9.407-20.367-20.486-20.39c-11.285-0.023-20.53,9.429-20.388,20.846
		C421.594,258.835,430.731,267.711,442.046,267.613z"/>
	<path display="none" fill-rule="evenodd" clip-rule="evenodd" fill="#FFFFFF" d="M492.649,390.257c-157.006,0-313.555,0-470.707,0
		c0-2.036,0-3.83,0-5.624c0-23.324,0.091-46.649-0.082-69.972c-0.032-4.303,0.753-6.021,5.659-6.017
		c153.273,0.14,306.546,0.114,459.819,0.114c1.635,0,3.27,0,5.311,0C492.649,336.118,492.649,363.003,492.649,390.257z
		 M421.451,349.67c0.015,11.217,9.063,20.342,20.257,20.427c11.08,0.084,20.433-9.079,20.62-20.202
		c0.19-11.261-9.205-20.613-20.649-20.557C430.394,329.394,421.436,338.398,421.451,349.67z"/>
	<path display="none" fill-rule="evenodd" clip-rule="evenodd" fill="#FFFFFF" d="M22.285,411.679c157.044,0,313.621,0,470.488,0
		c0.104,1.727,0.271,3.195,0.271,4.664c0.017,23.83-0.084,47.66,0.102,71.488c0.032,4.182-1.222,5.31-5.349,5.307
		c-153.479-0.097-306.956-0.082-460.434-0.077c-2.846,0-5.534,0.527-5.501-4.067c0.18-24.829,0.087-49.659,0.104-74.489
		C21.967,413.693,22.144,412.884,22.285,411.679z M421.445,452.146c0.034,11.195,9.153,20.319,20.328,20.337
		c11.132,0.018,20.419-9.133,20.552-20.251c0.134-11.196-9.47-20.762-20.715-20.635
		C430.481,431.724,421.412,440.965,421.445,452.146z"/>
	<path fill-rule="evenodd" clip-rule="evenodd" d="M438.506,265.512c-11.201,0.097-20.248-8.69-20.387-19.801
		c-0.141-11.303,9.012-20.661,20.184-20.637c10.969,0.022,20.209,9.219,20.281,20.186
		C458.658,256.255,449.574,265.416,438.506,265.512z"/>
	<path fill-rule="evenodd" clip-rule="evenodd" d="M418.117,346.748c-0.016-11.158,8.852-20.074,20.025-20.129
		c11.33-0.057,20.631,9.203,20.441,20.352c-0.186,11.012-9.443,20.083-20.414,20C427.09,366.887,418.131,357.853,418.117,346.748z"
		/>
	<path fill-rule="evenodd" clip-rule="evenodd" d="M418.111,448.2c-0.033-11.07,8.945-20.219,19.963-20.344
		c11.133-0.126,20.641,9.344,20.508,20.429c-0.131,11.007-9.326,20.065-20.346,20.048
		C427.172,468.316,418.145,459.283,418.111,448.2z"/>
</g>
</svg>
