<?xml version="1.0" encoding="utf-8"?>
<!-- Generator: Adobe Illustrator 16.0.0, SVG Export Plug-In . SVG Version: 6.00 Build 0)  -->
<!DOCTYPE svg PUBLIC "-//W3C//DTD SVG 1.1//EN" "http://www.w3.org/Graphics/SVG/1.1/DTD/svg11.dtd">
<svg version="1.1" id="Layer_1" xmlns="http://www.w3.org/2000/svg" xmlns:xlink="http://www.w3.org/1999/xlink" x="0px" y="0px"
	 width="512px" height="512px" viewBox="0 0 512 512" enable-background="new 0 0 512 512" xml:space="preserve">
<g>
	<line fill="none" stroke="#B35047" x1="32" y1="0" x2="32" y2="512"/>
	<line fill="none" stroke="#B35047" x1="64" y1="0" x2="64" y2="512"/>
	<line fill="none" stroke="#B35047" x1="96" y1="0" x2="96" y2="512"/>
	<line fill="none" stroke="#B35047" x1="128" y1="0" x2="128" y2="512"/>
	<line fill="none" stroke="#B35047" x1="160" y1="0" x2="160" y2="512"/>
	<line fill="none" stroke="#B35047" x1="192" y1="0" x2="192" y2="512"/>
	<line fill="none" stroke="#B35047" x1="224" y1="0" x2="224" y2="512"/>
	<line fill="none" stroke="#B35047" x1="256" y1="0" x2="256" y2="512"/>
	<line fill="none" stroke="#B35047" x1="288" y1="0" x2="288" y2="512"/>
	<line fill="none" stroke="#B35047" x1="320" y1="0" x2="320" y2="512"/>
	<line fill="none" stroke="#B35047" x1="352" y1="0" x2="352" y2="512"/>
	<line fill="none" stroke="#B35047" x1="384" y1="0" x2="384" y2="512"/>
	<line fill="none" stroke="#B35047" x1="416" y1="0" x2="416" y2="512"/>
	<line fill="none" stroke="#B35047" x1="448" y1="0" x2="448" y2="512"/>
	<line fill="none" stroke="#B35047" x1="480" y1="0" x2="480" y2="512"/>
	<line fill="none" stroke="#B35047" x1="0" y1="32" x2="512" y2="32"/>
	<line fill="none" stroke="#B35047" x1="0" y1="64" x2="512" y2="64"/>
	<line fill="none" stroke="#B35047" x1="0" y1="96" x2="512" y2="96"/>
	<line fill="none" stroke="#B35047" x1="0" y1="128" x2="512" y2="128"/>
	<line fill="none" stroke="#B35047" x1="0" y1="160" x2="512" y2="160"/>
	<line fill="none" stroke="#B35047" x1="0" y1="192" x2="512" y2="192"/>
	<line fill="none" stroke="#B35047" x1="0" y1="224" x2="512" y2="224"/>
	<line fill="none" stroke="#B35047" x1="0" y1="256" x2="512" y2="256"/>
	<line fill="none" stroke="#B35047" x1="0" y1="288" x2="512" y2="288"/>
	<line fill="none" stroke="#B35047" x1="0" y1="320" x2="512" y2="320"/>
	<line fill="none" stroke="#B35047" x1="0" y1="352" x2="512" y2="352"/>
	<line fill="none" stroke="#B35047" x1="0" y1="384" x2="512" y2="384"/>
	<line fill="none" stroke="#B35047" x1="0" y1="416" x2="512" y2="416"/>
	<line fill="none" stroke="#B35047" x1="0" y1="448" x2="512" y2="448"/>
	<line fill="none" stroke="#B35047" x1="0" y1="480" x2="512" y2="480"/>
	<rect fill="none" stroke="#B35047" width="512" height="512"/>
</g>
<g>
	<path display="none" fill-rule="evenodd" clip-rule="evenodd" fill="#FFFFFF" d="M512,513c-170.883,0-341.841,0-512.824,0
		c0-170.941,0-341.883,0-512.912c170.875,0,341.774,0,512.824,0C512,171,512,342,512,513z M103.601,478.882
		c2.582-1.624,4.096-2.554,5.587-3.519c47.537-30.755,95.095-61.477,142.552-92.354c3.307-2.151,5.512-2.152,8.818,0
		c47.455,30.88,95.01,61.605,142.543,92.364c1.49,0.965,3.001,1.896,5.406,3.41c-0.638-2.995-0.959-4.92-1.459-6.797
		c-14.515-54.495-29.007-108.996-43.665-163.452c-1.053-3.911-0.384-6.116,2.831-8.713c44.324-35.809,88.516-71.78,132.731-107.723
		c1.067-0.868,2.033-1.86,3.828-3.515c-3.028-0.226-4.973-0.408-6.923-0.508c-9.317-0.479-18.639-0.903-27.956-1.408
		c-47.082-2.547-94.161-5.16-141.249-7.58c-3.677-0.188-5.438-1.208-6.812-4.793c-20.406-53.283-40.997-106.495-61.555-159.72
		c-0.554-1.436-1.233-2.822-2.259-5.15c-2.22,5.678-4.041,10.284-5.824,14.905c-19.279,49.974-38.558,99.948-57.814,149.931
		c-0.965,2.504-1.559,4.607-5.226,4.793c-57.241,2.902-114.472,5.999-171.704,9.063c-1.672,0.089-3.337,0.321-6.157,0.602
		c2.179,1.818,3.297,2.773,4.438,3.701c44.226,35.93,88.422,71.896,132.752,107.696c2.981,2.407,3.468,4.468,2.539,7.928
		c-14.238,53.019-28.369,106.066-42.51,159.11C105.587,470.639,104.773,474.151,103.601,478.882z"/>
	<path fill-rule="evenodd" clip-rule="evenodd" d="M103.601,478.882c1.172-4.73,1.986-8.243,2.915-11.727
		c14.142-53.044,28.272-106.092,42.51-159.11c0.929-3.46,0.442-5.521-2.539-7.928c-44.33-35.801-88.526-71.767-132.752-107.696
		c-1.141-0.928-2.259-1.883-4.438-3.701c2.82-0.28,4.484-0.513,6.157-0.602c57.232-3.064,114.463-6.161,171.704-9.063
		c3.667-0.186,4.261-2.289,5.226-4.793c19.257-49.982,38.535-99.957,57.814-149.931c1.783-4.621,3.604-9.228,5.824-14.905
		c1.025,2.328,1.705,3.715,2.259,5.15c20.558,53.225,41.148,106.437,61.555,159.72c1.373,3.585,3.135,4.604,6.812,4.793
		c47.088,2.42,94.167,5.033,141.249,7.58c9.317,0.505,18.639,0.929,27.956,1.408c1.95,0.1,3.895,0.282,6.923,0.508
		c-1.795,1.654-2.761,2.646-3.828,3.515c-44.216,35.942-88.407,71.914-132.731,107.723c-3.215,2.597-3.884,4.802-2.831,8.713
		c14.658,54.456,29.15,108.957,43.665,163.452c0.5,1.877,0.821,3.802,1.459,6.797c-2.405-1.515-3.916-2.445-5.406-3.41
		c-47.533-30.759-95.088-61.484-142.543-92.364c-3.307-2.152-5.512-2.151-8.818,0c-47.458,30.877-95.016,61.599-142.552,92.354
		C107.697,476.328,106.182,477.258,103.601,478.882z M136.861,432.987c2.402-1.507,3.888-2.413,5.348-3.357
		c36.631-23.701,73.292-47.358,109.833-71.196c3.164-2.063,5.182-1.968,8.288,0.056c36.549,23.827,73.209,47.485,109.843,71.183
		c1.432,0.926,2.896,1.802,5.063,3.146c-0.363-1.667-0.474-2.296-0.637-2.911c-11.495-43.249-22.938-86.513-34.598-129.718
		c-0.955-3.536-0.156-5.299,2.528-7.468c32.149-25.959,64.198-52.042,96.267-78.101c3.159-2.567,6.272-5.19,9.828-8.135
		c-1.228-0.279-1.673-0.45-2.126-0.475c-44.257-2.378-88.51-4.835-132.777-6.984c-4.951-0.241-7.087-1.91-8.834-6.503
		c-15.373-40.427-31.043-80.74-46.637-121.084c-0.547-1.415-1.217-2.783-2.188-4.984c-0.97,2.4-1.544,3.764-2.076,5.143
		c-15.634,40.506-31.345,80.982-46.779,121.563c-1.654,4.348-3.892,5.614-8.299,5.821c-34.119,1.608-68.226,3.456-102.335,5.269
		c-10.729,0.57-21.45,1.26-33.083,1.948c2.04,1.783,3.341,2.995,4.718,4.114c33.749,27.426,67.458,54.899,101.335,82.166
		c3.167,2.549,3.613,4.672,2.604,8.361c-6.975,25.515-13.724,51.091-20.533,76.651C146.785,395.615,141.976,413.744,136.861,432.987
		z"/>
	<path fill-rule="evenodd" clip-rule="evenodd" stroke="#000000" stroke-width="2" d="M256.042,356.434
		c-36.542,23.838-77.202,49.495-113.833,73.196c-1.46,0.944-2.945,1.851-5.348,3.357c5.115-19.243,9.924-37.372,14.752-55.495
		c6.81-25.561,13.559-51.137,20.533-76.651c1.008-3.689,0.563-5.813-2.604-8.361c-33.876-27.267-67.586-54.74-101.335-82.166
		c-1.376-1.119-2.678-2.331-4.718-4.114c11.633-0.688,22.355-1.378,33.083-1.948c34.109-1.813,68.216-3.66,102.335-5.269
		c4.407-0.207,6.645-1.474,8.299-5.821c15.434-40.581,31.145-81.058,46.779-121.563c0.532-1.379,1.106-2.742,2.076-5.143"/>
	<path fill-rule="evenodd" clip-rule="evenodd" stroke="#000000" stroke-width="2" d="M446.498,206.011"/>
</g>
</svg>
