<?xml version="1.0" encoding="utf-8"?>
<!-- Generator: Adobe Illustrator 17.0.0, SVG Export Plug-In . SVG Version: 6.00 Build 0)  -->
<!DOCTYPE svg PUBLIC "-//W3C//DTD SVG 1.1//EN" "http://www.w3.org/Graphics/SVG/1.1/DTD/svg11.dtd">
<svg version="1.1" id="Layer_1" xmlns="http://www.w3.org/2000/svg" xmlns:xlink="http://www.w3.org/1999/xlink" x="0px" y="0px"
	 width="512px" height="512px" viewBox="0 0 512 512" enable-background="new 0 0 512 512" xml:space="preserve">
<g>
	<line fill="none" stroke="#B35047" x1="32" y1="0" x2="32" y2="512"/>
	<line fill="none" stroke="#B35047" x1="64" y1="0" x2="64" y2="512"/>
	<line fill="none" stroke="#B35047" x1="96" y1="0" x2="96" y2="512"/>
	<line fill="none" stroke="#B35047" x1="128" y1="0" x2="128" y2="512"/>
	<line fill="none" stroke="#B35047" x1="160" y1="0" x2="160" y2="512"/>
	<line fill="none" stroke="#B35047" x1="192" y1="0" x2="192" y2="512"/>
	<line fill="none" stroke="#B35047" x1="224" y1="0" x2="224" y2="512"/>
	<line fill="none" stroke="#B35047" x1="256" y1="0" x2="256" y2="512"/>
	<line fill="none" stroke="#B35047" x1="288" y1="0" x2="288" y2="512"/>
	<line fill="none" stroke="#B35047" x1="320" y1="0" x2="320" y2="512"/>
	<line fill="none" stroke="#B35047" x1="352" y1="0" x2="352" y2="512"/>
	<line fill="none" stroke="#B35047" x1="384" y1="0" x2="384" y2="512"/>
	<line fill="none" stroke="#B35047" x1="416" y1="0" x2="416" y2="512"/>
	<line fill="none" stroke="#B35047" x1="448" y1="0" x2="448" y2="512"/>
	<line fill="none" stroke="#B35047" x1="480" y1="0" x2="480" y2="512"/>
	<line fill="none" stroke="#B35047" x1="0" y1="32" x2="512" y2="32"/>
	<line fill="none" stroke="#B35047" x1="0" y1="64" x2="512" y2="64"/>
	<line fill="none" stroke="#B35047" x1="0" y1="96" x2="512" y2="96"/>
	<line fill="none" stroke="#B35047" x1="0" y1="128" x2="512" y2="128"/>
	<line fill="none" stroke="#B35047" x1="0" y1="160" x2="512" y2="160"/>
	<line fill="none" stroke="#B35047" x1="0" y1="192" x2="512" y2="192"/>
	<line fill="none" stroke="#B35047" x1="0" y1="224" x2="512" y2="224"/>
	<line fill="none" stroke="#B35047" x1="0" y1="256" x2="512" y2="256"/>
	<line fill="none" stroke="#B35047" x1="0" y1="288" x2="512" y2="288"/>
	<line fill="none" stroke="#B35047" x1="0" y1="320" x2="512" y2="320"/>
	<line fill="none" stroke="#B35047" x1="0" y1="352" x2="512" y2="352"/>
	<line fill="none" stroke="#B35047" x1="0" y1="384" x2="512" y2="384"/>
	<line fill="none" stroke="#B35047" x1="0" y1="416" x2="512" y2="416"/>
	<line fill="none" stroke="#B35047" x1="0" y1="448" x2="512" y2="448"/>
	<line fill="none" stroke="#B35047" x1="0" y1="480" x2="512" y2="480"/>
	<rect x="0" fill="none" stroke="#B35047" width="512" height="512"/>
</g>
<image display="none" overflow="visible" width="512" height="512" xlink:href="../../../Knowledge/Icon/[+++++] (Full) iOS7 icons [icons8]/Time_and_Date/week_view/week_view-512.png" >
</image>
<image display="none" overflow="visible" width="512" height="512" xlink:href="../../../Knowledge/Icon/[+++++] (Full) iOS7 icons [icons8]/Time_and_Date/day_view/day_view-512.png" >
</image>
<image display="none" overflow="visible" width="512" height="512" xlink:href="../../../Knowledge/Icon/[+++++] (Full) iOS7 icons [icons8]/Time_and_Date/date_to/date_to-512.png" >
</image>
<image display="none" overflow="visible" width="512" height="512" xlink:href="../../../Knowledge/Icon/[+++++] (Full) iOS7 icons [icons8]/Time_and_Date/date_from/date_from-512.png" >
</image>
<g>
	<path d="M510.993,58.787c0,145.093,0,290.186,0,435.28c-2.567,8.722-8.211,14.366-16.933,16.933c-158.706,0-317.412,0-476.118,0
		C4.35,505.408,1.008,500.338,1.008,485.305c0-140.073-0.004-280.145,0.005-420.218C1.014,50.19,9.26,41.867,24.037,41.846
		c21.077-0.03,42.155-0.008,63.232-0.008c1.747,0,3.494,0,5.469,0c0-6.72-0.069-12.686,0.014-18.65
		c0.188-13.503,8.763-22.051,22.182-22.164c5.144-0.044,10.29-0.014,15.434-0.006c15.443,0.024,23.614,8.176,23.69,23.656
		c0.027,5.58,0.004,11.161,0.004,16.838c68.27,0,135.886,0,203.877,0c0-6.278-0.093-12.234,0.019-18.187
		c0.262-13.902,8.698-22.217,22.532-22.303c5.145-0.032,10.29-0.015,15.435-0.004c14.998,0.032,23.287,8.384,23.335,23.52
		c0.018,5.599,0.003,11.197,0.003,17.301c2.253,0,4.037,0,5.821,0c20.082,0,40.163-0.001,60.245,0
		C500.353,41.839,505.457,45.211,510.993,58.787z M21.371,164.539c0,1.879,0,3.502,0,5.125c0,105.078,0.028,210.156-0.094,315.234
		c-0.005,4.536,1.189,5.84,5.794,5.837c152.554-0.118,305.109-0.122,457.663,0.011c4.914,0.004,6.003-1.445,5.997-6.15
		c-0.131-104.912-0.101-209.824-0.101-314.736c0-1.753,0-3.506,0-5.321C333.884,164.539,177.904,164.539,21.371,164.539z
		 M21.642,143.32c156.416,0,312.495,0,468.67,0c0.133-1.055,0.285-1.701,0.286-2.348c0.019-24.901-0.051-49.802,0.106-74.701
		c0.025-3.945-1.898-4.156-4.919-4.145c-20.584,0.074-41.169,0.033-61.753,0.051c-1.455,0.001-2.909,0.173-4.772,0.292
		c0,6.6,0.146,12.887-0.031,19.165c-0.354,12.557-8.492,20.797-20.999,21.264c-5.471,0.204-10.955,0.072-16.433,0.054
		c-15.846-0.052-23.801-8.049-23.856-23.975c-0.019-5.428-0.003-10.855-0.003-16.387c-68.257,0-135.858,0-203.883,0
		c0,6.54,0.168,12.667-0.034,18.782c-0.437,13.223-8.561,21.238-21.728,21.556c-5.143,0.124-10.292,0.039-15.438,0.025
		c-16.161-0.042-24.096-8.012-24.116-24.213c-0.007-5.395-0.001-10.789-0.001-16.077c-1.224-0.263-1.7-0.453-2.176-0.454
		c-21.746-0.026-43.493,0.05-65.239-0.122c-4.137-0.033-3.975,2.245-3.971,5.078c0.037,23.905,0.016,47.809,0.033,71.714
		C21.384,140.34,21.549,141.8,21.642,143.32z M133.305,82.396c0-20.356,0-40.346,0-60.575c-6.643,0-13.134,0-19.684,0
		c0,20.407,0,40.37,0,60.575C120.21,82.396,126.451,82.396,133.305,82.396z M378.616,82.345c6.807,0,13.169,0,19.679,0
		c0-20.369,0-40.44,0-60.556c-6.803,0-13.163,0-19.679,0C378.616,42.063,378.616,61.925,378.616,82.345z"/>
	<path display="none" fill="#FFFFFF" d="M511.002,59.594c-5.525-13.55-10.619-16.915-25.613-16.916c-20.043-0.001-40.086,0-60.129,0
		c-1.781,0-3.561,0-5.81,0c0-6.092,0.015-11.68-0.003-17.268c-0.049-15.107-8.321-23.443-23.291-23.475
		c-5.135-0.011-10.27-0.028-15.405,0.004c-13.807,0.085-22.228,8.385-22.489,22.26c-0.112,5.941-0.019,11.887-0.019,18.152
		c-67.861,0-135.348,0-203.487,0c0-5.666,0.023-11.236-0.004-16.806c-0.076-15.451-8.231-23.587-23.645-23.611
		c-5.135-0.008-10.27-0.037-15.405,0.006c-13.393,0.113-21.952,8.645-22.14,22.122c-0.083,5.953-0.014,11.908-0.014,18.615
		c-1.972,0-3.715,0-5.459,0c-21.037,0-42.074-0.021-63.111,0.008c-14.748,0.021-22.979,8.327-22.98,23.196
		c-0.009,139.805-0.005,279.61-0.005,419.415c0,15.004,3.335,20.064,16.901,25.646c-5.962,0-11.925,0-17.889,0
		C1.002,341.021,1.002,171.099,1.002,1.058c169.997,0,339.999,0,510,0C511.002,20.508,511.002,40.051,511.002,59.594z"/>
	<path display="none" fill="#FFFFFF" d="M494.101,510.942c8.705-2.562,14.339-8.196,16.901-16.901c0,5.634,0,11.267,0,16.901
		C505.368,510.942,499.735,510.942,494.101,510.942z"/>
	<path display="none" fill="#FFFFFF" d="M22.316,165.143c156.234,0,311.916,0,468.362,0c0,1.812,0,3.561,0,5.311
		c0,104.712-0.031,209.423,0.1,314.135c0.006,4.696-1.081,6.143-5.985,6.139c-152.263-0.133-304.525-0.129-456.788-0.011
		c-4.597,0.004-5.789-1.298-5.783-5.826c0.121-104.877,0.094-209.755,0.094-314.632C22.316,168.638,22.316,167.018,22.316,165.143z
		 M246.469,369.343c-20.919-18.901-41.365-37.375-61.98-56.001c-4.783,5.311-9.146,10.156-13.619,15.124
		c26.794,24.214,53.124,48.009,79.733,72.056c34.082-52.87,67.676-104.984,101.406-157.309c-5.94-3.827-11.434-7.368-17.104-11.021
		C305.337,278.048,276.116,323.366,246.469,369.343z"/>
	<path display="none" fill="#FFFFFF" d="M22.586,143.965c-0.092-1.517-0.257-2.975-0.258-4.432
		c-0.016-23.859,0.004-47.718-0.033-71.577c-0.004-2.828-0.166-5.101,3.963-5.069c21.704,0.171,43.409,0.096,65.114,0.122
		c0.475,0.001,0.95,0.191,2.172,0.453c0,5.278-0.006,10.662,0.001,16.047c0.02,16.17,7.94,24.125,24.07,24.167
		c5.136,0.013,10.275,0.099,15.408-0.025c13.142-0.317,21.25-8.318,21.687-21.515c0.202-6.103,0.034-12.219,0.034-18.746
		c67.894,0,135.366,0,203.493,0c0,5.521-0.016,10.939,0.003,16.356c0.055,15.895,7.994,23.877,23.81,23.929
		c5.468,0.018,10.941,0.15,16.402-0.054c12.483-0.466,20.606-8.69,20.959-21.223c0.177-6.266,0.031-12.541,0.031-19.128
		c1.859-0.118,3.311-0.29,4.763-0.292c20.545-0.017,41.09,0.023,61.635-0.05c3.016-0.011,4.934,0.2,4.91,4.137
		c-0.156,24.852-0.087,49.705-0.105,74.558c0,0.645-0.152,1.291-0.285,2.343C334.484,143.965,178.703,143.965,22.586,143.965z"/>
	<path display="none" fill="#FFFFFF" d="M134.036,83.157c-6.841,0-13.07,0-19.646,0c0-20.166,0-40.091,0-60.459
		c6.537,0,13.016,0,19.646,0C134.036,42.888,134.036,62.84,134.036,83.157z"/>
	<path display="none" fill="#FFFFFF" d="M378.878,83.107c0-20.381,0-40.205,0-60.44c6.504,0,12.851,0,19.642,0
		c0,20.078,0,40.11,0,60.44C392.022,83.107,385.672,83.107,378.878,83.107z"/>
	<path d="M245.953,369.13c29.704-46.066,58.981-91.471,88.605-137.413c5.681,3.66,11.186,7.207,17.137,11.042
		c-33.795,52.425-67.453,104.638-101.6,157.61c-26.66-24.093-53.04-47.933-79.886-72.194c4.482-4.977,8.853-9.831,13.645-15.153
		C204.509,331.684,224.994,350.193,245.953,369.13z"/>
</g>
</svg>
