<?xml version="1.0" encoding="utf-8"?>
<!-- Generator: Adobe Illustrator 16.0.0, SVG Export Plug-In . SVG Version: 6.00 Build 0)  -->
<!DOCTYPE svg PUBLIC "-//W3C//DTD SVG 1.1//EN" "http://www.w3.org/Graphics/SVG/1.1/DTD/svg11.dtd">
<svg version="1.1" id="Layer_1" xmlns="http://www.w3.org/2000/svg" xmlns:xlink="http://www.w3.org/1999/xlink" x="0px" y="0px"
	 width="512px" height="512px" viewBox="0 0 512 512" enable-background="new 0 0 512 512" xml:space="preserve">
<g>
	<line fill="none" stroke="#B35047" x1="32" y1="0" x2="32" y2="512"/>
	<line fill="none" stroke="#B35047" x1="64" y1="0" x2="64" y2="512"/>
	<line fill="none" stroke="#B35047" x1="96" y1="0" x2="96" y2="512"/>
	<line fill="none" stroke="#B35047" x1="128" y1="0" x2="128" y2="512"/>
	<line fill="none" stroke="#B35047" x1="160" y1="0" x2="160" y2="512"/>
	<line fill="none" stroke="#B35047" x1="192" y1="0" x2="192" y2="512"/>
	<line fill="none" stroke="#B35047" x1="224" y1="0" x2="224" y2="512"/>
	<line fill="none" stroke="#B35047" x1="256" y1="0" x2="256" y2="512"/>
	<line fill="none" stroke="#B35047" x1="288" y1="0" x2="288" y2="512"/>
	<line fill="none" stroke="#B35047" x1="320" y1="0" x2="320" y2="512"/>
	<line fill="none" stroke="#B35047" x1="352" y1="0" x2="352" y2="512"/>
	<line fill="none" stroke="#B35047" x1="384" y1="0" x2="384" y2="512"/>
	<line fill="none" stroke="#B35047" x1="416" y1="0" x2="416" y2="512"/>
	<line fill="none" stroke="#B35047" x1="448" y1="0" x2="448" y2="512"/>
	<line fill="none" stroke="#B35047" x1="480" y1="0" x2="480" y2="512"/>
	<line fill="none" stroke="#B35047" x1="0" y1="32" x2="512" y2="32"/>
	<line fill="none" stroke="#B35047" x1="0" y1="64" x2="512" y2="64"/>
	<line fill="none" stroke="#B35047" x1="0" y1="96" x2="512" y2="96"/>
	<line fill="none" stroke="#B35047" x1="0" y1="128" x2="512" y2="128"/>
	<line fill="none" stroke="#B35047" x1="0" y1="160" x2="512" y2="160"/>
	<line fill="none" stroke="#B35047" x1="0" y1="192" x2="512" y2="192"/>
	<line fill="none" stroke="#B35047" x1="0" y1="224" x2="512" y2="224"/>
	<line fill="none" stroke="#B35047" x1="0" y1="256" x2="512" y2="256"/>
	<line fill="none" stroke="#B35047" x1="0" y1="288" x2="512" y2="288"/>
	<line fill="none" stroke="#B35047" x1="0" y1="320" x2="512" y2="320"/>
	<line fill="none" stroke="#B35047" x1="0" y1="352" x2="512" y2="352"/>
	<line fill="none" stroke="#B35047" x1="0" y1="384" x2="512" y2="384"/>
	<line fill="none" stroke="#B35047" x1="0" y1="416" x2="512" y2="416"/>
	<line fill="none" stroke="#B35047" x1="0" y1="448" x2="512" y2="448"/>
	<line fill="none" stroke="#B35047" x1="0" y1="480" x2="512" y2="480"/>
	<rect fill="none" stroke="#B35047" width="512" height="512"/>
</g>
<g>
	<path display="none" fill-rule="evenodd" clip-rule="evenodd" fill="#FFFFFF" d="M293.519,11.26c64.863,0,129.726,0,194.644,0
		c0,158.989,0,317.977,0,476.966c-47.198,0-94.371,0-141.544,0c0.634-0.365,1.229-0.838,1.906-1.077
		c11.638-4.113,17.742-12.347,18.707-24.625c0.887-11.291,1.987-22.564,3.001-33.845c3.293-36.623,6.612-73.242,9.879-109.867
		c2.936-32.916,5.802-65.837,8.727-98.755c3.322-37.398,6.668-74.794,10.022-112.19c0.882-9.83,1.834-19.654,2.738-29.306
		c4.71-0.438,8.959-0.359,12.962-1.314c6.604-1.576,9.147-10.166,4.107-14.668c-2.465-2.202-6.595-3.515-9.987-3.547
		c-28.714-0.272-57.433-0.156-86.148-0.156c-1.817,0-3.635,0-5.937,0c0-6.202,0.085-11.905-0.017-17.605
		c-0.222-12.377-5.429-21.765-16.765-27.332C297.77,12.934,295.62,12.146,293.519,11.26z"/>
	<path display="none" fill-rule="evenodd" clip-rule="evenodd" fill="#FFFFFF" d="M152.851,488.226c-47.2,0-94.399,0-141.599,0
		c0-158.989,0-317.977,0-476.966c64.899,0,129.799,0,194.699,0c-0.65,0.352-1.266,0.805-1.957,1.04
		c-13.681,4.669-20.87,14.474-21.105,28.97c-0.093,5.699-0.016,11.401-0.016,17.606c-2.301,0-4.118,0-5.935,0
		c-29.027,0-58.054-0.031-87.081,0.024c-6.966,0.013-11.487,3.81-11.613,9.391c-0.132,5.818,4.47,9.706,11.676,9.826
		c2.585,0.042,5.172,0.006,7.927,0.006c0.95,10.154,1.884,19.713,2.73,29.28c3.239,36.627,6.416,73.26,9.682,109.885
		c3.569,40.024,7.234,80.04,10.815,120.063c3.789,42.341,7.462,84.693,11.333,127.027c0.939,10.276,6.593,17.484,15.901,21.846
		C149.806,486.927,151.336,487.561,152.851,488.226z"/>
	<path fill-rule="evenodd" clip-rule="evenodd" d="M158.851,494.226c-1.515-0.665-3.045-1.299-4.543-2.002
		c-9.309-4.361-14.962-11.569-15.901-21.846c-3.871-42.334-7.545-84.687-11.333-127.027c-3.581-40.023-7.246-80.039-10.815-120.063
		c-3.266-36.625-6.442-73.258-9.682-109.885c-0.846-9.567-1.78-19.125-2.73-29.28c-2.754,0-5.341,0.036-7.927-0.006
		c-7.206-0.12-11.808-4.008-11.676-9.826c0.126-5.581,4.647-9.378,11.613-9.391c29.027-0.055,58.054-0.024,87.081-0.024
		c1.817,0,3.634,0,5.935,0c0-6.205-0.077-11.907,0.016-17.606c0.235-14.496,7.425-24.3,21.105-28.97
		c0.69-0.235,1.306-0.688,1.957-1.04c29.189,0,58.378,0,87.568,0c2.102,0.887,4.251,1.674,6.296,2.678
		c11.336,5.567,16.543,14.955,16.765,27.332c0.102,5.701,0.017,11.404,0.017,17.605c2.302,0,4.119,0,5.937,0
		c28.716,0,57.435-0.117,86.148,0.156c3.393,0.032,7.522,1.345,9.987,3.547c5.04,4.502,2.496,13.093-4.107,14.668
		c-4.003,0.955-8.252,0.875-12.962,1.314c-0.904,9.652-1.856,19.477-2.738,29.306c-3.354,37.396-6.7,74.792-10.022,112.19
		c-2.925,32.918-5.791,65.839-8.727,98.755c-3.267,36.625-6.586,73.244-9.879,109.867c-1.014,11.28-2.114,22.554-3.001,33.845
		c-0.965,12.278-7.069,20.512-18.707,24.625c-0.678,0.239-1.272,0.712-1.906,1.077C288.029,494.226,223.44,494.226,158.851,494.226z
		 M123.483,84.375c0,1.876-0.106,3.272,0.016,4.647c2.582,29.216,5.181,58.428,7.793,87.641c2.957,33.075,5.945,66.149,8.891,99.226
		c2.629,29.522,5.201,59.05,7.833,88.571c2.962,33.231,6.019,66.454,8.907,99.691c0.818,9.417,2.269,11.023,11.646,11.026
		c33.38,0.007,66.761,0.003,100.141,0.002c25.308,0,50.615,0.023,75.922-0.02c6.566-0.011,9.134-2.127,9.68-8.113
		c1.973-21.635,3.84-43.279,5.753-64.92c2.596-29.369,5.179-58.74,7.802-88.106c2.953-33.076,5.954-66.148,8.919-99.224
		c3.034-33.848,6.061-67.696,9.066-101.547c0.846-9.525,1.609-19.057,2.436-28.876C299.75,84.375,211.802,84.375,123.483,84.375z
		 M303.351,64.684c0-5.276,0.005-10.207-0.002-15.136c-0.012-10.369-2.838-13.223-13.29-13.235
		c-22.961-0.026-45.922-0.018-68.882,0.01c-1.854,0.002-3.742,0.077-5.553,0.428c-4.09,0.792-6.958,3.428-7.223,7.461
		c-0.441,6.737-0.12,13.526-0.12,20.473C240.005,64.684,271.301,64.684,303.351,64.684z"/>
	<path display="none" fill-rule="evenodd" clip-rule="evenodd" fill="#FFFFFF" d="M117.483,78.375c88.319,0,176.267,0,264.803,0
		c-0.826,9.819-1.59,19.351-2.436,28.876c-3.006,33.851-6.032,67.699-9.066,101.547c-2.965,33.076-5.966,66.147-8.919,99.224
		c-2.623,29.366-5.206,58.737-7.802,88.106c-1.913,21.641-3.78,43.285-5.753,64.92c-0.546,5.986-3.113,8.103-9.68,8.113
		c-25.307,0.043-50.614,0.02-75.922,0.02c-33.38,0.001-66.76,0.005-100.141-0.002c-9.378-0.003-10.828-1.609-11.646-11.026
		c-2.888-33.237-5.945-66.46-8.907-99.691c-2.631-29.521-5.203-59.049-7.833-88.571c-2.945-33.077-5.934-66.151-8.891-99.226
		c-2.612-29.213-5.211-58.425-7.793-87.641C117.377,81.647,117.483,80.251,117.483,78.375z M202.12,273.485
		c0-50.919,0.011-101.837-0.036-152.756c-0.002-2.449-0.189-4.993-0.857-7.329c-1.87-6.537-10.313-8.978-14.753-3.867
		c-2.174,2.503-3.452,6.644-3.458,10.045c-0.177,102.613-0.148,205.226-0.114,307.838c0.001,1.991,0.238,4.036,0.735,5.96
		c1.319,5.098,5.921,7.737,11.033,6.529c5.183-1.225,7.445-4.915,7.446-12.271C202.122,376.253,202.119,324.869,202.12,273.485z
		 M316.599,273.968c0-51.073,0.01-102.148-0.03-153.222c-0.001-2.301-0.188-4.664-0.732-6.891
		c-1.207-4.929-5.616-7.601-10.585-6.702c-5.396,0.978-7.896,4.868-7.896,12.406c-0.006,102.614-0.01,205.228,0.03,307.841
		c0.001,2.14,0.27,4.348,0.841,6.404c1.277,4.603,5.745,7.148,10.427,6.208c5.517-1.107,7.939-4.827,7.941-12.356
		C316.604,376.427,316.599,325.197,316.599,273.968z M240.263,273.703c0,51.07-0.007,102.141,0.023,153.211
		c0.001,2.153-0.368,4.785,0.686,6.354c1.745,2.598,4.174,5.19,6.926,6.541c3.335,1.636,7.078,0.08,8.871-3.016
		c1.527-2.636,2.339-6.07,2.342-9.152c0.116-102.606,0.102-205.213,0.062-307.819c-0.001-2.293-0.174-4.701-0.871-6.859
		c-1.942-6.01-10.049-8.423-14.237-3.757c-2.281,2.542-3.63,6.84-3.646,10.354C240.192,170.941,240.264,222.322,240.263,273.703z"/>
	<path display="none" fill-rule="evenodd" clip-rule="evenodd" fill="#FFFFFF" d="M297.351,58.684c-32.05,0-63.346,0-95.071,0
		c0-6.947-0.321-13.735,0.12-20.473c0.265-4.033,3.133-6.668,7.223-7.461c1.812-0.351,3.7-0.426,5.553-0.428
		c22.96-0.027,45.921-0.036,68.882-0.01c10.452,0.012,13.278,2.866,13.29,13.235C297.355,48.477,297.351,53.407,297.351,58.684z"/>
	<path fill-rule="evenodd" clip-rule="evenodd" d="M208.119,279.485c0,51.384,0.003,102.768-0.004,154.151
		c-0.001,7.355-2.263,11.046-7.446,12.271c-5.112,1.208-9.714-1.432-11.033-6.529c-0.498-1.924-0.734-3.969-0.735-5.96
		c-0.034-102.612-0.063-205.225,0.114-307.838c0.006-3.401,1.284-7.542,3.458-10.045c4.44-5.111,12.884-2.67,14.753,3.867
		c0.668,2.336,0.855,4.88,0.857,7.329C208.131,177.648,208.12,228.566,208.119,279.485z"/>
	<path fill-rule="evenodd" clip-rule="evenodd" d="M322.599,279.968c0,51.229,0.005,102.459-0.005,153.688
		c-0.002,7.529-2.425,11.249-7.941,12.356c-4.682,0.94-9.149-1.605-10.427-6.208c-0.571-2.057-0.84-4.265-0.841-6.404
		c-0.04-102.613-0.036-205.227-0.03-307.841c0-7.538,2.501-11.429,7.896-12.406c4.969-0.898,9.378,1.773,10.585,6.702
		c0.544,2.227,0.731,4.59,0.732,6.891C322.608,177.82,322.599,228.895,322.599,279.968z"/>
	<path fill-rule="evenodd" clip-rule="evenodd" d="M246.263,279.703c0-51.381-0.071-102.762,0.155-154.143
		c0.016-3.513,1.365-7.812,3.646-10.354c4.188-4.666,12.294-2.253,14.237,3.757c0.697,2.158,0.87,4.565,0.871,6.859
		c0.04,102.606,0.055,205.212-0.062,307.819c-0.003,3.082-0.814,6.517-2.342,9.152c-1.793,3.096-5.535,4.651-8.871,3.016
		c-2.752-1.351-5.182-3.943-6.926-6.541c-1.054-1.569-0.684-4.201-0.686-6.354C246.256,381.844,246.263,330.773,246.263,279.703z"/>
</g>
</svg>
