<?xml version="1.0" encoding="utf-8"?>
<!-- Generator: Adobe Illustrator 17.0.0, SVG Export Plug-In . SVG Version: 6.00 Build 0)  -->
<!DOCTYPE svg PUBLIC "-//W3C//DTD SVG 1.1//EN" "http://www.w3.org/Graphics/SVG/1.1/DTD/svg11.dtd">
<svg version="1.1" id="Layer_1" xmlns="http://www.w3.org/2000/svg" xmlns:xlink="http://www.w3.org/1999/xlink" x="0px" y="0px"
	 width="512px" height="512px" viewBox="0 0 512 512" enable-background="new 0 0 512 512" xml:space="preserve">
<g>
	<line fill="none" stroke="#B35047" x1="32" y1="0" x2="32" y2="512"/>
	<line fill="none" stroke="#B35047" x1="64" y1="0" x2="64" y2="512"/>
	<line fill="none" stroke="#B35047" x1="96" y1="0" x2="96" y2="512"/>
	<line fill="none" stroke="#B35047" x1="128" y1="0" x2="128" y2="512"/>
	<line fill="none" stroke="#B35047" x1="160" y1="0" x2="160" y2="512"/>
	<line fill="none" stroke="#B35047" x1="192" y1="0" x2="192" y2="512"/>
	<line fill="none" stroke="#B35047" x1="224" y1="0" x2="224" y2="512"/>
	<line fill="none" stroke="#B35047" x1="256" y1="0" x2="256" y2="512"/>
	<line fill="none" stroke="#B35047" x1="288" y1="0" x2="288" y2="512"/>
	<line fill="none" stroke="#B35047" x1="320" y1="0" x2="320" y2="512"/>
	<line fill="none" stroke="#B35047" x1="352" y1="0" x2="352" y2="512"/>
	<line fill="none" stroke="#B35047" x1="384" y1="0" x2="384" y2="512"/>
	<line fill="none" stroke="#B35047" x1="416" y1="0" x2="416" y2="512"/>
	<line fill="none" stroke="#B35047" x1="448" y1="0" x2="448" y2="512"/>
	<line fill="none" stroke="#B35047" x1="480" y1="0" x2="480" y2="512"/>
	<line fill="none" stroke="#B35047" x1="0" y1="32" x2="512" y2="32"/>
	<line fill="none" stroke="#B35047" x1="0" y1="64" x2="512" y2="64"/>
	<line fill="none" stroke="#B35047" x1="0" y1="96" x2="512" y2="96"/>
	<line fill="none" stroke="#B35047" x1="0" y1="128" x2="512" y2="128"/>
	<line fill="none" stroke="#B35047" x1="0" y1="160" x2="512" y2="160"/>
	<line fill="none" stroke="#B35047" x1="0" y1="192" x2="512" y2="192"/>
	<line fill="none" stroke="#B35047" x1="0" y1="224" x2="512" y2="224"/>
	<line fill="none" stroke="#B35047" x1="0" y1="256" x2="512" y2="256"/>
	<line fill="none" stroke="#B35047" x1="0" y1="288" x2="512" y2="288"/>
	<line fill="none" stroke="#B35047" x1="0" y1="320" x2="512" y2="320"/>
	<line fill="none" stroke="#B35047" x1="0" y1="352" x2="512" y2="352"/>
	<line fill="none" stroke="#B35047" x1="0" y1="384" x2="512" y2="384"/>
	<line fill="none" stroke="#B35047" x1="0" y1="416" x2="512" y2="416"/>
	<line fill="none" stroke="#B35047" x1="0" y1="448" x2="512" y2="448"/>
	<line fill="none" stroke="#B35047" x1="0" y1="480" x2="512" y2="480"/>
	<rect x="0" fill="none" stroke="#B35047" width="512" height="512"/>
</g>
<image display="none" overflow="visible" width="512" height="512" xlink:href="../../../Knowledge/Icon/[+++++] (Full) iOS7 icons [icons8]/Very_Basic/scales_of_Balance/scales_of_Balance-512.png"  transform="matrix(1 0 0 1 -1.525879e-005 0)">
</image>
<image display="none" overflow="visible" width="512" height="512" xlink:href="../../../Knowledge/Icon/[+++++] (Full) iOS7 icons [icons8]/Very_Basic/reload/reload-512.png"  transform="matrix(1 0 0 1 -1.525879e-005 0)">
</image>
<image display="none" overflow="visible" width="512" height="512" xlink:href="../../../Knowledge/Icon/[+++++] (Full) iOS7 icons [icons8]/Very_Basic/recycle_sign/recycle_sign-512.png"  transform="matrix(1 0 0 1 -1.525879e-005 0)">
</image>
<image display="none" overflow="visible" width="512" height="512" xlink:href="../../../Knowledge/Icon/[+++++] (Full) iOS7 icons [icons8]/Very_Basic/puzzle/puzzle-512.png"  transform="matrix(1 0 0 1 -1.525879e-005 0)">
</image>
<image display="none" overflow="visible" width="512" height="512" xlink:href="../../../Knowledge/Icon/[+++++] (Full) iOS7 icons [icons8]/Very_Basic/presentation/presentation-512.png"  transform="matrix(1 0 0 1 -1.525879e-005 0)">
</image>
<image display="none" overflow="visible" width="512" height="512" xlink:href="../../../Knowledge/Icon/[+++++] (Full) iOS7 icons [icons8]/Very_Basic/plugin/plugin-512.png"  transform="matrix(1 0 0 1 -1.525879e-005 0)">
</image>
<image display="none" overflow="visible" width="512" height="512" xlink:href="../../../Knowledge/Icon/[+++++] (Full) iOS7 icons [icons8]/Very_Basic/plus/plus-512.png"  transform="matrix(1 0 0 1 -1.525879e-005 0)">
</image>
<image display="none" overflow="visible" width="512" height="512" xlink:href="../../../Knowledge/Icon/[+++++] (Full) iOS7 icons [icons8]/Very_Basic/picture/picture-512.png"  transform="matrix(1 0 0 1 -1.525879e-005 0)">
</image>
<image display="none" overflow="visible" width="512" height="512" xlink:href="../../../Knowledge/Icon/[+++++] (Full) iOS7 icons [icons8]/Very_Basic/paper_clip/paper_clip-512.png"  transform="matrix(1 0 0 1 -1.525879e-005 0)">
</image>
<image display="none" overflow="visible" width="512" height="512" xlink:href="../../../Knowledge/Icon/[+++++] (Full) iOS7 icons [icons8]/Very_Basic/opened_folder/opened_folder-512.png"  transform="matrix(1 0 0 1 -1.525879e-005 0)">
</image>
<image display="none" overflow="visible" width="512" height="512" xlink:href="../../../Knowledge/Icon/[+++++] (Full) iOS7 icons [icons8]/Very_Basic/no_smoking/no_smoking-512.png"  transform="matrix(1 0 0 1 -1.525879e-005 0)">
</image>
<image display="none" overflow="visible" width="512" height="512" xlink:href="../../../Knowledge/Icon/[+++++] (Full) iOS7 icons [icons8]/Very_Basic/not_listen/not_listen-512.png"  transform="matrix(1 0 0 1 -1.525879e-005 0)">
</image>
<image display="none" overflow="visible" width="512" height="512" xlink:href="../../../Knowledge/Icon/[+++++] (Full) iOS7 icons [icons8]/Very_Basic/minus/minus-512.png"  transform="matrix(1 0 0 1 -1.525879e-005 0)">
</image>
<image display="none" overflow="visible" width="512" height="512" xlink:href="../../../Knowledge/Icon/[+++++] (Full) iOS7 icons [icons8]/Very_Basic/megaphone/megaphone-512.png"  transform="matrix(1 0 0 1 -1.525879e-005 0)">
</image>
<image display="none" overflow="visible" width="512" height="512" xlink:href="../../../Knowledge/Icon/[+++++] (Full) iOS7 icons [icons8]/Very_Basic/megaphone2/megaphone2-512.png"  transform="matrix(1 0 0 1 -1.525879e-005 0)">
</image>
<image display="none" overflow="visible" width="512" height="512" xlink:href="../../../Knowledge/Icon/[+++++] (Full) iOS7 icons [icons8]/Very_Basic/message/message-512.png"  transform="matrix(1 0 0 1 -1.525879e-005 0)">
</image>
<image display="none" overflow="visible" width="512" height="512" xlink:href="../../../Knowledge/Icon/[+++++] (Full) iOS7 icons [icons8]/Very_Basic/male/male-512.png"  transform="matrix(1 0 0 1 -1.525879e-005 0)">
</image>
<image display="none" overflow="visible" width="512" height="512" xlink:href="../../../Knowledge/Icon/[+++++] (Full) iOS7 icons [icons8]/Very_Basic/lock/lock-512.png"  transform="matrix(1 0 0 1 -1.525879e-005 0)">
</image>
<image display="none" overflow="visible" width="512" height="512" xlink:href="../../../Knowledge/Icon/[+++++] (Full) iOS7 icons [icons8]/Very_Basic/listen/listen-512.png"  transform="matrix(1 0 0 1 -1.525879e-005 0)">
</image>
<image display="none" overflow="visible" width="512" height="512" xlink:href="../../../Knowledge/Icon/[+++++] (Full) iOS7 icons [icons8]/Very_Basic/key/key-512.png"  transform="matrix(1 0 0 1 -1.525879e-005 0)">
</image>
<image display="none" overflow="visible" width="512" height="512" xlink:href="../../../Knowledge/Icon/[+++++] (Full) iOS7 icons [icons8]/Very_Basic/info/info-512.png"  transform="matrix(1 0 0 1 -1.525879e-005 0)">
</image>
<image display="none" overflow="visible" width="512" height="512" xlink:href="../../../Knowledge/Icon/[+++++] (Full) iOS7 icons [icons8]/Very_Basic/idea/idea-512.png"  transform="matrix(1 0 0 1 -1.525879e-005 0)">
</image>
<image display="none" overflow="visible" width="512" height="512" xlink:href="../../../Knowledge/Icon/[+++++] (Full) iOS7 icons [icons8]/Very_Basic/home/home-512.png"  transform="matrix(1 0 0 1 -1.525879e-005 0)">
</image>
<image display="none" overflow="visible" width="512" height="512" xlink:href="../../../Knowledge/Icon/[+++++] (Full) iOS7 icons [icons8]/Very_Basic/help2/help2-512.png"  transform="matrix(1 0 0 1 -1.525879e-005 0)">
</image>
<image display="none" overflow="visible" width="512" height="512" xlink:href="../../../Knowledge/Icon/[+++++] (Full) iOS7 icons [icons8]/Very_Basic/help/help-512.png"  transform="matrix(1 0 0 1 -1.525879e-005 0)">
</image>
<image display="none" overflow="visible" width="512" height="512" xlink:href="../../../Knowledge/Icon/[+++++] (Full) iOS7 icons [icons8]/Very_Basic/glasses/glasses-512.png"  transform="matrix(1 0 0 1 -1.525879e-005 0)">
</image>
<image display="none" overflow="visible" width="512" height="512" xlink:href="../../../Knowledge/Icon/[+++++] (Full) iOS7 icons [icons8]/Very_Basic/folder/folder-512.png"  transform="matrix(1 0 0 1 -1.525879e-005 0)">
</image>
<image display="none" overflow="visible" width="512" height="512" xlink:href="../../../Knowledge/Icon/[+++++] (Full) iOS7 icons [icons8]/Very_Basic/flag/flag-512.png"  transform="matrix(1 0 0 1 -1.525879e-005 0)">
</image>
<image display="none" overflow="visible" width="512" height="512" xlink:href="../../../Knowledge/Icon/[+++++] (Full) iOS7 icons [icons8]/Very_Basic/flash_light/flash_light-512.png"  transform="matrix(1 0 0 1 -1.525879e-005 0)">
</image>
<image display="none" overflow="visible" width="512" height="512" xlink:href="../../../Knowledge/Icon/[+++++] (Full) iOS7 icons [icons8]/Very_Basic/filter/filter-512.png"  transform="matrix(1 0 0 1 -1.525879e-005 0)">
</image>
<image display="none" overflow="visible" width="512" height="512" xlink:href="../../../Knowledge/Icon/[+++++] (Full) iOS7 icons [icons8]/Very_Basic/female/female-512.png"  transform="matrix(1 0 0 1 -1.525879e-005 0)">
</image>
<image display="none" overflow="visible" width="512" height="512" xlink:href="../../../Knowledge/Icon/[+++++] (Full) iOS7 icons [icons8]/Very_Basic/download/download-512.png"  transform="matrix(1 0 0 1 -1.525879e-005 0)">
</image>
<image display="none" overflow="visible" width="512" height="512" xlink:href="../../../Knowledge/Icon/[+++++] (Full) iOS7 icons [icons8]/Very_Basic/document/document-512.png"  transform="matrix(1 0 0 1 -1.525879e-005 0)">
</image>
<image display="none" overflow="visible" width="512" height="512" xlink:href="../../../Knowledge/Icon/[+++++] (Full) iOS7 icons [icons8]/Very_Basic/design/design-512.png"  transform="matrix(1 0 0 1 -1.525879e-005 0)">
</image>
<image display="none" overflow="visible" width="512" height="512" xlink:href="../../../Knowledge/Icon/[+++++] (Full) iOS7 icons [icons8]/Very_Basic/copy/copy-512.png"  transform="matrix(1 0 0 1 -1.525879e-005 0)">
</image>
<image display="none" overflow="visible" width="512" height="512" xlink:href="../../../Knowledge/Icon/[+++++] (Full) iOS7 icons [icons8]/Very_Basic/code/code-512.png"  transform="matrix(1 0 0 1 -1.525879e-005 0)">
</image>
<image display="none" overflow="visible" width="512" height="512" xlink:href="../../../Knowledge/Icon/[+++++] (Full) iOS7 icons [icons8]/Very_Basic/briefcase/briefcase-512.png"  transform="matrix(1 0 0 1 -1.525879e-005 0)">
</image>
<image display="none" overflow="visible" width="512" height="512" xlink:href="../../../Knowledge/Icon/[+++++] (Full) iOS7 icons [icons8]/Very_Basic/brain/brain-512.png"  transform="matrix(1 0 0 1 -1.525879e-005 0)">
</image>
<image display="none" overflow="visible" width="512" height="512" xlink:href="../../../Knowledge/Icon/[+++++] (Full) iOS7 icons [icons8]/Very_Basic/bluetooth/bluetooth-512.png"  transform="matrix(1 0 0 1 -1.525879e-005 0)">
</image>
<image display="none" overflow="visible" width="512" height="512" xlink:href="../../../Knowledge/Icon/[+++++] (Full) iOS7 icons [icons8]/Very_Basic/bookmark/bookmark-512.png"  transform="matrix(1 0 0 1 -1.525879e-005 0)">
</image>
<image display="none" overflow="visible" width="512" height="512" xlink:href="../../../Knowledge/Icon/[+++++] (Full) iOS7 icons [icons8]/Very_Basic/archive/archive-512.png"  transform="matrix(1 0 0 1 -1.525879e-005 0)">
</image>
<image display="none" overflow="visible" width="512" height="512" xlink:href="../../../Knowledge/Icon/[+++++] (Full) iOS7 icons [icons8]/Very_Basic/wifi/wifi-512.png"  transform="matrix(1 0 0 1 -1.525879e-005 0)">
</image>
<image display="none" overflow="visible" width="512" height="512" xlink:href="../../../Knowledge/Icon/[+++++] (Full) iOS7 icons [icons8]/Very_Basic/upload/upload-512.png"  transform="matrix(1 0 0 1 -1.525879e-005 0)">
</image>
<image display="none" overflow="visible" width="512" height="512" xlink:href="../../../Knowledge/Icon/[+++++] (Full) iOS7 icons [icons8]/Very_Basic/update/update-512.png"  transform="matrix(1 0 0 1 -1.525879e-005 0)">
</image>
<g>
	<path display="none" fill="#FFFFFF" d="M513.35,513.5c-170.883,0-341.841,0-512.825,0c0-170.942,0-341.883,0-512.912
		c170.875,0,341.775,0,512.825,0C513.35,171.5,513.35,342.5,513.35,513.5z M217.417,206.384c-10.593,0-19.595,0.457-28.535-0.095
		c-18.499-1.142-33.981,12.818-33.874,33.444c0.381,73.327,0.137,146.657,0.186,219.986c0.002,3.307,0.11,6.725,0.917,9.9
		c3.79,14.904,15.564,23.419,32.395,23.425c93.827,0.038,187.655,0.03,281.482-0.03c3.464-0.002,7.047-0.268,10.372-1.163
		c14.653-3.946,22.964-15.732,22.968-32.258c0.017-72.829-0.261-145.659,0.173-218.486c0.129-21.655-14.921-35.083-34.648-34.941
		c-74.992,0.541-149.989,0.218-224.985,0.218c-2.111,0-4.221,0-6.805,0c0-2.475,0-4.283,0-6.091c0-17.332-0.037-34.665,0.009-51.997
		c0.056-21.052-4.145-41.096-14.991-59.297c-27.363-45.921-76.881-65.954-128.777-52.388c-43.444,11.357-78.777,53.805-80.83,98.733
		c-1.209,26.445-0.613,52.974-0.764,79.465c-0.009,1.63,0.392,3.312,0.878,4.885c2.071,6.709,10.891,9.433,15.584,4.252
		c2.389-2.637,3.898-7.03,3.957-10.66c0.356-21.993,0.292-43.995,0.149-65.993c-0.162-24.931,7.475-47.009,24.778-65.037
		c25.971-27.059,57.836-35.963,93.592-25.415c34.788,10.263,57.732,34.332,63.401,70.16
		C218.123,152.754,216.483,179.409,217.417,206.384z"/>
	<path d="M214.333,197.547c-0.968-27.973,0.733-55.614-3.492-82.318c-5.878-37.153-29.67-62.113-65.746-72.755
		c-37.079-10.938-70.122-1.705-97.054,26.355c-17.943,18.694-25.863,41.589-25.694,67.443c0.148,22.811,0.215,45.627-0.154,68.434
		c-0.061,3.764-1.626,8.32-4.103,11.054c-4.867,5.373-14.013,2.548-16.161-4.409c-0.504-1.631-0.92-3.376-0.91-5.066
		c0.157-27.471-0.461-54.981,0.793-82.404C3.94,77.289,40.58,33.27,85.631,21.494C139.446,7.426,190.795,28.2,219.171,75.82
		c11.246,18.874,15.603,39.659,15.545,61.49c-0.048,17.973-0.009,35.947-0.009,53.92c0,1.875,0,3.751,0,6.317
		c2.679,0,4.868,0,7.056,0c77.769,0,155.541,0.335,233.307-0.226c20.456-0.147,36.063,13.777,35.929,36.233
		c-0.45,75.52-0.161,151.044-0.179,226.567c-0.004,17.137-8.623,29.359-23.818,33.451c-3.448,0.928-7.163,1.204-10.755,1.206
		c-97.298,0.063-194.596,0.071-291.894,0.032c-17.453-0.007-29.663-8.837-33.593-24.292c-0.837-3.293-0.949-6.838-0.951-10.267
		c-0.051-76.041,0.202-152.084-0.193-228.123c-0.111-21.39,15.944-35.866,35.127-34.681
		C194.013,198.02,203.348,197.547,214.333,197.547z M330.37,473.52c48.381,0,96.762,0.005,145.143-0.004
		c10.502-0.002,13.899-3.411,13.901-14.017c0.012-75.682,0.014-151.364-0.002-227.046c-0.002-10.154-3.615-13.827-13.685-13.829
		c-96.933-0.02-193.867-0.019-290.8-0.003c-10.309,0.002-14.001,3.756-14.003,14.121c-0.01,75.509-0.009,151.018-0.001,226.527
		c0.001,10.789,3.477,14.246,14.303,14.247C233.608,473.524,281.989,473.52,330.37,473.52z"/>
	<path display="none" fill="#FFFFFF" d="M329.315,472.513c-46.655,0-93.311,0.004-139.966-0.003
		c-10.439-0.002-13.791-3.335-13.792-13.739c-0.007-72.816-0.008-145.631,0.001-218.447c0.001-9.995,3.562-13.615,13.503-13.617
		c93.476-0.016,186.951-0.017,280.427,0.003c9.711,0.002,13.195,3.543,13.197,13.336c0.015,72.982,0.014,145.965,0.002,218.947
		c-0.002,10.228-3.277,13.515-13.405,13.517C422.625,472.518,375.97,472.513,329.315,472.513z M359.741,329.079
		c0.005-13.612-8.945-25.481-22.102-29.326c-12.781-3.735-26.926,1.517-34.119,12.667c-7.35,11.393-6.33,25.848,2.127,36.354
		c1.681,2.088,2.7,5.227,2.835,7.94c0.379,7.645-0.039,15.325,0.182,22.983c0.359,12.409,9.092,21.126,20.742,21.017
		c11.663-0.11,20.026-8.958,20.167-21.462c0.086-7.662-0.185-15.335,0.14-22.985c0.101-2.394,1.101-5.14,2.587-7.014
		C357.036,343.282,359.776,336.736,359.741,329.079z"/>
	<path d="M361.922,324.78c0.036,7.94-2.806,14.728-7.717,20.92c-1.541,1.943-2.577,4.79-2.682,7.273
		c-0.336,7.933-0.056,15.889-0.145,23.835c-0.146,12.966-8.819,22.142-20.913,22.255c-12.081,0.114-21.137-8.925-21.509-21.794
		c-0.23-7.94,0.204-15.905-0.189-23.833c-0.139-2.814-1.197-6.069-2.94-8.234c-8.771-10.895-9.828-25.885-2.206-37.699
		c7.459-11.562,22.128-17.008,35.381-13.135C352.646,298.357,361.927,310.664,361.922,324.78z"/>
</g>
<g display="none">
	<path fill="#FFFFFF" d="M187.5,513.5c-62.333,0-124.667,0-187,0c0-171,0-342,0-513c171,0,342,0,513,0c0,171,0,342,0,513
		c-103,0-206,0-309,0c4.627-1.2,9.339-2.147,13.868-3.643c30.305-10.01,49.234-36.849,49.275-70.101
		c0.079-65.329,0.024-130.658,0.025-195.987c0-1.886,0-3.772,0-5.884c11.604,1.376,21.542,4.91,30.852,10.313
		c10.391,6.031,18.821,14.144,25.999,23.756c6.016,8.055,13.599,7.862,19.753-0.082c0.612-0.79,1.192-1.604,1.798-2.4
		c22.832-29.994,62.122-40.417,96.642-25.483c15.795,6.833,29.431,16.826,41.341,29.215c3.447,3.585,7.493,5.723,12.509,3.809
		c5.004-1.909,6.826-6.064,6.748-11.146c-0.615-40.277-9.934-78.266-31.435-112.574c-38.563-61.534-95.961-94.294-166.139-106.734
		c-12.399-2.198-25.038-3.046-38.068-4.576c0-1.718,0.001-3.515,0-5.311c-0.005-7.999,0.178-16.005-0.069-23.997
		c-0.254-8.213-6.786-12.952-13.789-10.153c-4.752,1.9-6.47,5.891-6.472,10.775c-0.004,9.625-0.001,19.249-0.001,28.996
		c-1.853,0.194-3.153,0.385-4.46,0.459c-38.689,2.201-75.91,10.538-110.257,28.813C55.268,112.722,14.565,177.117,11.756,265.001
		c-0.204,6.384,2.272,10.46,6.833,12.065c4.911,1.728,8.317-0.132,13.027-4.851c7.244-7.258,14.418-14.914,22.83-20.62
		c34.203-23.202,86.92-20.004,115.541,19.189c7.122,9.753,14.244,9.633,21.57-0.146c6.889-9.196,15.134-16.822,25.103-22.536
		c9.403-5.389,19.371-9.051,30.674-10.087c0,2.555,0,4.533,0,6.512c0,61.663,0.001,123.325-0.003,184.988
		c0,4.499,0.119,9.006-0.081,13.497c-1.594,35.895-36.209,59.235-69.489,46.432c-18.81-7.236-29.51-21.509-32.399-41.516
		c-0.262-1.812-0.323-3.652-0.543-5.472c-0.82-6.789-5.257-11.191-10.788-10.739c-5.73,0.468-9.809,5.227-9.491,11.931
		c1.325,27.949,14.317,48.859,39.084,61.778C170.983,509.267,179.509,510.871,187.5,513.5z"/>
	<path display="inline" d="M186.217,511c-7.964-2.619-16.459-4.219-23.793-8.044c-24.68-12.874-37.628-33.711-38.948-61.562
		c-0.317-6.681,3.747-11.423,9.458-11.89c5.512-0.451,9.933,3.936,10.75,10.701c0.219,1.813,0.281,3.647,0.541,5.453
		c2.879,19.937,13.542,34.16,32.286,41.371c33.164,12.758,67.658-10.5,69.246-46.27c0.199-4.476,0.08-8.966,0.081-13.45
		c0.004-61.447,0.003-122.895,0.003-184.342c0-1.972,0-3.944,0-6.489c-11.264,1.032-21.197,4.681-30.567,10.051
		c-9.934,5.694-18.15,13.293-25.015,22.457c-7.3,9.745-14.397,9.865-21.494,0.145c-28.521-39.056-81.054-42.243-115.137-19.122
		c-8.382,5.686-15.531,13.315-22.75,20.548c-4.693,4.702-8.087,6.556-12.981,4.834c-4.545-1.6-7.012-5.661-6.809-12.023
		c2.8-87.577,43.36-151.747,120.441-192.761c34.228-18.212,71.318-26.52,109.872-28.713c1.302-0.074,2.597-0.264,4.444-0.458
		c0-9.712-0.003-19.304,0.001-28.895c0.002-4.868,1.714-8.844,6.45-10.738c6.979-2.79,13.488,1.933,13.741,10.117
		c0.246,7.964,0.063,15.941,0.068,23.913c0.001,1.79,0,3.581,0,5.293c12.984,1.525,25.579,2.37,37.935,4.56
		C373.973,58.085,431.17,90.731,469.598,152.05c21.425,34.188,30.713,72.045,31.325,112.181c0.077,5.065-1.738,9.204-6.724,11.107
		c-4.999,1.907-9.031-0.223-12.465-3.796c-11.869-12.346-25.457-22.304-41.197-29.113c-34.399-14.881-73.552-4.495-96.304,25.394
		c-0.603,0.792-1.182,1.604-1.791,2.391c-6.132,7.916-13.689,8.108-19.684,0.081c-7.153-9.577-15.554-17.663-25.909-23.673
		c-9.277-5.385-19.182-8.906-30.745-10.277c0,2.105,0,3.984,0,5.864c-0.001,65.101,0.055,130.202-0.025,195.303
		c-0.04,33.135-18.903,59.881-49.103,69.856c-4.514,1.491-9.209,2.434-13.82,3.63C197.51,511,191.864,511,186.217,511z
		 M32.813,238.213c52.728-33.309,101.477-31.911,147.186,10.939c20.394-22.18,45.889-33.972,76.154-33.936
		c30.222,0.036,55.647,11.959,75.864,33.929c46.783-43.76,95.613-44.33,146.854-8.01c-0.377-3.324-0.536-5.969-0.992-8.562
		c-11.594-65.991-47.833-114.317-107.328-143.876c-69.135-34.348-140.842-36.151-212.24-7.771
		c-59.535,23.664-100.53,66.22-119.025,128.626C36.592,218.645,35.068,228.086,32.813,238.213z"/>
	<path fill="#FFFFFF" d="M33.559,239.758c2.262-10.163,3.792-19.636,6.496-28.761C58.614,148.372,99.754,105.667,159.497,81.92
		c71.648-28.479,143.607-26.67,212.984,7.798c59.703,29.662,96.069,78.158,107.704,144.38c0.457,2.602,0.617,5.257,0.995,8.592
		c-51.42-36.447-100.421-35.874-147.368,8.039c-20.288-22.047-45.802-34.012-76.13-34.048
		c-30.371-0.036-55.955,11.797-76.421,34.055C135.391,207.735,86.472,206.332,33.559,239.758z"/>
</g>
<g display="none">
	<path fill="#FFFFFF" d="M513.5,437.5c0,25.333,0,50.667,0,76c-171,0-342,0-513,0c0-171,0-342,0-513c171,0,342,0,513,0
		c0,46.333,0,92.667,0,139c-6.255-20.339-19.661-25.735-38.189-25.474c-39.823,0.561-79.66,0.172-119.491,0.172
		c-1.941,0-3.881,0-6.23,0c0-10.35,0.067-19.989-0.014-29.627c-0.159-18.723-12.985-31.831-31.753-31.906
		c-40.164-0.162-80.329-0.067-120.493-0.035c-7.173,0.006-13.882,1.788-19.627,6.251c-8.138,6.323-12.304,14.67-12.293,25.037
		c0.01,9.932,0.002,19.864,0.002,30.28c-2.635,0-4.603,0-6.572,0c-41.498,0-82.995-0.052-124.493,0.024
		c-20.117,0.037-32.831,12.774-32.836,32.777C1.486,241.161,1.488,335.322,1.55,429.483c0.002,3.464,0.301,7.048,1.209,10.372
		c3.912,14.32,15.94,22.526,32.634,22.528c121.326,0.008,242.653,0.004,363.979,0.004c27.165,0,54.33,0.002,81.495-0.002
		c10.8-0.001,20.036-3.62,26.413-12.577C509.916,446.106,511.46,441.626,513.5,437.5z"/>
	<path display="inline" d="M511,435.306c-2.032,4.11-3.57,8.572-6.195,12.259c-6.351,8.921-15.551,12.526-26.309,12.527
		c-27.059,0.004-54.118,0.002-81.176,0.002c-120.852,0-241.703,0.004-362.555-0.004c-16.629-0.001-28.609-8.175-32.507-22.438
		c-0.905-3.311-1.202-6.88-1.204-10.331C0.992,333.533,0.99,239.745,1.015,145.956c0.005-19.924,12.669-32.611,32.708-32.647
		c41.335-0.075,82.67-0.023,124.006-0.024c1.961,0,3.922,0,6.546,0c0-10.375,0.008-20.268-0.002-30.16
		c-0.011-10.326,4.139-18.64,12.245-24.938c5.722-4.445,12.405-6.22,19.55-6.226c40.007-0.032,80.015-0.126,120.021,0.034
		c18.694,0.075,31.471,13.131,31.629,31.78c0.081,9.6,0.014,19.201,0.014,29.51c2.339,0,4.272,0,6.205,0
		c39.675,0,79.356,0.387,119.023-0.171c18.455-0.26,31.81,5.114,38.04,25.373C511,237.426,511,336.366,511,435.306z M21.367,246.167
		c0,1.892,0,3.516,0,5.139c0,57.936-0.001,115.871,0.007,173.807c0,1.492,0.015,2.993,0.177,4.473
		c0.69,6.334,4.051,9.536,10.334,9.876c1.49,0.081,2.987,0.05,4.481,0.05c146.423,0.002,292.846,0.002,439.269,0
		c1.494,0,2.991,0.03,4.481-0.05c6.285-0.339,9.652-3.539,10.334-9.873c0.177-1.645,0.18-3.313,0.18-4.971
		c0.009-57.604,0.007-115.207,0.007-172.811c0-1.79,0-3.579,0-5.639c-24.051,0-47.546,0-71.053,0
		c-0.34,1.134-0.769,2.068-0.889,3.039c-1.239,10-10.453,16.897-19.701,16.912c-17.099,0.028-34.199,0.12-51.297-0.037
		c-7.45-0.069-13.563-3.205-17.198-9.918c-1.681-3.105-2.566-6.64-3.812-9.973c-47.254,0-94.508,0-141.682,0
		c-3.682,13.965-9.412,19.71-20.695,19.875c-17.096,0.25-34.199,0.172-51.296,0.009c-7.462-0.071-13.534-3.281-17.163-9.978
		c-1.68-3.101-2.565-6.633-3.797-9.932C68.621,246.167,45.271,246.167,21.367,246.167z M490.409,225.136
		c0.093-2.033,0.218-3.506,0.219-4.98c0.012-24.063,0.027-48.126,0-72.189c-0.012-11.249-3.23-14.388-14.609-14.388
		c-146.71-0.002-293.42-0.002-440.131,0c-11.298,0-14.503,3.173-14.514,14.483c-0.024,23.897-0.013,47.795,0.004,71.692
		c0.001,1.751,0.162,3.502,0.254,5.379c23.907,0,47.267,0,70.731,0c0.342-1.08,0.788-1.993,0.909-2.948
		c1.332-10.519,11.016-17.277,21.065-17.139c16.261,0.223,32.537-0.241,48.786,0.256c4.519,0.138,9.32,1.997,13.359,4.218
		c5.758,3.166,7.337,9.383,8.317,15.425c47.75,0,95.122,0,142.439,0c1.888-14.242,11.555-19.795,20.736-19.819
		c16.928-0.046,33.857-0.091,50.784,0.025c7.471,0.051,13.559,3.158,17.257,9.794c1.724,3.094,2.607,6.657,3.94,10.192
		C443.193,225.136,466.553,225.136,490.409,225.136z M327.333,113.077c0-10.625,0.31-20.726-0.112-30.796
		c-0.268-6.389-4.306-9.694-10.962-9.705c-40.172-0.068-80.344-0.071-120.516,0.002c-6.984,0.013-10.705,3.667-11.13,10.695
		c-0.271,4.466-0.091,8.96-0.098,13.441c-0.009,5.396-0.002,10.792-0.002,16.363C232.46,113.077,279.553,113.077,327.333,113.077z
		 M163.833,245.56c0-6.831,0-13.322,0-19.898c-16.954,0-33.47,0-50.124,0c0,6.83,0,13.328,0,19.898
		C130.662,245.56,147.172,245.56,163.833,245.56z M398.42,225.829c-16.885,0-33.639,0-50.273,0c0,6.876,0,13.254,0,19.759
		c16.929,0,33.444,0,50.273,0C398.42,239.053,398.42,232.812,398.42,225.829z"/>
	<path fill="#FFFFFF" d="M21.943,247.609c23.998,0,47.44,0,70.964,0c1.236,3.312,2.125,6.858,3.812,9.971
		c3.643,6.723,9.74,9.946,17.231,10.017c17.165,0.163,34.335,0.242,51.498-0.009c11.327-0.166,17.08-5.934,20.777-19.954
		c47.36,0,94.799,0,142.239-0.004c1.251,3.35,2.139,6.899,3.827,10.016c3.649,6.739,9.786,9.888,17.265,9.957
		c17.165,0.158,34.332,0.065,51.499,0.037c9.285-0.015,18.535-6.94,19.779-16.98c0.121-0.976,0.551-1.913,0.892-3.051
		c23.599,0,47.187,0,71.332,0c0,2.068,0,3.864,0,5.661c0,57.833,0.001,115.665-0.007,173.498c0,1.664-0.003,3.339-0.181,4.99
		c-0.685,6.359-4.065,9.572-10.374,9.913c-1.496,0.081-2.999,0.05-4.499,0.05c-146.998,0.002-293.996,0.002-440.995,0
		c-1.5,0-3.003,0.031-4.499-0.05c-6.308-0.341-9.682-3.556-10.375-9.915c-0.162-1.486-0.177-2.993-0.177-4.491
		c-0.008-58.166-0.007-116.332-0.007-174.498C21.943,251.139,21.943,249.509,21.943,247.609z"/>
	<path fill="#FFFFFF" d="M492.828,226.494c-23.949,0-47.402,0-70.729,0c-1.339-3.549-2.225-7.126-3.956-10.233
		c-3.713-6.662-9.825-9.781-17.325-9.833c-16.994-0.116-33.989-0.071-50.983-0.025c-9.217,0.025-18.922,5.599-20.818,19.898
		c-47.504,0-95.061,0-142.999,0c-0.984-6.066-2.57-12.308-8.35-15.486c-4.055-2.23-8.875-4.095-13.411-4.234
		c-16.313-0.499-32.653-0.033-48.978-0.257c-10.089-0.139-19.81,6.646-21.148,17.208c-0.121,0.958-0.569,1.875-0.913,2.959
		c-23.556,0-47.008,0-71.009,0c-0.093-1.885-0.254-3.642-0.255-5.4c-0.017-23.992-0.028-47.985-0.004-71.977
		c0.011-11.355,3.229-14.541,14.571-14.541c147.287-0.002,294.573-0.002,441.86,0c11.424,0,14.654,3.151,14.666,14.445
		c0.027,24.159,0.012,48.318,0,72.476C493.047,222.974,492.922,224.454,492.828,226.494z"/>
	<path fill="#FFFFFF" d="M329.111,113.989c-47.967,0-95.245,0-143.382,0c0-5.593-0.007-11.01,0.002-16.428
		c0.007-4.499-0.173-9.011,0.099-13.495c0.427-7.056,4.163-10.725,11.174-10.737c40.33-0.074,80.66-0.07,120.99-0.002
		c6.682,0.011,10.736,3.33,11.005,9.744C329.422,93.181,329.111,103.322,329.111,113.989z"/>
	<path fill="#FFFFFF" d="M164.969,246.999c-16.727,0-33.302,0-50.321,0c0-6.595,0-13.119,0-19.977c16.72,0,33.3,0,50.321,0
		C164.969,233.625,164.969,240.141,164.969,246.999z"/>
	<path fill="#FFFFFF" d="M400.478,227.19c0,7.01,0,13.276,0,19.838c-16.896,0-33.475,0-50.471,0c0-6.531,0-12.934,0-19.838
		C366.707,227.19,383.527,227.19,400.478,227.19z"/>
</g>
<g display="none">
	<path fill="#FFFFFF" d="M249.5,513.5c-83,0-166,0-249,0c0-171,0-342,0-513c171,0,342,0,513,0c0,171,0,342,0,513
		c-82.667,0-165.333,0-248,0c0.9-0.329,1.774-0.799,2.703-0.965c27.979-4.999,49.322-28.865,50.34-57.23
		c0.292-8.149-1.375-16.369-2.153-24.651c13.478-1.022,27.58-2.016,41.669-3.175c23.94-1.97,47.67-5.232,70.556-12.893
		c13.859-4.639,27.02-10.614,36.288-22.65c9.317-12.1,12.436-29.657-4.052-42.254c-5.427-4.146-10.92-8.206-16.354-12.343
		c-16.98-12.928-29.112-29.51-37.228-49.176c-10.497-25.438-14.233-52.186-15.9-79.399c-1.108-18.094-0.712-36.554-4.324-54.167
		c-9.873-48.134-38.76-80.313-85.899-95.508c-1.714-0.553-3.414-1.151-5.208-1.758c5.733-19.963,1.288-36.617-15.646-48.735
		c-13.444-9.62-32.119-9.624-45.573-0.006c-16.939,12.109-21.391,28.764-15.654,48.758c-2.454,0.78-4.812,1.507-7.155,2.277
		c-28.753,9.447-51.594,26.529-67.592,52.418c-13.113,21.22-19.175,44.499-19.764,69.258c-0.753,31.688-2.181,63.264-11.966,93.789
		c-7.584,23.657-19.711,44.358-39.358,60.088c-6.109,4.891-12.544,9.375-18.665,14.253c-4.975,3.966-9.587,8.387-11.073,14.934
		c-3.31,14.585,2.94,25.678,13.496,34.785c12.174,10.504,27.104,15.378,42.323,19.281c27.881,7.15,56.436,9.392,85.039,11.16
		c5.042,0.312,10.086,0.583,15.046,0.868c0,1.085,0.077,1.437-0.011,1.74c-9.3,32.034,2.726,60.461,32.325,75.346
		C237.24,510.326,243.55,511.555,249.5,513.5z"/>
	<path display="inline" d="M247.953,511c-5.925-1.937-12.209-3.161-17.715-5.93c-29.477-14.823-41.452-43.133-32.191-75.034
		c0.088-0.302,0.011-0.652,0.011-1.733c-4.94-0.284-9.963-0.554-14.984-0.865c-28.484-1.761-56.921-3.994-84.687-11.114
		c-15.156-3.887-30.024-8.741-42.147-19.201c-10.512-9.07-16.736-20.116-13.44-34.641c1.48-6.52,6.072-10.923,11.027-14.872
		c6.095-4.858,12.503-9.323,18.587-14.194c19.565-15.665,31.642-36.281,39.195-59.839c9.745-30.398,11.167-61.843,11.917-93.4
		c0.586-24.656,6.624-47.839,19.682-68.971c15.932-25.782,38.678-42.793,67.312-52.201c2.334-0.767,4.681-1.491,7.125-2.268
		c-5.713-19.911-1.28-36.497,15.589-48.556c13.399-9.578,31.996-9.574,45.384,0.006c16.863,12.067,21.29,28.653,15.581,48.533
		c1.787,0.604,3.479,1.2,5.187,1.751c46.943,15.132,75.711,47.178,85.543,95.113c3.598,17.539,3.203,35.924,4.306,53.942
		c1.659,27.1,5.38,53.737,15.834,79.07c8.082,19.585,20.164,36.098,37.074,48.973c5.411,4.12,10.881,8.163,16.286,12.292
		c16.42,12.544,13.314,30.029,4.035,42.079c-9.23,11.986-22.336,17.936-36.137,22.556c-22.791,7.629-46.423,10.877-70.264,12.839
		c-14.031,1.155-28.075,2.145-41.496,3.162c0.775,8.249,2.436,16.434,2.144,24.549c-1.014,28.247-22.269,52.014-50.132,56.993
		c-0.925,0.165-1.796,0.634-2.692,0.961C258.576,511,253.264,511,247.953,511z M253.722,410.344
		c37.956-2.099,73.765-3.574,109.484-6.239c22.49-1.678,44.917-5.186,65.688-14.659c6.578-3,12.646-7.811,17.856-12.908
		c4.658-4.557,3.61-8.969-1.537-13.05c-5.328-4.225-10.868-8.182-16.252-12.339c-19.359-14.948-33.281-33.986-42.661-56.502
		c-10.193-24.467-14.784-50.169-16.767-76.391c-1.337-17.692-1.203-35.521-3.111-53.139c-4.889-45.159-38.259-80.83-82.971-89.631
		c-1.738-0.342-4.003-0.058-5.514,0.814c-14.664,8.464-29.213,8.505-43.89,0.065c-1.425-0.82-3.478-1.38-5.019-1.044
		c-36.61,7.97-62.76,28.601-76.972,63.724c-7.315,18.079-8.368,37.058-8.662,56.188c-0.434,28.315-3.599,56.261-12.015,83.404
		c-7.118,22.957-17.855,44.031-35.464,60.755c-8.986,8.534-19.158,15.82-28.805,23.657c-5.777,4.693-6.82,9.002-1.504,14.151
		c5.116,4.955,11.2,9.424,17.647,12.395c18.418,8.489,38.316,12.117,58.302,13.697C179.574,406.297,217.684,408.141,253.722,410.344
		z M255.784,429.127c-10.123,0-20.252,0.205-30.366-0.105c-3.858-0.118-5.584,1.38-6.974,4.694
		c-7.375,17.58-2.163,36.761,13.463,48.872c13.846,10.731,34.81,10.526,48.584-0.474c15.483-12.366,20.293-31.484,12.568-49.061
		c-1.357-3.088-3.112-4.074-6.408-4.007C276.365,429.257,266.073,429.124,255.784,429.127z M276.118,41.972
		c0.024-11.312-8.838-20.225-20.142-20.257c-11.298-0.032-20.217,8.839-20.254,20.145c-0.036,11.272,8.867,20.225,20.142,20.254
		C267.14,62.142,276.094,53.238,276.118,41.972z"/>
	<path fill="#FFFFFF" d="M255.293,412.425c-36.188-2.211-74.456-4.064-112.632-7.081c-20.069-1.586-40.051-5.229-58.545-13.754
		c-6.474-2.984-12.583-7.471-17.72-12.447c-5.338-5.17-4.291-9.497,1.51-14.21c9.687-7.87,19.902-15.185,28.925-23.755
		c17.682-16.794,28.464-37.955,35.612-61.008c8.451-27.256,11.628-55.318,12.065-83.751c0.295-19.209,1.352-38.267,8.698-56.422
		c14.271-35.269,40.53-55.985,77.292-63.989c1.547-0.337,3.608,0.226,5.04,1.049c14.738,8.475,29.348,8.435,44.073-0.065
		c1.518-0.876,3.792-1.161,5.537-0.818c44.898,8.838,78.406,44.657,83.316,90.004c1.916,17.691,1.781,35.594,3.124,53.36
		c1.991,26.331,6.601,52.14,16.836,76.708c9.419,22.61,23.398,41.728,42.838,56.738c5.406,4.174,10.969,8.148,16.319,12.39
		c5.169,4.098,6.221,8.528,1.544,13.104c-5.232,5.119-11.325,9.949-17.93,12.962c-20.857,9.512-43.378,13.035-65.961,14.72
		C329.365,408.836,293.407,410.317,255.293,412.425z"/>
	<path fill="#FFFFFF" d="M257.364,431.285c10.332-0.001,20.666,0.132,30.994-0.079c3.31-0.068,5.072,0.922,6.435,4.023
		c7.757,17.65,2.928,36.848-12.62,49.265c-13.831,11.046-34.882,11.252-48.786,0.476c-15.691-12.161-20.925-31.422-13.519-49.075
		c1.396-3.328,3.129-4.833,7.003-4.714C237.027,431.493,247.198,431.286,257.364,431.285z"/>
	<path fill="#FFFFFF" d="M277.782,42.521c-0.024,11.313-9.015,20.255-20.338,20.226c-11.322-0.029-20.262-9.019-20.226-20.338
		c0.037-11.353,8.993-20.262,20.338-20.229C268.907,22.212,277.806,31.161,277.782,42.521z"/>
</g>
<g display="none">
	<path fill="#FFFFFF" d="M513.5,187.5c0,108.667,0,217.333,0,326c-171,0-342,0-513,0c0-171,0-342,0-513c171,0,342,0,513,0
		c0,60.667,0,121.333,0,182c-3.283-2.583-6.18-6.418-9.905-7.563c-80.133-24.643-160.346-49.028-240.611-73.239
		c-3.568-1.076-8.046-0.934-11.643,0.153c-79.776,24.103-159.489,48.415-239.204,72.72c-1.891,0.576-3.793,1.32-5.475,2.341
		c-6.349,3.853-6.67,12.366-0.602,16.64c1.739,1.225,3.791,2.068,5.791,2.852c29.115,11.419,58.221,22.861,87.404,34.103
		c3.53,1.36,4.7,3.108,4.671,6.879c-0.178,23.663,0.262,47.335-0.213,70.99c-0.318,15.845,5.996,27.952,18.02,37.6
		c15.809,12.684,34.324,19.623,53.627,24.488c49.239,12.409,98.883,13.021,148.645,3.609c22.509-4.258,44.294-10.922,63.608-23.853
		c15.536-10.401,24.433-24.057,23.737-43.771c-0.816-23.136-0.24-46.323-0.094-69.486c0.011-1.809,0.92-4.679,2.205-5.241
		c8.327-3.641,16.875-6.779,26.025-10.344c0.727,4.526,1.867,8.427,1.9,12.338c0.236,28.328,0.292,56.657,0.223,84.985
		c-0.004,1.645-1.239,3.664-2.51,4.864c-5.755,5.429-8.976,11.811-6.785,19.68c2.984,10.716,6.467,21.296,9.894,31.884
		c1.381,4.268,3.162,8.407,4.794,12.592c1.566,4.015,3.176,8.012,4.766,12.018c0.547,0.044,1.095,0.088,1.642,0.132
		c6.189-18.934,12.591-37.802,18.456-56.835c2.2-7.139-0.552-13.629-6.026-18.462c-2.664-2.352-3.439-4.65-3.546-8.061
		c-1.076-34.166,3.054-68.509-3.202-102.827c14.255-5.599,28.748-11.43,43.357-16.951C507.337,194.887,511.367,192.438,513.5,187.5z
		"/>
	<path display="inline" d="M511,193.307c-2.125,4.921-6.141,7.361-11.009,9.201c-14.558,5.502-29,11.312-43.205,16.891
		c6.234,34.197,2.119,68.42,3.191,102.466c0.107,3.399,0.879,5.689,3.534,8.032c5.455,4.816,8.197,11.283,6.005,18.397
		c-5.844,18.967-12.224,37.768-18.391,56.635c-0.545-0.044-1.091-0.088-1.636-0.132c-1.585-3.991-3.189-7.975-4.749-11.975
		c-1.627-4.17-3.401-8.295-4.777-12.548c-3.415-10.55-6.886-21.093-9.859-31.772c-2.183-7.842,1.026-14.201,6.761-19.611
		c1.267-1.195,2.498-3.207,2.502-4.847c0.069-28.229,0.014-56.459-0.222-84.686c-0.033-3.897-1.169-7.784-1.893-12.294
		c-9.118,3.553-17.636,6.679-25.934,10.307c-1.281,0.56-2.186,3.42-2.197,5.223c-0.145,23.082-0.719,46.187,0.094,69.242
		c0.693,19.645-8.173,33.252-23.654,43.617c-19.246,12.885-40.954,19.527-63.384,23.769c-49.587,9.379-99.057,8.77-148.122-3.596
		c-19.235-4.848-37.685-11.763-53.438-24.402c-11.982-9.613-18.274-21.678-17.957-37.467c0.473-23.572,0.035-47.161,0.212-70.74
		c0.028-3.757-1.137-5.499-4.655-6.854c-29.08-11.203-58.084-22.605-87.097-33.983c-1.993-0.782-4.038-1.622-5.771-2.842
		c-6.047-4.259-5.727-12.742,0.6-16.582c1.676-1.017,3.571-1.758,5.455-2.333c79.434-24.22,158.867-48.446,238.362-72.464
		c3.584-1.083,8.047-1.225,11.602-0.152c79.983,24.126,159.913,48.426,239.764,72.982c3.712,1.141,6.599,4.963,9.87,7.537
		C511,189.985,511,191.646,511,193.307z M42.807,192.437c1.655,0.786,2.494,1.249,3.38,1.596
		c68.826,26.937,137.648,53.886,206.529,80.682c2.009,0.781,4.895,0.553,6.965-0.251c48.502-18.846,96.949-37.835,145.403-56.807
		c1.449-0.567,2.862-1.228,5.186-2.231c-2.283-0.483-3.548-0.844-4.838-1.011c-49.349-6.386-98.699-12.761-148.052-19.12
		c-7.228-0.931-11.481-5.468-10.822-11.66c0.617-5.796,5.87-9.376,12.871-8.595c7.088,0.791,14.163,1.711,21.237,2.627
		c42.932,5.562,85.87,11.082,128.789,16.751c10.795,1.426,21.886,1.832,31.648,7.702c0.823,0.495,2.284,0.489,3.228,0.132
		c7.999-3.024,15.946-6.183,24.814-9.656c-2.248-0.862-3.557-1.458-4.921-1.873c-68.328-20.792-136.652-41.596-205.025-62.237
		c-2.458-0.742-5.576-0.419-8.103,0.346c-67.564,20.454-135.091,41.03-202.621,61.598C46.8,190.94,45.169,191.596,42.807,192.437z
		 M123.3,246.115c0,23.38,0.273,45.792-0.136,68.192c-0.162,8.867,2.846,15.973,9.902,20.486
		c9.152,5.854,18.658,11.543,28.719,15.509c22.396,8.83,46.075,12.41,70.003,13.892c37.691,2.334,74.98,0.065,111.289-11.34
		c13.042-4.097,25.59-9.309,36.164-18.277c4.886-4.144,9.178-8.897,9.196-15.839c0.062-23.743-0.004-47.487-0.044-71.23
		c0-0.252-0.305-0.503-0.628-1c-1.947,0.726-3.949,1.441-5.929,2.215c-39.677,15.505-79.373,30.963-118.998,46.6
		c-4.833,1.907-9.172,1.824-13.915-0.047c-27.753-10.952-55.559-21.768-83.347-32.631
		C151.715,257.226,137.853,251.805,123.3,246.115z"/>
	<path fill="#FFFFFF" d="M43.654,186.627c2.37-0.844,4.006-1.503,5.688-2.015c67.768-20.641,135.534-41.289,203.336-61.816
		c2.535-0.768,5.664-1.092,8.131-0.348c68.615,20.714,137.18,41.591,205.749,62.457c1.369,0.416,2.682,1.014,4.938,1.879
		c-8.899,3.485-16.875,6.656-24.902,9.69c-0.947,0.358-2.414,0.364-3.24-0.133c-9.796-5.89-20.927-6.298-31.76-7.729
		c-43.07-5.689-86.159-11.228-129.243-16.81c-7.099-0.92-14.198-1.842-21.312-2.636c-7.026-0.784-12.297,2.809-12.916,8.625
		c-0.661,6.214,3.607,10.767,10.86,11.702c49.527,6.382,99.051,12.778,148.574,19.187c1.295,0.168,2.565,0.53,4.856,1.015
		c-2.332,1.006-3.75,1.669-5.204,2.238c-48.625,19.039-97.243,38.095-145.916,57.008c-2.078,0.807-4.974,1.036-6.99,0.252
		c-69.124-26.89-138.189-53.935-207.258-80.967C46.157,187.881,45.315,187.416,43.654,186.627z"/>
	<path fill="#FFFFFF" d="M124.431,240.494c14.605,5.711,28.515,11.151,42.427,16.589c27.886,10.901,55.79,21.756,83.641,32.746
		c4.759,1.878,9.113,1.961,13.964,0.047c39.765-15.693,79.601-31.204,119.418-46.765c1.987-0.776,3.996-1.494,5.95-2.222
		c0.323,0.499,0.63,0.751,0.63,1.004c0.04,23.827,0.107,47.654,0.044,71.481c-0.018,6.966-4.325,11.736-9.228,15.895
		c-10.611,8.999-23.203,14.23-36.291,18.341c-36.437,11.446-73.858,13.722-111.682,11.381c-24.012-1.487-47.775-5.08-70.25-13.941
		c-10.096-3.981-19.636-9.69-28.821-15.564c-7.081-4.529-10.1-11.66-9.937-20.559C124.705,286.448,124.431,263.957,124.431,240.494z
		"/>
</g>
<g display="none">
	<path fill="#FFFFFF" d="M513.35,513.5c-170.883,0-341.841,0-512.825,0c0-170.942,0-341.883,0-512.912
		c170.875,0,341.775,0,512.825,0C513.35,171.5,513.35,342.5,513.35,513.5z M75.46,493.664c15.511-1.342,29.697-1.563,43.502-3.97
		c30.471-5.314,55.916-20.617,78.002-41.934c1.387-1.338,4.066-2.208,5.985-1.977c9.408,1.132,18.726,3.039,28.141,4.074
		c34.553,3.798,68.53,0.383,101.78-9.484c50.012-14.841,91.959-41.914,123.07-84.222c28.175-38.315,40.5-81.488,35.153-128.927
		c-5.746-50.985-30.347-92.228-68.844-125.18c-40.212-34.42-87.518-52.648-139.973-57.577
		c-44.955-4.224-88.364,2.408-129.837,20.466c-41.323,17.992-75.672,44.812-99.921,83.074
		c-32.99,52.053-39.081,107.469-17.033,165.285c14.499,38.02,40.001,67.635,72.64,91.414c6.687,4.872,6.612,4.861,4.74,13.249
		c-4.034,18.066-11.301,34.75-21.245,50.315C86.547,476.213,81.5,484.172,75.46,493.664z"/>
	<path display="inline" d="M58.533,500.453c6.556-10.303,12.035-18.942,17.543-27.564c10.793-16.894,18.682-35.003,23.06-54.613
		c2.033-9.105,2.114-9.092-5.145-14.38c-35.427-25.81-63.107-57.956-78.845-99.224c-23.933-62.755-17.32-122.906,18.488-179.406
		c26.321-41.531,63.604-70.642,108.457-90.171c45.016-19.6,92.133-26.799,140.929-22.214c56.937,5.35,108.284,25.135,151.931,62.496
		c41.786,35.768,68.489,80.534,74.726,135.875c5.803,51.492-7.574,98.353-38.157,139.942c-33.769,45.923-79.3,75.308-133.584,91.417
		c-36.091,10.71-72.971,14.416-110.476,10.294c-10.22-1.123-20.334-3.193-30.545-4.422c-2.083-0.251-4.991,0.693-6.497,2.146
		c-23.974,23.138-51.592,39.748-84.666,45.516C90.767,498.756,75.369,498.996,58.533,500.453z M98.555,476.829
		c5.128-1.207,9.686-2.087,14.133-3.357c27.548-7.867,50.365-23.218,69.367-44.406c2.73-3.044,5.141-4.026,9.316-3.036
		c35.762,8.486,71.859,10.422,108.183,4.196c58.837-10.085,109.547-35.39,147.961-81.976c37.596-45.594,51.512-97.784,37.78-155.742
		c-13.528-57.101-49.535-97.739-99.324-126.317c-54.734-31.417-114.043-40.648-175.984-29.929
		C151.41,46.399,101.413,72.831,63.233,119.376c-22.682,27.651-36.663,59.317-40.218,94.973
		c-5.451,54.675,12.29,101.75,48.668,142.261c13.75,15.312,29.793,27.893,46.926,39.194c1.691,1.116,3.356,3.857,3.299,5.792
		c-0.514,17.362-4.923,33.913-11.62,49.844C106.803,459.732,102.756,467.788,98.555,476.829z"/>
	<path fill="#FFFFFF" d="M112.332,471.9c3.87-8.329,7.599-15.751,10.81-23.391c6.17-14.677,10.232-29.925,10.705-45.921
		c0.053-1.783-1.481-4.308-3.039-5.336c-15.785-10.412-30.565-22.003-43.233-36.109c-33.515-37.322-49.86-80.692-44.838-131.064
		c3.275-32.849,16.156-62.023,37.053-87.498c35.175-42.882,81.237-67.233,135.203-76.572c57.066-9.875,111.707-1.37,162.133,27.574
		c45.87,26.329,79.043,63.768,91.506,116.375c12.651,53.397-0.17,101.479-34.807,143.484
		c-35.39,42.919-82.109,66.233-136.315,75.524c-33.465,5.736-66.721,3.952-99.668-3.866c-3.847-0.913-6.068-0.008-8.583,2.797
		c-17.507,19.52-38.528,33.664-63.907,40.911C121.256,469.977,117.057,470.788,112.332,471.9z"/>
</g>
<g display="none">
	<path fill="#FFFFFF" d="M1.058,511c0-169.962,0-339.923,0-509.97c169.897,0,339.817,0,509.885,0c0,169.933,0,339.952,0,509.97
		C341.035,511,171.058,511,1.058,511z M379.416,1.985c-0.046-0.328-0.093-0.657-0.139-0.985c-18.705,2.309-37.518,3.974-56.091,7.08
		c-27.183,4.546-51.282,15.351-71.023,35.626c-38.96,40.013-46.679,95.653-18.871,143.738c1.815,3.139,0.855,4.511-1.357,6.532
		c-67.39,61.571-134.755,123.17-202.071,184.823c-27.916,25.568-38.353,71.95-5.33,106.772c34.532,36.413,82.629,27.611,109.11-1.25
		c26.765-29.17,52.513-59.271,79.103-88.604c34.6-38.17,69.623-75.957,104.356-114.008c2.982-3.267,5.202-3.786,9.087-1.259
		c11.357,7.39,24.006,11.88,37.221,14.553c62.409,12.624,120.775-30.507,135.904-82.408c6.533-22.411,9.601-45.298,10.63-68.502
		c0.469-10.578,0.673-21.213,0.139-31.778c-0.493-9.766-9.446-14.706-18.164-10.462c-2.9,1.412-5.594,3.547-7.893,5.841
		c-20.401,20.366-40.652,40.884-61.093,61.209c-1.684,1.674-4.402,3.098-6.718,3.225c-21.455,1.179-42.607-1.213-63.588-5.73
		c-4.082-0.879-5.744-2.837-6.565-6.677c-4.314-20.179-6.608-40.523-4.889-61.145c0.235-2.815,1.735-6.09,3.715-8.104
		c18.231-18.551,36.698-36.87,55.093-55.26c3.046-3.045,6.261-5.947,9.07-9.198c3.821-4.422,6.206-9.482,4.039-15.472
		c-2.402-6.643-7.982-8.39-14.293-8.526C392.34,1.876,385.877,1.985,379.416,1.985z"/>
	<path display="inline" d="M378.575,1.988c6.479,0,12.96-0.109,19.436,0.031c6.329,0.137,11.925,1.889,14.333,8.55
		c2.172,6.007-0.219,11.081-4.051,15.516c-2.817,3.26-6.041,6.17-9.096,9.224c-18.447,18.442-36.966,36.812-55.248,55.416
		c-1.986,2.02-3.491,5.305-3.726,8.127c-1.724,20.68,0.577,41.081,4.903,61.318c0.823,3.851,2.49,5.815,6.584,6.696
		c21.04,4.53,42.251,6.929,63.767,5.746c2.322-0.128,5.048-1.555,6.737-3.235c20.499-20.383,40.806-40.958,61.265-61.382
		c2.305-2.301,5.008-4.442,7.916-5.858c8.743-4.256,17.721,0.698,18.215,10.491c0.535,10.595,0.331,21.26-0.14,31.868
		c-1.032,23.269-4.109,46.221-10.66,68.695c-15.172,52.047-73.702,95.3-136.287,82.64c-13.253-2.681-25.937-7.184-37.326-14.594
		c-3.895-2.535-6.122-2.013-9.112,1.263c-34.831,38.158-69.952,76.051-104.65,114.329c-26.665,29.416-52.486,59.602-79.326,88.854
		c-26.555,28.942-74.788,37.768-109.417,1.253c-33.116-34.92-22.65-81.433,5.345-107.072
		c67.505-61.827,135.06-123.599,202.64-185.344c2.218-2.027,3.182-3.403,1.361-6.551c-27.887-48.22-20.146-104.017,18.924-144.143
		C270.76,23.494,294.927,12.659,322.187,8.1c18.625-3.114,37.491-4.784,56.249-7.1C378.482,1.329,378.528,1.658,378.575,1.988z
		 M245.055,206.409c-0.66,0.507-1.079,0.782-1.444,1.116c-68.296,62.466-136.839,124.665-204.728,187.57
		c-20.563,19.054-28.406,53.428-2.047,79.947c13.641,13.725,29.717,20.466,49.205,16.413c15.186-3.159,26.944-11.623,37.322-23.155
		c60.017-66.693,120.372-133.081,180.603-199.581c0.521-0.575,0.907-1.271,1.537-2.17
		C285.338,246.486,265.324,226.574,245.055,206.409z M490.752,128.344c-2.321,2.218-3.632,3.417-4.883,4.674
		c-17.11,17.2-34.317,34.306-51.245,51.684c-4.474,4.592-9.515,7.123-15.745,7.397c-25.537,1.125-50.733-1.208-75.57-7.394
		c-8.834-2.2-13.916-7.715-16.114-16.387c-5.551-21.897-7.384-44.167-6.964-66.68c0.197-10.56,3.55-19.227,11.71-26.834
		c16.764-15.628,32.607-32.242,48.819-48.462c1.241-1.242,2.399-2.567,4.114-4.41c-1.681-0.141-2.595-0.296-3.507-0.284
		c-20.135,0.265-40.103,1.983-59.841,6.242c-21.722,4.687-41.033,13.344-56.833,29.731c-38.789,40.228-40.427,97.126-2.551,138.111
		c18.028,19.508,37.178,38.015,56.388,56.383c17.447,16.682,38.672,24.973,62.896,26.315c42.659,2.364,80.357-28.303,93.323-57.039
		C487.89,192.265,489.351,161.031,490.752,128.344z"/>
	<path fill="#FFFFFF" d="M246.272,205.832c20.211,20.108,40.169,39.965,60.278,59.971c-0.629,0.896-1.014,1.591-1.533,2.164
		c-60.062,66.313-120.247,132.515-180.096,199.02c-10.349,11.5-22.074,19.941-37.217,23.09
		c-19.433,4.042-35.463-2.681-49.066-16.367c-26.284-26.445-18.464-60.723,2.041-79.723
		c67.698-62.728,136.049-124.752,204.153-187.043C245.196,206.612,245.614,206.338,246.272,205.832z"/>
	<path fill="#FFFFFF" d="M491.279,127.987c-1.397,32.594-2.854,63.741-15.96,92.788c-12.93,28.656-50.522,59.236-93.061,56.879
		c-24.156-1.338-45.321-9.606-62.719-26.241c-19.155-18.316-38.252-36.772-56.229-56.224c-37.77-40.87-36.135-97.608,2.544-137.723
		c15.756-16.341,35.013-24.973,56.673-29.648c19.683-4.247,39.594-5.96,59.673-6.225c0.909-0.012,1.821,0.142,3.497,0.283
		c-1.71,1.838-2.864,3.159-4.102,4.397c-16.166,16.173-31.965,32.742-48.681,48.325c-8.137,7.586-11.481,16.229-11.677,26.759
		c-0.419,22.449,1.41,44.657,6.945,66.492c2.192,8.647,7.26,14.147,16.069,16.341c24.767,6.168,49.893,8.495,75.358,7.373
		c6.212-0.274,11.24-2.797,15.701-7.376c16.88-17.329,34.039-34.387,51.101-51.539C487.657,131.394,488.964,130.199,491.279,127.987
		z"/>
</g>
<g display="none">
	<path fill="#FFFFFF" d="M217.5,513.5c-72.309,0-144.617,0-216.963,0c0-170.917,0-341.833,0-512.875c170.963,0,341.963,0,512.963,0
		c0,72.258,0,144.567,0,216.875c-23.819-3.874-47.626-7.824-71.47-11.534c-3.236-0.503-4.148-2.137-5.199-4.847
		c-4.025-10.373-8.172-20.716-12.803-30.828c-1.41-3.079-1.244-4.928,0.613-7.542c12.828-18.059,25.506-36.225,38.221-54.365
		c1.015-1.449,1.947-2.956,2.58-3.922c-18.75-18.763-37.101-37.126-55.641-55.68c-1.035,0.713-2.401,1.62-3.731,2.575
		c-17.994,12.923-36.027,25.792-53.925,38.847c-2.678,1.953-4.496,1.849-7.495,0.481c-10.271-4.687-20.723-9.014-31.288-12.994
		c-2.952-1.112-4.24-2.443-4.723-5.389c-1.992-12.154-4.116-24.286-6.242-36.417c-2-11.409-4.063-22.807-6.095-34.186
		c-26.475,0-52.431,0-78.604,0c-0.415,2.245-0.843,4.339-1.186,6.446c-3.449,21.194-6.873,42.391-10.339,63.582
		c-0.392,2.394-0.711,4.363-3.848,5.527c-11.204,4.156-22.145,9.017-33.289,13.342c-1.608,0.624-4.233,0.44-5.627-0.498
		c-8.011-5.392-15.79-11.128-23.653-16.742c-11.629-8.303-23.262-16.601-34.213-24.416C86.763,67.723,68.322,86.168,49.69,104.805
		c0.78,1.146,1.882,2.802,3.021,4.432c12.406,17.746,24.81,35.493,37.241,53.221c1.361,1.941,2.209,3.401,0.951,6.179
		c-4.998,11.041-9.378,22.36-14.249,33.461c-0.683,1.555-2.677,3.245-4.315,3.557c-11.28,2.144-22.626,3.941-33.952,5.844
		c-12.241,2.056-24.483,4.105-36.675,6.15c0,26.521,0,52.477,0,78.518c1.613,0.386,3.035,0.806,4.485,1.061
		c21.471,3.787,42.934,7.626,64.433,11.253c3.701,0.624,5.437,2.159,6.775,5.803c3.776,10.283,7.959,20.444,12.581,30.374
		c1.59,3.415,1.409,5.509-0.701,8.413c-12.04,16.575-23.894,33.286-35.808,49.953c-1.712,2.394-3.408,4.799-4.842,6.819
		c18.79,18.723,37.18,37.047,55.889,55.69c20.192-14.122,40.77-28.513,60.324-42.19c13.063,5.082,25.307,9.771,37.461,14.679
		c1.351,0.545,2.93,2.218,3.165,3.581C209.598,465.549,213.528,489.528,217.5,513.5z"/>
	<path display="inline" d="M216.036,511c-3.958-23.887-7.874-47.782-11.983-71.644c-0.234-1.358-1.808-3.025-3.154-3.568
		c-12.112-4.891-24.313-9.564-37.33-14.628c-19.486,13.628-39.991,27.969-60.112,42.041c-18.644-18.578-36.969-36.838-55.693-55.495
		c1.428-2.012,3.119-4.409,4.825-6.795c11.872-16.608,23.684-33.261,35.682-49.777c2.102-2.894,2.283-4.98,0.698-8.384
		c-4.606-9.895-8.774-20.02-12.537-30.268c-1.333-3.63-3.064-5.16-6.751-5.782c-21.423-3.613-42.81-7.439-64.206-11.213
		c-1.445-0.255-2.861-0.673-4.469-1.058c0-25.95,0-51.814,0-78.242c12.149-2.037,24.349-4.079,36.546-6.128
		c11.286-1.896,22.592-3.687,33.832-5.823c1.632-0.31,3.62-1.994,4.3-3.544c4.854-11.062,9.218-22.341,14.199-33.343
		c1.253-2.768,0.409-4.223-0.948-6.157c-12.388-17.665-24.747-35.351-37.11-53.034c-1.136-1.624-2.233-3.275-3.011-4.417
		c18.567-18.571,36.943-36.952,55.655-55.668c10.913,7.787,22.504,16.057,34.093,24.331c7.835,5.594,15.587,11.309,23.569,16.683
		c1.39,0.935,4.005,1.118,5.608,0.497c11.105-4.31,22.008-9.154,33.172-13.295c3.126-1.16,3.444-3.122,3.834-5.508
		c3.454-21.116,6.866-42.239,10.303-63.358c0.342-2.1,0.768-4.187,1.182-6.423c26.081,0,51.946,0,78.328,0
		c2.024,11.34,4.081,22.697,6.073,34.066c2.119,12.088,4.235,24.178,6.22,36.289c0.481,2.935,1.765,4.262,4.707,5.37
		c10.528,3.966,20.944,8.277,31.178,12.948c2.989,1.364,4.8,1.468,7.469-0.479c17.835-13.008,35.805-25.832,53.735-38.71
		c1.326-0.952,2.686-1.856,3.718-2.566c18.476,18.488,36.761,36.787,55.446,55.484c-0.631,0.962-1.559,2.464-2.571,3.908
		c-12.67,18.076-25.303,36.178-38.086,54.174c-1.85,2.605-2.017,4.447-0.611,7.515c4.615,10.076,8.747,20.382,12.758,30.719
		c1.048,2.701,1.957,4.329,5.181,4.83c23.761,3.697,47.484,7.633,71.219,11.494c0,26.241,0,52.481,0,78.722
		c-24.001,4.179-48.013,8.299-71.977,12.679c-1.542,0.282-3.266,2.342-3.97,3.978c-4.446,10.333-8.413,20.875-13.03,31.127
		c-1.337,2.969-1.527,4.792,0.438,7.481c13.117,17.945,26.048,36.027,39.03,54.071c0.941,1.308,1.805,2.671,2.185,3.236
		c-18.735,18.697-37.123,37.046-55.708,55.593c-1.084-0.746-2.724-1.858-4.346-2.996c-17.792-12.475-35.582-24.952-53.368-37.435
		c-1.883-1.321-3.355-2.415-6.161-1.151c-11.003,4.953-22.246,9.372-33.319,14.175c-1.367,0.593-2.996,2.171-3.243,3.522
		c-4.372,23.965-8.549,47.965-12.767,71.958C268.517,511,242.276,511,216.036,511z M277.487,490.603
		c3.885-22.006,7.73-43.213,11.297-64.467c0.71-4.233,2.194-6.566,6.679-7.613c17.421-4.066,33.586-11.315,48.853-20.555
		c2.652-1.605,4.503-1.528,7.066,0.299c16.894,12.042,33.917,23.903,50.908,35.808c1.441,1.01,2.955,1.916,3.498,2.266
		c10.707-10.662,20.902-20.815,31.306-31.175c-12.674-17.616-25.615-35.695-38.692-53.675c-1.756-2.414-2.384-4.276-0.677-7.064
		c9.682-15.814,16.623-32.806,20.993-50.816c0.706-2.91,2.206-4.013,4.979-4.457c8.351-1.339,16.671-2.871,25.003-4.334
		c13.843-2.431,27.685-4.867,41.892-7.366c0-14.135,0.076-27.894-0.16-41.648c-0.017-0.986-2.213-2.569-3.579-2.801
		c-20.275-3.454-40.559-6.876-60.897-9.928c-4.599-0.69-6.71-2.445-7.818-7.006c-4.174-17.195-11.118-33.312-20.264-48.449
		c-1.598-2.645-1.49-4.531,0.335-7.093c12.035-16.898,23.889-33.926,35.788-50.921c1.016-1.451,1.936-2.969,2.353-3.613
		c-10.603-10.694-20.738-20.917-31.069-31.338c-17.464,12.536-35.317,25.223-52.988,38.158c-3.104,2.272-5.311,2.724-8.745,0.614
		c-15.071-9.259-31.209-16.155-48.449-20.22c-4.224-0.996-5.721-3.122-6.407-7.28c-3.533-21.422-7.405-42.789-11.261-64.757
		c-1.955,0-3.739,0-5.522,0c-9.466,0-18.932,0-28.397,0c-10.138,0-10.049,0.014-11.625,9.899
		c-2.976,18.674-5.989,37.342-9.226,55.972c-0.322,1.851-2.007,4.542-3.55,4.939c-19.583,5.038-38.048,12.65-55.363,23.462
		c-19.336-13.8-38.498-27.476-57.257-40.865c-10.452,10.583-20.655,20.914-31.13,31.521c0.651,0.944,1.672,2.441,2.71,3.926
		c11.497,16.466,22.899,33,34.584,49.332c2.197,3.071,2.216,5.232,0.312,8.34c-9.244,15.088-16.098,31.252-20.243,48.448
		c-1.131,4.69-3.474,6.179-7.922,6.868c-19.995,3.1-39.924,6.627-59.911,9.781c-3.034,0.479-3.789,1.672-3.765,4.48
		c0.108,12.454,0.039,24.91,0.076,37.364c0.003,0.935,0.331,1.869,0.535,2.95c21.41,3.783,42.619,7.614,63.867,11.207
		c3.888,0.658,5.949,2.106,6.912,6.162c4.168,17.553,11.165,33.999,20.604,49.363c1.849,3.01,1.534,5.059-0.512,7.866
		c-11.927,16.364-23.632,32.889-35.401,49.368c-1.025,1.435-1.966,2.929-2.602,3.881c10.597,10.54,20.8,20.689,31.28,31.113
		c1.056-0.715,2.566-1.706,4.046-2.742c16.451-11.519,32.98-22.929,49.274-34.667c3.245-2.338,5.52-2.29,8.754-0.337
		c14.561,8.794,30.015,15.651,46.623,19.461c5.727,1.314,7.779,4.029,8.611,9.799c2.841,19.695,6.348,39.296,9.771,58.903
		c0.234,1.339,1.861,3.464,2.87,3.481C249.586,490.679,263.344,490.603,277.487,490.603z"/>
	<path fill="#FFFFFF" d="M296.5,513.5c4.234-24.077,8.425-48.162,12.812-72.212c0.247-1.356,1.883-2.939,3.255-3.534
		c11.112-4.821,22.395-9.254,33.437-14.225c2.817-1.268,4.294-0.17,6.183,1.156c17.849,12.528,35.702,25.048,53.557,37.567
		c1.628,1.142,3.274,2.257,4.362,3.006c18.651-18.612,37.103-37.027,55.904-55.79c-0.381-0.567-1.249-1.935-2.193-3.247
		c-13.028-18.108-26.004-36.253-39.168-54.262c-1.972-2.698-1.782-4.528-0.44-7.507c4.634-10.288,8.615-20.868,13.076-31.237
		c0.706-1.642,2.437-3.709,3.984-3.992c24.049-4.396,48.145-8.529,72.231-12.724c0,72.333,0,144.667,0,217
		C441.167,513.5,368.833,513.5,296.5,513.5z"/>
	<path fill="#FFFFFF" d="M279.168,493.031c-14.193,0-27.999,0.076-41.801-0.157c-1.012-0.017-2.646-2.15-2.88-3.494
		c-3.436-19.676-6.955-39.346-9.806-59.111c-0.835-5.79-2.894-8.515-8.642-9.834c-16.667-3.823-32.175-10.704-46.788-19.529
		c-3.245-1.96-5.528-2.008-8.785,0.339c-16.351,11.779-32.939,23.229-49.448,34.789c-1.485,1.039-3,2.035-4.06,2.752
		c-10.517-10.461-20.756-20.645-31.39-31.223c0.638-0.955,1.583-2.455,2.611-3.895c11.81-16.537,23.557-33.121,35.526-49.542
		c2.053-2.817,2.37-4.873,0.514-7.894c-9.472-15.418-16.493-31.922-20.677-49.537c-0.967-4.07-3.035-5.524-6.937-6.184
		c-21.324-3.606-42.607-7.451-64.093-11.247c-0.205-1.085-0.534-2.022-0.537-2.961c-0.037-12.499,0.031-24.998-0.077-37.496
		c-0.024-2.818,0.734-4.015,3.778-4.496c20.058-3.165,40.057-6.705,60.123-9.816c4.464-0.692,6.816-2.186,7.95-6.893
		c4.16-17.257,11.038-33.478,20.314-48.619c1.911-3.119,1.892-5.287-0.313-8.369c-11.725-16.39-23.168-32.982-34.706-49.506
		c-1.041-1.491-2.066-2.993-2.719-3.94c10.513-10.645,20.751-21.012,31.24-31.632c18.826,13.436,38.055,27.16,57.46,41.009
		c17.376-10.851,35.906-18.489,55.559-23.545c1.548-0.398,3.24-3.099,3.562-4.956c3.248-18.695,6.271-37.43,9.258-56.169
		c1.581-9.92,1.493-9.934,11.666-9.934c9.499,0,18.998,0,28.498,0c1.79,0,3.58,0,5.542,0c3.869,22.046,7.755,43.488,11.3,64.986
		c0.688,4.173,2.191,6.307,6.43,7.306c17.301,4.079,33.496,10.999,48.62,20.291c3.446,2.117,5.661,1.664,8.776-0.616
		c17.733-12.981,35.65-25.712,53.175-38.293c10.368,10.457,20.538,20.716,31.179,31.448c-0.419,0.646-1.342,2.17-2.362,3.626
		c-11.941,17.055-23.836,34.143-35.914,51.101c-1.831,2.571-1.939,4.464-0.336,7.118c9.179,15.191,16.147,31.365,20.336,48.621
		c1.111,4.578,3.229,6.338,7.845,7.031c20.41,3.063,40.765,6.497,61.112,9.963c1.37,0.233,3.574,1.822,3.591,2.811
		c0.237,13.802,0.161,27.61,0.161,41.795c-14.257,2.507-28.148,4.952-42.04,7.392c-8.361,1.468-16.71,3.006-25.091,4.35
		c-2.782,0.446-4.288,1.553-4.996,4.473c-4.385,18.073-11.35,35.125-21.067,50.996c-1.713,2.798-1.083,4.666,0.679,7.089
		c13.122,18.044,26.11,36.186,38.828,53.865c-10.441,10.397-20.672,20.585-31.417,31.285c-0.546-0.352-2.065-1.261-3.511-2.274
		c-17.051-11.948-34.135-23.85-51.088-35.935c-2.572-1.833-4.43-1.911-7.091-0.3c-15.32,9.272-31.542,16.547-49.025,20.627
		c-4.5,1.05-5.989,3.392-6.702,7.639C286.926,449.665,283.068,470.947,279.168,493.031z M349.585,257.446
		c-0.04-50.935-41.37-92.161-92.264-92.031c-50.775,0.129-91.765,41.111-91.907,91.889c-0.142,50.891,41.077,92.23,92.014,92.281
		C308.34,349.637,349.625,308.36,349.585,257.446z"/>
	<path display="inline" d="M347.656,255.847c0.04,50.735-41.1,91.867-91.832,91.815c-50.758-0.052-91.832-41.245-91.69-91.957
		c0.141-50.599,40.987-91.437,91.583-91.566C306.432,164.011,347.616,205.091,347.656,255.847z M327.324,256.559
		c0.859-38.672-30.867-71.042-70.646-72.081c-38.59-1.008-71.002,30.647-72.2,70.515c-1.163,38.7,31.09,71.617,70.883,72.342
		C294.122,328.042,326.442,296.255,327.324,256.559z"/>
	<path fill="#FFFFFF" d="M329.181,258.161c-0.885,39.836-33.319,71.735-72.217,71.026c-39.933-0.728-72.3-33.761-71.133-72.598
		c1.202-40.009,33.728-71.776,72.455-70.764C298.205,186.867,330.043,219.352,329.181,258.161z"/>
</g>
<g display="none">
	<path fill="#FFFFFF" d="M0.504,513.5C0.503,342.544,0.503,171.587,0.503,0.565c170.912,0,341.827,0,512.869,0
		c0,170.935,0,341.935,0.004,512.935C342.422,513.5,171.464,513.5,0.504,513.5z M318.745,347.322
		c44.85,44.851,89.491,89.493,133.762,133.764c9.558-9.553,19.057-19.048,29.111-29.096
		c-43.961-43.96-88.221-88.219-132.473-132.471c66.792-80.555,47.699-189.742-21.368-247.191
		C259.323,15.39,158.197,19.433,93.926,82.938C30.914,145.2,24.334,245.594,81.702,316.233
		C137.26,384.642,238.848,403.255,318.745,347.322z"/>
	<path display="inline" d="M320.484,358.99c-90.796,63.562-206.24,42.411-269.375-35.329C-14.085,243.387-6.607,129.299,65,58.545
		c73.037-72.167,187.957-76.762,265.749-12.057c78.487,65.284,100.185,189.364,24.282,280.907
		c50.288,50.287,100.585,100.583,150.542,150.539c-11.425,11.419-22.22,22.209-33.082,33.065
		C422.182,460.69,371.452,409.959,320.484,358.99z M378.898,198.52c-1.003-97.726-78.49-174.114-174.759-174.237
		C107.737,24.16,29.506,103.087,29.872,198.921c0.368,96.505,78.608,174.496,174.667,174.206
		C300.79,372.837,378.337,295.6,378.898,198.52z"/>
	<path fill="#FFFFFF" d="M370.148,206.113c-0.493,85.428-68.733,153.394-153.432,153.649
		c-84.529,0.255-153.378-68.374-153.702-153.296c-0.322-84.332,68.519-153.785,153.35-153.677
		C301.079,52.897,369.265,120.117,370.148,206.113z M226.637,216.277c24.462,0,48.026,0,71.536,0c0-6.916,0-13.338,0-20.321
		c-23.877,0-47.445,0-71.597,0c0-24.101,0-47.641,0-71.21c-7.001,0-13.403,0-20.378,0c0,23.844,0,47.376,0,71.51
		c-24.119,0-47.666,0-71.335,0c0,7.02,0,13.422,0,20.301c23.855,0,47.421,0,71.699,0c0,24.139,0,47.81,0,71.48
		c6.989,0,13.255,0,20.075,0C226.637,264.22,226.637,240.664,226.637,216.277z"/>
	<path display="inline" d="M215.813,210.071c0,27.713,0,54.482,0,81.548c-7.751,0-14.871,0-22.813,0c0-26.899,0-53.798,0-81.23
		c-27.59,0-54.37,0-81.479,0c0-7.817,0-15.092,0-23.07c26.897,0,53.656,0,81.065,0c0-27.426,0-54.168,0-81.264
		c7.926,0,15.202,0,23.157,0c0,26.783,0,53.534,0,80.922c27.446,0,54.229,0,81.363,0c0,7.936,0,15.234,0,23.093
		C270.389,210.071,243.612,210.071,215.813,210.071z"/>
</g>
<g display="none">
	<path fill="#FFFFFF" d="M513.35,513.5c-170.883,0-341.841,0-512.825,0c0-170.942,0-341.883,0-512.912
		c170.875,0,341.775,0,512.825,0C513.35,171.5,513.35,342.5,513.35,513.5z M452.548,481.526c9.868-9.869,19.278-19.28,28.972-28.975
		c-21.964-21.963-44.102-44.1-66.241-66.235c-22.131-22.128-44.263-44.255-66.639-66.627c20.18-24.281,33.553-51.436,39.015-82.298
		c5.489-31.019,2.987-61.316-7.82-90.961c-10.756-29.506-28.274-54.318-52.393-74.197C259.257,16.037,159.222,18.679,94.395,82.447
		C33.18,142.662,25.73,236.995,73.811,305.691c26.345,37.64,62.343,61.656,107.395,70.866
		c49.658,10.152,95.451-0.195,137.389-29.112c22.355,22.393,44.591,44.678,66.841,66.949
		C407.805,436.786,430.19,459.163,452.548,481.526z"/>
	<path display="inline" d="M472.311,511c-25.378-25.384-50.787-50.784-76.179-76.201c-25.256-25.28-50.495-50.576-75.871-75.993
		c-47.603,32.823-99.583,44.568-155.95,33.045c-51.137-10.455-91.999-37.715-121.903-80.44
		c-54.577-77.976-46.12-185.053,23.365-253.403c73.584-72.382,187.134-75.381,264.529-11.594
		c27.377,22.564,47.262,50.728,59.471,84.22c12.267,33.65,15.107,68.04,8.876,103.249c-6.199,35.031-21.38,65.854-44.285,93.416
		c25.399,25.395,50.521,50.511,75.642,75.628c25.13,25.126,50.258,50.254,75.19,75.183C494.193,489.115,483.512,499.797,472.311,511
		z M378.778,198.593c-0.102-95.961-78.51-174.386-174.344-174.383C108.48,24.213,30.39,102.337,30.153,198.567
		c-0.236,95.89,78.06,174.166,174.254,174.209C300.475,372.818,378.881,294.498,378.778,198.593z"/>
	<path fill="#FFFFFF" d="M370.147,206.301c0.09,84.491-68.984,153.489-153.619,153.452
		c-84.745-0.038-153.723-68.997-153.515-153.475C63.222,121.5,132.018,52.675,216.553,52.672
		C300.981,52.669,370.057,121.761,370.147,206.301z M134.931,196.365c0,6.646,0,13.178,0,19.826c54.556,0,108.883,0,163.277,0
		c0-6.744,0-13.16,0-19.826C243.877,196.365,189.824,196.365,134.931,196.365z"/>
	<path display="inline" d="M111.786,187.315c62.309,0,123.664,0,185.334,0c0,7.567,0,14.85,0,22.505c-61.742,0-123.408,0-185.334,0
		C111.786,202.273,111.786,194.859,111.786,187.315z"/>
</g>
<g display="none">
	<path fill="#FFFFFF" d="M513.35,513.5c-170.883,0-341.841,0-512.825,0c0-170.942,0-341.883,0-512.912
		c170.875,0,341.775,0,512.825,0C513.35,171.5,513.35,342.5,513.35,513.5z M318.502,347.566
		c44.693,44.694,89.434,89.436,133.66,133.663c9.828-9.83,19.321-19.324,29.021-29.026c-21.791-21.785-43.94-43.927-66.087-66.071
		c-22.111-22.107-44.22-44.215-66.287-66.278c66.057-79.669,49.503-188.702-20.766-247.186
		c-66.95-55.721-167.386-55.019-233.484,9.601c-62.054,60.665-71.293,161.008-13.441,233.254
		C134.926,382.72,236.565,404.602,318.502,347.566z"/>
	<path display="inline" d="M320.378,359.168c-93.074,64.789-208.529,39.933-269.653-36.399
		c-65.716-82.067-55.221-196.049,15.268-264.96c75.083-73.403,189.172-74.201,265.222-10.906
		c79.82,66.433,98.625,190.288,23.589,280.786c25.066,25.063,50.181,50.176,75.298,75.288c25.158,25.153,50.318,50.305,75.07,75.052
		c-11.018,11.02-21.802,21.805-32.966,32.971C421.969,460.761,371.147,409.938,320.378,359.168z M204.324,24.189
		C107.9,24.741,29.697,103.2,30.162,198.921c0.469,96.56,78.637,174.437,174.628,174.104
		c96.32-0.334,174.337-77.643,174.083-174.571C378.617,100.644,300.431,24.887,204.324,24.189z"/>
	<path fill="#FFFFFF" d="M216.335,52.672c84.606,0.614,153.436,67.306,153.662,153.412c0.223,85.329-68.458,153.387-153.252,153.681
		c-84.504,0.293-153.318-68.265-153.731-153.27C62.605,122.228,131.45,53.158,216.335,52.672z"/>
</g>
<g display="none">
	<path fill="#FFFFFF" d="M513.5,288.5c0,75,0,150,0,225c-171,0-342,0-513,0c0-171,0-342,0-513c171,0,342,0,513,0
		c0,89.667,0,179.333,0,269c-0.313-0.922-0.761-1.821-0.918-2.769c-5.93-35.969-25.935-60.543-59.94-73.524
		c-6.29-2.401-13.046-3.584-19.564-5.323c1.363-67.127-41.135-118.143-93.687-133.019c-70.943-20.081-124.362,5.92-162.397,67.685
		c-0.578-0.307-1.447-0.756-2.305-1.228c-25.02-13.773-50.058-13.804-74.426,1.104c-18.788,11.494-29.68,28.694-32.94,50.596
		c-0.401,2.692-0.537,5.126-3.974,6.611C15.176,200.442-8.03,248.451,5.505,298.845c10.346,38.52,47.576,69.221,87.519,70.656
		c30.124,1.082,60.306,0.541,90.463,0.662c1.802,0.007,3.677-0.302,5.396-0.849c4.256-1.354,6.602-4.496,6.859-8.869
		c0.259-4.39-1.744-7.901-5.84-9.538c-2.388-0.955-5.174-1.254-7.783-1.263c-26.329-0.087-52.66,0.032-78.988-0.119
		c-5.968-0.034-12.042-0.321-17.879-1.458c-34.01-6.629-60.4-36.513-62.94-69.407c-3.147-40.763,22.713-72.213,54.238-82.188
		c8.268-2.616,10.23-5.33,10.538-14.053c0.715-20.218,9.984-35.348,27.734-44.837c18.843-10.073,41.626-6.88,57.689,7.424
		c6.142,5.469,11.98,6.303,16.275,1.646c2.166-2.348,3.319-5.685,4.723-8.673c20.237-43.054,53.925-67.111,101.543-69.125
		c36.627-1.549,67.354,12.852,90.963,40.942c19.971,23.762,28.539,51.605,25.952,82.593c-0.959,11.491,2.281,15.774,13.765,16.111
		c41.113,1.205,73.373,40.694,66.407,81.285c-6.04,35.197-34.299,59.466-70.08,59.751c-29.661,0.237-59.325-0.011-88.987,0.146
		c-3.197,0.017-6.782,0.61-9.491,2.155c-4.198,2.394-5.198,6.739-3.824,11.371c1.326,4.469,5.654,6.974,12.058,6.981
		c29.829,0.03,59.66,0.227,89.487-0.041c40.832-0.368,74.115-24.057,87.221-61.929C510.733,301.836,511.868,295.082,513.5,288.5z
		 M247.332,447.525c-2.009-1.841-3.22-2.87-4.341-3.988c-9.199-9.18-18.38-18.379-27.571-27.568
		c-3.618-3.616-7.689-5.994-12.925-3.77c-7.288,3.095-8.34,11.388-2.112,17.659c18.317,18.442,36.733,36.786,55.118,55.161
		c0.565,0.565,1.216,1.044,1.844,1.577c0.608-0.37,1.086-0.549,1.415-0.878c18.749-18.717,37.532-37.401,56.15-56.248
		c1.745-1.766,3.044-4.455,3.499-6.91c0.841-4.539-1.19-8.134-5.438-10.167c-4.681-2.241-8.835-0.804-12.283,2.534
		c-6.943,6.72-13.769,13.566-20.502,20.496c-3.776,3.887-7.271,8.049-10.892,12.086c-0.542-0.345-1.084-0.69-1.626-1.036
		c0-1.759,0-3.518,0-5.277c0-56.318,0.012-112.636-0.037-168.954c-0.002-2.629-0.127-5.393-0.922-7.861
		c-2.192-6.808-10.864-9.219-15.537-3.892c-2.329,2.656-3.668,7.093-3.682,10.731c-0.223,56.65-0.156,113.302-0.157,169.953
		C247.333,442.927,247.332,444.682,247.332,447.525z"/>
	<path display="inline" d="M511,277.063c-1.626,6.559-2.758,13.288-4.958,19.648c-13.06,37.738-46.225,61.343-86.913,61.71
		c-29.721,0.268-59.447,0.072-89.17,0.041c-6.381-0.007-10.693-2.502-12.015-6.956c-1.37-4.615-0.373-8.945,3.81-11.33
		c2.7-1.54,6.271-2.131,9.457-2.148c29.557-0.156,59.116,0.09,88.672-0.145c35.654-0.284,63.813-24.468,69.832-59.54
		c6.942-40.448-25.204-79.796-66.172-80.997c-11.444-0.336-14.673-4.604-13.717-16.054c2.578-30.878-5.96-58.622-25.86-82.3
		C360.441,71,329.823,56.65,293.325,58.194c-47.45,2.007-81.018,25.979-101.183,68.881c-1.399,2.977-2.548,6.302-4.707,8.642
		c-4.28,4.64-10.097,3.81-16.217-1.64c-16.006-14.254-38.708-17.436-57.484-7.398c-17.687,9.455-26.923,24.531-27.636,44.678
		c-0.307,8.692-2.262,11.396-10.501,14.003c-31.414,9.94-57.182,41.279-54.046,81.897c2.531,32.778,28.828,62.556,62.717,69.162
		c5.816,1.134,11.869,1.419,17.816,1.453c26.236,0.15,52.473,0.031,78.709,0.118c2.6,0.009,5.376,0.307,7.755,1.259
		c4.082,1.632,6.077,5.13,5.819,9.504c-0.257,4.358-2.594,7.488-6.835,8.837c-1.713,0.545-3.581,0.853-5.377,0.846
		c-30.05-0.12-60.125,0.419-90.142-0.659c-39.802-1.43-76.9-32.022-87.209-70.406c-13.487-50.215,9.637-98.054,57.64-118.789
		c3.425-1.479,3.56-3.905,3.96-6.587c3.249-21.825,14.102-38.964,32.824-50.417c24.282-14.855,49.232-14.823,74.163-1.1
		c0.854,0.47,1.721,0.918,2.296,1.224c37.9-61.547,91.13-87.456,161.822-67.445c52.366,14.823,94.713,65.658,93.355,132.548
		c6.495,1.733,13.227,2.911,19.495,5.304c33.884,12.935,53.819,37.422,59.728,73.263c0.156,0.944,0.603,1.84,0.914,2.759
		C511,264.441,511,270.752,511,277.063z"/>
	<path display="inline" d="M245.775,435.524c0-2.833,0-4.581,0-6.33c0-56.451-0.067-112.902,0.156-169.352
		c0.014-3.625,1.348-8.046,3.669-10.693c4.656-5.308,13.298-2.905,15.482,3.878c0.792,2.459,0.916,5.213,0.918,7.833
		c0.049,56.119,0.037,112.237,0.037,168.356c0,1.753,0,3.505,0,5.258c0.54,0.344,1.08,0.688,1.621,1.032
		c3.609-4.023,7.091-8.17,10.854-12.044c6.709-6.906,13.511-13.727,20.43-20.424c3.436-3.326,7.575-4.757,12.24-2.525
		c4.233,2.026,6.257,5.608,5.419,10.131c-0.453,2.446-1.748,5.125-3.487,6.885c-18.552,18.78-37.268,37.398-55.951,56.049
		c-0.328,0.327-0.805,0.506-1.41,0.875c-0.625-0.531-1.274-1.008-1.837-1.571c-18.32-18.31-36.67-36.589-54.923-54.966
		c-6.206-6.248-5.158-14.512,2.104-17.596c5.218-2.216,9.275,0.153,12.879,3.757c9.159,9.156,18.307,18.322,27.474,27.47
		C242.566,432.665,243.772,433.69,245.775,435.524z"/>
</g>
<g display="none">
	<path fill="#FFFFFF" d="M513.5,288.5c0,75,0,150,0,225c-171,0-342,0-513,0c0-171,0-342,0-513c171,0,342,0,513,0
		c0,89.667,0,179.333,0,269c-0.313-0.922-0.761-1.821-0.918-2.769c-5.93-35.969-25.935-60.543-59.94-73.524
		c-6.29-2.401-13.046-3.584-19.564-5.323c1.363-67.127-41.135-118.143-93.687-133.019c-70.943-20.081-124.362,5.92-162.397,67.685
		c-0.578-0.307-1.447-0.756-2.305-1.228c-25.02-13.773-50.058-13.804-74.426,1.104c-18.788,11.494-29.68,28.694-32.94,50.596
		c-0.401,2.692-0.537,5.126-3.974,6.611C15.176,200.442-8.03,248.451,5.505,298.845c10.346,38.52,47.576,69.221,87.519,70.656
		c30.124,1.082,60.306,0.541,90.463,0.662c1.802,0.007,3.677-0.302,5.396-0.849c4.256-1.354,6.602-4.496,6.859-8.869
		c0.259-4.39-1.744-7.901-5.84-9.538c-2.388-0.955-5.174-1.254-7.783-1.263c-26.329-0.087-52.66,0.032-78.988-0.119
		c-5.968-0.034-12.042-0.321-17.879-1.458c-34.01-6.629-60.4-36.513-62.94-69.407c-3.147-40.763,22.713-72.213,54.238-82.188
		c8.268-2.616,10.23-5.33,10.538-14.053c0.715-20.218,9.984-35.348,27.734-44.837c18.843-10.073,41.626-6.88,57.689,7.424
		c6.142,5.469,11.98,6.303,16.275,1.646c2.166-2.348,3.319-5.685,4.723-8.673c20.237-43.054,53.925-67.111,101.543-69.125
		c36.627-1.549,67.354,12.852,90.963,40.942c19.971,23.762,28.539,51.605,25.952,82.593c-0.959,11.491,2.281,15.774,13.765,16.111
		c41.113,1.205,73.373,40.694,66.407,81.285c-6.04,35.197-34.299,59.466-70.08,59.751c-29.661,0.237-59.325-0.011-88.987,0.146
		c-3.197,0.017-6.782,0.61-9.491,2.155c-4.198,2.394-5.198,6.739-3.824,11.371c1.326,4.469,5.654,6.974,12.058,6.981
		c29.829,0.03,59.66,0.227,89.487-0.041c40.832-0.368,74.115-24.057,87.221-61.929C510.733,301.836,511.868,295.082,513.5,288.5z
		 M247.332,261.654c0,3.415,0,5.199,0,6.983c0,56.162-0.014,112.324,0.041,168.486c0.003,2.792,0.153,5.732,1.014,8.346
		c2.048,6.219,10.043,8.271,15.202,4.239c3.733-2.918,4.092-6.95,4.091-11.222c-0.021-56.662-0.013-113.325-0.013-169.987
		c0-1.764,0-3.527,0-6.421c2.021,1.832,3.232,2.842,4.345,3.952c9.205,9.179,18.373,18.393,27.592,27.557
		c3.449,3.428,7.294,5.999,12.461,3.993c7.775-3.018,8.844-11.575,2.193-18.256c-18.107-18.188-36.28-36.31-54.437-54.449
		c-0.677-0.676-1.46-1.246-2.38-2.023c-1.393,1.299-2.625,2.38-3.781,3.535c-17.212,17.197-34.283,34.54-51.68,51.547
		c-7.769,7.595-6.279,13.65-2.737,17.393c4.554,4.813,10.779,3.649,17.32-2.89C226.446,282.557,236.323,272.669,247.332,261.654z"/>
	<path display="inline" d="M511,277.001c-1.626,6.559-2.758,13.288-4.958,19.648c-13.06,37.738-46.225,61.343-86.913,61.71
		c-29.721,0.268-59.447,0.072-89.17,0.041c-6.381-0.007-10.693-2.502-12.015-6.956c-1.37-4.615-0.373-8.945,3.81-11.33
		c2.7-1.54,6.271-2.131,9.457-2.148c29.557-0.156,59.116,0.09,88.672-0.145c35.654-0.284,63.813-24.468,69.832-59.54
		c6.942-40.448-25.204-79.796-66.172-80.997c-11.444-0.336-14.673-4.604-13.717-16.054c2.578-30.878-5.96-58.622-25.86-82.3
		c-23.525-27.991-54.143-42.341-90.641-40.797c-47.45,2.007-81.018,25.979-101.183,68.881c-1.399,2.977-2.548,6.302-4.707,8.642
		c-4.28,4.64-10.097,3.81-16.217-1.64c-16.006-14.254-38.708-17.436-57.484-7.398c-17.687,9.455-26.923,24.531-27.636,44.678
		c-0.307,8.692-2.262,11.396-10.501,14.003c-31.414,9.94-57.182,41.279-54.046,81.897c2.531,32.778,28.828,62.556,62.717,69.162
		c5.816,1.134,11.869,1.419,17.816,1.453c26.236,0.15,52.473,0.031,78.709,0.118c2.6,0.009,5.376,0.307,7.755,1.259
		c4.082,1.632,6.077,5.13,5.819,9.504c-0.257,4.358-2.594,7.488-6.835,8.837c-1.713,0.545-3.581,0.853-5.377,0.846
		c-30.05-0.12-60.125,0.419-90.142-0.659c-39.802-1.43-76.9-32.022-87.209-70.406c-13.487-50.215,9.637-98.054,57.64-118.789
		c3.425-1.479,3.56-3.905,3.96-6.587c3.249-21.825,14.102-38.964,32.824-50.417c24.282-14.855,49.232-14.823,74.163-1.1
		c0.854,0.47,1.721,0.918,2.296,1.224c37.9-61.547,91.13-87.456,161.822-67.445c52.366,14.823,94.713,65.658,93.355,132.548
		c6.495,1.733,13.227,2.911,19.495,5.304c33.884,12.935,53.819,37.422,59.728,73.263c0.156,0.944,0.603,1.84,0.914,2.759
		C511,264.379,511,270.69,511,277.001z"/>
	<path display="inline" d="M245.775,250.25c-10.97,10.976-20.812,20.828-30.661,30.675c-6.517,6.516-12.721,7.676-17.259,2.88
		c-3.529-3.73-5.014-9.763,2.727-17.332c17.336-16.947,34.346-34.228,51.497-51.365c1.152-1.151,2.379-2.228,3.768-3.523
		c0.916,0.774,1.697,1.342,2.371,2.016c18.093,18.074,36.201,36.133,54.244,54.256c6.627,6.657,5.562,15.184-2.185,18.191
		c-5.149,1.999-8.98-0.563-12.416-3.979c-9.186-9.132-18.322-18.314-27.494-27.46c-1.109-1.106-2.316-2.113-4.33-3.938
		c0,2.883,0,4.641,0,6.398c0,56.462-0.007,112.924,0.013,169.386c0.002,4.257-0.356,8.275-4.076,11.183
		c-5.141,4.018-13.107,1.973-15.149-4.224c-0.858-2.605-1.008-5.534-1.011-8.317c-0.055-55.963-0.041-111.926-0.041-167.889
		C245.775,255.431,245.775,253.653,245.775,250.25z"/>
</g>
<g display="none">
	<path fill="#FFFFFF" d="M513.5,329.5c0,61.333,0,122.667,0,184c-171,0-342,0-513,0c0-171,0-342,0-513c171,0,342,0,513,0
		c0,103.333,0,206.667,0,310c-0.327-1.094-0.772-2.168-0.963-3.285c-6.019-35.281-25.607-59.65-58.931-72.682
		c-6.577-2.572-13.656-3.86-20.504-5.735c1.355-68.482-43.118-117.673-94.499-133.568c-26.978-8.346-54.16-8.486-81.085,0.237
		c-35.946,11.646-62.182,34.953-79.797,68.43c-1.369-0.738-2.387-1.252-3.373-1.822c-44.178-25.541-99.66,1.282-106.893,51.804
		c-0.606,4.231-2.58,6.047-6.306,7.623C13.677,241.58-10.334,296.661,7.206,344.883c14.797,40.681,50.515,66.093,94.646,66.195
		c106.309,0.246,212.619,0.205,318.928,0.016c41.335-0.073,74.831-24.067,87.905-62.351
		C510.814,342.508,511.921,335.923,513.5,329.5z"/>
	<path display="inline" d="M511,277.185c-1.573,6.398-2.675,12.956-4.796,19.167c-13.022,38.133-46.385,62.031-87.556,62.104
		c-105.888,0.188-211.776,0.229-317.663-0.016c-43.956-0.102-79.533-25.413-94.271-65.933
		c-17.47-48.031,6.445-102.893,53.728-122.891c3.712-1.57,5.678-3.379,6.281-7.593c7.204-50.322,62.466-77.038,106.469-51.599
		c0.982,0.568,1.996,1.08,3.36,1.815c17.546-33.344,43.677-56.558,79.481-68.158c26.818-8.689,53.892-8.549,80.763-0.236
		c51.177,15.832,95.474,64.828,94.124,133.038c6.822,1.868,13.872,3.15,20.423,5.712c33.193,12.98,52.703,37.253,58.698,72.394
		c0.19,1.113,0.634,2.182,0.959,3.272C511,264.569,511,270.877,511,277.185z M184.846,146.438
		c-4.954-4.486-8.837-8.101-12.824-11.598c-16.237-14.241-34.74-17.975-54.56-9.587c-19.594,8.292-29.97,23.892-31.114,45.317
		c-0.201,3.773,1.304,8.709-0.562,11.037c-2.089,2.605-7.106,2.886-10.868,4.12c-36.3,11.909-58.909,49.479-52.299,86.927
		c6.824,38.658,38.228,65.239,78.05,65.299c106.062,0.162,212.125,0.092,318.187-0.036c6.242-0.008,12.648-0.68,18.697-2.178
		c31.977-7.919,54.35-37.838,52.863-70.148c-1.587-34.482-25.705-62.193-58.887-67.144c-7.454-1.112-15.107-0.899-23.382-1.334
		c5.274-30.585,1.545-59.751-15.578-86.283c-17.196-26.646-41.427-43.536-72.394-50.246c-23.341-5.058-46.251-2.817-68.206,6.717
		C217.044,82.467,196.421,110.173,184.846,146.438z"/>
	<path fill="#FFFFFF" d="M186.047,198.232c11.622-36.409,32.327-64.225,67.392-79.452c22.042-9.572,45.043-11.822,68.477-6.744
		c31.09,6.737,55.418,23.694,72.683,50.446c17.191,26.638,20.935,55.92,15.64,86.627c8.308,0.436,15.991,0.223,23.475,1.34
		c33.314,4.971,57.528,32.792,59.121,67.412c1.493,32.439-20.969,62.477-53.073,70.428c-6.073,1.504-12.504,2.179-18.771,2.186
		c-106.484,0.129-212.969,0.199-319.454,0.036c-39.981-0.061-71.51-26.747-78.361-65.559c-6.636-37.597,16.063-75.317,52.507-87.273
		c3.777-1.239,8.814-1.522,10.911-4.137c1.874-2.337,0.362-7.292,0.564-11.081c1.148-21.51,11.565-37.172,31.237-45.498
		c19.899-8.421,38.476-4.673,54.777,9.625C177.174,190.099,181.074,193.728,186.047,198.232z"/>
</g>
</svg>
