<?xml version="1.0" encoding="utf-8"?>
<!-- Generator: Adobe Illustrator 16.0.0, SVG Export Plug-In . SVG Version: 6.00 Build 0)  -->
<!DOCTYPE svg PUBLIC "-//W3C//DTD SVG 1.1//EN" "http://www.w3.org/Graphics/SVG/1.1/DTD/svg11.dtd">
<svg version="1.1" id="Layer_1" xmlns="http://www.w3.org/2000/svg" xmlns:xlink="http://www.w3.org/1999/xlink" x="0px" y="0px"
	 width="512px" height="512px" viewBox="0 0 512 512" enable-background="new 0 0 512 512" xml:space="preserve">
<g>
	<line fill="none" stroke="#B35047" x1="32" y1="0" x2="32" y2="512"/>
	<line fill="none" stroke="#B35047" x1="64" y1="0" x2="64" y2="512"/>
	<line fill="none" stroke="#B35047" x1="96" y1="0" x2="96" y2="512"/>
	<line fill="none" stroke="#B35047" x1="128" y1="0" x2="128" y2="512"/>
	<line fill="none" stroke="#B35047" x1="160" y1="0" x2="160" y2="512"/>
	<line fill="none" stroke="#B35047" x1="192" y1="0" x2="192" y2="512"/>
	<line fill="none" stroke="#B35047" x1="224" y1="0" x2="224" y2="512"/>
	<line fill="none" stroke="#B35047" x1="256" y1="0" x2="256" y2="512"/>
	<line fill="none" stroke="#B35047" x1="288" y1="0" x2="288" y2="512"/>
	<line fill="none" stroke="#B35047" x1="320" y1="0" x2="320" y2="512"/>
	<line fill="none" stroke="#B35047" x1="352" y1="0" x2="352" y2="512"/>
	<line fill="none" stroke="#B35047" x1="384" y1="0" x2="384" y2="512"/>
	<line fill="none" stroke="#B35047" x1="416" y1="0" x2="416" y2="512"/>
	<line fill="none" stroke="#B35047" x1="448" y1="0" x2="448" y2="512"/>
	<line fill="none" stroke="#B35047" x1="480" y1="0" x2="480" y2="512"/>
	<line fill="none" stroke="#B35047" x1="0" y1="32" x2="512" y2="32"/>
	<line fill="none" stroke="#B35047" x1="0" y1="64" x2="512" y2="64"/>
	<line fill="none" stroke="#B35047" x1="0" y1="96" x2="512" y2="96"/>
	<line fill="none" stroke="#B35047" x1="0" y1="128" x2="512" y2="128"/>
	<line fill="none" stroke="#B35047" x1="0" y1="160" x2="512" y2="160"/>
	<line fill="none" stroke="#B35047" x1="0" y1="192" x2="512" y2="192"/>
	<line fill="none" stroke="#B35047" x1="0" y1="224" x2="512" y2="224"/>
	<line fill="none" stroke="#B35047" x1="0" y1="256" x2="512" y2="256"/>
	<line fill="none" stroke="#B35047" x1="0" y1="288" x2="512" y2="288"/>
	<line fill="none" stroke="#B35047" x1="0" y1="320" x2="512" y2="320"/>
	<line fill="none" stroke="#B35047" x1="0" y1="352" x2="512" y2="352"/>
	<line fill="none" stroke="#B35047" x1="0" y1="384" x2="512" y2="384"/>
	<line fill="none" stroke="#B35047" x1="0" y1="416" x2="512" y2="416"/>
	<line fill="none" stroke="#B35047" x1="0" y1="448" x2="512" y2="448"/>
	<line fill="none" stroke="#B35047" x1="0" y1="480" x2="512" y2="480"/>
	<rect fill="none" stroke="#B35047" width="512" height="512"/>
</g>
<g>
	<path display="none" fill-rule="evenodd" clip-rule="evenodd" fill="#FFFFFF" d="M-106.748,257.001
		C14.168,136.085,135.083,15.171,255.999-105.745C376.914,15.171,497.83,136.085,618.746,257
		C497.831,377.916,376.915,498.832,256,619.746C135.083,498.832,14.168,377.917-106.748,257.001z M150.68,167.836
		c0.648-0.181,1.292-0.361,1.938-0.546c1.374,1.373,2.744,2.744,4.116,4.116c68.452,68.45,136.896,136.903,205.37,205.331
		c1.75,1.75,3.6,3.549,5.73,4.744c6.832,3.84,15.231-1.078,14.396-8.844c-0.367-3.379-2.779-7.082-5.295-9.609
		c-68.575-68.796-137.284-137.462-205.972-206.149c-1.354-1.354-2.706-2.706-4.06-4.06c0.161-0.811,0.319-1.619,0.481-2.428
		c1.766,0.48,3.531,1.379,5.298,1.383c40.654,0.073,81.31,0.064,121.965,0.008c2.464-0.005,5.018-0.211,7.377-0.87
		c5.082-1.427,7.816-6.61,6.532-11.753c-1.313-5.268-5.237-7.797-12.33-7.799c-53.648-0.02-107.3-0.025-160.95-0.023
		c-1.285,0-2.572,0.144-4.041,0.231c-0.078,1.275-0.187,2.245-0.189,3.214c-0.006,53.983-0.016,107.967,0.024,161.951
		c0.002,1.802,0.269,3.666,0.78,5.395c1.584,5.378,6.742,8.143,12.119,6.667c5.04-1.386,7.546-5.485,7.548-12.563
		c0.017-40.986,0.029-81.973-0.014-122.961C151.502,171.46,150.967,169.647,150.68,167.836z"/>
	<path fill-rule="evenodd" clip-rule="evenodd" d="M103.51,128.271c0.417,2.627,1.193,5.256,1.197,7.883
		c0.06,59.432,0.043,118.863,0.017,178.294c-0.002,10.261-3.635,16.208-10.942,18.214c-7.799,2.142-15.275-1.866-17.577-9.666
		c-0.74-2.506-1.127-5.208-1.128-7.822c-0.057-78.275-0.047-156.549-0.034-234.828c0.001-1.406,0.161-2.812,0.271-4.66
		c2.131-0.127,4-0.335,5.861-0.335c77.793-0.004,155.586,0.003,233.379,0.034c10.282,0.004,15.975,3.67,17.879,11.309
		c1.861,7.455-2.107,14.974-9.473,17.039c-3.421,0.959-7.122,1.257-10.699,1.264c-58.949,0.082-117.897,0.095-176.846-0.012
		c-2.563-0.004-5.124-1.307-7.686-2.007c-0.232,1.173-0.465,2.349-0.695,3.522c1.964,1.964,3.925,3.925,5.887,5.887
		c99.596,99.596,199.225,199.161,298.657,298.917c3.649,3.663,7.147,9.034,7.675,13.934c1.215,11.259-10.961,18.39-20.873,12.825
		c-3.086-1.734-5.77-4.343-8.307-6.881c-99.287-99.221-198.535-198.478-297.789-297.731c-1.985-1.988-3.977-3.976-5.965-5.965
		C105.384,127.748,104.447,128.011,103.51,128.271z"/>
</g>
</svg>
