<?xml version="1.0" encoding="utf-8"?>
<!-- Generator: Adobe Illustrator 16.0.0, SVG Export Plug-In . SVG Version: 6.00 Build 0)  -->
<!DOCTYPE svg PUBLIC "-//W3C//DTD SVG 1.1//EN" "http://www.w3.org/Graphics/SVG/1.1/DTD/svg11.dtd">
<svg version="1.1" id="Layer_1" xmlns="http://www.w3.org/2000/svg" xmlns:xlink="http://www.w3.org/1999/xlink" x="0px" y="0px"
	 width="512px" height="512px" viewBox="0 0 512 512" enable-background="new 0 0 512 512" xml:space="preserve">
<g>
	<line fill="none" stroke="#B35047" x1="32" y1="0" x2="32" y2="512"/>
	<line fill="none" stroke="#B35047" x1="64" y1="0" x2="64" y2="512"/>
	<line fill="none" stroke="#B35047" x1="96" y1="0" x2="96" y2="512"/>
	<line fill="none" stroke="#B35047" x1="128" y1="0" x2="128" y2="512"/>
	<line fill="none" stroke="#B35047" x1="160" y1="0" x2="160" y2="512"/>
	<line fill="none" stroke="#B35047" x1="192" y1="0" x2="192" y2="512"/>
	<line fill="none" stroke="#B35047" x1="224" y1="0" x2="224" y2="512"/>
	<line fill="none" stroke="#B35047" x1="256" y1="0" x2="256" y2="512"/>
	<line fill="none" stroke="#B35047" x1="288" y1="0" x2="288" y2="512"/>
	<line fill="none" stroke="#B35047" x1="320" y1="0" x2="320" y2="512"/>
	<line fill="none" stroke="#B35047" x1="352" y1="0" x2="352" y2="512"/>
	<line fill="none" stroke="#B35047" x1="384" y1="0" x2="384" y2="512"/>
	<line fill="none" stroke="#B35047" x1="416" y1="0" x2="416" y2="512"/>
	<line fill="none" stroke="#B35047" x1="448" y1="0" x2="448" y2="512"/>
	<line fill="none" stroke="#B35047" x1="480" y1="0" x2="480" y2="512"/>
	<line fill="none" stroke="#B35047" x1="0" y1="32" x2="512" y2="32"/>
	<line fill="none" stroke="#B35047" x1="0" y1="64" x2="512" y2="64"/>
	<line fill="none" stroke="#B35047" x1="0" y1="96" x2="512" y2="96"/>
	<line fill="none" stroke="#B35047" x1="0" y1="128" x2="512" y2="128"/>
	<line fill="none" stroke="#B35047" x1="0" y1="160" x2="512" y2="160"/>
	<line fill="none" stroke="#B35047" x1="0" y1="192" x2="512" y2="192"/>
	<line fill="none" stroke="#B35047" x1="0" y1="224" x2="512" y2="224"/>
	<line fill="none" stroke="#B35047" x1="0" y1="256" x2="512" y2="256"/>
	<line fill="none" stroke="#B35047" x1="0" y1="288" x2="512" y2="288"/>
	<line fill="none" stroke="#B35047" x1="0" y1="320" x2="512" y2="320"/>
	<line fill="none" stroke="#B35047" x1="0" y1="352" x2="512" y2="352"/>
	<line fill="none" stroke="#B35047" x1="0" y1="384" x2="512" y2="384"/>
	<line fill="none" stroke="#B35047" x1="0" y1="416" x2="512" y2="416"/>
	<line fill="none" stroke="#B35047" x1="0" y1="448" x2="512" y2="448"/>
	<line fill="none" stroke="#B35047" x1="0" y1="480" x2="512" y2="480"/>
	<rect fill="none" stroke="#B35047" width="512" height="512"/>
</g>
<g>
	<path display="none" fill-rule="evenodd" clip-rule="evenodd" fill="#FFFFFF" d="M0.534,513.5c0-170.936,0-341.872,0-512.904
		c170.861,0,341.755,0,512.808,0c0,170.904,0,341.904,0,512.904C342.483,513.5,171.525,513.5,0.534,513.5z M257.502,390.544
		c34.514,0.076,67.288-8.015,98.861-21.391c37.421-15.853,71.157-37.745,101.861-64.181c13.988-12.044,27.005-25.243,40.129-38.255
		c6.511-6.455,6.212-11.564,0.229-18.33c-0.772-0.874-1.546-1.748-2.353-2.591c-40.737-42.578-86.965-77.488-141.491-100.628
		c-27.315-11.593-55.77-18.92-85.5-20.478c-38.658-2.024-75.436,6.186-110.833,21.247c-37.241,15.847-70.848,37.622-101.439,63.927
		C42.97,221.9,29.942,235.089,16.814,248.097c-6.734,6.673-6.437,11.728-0.23,18.701c0.775,0.871,1.547,1.748,2.354,2.59
		c40.534,42.291,86.453,77.078,140.642,100.132C190.821,382.811,223.346,390.613,257.502,390.544z"/>
	<path fill-rule="evenodd" clip-rule="evenodd" d="M256.506,389.545c-34.16,0.068-66.685-7.734-97.926-21.025
		c-54.188-23.054-100.107-57.841-140.642-100.132c-0.807-0.842-1.578-1.719-2.354-2.59c-6.207-6.974-6.504-12.028,0.23-18.701
		c13.127-13.008,26.156-26.196,40.152-38.231c30.591-26.305,64.198-48.08,101.439-63.927
		c35.397-15.062,72.175-23.271,110.833-21.247c29.73,1.558,58.185,8.885,85.5,20.478c54.526,23.14,100.754,58.05,141.491,100.628
		c0.807,0.843,1.58,1.717,2.353,2.591c5.983,6.766,6.282,11.875-0.229,18.33c-13.124,13.012-26.141,26.211-40.129,38.255
		c-30.704,26.436-64.44,48.328-101.861,64.181C323.79,381.529,291.016,389.62,256.506,389.545z M35.007,257.104
		c9.296,8.726,18.146,17.56,27.546,25.763c35.658,31.119,74.713,56.604,119.575,72.778c56.291,20.295,111.413,16.799,165.863-6.589
		c35.813-15.383,67.956-36.595,97.462-61.856c11.216-9.603,21.766-19.984,32.542-29.94c-17.782-23.687-91.98-79.471-109.573-82.712
		c25.171,57.863,4.181,115.482-34.407,146.474c-42.201,33.892-97.818,36.922-144.05,7.894
		c-21.473-13.482-37.119-32.334-46.754-55.788c-13.58-33.059-12.601-66.131,1.751-99.17
		C119.403,183.313,54.691,232.208,35.007,257.104z M259.395,328.182c4.016-0.471,10.895-0.752,17.544-2.136
		c73.698-15.326,106.273-101.262,61.297-161.751c-2.255-3.031-5.553-6.065-9.008-7.308c-48.508-17.437-97.131-17.373-145.664-0.002
		c-2.504,0.896-5.065,2.682-6.715,4.756c-18.357,23.078-25.72,49.368-21.46,78.534C162.815,291.127,205.921,328.374,259.395,328.182
		z"/>
	<path display="none" fill-rule="evenodd" clip-rule="evenodd" fill="#FFFFFF" d="M36.007,258.104
		c19.684-24.896,84.396-73.791,109.955-83.147c-14.353,33.039-15.332,66.111-1.751,99.17c9.635,23.454,25.281,42.306,46.754,55.788
		c46.232,29.028,101.849,25.998,144.05-7.894c38.588-30.991,59.578-88.61,34.407-146.474c17.593,3.241,91.791,59.025,109.573,82.712
		c-10.776,9.956-21.326,20.338-32.542,29.94c-29.506,25.262-61.648,46.474-97.462,61.856
		c-54.45,23.388-109.572,26.884-165.863,6.589c-44.862-16.174-83.917-41.659-119.575-72.778
		C54.153,275.663,45.303,266.829,36.007,258.104z"/>
	<path display="none" fill-rule="evenodd" clip-rule="evenodd" fill="#FFFFFF" d="M260.395,329.182
		c-53.473,0.192-96.58-37.055-104.007-87.906c-4.26-29.166,3.104-55.456,21.46-78.534c1.65-2.074,4.211-3.859,6.715-4.756
		c48.533-17.371,97.156-17.435,145.664,0.002c3.455,1.242,6.753,4.276,9.008,7.308c44.977,60.489,12.401,146.425-61.297,161.751
		C271.289,328.43,264.41,328.711,260.395,329.182z M257.617,277.876c28.205-0.089,51.02-23.016,50.974-51.224
		c-0.047-28.058-23.187-51.14-51.208-51.079c-28.014,0.061-51.02,23.219-50.976,51.313
		C206.451,255.043,229.472,277.964,257.617,277.876z"/>
	<path fill-rule="evenodd" clip-rule="evenodd" d="M256.617,276.876c-28.145,0.088-51.166-22.833-51.21-50.989
		c-0.044-28.095,22.962-51.253,50.976-51.313c28.021-0.061,51.161,23.021,51.208,51.079
		C307.637,253.86,284.822,276.787,256.617,276.876z"/>
</g>
</svg>
