<?xml version="1.0" encoding="utf-8"?>
<!-- Generator: Adobe Illustrator 17.0.0, SVG Export Plug-In . SVG Version: 6.00 Build 0)  -->
<!DOCTYPE svg PUBLIC "-//W3C//DTD SVG 1.1//EN" "http://www.w3.org/Graphics/SVG/1.1/DTD/svg11.dtd">
<svg version="1.1" id="Layer_1" xmlns="http://www.w3.org/2000/svg" xmlns:xlink="http://www.w3.org/1999/xlink" x="0px" y="0px"
	 width="512px" height="512px" viewBox="0 0 512 512" enable-background="new 0 0 512 512" xml:space="preserve">
<g>
	<line fill="none" stroke="#B35047" x1="32" y1="0" x2="32" y2="512"/>
	<line fill="none" stroke="#B35047" x1="64" y1="0" x2="64" y2="512"/>
	<line fill="none" stroke="#B35047" x1="96" y1="0" x2="96" y2="512"/>
	<line fill="none" stroke="#B35047" x1="128" y1="0" x2="128" y2="512"/>
	<line fill="none" stroke="#B35047" x1="160" y1="0" x2="160" y2="512"/>
	<line fill="none" stroke="#B35047" x1="192" y1="0" x2="192" y2="512"/>
	<line fill="none" stroke="#B35047" x1="224" y1="0" x2="224" y2="512"/>
	<line fill="none" stroke="#B35047" x1="256" y1="0" x2="256" y2="512"/>
	<line fill="none" stroke="#B35047" x1="288" y1="0" x2="288" y2="512"/>
	<line fill="none" stroke="#B35047" x1="320" y1="0" x2="320" y2="512"/>
	<line fill="none" stroke="#B35047" x1="352" y1="0" x2="352" y2="512"/>
	<line fill="none" stroke="#B35047" x1="384" y1="0" x2="384" y2="512"/>
	<line fill="none" stroke="#B35047" x1="416" y1="0" x2="416" y2="512"/>
	<line fill="none" stroke="#B35047" x1="448" y1="0" x2="448" y2="512"/>
	<line fill="none" stroke="#B35047" x1="480" y1="0" x2="480" y2="512"/>
	<line fill="none" stroke="#B35047" x1="0" y1="32" x2="512" y2="32"/>
	<line fill="none" stroke="#B35047" x1="0" y1="64" x2="512" y2="64"/>
	<line fill="none" stroke="#B35047" x1="0" y1="96" x2="512" y2="96"/>
	<line fill="none" stroke="#B35047" x1="0" y1="128" x2="512" y2="128"/>
	<line fill="none" stroke="#B35047" x1="0" y1="160" x2="512" y2="160"/>
	<line fill="none" stroke="#B35047" x1="0" y1="192" x2="512" y2="192"/>
	<line fill="none" stroke="#B35047" x1="0" y1="224" x2="512" y2="224"/>
	<line fill="none" stroke="#B35047" x1="0" y1="256" x2="512" y2="256"/>
	<line fill="none" stroke="#B35047" x1="0" y1="288" x2="512" y2="288"/>
	<line fill="none" stroke="#B35047" x1="0" y1="320" x2="512" y2="320"/>
	<line fill="none" stroke="#B35047" x1="0" y1="352" x2="512" y2="352"/>
	<line fill="none" stroke="#B35047" x1="0" y1="384" x2="512" y2="384"/>
	<line fill="none" stroke="#B35047" x1="0" y1="416" x2="512" y2="416"/>
	<line fill="none" stroke="#B35047" x1="0" y1="448" x2="512" y2="448"/>
	<line fill="none" stroke="#B35047" x1="0" y1="480" x2="512" y2="480"/>
	<rect x="0" fill="none" stroke="#B35047" width="512" height="512"/>
</g>
<g display="none">
	<path fill="#FFFFFF" d="M853.5,131.5c0,78,0,156,0,234c-171,0-342,0-513,0c0-171,0-342,0-513c171,0,342,0,513,0
		c0,78.333,0,156.667,0,235c-1.155-6.534-2.107-13.111-3.495-19.596c-11.612-54.247-40.352-97.218-85.628-129.098
		c-7.188-5.062-15.033-9.213-22.7-13.565c-3.817-2.167-8.332-2.922-11.609,0.357c-2.215,2.217-4.059,5.878-4.122,8.933
		c-0.107,5.204,4.308,7.717,8.514,10.076c57.454,32.22,90.901,80.778,98.132,146.448c4.781,43.42-5.393,83.66-29.152,120.328
		c-17.475,26.971-40.631,47.824-68.891,63.118c-2.95,1.597-5.954,3.947-7.692,6.724c-2.401,3.837-1.387,7.994,1.951,11.317
		c3.359,3.345,7.787,4.002,12.867,1.212c6.996-3.841,14.024-7.711,20.613-12.195c42.237-28.743,70.627-67.631,84.334-116.913
		C849.64,153.799,851.245,142.559,853.5,131.5z M617.801,108.214c0-61.811,0.004-123.622-0.012-185.433
		c-0.001-3.33-0.014-6.673-0.292-9.987c-1.677-19.968-17.336-31.734-36.451-27.19c-8.369,1.99-14.796,7.363-20.756,13.305
		c-38.228,38.112-76.482,76.197-114.644,114.375c-2.547,2.548-5.071,3.71-8.728,3.68c-19.991-0.167-39.985-0.1-59.978-0.057
		c-2.991,0.006-5.996,0.17-8.968,0.503c-14.826,1.66-26.464,14.697-26.468,29.608c-0.012,41.652-0.013,83.303,0.022,124.955
		c0.002,2.143,0.096,4.357,0.621,6.416c3.779,14.818,15.662,23.603,32.285,23.696c20.659,0.115,41.319,0.12,61.977-0.049
		c3.967-0.033,6.807,1.09,9.638,3.925c37.79,37.843,75.644,75.622,113.641,113.257c4.446,4.404,9.422,8.613,14.872,11.598
		c16.48,9.028,34.489,1.824,39.982-16.114c2.104-6.873,3.096-14.349,3.123-21.556C617.902,231.503,617.801,169.858,617.801,108.214z
		 M782.001,112.478c-1.345-52.531-21.4-92.568-61.046-122.565c-5.284-3.998-11.057-7.453-16.932-10.534
		c-5.291-2.775-10.861-0.964-13.562,3.529c-2.743,4.564-1.264,10.504,3.611,14.018c1.613,1.163,3.424,2.051,5.143,3.067
		c67.193,39.671,82.719,132.123,32.194,191.505c-9.925,11.665-21.426,21.389-34.745,28.963c-4.446,2.528-7.818,5.867-7.091,11.508
		c1.03,7.991,9.064,11.123,16.967,6.405C755.268,209.285,779.744,165.991,782.001,112.478z M710.116,110.156
		c0.773-22.675-12.989-48.186-32.808-59.295c-6.547-3.67-13.899-6.161-21.159-8.21c-4.459-1.258-8.028,1.868-9.682,6.095
		c-1.751,4.476-0.698,8.639,3.372,11.442c2.143,1.475,4.69,2.417,7.141,3.381c19.314,7.591,30.417,21.666,32.307,42.302
		c2.02,22.058-11.534,42.127-32.484,49.681c-3.195,1.152-6.671,2.717-8.879,5.131c-3.182,3.479-3.062,7.904-0.154,11.937
		c2.747,3.809,7.377,4.928,13.001,3.113C690.464,166.148,709.049,141.451,710.116,110.156z"/>
	<path display="inline" d="M511,277.744c-2.246,11.016-3.845,22.211-6.85,33.016c-13.653,49.089-41.932,87.825-84.004,116.455
		c-6.563,4.466-13.563,8.321-20.532,12.147c-5.06,2.778-9.47,2.124-12.817-1.208c-3.324-3.31-4.335-7.45-1.943-11.273
		c1.731-2.766,4.723-5.107,7.662-6.697c28.149-15.234,51.214-36.006,68.621-62.871c23.665-36.524,33.8-76.606,29.038-119.857
		c-7.203-65.413-40.52-113.781-97.748-145.875c-4.19-2.35-8.587-4.853-8.48-10.036c0.063-3.043,1.899-6.69,4.106-8.898
		c3.264-3.266,7.761-2.514,11.563-0.356c7.636,4.335,15.45,8.47,22.611,13.512c45.099,31.756,73.727,74.558,85.293,128.593
		c1.383,6.459,2.332,13.01,3.482,19.519C511,248.525,511,263.135,511,277.744z"/>
	<path display="inline" d="M276.224,254.549c0,61.403,0.101,122.807-0.135,184.209c-0.028,7.179-1.015,14.625-3.111,21.472
		c-5.471,17.868-23.41,25.044-39.825,16.051c-5.429-2.974-10.385-7.167-14.814-11.553c-37.849-37.487-75.555-75.118-113.197-112.813
		c-2.82-2.824-5.649-3.942-9.6-3.91c-20.577,0.169-41.157,0.163-61.734,0.049c-16.558-0.092-28.395-8.843-32.159-23.603
		c-0.523-2.052-0.617-4.257-0.619-6.391c-0.034-41.489-0.033-82.977-0.022-124.466c0.004-14.853,11.597-27.839,26.364-29.493
		c2.96-0.331,5.954-0.495,8.933-0.501c19.914-0.043,39.83-0.11,59.743,0.057c3.643,0.03,6.158-1.128,8.694-3.665
		c38.013-38.028,76.118-75.964,114.196-113.927c5.937-5.919,12.339-11.271,20.675-13.253c19.039-4.527,34.638,7.193,36.308,27.083
		c0.277,3.301,0.29,6.631,0.291,9.948C276.228,131.411,276.224,192.98,276.224,254.549z M256.051,254.329
		c0-62.072,0.022-124.144-0.056-186.216c-0.005-3.6-0.337-7.341-1.36-10.765c-1.44-4.815-5.176-6.885-9.68-4.779
		c-4.529,2.118-8.919,5.122-12.472,8.643c-41.143,40.771-82.067,81.763-123.204,122.539c-4.36,4.322-6.454,9.109-6.458,15
		c-0.025,38.006-0.038,76.013,0.013,114.019c0.007,5.265,1.38,9.951,5.392,13.935c41.924,41.633,83.724,83.392,125.635,125.038
		c2.671,2.655,5.752,5.095,9.053,6.873c5.112,2.753,9.33,1.144,10.891-4.423c1.367-4.875,2.143-10.082,2.155-15.144
		C256.1,377.477,256.051,315.903,256.051,254.329z M82.933,184.919c-15.674,0-32.402-0.047-49.129,0.019
		c-8.63,0.034-11.932,3.424-11.938,12.175c-0.027,39.135-0.028,78.269,0,117.404c0.006,8.941,3.307,12.182,12.408,12.211
		c15.422,0.049,30.843,0.022,46.265,0c1.26-0.002,2.519-0.212,2.557-0.215C82.41,279.26,82.596,232.439,82.933,184.919z"/>
	<path display="inline" d="M439.781,258.797c-2.248,53.303-26.628,96.428-75.165,125.404c-7.872,4.699-15.875,1.58-16.9-6.38
		c-0.724-5.619,2.635-8.944,7.063-11.463c13.267-7.545,24.722-17.231,34.609-28.85c50.328-59.15,34.862-151.241-32.068-190.756
		c-1.713-1.011-3.516-1.896-5.123-3.055c-4.855-3.501-6.329-9.417-3.597-13.963c2.691-4.476,8.239-6.28,13.509-3.516
		c5.851,3.069,11.602,6.511,16.865,10.493C418.465,166.59,438.442,206.471,439.781,258.797z"/>
	<path display="inline" d="M368.177,256.484c-1.063,31.172-19.576,55.773-49.152,65.319c-5.602,1.808-10.215,0.694-12.951-3.1
		c-2.897-4.017-3.016-8.425,0.154-11.89c2.2-2.405,5.662-3.964,8.844-5.111c20.868-7.524,34.369-27.516,32.357-49.487
		c-1.882-20.555-12.942-34.575-32.18-42.136c-2.441-0.96-4.979-1.898-7.113-3.367c-4.054-2.792-5.103-6.938-3.359-11.397
		c1.647-4.21,5.202-7.324,9.644-6.071c7.232,2.041,14.555,4.522,21.076,8.178C355.24,208.487,368.948,233.898,368.177,256.484z"/>
	<path fill="#FFFFFF" d="M597.549,107.993c0,61.816,0.05,123.632-0.091,185.447c-0.012,5.083-0.79,10.31-2.163,15.204
		c-1.568,5.589-5.802,7.204-10.934,4.44c-3.314-1.785-6.407-4.235-9.089-6.9c-42.076-41.81-84.039-83.732-126.128-125.529
		c-4.028-4-5.407-8.705-5.414-13.99c-0.051-38.156-0.038-76.312-0.013-114.467c0.004-5.915,2.106-10.72,6.484-15.059
		c41.299-40.937,82.383-82.09,123.688-123.021c3.567-3.535,7.975-6.551,12.521-8.677c4.522-2.114,8.273-0.036,9.718,4.798
		c1.028,3.437,1.361,7.193,1.365,10.807C597.571-16.639,597.549,45.677,597.549,107.993z"/>
	<path fill="#FFFFFF" d="M423.752,38.311c-0.338,47.706-0.525,94.711,0.163,142.15c-0.039,0.003-1.303,0.214-2.567,0.216
		c-15.482,0.022-30.965,0.049-46.447,0c-9.136-0.029-12.45-3.282-12.456-12.259c-0.028-39.288-0.027-78.577,0-117.865
		c0.006-8.785,3.322-12.189,11.985-12.223C391.222,38.264,408.016,38.311,423.752,38.311z"/>
</g>
<g display="none">
	<path fill="#FFFFFF" d="M340.5-147.5c171,0,342,0,513,0c0,171,0,342,0,513c-171,0-342,0-513,0C340.5,194.5,340.5,23.5,340.5-147.5z
		 M617.801,108.407c0-61.978,0.005-123.955-0.013-185.933c-0.001-3.33-0.009-6.676-0.315-9.986
		c-1.826-19.747-17.244-31.276-36.238-26.921c-8.398,1.925-14.846,7.268-20.806,13.208
		c-38.352,38.223-76.721,76.429-115.008,114.718c-2.426,2.426-4.865,3.482-8.311,3.459c-20.158-0.139-40.318-0.09-60.478-0.044
		c-2.99,0.007-5.997,0.179-8.967,0.529c-14.537,1.711-26.156,14.776-26.161,29.388c-0.015,41.818-0.016,83.636,0.025,125.455
		c0.002,2.137,0.17,4.345,0.714,6.4c3.878,14.643,15.583,23.292,31.995,23.399c20.825,0.136,41.652,0.116,62.477-0.037
		c3.792-0.028,6.492,1.081,9.192,3.785c37.794,37.839,75.642,75.623,113.645,113.251c4.563,4.518,9.67,8.853,15.277,11.879
		c16.316,8.807,34.219,1.583,39.651-16.072c2.114-6.872,3.153-14.342,3.182-21.546C617.904,231.696,617.801,170.051,617.801,108.407
		z M720.36,95.08c-14.15-14.178-27.724-27.924-41.514-41.45c-2.262-2.218-5.284-4.231-8.293-4.984
		c-4.413-1.103-8.178,0.96-10.217,5.241c-2.31,4.849-0.875,9.09,2.691,12.692c8.907,8.997,17.842,17.968,26.863,26.852
		c5.307,5.227,10.8,10.265,16.344,15.516c-1.898,2.006-2.999,3.226-4.159,4.387c-12.479,12.494-24.989,24.957-37.428,37.491
		c-1.62,1.632-3.183,3.457-4.256,5.468c-3.434,6.432,1.188,14.528,8.426,14.037c3.268-0.222,7.038-2.13,9.446-4.45
		c12.954-12.481,25.55-25.335,38.278-38.051c1.24-1.239,2.541-2.417,4.426-4.204c1.51,1.874,2.542,3.418,3.828,4.71
		c12.574,12.635,25.199,25.218,37.788,37.838c3.514,3.523,7.499,5.696,12.523,3.829c7.558-2.809,8.701-11.453,2.311-17.909
		c-12.775-12.905-25.663-25.696-38.493-38.546c-1.261-1.263-2.442-2.607-3.809-4.074c1.356-1.44,2.447-2.662,3.603-3.82
		c12.479-12.494,24.985-24.961,37.433-37.486c1.509-1.518,2.899-3.221,4.029-5.035c2.535-4.07,1.652-8.041-1.149-11.546
		c-2.658-3.326-7.861-4.244-11.812-2.1c-2.002,1.086-3.84,2.616-5.466,4.232C748.064,67.324,734.441,80.993,720.36,95.08z"/>
	<path display="inline" d="M311.997,254.73c0,61.406,0.103,122.812-0.138,184.216c-0.028,7.176-1.063,14.617-3.169,21.462
		c-5.41,17.587-23.244,24.783-39.497,16.01c-5.585-3.015-10.673-7.333-15.218-11.833c-37.856-37.483-75.558-75.121-113.205-112.813
		c-2.69-2.693-5.38-3.798-9.157-3.77c-20.744,0.153-41.49,0.172-62.235,0.037c-16.349-0.106-28.008-8.722-31.871-23.309
		c-0.542-2.047-0.71-4.246-0.712-6.375c-0.04-41.656-0.039-83.312-0.024-124.969c0.005-14.556,11.579-27.571,26.06-29.275
		c2.958-0.348,5.953-0.52,8.932-0.527c20.081-0.045,40.163-0.095,60.243,0.044c3.432,0.024,5.863-1.029,8.279-3.445
		c38.138-38.141,76.359-76.199,114.562-114.274c5.937-5.917,12.36-11.239,20.726-13.157c18.921-4.338,34.279,7.146,36.098,26.816
		c0.305,3.298,0.313,6.631,0.314,9.947C312.002,131.255,311.997,192.993,311.997,254.73z M291.823,254.091
		c0-61.908,0.02-123.817-0.051-185.725c-0.004-3.607-0.273-7.349-1.258-10.788c-1.442-5.035-5.305-7.167-10.012-4.985
		c-4.389,2.036-8.617,4.991-12.06,8.405c-41.255,40.897-82.305,82-123.555,122.902c-4.231,4.195-6.28,8.869-6.286,14.567
		c-0.041,38.174-0.052,76.348,0.01,114.522c0.008,5.078,1.318,9.662,5.195,13.513c42.034,41.762,83.959,83.632,125.986,125.4
		c2.556,2.54,5.5,4.874,8.653,6.588c5.376,2.922,9.571,1.349,11.194-4.518c1.35-4.879,2.084-10.089,2.096-15.154
		C291.871,377.244,291.824,315.668,291.823,254.091z M118.709,184.999c-16.605,0-34.166-0.131-51.724,0.073
		c-5.935,0.069-9.32,4.133-9.33,10.633c-0.06,39.965-0.062,79.931-0.009,119.896c0.01,7.446,3.562,11.041,10.995,11.089
		c16.417,0.107,32.834,0.037,49.252,0.012c0.743-0.001,1.485-0.277,1.129-0.206C118.04,279.154,118.397,232.33,118.709,184.999z"/>
	<path display="inline" d="M414.159,241.455c14.026-14.033,27.596-27.648,41.232-41.198c1.62-1.61,3.451-3.133,5.445-4.215
		c3.936-2.136,9.119-1.221,11.766,2.092c2.79,3.491,3.669,7.447,1.145,11.501c-1.125,1.807-2.511,3.503-4.013,5.015
		c-12.399,12.477-24.857,24.895-37.288,37.341c-1.152,1.153-2.239,2.37-3.59,3.805c1.362,1.461,2.538,2.8,3.794,4.058
		c12.78,12.8,25.618,25.543,38.344,38.397c6.366,6.431,5.227,15.042-2.302,17.84c-5.004,1.859-8.974-0.305-12.474-3.814
		c-12.54-12.571-25.116-25.105-37.642-37.691c-1.281-1.287-2.309-2.825-3.813-4.692c-1.878,1.78-3.173,2.953-4.409,4.187
		c-12.679,12.667-25.225,25.471-38.13,37.903c-2.399,2.311-6.154,4.212-9.409,4.433c-7.21,0.489-11.814-7.576-8.393-13.983
		c1.07-2.003,2.627-3.821,4.24-5.447c12.39-12.486,24.852-24.901,37.283-37.346c1.155-1.157,2.252-2.372,4.143-4.37
		c-5.523-5.231-10.994-10.25-16.281-15.456c-8.986-8.849-17.886-17.785-26.759-26.748c-3.553-3.588-4.981-7.813-2.681-12.643
		c2.031-4.265,5.782-6.32,10.178-5.221c2.998,0.749,6.008,2.754,8.261,4.964C386.542,213.64,400.063,227.333,414.159,241.455z"/>
	<path fill="#FFFFFF" d="M597.549,107.765c0,61.816,0.048,123.631-0.089,185.447c-0.011,5.085-0.749,10.315-2.104,15.213
		c-1.629,5.89-5.841,7.468-11.238,4.535c-3.165-1.72-6.121-4.063-8.687-6.614c-42.191-41.931-84.279-83.964-126.476-125.888
		c-3.892-3.867-5.207-8.468-5.215-13.566c-0.062-38.322-0.051-76.645-0.01-114.967c0.006-5.721,2.064-10.413,6.311-14.624
		c41.41-41.061,82.62-82.324,124.036-123.38c3.457-3.427,7.701-6.394,12.107-8.438c4.725-2.191,8.603-0.05,10.051,5.004
		c0.989,3.452,1.259,7.209,1.263,10.83C597.569-16.533,597.549,45.616,597.549,107.765z"/>
	<path fill="#FFFFFF" d="M423.762,38.405c-0.314,47.515-0.672,94.52,0.315,142.048c0.358-0.071-0.388,0.206-1.134,0.207
		c-16.481,0.026-32.963,0.096-49.443-0.012c-7.462-0.049-11.028-3.657-11.038-11.132c-0.053-40.121-0.051-80.242,0.009-120.362
		c0.01-6.526,3.408-10.605,9.366-10.675C389.463,38.273,407.092,38.405,423.762,38.405z"/>
</g>
<g display="none">
	<path fill="#FFFFFF" d="M340.5-147.5c171,0,342,0,513,0c0,171,0,342,0,513c-171,0-342,0-513,0C340.5,194.5,340.5,23.5,340.5-147.5z
		 M617.801,108.634c0-61.978,0.004-123.955-0.012-185.933c-0.001-3.33-0.013-6.674-0.298-9.987
		c-1.717-19.959-17.438-31.708-36.522-27.096c-8.357,2.02-14.776,7.403-20.736,13.346C522.007-62.922,483.75-24.839,445.592,13.342
		c-2.563,2.565-5.121,3.647-8.754,3.618c-19.991-0.16-39.985-0.097-59.978-0.053c-2.99,0.007-5.996,0.173-8.968,0.51
		c-14.797,1.676-26.386,14.732-26.39,29.681c-0.01,41.651-0.013,83.303,0.023,124.954c0.002,2.141,0.115,4.354,0.645,6.412
		c3.818,14.822,15.675,23.538,32.339,23.624c20.659,0.106,41.319,0.122,61.977-0.054c3.989-0.034,6.797,1.166,9.613,3.986
		c37.793,37.84,75.646,75.621,113.644,113.254c4.446,4.403,9.427,8.611,14.883,11.583c16.492,8.986,34.424,1.741,39.946-16.227
		c2.064-6.717,3.066-14.02,3.093-21.062C617.899,231.923,617.801,170.279,617.801,108.634z M782.002,112.487
		c-1.344-52.535-21.397-92.573-61.042-122.571c-5.284-3.998-11.057-7.453-16.931-10.535c-5.292-2.777-10.86-0.97-13.564,3.523
		c-2.747,4.563-1.27,10.503,3.604,14.019c1.613,1.163,3.423,2.052,5.143,3.067c67.195,39.672,82.726,132.124,32.201,191.504
		c-9.925,11.665-21.425,21.39-34.744,28.965c-4.446,2.529-7.82,5.865-7.096,11.505c1.025,7.989,9.065,11.127,16.963,6.412
		C755.266,209.29,779.742,165.995,782.002,112.487z M710.133,109.664c-0.712-25.125-11.322-45.444-33.271-58.988
		c-6.204-3.828-13.575-6.045-20.683-8.027c-4.469-1.246-8.037,1.849-9.701,6.071c-1.762,4.47-0.724,8.639,3.341,11.45
		c2.139,1.479,4.685,2.427,7.136,3.389c19.319,7.58,30.431,21.647,32.331,42.283c2.031,22.056-11.528,42.136-32.451,49.715
		c-3.311,1.199-6.831,3.001-9.126,5.543c-3.236,3.583-2.723,8.087,0.368,11.876c3.422,4.195,7.896,4.306,12.669,2.769
		C690.414,166.192,709.004,141.51,710.133,109.664z"/>
	<path display="inline" d="M311.831,254.972c0,61.401,0.098,122.802-0.134,184.203c-0.026,7.014-1.024,14.289-3.081,20.979
		c-5.501,17.898-23.361,25.114-39.789,16.163c-5.434-2.961-10.396-7.152-14.824-11.538
		c-37.848-37.485-75.552-75.116-113.195-112.807c-2.805-2.809-5.602-4.004-9.575-3.97c-20.576,0.176-41.155,0.16-61.732,0.054
		c-16.598-0.085-28.408-8.767-32.211-23.53c-0.528-2.05-0.641-4.254-0.643-6.387c-0.036-41.487-0.033-82.974-0.023-124.461
		c0.004-14.89,11.547-27.894,26.286-29.563c2.959-0.335,5.954-0.501,8.932-0.508c19.914-0.044,39.828-0.106,59.741,0.053
		c3.618,0.029,6.166-1.05,8.719-3.604c38.008-38.03,76.114-75.963,114.189-113.927c5.937-5.919,12.33-11.281,20.654-13.293
		c19.009-4.594,34.668,7.109,36.378,26.989c0.284,3.3,0.296,6.631,0.297,9.948C311.835,131.506,311.831,193.239,311.831,254.972z
		 M291.659,254.314c0-62.07,0.022-124.139-0.056-186.209c-0.004-3.6-0.34-7.341-1.367-10.763c-1.444-4.809-5.182-6.87-9.691-4.758
		c-4.527,2.121-8.913,5.13-12.467,8.652c-41.141,40.77-82.064,81.76-123.199,122.535c-4.362,4.324-6.441,9.116-6.445,15.005
		c-0.025,38.005-0.038,76.01,0.014,114.016c0.007,5.266,1.393,9.946,5.405,13.93c41.924,41.631,83.721,83.389,125.631,125.033
		c2.671,2.654,5.754,5.093,9.056,6.868c5.107,2.745,9.321,1.126,10.881-4.449c1.364-4.876,2.137-10.082,2.148-15.145
		C291.708,377.458,291.659,315.886,291.659,254.314z M118.715,184.929c-15.928,0-32.818-0.058-49.707,0.025
		c-8.067,0.04-11.509,3.514-11.518,11.583c-0.042,39.465-0.04,78.93-0.004,118.395c0.008,8.35,3.416,11.752,11.819,11.79
		c15.753,0.072,31.506,0.029,47.258,0.007c1.117-0.002,2.234-0.217,1.984-0.191C118.226,279.349,118.005,232.529,118.715,184.929z"
		/>
	<path display="inline" d="M475.383,258.809c-2.251,53.297-26.631,96.421-75.167,125.393c-7.867,4.696-15.875,1.57-16.896-6.387
		c-0.721-5.618,2.64-8.941,7.068-11.46c13.267-7.545,24.72-17.231,34.607-28.85c50.325-59.146,34.856-151.233-32.074-190.749
		c-1.713-1.011-3.516-1.896-5.123-3.055c-4.855-3.502-6.326-9.419-3.59-13.964c2.694-4.476,8.24-6.276,13.511-3.51
		c5.851,3.07,11.601,6.512,16.864,10.494C454.071,166.602,474.045,206.482,475.383,258.809z"/>
	<path display="inline" d="M403.798,255.998c-1.125,31.72-19.642,56.304-49.192,65.82c-4.754,1.531-9.211,1.421-12.619-2.758
		c-3.079-3.774-3.589-8.261-0.366-11.829c2.286-2.532,5.792-4.326,9.09-5.521c20.84-7.549,34.345-27.55,32.323-49.519
		c-1.893-20.555-12.96-34.566-32.203-42.116c-2.441-0.958-4.978-1.902-7.108-3.375c-4.049-2.801-5.083-6.953-3.328-11.405
		c1.657-4.205,5.211-7.288,9.663-6.047c7.079,1.974,14.422,4.182,20.601,7.995C392.52,210.734,403.089,230.972,403.798,255.998z"/>
	<path fill="#FFFFFF" d="M597.549,107.974c0,61.816,0.049,123.632-0.091,185.447c-0.012,5.083-0.787,10.31-2.157,15.205
		c-1.566,5.597-5.797,7.223-10.924,4.467c-3.315-1.782-6.41-4.23-9.092-6.895c-42.076-41.809-84.039-83.733-126.129-125.528
		c-4.028-3.999-5.419-8.698-5.426-13.985c-0.052-38.156-0.039-76.312-0.014-114.467c0.004-5.913,2.091-10.724,6.471-15.065
		c41.299-40.937,82.384-82.089,123.688-123.021c3.568-3.536,7.971-6.557,12.517-8.686c4.527-2.12,8.28-0.052,9.729,4.777
		c1.031,3.435,1.368,7.191,1.373,10.805C597.571-16.658,597.549,45.658,597.549,107.974z"/>
	<path fill="#FFFFFF" d="M423.921,38.313c-0.713,47.789-0.491,94.794-0.168,142.171c0.251-0.026-0.87,0.19-1.992,0.192
		c-15.815,0.021-31.631,0.064-47.446-0.008c-8.435-0.038-11.858-3.454-11.865-11.837c-0.036-39.621-0.038-79.243,0.004-118.864
		c0.009-8.101,3.464-11.589,11.564-11.629C390.973,38.255,407.93,38.313,423.921,38.313z"/>
</g>
<g>
	<path display="none" fill="#FFFFFF" d="M853.35,365.5c-170.883,0-341.841,0-512.825,0c0-170.942,0-341.883,0-512.912
		c170.875,0,341.775,0,512.825,0C853.35,23.5,853.35,194.5,853.35,365.5z M617.801,108.501c0-61.978,0.005-123.955-0.012-185.933
		c-0.001-3.33-0.011-6.675-0.308-9.987c-1.772-19.76-17.134-31.32-36.153-27.032c-8.41,1.896-14.869,7.22-20.83,13.16
		c-37.764,37.633-75.569,75.226-113.213,112.979c-3.67,3.68-7.249,5.421-12.58,5.329c-19.487-0.336-38.984-0.157-58.476-0.108
		c-2.99,0.007-6,0.184-8.964,0.564c-14.263,1.828-25.752,14.891-25.758,29.256c-0.017,41.818-0.016,83.636,0.022,125.455
		c0.002,2.139,0.147,4.349,0.685,6.405c3.873,14.801,15.713,23.423,32.43,23.501c20.326,0.094,40.653,0.148,60.977-0.072
		c4.512-0.049,7.72,1.203,10.942,4.433c37.65,37.747,75.399,75.396,113.274,112.917c4.329,4.289,9.178,8.369,14.474,11.306
		c16.666,9.243,34.701,2.067,40.305-16.173c2.063-6.715,3.027-14.025,3.053-21.069C617.898,231.79,617.801,170.145,617.801,108.501z
		 M709.739,105.319c-0.735-21.154-12.547-41.417-29.06-52.096c-7.114-4.601-15.324-7.795-23.416-10.489
		c-4.947-1.647-9.442,1.795-10.989,6.327c-1.502,4.399-0.013,8.964,4.249,11.651c2.208,1.392,4.786,2.251,7.271,3.143
		c31.571,11.324,42.064,52.285,19.891,77.426c-6.586,7.467-14.705,12.205-24.051,15.373c-6.437,2.183-9.288,7.896-7.396,13.243
		c1.867,5.278,7.445,7.867,13.48,6.258C690.322,167.992,712.575,136.479,709.739,105.319z"/>
	<path d="M347.709,254.823c0,61.408,0.096,122.816-0.132,184.222c-0.026,7.017-0.987,14.298-3.042,20.988
		c-5.582,18.17-23.548,25.318-40.15,16.111c-5.275-2.926-10.106-6.99-14.419-11.262c-37.729-37.378-75.333-74.882-112.839-112.484
		c-3.21-3.218-6.405-4.465-10.9-4.416c-20.246,0.219-40.495,0.165-60.743,0.071c-16.652-0.077-28.447-8.667-32.305-23.411
		c-0.536-2.049-0.681-4.25-0.683-6.381c-0.038-41.658-0.039-83.315-0.022-124.973c0.006-14.309,11.451-27.322,25.659-29.144
		c2.953-0.379,5.952-0.555,8.93-0.562c19.418-0.049,38.84-0.228,58.252,0.107c5.311,0.092,8.877-1.642,12.532-5.308
		c37.499-37.608,75.159-75.057,112.778-112.545c5.938-5.917,12.372-11.221,20.75-13.109c18.947-4.271,34.25,7.244,36.015,26.928
		c0.296,3.299,0.306,6.631,0.307,9.948C347.713,131.343,347.709,193.083,347.709,254.823z M327.534,254.006
		c0-61.91,0.025-123.821-0.061-185.731c-0.005-3.759-0.39-7.668-1.484-11.236c-1.402-4.575-5.061-6.541-9.37-4.537
		c-4.534,2.108-8.972,5.041-12.52,8.555c-41.268,40.886-82.315,81.995-123.566,122.899c-4.239,4.203-6.223,8.903-6.229,14.592
		c-0.04,38.175-0.047,76.35,0.009,114.526c0.008,5.287,1.604,9.88,5.602,13.849c41.701,41.393,83.26,82.928,124.945,124.337
		c2.903,2.883,6.242,5.539,9.825,7.474c4.854,2.622,9.032,0.96,10.54-4.361c1.38-4.872,2.203-10.075,2.215-15.134
		C327.585,377.495,327.535,315.75,327.534,254.006z M154.669,326.737c-0.769-47.446-0.921-94.405,0.116-141.65
		c-17.184,0-35.232-0.183-53.273,0.117c-5.094,0.085-8.156,4.598-8.163,10.685c-0.045,39.967-0.054,79.934,0.006,119.9
		c0.011,7.164,3.587,10.767,10.681,10.894c8.289,0.149,16.583,0.049,24.875,0.052C137.838,326.74,146.766,326.737,154.669,326.737z"
		/>
	<path d="M439.293,251.653c2.825,31.04-19.342,62.432-49.829,70.563c-6.012,1.604-11.568-0.976-13.428-6.234
		c-1.885-5.327,0.955-11.018,7.368-13.193c9.31-3.157,17.398-7.876,23.959-15.314c22.088-25.044,11.636-65.848-19.814-77.129
		c-2.476-0.888-5.044-1.744-7.243-3.13c-4.246-2.677-5.728-7.224-4.232-11.607c1.541-4.515,6.019-7.943,10.947-6.302
		c8.06,2.684,16.239,5.866,23.326,10.449C426.795,210.395,438.561,230.58,439.293,251.653z"/>
	<path display="none" fill="#FFFFFF" d="M597.549,107.681c0,61.982,0.051,123.965-0.094,185.947
		c-0.012,5.079-0.838,10.302-2.224,15.193c-1.514,5.342-5.707,7.009-10.58,4.378c-3.597-1.942-6.949-4.608-9.863-7.503
		c-41.846-41.568-83.565-83.264-125.427-124.816c-4.013-3.983-5.616-8.595-5.623-13.902c-0.056-38.322-0.049-76.645-0.009-114.967
		c0.006-5.712,1.998-10.43,6.253-14.649C491.392-3.7,532.597-44.968,574.025-86.012c3.561-3.528,8.017-6.472,12.568-8.588
		c4.326-2.012,8-0.038,9.406,4.555c1.097,3.582,1.484,7.506,1.489,11.28C597.574-16.617,597.549,45.532,597.549,107.681z"/>
	<path display="none" fill="#FFFFFF" d="M424.018,180.693c-7.934,0-16.896,0.003-25.858-0.001
		c-8.324-0.003-16.65,0.097-24.971-0.053c-7.121-0.128-10.711-3.745-10.722-10.936c-0.06-40.121-0.052-80.242-0.006-120.362
		c0.007-6.111,3.081-10.641,8.195-10.726c18.11-0.301,36.228-0.117,53.478-0.117C423.093,85.924,423.246,133.064,424.018,180.693z"
		/>
</g>
</svg>
