<?xml version="1.0" encoding="utf-8"?>
<!-- Generator: Adobe Illustrator 16.0.0, SVG Export Plug-In . SVG Version: 6.00 Build 0)  -->
<!DOCTYPE svg PUBLIC "-//W3C//DTD SVG 1.1//EN" "http://www.w3.org/Graphics/SVG/1.1/DTD/svg11.dtd">
<svg version="1.1" id="Layer_1" xmlns="http://www.w3.org/2000/svg" xmlns:xlink="http://www.w3.org/1999/xlink" x="0px" y="0px"
	 width="512px" height="512px" viewBox="0 0 512 512" enable-background="new 0 0 512 512" xml:space="preserve">
<g>
	<line fill="none" stroke="#B35047" x1="32" y1="0" x2="32" y2="512"/>
	<line fill="none" stroke="#B35047" x1="64" y1="0" x2="64" y2="512"/>
	<line fill="none" stroke="#B35047" x1="96" y1="0" x2="96" y2="512"/>
	<line fill="none" stroke="#B35047" x1="128" y1="0" x2="128" y2="512"/>
	<line fill="none" stroke="#B35047" x1="160" y1="0" x2="160" y2="512"/>
	<line fill="none" stroke="#B35047" x1="192" y1="0" x2="192" y2="512"/>
	<line fill="none" stroke="#B35047" x1="224" y1="0" x2="224" y2="512"/>
	<line fill="none" stroke="#B35047" x1="256" y1="0" x2="256" y2="512"/>
	<line fill="none" stroke="#B35047" x1="288" y1="0" x2="288" y2="512"/>
	<line fill="none" stroke="#B35047" x1="320" y1="0" x2="320" y2="512"/>
	<line fill="none" stroke="#B35047" x1="352" y1="0" x2="352" y2="512"/>
	<line fill="none" stroke="#B35047" x1="384" y1="0" x2="384" y2="512"/>
	<line fill="none" stroke="#B35047" x1="416" y1="0" x2="416" y2="512"/>
	<line fill="none" stroke="#B35047" x1="448" y1="0" x2="448" y2="512"/>
	<line fill="none" stroke="#B35047" x1="480" y1="0" x2="480" y2="512"/>
	<line fill="none" stroke="#B35047" x1="0" y1="32" x2="512" y2="32"/>
	<line fill="none" stroke="#B35047" x1="0" y1="64" x2="512" y2="64"/>
	<line fill="none" stroke="#B35047" x1="0" y1="96" x2="512" y2="96"/>
	<line fill="none" stroke="#B35047" x1="0" y1="128" x2="512" y2="128"/>
	<line fill="none" stroke="#B35047" x1="0" y1="160" x2="512" y2="160"/>
	<line fill="none" stroke="#B35047" x1="0" y1="192" x2="512" y2="192"/>
	<line fill="none" stroke="#B35047" x1="0" y1="224" x2="512" y2="224"/>
	<line fill="none" stroke="#B35047" x1="0" y1="256" x2="512" y2="256"/>
	<line fill="none" stroke="#B35047" x1="0" y1="288" x2="512" y2="288"/>
	<line fill="none" stroke="#B35047" x1="0" y1="320" x2="512" y2="320"/>
	<line fill="none" stroke="#B35047" x1="0" y1="352" x2="512" y2="352"/>
	<line fill="none" stroke="#B35047" x1="0" y1="384" x2="512" y2="384"/>
	<line fill="none" stroke="#B35047" x1="0" y1="416" x2="512" y2="416"/>
	<line fill="none" stroke="#B35047" x1="0" y1="448" x2="512" y2="448"/>
	<line fill="none" stroke="#B35047" x1="0" y1="480" x2="512" y2="480"/>
	<rect fill="none" stroke="#B35047" width="512" height="512"/>
</g>
<g>
	<path fill-rule="evenodd" clip-rule="evenodd" d="M2,270.841c0-9.9,0-19.8,0-29.7c0.287-1.418,0.736-2.824,0.838-4.256
		c2.834-39.833,14.318-77.077,35.235-111.003c40.23-65.25,98.139-105.337,173.694-119.393c9.522-1.771,19.211-2.648,28.822-3.938
		c9.9,0,19.801,0,29.699,0c1.277,0.278,2.543,0.72,3.834,0.81c39.668,2.773,76.879,13.946,110.631,34.858
		c76.83,47.602,118.504,116.924,123.734,207.146c2.885,49.771-9.039,96.684-34.93,139.39
		c-40.063,66.077-98.313,106.522-174.439,120.735c-9.523,1.777-19.215,2.648-28.83,3.94c-9.898,0-19.799,0-29.699,0
		c-1.441-0.289-2.871-0.739-4.325-0.843c-40.003-2.867-77.377-14.449-111.413-35.528C59.84,432.796,19.92,374.964,5.929,299.594
		C4.166,290.094,3.288,280.43,2,270.841z M255.434,22.813C126.736,22.831,21.885,127.742,22.263,256.12
		c0.379,128.876,103.806,232.353,232.935,233.047c128.152,0.689,233.072-104.068,233.419-233.059
		C488.961,127.71,384.1,22.796,255.434,22.813z"/>
	<path display="none" fill-rule="evenodd" clip-rule="evenodd" fill="#FFFFFF" d="M271.84,510.431
		c9.614-1.292,19.306-2.163,28.829-3.94c76.127-14.213,134.378-54.658,174.439-120.735c25.892-42.706,37.815-89.618,34.93-139.39
		c-5.23-90.222-46.903-159.544-123.733-207.146C352.552,18.307,315.341,7.134,275.673,4.361c-1.291-0.09-2.557-0.532-3.833-0.81
		c79.86,0,159.72,0,239.58,0c0,168.96,0,337.919,0,506.88C431.56,510.431,351.7,510.431,271.84,510.431z"/>
	<path display="none" fill-rule="evenodd" clip-rule="evenodd" fill="#FFFFFF" d="M242.14,3.551
		c-9.611,1.291-19.3,2.167-28.822,3.938C137.763,21.544,79.854,61.632,39.624,126.882c-20.917,33.926-32.401,71.17-35.235,111.003
		c-0.102,1.432-0.551,2.837-0.838,4.256c0-79.53,0-159.061,0-238.59C83.08,3.551,162.61,3.551,242.14,3.551z"/>
	<path display="none" fill-rule="evenodd" clip-rule="evenodd" fill="#FFFFFF" d="M3.55,271.841
		c1.288,9.589,2.166,19.253,3.929,28.753c13.991,75.37,53.911,133.202,118.922,173.466c34.036,21.079,71.41,32.661,111.413,35.528
		c1.455,0.104,2.884,0.554,4.325,0.843c-79.53,0-159.06,0-238.59,0C3.55,430.9,3.55,351.37,3.55,271.841z"/>
	<path display="none" fill-rule="evenodd" clip-rule="evenodd" fill="#FFFFFF" d="M256.984,23.813
		c128.665-0.017,233.527,104.896,233.183,233.295c-0.347,128.99-105.268,233.748-233.419,233.059
		C127.619,489.473,24.192,385.996,23.813,257.12C23.436,128.742,128.286,23.831,256.984,23.813z M257.238,226.569
		c-17.009,0.217-30.671,13.964-30.664,30.427c0.007,16.655,14.167,30.878,30.734,30.235c3.729-0.145,5.175,1.004,6.741,3.92
		c12.473,23.229,25.069,46.389,37.683,69.542c1.093,2.004,2.354,4.003,3.912,5.649c3.804,4.021,9.596,4.03,13.643,0.265
		c3.889-3.618,4.224-8.257,0.876-14.439c-12.866-23.765-25.742-47.524-38.697-71.24c-1.296-2.372-1.646-3.978,0.191-6.517
		c5.989-8.275,7.288-17.596,3.888-27.213c-1.224-3.461-0.706-5.475,1.765-8.122c35.349-37.87,70.568-75.859,105.783-113.853
		c1.437-1.55,2.769-3.301,3.722-5.176c2.64-5.195,0.283-11.376-5.144-13.447c-5.486-2.094-9.473,0.577-13.063,4.448
		c-35.004,37.739-70.065,75.425-104.991,113.238c-2.938,3.182-5.403,5.345-9.981,3.197
		C261.648,226.55,259.106,226.802,257.238,226.569z"/>
	<path fill-rule="evenodd" clip-rule="evenodd" d="M255.688,225.569c1.869,0.233,4.41-0.02,6.396,0.914
		c4.578,2.148,7.043-0.016,9.982-3.197c34.926-37.813,69.986-75.499,104.99-113.238c3.592-3.871,7.578-6.542,13.064-4.448
		c5.426,2.071,7.783,8.252,5.143,13.447c-0.953,1.875-2.285,3.626-3.721,5.176c-35.215,37.994-70.436,75.983-105.783,113.853
		c-2.471,2.647-2.988,4.661-1.766,8.122c3.4,9.618,2.102,18.938-3.887,27.213c-1.838,2.539-1.488,4.145-0.191,6.517
		c12.955,23.716,25.83,47.476,38.697,71.24c3.348,6.183,3.012,10.821-0.877,14.439c-4.047,3.766-9.838,3.756-13.643-0.265
		c-1.557-1.646-2.818-3.646-3.912-5.649c-12.613-23.153-25.209-46.313-37.682-69.542c-1.566-2.916-3.012-4.064-6.742-3.92
		c-16.567,0.643-30.727-13.58-30.734-30.235C225.017,239.534,238.679,225.787,255.688,225.569z"/>
</g>
<g display="none">
	<path fill-rule="evenodd" clip-rule="evenodd" fill="#FFFFFF" d="M510.431,421.33c0,29.7,0,59.4,0,89.101
		c-168.961,0-337.92,0-506.88,0c0-29.7,0-59.4,0-89.101c2.597,6.041,7.279,8.052,13.698,8.038
		c58.403-0.118,116.806-0.06,175.208-0.104c2.273-0.002,4.644-0.203,6.802-0.858c6.938-2.107,9.427-10.97,3.937-15.652
		c-2.668-2.273-7.085-3.479-10.717-3.494c-54.112-0.215-108.226-0.148-162.339-0.148c-1.921,0-3.843,0-6.003,0
		c0-88.156,0-175.652,0-263.25c155.45,0,310.553,0,465.609,0c0,87.936,0,175.429,0,263.25c-2.58,0-4.713,0-6.844,0
		c-56.754,0-113.507-0.007-170.261,0.022c-2.459,0.001-4.993,0.022-7.364,0.581c-5.78,1.363-8.688,6.923-6.867,12.604
		c1.545,4.825,5.256,6.979,12.217,6.979c62.033,0.008,124.065-0.039,186.098,0.069C503.126,429.378,507.829,427.371,510.431,421.33z
		 M244.848,250.751c0.645,0.534,1.289,1.067,1.933,1.601c0.047,0.925,0.136,1.85,0.137,2.775
		c0.006,41.234,0.188,82.469-0.125,123.702c-0.077,10.172-1.047,20.46-2.853,30.471c-4.541,25.171-16.271,45.849-39.652,58.311
		c-15.594,8.312-32.549,11.571-50.007,12.071c-15.328,0.438-30.677,0.085-46.012,0.343c-3.008,0.052-6.384,0.649-8.906,2.146
		c-4.065,2.412-5.307,6.553-3.726,11.177c1.748,5.115,5.893,6.967,10.804,6.968c16.491,0.003,33.008,0.307,49.465-0.517
		c10.636-0.533,21.376-2.028,31.735-4.499c27.677-6.598,49.729-21.423,63.839-46.731c10.254-18.394,14.893-38.475,15.166-59.262
		c0.58-44.031,0.324-88.074,0.41-132.11c0.003-1.665,0-3.33,0-4.994c0.448-0.149,0.896-0.297,1.345-0.446
		c1.06,1.245,2.04,2.569,3.191,3.722c18.764,18.79,37.537,37.572,56.353,56.31c1.617,1.61,3.414,3.145,5.378,4.279
		c4.365,2.523,9.758,1.06,12.565-3.144c3.238-4.849,2.307-9.473-3.106-14.891c-27.513-27.537-55.037-55.062-82.567-82.58
		c-1.014-1.013-2.134-1.921-3.444-3.093c-13.256,13.28-26.29,26.344-39.332,39.4c-15.387,15.403-30.77,30.81-46.181,46.189
		c-3.567,3.562-6.19,7.471-4.326,12.742c2.75,7.776,11.344,8.849,18.002,2.219c19.166-19.089,38.294-38.214,57.355-57.407
		C243.505,254.28,244.012,252.353,244.848,250.751z"/>
	<path display="inline" fill-rule="evenodd" clip-rule="evenodd" d="M509.431,421.33c-2.602,6.041-7.305,8.048-13.708,8.036
		c-62.032-0.108-124.064-0.062-186.098-0.069c-6.961-0.001-10.672-2.154-12.217-6.979c-1.82-5.681,1.087-11.24,6.867-12.604
		c2.371-0.559,4.905-0.58,7.364-0.581c56.754-0.029,113.507-0.022,170.261-0.022c2.131,0,4.264,0,6.844,0
		c0-87.82,0-175.313,0-263.25c-155.056,0-310.159,0-465.609,0c0,87.598,0,175.093,0,263.25c2.16,0,4.082,0,6.003,0
		c54.113,0,108.227-0.066,162.339,0.148c3.632,0.015,8.049,1.221,10.717,3.494c5.491,4.683,3.001,13.545-3.937,15.652
		c-2.158,0.655-4.528,0.856-6.802,0.858c-58.403,0.045-116.806-0.014-175.208,0.104c-6.419,0.014-11.101-1.997-13.698-8.038
		c0-128.039,0-256.08,0-384.12c5.617-18.14,18.512-24.318,36.687-23.757c21.919,0.675,43.875,0.159,65.814,0.159
		c124.05,0,248.101,0.01,372.151-0.022c7.794-0.002,15.003,1.475,21.318,6.405c5.726,4.47,8.531,10.681,10.91,17.215
		C509.431,165.25,509.431,293.291,509.431,421.33z M488.955,125.117c0.092-2.053,0.227-3.671,0.227-5.289
		c0.014-24.412,0.027-48.822,0.002-73.234c-0.011-10.193-2.381-12.542-12.534-12.542c-147.126-0.004-294.253-0.005-441.379,0
		c-10.101,0-12.464,2.369-12.474,12.603c-0.024,24.412-0.015,48.822,0.007,73.233c0.001,1.721,0.21,3.441,0.327,5.229
		C178.59,125.117,333.449,125.117,488.955,125.117z"/>
	<path fill-rule="evenodd" clip-rule="evenodd" fill="#FFFFFF" d="M510.431,37.21c-2.379-6.534-5.185-12.745-10.91-17.215
		c-6.315-4.93-13.524-6.407-21.318-6.405c-124.05,0.032-248.101,0.022-372.151,0.022c-21.94,0-43.896,0.516-65.814-0.159
		C22.063,12.892,9.167,19.07,3.55,37.21c0-11.21,0-22.421,0-33.638c168.96-0.008,337.919-0.008,506.88,0
		C510.431,14.789,510.431,26,510.431,37.21z"/>
	<path display="inline" fill-rule="evenodd" clip-rule="evenodd" d="M243.848,250.751c-0.836,1.601-1.343,3.529-2.559,4.752
		c-19.061,19.193-38.189,38.318-57.355,57.407c-6.658,6.63-15.252,5.558-18.002-2.219c-1.864-5.271,0.759-9.181,4.326-12.742
		c15.411-15.38,30.793-30.786,46.181-46.189c13.042-13.056,26.075-26.12,39.332-39.4c1.311,1.172,2.431,2.08,3.444,3.093
		c27.53,27.518,55.055,55.042,82.567,82.58c5.413,5.418,6.345,10.042,3.106,14.891c-2.808,4.203-8.2,5.667-12.565,3.144
		c-1.964-1.135-3.761-2.669-5.378-4.279c-18.815-18.738-37.589-37.521-56.353-56.31c-1.151-1.153-2.132-2.478-3.191-3.722
		c-0.448,0.149-0.896,0.297-1.345,0.446c0,1.664,0.003,3.329,0,4.994c-0.086,44.036,0.17,88.079-0.41,132.11
		c-0.273,20.787-4.912,40.868-15.166,59.262c-14.11,25.309-36.162,40.134-63.839,46.731c-10.358,2.471-21.099,3.966-31.735,4.499
		c-16.457,0.823-32.974,0.52-49.465,0.517c-4.911-0.001-9.056-1.853-10.804-6.968c-1.581-4.624-0.339-8.765,3.726-11.177
		c2.522-1.496,5.898-2.094,8.906-2.146c15.335-0.258,30.685,0.095,46.012-0.343c17.458-0.5,34.413-3.76,50.007-12.071
		c23.382-12.462,35.112-33.14,39.652-58.311c1.806-10.011,2.775-20.299,2.853-30.471c0.313-41.232,0.131-82.468,0.125-123.702
		c0-0.925-0.089-1.85-0.137-2.775C245.137,251.819,244.493,251.285,243.848,250.751z"/>
	<path fill-rule="evenodd" clip-rule="evenodd" fill="#FFFFFF" d="M489.955,125.117c-155.506,0-310.365,0-465.824,0
		c-0.117-1.788-0.326-3.508-0.327-5.229c-0.021-24.411-0.031-48.821-0.007-73.233c0.01-10.234,2.373-12.603,12.474-12.603
		c147.126-0.005,294.253-0.004,441.379,0c10.153,0,12.523,2.349,12.534,12.542c0.025,24.412,0.012,48.822-0.002,73.234
		C490.182,121.446,490.047,123.064,489.955,125.117z M176.11,104.478c98.049,0,195.735,0,293.355,0c0-16.945,0-33.495,0-50.037
		c-97.961,0-195.533,0-293.355,0C176.11,71.156,176.11,87.583,176.11,104.478z M94.678,79.578
		C94.659,65.727,83.371,54.321,69.569,54.21c-13.875-0.113-25.53,11.636-25.41,25.614c0.119,13.867,11.48,25.027,25.407,24.959
		C83.537,104.716,94.696,93.516,94.678,79.578z M130.242,104.774c13.947,0.016,25.198-11.115,25.312-25.047
		c0.115-13.939-11.651-25.708-25.502-25.51c-13.806,0.198-25.13,11.697-25.067,25.452
		C105.048,93.577,116.296,104.758,130.242,104.774z"/>
	<path display="inline" fill-rule="evenodd" clip-rule="evenodd" d="M175.11,104.478c0-16.895,0-33.322,0-50.037
		c97.822,0,195.395,0,293.355,0c0,16.542,0,33.091,0,50.037C370.846,104.478,273.159,104.478,175.11,104.478z M448.366,74.899
		c-84.457,0-168.527,0-252.799,0c0,3.31,0,6.326,0,9.512c84.401,0,168.458,0,252.799,0
		C448.366,81.245,448.366,78.343,448.366,74.899z"/>
	<path display="inline" fill-rule="evenodd" clip-rule="evenodd" d="M93.678,79.578c0.018,13.938-11.141,25.138-25.112,25.206
		c-13.927,0.068-25.288-11.093-25.407-24.959c-0.121-13.978,11.535-25.728,25.41-25.614C82.371,54.321,93.659,65.727,93.678,79.578z
		"/>
	<path display="inline" fill-rule="evenodd" clip-rule="evenodd" d="M129.242,104.774c-13.946-0.016-25.194-11.197-25.258-25.105
		c-0.063-13.755,11.262-25.254,25.067-25.452c13.852-0.198,25.618,11.571,25.502,25.51
		C154.439,93.659,143.189,104.79,129.242,104.774z"/>
	<path fill-rule="evenodd" clip-rule="evenodd" fill="#FFFFFF" d="M449.366,74.899c0,3.444,0,6.346,0,9.512
		c-84.341,0-168.397,0-252.799,0c0-3.187,0-6.202,0-9.512C280.839,74.899,364.909,74.899,449.366,74.899z"/>
</g>
<g display="none">
	<path fill-rule="evenodd" clip-rule="evenodd" fill="#FFFFFF" d="M3.55,111.46c0-35.97,0-71.94,0-107.91
		c113.19,0,226.379,0,339.57,0c-4.687,1.919-8.976,4.243-9.266,10.134c-0.312,6.327,4.771,10.575,12.709,10.579
		c40.746,0.019,81.492,0.009,122.238,0.009c1.74,0,3.48,0,6.272,0c-2.069,2.191-3.34,3.605-4.682,4.947
		c-67.767,67.778-135.542,135.546-203.29,203.343c-1.731,1.731-3.424,3.604-4.684,5.685c-2.875,4.749-1.329,10.308,3.399,13.21
		c4.846,2.974,9.133,1.9,14.778-3.745c68.127-68.116,136.251-136.236,204.382-204.35c1.306-1.305,2.681-2.542,4.728-4.476
		c0,2.997,0,4.794,0,6.592c-0.005,40.086-0.027,80.173,0.025,120.259c0.003,2.6,0.208,5.316,0.972,7.776
		c2.062,6.639,10.898,9.099,15.468,3.878c2.323-2.654,3.747-7.026,3.763-10.63c0.234-52.623,0.168-105.247,0.134-157.87
		c-0.001-1.781-0.409-3.561-0.628-5.341c0.661,0.33,1.766,0.542,1.891,1.014c0.284,1.08,0.09,2.286,0.09,3.441
		c0,167.476,0,334.95,0,502.425c-36.301,0-72.6,0-108.9,0c12.525-4.026,16.876-12.929,16.851-25.668
		c-0.197-101.301-0.104-202.604-0.145-303.905c-0.001-2.606-0.22-5.288-0.862-7.799c-1.349-5.274-6.667-8.091-11.907-6.616
		c-5.408,1.523-7.6,5.33-7.6,13.331c-0.005,101.138-0.003,202.274-0.003,303.412c0,2.115,0,4.229,0,6.675
		c-125.148,0-249.778,0-374.736,0c0-124.947,0-249.578,0-374.734c2.431,0,4.548,0,6.665,0c100.642,0,201.284,0.006,301.927-0.03
		c2.615-0.001,5.296-0.16,7.831-0.747c5.797-1.342,8.694-6.908,6.816-12.588c-1.658-5.021-5.434-7.04-13.242-7.04
		C232.482,94.72,130.85,94.808,29.218,94.61C16.479,94.585,7.576,98.935,3.55,111.46z"/>
	<path display="inline" fill-rule="evenodd" clip-rule="evenodd" d="M2.55,110.46c4.026-12.526,12.929-16.875,25.668-16.85
		c101.631,0.197,203.264,0.109,304.896,0.111c7.809,0,11.584,2.02,13.242,7.04c1.878,5.681-1.02,11.247-6.816,12.588
		c-2.535,0.587-5.216,0.746-7.831,0.747c-100.643,0.036-201.285,0.03-301.927,0.03c-2.117,0-4.234,0-6.665,0
		c0,125.156,0,249.787,0,374.734c124.958,0,249.588,0,374.736,0c0-2.445,0-4.56,0-6.675c0-101.138-0.002-202.274,0.003-303.412
		c0-8.001,2.191-11.808,7.6-13.331c5.24-1.476,10.559,1.342,11.907,6.616c0.643,2.512,0.861,5.193,0.862,7.799
		c0.041,101.302-0.053,202.604,0.145,303.905c0.025,12.739-4.325,21.642-16.851,25.668c-127.379,0-254.76,0-382.14,0
		c-8.668-2.552-14.278-8.162-16.83-16.83C2.55,365.22,2.55,237.841,2.55,110.46z"/>
	<path display="inline" fill-rule="evenodd" clip-rule="evenodd" d="M508.439,2.551c0.219,1.781,0.627,3.561,0.628,5.341
		c0.034,52.624,0.101,105.248-0.134,157.87c-0.016,3.604-1.439,7.976-3.763,10.63c-4.569,5.221-13.406,2.76-15.468-3.878
		c-0.764-2.46-0.969-5.177-0.972-7.776c-0.053-40.086-0.03-80.172-0.025-120.259c0-1.797,0-3.595,0-6.592
		c-2.047,1.934-3.422,3.17-4.728,4.476c-68.131,68.114-136.255,136.233-204.382,204.35c-5.646,5.645-9.933,6.719-14.778,3.745
		c-4.729-2.902-6.274-8.461-3.399-13.21c1.26-2.081,2.952-3.953,4.684-5.685c67.748-67.797,135.523-135.564,203.29-203.343
		c1.342-1.342,2.612-2.756,4.682-4.947c-2.792,0-4.532,0-6.272,0c-40.746,0-81.492,0.01-122.238-0.009
		c-7.938-0.004-13.021-4.252-12.709-10.579c0.29-5.891,4.579-8.215,9.266-10.134C397.56,2.551,453,2.551,508.439,2.551z"/>
	<path fill-rule="evenodd" clip-rule="evenodd" fill="#FFFFFF" d="M3.55,493.601c2.551,8.668,8.162,14.278,16.83,16.83
		c-5.61,0-11.22,0-16.83,0C3.55,504.82,3.55,499.211,3.55,493.601z"/>
</g>
<g display="none">
	<path fill-rule="evenodd" clip-rule="evenodd" fill="#FFFFFF" d="M383.71,3.551c42.57,0,85.14,0,127.71,0
		c0,168.96,0,337.919,0,506.88c-61.05,0-122.1,0-183.15,0c-0.074-2.139-0.212-4.278-0.212-6.417
		c-0.011-98.798-0.033-197.596,0.074-296.394c0.004-3.971-1.205-6.692-3.988-9.464c-39.969-39.805-79.856-79.692-119.656-119.666
		c-2.776-2.789-5.495-3.98-9.462-3.973c-62.016,0.123-124.033,0.084-186.05,0.096c-1.808,0-3.617,0.141-5.425,0.217
		c0-23.717,0-47.434,0-71.28c67.65,0,135.3,0,202.95,0c-0.038,15.999-0.087,31.998-0.085,47.998c0,1.104,0,2.589,0.654,3.254
		c6.156,6.256,12.455,12.373,19.605,19.409c0-17.477,0-33.703,0-50.088c47.469,0,94.393,0,141.911,0c0,40.475,0,80.621,0,121.357
		c40.732,0,80.878,0,121.269,0c0,88.084,0,175.574,0,263.618c-47.26,0-94.186,0-141.309,0c0,7.025,0,13.492,0,19.905
		c54.089,0,107.794,0,161.886,0c0-1.737,0-3.193,0-4.648c0-96.338,0.022-192.676-0.127-289.014
		c-0.004-2.427-1.298-5.458-3.016-7.186c-40.009-40.242-80.165-80.34-120.269-120.489C385.782,6.428,384.808,4.928,383.71,3.551z"/>
	<path display="inline" fill-rule="evenodd" clip-rule="evenodd" d="M2.55,73.831c1.808-0.076,3.617-0.217,5.425-0.217
		c62.017-0.011,124.034,0.027,186.05-0.096c3.968-0.007,6.686,1.184,9.462,3.973c39.8,39.973,79.688,79.86,119.656,119.666
		c2.783,2.771,3.992,5.493,3.988,9.464c-0.107,98.798-0.085,197.596-0.074,296.394c0,2.139,0.138,4.278,0.212,6.417
		c-108.24,0-216.479,0-324.719,0C2.55,364.23,2.55,219.031,2.55,73.831z M185.011,93.932c-54.438,0-107.999,0-161.837,0
		c0,131.74,0,263.269,0,394.837c94.628,0,188.87,0,283.13,0c0-91.253,0-182.083,0-273.382c-40.458,0-80.63,0-121.292,0
		C185.011,174.743,185.011,134.563,185.011,93.932z M290.146,194.869c-28.113-28.113-56.457-56.456-84.378-84.377
		c0,27.506,0,55.906,0,84.377C234.416,194.869,262.685,194.869,290.146,194.869z"/>
	<path display="inline" fill-rule="evenodd" clip-rule="evenodd" d="M382.71,2.551c1.098,1.377,2.072,2.877,3.309,4.114
		c40.104,40.149,80.26,80.247,120.269,120.489c1.718,1.729,3.012,4.759,3.016,7.186c0.149,96.338,0.127,192.676,0.127,289.014
		c0,1.455,0,2.911,0,4.648c-54.092,0-107.797,0-161.886,0c0-6.413,0-12.88,0-19.905c47.123,0,94.049,0,141.309,0
		c0-88.044,0-175.534,0-263.618c-40.391,0-80.536,0-121.269,0c0-40.736,0-80.882,0-121.357c-47.518,0-94.441,0-141.911,0
		c0,16.385,0,32.611,0,50.088c-7.15-7.036-13.449-13.152-19.605-19.409c-0.654-0.665-0.654-2.15-0.654-3.254
		c-0.002-16,0.048-31.999,0.085-47.998C264.57,2.551,323.64,2.551,382.71,2.551z M473.019,124.108
		c-28.394-28.384-56.832-56.813-84.893-84.866c0,27.703,0,56.216,0,84.866C416.831,124.108,445.142,124.108,473.019,124.108z"/>
	<path fill-rule="evenodd" clip-rule="evenodd" fill="#FFFFFF" d="M186.011,94.932c0,40.63,0,80.811,0,121.456
		c40.662,0,80.834,0,121.292,0c0,91.299,0,182.129,0,273.382c-94.26,0-188.502,0-283.13,0c0-131.568,0-263.098,0-394.837
		C78.012,94.932,131.573,94.932,186.011,94.932z M172.019,354.447c2.539,1.027,3.78,1.357,4.846,1.985
		c17.712,10.425,42.191,8.812,59.127-7.028c8.306-7.768,16.492-15.724,24.103-24.162c13.64-15.124,16.896-32.703,10.463-51.979
		c-10.427-31.237-52.712-43.61-77.951-22.463c-9.828,8.235-18.854,17.503-27.698,26.82c-16.184,17.047-17.882,41.509-7.367,59.495
		c0.653,1.117,0.947,2.445,1.821,4.777c-2.41-0.946-3.621-1.316-4.738-1.877c-21.351-10.688-41.22-8.595-59.065,7.078
		c-8.531,7.493-16.311,15.867-24.171,24.09c-7.252,7.588-11.662,16.77-13.064,27.18c-2.758,20.477,7.265,41.353,24.027,50.563
		c20.227,11.113,41.422,9.717,58.448-4.865c9.365-8.021,18.267-16.753,26.366-26.048c15.475-17.762,17.562-37.586,6.801-58.656
		C173.399,358.246,173.034,357.029,172.019,354.447z"/>
	<path fill-rule="evenodd" clip-rule="evenodd" fill="#FFFFFF" d="M291.146,195.869c-27.461,0-55.729,0-84.378,0
		c0-28.471,0-56.872,0-84.377C234.689,139.413,263.032,167.755,291.146,195.869z"/>
	<path fill-rule="evenodd" clip-rule="evenodd" fill="#FFFFFF" d="M474.019,125.108c-27.877,0-56.188,0-84.893,0
		c0-28.65,0-57.163,0-84.866C417.187,68.295,445.625,96.724,474.019,125.108z"/>
	<path display="inline" fill-rule="evenodd" clip-rule="evenodd" d="M171.019,353.447c1.016,2.582,1.38,3.799,1.948,4.91
		c10.761,21.07,8.674,40.895-6.801,58.656c-8.099,9.295-17,18.027-26.366,26.048c-17.026,14.582-38.222,15.979-58.448,4.865
		c-16.762-9.211-26.786-30.087-24.027-50.563c1.402-10.41,5.812-19.592,13.064-27.18c7.86-8.223,15.641-16.597,24.171-24.09
		c17.845-15.673,37.714-17.767,59.065-7.078c1.117,0.561,2.328,0.931,4.738,1.877c-0.874-2.332-1.167-3.66-1.821-4.777
		c-10.515-17.986-8.817-42.448,7.367-59.495c8.845-9.316,17.87-18.585,27.698-26.82c25.239-21.147,67.524-8.774,77.951,22.463
		c6.434,19.275,3.177,36.854-10.463,51.979c-7.611,8.438-15.797,16.395-24.103,24.162c-16.936,15.84-41.415,17.453-59.127,7.028
		C174.798,354.805,173.558,354.475,171.019,353.447z M142.919,355.989c-12.432-4.763-22.921-4.612-31.44,2.645
		c-10.122,8.621-19.651,18.134-28.316,28.224c-9.516,11.079-7.63,28.81,2.87,39.218c10.541,10.449,28.155,12.195,39.238,2.641
		c9.95-8.58,19.187-18.104,27.926-27.933c7.268-8.173,7.911-21.76,2.2-30.761c-3.832,4.146-7.378,8.245-11.211,12.055
		c-3.889,3.867-8.677,4.692-12.554,2.598c-6.539-3.531-7.379-11.022-1.586-16.992C133.793,363.823,138.007,360.416,142.919,355.989z
		 M187.438,338.759c11.518,4.473,22.108,4.34,30.76-3.064c10.094-8.64,19.602-18.15,28.259-28.232
		c9.328-10.862,7.485-28.304-2.788-38.807c-10.325-10.557-28.151-12.565-39.157-3.125c-10.086,8.649-19.443,18.277-28.273,28.228
		c-7.221,8.138-7.79,21.46-2.646,30.094c1.218-1.151,2.426-2.24,3.576-3.387c7.465-7.448,14.835-14.992,22.398-22.339
		c6.096-5.922,14.805-4.586,17.413,2.619c1.788,4.941-0.285,8.923-3.801,12.401C204.765,321.472,196.394,329.842,187.438,338.759z"
		/>
	<path fill-rule="evenodd" clip-rule="evenodd" fill="#FFFFFF" d="M143.919,356.989c-4.912,4.427-9.126,7.834-12.873,11.693
		c-5.793,5.97-4.953,13.461,1.586,16.992c3.877,2.095,8.665,1.27,12.554-2.598c3.833-3.81,7.379-7.909,11.211-12.055
		c5.71,9.001,5.068,22.588-2.2,30.761c-8.74,9.828-17.976,19.353-27.926,27.933c-11.083,9.555-28.697,7.809-39.238-2.641
		c-10.5-10.408-12.386-28.139-2.87-39.218c8.666-10.09,18.194-19.603,28.316-28.224
		C120.998,352.377,131.487,352.227,143.919,356.989z"/>
	<path fill-rule="evenodd" clip-rule="evenodd" fill="#FFFFFF" d="M188.438,339.759c8.956-8.917,17.327-17.287,25.743-25.612
		c3.516-3.479,5.589-7.46,3.801-12.401c-2.608-7.205-11.317-8.541-17.413-2.619c-7.563,7.347-14.934,14.891-22.398,22.339
		c-1.15,1.146-2.358,2.235-3.576,3.387c-5.144-8.634-4.575-21.956,2.646-30.094c8.83-9.95,18.187-19.578,28.273-28.228
		c11.006-9.44,28.832-7.432,39.157,3.125c10.273,10.503,12.116,27.944,2.788,38.807c-8.657,10.082-18.165,19.593-28.259,28.232
		C210.546,344.099,199.956,344.231,188.438,339.759z"/>
</g>
<g display="none">
	<path fill-rule="evenodd" clip-rule="evenodd" fill="#FFFFFF" d="M513.5,300.5c0,71,0,142,0,213c-171,0-342,0-513,0
		c0-171,0-342,0-513c171,0,342,0,513,0c0,98.667,0,197.333,0,296c-2.484-6.218-7.169-8.324-13.707-8.272
		c-24.332,0.19-48.666,0.081-72.999,0.065c-1.742-0.001-3.485-0.151-4.869-0.216c-0.845-21.408-1.663-42.153-2.491-63.155
		c-0.167,0.158-0.067-0.01,0.072-0.057c1.417-0.481,2.851-0.915,4.261-1.415c25.021-8.864,45.459-23.467,58.592-47.088
		c6.843-12.307,10.3-25.563,10.501-39.654c0.068-4.792-1.097-8.984-5.91-11.121c-7.55-3.352-14.17,1.873-14.484,11.428
		c-1.25,38.105-33.002,61.051-57.477,67.307c-0.135-0.099-0.343-0.169-0.393-0.299c-0.472-1.241-0.915-2.492-1.369-3.739
		c-5.274-14.501-14.057-26.08-28.264-32.76c-3.747-1.763-4.959-3.778-4.747-7.889c0.981-19.037-4.92-35.754-17.946-49.777
		c-9.098-9.796-20.27-16.625-32.232-22.367c-1.795-0.861-3.565-2.942-4.217-4.846c-9.279-27.121-27.992-43.816-55.965-49.125
		c-33.909-6.436-67.351,12.842-79.217,45.515c-2.235,6.153-5.949,8.71-11.035,11.313c-28.653,14.663-46.317,36.487-44.814,70.369
		c0.132,2.98-1.208,3.996-3.589,5.01c-12.648,5.386-21.899,14.363-27.563,26.903c-1.699,3.763-2.99,7.71-4.462,11.558
		c-25.496-7.255-55.784-30.237-56.687-68.183c-0.109-4.589-1.766-8.541-6.261-10.494c-7.492-3.255-14.349,2.233-14.089,11.216
		c0.837,28.94,13.697,51.646,36.17,69.268c11.106,8.709,23.721,14.602,36.793,18.789c-0.642,21.27-1.272,42.159-1.917,63.521
		c-3.117,0-6.081,0-9.045,0c-23.333,0-46.666,0.021-69.999-0.014c-5.002-0.007-9.352,1.238-11.519,6.178
		c-3.244,7.396,2.076,14.108,11.211,14.128c25.167,0.056,50.333,0.02,75.5,0.021c1.908,0,3.815,0,4.611,0
		c4.119,18.356,7.994,35.628,11.915,53.104c-2.783,0.94-5.94,1.949-9.058,3.068c-43.843,15.741-67.792,47.403-74.188,92.986
		c-0.4,2.856-0.318,6.142,0.723,8.756c1.673,4.202,5.347,6.219,10.05,5.665c4.671-0.55,8.003-4.061,9.107-9.271
		c1.619-7.641,2.749-15.444,5.091-22.861c10.503-33.254,34.938-50.84,66.716-59.259c6.422,9.854,11.955,19.591,18.671,28.428
		c25.901,34.076,60.438,55.665,100.958,68.17c11.746,3.625,23.342,6.642,36.134,3.216c49.229-13.186,90.146-38.228,118.939-81.147
		c4.05-6.038,7.496-12.48,11.194-18.688c27.888,6.763,48.6,21.641,60.699,43.665c6.421,11.688,9.614,24.398,11.527,37.49
		c0.666,4.563,2.588,8.273,7.279,9.813c7.865,2.583,14.076-3.509,12.809-13.038c-5.634-42.322-26.379-73.703-66.48-90.808
		c-5.76-2.457-11.72-4.445-16.818-6.362c3.957-17.714,7.82-35.007,11.824-52.928c1.095,0,2.89,0,4.684,0
		c24.666,0,49.333-0.103,73.999,0.067C506.203,308.729,510.969,306.707,513.5,300.5z"/>
	<path display="inline" fill-rule="evenodd" clip-rule="evenodd" d="M508.94,299.066c-2.506,6.146-7.224,8.146-13.643,8.102
		c-24.419-0.168-48.839-0.066-73.259-0.066c-1.775,0-3.553,0-4.637,0c-3.964,17.742-7.788,34.862-11.706,52.398
		c5.048,1.898,10.948,3.866,16.65,6.299c39.7,16.934,60.238,48.001,65.815,89.899c1.255,9.435-4.894,15.465-12.681,12.908
		c-4.645-1.524-6.547-5.197-7.206-9.716c-1.894-12.961-5.056-25.544-11.412-37.115c-11.979-21.804-32.483-36.533-60.092-43.229
		c-3.662,6.146-7.073,12.524-11.083,18.502c-28.505,42.49-69.013,67.282-117.75,80.336c-12.664,3.392-24.144,0.405-35.773-3.184
		c-40.116-12.38-74.307-33.753-99.949-67.488c-6.65-8.748-12.126-18.388-18.485-28.144c-31.461,8.335-55.65,25.745-66.049,58.666
		c-2.319,7.343-3.438,15.068-5.041,22.633c-1.093,5.158-4.391,8.634-9.016,9.178c-4.656,0.549-8.293-1.448-9.95-5.608
		c-1.03-2.588-1.112-5.84-0.715-8.668c6.332-45.127,30.042-76.473,73.446-92.057c3.087-1.107,6.212-2.106,8.967-3.037
		c-3.882-17.302-7.718-34.4-11.795-52.574c-0.788,0-2.676,0-4.565,0c-24.915,0-49.83,0.035-74.745-0.02
		c-9.044-0.02-14.311-6.664-11.1-13.987c2.146-4.89,6.452-6.122,11.404-6.116c23.1,0.034,46.199,0.014,69.299,0.014
		c2.935,0,5.869,0,8.955,0c0.638-21.148,1.262-41.829,1.897-62.886c-12.941-4.146-25.43-9.979-36.425-18.602
		c-22.249-17.445-34.979-39.924-35.808-68.575c-0.258-8.893,6.531-14.326,13.948-11.104c4.45,1.934,6.091,5.846,6.199,10.389
		c0.894,37.566,30.878,60.318,56.12,67.5c1.458-3.809,2.735-7.717,4.418-11.442c5.606-12.415,14.765-21.302,27.287-26.634
		c2.357-1.003,3.684-2.009,3.553-4.959c-1.488-33.543,16-55.149,44.366-69.666c5.035-2.577,8.712-5.108,10.924-11.2
		c11.748-32.346,44.855-51.431,78.425-45.059c27.693,5.255,46.219,21.784,55.405,48.634c0.646,1.884,2.397,3.944,4.175,4.797
		c11.843,5.685,22.903,12.446,31.91,22.144c12.896,13.883,18.738,30.433,17.767,49.28c-0.21,4.069,0.99,6.064,4.7,7.81
		c14.064,6.613,22.759,18.076,27.98,32.432c0.449,1.235,0.889,2.473,1.355,3.702c0.05,0.128,0.255,0.198,0.389,0.296
		c24.229-6.193,55.664-28.909,56.902-66.634c0.311-9.459,6.865-14.631,14.339-11.313c4.766,2.115,5.919,6.266,5.852,11.01
		c-0.199,13.951-3.622,27.074-10.396,39.258c-13.001,23.385-33.235,37.841-58.006,46.617c-1.396,0.495-2.815,0.924-4.218,1.401
		c-0.139,0.046-0.237,0.212-0.071,0.056c0.819,20.792,1.63,41.33,2.466,62.523c1.37,0.064,3.096,0.213,4.82,0.215
		c24.09,0.016,48.181,0.123,72.27-0.065c6.473-0.052,11.11,2.034,13.569,8.19C508.94,296.427,508.94,297.747,508.94,299.066z
		 M137.764,184.736c-6.925,2.98-12.055,7.26-14.711,13.484c-2.689,6.3-5.177,12.95-6.14,19.677c-4.078,28.517-4.304,57.215-2,85.888
		c2.124,26.44,9.265,51.502,22.655,74.557c20.341,35.022,50.734,57.895,88.046,72.237c6.24,2.398,12.693,4.238,19.43,6.463
		c0-74.119,0-147.396,0-220.281c-13.686-1.375-27.123-1.778-40.147-4.307c-12.173-2.364-24.395-5.879-35.719-10.874
		C153.42,214.632,143.104,201.841,137.764,184.736z M265.847,456.785c15.052-3.863,28.796-9.222,41.882-16.265
		c54.102-29.116,82.672-75.254,88.041-135.598c2.021-22.723,1.003-45.812-0.032-68.671c-0.498-11.004-3.655-22.031-6.723-32.728
		c-2.27-7.914-7.906-13.856-15.894-17.665c-0.446,1.018-0.794,1.71-1.063,2.432c-5.223,14.002-14.356,24.642-27.38,31.971
		c-16.774,9.441-35.234,12.6-54.026,14.393c-8.16,0.779-16.365,1.103-24.806,1.648C265.847,309.758,265.847,382.94,265.847,456.785z
		 M255.123,216.785c15.592-1.295,31.23-2.176,46.756-4.013c12.981-1.537,25.644-4.895,36.586-12.545
		c16.336-11.422,23.525-40.653,15.354-61.13c-5.805-14.545-17.21-23.424-30.599-30.186c-17.944-9.062-37.236-13.078-57.139-14.226
		c-27.245-1.571-53.727,1.967-78.354,14.319c-22.907,11.489-35.59,27.175-33.316,55.032c1.865,22.853,12.303,36.927,34.139,43.981
		C210.2,215.013,232.608,215.603,255.123,216.785z M298.494,78.731c-9.157-16.653-29.797-26.995-47.792-24.742
		c-16.752,2.097-34.421,13.562-37.382,24.613C241.547,72.575,269.664,72.66,298.494,78.731z"/>
	<path fill-rule="evenodd" clip-rule="evenodd" fill="#FFFFFF" d="M138.574,185.015c5.394,17.277,15.814,30.197,31.731,37.216
		c11.439,5.045,23.784,8.596,36.08,10.983c13.156,2.555,26.729,2.962,40.553,4.351c0,73.622,0,147.639,0,222.507
		c-6.804-2.247-13.323-4.105-19.626-6.528c-37.689-14.488-68.389-37.591-88.936-72.967c-13.526-23.288-20.739-48.603-22.884-75.31
		c-2.327-28.963-2.099-57.951,2.021-86.756c0.972-6.795,3.485-13.513,6.202-19.876C126.397,192.348,131.579,188.025,138.574,185.015
		z"/>
	<path fill-rule="evenodd" clip-rule="evenodd" fill="#FFFFFF" d="M267.95,459.812c0-74.591,0-148.513,0-222.709
		c8.526-0.552,16.813-0.878,25.057-1.665c18.981-1.811,37.628-5.002,54.572-14.538c13.154-7.403,22.381-18.15,27.656-32.294
		c0.271-0.729,0.622-1.429,1.073-2.457c8.067,3.848,13.762,9.85,16.054,17.844c3.099,10.805,6.288,21.943,6.791,33.059
		c1.045,23.09,2.073,46.412,0.032,69.364c-5.423,60.953-34.282,107.558-88.93,136.968
		C297.037,450.497,283.154,455.909,267.95,459.812z"/>
	<path fill-rule="evenodd" clip-rule="evenodd" fill="#FFFFFF" d="M257.119,217.387c-22.743-1.193-45.378-1.79-67.246-8.855
		c-22.056-7.126-32.6-21.342-34.483-44.426c-2.296-28.138,10.515-43.982,33.653-55.588c24.876-12.477,51.626-16.051,79.145-14.464
		c20.104,1.159,39.591,5.216,57.716,14.369c13.524,6.83,25.045,15.799,30.908,30.491c8.254,20.684,0.991,50.21-15.51,61.747
		c-11.053,7.728-23.843,11.119-36.955,12.672C288.664,215.188,272.867,216.078,257.119,217.387z"/>
	<path fill-rule="evenodd" clip-rule="evenodd" fill="#FFFFFF" d="M300.928,77.938c-29.121-6.133-57.522-6.218-86.034-0.131
		c2.99-11.162,20.838-22.743,37.759-24.861C270.83,50.671,291.678,61.117,300.928,77.938z"/>
</g>
</svg>
