<?xml version="1.0" encoding="utf-8"?>
<!-- Generator: Adobe Illustrator 16.0.0, SVG Export Plug-In . SVG Version: 6.00 Build 0)  -->
<!DOCTYPE svg PUBLIC "-//W3C//DTD SVG 1.1//EN" "http://www.w3.org/Graphics/SVG/1.1/DTD/svg11.dtd">
<svg version="1.1" id="Layer_1" xmlns="http://www.w3.org/2000/svg" xmlns:xlink="http://www.w3.org/1999/xlink" x="0px" y="0px"
	 width="512px" height="512px" viewBox="0 0 512 512" enable-background="new 0 0 512 512" xml:space="preserve">
<g>
	<line fill="none" stroke="#B35047" x1="32" y1="0" x2="32" y2="512"/>
	<line fill="none" stroke="#B35047" x1="64" y1="0" x2="64" y2="512"/>
	<line fill="none" stroke="#B35047" x1="96" y1="0" x2="96" y2="512"/>
	<line fill="none" stroke="#B35047" x1="128" y1="0" x2="128" y2="512"/>
	<line fill="none" stroke="#B35047" x1="160" y1="0" x2="160" y2="512"/>
	<line fill="none" stroke="#B35047" x1="192" y1="0" x2="192" y2="512"/>
	<line fill="none" stroke="#B35047" x1="224" y1="0" x2="224" y2="512"/>
	<line fill="none" stroke="#B35047" x1="256" y1="0" x2="256" y2="512"/>
	<line fill="none" stroke="#B35047" x1="288" y1="0" x2="288" y2="512"/>
	<line fill="none" stroke="#B35047" x1="320" y1="0" x2="320" y2="512"/>
	<line fill="none" stroke="#B35047" x1="352" y1="0" x2="352" y2="512"/>
	<line fill="none" stroke="#B35047" x1="384" y1="0" x2="384" y2="512"/>
	<line fill="none" stroke="#B35047" x1="416" y1="0" x2="416" y2="512"/>
	<line fill="none" stroke="#B35047" x1="448" y1="0" x2="448" y2="512"/>
	<line fill="none" stroke="#B35047" x1="480" y1="0" x2="480" y2="512"/>
	<line fill="none" stroke="#B35047" x1="0" y1="32" x2="512" y2="32"/>
	<line fill="none" stroke="#B35047" x1="0" y1="64" x2="512" y2="64"/>
	<line fill="none" stroke="#B35047" x1="0" y1="96" x2="512" y2="96"/>
	<line fill="none" stroke="#B35047" x1="0" y1="128" x2="512" y2="128"/>
	<line fill="none" stroke="#B35047" x1="0" y1="160" x2="512" y2="160"/>
	<line fill="none" stroke="#B35047" x1="0" y1="192" x2="512" y2="192"/>
	<line fill="none" stroke="#B35047" x1="0" y1="224" x2="512" y2="224"/>
	<line fill="none" stroke="#B35047" x1="0" y1="256" x2="512" y2="256"/>
	<line fill="none" stroke="#B35047" x1="0" y1="288" x2="512" y2="288"/>
	<line fill="none" stroke="#B35047" x1="0" y1="320" x2="512" y2="320"/>
	<line fill="none" stroke="#B35047" x1="0" y1="352" x2="512" y2="352"/>
	<line fill="none" stroke="#B35047" x1="0" y1="384" x2="512" y2="384"/>
	<line fill="none" stroke="#B35047" x1="0" y1="416" x2="512" y2="416"/>
	<line fill="none" stroke="#B35047" x1="0" y1="448" x2="512" y2="448"/>
	<line fill="none" stroke="#B35047" x1="0" y1="480" x2="512" y2="480"/>
	<rect fill="none" stroke="#B35047" width="512" height="512"/>
</g>
<image display="none" overflow="visible" width="512" height="512" xlink:href="../../../Knowledge/Icon/[+++++] (Full) iOS7 icons [icons8]/IT_Infrastructure/remote_working/remote_working-512.png"  transform="matrix(1 0 0 1 430 -65)">
</image>
<image display="none" overflow="visible" width="512" height="512" xlink:href="../../../Knowledge/Icon/[+++++] (Full) iOS7 icons [icons8]/IT_Infrastructure/workstation/workstation-512.png"  transform="matrix(1 0 0 1 430 -65)">
</image>
<g>
	<path fill-rule="evenodd" clip-rule="evenodd" d="M492.109,508.939c-157.739,0-315.479,0-473.22,0
		c-13.51-5.558-16.83-10.596-16.83-25.544c0-152.28,0-304.559,0-456.838c0-16.735,7.763-24.497,24.498-24.497
		C178.836,2.06,331.115,2.06,483.396,2.06c14.948,0,19.986,3.32,25.544,16.83c0,157.74,0,315.48,0,473.22
		C506.389,500.778,500.778,506.389,492.109,508.939z M255.543,488.701c75.221,0,150.44,0.01,225.66-0.012
		c8.344-0.003,7.487,0.919,7.487-7.322c0.016-150.607,0.015-301.213,0.002-451.818c-0.001-7.985,0.818-7.241-7.078-7.241
		c-150.771-0.013-301.542-0.01-452.313-0.009c-6.997,0-7.002,0.004-7.002,6.839c-0.001,150.937-0.001,301.872,0,452.809
		c0,6.748,0.005,6.754,6.591,6.754C104.441,488.702,179.992,488.701,255.543,488.701z"/>
	<path display="none" fill-rule="evenodd" clip-rule="evenodd" fill="#FFFFFF" d="M513.5,18.5c-5.614-13.646-10.703-17-25.803-17
		c-153.817,0-307.635,0-461.452,0.001C9.341,1.501,1.501,9.341,1.5,26.245c-0.001,153.817,0,307.635,0,461.452
		c0,15.1,3.354,20.188,17,25.803c-5.997,0-11.994,0-17.994,0C0.504,342.583,0.504,171.666,0.504,0.625
		c170.996,0,341.996,0,512.996,0C513.5,6.506,513.5,12.503,513.5,18.5z"/>
	<path display="none" fill-rule="evenodd" clip-rule="evenodd" fill="#FFFFFF" d="M496.5,513.5c8.756-2.577,14.423-8.244,17-17
		c0,5.667,0,11.333,0,17C507.833,513.5,502.167,513.5,496.5,513.5z"/>
	<path display="none" fill-rule="evenodd" clip-rule="evenodd" fill="#FFFFFF" d="M257.543,493.057
		c-76.314,0-152.627,0.001-228.941-0.001c-6.653,0-6.658-0.006-6.658-6.822c-0.001-152.46-0.001-304.921,0-457.382
		c0-6.904,0.005-6.908,7.073-6.908c152.294-0.001,304.588-0.004,456.882,0.009c7.977,0,7.148-0.751,7.149,7.314
		c0.013,152.127,0.014,304.254-0.002,456.382c0,8.325,0.865,7.394-7.563,7.396C409.504,493.066,333.523,493.057,257.543,493.057z
		 M119.534,197.331c0.179-0.405,0.358-0.811,0.538-1.216c1.808,0,3.616,0,5.423,0c28.667,0,57.333,0.017,85.999-0.028
		c2.479-0.004,5.432,0.353,7.326-0.816c2.861-1.767,6.244-4.378,7.052-7.284c0.747-2.688-0.734-7.121-2.822-9.162
		c-2.159-2.11-6.223-3.117-9.464-3.142c-29.665-0.226-59.332-0.133-88.999-0.133c-1.693,0-3.386,0-6.128,0
		c10.987-11.006,21.015-20.997,30.962-31.067c1.617-1.638,3.149-3.479,4.244-5.486c2.458-4.504,0.901-9.865-3.374-12.633
		c-4.701-3.043-9.352-2.266-14.258,2.624c-17.355,17.292-34.632,34.663-52.042,51.898c-1.595,1.58-3.931,2.411-6.022,3.648
		c20.713,20.729,39.669,39.712,58.657,58.663c0.927,0.926,2.094,2.152,3.221,2.233c3.446,0.247,7.582,1.133,10.204-0.383
		c2.396-1.386,4.309-5.568,4.332-8.534c0.022-2.856-2.083-6.277-4.232-8.508C140.131,217.603,129.772,207.525,119.534,197.331z
		 M435.792,329.292c-19.523-19.554-38.556-38.694-57.736-57.687c-1.66-1.644-4.191-2.858-6.503-3.3
		c-4.528-0.864-8.226,0.979-10.278,5.243c-2.334,4.848-0.843,9.125,2.691,12.719c7.946,8.081,16.016,16.039,24.02,24.063
		c2.513,2.518,4.976,5.085,8.363,8.554c-3.149,0-4.929,0-6.708,0c-28.834,0-57.667-0.019-86.5,0.031
		c-2.477,0.005-5.035,0.142-7.414,0.762c-7.313,1.905-9.98,11.121-4.307,16.113c2.457,2.161,6.514,3.476,9.857,3.506
		c29.665,0.264,59.332,0.149,88.998,0.163c1.725,0.001,3.449,0.144,5.871,0.252c-1.72,1.809-2.82,3.019-3.976,4.175
		c-8.835,8.842-17.524,17.839-26.573,26.456c-7.243,6.896-6.18,13.233-2.617,17.065c4.439,4.776,10.803,3.792,16.96-2.35
		c6.254-6.238,12.49-12.495,18.741-18.735C410.938,354.088,423.198,341.857,435.792,329.292z M396.205,155.162
		c-1.916,2.082-2.949,3.285-4.066,4.404c-8.946,8.96-17.942,17.87-26.834,26.884c-1.611,1.633-3.112,3.517-4.149,5.547
		c-2.297,4.497-0.498,9.912,3.849,12.52c4.707,2.823,9.244,1.875,14.254-3.126c18.04-18.007,36.056-36.038,54.071-54.069
		c0.771-0.771,1.45-1.638,2.483-2.814c-6.895-6.777-13.574-13.275-20.178-19.85c-12.159-12.107-24.259-24.274-36.418-36.382
		c-3.438-3.423-7.267-6.019-12.439-3.992c-7.599,2.977-8.872,11.453-2.547,17.9c9.333,9.514,18.828,18.868,28.241,28.303
		c1.063,1.066,2.044,2.214,3.76,4.083c-3.093,0-4.907,0-6.722,0c-28.987,0-57.975-0.022-86.963,0.04
		c-2.46,0.006-5.02,0.251-7.359,0.957c-6.492,1.961-9.277,10.614-4.363,15.207c2.691,2.515,7.274,4.16,11.027,4.202
		c29.316,0.335,58.64,0.186,87.96,0.187C391.56,155.162,393.308,155.162,396.205,155.162z M118.768,359.838
		c2.019-2.172,3.081-3.39,4.22-4.529c8.947-8.959,17.992-17.823,26.804-26.913c2.008-2.071,3.954-4.724,4.646-7.435
		c1.165-4.568-0.567-8.508-5.013-10.842c-4.094-2.148-8.746-1.357-12.73,2.573c-10.199,10.062-20.279,20.244-30.419,30.366
		c-8.945,8.93-17.907,17.845-26.78,26.686c0.328,0.637,0.416,0.992,0.638,1.215c18.819,18.875,37.598,37.791,56.557,56.524
		c1.875,1.853,4.746,3.242,7.353,3.688c4.331,0.739,7.79-1.431,9.69-5.442c2.291-4.837,0.84-9.092-2.729-12.693
		c-9.382-9.466-18.838-18.857-28.248-28.296c-1.11-1.114-2.113-2.334-3.887-4.309c2.765,0,4.531,0,6.298,0
		c29.488,0,58.975,0.021,88.462-0.014c7.919-0.01,12.837-3.931,12.933-10.096c0.1-6.378-4.927-10.404-13.091-10.481
		c-1-0.009-2-0.002-2.999-0.002c-22.49,0-44.981,0-67.471,0C135.358,359.838,127.713,359.838,118.768,359.838z"/>
	<path fill-rule="evenodd" clip-rule="evenodd" d="M118.914,195.933c10.135,10.092,20.391,20.069,30.311,30.368
		c2.127,2.208,4.211,5.595,4.189,8.422c-0.022,2.937-1.916,7.077-4.288,8.449c-2.596,1.5-6.69,0.624-10.102,0.379
		c-1.116-0.081-2.271-1.295-3.188-2.211c-18.798-18.761-37.565-37.555-58.071-58.076c2.07-1.225,4.383-2.048,5.962-3.612
		c17.236-17.063,34.34-34.261,51.521-51.38c4.858-4.84,9.461-5.61,14.116-2.598c4.233,2.74,5.773,8.048,3.34,12.506
		c-1.084,1.987-2.601,3.811-4.202,5.432c-9.847,9.97-19.775,19.861-30.652,30.757c2.715,0,4.391,0,6.067,0
		c29.37,0,58.74-0.092,88.108,0.131c3.208,0.024,7.232,1.021,9.369,3.11c2.067,2.021,3.534,6.409,2.794,9.07
		c-0.799,2.877-4.149,5.462-6.981,7.211c-1.876,1.157-4.798,0.804-7.253,0.808c-28.379,0.044-56.759,0.028-85.139,0.028
		c-1.79,0-3.58,0-5.369,0C119.269,195.13,119.091,195.531,118.914,195.933z"/>
	<path fill-rule="evenodd" clip-rule="evenodd" d="M432.009,326.574c-12.468,12.439-24.605,24.548-36.739,36.66
		c-6.188,6.179-12.362,12.372-18.554,18.549c-6.096,6.08-12.396,7.055-16.79,2.326c-3.527-3.794-4.58-10.067,2.591-16.896
		c8.958-8.531,17.561-17.438,26.308-26.191c1.144-1.145,2.233-2.343,3.936-4.133c-2.397-0.107-4.105-0.249-5.813-0.25
		c-29.369-0.013-58.74,0.1-88.107-0.161c-3.311-0.03-7.326-1.331-9.76-3.471c-5.617-4.942-2.976-14.066,4.264-15.952
		c2.355-0.614,4.889-0.749,7.34-0.754c28.545-0.05,57.09-0.031,85.636-0.031c1.761,0,3.522,0,6.641,0
		c-3.354-3.435-5.792-5.976-8.279-8.468c-7.924-7.944-15.913-15.822-23.779-23.823c-3.499-3.558-4.976-7.792-2.665-12.591
		c2.032-4.222,5.692-6.047,10.176-5.191c2.288,0.438,4.794,1.64,6.438,3.268C393.839,288.267,412.681,307.216,432.009,326.574z"/>
	<path fill-rule="evenodd" clip-rule="evenodd" d="M392.817,154.185c-2.868,0-4.599,0-6.329,0
		c-29.027-0.001-58.057,0.147-87.08-0.185c-3.716-0.042-8.253-1.67-10.918-4.16c-4.864-4.547-2.107-13.113,4.32-15.055
		c2.316-0.699,4.85-0.942,7.285-0.948c28.699-0.062,57.396-0.04,86.094-0.04c1.796,0,3.593,0,6.654,0
		c-1.698-1.851-2.669-2.986-3.722-4.042c-9.319-9.34-18.72-18.601-27.959-28.02c-6.262-6.383-5.001-14.774,2.521-17.721
		c5.121-2.006,8.912,0.563,12.314,3.952c12.038,11.986,24.017,24.032,36.054,36.018c6.538,6.508,13.15,12.941,19.977,19.651
		c-1.023,1.165-1.695,2.022-2.459,2.786c-17.835,17.851-35.671,35.702-53.53,53.529c-4.96,4.951-9.451,5.89-14.111,3.095
		c-4.304-2.582-6.084-7.942-3.811-12.395c1.027-2.01,2.513-3.875,4.108-5.491c8.803-8.924,17.709-17.745,26.565-26.615
		C389.898,157.438,390.921,156.247,392.817,154.185z"/>
	<path fill-rule="evenodd" clip-rule="evenodd" d="M118.155,356.814c8.856,0,16.424,0,23.992,0c22.266,0,44.531,0,66.797,0
		c0.989,0,1.979-0.007,2.969,0.002c8.082,0.076,13.059,4.063,12.96,10.376c-0.095,6.104-4.963,9.985-12.804,9.995
		c-29.192,0.034-58.385,0.014-87.578,0.014c-1.749,0-3.498,0-6.235,0c1.756,1.955,2.749,3.162,3.848,4.266
		c9.315,9.344,18.677,18.642,27.965,28.013c3.532,3.565,4.969,7.778,2.701,12.566c-1.881,3.972-5.307,6.12-9.594,5.388
		c-2.581-0.44-5.423-1.816-7.279-3.65c-18.77-18.546-37.36-37.272-55.992-55.959c-0.219-0.221-0.307-0.572-0.631-1.203
		c8.784-8.752,17.656-17.578,26.512-26.418c10.038-10.021,20.018-20.102,30.115-30.063c3.944-3.892,8.55-4.675,12.603-2.548
		c4.401,2.311,6.116,6.21,4.962,10.733c-0.685,2.684-2.611,5.31-4.599,7.36c-8.723,8.999-17.678,17.774-26.536,26.644
		C121.206,353.459,120.154,354.664,118.155,356.814z"/>
</g>
<g display="none">
	<path display="inline" fill-rule="evenodd" clip-rule="evenodd" d="M492.414,508.939c-157.738,0-315.479,0-473.219,0
		c-13.509-5.559-16.83-10.597-16.83-25.539c0-23.589-0.21-47.181,0.105-70.766c0.125-9.308,0.673-18.516,0.269-27.914
		c-1.091-25.357-0.839-50.805-0.109-76.188c0.241-8.363,0.239-16.596,0-24.959c-0.729-25.547-0.325-51.13-0.192-76.698
		c0.018-3.399,0.583-6.929,1.614-10.169C22.925,137.4,41.902,78.125,60.871,18.849C64.817,6.518,70.92,2.062,83.759,2.062
		c114.646-0.003,229.293-0.003,343.94-0.001c12.918,0,19.115,4.449,23,16.646c12.939,40.633,25.795,81.295,38.795,121.91
		c6.459,20.185,13.16,40.292,19.75,60.434c0,97.021,0,194.04,0,291.06C506.693,500.778,501.084,506.389,492.414,508.939z
		 M481.781,184.208c-0.48-1.878-0.797-3.449-1.281-4.968c-16.172-50.847-32.396-101.677-48.465-152.557
		c-1.102-3.484-2.738-4.461-6.264-4.458c-113.348,0.089-226.694,0.092-340.042-0.011c-3.644-0.003-5.105,1.217-6.171,4.578
		C63.427,77.653,47.165,128.47,30.942,179.302c-0.482,1.511-0.868,3.053-1.391,4.906
		C180.487,184.208,330.896,184.208,481.781,184.208z M22.926,285.271c155.517,0,310.63,0,465.746,0c0-26.958,0-53.461,0-80.146
		c-155.363,0-310.394,0-465.746,0C22.926,231.85,22.926,258.35,22.926,285.271z M488.604,386.929c0-26.981,0-53.597,0-80.683
		c-2.021,0-3.641,0-5.258,0c-151.741,0-303.481,0.025-455.221-0.113c-4.856-0.005-5.634,1.697-5.603,5.957
		c0.172,23.088,0.082,46.181,0.082,69.271c0,1.776,0,3.552,0,5.567C178.184,386.929,333.167,386.929,488.604,386.929z
		 M22.942,408.137c-0.14,1.193-0.315,1.994-0.315,2.797c-0.017,24.582,0.076,49.164-0.103,73.744
		c-0.033,4.549,2.628,4.027,5.446,4.027c151.943-0.005,303.885-0.02,455.831,0.076c4.084,0.003,5.326-1.114,5.295-5.254
		c-0.184-23.59-0.084-47.182-0.102-70.773c0-1.454-0.166-2.908-0.268-4.617C333.428,408.137,178.416,408.137,22.942,408.137z"/>
	<path fill-rule="evenodd" clip-rule="evenodd" fill="#FFFFFF" d="M513.5,202.5c-6.658-20.346-13.426-40.655-19.951-61.044
		c-13.13-41.025-26.115-82.098-39.187-123.142C450.438,5.995,444.18,1.501,431.131,1.501C315.326,1.499,199.521,1.499,83.716,1.502
		c-12.969,0-19.133,4.501-23.119,16.957C41.436,78.334,22.268,138.207,3.204,198.113c-1.042,3.273-1.613,6.839-1.631,10.272
		c-0.134,25.826-0.542,51.667,0.194,77.473c0.241,8.447,0.243,16.764,0,25.211c-0.737,25.639-0.992,51.344,0.11,76.957
		c0.409,9.493-0.146,18.794-0.271,28.196C1.287,440.046,1.5,463.876,1.5,487.703c0,15.093,3.354,20.182,17,25.797
		c-5.998,0-11.995,0-17.995,0C0.503,342.571,0.503,171.642,0.503,0.606c170.997,0,341.997,0,512.997,0
		C513.5,67.888,513.5,135.193,513.5,202.5z"/>
	<path fill-rule="evenodd" clip-rule="evenodd" fill="#FFFFFF" d="M496.5,513.5c8.756-2.577,14.423-8.244,17-17
		c0,5.667,0,11.333,0,17C507.833,513.5,502.167,513.5,496.5,513.5z"/>
	<path fill-rule="evenodd" clip-rule="evenodd" fill="#FFFFFF" d="M485.759,185.488c-152.408,0-304.337,0-456.798,0
		c0.528-1.872,0.918-3.43,1.405-4.956c16.387-51.345,32.813-102.676,49.107-154.05c1.077-3.395,2.554-4.628,6.234-4.624
		c114.492,0.104,228.984,0.101,343.476,0.011c3.562-0.003,5.216,0.983,6.327,4.503c16.23,51.394,32.619,102.737,48.955,154.098
		C484.953,182.004,485.274,183.591,485.759,185.488z"/>
	<path fill-rule="evenodd" clip-rule="evenodd" fill="#FFFFFF" d="M22.269,287.571c0-27.192,0-53.96,0-80.955
		c156.922,0,313.519,0,470.451,0c0,26.954,0,53.726,0,80.955C336.036,287.571,179.356,287.571,22.269,287.571z M442.046,267.613
		c11.181-0.097,20.355-9.351,20.282-20.457c-0.073-11.077-9.407-20.367-20.486-20.39c-11.285-0.023-20.53,9.429-20.388,20.846
		C421.594,258.835,430.731,267.711,442.046,267.613z"/>
	<path fill-rule="evenodd" clip-rule="evenodd" fill="#FFFFFF" d="M492.649,390.257c-157.006,0-313.555,0-470.707,0
		c0-2.036,0-3.83,0-5.624c0-23.324,0.091-46.649-0.082-69.972c-0.032-4.303,0.753-6.021,5.659-6.017
		c153.273,0.14,306.546,0.114,459.819,0.114c1.635,0,3.27,0,5.311,0C492.649,336.118,492.649,363.003,492.649,390.257z
		 M421.451,349.67c0.015,11.217,9.063,20.342,20.257,20.427c11.08,0.084,20.433-9.079,20.62-20.202
		c0.19-11.261-9.205-20.613-20.649-20.557C430.394,329.394,421.436,338.398,421.451,349.67z"/>
	<path fill-rule="evenodd" clip-rule="evenodd" fill="#FFFFFF" d="M22.285,411.679c157.044,0,313.621,0,470.488,0
		c0.104,1.727,0.271,3.195,0.271,4.664c0.017,23.83-0.084,47.66,0.102,71.488c0.032,4.182-1.222,5.31-5.349,5.307
		c-153.479-0.097-306.956-0.082-460.434-0.077c-2.846,0-5.534,0.527-5.501-4.067c0.18-24.829,0.087-49.659,0.104-74.489
		C21.967,413.693,22.144,412.884,22.285,411.679z M421.445,452.146c0.034,11.195,9.153,20.319,20.328,20.337
		c11.132,0.018,20.419-9.133,20.552-20.251c0.134-11.196-9.47-20.762-20.715-20.635
		C430.481,431.724,421.412,440.965,421.445,452.146z"/>
	<path display="inline" fill-rule="evenodd" clip-rule="evenodd" d="M438.506,265.512c-11.201,0.097-20.248-8.69-20.387-19.801
		c-0.141-11.303,9.012-20.661,20.184-20.637c10.969,0.022,20.209,9.219,20.281,20.186
		C458.658,256.255,449.574,265.416,438.506,265.512z"/>
	<path display="inline" fill-rule="evenodd" clip-rule="evenodd" d="M418.117,346.748c-0.016-11.158,8.852-20.074,20.025-20.129
		c11.33-0.057,20.631,9.203,20.441,20.352c-0.186,11.012-9.443,20.083-20.414,20C427.09,366.887,418.131,357.853,418.117,346.748z"
		/>
	<path display="inline" fill-rule="evenodd" clip-rule="evenodd" d="M418.111,448.2c-0.033-11.07,8.945-20.219,19.963-20.344
		c11.133-0.126,20.641,9.344,20.508,20.429c-0.131,11.007-9.326,20.065-20.346,20.048
		C427.172,468.316,418.145,459.283,418.111,448.2z"/>
</g>
</svg>
