<?xml version="1.0" encoding="utf-8"?>
<!-- Generator: Adobe Illustrator 16.0.0, SVG Export Plug-In . SVG Version: 6.00 Build 0)  -->
<!DOCTYPE svg PUBLIC "-//W3C//DTD SVG 1.1//EN" "http://www.w3.org/Graphics/SVG/1.1/DTD/svg11.dtd">
<svg version="1.1" id="Layer_1" xmlns="http://www.w3.org/2000/svg" xmlns:xlink="http://www.w3.org/1999/xlink" x="0px" y="0px"
	 width="512px" height="512px" viewBox="0 0 512 512" enable-background="new 0 0 512 512" xml:space="preserve">
<g>
	<line fill="none" stroke="#B35047" x1="32" y1="0" x2="32" y2="512"/>
	<line fill="none" stroke="#B35047" x1="64" y1="0" x2="64" y2="512"/>
	<line fill="none" stroke="#B35047" x1="96" y1="0" x2="96" y2="512"/>
	<line fill="none" stroke="#B35047" x1="128" y1="0" x2="128" y2="512"/>
	<line fill="none" stroke="#B35047" x1="160" y1="0" x2="160" y2="512"/>
	<line fill="none" stroke="#B35047" x1="192" y1="0" x2="192" y2="512"/>
	<line fill="none" stroke="#B35047" x1="224" y1="0" x2="224" y2="512"/>
	<line fill="none" stroke="#B35047" x1="256" y1="0" x2="256" y2="512"/>
	<line fill="none" stroke="#B35047" x1="288" y1="0" x2="288" y2="512"/>
	<line fill="none" stroke="#B35047" x1="320" y1="0" x2="320" y2="512"/>
	<line fill="none" stroke="#B35047" x1="352" y1="0" x2="352" y2="512"/>
	<line fill="none" stroke="#B35047" x1="384" y1="0" x2="384" y2="512"/>
	<line fill="none" stroke="#B35047" x1="416" y1="0" x2="416" y2="512"/>
	<line fill="none" stroke="#B35047" x1="448" y1="0" x2="448" y2="512"/>
	<line fill="none" stroke="#B35047" x1="480" y1="0" x2="480" y2="512"/>
	<line fill="none" stroke="#B35047" x1="0" y1="32" x2="512" y2="32"/>
	<line fill="none" stroke="#B35047" x1="0" y1="64" x2="512" y2="64"/>
	<line fill="none" stroke="#B35047" x1="0" y1="96" x2="512" y2="96"/>
	<line fill="none" stroke="#B35047" x1="0" y1="128" x2="512" y2="128"/>
	<line fill="none" stroke="#B35047" x1="0" y1="160" x2="512" y2="160"/>
	<line fill="none" stroke="#B35047" x1="0" y1="192" x2="512" y2="192"/>
	<line fill="none" stroke="#B35047" x1="0" y1="224" x2="512" y2="224"/>
	<line fill="none" stroke="#B35047" x1="0" y1="256" x2="512" y2="256"/>
	<line fill="none" stroke="#B35047" x1="0" y1="288" x2="512" y2="288"/>
	<line fill="none" stroke="#B35047" x1="0" y1="320" x2="512" y2="320"/>
	<line fill="none" stroke="#B35047" x1="0" y1="352" x2="512" y2="352"/>
	<line fill="none" stroke="#B35047" x1="0" y1="384" x2="512" y2="384"/>
	<line fill="none" stroke="#B35047" x1="0" y1="416" x2="512" y2="416"/>
	<line fill="none" stroke="#B35047" x1="0" y1="448" x2="512" y2="448"/>
	<line fill="none" stroke="#B35047" x1="0" y1="480" x2="512" y2="480"/>
	<rect fill="none" stroke="#B35047" width="512" height="512"/>
</g>
<g>
	<path display="none" fill-rule="evenodd" clip-rule="evenodd" fill="#FFFFFF" d="M0.609,513.5
		c-0.037-0.131-0.104-0.261-0.104-0.392C0.5,342.317,0.5,171.525,0.5,0.617c170.88,0,341.761,0,512.82,0
		c0,170.883,0,341.883,0,512.883C342.525,513.5,171.567,513.5,0.609,513.5z M109.499,60.924c0-2.394-0.065-3.888,0.01-5.374
		c1.733-34.441-25.552-59.197-59.412-52.885C19.055,8.451-3.458,32.682,2.546,67.319c0.777,4.483,2.542,6.067,6.985,4.952
		c4.516-1.134,9.1-2.006,13.674-2.887c3.207-0.617,4.48-2.272,3.999-5.626c-0.471-3.279-0.82-6.65-0.61-9.941
		c0.787-12.311,7.021-20.93,18.421-25.603c10.604-4.348,20.976-4.398,29.896,3.733c9.058,8.257,11.419,19.101,9.111,30.649
		c-2.77,13.854-5.732,27.754-9.94,41.219c-4.8,15.36-2.648,29.452,4.073,43.502c1.64,3.429,3.544,3.886,6.698,2.566
		c4.604-1.924,9.246-3.766,13.926-5.496c3.532-1.305,4.808-3.413,2.922-6.891c-6.851-12.633-6.27-25.566-1.456-38.606
		c0.771-2.09,1.854-4.35,3.452-5.806c53.568-48.785,116.537-68.419,188.032-58.092c55.585,8.029,101.949,34.405,137.974,77.517
		c43.533,52.098,59.975,112.452,50.324,179.497c-6.304,43.799-24.518,82.666-54.48,115.256
		c-54.594,59.38-122.594,83.858-202.317,72.694c-55.616-7.788-101.768-34.532-138-77.472
		c-33.468-39.662-50.984-85.757-52.768-137.699c-1.221-35.565,5.723-69.498,20.447-101.899c1.235-2.718,1.812-6.193,1.362-9.111
		c-0.653-4.242-3.712-6.9-8.268-7.371c-5.143-0.53-8.817,1.842-11.466,7.694C9.848,208.671,3.68,265.39,20.9,322.701
		c29.757,99.04,96.81,158.862,198.54,177.276c57.562,10.419,113.034-0.132,162.81-31.098
		c86.567-53.855,127.165-132.919,119.553-234.594c-4.876-65.126-34.335-119.292-83.44-162.446
		C338.164,1.36,218.087-8.092,127.808,48.813C121.811,52.593,115.975,56.631,109.499,60.924z M358.952,288.341
		c-5.417,0.373-11.232,0.692-17.033,1.187c-30.444,2.593-59.757,9.377-86.926,23.865c-17.69,9.434-33.331,21.404-44.979,37.962
		c-1.813,2.578-3.131,6.014-3.288,9.123c-0.216,4.291,2.434,7.461,6.721,8.852c4.56,1.479,8.921,0.018,12.08-4.594
		c6.39-9.329,14.382-17.005,23.508-23.56c24.128-17.331,51.595-25.837,80.628-29.619c13.175-1.717,26.539-1.971,39.813-2.939
		c6.372-0.465,10.834-4.748,10.793-10.209c-0.042-5.674-4.855-9.938-11.422-10.058C365.687,288.294,362.522,288.341,358.952,288.341
		z M395.635,187.721c-0.049-15.056-3.762-26.833-10.313-34.762c-8.662-10.484-22.07-10.663-30.261,0.146
		c-3.342,4.409-6.113,9.646-7.67,14.939c-5.179,17.609-4.067,34.748,7.206,49.948c8.702,11.733,22.214,11.493,31.188,0.001
		C393.205,208.492,395.459,197.381,395.635,187.721z M201.302,185.874c0.103,11.575,2.457,22.492,9.667,31.891
		c9.044,11.789,22.369,11.806,31.566,0.116c13.084-16.627,13.042-47.477-0.086-64.232c-8.936-11.404-22.362-11.49-31.254-0.098
		C203.792,163.036,201.383,174.111,201.302,185.874z M227.277,82.604c-6.964,1.466-14.235,2.102-20.838,4.544
		c-25.614,9.475-40.136,29.742-50.297,53.782c-2.293,5.427,0.297,10.99,5.056,13.114c4.906,2.189,10.601,0.081,13.506-5.229
		c2.393-4.374,4.286-9.034,6.835-13.307c6.839-11.461,15.114-21.713,27.564-27.419c14.375-6.589,28.499-5.417,41.92,2.948
		c4.036,2.516,8.109,4.116,12.582,1.568c6.999-3.989,6.814-12.99-0.441-18.071C252.475,87.048,240.449,83.659,227.277,82.604z
		 M360.81,83.437c-14.281,0.24-25.807,3.535-36.271,10.342c-5.189,3.375-7.455,7.926-6.27,12.403
		c2.043,7.715,9.341,9.856,17.104,5.019c16.639-10.368,35.365-9.782,50.755,2.265c5.179,4.054,9.4,9.353,13.941,14.192
		c4.449,4.741,10.271,5.828,14.677,2.536c4.3-3.212,5.507-9.446,1.947-14.324C402.431,96.325,384.149,83.696,360.81,83.437z
		 M87.63,175.264c3.58,8.646,6.842,16.807,10.451,24.81c0.364,0.806,3.053,1.299,4.275,0.859c6.399-2.303,12.77-4.75,18.914-7.647
		c1.276-0.603,2.578-3.677,2.118-5.01c-2.539-7.365-5.443-14.624-8.677-21.713c-0.57-1.25-3.618-2.517-4.961-2.074
		c-6.453,2.125-12.756,4.732-19.005,7.419C89.486,172.449,88.693,174.075,87.63,175.264z"/>
	<path fill-rule="evenodd" clip-rule="evenodd" d="M112.499,63.924c6.477-4.293,12.312-8.331,18.31-12.111
		C221.087-5.092,341.164,4.36,421.362,74.84c49.105,43.154,78.564,97.32,83.44,162.446
		c7.612,101.675-32.985,180.738-119.553,234.594c-49.776,30.966-105.248,41.517-162.81,31.098
		C120.71,484.563,53.657,424.741,23.9,325.701C6.68,268.39,12.848,211.671,37.54,157.1c2.648-5.853,6.323-8.225,11.466-7.694
		c4.556,0.471,7.615,3.129,8.268,7.371c0.45,2.918-0.127,6.394-1.362,9.111c-14.725,32.401-21.668,66.334-20.447,101.899
		c1.784,51.942,19.299,98.037,52.768,137.699c36.233,42.939,82.385,69.684,138,77.472c79.723,11.164,147.723-13.314,202.317-72.694
		c29.963-32.59,48.177-71.457,54.48-115.256c9.65-67.045-6.791-127.399-50.324-179.497c-36.024-43.111-82.389-69.487-137.974-77.517
		C223.236,27.667,160.268,47.301,106.7,96.086c-1.599,1.456-2.681,3.716-3.452,5.806c-4.813,13.04-5.395,25.974,1.456,38.606
		c1.886,3.478,0.609,5.586-2.922,6.891c-4.68,1.73-9.323,3.572-13.926,5.496c-3.154,1.319-5.058,0.862-6.698-2.566
		c-6.721-14.05-8.873-28.142-4.073-43.502c4.208-13.465,7.17-27.364,9.94-41.219c2.309-11.549-0.053-22.393-9.111-30.649
		c-8.921-8.132-19.292-8.081-29.896-3.733c-11.4,4.673-17.634,13.292-18.421,25.603c-0.21,3.291,0.139,6.662,0.61,9.941
		c0.481,3.354-0.792,5.009-3.999,5.626c-4.574,0.881-9.159,1.753-13.674,2.887c-4.443,1.115-6.208-0.469-6.985-4.952
		c-6.004-34.638,16.509-58.868,47.55-64.654c33.859-6.313,61.145,18.443,59.412,52.885C112.434,60.036,112.499,61.53,112.499,63.924
		z"/>
	<path fill-rule="evenodd" clip-rule="evenodd" d="M361.952,291.341c3.57,0,6.734-0.047,9.896,0.01
		c6.566,0.119,11.38,4.384,11.422,10.058c0.041,5.461-4.421,9.744-10.793,10.209c-13.274,0.969-26.639,1.223-39.813,2.939
		c-29.033,3.782-56.5,12.288-80.628,29.619c-9.126,6.555-17.119,14.23-23.508,23.56c-3.159,4.611-7.521,6.072-12.08,4.594
		c-4.287-1.391-6.937-4.561-6.721-8.852c0.157-3.109,1.475-6.545,3.288-9.123c11.647-16.558,27.288-28.528,44.979-37.962
		c27.169-14.488,56.481-21.272,86.926-23.865C350.72,292.033,356.535,291.714,361.952,291.341z"/>
	<path fill-rule="evenodd" clip-rule="evenodd" d="M398.635,190.721c-0.176,9.66-2.43,20.771-9.85,30.273
		c-8.975,11.492-22.486,11.732-31.188-0.001c-11.273-15.2-12.385-32.339-7.206-49.948c1.557-5.294,4.328-10.53,7.67-14.939
		c8.19-10.81,21.599-10.631,30.261-0.146C394.873,163.888,398.586,175.665,398.635,190.721z"/>
	<path fill-rule="evenodd" clip-rule="evenodd" d="M204.304,188.871c0.079-11.76,2.489-22.835,9.892-32.32
		c8.892-11.393,22.318-11.307,31.254,0.098c13.128,16.756,13.17,47.605,0.086,64.232c-9.198,11.689-22.522,11.673-31.566-0.116
		C206.759,211.366,204.405,200.449,204.304,188.871z"/>
	<path fill-rule="evenodd" clip-rule="evenodd" d="M230.277,85.604c13.171,1.056,25.197,4.444,35.887,11.931
		c7.256,5.081,7.44,14.082,0.441,18.071c-4.473,2.548-8.546,0.947-12.582-1.568c-13.421-8.365-27.544-9.537-41.92-2.948
		c-12.45,5.706-20.726,15.958-27.564,27.419c-2.55,4.272-4.442,8.933-6.835,13.307c-2.905,5.311-8.6,7.419-13.506,5.229
		c-4.758-2.124-7.349-7.688-5.056-13.114c10.162-24.04,24.684-44.308,50.297-53.782C216.042,87.705,223.313,87.069,230.277,85.604z"
		/>
	<path fill-rule="evenodd" clip-rule="evenodd" d="M363.81,86.437c23.34,0.26,41.621,12.889,55.884,32.433
		c3.56,4.878,2.353,11.112-1.947,14.324c-4.406,3.292-10.228,2.205-14.677-2.536c-4.541-4.84-8.763-10.139-13.941-14.192
		c-15.39-12.047-34.116-12.633-50.755-2.265c-7.764,4.838-15.062,2.696-17.104-5.019c-1.186-4.478,1.08-9.028,6.27-12.403
		C338.003,89.972,349.528,86.677,363.81,86.437z"/>
	<path fill-rule="evenodd" clip-rule="evenodd" d="M90.63,178.264c1.063-1.188,1.855-2.814,3.115-3.356
		c6.249-2.687,12.552-5.294,19.005-7.419c1.343-0.442,4.391,0.824,4.961,2.074c3.234,7.089,6.139,14.348,8.677,21.713
		c0.459,1.333-0.842,4.407-2.118,5.01c-6.144,2.897-12.515,5.345-18.914,7.647c-1.222,0.439-3.911-0.054-4.275-0.859
		C97.472,195.07,94.21,186.91,90.63,178.264z"/>
</g>
<g display="none">
	<path display="inline" fill-rule="evenodd" clip-rule="evenodd" fill="#FFFFFF" d="M513.5,513.486
		c-170.952,0.005-341.904,0.005-512.928,0.005c0-170.901,0-341.813,0-512.857c170.928,0,341.928,0,512.928,0
		C513.5,171.565,513.5,342.523,513.5,513.486z M503.322,257.36c-0.23-135.663-110.604-245.911-245.963-245.683
		C121.697,11.908,11.449,122.282,11.678,257.64c0.229,135.663,110.604,245.912,245.962,245.683
		C393.304,503.092,503.551,392.718,503.322,257.36z"/>
	<path display="inline" fill-rule="evenodd" clip-rule="evenodd" d="M501.322,256.36c0.229,135.357-110.019,245.731-245.682,245.962
		C120.283,502.552,9.908,392.303,9.678,256.64C9.449,121.282,119.697,10.908,255.359,10.678
		C390.718,10.449,501.092,120.697,501.322,256.36z M255.292,31.318C130.72,31.586,30.372,132.008,30.318,256.458
		c-0.054,124.55,100.962,225.491,225.389,225.224c124.572-0.267,224.921-100.689,224.975-225.14
		C480.736,131.993,379.72,31.051,255.292,31.318z"/>
	<path fill-rule="evenodd" clip-rule="evenodd" fill="#FFFFFF" d="M257.292,32.318c124.428-0.268,225.444,100.675,225.39,225.224
		c-0.054,124.45-100.402,224.873-224.975,225.14C133.28,482.949,32.264,382.008,32.318,257.458
		C32.372,133.008,132.72,32.586,257.292,32.318z M257.725,421.384c34.84-0.49,64.506-13.04,88.896-38.002
		c27.805-28.458,43.642-63.239,53.521-101.159c1.138-4.37,0.789-8.735-3.092-11.829c-4.141-3.301-8.571-2.814-13.101-0.563
		c-36.673,18.236-75.746,27.055-116.45,28.37c-47.846,1.547-93.708-7.305-136.894-28.561c-4.083-2.01-8.336-2.643-12.218,0.374
		c-4.024,3.128-4.779,7.49-3.556,12.176c9.95,38.083,25.857,73.015,53.871,101.521C193.164,408.604,222.898,421.016,257.725,421.384
		z M227.437,226.13c-1.878-2.76-3.194-6.305-5.742-8.13c-7.132-5.109-14.376-10.361-22.282-14.038
		c-32.153-14.953-64.853-7.299-90.798,14.136c-3.732,3.083-5.493,7.119-3.855,11.978c2.474,7.338,10.581,8.768,17.586,3.191
		c27.48-21.875,57.874-22.013,85.513-0.433c1.556,1.215,3.248,2.381,5.06,3.12C219.445,238.614,226.479,233.785,227.437,226.13z
		 M350.658,196.188c-21.41,0.214-39.256,7.579-55.24,19.864c-7.262,5.581-8.965,11.821-4.848,16.905
		c4.033,4.979,10.748,4.762,17.586-0.676c14.42-11.466,30.824-17.632,49.642-14.919c13.354,1.927,24.897,7.886,35.353,16.255
		c5.516,4.415,11.908,4.024,15.533-0.608c3.525-4.505,2.696-10.771-2.449-15.012C389.825,204.471,371.2,196.533,350.658,196.188z"/>
	<path display="inline" fill-rule="evenodd" clip-rule="evenodd" d="M255.729,420.386c-34.832-0.37-64.566-12.781-89.028-37.674
		c-28.014-28.507-43.921-63.438-53.871-101.521c-1.224-4.686-0.468-9.048,3.556-12.176c3.882-3.017,8.135-2.384,12.218-0.374
		c43.187,21.256,89.048,30.107,136.894,28.561c40.704-1.315,79.777-10.134,116.45-28.37c4.529-2.252,8.96-2.738,13.101,0.563
		c3.881,3.094,4.229,7.459,3.092,11.829c-9.879,37.92-25.716,72.701-53.521,101.159C320.23,407.344,290.564,419.894,255.729,420.386
		z M138.949,296.093c5.869,20.341,22.114,51.716,42.548,72.688c37.561,38.55,100.476,41.766,140.928,6.392
		c24.113-21.086,39.15-48.035,49.476-77.924c0.062-0.179-0.268-0.494-0.514-0.917C294.174,325.148,216.864,325.137,138.949,296.093z
		"/>
	<path display="inline" fill-rule="evenodd" clip-rule="evenodd" d="M225.437,225.13c-0.958,7.655-7.992,12.484-14.518,9.824
		c-1.812-0.739-3.504-1.905-5.06-3.12c-27.639-21.58-58.033-21.442-85.513,0.433c-7.005,5.576-15.112,4.146-17.586-3.191
		c-1.638-4.858,0.124-8.895,3.855-11.978c25.945-21.435,58.645-29.089,90.798-14.136c7.906,3.677,15.15,8.929,22.282,14.038
		C222.243,218.825,223.559,222.37,225.437,225.13z"/>
	<path display="inline" fill-rule="evenodd" clip-rule="evenodd" d="M348.658,195.188c20.542,0.346,39.167,8.283,55.576,21.81
		c5.146,4.24,5.975,10.507,2.449,15.012c-3.625,4.633-10.018,5.023-15.533,0.608c-10.455-8.369-21.999-14.328-35.353-16.255
		c-18.817-2.713-35.222,3.453-49.642,14.919c-6.838,5.438-13.553,5.655-17.586,0.676c-4.117-5.084-2.414-11.324,4.848-16.905
		C309.402,202.767,327.248,195.401,348.658,195.188z"/>
	<path fill-rule="evenodd" clip-rule="evenodd" fill="#FFFFFF" d="M140.949,297.093c77.916,29.044,155.225,29.056,232.438,0.238
		c0.246,0.423,0.575,0.738,0.514,0.917c-10.325,29.889-25.362,56.838-49.476,77.924c-40.452,35.374-103.367,32.158-140.928-6.392
		C163.063,348.809,146.817,317.434,140.949,297.093z"/>
</g>
<g display="none">
	<path fill-rule="evenodd" clip-rule="evenodd" fill="#FFFFFF" d="M0.5,0.5c171,0,342,0,513,0c0,171,0,342,0,513c-171,0-342,0-513,0
		C0.5,342.5,0.5,171.5,0.5,0.5z M503.322,257.549c0.082-135.442-110.22-245.788-245.773-245.871
		C122.106,11.596,11.761,121.896,11.678,257.451c-0.083,135.442,110.219,245.788,245.773,245.871
		C392.894,503.404,503.239,393.104,503.322,257.549z"/>
	<path display="inline" fill-rule="evenodd" clip-rule="evenodd" d="M502.322,256.549
		c-0.083,135.555-110.429,245.855-245.871,245.773C120.897,502.239,10.595,391.894,10.678,256.451
		C10.761,120.896,121.106,10.596,256.549,10.678C392.103,10.761,502.404,121.106,502.322,256.549z M256.252,31.318
		c-124.6,0.319-224.931,100.761-224.934,225.18c-0.002,124.579,101.032,225.503,225.43,225.184
		c124.6-0.319,224.932-100.761,224.934-225.18C481.685,131.923,380.65,30.999,256.252,31.318z"/>
	<path fill-rule="evenodd" clip-rule="evenodd" fill="#FFFFFF" d="M257.252,32.318c124.398-0.319,225.433,100.604,225.43,225.184
		c-0.002,124.419-100.334,224.86-224.934,225.18C133.35,483.001,32.315,382.077,32.318,257.498
		C32.321,133.079,132.652,32.638,257.252,32.318z M257.311,400.263c4.327,0,8.654,0.032,12.98-0.02
		c1.325-0.016,2.649-0.251,3.973-0.406c32.829-3.859,61.901-16.932,87.229-37.663c12.676-10.375,23.759-22.74,35.208-34.549
		c4.621-4.766,5.007-9.693,2.567-13.642c-4.172-6.749-11.831-6.355-17.944,0.078c-10.184,10.718-20.147,21.824-31.474,31.238
		c-22.568,18.757-48.505,30.903-77.972,34.162c-32.924,3.642-62.938-5.059-90.699-22.543
		c-18.069-11.381-33.613-25.575-47.042-42.125c-3.083-3.799-6.57-6.774-11.848-5.578c-7.955,1.802-10.865,10.696-4.789,17.28
		c11.035,11.959,22.027,24.208,34.549,34.493C182.48,385.984,217.327,400.461,257.311,400.263z M175.637,196.215
		c-16.991-0.038-30.948,13.925-30.747,30.761c0.201,16.779,13.939,30.45,30.637,30.487c16.835,0.036,31.003-14.171,30.795-30.88
		C206.112,209.806,192.418,196.254,175.637,196.215z M339.54,196.217c-16.954-0.083-31.005,13.884-30.872,30.689
		c0.131,16.665,13.971,30.473,30.629,30.557c16.858,0.085,30.947-14.009,30.798-30.81
		C369.945,209.802,356.39,196.299,339.54,196.217z"/>
	<path display="inline" fill-rule="evenodd" clip-rule="evenodd" d="M256.311,399.263c-39.983,0.198-74.831-14.278-105.261-39.273
		c-12.522-10.285-23.515-22.534-34.549-34.493c-6.076-6.584-3.166-15.479,4.789-17.28c5.278-1.196,8.766,1.779,11.848,5.578
		c13.43,16.55,28.973,30.744,47.042,42.125c27.761,17.484,57.775,26.185,90.699,22.543c29.467-3.259,55.403-15.405,77.972-34.162
		c11.326-9.414,21.29-20.521,31.474-31.238c6.113-6.434,13.772-6.827,17.944-0.078c2.439,3.948,2.054,8.876-2.567,13.642
		c-11.449,11.809-22.532,24.174-35.208,34.549c-25.328,20.731-54.4,33.804-87.229,37.663c-1.323,0.155-2.647,0.391-3.973,0.406
		C264.965,399.295,260.638,399.263,256.311,399.263z"/>
	<path display="inline" fill-rule="evenodd" clip-rule="evenodd" d="M174.637,195.215c16.782,0.039,30.476,13.591,30.685,30.368
		c0.208,16.709-13.96,30.916-30.795,30.88c-16.698-0.037-30.437-13.708-30.637-30.487
		C143.689,209.14,157.646,195.177,174.637,195.215z"/>
	<path display="inline" fill-rule="evenodd" clip-rule="evenodd" d="M338.54,195.217c16.85,0.082,30.405,13.585,30.555,30.437
		c0.149,16.801-13.939,30.895-30.798,30.81c-16.658-0.084-30.498-13.892-30.629-30.557
		C307.535,209.101,321.586,195.134,338.54,195.217z"/>
</g>
<g display="none">
	<path fill-rule="evenodd" clip-rule="evenodd" fill="#FFFFFF" d="M0.5,0.5c171,0,342,0,513,0c0,171,0,342,0,513c-171,0-342,0-513,0
		C0.5,342.5,0.5,171.5,0.5,0.5z M502.322,257.628c0.21-135.368-110.047-245.74-245.695-245.95
		C121.258,11.469,10.888,121.725,10.678,257.372c-0.209,135.369,110.046,245.74,245.694,245.95
		C391.741,503.531,502.111,393.276,502.322,257.628z"/>
	<path display="inline" fill-rule="evenodd" clip-rule="evenodd" d="M501.322,256.628
		c-0.211,135.648-110.581,245.903-245.95,245.694C119.724,502.112,9.469,391.741,9.678,256.372
		c0.21-135.647,110.58-245.903,245.949-245.694C391.275,10.888,501.532,121.26,501.322,256.628z M255.397,31.318
		C130.903,31.45,30.508,131.824,30.318,256.353c-0.19,124.468,100.784,225.462,225.286,225.329
		c124.494-0.133,224.889-100.507,225.078-225.034C480.871,132.179,379.898,31.186,255.397,31.318z"/>
	<path fill-rule="evenodd" clip-rule="evenodd" fill="#FFFFFF" d="M256.397,32.318c124.501-0.133,225.474,100.86,225.284,225.329
		c-0.189,124.527-100.584,224.901-225.078,225.034C132.102,482.814,31.127,381.82,31.318,257.353
		C31.508,132.824,131.903,32.45,256.397,32.318z M369.718,359.249c-1.847-2.779-3.148-6.249-5.64-8.211
		c-8.481-6.683-16.962-13.536-26.201-19.056c-27.812-16.614-57.905-24.918-90.538-22.89c-31.47,1.955-59.581,13.139-85.088,31.198
		c-5.792,4.101-11.174,8.925-16.123,14.021c-3.42,3.521-2.644,8.196,0.272,11.892c2.834,3.592,6.965,4.729,11.208,2.855
		c2.666-1.176,5.03-3.166,7.32-5.046c23.915-19.636,50.948-32.188,81.998-34.361c38.676-2.709,72.197,10.554,101.774,34.894
		c2.038,1.678,4.148,3.455,6.527,4.495C361.816,371.922,368.768,367.09,369.718,359.249z M174.582,196.216
		c-16.84-0.002-30.384,13.385-30.67,30.316c-0.284,16.741,13.789,30.933,30.671,30.931c16.641-0.002,30.488-13.709,30.747-30.437
		C205.588,210.273,191.562,196.218,174.582,196.216z M338.646,196.217c-16.936-0.152-30.992,13.726-30.976,30.582
		c0.017,16.616,13.843,30.508,30.519,30.665c16.836,0.158,30.945-13.856,30.91-30.703
		C369.065,209.978,355.497,196.369,338.646,196.217z"/>
	<path display="inline" fill-rule="evenodd" clip-rule="evenodd" d="M368.718,358.249c-0.95,7.841-7.901,12.673-14.49,9.791
		c-2.379-1.04-4.489-2.817-6.527-4.495c-29.577-24.34-63.099-37.603-101.774-34.894c-31.049,2.174-58.083,14.726-81.998,34.361
		c-2.29,1.88-4.654,3.87-7.32,5.046c-4.243,1.873-8.373,0.736-11.208-2.855c-2.916-3.695-3.692-8.37-0.272-11.892
		c4.948-5.096,10.331-9.92,16.123-14.021c25.507-18.06,53.618-29.243,85.088-31.198c32.632-2.028,62.726,6.275,90.538,22.89
		c9.239,5.52,17.72,12.373,26.201,19.056C365.569,352,366.871,355.47,368.718,358.249z"/>
	<path display="inline" fill-rule="evenodd" clip-rule="evenodd" d="M173.582,195.216c16.98,0.002,31.007,14.058,30.748,30.811
		c-0.259,16.728-14.106,30.435-30.747,30.437c-16.882,0.002-30.955-14.189-30.671-30.931
		C143.198,208.601,156.741,195.214,173.582,195.216z"/>
	<path display="inline" fill-rule="evenodd" clip-rule="evenodd" d="M337.646,195.217c16.851,0.152,30.419,13.761,30.453,30.544
		c0.035,16.847-14.074,30.861-30.91,30.703c-16.676-0.157-30.502-14.049-30.519-30.665
		C306.654,208.942,320.711,195.064,337.646,195.217z"/>
</g>
</svg>
