<?xml version="1.0" encoding="utf-8"?>
<!-- Generator: Adobe Illustrator 17.0.0, SVG Export Plug-In . SVG Version: 6.00 Build 0)  -->
<!DOCTYPE svg PUBLIC "-//W3C//DTD SVG 1.1//EN" "http://www.w3.org/Graphics/SVG/1.1/DTD/svg11.dtd">
<svg version="1.1" id="Layer_1" xmlns="http://www.w3.org/2000/svg" xmlns:xlink="http://www.w3.org/1999/xlink" x="0px" y="0px"
	 width="512px" height="512px" viewBox="0 0 512 512" enable-background="new 0 0 512 512" xml:space="preserve">
<g>
	<line fill="none" stroke="#B35047" x1="32" y1="0" x2="32" y2="512"/>
	<line fill="none" stroke="#B35047" x1="64" y1="0" x2="64" y2="512"/>
	<line fill="none" stroke="#B35047" x1="96" y1="0" x2="96" y2="512"/>
	<line fill="none" stroke="#B35047" x1="128" y1="0" x2="128" y2="512"/>
	<line fill="none" stroke="#B35047" x1="160" y1="0" x2="160" y2="512"/>
	<line fill="none" stroke="#B35047" x1="192" y1="0" x2="192" y2="512"/>
	<line fill="none" stroke="#B35047" x1="224" y1="0" x2="224" y2="512"/>
	<line fill="none" stroke="#B35047" x1="256" y1="0" x2="256" y2="512"/>
	<line fill="none" stroke="#B35047" x1="288" y1="0" x2="288" y2="512"/>
	<line fill="none" stroke="#B35047" x1="320" y1="0" x2="320" y2="512"/>
	<line fill="none" stroke="#B35047" x1="352" y1="0" x2="352" y2="512"/>
	<line fill="none" stroke="#B35047" x1="384" y1="0" x2="384" y2="512"/>
	<line fill="none" stroke="#B35047" x1="416" y1="0" x2="416" y2="512"/>
	<line fill="none" stroke="#B35047" x1="448" y1="0" x2="448" y2="512"/>
	<line fill="none" stroke="#B35047" x1="480" y1="0" x2="480" y2="512"/>
	<line fill="none" stroke="#B35047" x1="0" y1="32" x2="512" y2="32"/>
	<line fill="none" stroke="#B35047" x1="0" y1="64" x2="512" y2="64"/>
	<line fill="none" stroke="#B35047" x1="0" y1="96" x2="512" y2="96"/>
	<line fill="none" stroke="#B35047" x1="0" y1="128" x2="512" y2="128"/>
	<line fill="none" stroke="#B35047" x1="0" y1="160" x2="512" y2="160"/>
	<line fill="none" stroke="#B35047" x1="0" y1="192" x2="512" y2="192"/>
	<line fill="none" stroke="#B35047" x1="0" y1="224" x2="512" y2="224"/>
	<line fill="none" stroke="#B35047" x1="0" y1="256" x2="512" y2="256"/>
	<line fill="none" stroke="#B35047" x1="0" y1="288" x2="512" y2="288"/>
	<line fill="none" stroke="#B35047" x1="0" y1="320" x2="512" y2="320"/>
	<line fill="none" stroke="#B35047" x1="0" y1="352" x2="512" y2="352"/>
	<line fill="none" stroke="#B35047" x1="0" y1="384" x2="512" y2="384"/>
	<line fill="none" stroke="#B35047" x1="0" y1="416" x2="512" y2="416"/>
	<line fill="none" stroke="#B35047" x1="0" y1="448" x2="512" y2="448"/>
	<line fill="none" stroke="#B35047" x1="0" y1="480" x2="512" y2="480"/>
	<rect x="0" fill="none" stroke="#B35047" width="512" height="512"/>
</g>
<g>
	<path display="none" fill="#FFFFFF" d="M0.5,0.5c171,0,342,0,513,0c0,171,0,342,0,513c-171,0-342,0-513,0
		C0.5,342.5,0.5,171.5,0.5,0.5z M32.215,111.381c0.062,0.004,0.124,0.008,0.186,0.012c0.355,6.151,0.726,12.3,1.063,18.452
		c1.808,32.988,6.378,65.586,14.044,97.724c16.185,67.851,44.824,129.753,89.06,183.975c32.748,40.141,70.935,73.957,117.095,98.225
		c3.093,1.626,5.245,1.423,8.14-0.229c45.186-25.783,82.905-60.208,115.408-100.456c50.86-62.98,81.947-134.979,96.483-214.376
		c6.378-34.837,8.895-69.991,9.188-105.364c0.036-4.302-1.082-5.997-5.294-6.919c-36.308-7.95-72.012-18.061-105.854-33.595
		c-25.235-11.583-49.886-24.438-74.813-36.694c-20.264-9.963-41.298-14.88-63.128-6.217c-14.645,5.812-28.873,12.807-42.895,20.033
		c-29.022,14.955-58.322,29.305-89.564,38.98c-21.266,6.586-42.931,11.891-64.46,17.611c-3.304,0.878-5.013,1.865-4.785,5.857
		C32.524,96.037,32.215,103.718,32.215,111.381z"/>
	<path d="M32.468,112.829c0-7.587,0.306-15.19-0.125-22.752c-0.225-3.953,1.467-4.93,4.737-5.799
		c21.313-5.663,42.762-10.915,63.816-17.435c30.929-9.579,59.936-23.785,88.668-38.591c13.882-7.154,27.967-14.078,42.466-19.832
		c21.612-8.577,42.435-3.709,62.497,6.155c24.678,12.133,49.082,24.86,74.064,36.327c33.504,15.379,68.85,25.388,104.796,33.259
		c4.17,0.913,5.276,2.591,5.241,6.85c-0.29,35.02-2.782,69.822-9.096,104.311c-14.391,78.603-45.166,149.882-95.518,212.232
		c-32.178,39.846-69.519,73.926-114.254,99.452c-2.866,1.635-4.996,1.837-8.058,0.227c-45.699-24.025-83.503-57.504-115.924-97.243
		c-43.793-53.68-72.146-114.963-88.169-182.136c-7.589-31.816-12.114-64.089-13.904-96.747c-0.334-6.09-0.701-12.178-1.053-18.267
		C32.59,112.836,32.529,112.832,32.468,112.829z M52.961,102.082c0,0.962-0.07,1.945,0.01,2.915
		c2.13,25.617,3.097,51.397,6.649,76.815c9.104,65.153,30.855,125.918,66.947,181.187c31.846,48.767,72.02,89.097,121.946,119.519
		c5.171,3.151,8.692,2.885,13.601-0.307c24.173-15.72,46.222-33.954,66.557-54.354c43.742-43.882,76.034-95.105,97.992-152.905
		c18.237-48.005,27.756-97.86,30.611-149.035c0.448-8.025,0.063-16.097,0.063-24.541c-1.514-0.386-3.392-0.889-5.281-1.345
		c-32.096-7.74-63.562-17.516-93.536-31.405c-24.354-11.285-48.349-23.376-72.221-35.658c-20.669-10.633-40.911-10.963-61.442-0.004
		c-9.881,5.274-19.999,10.103-29.937,15.273c-28.978,15.075-58.556,28.794-89.761,38.631
		C88.066,92.257,70.745,96.926,52.961,102.082z"/>
	<path display="none" fill="#FFFFFF" d="M52.916,100.526c17.963-5.209,35.459-9.924,52.726-15.367
		c31.521-9.936,61.397-23.794,90.668-39.021c10.038-5.222,20.258-10.1,30.239-15.428c20.738-11.07,41.185-10.737,62.063,0.004
		c24.114,12.405,48.351,24.619,72.951,36.018c30.276,14.029,62.06,23.904,94.481,31.722c1.909,0.46,3.806,0.968,5.335,1.359
		c0,8.53,0.389,16.683-0.063,24.789c-2.884,51.693-12.499,102.051-30.92,150.541c-22.18,58.384-54.799,110.124-98.982,154.45
		c-20.541,20.607-42.813,39.025-67.229,54.903c-4.958,3.225-8.516,3.492-13.738,0.31c-50.431-30.73-91.01-71.467-123.178-120.727
		C90.81,308.252,68.839,246.873,59.643,181.062c-3.588-25.675-4.565-51.716-6.717-77.591
		C52.845,102.49,52.916,101.498,52.916,100.526z M262.811,246.417c6.181,6.224,12.131,12.243,18.112,18.231
		c13.066,13.083,26.121,26.177,39.236,39.211c5.625,5.59,11.907,6.134,16.213,1.598c4.242-4.469,3.626-10.493-1.632-15.924
		c-0.695-0.718-1.412-1.415-2.119-2.121c-17.194-17.2-34.391-34.398-51.577-51.605c-1.248-1.249-2.423-2.572-4.32-4.593
		c1.742-1.342,3.337-2.319,4.626-3.603c17.347-17.283,34.667-34.592,51.941-51.948c1.741-1.75,3.407-3.69,4.629-5.817
		c2.578-4.489,1.133-9.772-3.149-12.669c-4.729-3.198-9.532-2.348-14.656,2.764c-17.807,17.765-35.578,35.566-53.371,53.345
		c-1.267,1.266-2.592,2.472-4.117,3.921c-1.515-1.447-2.843-2.665-4.117-3.938c-17.672-17.665-35.346-35.327-52.994-53.016
		c-3.603-3.611-7.603-6.186-12.871-4.272c-7.681,2.79-8.688,11.677-2.084,18.306c17.869,17.938,35.8,35.816,53.698,53.725
		c1.24,1.241,2.418,2.545,4.279,4.511c-1.867,1.465-3.444,2.465-4.735,3.751c-17.462,17.403-34.901,34.83-52.292,52.304
		c-1.622,1.629-3.152,3.473-4.246,5.479c-2.455,4.499-0.915,9.857,3.343,12.662c4.741,3.123,9.415,2.233,14.608-2.949
		c17.806-17.766,35.578-35.567,53.37-53.346C259.862,249.151,261.2,247.942,262.811,246.417z"/>
	<path d="M260.757,246.514c-1.594,1.51-2.92,2.707-4.181,3.967c-17.615,17.602-35.209,35.224-52.837,52.812
		c-5.141,5.13-9.768,6.011-14.462,2.919c-4.215-2.777-5.739-8.081-3.309-12.535c1.083-1.985,2.598-3.811,4.203-5.424
		c17.217-17.3,34.481-34.552,51.769-51.781c1.278-1.273,2.839-2.263,4.687-3.713c-1.843-1.947-3.008-3.237-4.236-4.466
		c-17.719-17.73-35.471-35.429-53.161-53.187c-6.538-6.563-5.541-15.361,2.064-18.123c5.215-1.895,9.176,0.655,12.742,4.23
		c17.471,17.512,34.969,34.997,52.464,52.486c1.261,1.26,2.576,2.466,4.076,3.899c1.509-1.434,2.822-2.629,4.076-3.882
		c17.614-17.602,35.208-35.224,52.837-52.812c5.073-5.061,9.828-5.903,14.509-2.737c4.24,2.867,5.67,8.098,3.118,12.542
		c-1.209,2.106-2.859,4.026-4.583,5.758c-17.101,17.183-34.248,34.319-51.421,51.429c-1.276,1.271-2.856,2.239-4.58,3.567
		c1.878,2.001,3.041,3.31,4.277,4.547c17.015,17.036,34.039,34.061,51.061,51.089c0.7,0.7,1.41,1.389,2.098,2.1
		c5.206,5.377,5.815,11.34,1.615,15.765c-4.263,4.491-10.482,3.952-16.051-1.582c-12.984-12.903-25.908-25.867-38.844-38.819
		C272.767,258.634,266.877,252.676,260.757,246.514z"/>
</g>
<g display="none">
	<path fill="#FFFFFF" d="M513.5,513.479c-170.945,0-341.889,0-512.917,0c0-170.882,0-341.785,0-512.834
		c170.917,0,341.917,0,512.917,0C513.5,171.542,513.5,342.5,513.5,513.479z M32.21,103.462c0.441,9.249,0.806,17.733,1.257,26.214
		c1.765,33.16,6.378,65.925,14.107,98.217c16.236,67.834,44.917,129.727,89.198,183.912c32.671,39.979,70.743,73.689,116.75,97.873
		c2.961,1.556,5.123,1.682,8.143-0.04c45.199-25.771,82.89-60.214,115.444-100.42c50.51-62.383,81.44-133.79,96.264-212.37
		c6.686-35.44,9.303-71.284,9.509-107.337c0.026-4.536-1.124-6.19-5.616-7.169c-35.989-7.846-71.377-17.896-104.936-33.216
		c-25.56-11.668-50.445-24.808-75.706-37.138c-19.756-9.643-40.375-14.828-61.695-6.348c-16.333,6.497-32.184,14.327-47.867,22.315
		c-27.905,14.214-56.082,27.827-86.041,37.093c-21.109,6.529-42.617,11.778-63.98,17.471c-3.167,0.844-5.346,1.54-4.952,5.716
		C32.588,93.518,32.21,98.884,32.21,103.462z"/>
	<path display="inline" d="M32.463,104.988c0-4.531,0.374-9.844-0.119-15.075c-0.39-4.134,1.767-4.823,4.902-5.659
		c21.15-5.637,42.442-10.833,63.341-17.297c29.66-9.174,57.554-22.65,85.18-36.722c15.526-7.908,31.218-15.66,47.388-22.092
		c21.106-8.395,41.519-3.262,61.078,6.285c25.008,12.207,49.645,25.216,74.949,36.767c33.224,15.166,68.258,25.116,103.887,32.883
		c4.447,0.97,5.586,2.607,5.56,7.097c-0.205,35.693-2.795,71.178-9.414,106.263c-14.676,77.794-45.296,148.487-95.301,210.246
		c-32.228,39.804-69.543,73.902-114.29,99.416c-2.99,1.705-5.131,1.581-8.062,0.04c-45.547-23.942-83.238-57.315-115.582-96.894
		C92.141,356.604,63.747,295.33,47.673,228.175c-7.652-31.969-12.219-64.407-13.966-97.235
		C33.261,122.544,32.9,114.144,32.463,104.988z M458.568,101.731c-2.579-0.711-4.145-1.199-5.737-1.574
		c-32.631-7.682-64.525-17.726-94.951-31.813c-24.207-11.208-47.894-23.54-71.814-35.371c-16.234-8.029-32.924-12.06-50.419-4.416
		c-11.158,4.875-22.267,9.961-32.991,15.712c-46.247,24.8-94.4,44.567-145.722,56.127c-3.133,0.706-4.13,1.991-4.037,5.305
		c0.768,27.398,2.937,54.639,7.349,81.723c11.192,68.706,35.151,132.303,75.612,189.243c30.56,43.006,67.951,78.824,113.264,106.199
		c4.614,2.788,7.832,2.642,12.32-0.25c24.381-15.712,46.575-34.032,67.019-54.561c49.09-49.292,83.671-107.379,105.285-173.347
		c10.972-33.488,18.026-67.822,21.443-102.86C456.804,135.301,457.458,118.66,458.568,101.731z"/>
	<path fill="#FFFFFF" d="M462.62,100.172c-1.122,17.1-1.782,33.909-3.412,50.624c-3.451,35.392-10.577,70.073-21.66,103.899
		c-21.833,66.634-56.763,125.308-106.349,175.098c-20.651,20.736-43.068,39.241-67.696,55.112
		c-4.533,2.921-7.784,3.069-12.445,0.253c-45.771-27.652-83.54-63.832-114.408-107.272C95.78,320.369,71.58,256.13,60.275,186.729
		c-4.457-27.357-6.647-54.874-7.423-82.548c-0.094-3.347,0.913-4.645,4.078-5.358C108.77,87.147,157.409,67.18,204.123,42.13
		c10.832-5.809,22.054-10.947,33.324-15.871c17.671-7.72,34.53-3.649,50.928,4.461c24.161,11.95,48.087,24.407,72.539,35.728
		c30.734,14.23,62.95,24.375,95.91,32.134C458.433,98.961,460.015,99.453,462.62,100.172z M240.591,217.476
		c0,27.977-0.005,55.955,0.004,83.932c0.002,6.831,0.355,7.186,6.974,7.203c6.828,0.018,13.656,0.008,20.483,0.003
		c7.659-0.006,7.788-0.123,7.789-7.821c0.005-48.794,0.003-97.588,0.003-146.382c0-7.494-0.105-14.99,0.033-22.481
		c0.075-4.08-1.628-5.639-5.689-5.536c-7.489,0.191-14.987,0.043-22.48,0.056c-6.646,0.012-7.109,0.459-7.112,7.092
		C240.584,161.521,240.59,189.499,240.591,217.476z M275.832,364.016c0-4.816-0.054-9.634,0.018-14.449
		c0.052-3.495-1.378-5.168-5.045-5.115c-8.303,0.119-16.609,0.123-24.912-0.002c-3.883-0.058-5.355,1.709-5.324,5.427
		c0.078,9.466,0.059,18.934,0.011,28.4c-0.018,3.517,1.546,5.19,5.111,5.166c8.304-0.056,16.609-0.09,24.912,0.017
		c3.896,0.05,5.342-1.798,5.258-5.493C275.756,373.318,275.836,368.666,275.832,364.016z"/>
	<path display="inline" d="M238.759,217.863c0-27.698-0.006-55.395,0.005-83.093c0.003-6.568,0.461-7.01,7.041-7.021
		c7.419-0.013,14.841,0.134,22.256-0.056c4.021-0.103,5.707,1.441,5.632,5.48c-0.137,7.416-0.033,14.837-0.033,22.256
		c0.001,48.306,0.003,96.612-0.003,144.918c-0.001,7.621-0.128,7.736-7.711,7.742c-6.76,0.005-13.519,0.015-20.279-0.003
		c-6.553-0.017-6.902-0.369-6.905-7.131C238.754,273.258,238.759,245.56,238.759,217.863z"/>
	<path display="inline" d="M273.65,362.937c0.002,4.604-0.077,9.21,0.027,13.811c0.083,3.659-1.349,5.488-5.206,5.438
		c-8.22-0.106-16.442-0.072-24.663-0.016c-3.53,0.024-5.078-1.633-5.06-5.114c0.048-9.372,0.066-18.745-0.011-28.116
		c-0.03-3.681,1.427-5.431,5.271-5.373c8.219,0.124,16.443,0.12,24.663,0.002c3.631-0.052,5.046,1.604,4.995,5.064
		C273.595,353.399,273.648,358.168,273.65,362.937z"/>
</g>
<g display="none">
	<path fill="#FFFFFF" d="M513.5,513.48c-170.949,0.007-341.899,0.007-512.924,0.007c0-170.894,0-341.802,0-512.848
		c170.924,0,341.924,0,512.924,0C513.5,171.557,513.5,342.515,513.5,513.48z M482.756,103.517c0-4.664-0.368-9.366,0.104-13.983
		c0.466-4.565-1.069-6.209-5.58-7.192c-35.99-7.841-71.374-17.9-104.938-33.21c-25.412-11.591-50.037-24.9-75.345-36.734
		c-9.392-4.392-19.528-7.741-29.682-9.836c-17.803-3.673-34.254,2.255-50.002,9.978c-22.104,10.839-43.86,22.41-66.142,32.862
		C114.716,62.503,76.335,73.975,37.053,82.5c-3.727,0.809-5.141,2.158-4.935,6.216c0.69,13.637,0.709,27.308,1.386,40.946
		c1.646,33.166,6.34,65.927,14.068,98.219c16.234,67.834,44.921,129.721,89.189,183.916c32.556,39.857,70.526,73.431,116.292,97.671
		c3.282,1.738,5.673,1.875,9.05-0.042c31.394-17.824,58.949-40.485,84.361-65.953c36.116-36.196,64.912-77.548,87.014-123.564
		C466.315,251.541,481.063,179.023,482.756,103.517z"/>
	<path display="inline" d="M478.504,105.043c-1.677,74.751-16.276,146.544-48.786,214.227
		c-21.881,45.555-50.389,86.494-86.144,122.328c-25.158,25.213-52.437,47.648-83.517,65.293c-3.344,1.899-5.711,1.763-8.96,0.042
		c-45.308-23.997-82.898-57.236-115.129-96.694c-43.825-53.653-72.226-114.921-88.297-182.077
		c-7.651-31.969-12.297-64.403-13.927-97.237c-0.67-13.501-0.689-27.036-1.372-40.536c-0.203-4.018,1.196-5.353,4.886-6.154
		c38.889-8.44,76.887-19.797,112.977-36.727c22.06-10.348,43.597-21.803,65.481-32.534c15.591-7.645,31.877-13.514,49.502-9.878
		c10.052,2.074,20.087,5.39,29.385,9.738c25.054,11.716,49.433,24.891,74.591,36.367c33.229,15.157,68.259,25.115,103.889,32.877
		c4.466,0.973,5.986,2.601,5.524,7.12C478.14,95.77,478.504,100.425,478.504,105.043z M52.989,102.466
		c0,0.737-0.094,2.043,0.014,3.333c2.126,25.452,3.101,51.066,6.649,76.319c9.178,65.319,31.052,126.231,67.333,181.565
		c31.929,48.697,72.189,88.985,122.228,119.232c4.396,2.657,7.548,2.704,11.899-0.09c24.687-15.853,47.103-34.421,67.782-55.183
		c38.639-38.795,68.44-83.54,90.089-133.746c26.011-60.32,37.794-123.612,39.035-189.062c0.021-1.116-0.199-2.236-0.311-3.393
		c-1.959-0.497-3.707-0.961-5.464-1.382c-32.11-7.692-63.571-17.487-93.551-31.356c-24.51-11.338-48.642-23.526-72.674-35.857
		c-20.519-10.529-40.621-10.796-60.987,0.043c-9.306,4.953-18.836,9.483-28.193,14.341c-25.901,13.447-52.092,26.311-79.828,35.539
		C96.091,89.729,74.867,95.773,52.989,102.466z"/>
	<path fill="#FFFFFF" d="M52.943,100.914c22.099-6.76,43.537-12.865,64.668-19.895c28.017-9.321,54.472-22.315,80.634-35.898
		c9.452-4.907,19.078-9.483,28.478-14.486c20.571-10.949,40.877-10.679,61.603-0.044c24.275,12.456,48.651,24.767,73.408,36.219
		c30.283,14.009,62.061,23.903,94.496,31.672c1.775,0.425,3.54,0.894,5.519,1.396c0.113,1.169,0.336,2.301,0.314,3.428
		c-1.254,66.111-13.156,130.042-39.429,190.972c-21.868,50.713-51.97,95.91-90.999,135.097
		c-20.888,20.972-43.531,39.727-68.467,55.741c-4.395,2.822-7.578,2.775-12.019,0.091c-50.545-30.553-91.211-71.248-123.463-120.437
		c-36.647-55.893-58.743-117.42-68.013-183.399c-3.584-25.508-4.569-51.382-6.716-77.09
		C52.848,102.978,52.943,101.658,52.943,100.914z M370.188,236.763c-0.571-62.603-51.185-112.765-113.32-112.305
		c-61.946,0.458-112.13,50.87-112.063,112.57c0.068,62.377,51.432,113.275,113.578,112.547
		C320.47,348.847,370.747,298.117,370.188,236.763z"/>
	<path display="inline" d="M367.061,236.956c0.554,60.741-49.221,110.964-110.687,111.684
		c-61.524,0.721-112.375-49.668-112.442-111.422c-0.066-61.084,49.616-110.991,110.943-111.445
		C316.388,125.319,366.496,174.979,367.061,236.956z M194.8,304.835c7.565-3.206,15.188-6.28,22.682-9.643
		c19.761-8.87,17.509-11.346,17.767-28.524c0.022-1.466-0.96-2.991-1.632-4.415c-2.363-5.015-4.734-10.028-7.231-14.977
		c-0.893-1.769-1.847-3.711-3.303-4.953c-4.195-3.579-6.078-12.215-3.898-17.283c0.946-2.199,1.224-4.879,1.106-7.306
		c-0.42-8.674-1.917-17.366-1.559-25.991c0.497-11.997,6.54-21.369,18.112-25.367c12.434-4.296,25.286-7.025,36.869,2.919
		c0.822,0.706,1.979,1.146,3.053,1.414c9.884,2.467,14.711,9.165,16.341,18.862c1.683,10.015-0.066,19.669-2.335,29.343
		c-0.372,1.587-0.467,3.715,0.297,5.012c3.444,5.849,2.386,12.028-1.516,16.089c-3.706,3.857-4.899,8.132-6.575,12.595
		c-0.806,2.148-1.502,4.632-3.047,6.152c-4.607,4.53-3.537,10.104-3.969,15.62c-0.688,8.778,3.642,14.115,10.888,17.531
		c9.663,4.555,19.514,8.711,29.227,13.013c35.56-30.199,42.979-89.151,7.107-128.635c-36.173-39.816-97.97-40.274-134.09-1.525
		C151.922,214.646,159.02,274.433,194.8,304.835z"/>
	<path fill="#FFFFFF" d="M196.187,305.327c-36.141-30.71-43.311-91.1-5.761-131.382c36.485-39.14,98.906-38.677,135.445,1.541
		c36.234,39.883,28.74,99.431-7.179,129.934c-9.811-4.346-19.762-8.544-29.523-13.145c-7.32-3.451-11.693-8.842-10.998-17.708
		c0.437-5.572-0.644-11.202,4.009-15.778c1.561-1.535,2.263-4.044,3.078-6.214c1.693-4.508,2.898-8.826,6.641-12.722
		c3.941-4.102,5.01-10.343,1.531-16.252c-0.771-1.31-0.676-3.459-0.3-5.063c2.292-9.772,4.059-19.523,2.359-29.639
		c-1.646-9.796-6.522-16.561-16.506-19.053c-1.086-0.271-2.254-0.716-3.084-1.429c-11.7-10.044-24.681-7.288-37.241-2.948
		c-11.689,4.039-17.793,13.505-18.295,25.623c-0.361,8.712,1.151,17.492,1.575,26.253c0.119,2.452-0.162,5.159-1.118,7.38
		c-2.202,5.119-0.3,13.842,3.937,17.458c1.471,1.255,2.435,3.216,3.337,5.003c2.522,4.999,4.917,10.062,7.304,15.128
		c0.678,1.439,1.67,2.979,1.648,4.459c-0.261,17.351,2.014,19.852-17.947,28.812C211.529,298.984,203.828,302.089,196.187,305.327z"
		/>
</g>
<g display="none">
	<path fill="#FFFFFF" d="M513.35,513.5c-170.883,0-341.841,0-512.825,0c0-170.942,0-341.883,0-512.912
		c170.875,0,341.775,0,512.825,0C513.35,171.5,513.35,342.5,513.35,513.5z M482.761,104.308c0-4.998-0.369-10.031,0.11-14.982
		c0.424-4.383-1.134-5.991-5.311-6.902c-39.104-8.536-77.337-19.933-113.634-36.983c-22.578-10.606-44.754-22.075-67.011-33.354
		C272.571-0.25,247.987-2.236,223.003,9.888c-12.12,5.882-23.976,12.318-36.18,18.014c-22.292,10.405-44.483,21.104-67.215,30.469
		C92.952,69.353,64.974,76.325,36.865,82.614c-2.591,0.58-4.826,0.885-4.783,4.806c0.334,30.84,1.9,61.572,6.324,92.134
		c9.257,63.938,28.781,124.351,61.936,180.023c35.046,58.846,81.002,107.12,139.779,142.761
		c17.387,10.543,17.549,10.586,34.575-0.474c70.084-45.527,122.345-106.753,158.632-181.705
		C466.299,252.058,480.969,179.644,482.761,104.308z"/>
	<path display="inline" d="M478.508,105.825c-1.773,74.583-16.297,146.272-48.938,213.692
		c-35.924,74.202-87.663,134.816-157.046,179.888c-16.855,10.949-17.015,10.907-34.229,0.469
		c-58.19-35.285-103.686-83.076-138.382-141.334c-32.824-55.115-52.153-114.924-61.317-178.223
		c-4.38-30.257-5.931-60.681-6.261-91.213c-0.042-3.882,2.17-4.184,4.735-4.758c27.828-6.226,55.526-13.128,81.915-24
		c22.505-9.271,44.474-19.863,66.543-30.165c12.082-5.639,23.82-12.011,35.819-17.834c24.735-12.003,49.073-10.037,73.174,2.176
		c22.034,11.166,43.989,22.521,66.341,33.02c35.933,16.879,73.784,28.163,112.497,36.613c4.135,0.903,5.677,2.495,5.258,6.833
		C478.143,95.894,478.508,100.877,478.508,105.825z M52.981,101.945c0,1.089-0.093,2.387,0.014,3.669
		c2.123,25.452,3.101,51.066,6.637,76.321c9.147,65.324,31,126.237,67.259,181.59c31.91,48.713,72.144,89.017,122.168,119.29
		c4.57,2.766,7.789,2.782,12.31-0.167c65.917-43.004,115.151-100.593,149.518-171.065c28.654-58.758,42.818-121.245,46.425-186.286
		c0.436-7.856,0.059-15.758,0.059-23.885c-1.318-0.369-2.874-0.866-4.46-1.239c-33.124-7.771-65.45-18.07-96.323-32.372
		c-23.608-10.936-46.869-22.663-69.962-34.658c-20.999-10.908-41.501-11.153-62.315,0.109c-9.705,5.251-19.709,9.946-29.498,15.047
		c-30.879,16.092-62.51,30.425-95.882,40.583C83.841,93.474,68.586,97.527,52.981,101.945z"/>
	<path fill="#FFFFFF" d="M52.935,100.389c15.762-4.463,31.172-8.556,46.415-13.196c33.709-10.26,65.659-24.739,96.85-40.993
		c9.887-5.152,19.992-9.895,29.796-15.199c21.024-11.375,41.733-11.127,62.945-0.11c23.326,12.116,46.822,23.961,70.668,35.008
		c31.185,14.446,63.837,24.849,97.296,32.699c1.602,0.376,3.174,0.879,4.505,1.251c0,8.21,0.38,16.191-0.06,24.127
		c-3.643,65.698-17.95,128.816-46.894,188.167c-34.714,71.184-84.446,129.355-151.028,172.793
		c-4.567,2.979-7.818,2.963-12.434,0.169c-50.529-30.579-91.169-71.29-123.402-120.495c-36.626-55.912-58.699-117.44-67.939-183.424
		c-3.572-25.51-4.56-51.382-6.704-77.091C52.841,102.801,52.935,101.489,52.935,100.389z"/>
</g>
<g display="none">
	<path fill="#FFFFFF" d="M513.5,513.486c-170.952,0.005-341.905,0.005-512.928,0.005c0-170.902,0-341.812,0-512.857
		c170.928,0,341.928,0,512.928,0C513.5,171.565,513.5,342.524,513.5,513.486z M482.756,103.517c0-4.664-0.368-9.366,0.104-13.983
		c0.466-4.565-1.068-6.209-5.579-7.192c-35.99-7.841-71.374-17.899-104.938-33.209c-25.412-11.591-50.037-24.9-75.345-36.734
		c-9.392-4.392-19.528-7.741-29.682-9.836c-17.803-3.673-34.254,2.255-50.002,9.978c-22.104,10.839-43.86,22.41-66.142,32.862
		C114.717,62.503,76.335,73.975,37.053,82.5c-3.727,0.809-5.141,2.157-4.936,6.215c0.69,13.637,0.709,27.308,1.386,40.946
		c1.646,33.166,6.34,65.927,14.068,98.219c16.234,67.835,44.921,129.722,89.189,183.917c32.556,39.857,70.526,73.431,116.292,97.671
		c3.282,1.738,5.673,1.875,9.05-0.042c31.394-17.824,58.949-40.485,84.361-65.953c36.116-36.196,64.912-77.548,87.014-123.564
		C466.315,251.541,481.063,179.023,482.756,103.517z"/>
	<path display="inline" d="M478.504,105.043c-1.677,74.751-16.276,146.544-48.786,214.227
		c-21.881,45.555-50.389,86.494-86.144,122.328c-25.158,25.213-52.437,47.648-83.517,65.293c-3.344,1.899-5.711,1.763-8.96,0.042
		c-45.308-23.997-82.898-57.236-115.129-96.694c-43.826-53.653-72.226-114.921-88.297-182.077
		c-7.651-31.969-12.297-64.403-13.927-97.237c-0.67-13.501-0.689-27.035-1.372-40.536c-0.203-4.018,1.196-5.352,4.886-6.153
		c38.889-8.44,76.887-19.797,112.977-36.727c22.06-10.348,43.597-21.803,65.481-32.534c15.591-7.645,31.877-13.514,49.502-9.878
		c10.052,2.074,20.087,5.39,29.385,9.738c25.054,11.716,49.433,24.891,74.591,36.367c33.229,15.157,68.259,25.115,103.889,32.877
		c4.466,0.973,5.985,2.601,5.524,7.12C478.14,95.77,478.504,100.425,478.504,105.043z M458.568,101.724
		c-2.59-0.71-4.158-1.194-5.752-1.57c-32.63-7.684-64.524-17.728-94.95-31.816c-24.208-11.208-47.894-23.541-71.813-35.372
		c-16.235-8.03-32.926-12.05-50.419-4.405c-11.157,4.876-22.265,9.965-32.99,15.715c-46.248,24.798-94.401,44.565-145.724,56.121
		c-3.153,0.71-4.112,2.021-4.02,5.317c0.766,27.398,2.936,54.639,7.349,81.722c11.195,68.706,35.154,132.303,75.619,189.24
		c30.563,43.003,67.954,78.822,113.268,106.197c4.623,2.793,7.842,2.617,12.32-0.27c24.381-15.712,46.574-34.034,67.017-54.563
		c49.087-49.295,83.667-107.381,105.278-173.351c10.971-33.489,18.024-67.822,21.441-102.86
		C456.806,135.286,457.459,118.646,458.568,101.724z"/>
	<path fill="#FFFFFF" d="M462.619,100.165c-1.12,17.093-1.779,33.901-3.409,50.615c-3.452,35.392-10.576,70.072-21.657,103.899
		c-21.83,66.636-56.759,125.309-106.342,175.102c-20.649,20.737-43.066,39.244-67.694,55.114c-4.524,2.915-7.775,3.094-12.445,0.272
		c-45.771-27.652-83.541-63.832-114.412-107.27c-40.874-57.513-65.075-121.752-76.383-191.152
		c-4.458-27.357-6.65-54.873-7.423-82.548c-0.093-3.33,0.876-4.654,4.06-5.371c51.841-11.674,100.48-31.64,147.196-56.688
		c10.833-5.808,22.053-10.948,33.323-15.874c17.669-7.722,34.529-3.662,50.928,4.449c24.161,11.95,48.086,24.408,72.539,35.729
		c30.734,14.229,62.95,24.375,95.909,32.137C458.419,98.958,460.003,99.447,462.619,100.165z M370.196,236.974
		c-0.064-61.992-50.576-112.461-112.617-112.52c-62.023-0.059-112.326,50.063-112.768,112.362
		c-0.439,61.809,50.71,112.917,112.86,112.769C319.753,349.438,370.259,298.893,370.196,236.974z"/>
	<path display="inline" d="M367.069,237.165c0.063,61.3-49.938,111.339-111.399,111.485
		c-61.529,0.146-112.166-50.451-111.732-111.641c0.438-61.676,50.238-111.297,111.641-111.239
		C316.999,125.829,367.006,175.793,367.069,237.165z M183.636,292.797c42.638-42.596,85.129-85.044,127.588-127.461
		c-32.821-28.51-88.28-25.121-120.559,7.778C155.394,209.064,157.999,262.472,183.636,292.797z M199.444,308.696
		c32.946,28.053,91.597,28.438,126.283-13.372c33.214-40.036,22.026-92.498,0.906-113.816
		C284.231,223.91,241.827,266.314,199.444,308.696z"/>
	<path fill="#FFFFFF" d="M184.91,293.168c-25.896-30.631-28.527-84.579,7.101-120.892c32.604-33.231,88.624-36.655,121.776-7.857
		C270.899,207.265,227.979,250.142,184.91,293.168z"/>
	<path fill="#FFFFFF" d="M200.878,309.227c42.81-42.81,85.643-85.642,128.474-128.473c21.334,21.533,32.635,74.526-0.915,114.966
		C293.4,337.952,234.157,337.563,200.878,309.227z"/>
</g>
<g display="none">
	<path fill="#FFFFFF" d="M0.5,0.5c171,0,342,0,513,0c0,171,0,342,0,513c-171,0-342,0-513,0C0.5,342.5,0.5,171.5,0.5,0.5z
		 M482.755,103.584c0-4.664-0.373-9.367,0.106-13.982c0.47-4.535-0.971-6.257-5.514-7.246
		c-35.991-7.836-71.376-17.89-104.941-33.199c-25.413-11.59-50.041-24.891-75.349-36.725c-9.393-4.392-19.522-7.756-29.674-9.859
		c-17.8-3.689-34.227,2.275-50.015,9.926c-26.641,12.91-52.893,26.672-79.884,38.796c-32.112,14.425-66.01,23.703-100.363,31.2
		c-3.647,0.796-5.229,2.002-5.012,6.154c0.713,13.635,0.717,27.307,1.392,40.945c1.643,33.166,6.335,65.926,14.057,98.22
		c16.222,67.839,44.896,129.733,89.163,183.929c32.662,39.988,70.74,73.685,116.718,97.919c3.225,1.7,5.493,1.53,8.594-0.225
		c31.42-17.779,58.967-40.454,84.384-65.917c36.123-36.189,64.927-77.538,87.034-123.55
		C466.297,251.608,481.056,179.091,482.755,103.584z"/>
	<path display="inline" d="M478.502,105.109c-1.682,74.752-16.293,146.544-48.811,214.221
		c-21.886,45.551-50.402,86.487-86.163,122.314c-25.162,25.209-52.434,47.658-83.54,65.258c-3.07,1.737-5.315,1.906-8.508,0.223
		c-45.518-23.991-83.216-57.352-115.551-96.94c-43.824-53.654-72.212-114.929-88.271-182.089
		c-7.645-31.971-12.29-64.404-13.917-97.238c-0.669-13.502-0.673-27.037-1.379-40.536c-0.215-4.111,1.352-5.305,4.962-6.093
		c34.01-7.422,67.568-16.608,99.359-30.888c26.721-12.003,52.711-25.627,79.085-38.408c15.63-7.574,31.892-13.479,49.514-9.827
		c10.05,2.083,20.078,5.412,29.377,9.761c25.054,11.716,49.437,24.884,74.595,36.358c33.23,15.156,68.26,25.109,103.892,32.867
		c4.498,0.979,5.925,2.684,5.459,7.174C478.133,95.836,478.502,100.492,478.502,105.109z M52.959,102.375
		c0,0.568-0.07,1.546,0.01,2.511c2.126,25.617,3.092,51.397,6.637,76.816c9.087,65.156,30.824,125.928,66.9,181.205
		c32.116,49.209,72.676,89.853,123.207,120.284c4.089,2.463,7.037,2.439,11.05-0.136c24.691-15.838,47.157-34.35,67.829-55.124
		c48.95-49.19,83.496-107.13,105.059-172.923c15.727-47.987,23.167-97.362,24.412-147.774c0.11-4.459-0.908-6.197-5.379-7.225
		c-32.507-7.467-64.234-17.524-94.512-31.541c-24.208-11.207-48.058-23.222-71.771-35.452
		c-20.846-10.751-41.221-10.994-61.884,0.119c-9.719,5.227-19.701,9.962-29.499,15.045c-26.203,13.592-52.796,26.366-80.864,35.63
		C94.158,90.412,73.853,96.075,52.959,102.375z"/>
	<path fill="#FFFFFF" d="M52.913,100.822c21.105-6.364,41.615-12.084,61.813-18.75c28.352-9.358,55.214-22.261,81.681-35.99
		c9.897-5.134,19.98-9.917,29.797-15.197c20.871-11.225,41.452-10.98,62.509-0.12c23.953,12.353,48.044,24.489,72.496,35.81
		c30.583,14.159,62.631,24.316,95.466,31.859c4.517,1.038,5.545,2.793,5.434,7.298c-1.257,50.921-8.773,100.795-24.659,149.267
		c-21.78,66.458-56.676,124.983-106.12,174.67c-20.881,20.984-43.574,39.683-68.514,55.681c-4.054,2.6-7.031,2.624-11.161,0.137
		c-51.041-30.739-92.011-71.793-124.451-121.499C90.763,308.15,68.806,246.765,59.627,180.951
		c-3.581-25.677-4.557-51.717-6.704-77.592C52.842,102.383,52.913,101.396,52.913,100.822z M329.287,162.711
		c-1.006-0.262-1.206-0.258-1.322-0.354c-0.636-0.53-1.241-1.095-1.874-1.628c-29.982-25.269-64.005-33.241-101.213-20.707
		c-48.794,16.437-75.806,62.328-68.489,113.432c6.573,45.91,47.629,83.474,93.87,85.887c47.997,2.504,88.524-24.574,104.471-69.928
		c3.729-10.604,5.622-21.593,4.978-32.851c-0.323-5.633-4.586-9.649-9.486-9.852c-5.348-0.222-10.02,3.897-10.826,9.702
		c-0.343,2.471-0.383,4.982-0.59,7.473c-4.008,48.427-49.4,82.7-97.129,73.341c-44.624-8.75-73.632-52.926-64.05-97.541
		c9.505-44.254,54.07-72.517,98.209-62.234c12.757,2.972,24.214,8.533,35.245,18.099c-5.153,0-8.92-0.096-12.679,0.03
		c-3.138,0.105-6.303,0.256-9.392,0.773c-4.299,0.719-7.185,3.842-7.128,7.804c0.047,3.262,1.619,7.155,3.843,9.521
		c1.71,1.819,5.478,2.304,8.342,2.337c17.16,0.201,34.324,0.109,51.486,0.08c1.258-0.002,2.517-0.278,4.007-0.455
		c0-19.341,0.071-38.324-0.098-57.304c-0.019-2.169-0.942-4.642-2.217-6.423c-2.676-3.741-6.562-4.929-11.016-3.401
		c-4.679,1.605-6.8,5.232-6.898,9.92C329.166,146.381,329.287,154.337,329.287,162.711z"/>
	<path display="inline" d="M326.57,163.645c0-8.291-0.12-16.167,0.045-24.037c0.097-4.641,2.197-8.232,6.829-9.821
		c4.409-1.512,8.256-0.336,10.906,3.367c1.262,1.763,2.176,4.212,2.195,6.359c0.167,18.791,0.097,37.583,0.097,56.731
		c-1.476,0.175-2.721,0.448-3.967,0.45c-16.991,0.028-33.983,0.12-50.971-0.08c-2.836-0.033-6.566-0.513-8.259-2.314
		c-2.201-2.342-3.758-6.196-3.804-9.425c-0.057-3.923,2.8-7.015,7.056-7.726c3.058-0.511,6.191-0.661,9.298-0.765
		c3.722-0.125,7.451-0.029,12.552-0.029c-10.921-9.47-22.263-14.975-34.893-17.918c-43.698-10.181-87.817,17.8-97.227,61.612
		c-9.487,44.169,19.231,87.902,63.409,96.565c47.251,9.265,92.189-24.665,96.158-72.607c0.204-2.466,0.244-4.952,0.584-7.398
		c0.798-5.747,5.423-9.824,10.717-9.605c4.851,0.201,9.072,4.178,9.392,9.754c0.638,11.145-1.237,22.024-4.928,32.522
		c-15.788,44.9-55.909,71.708-103.426,69.229c-45.779-2.388-86.424-39.577-92.931-85.028
		c-7.244-50.593,19.497-96.025,67.804-112.298c36.835-12.409,70.518-4.517,100.2,20.499c0.626,0.528,1.226,1.088,1.855,1.612
		C325.376,163.39,325.574,163.386,326.57,163.645z"/>
</g>
<g display="none">
	<path fill="#FFFFFF" d="M513.5,513.464c-170.934,0-341.868,0-512.901,0c0-170.856,0-341.749,0-512.803
		c170.901,0,341.901,0,512.901,0C513.5,171.511,513.5,342.469,513.5,513.464z M482.748,103.886c0-4.664-0.389-9.371,0.108-13.982
		c0.507-4.702-0.938-6.549-5.704-7.586c-39.107-8.514-77.325-19.986-113.62-37.028c-22.58-10.602-44.699-22.187-66.991-33.398
		c-24.008-12.075-48.328-14.119-73.007-2.226c-12.286,5.92-24.291,12.429-36.646,18.197c-22.291,10.407-44.479,21.113-67.207,30.487
		C93.186,69.279,65.381,76.275,37.414,82.421c-4.207,0.925-5.511,2.59-5.284,6.924c0.708,13.469,0.7,26.975,1.38,40.445
		c1.665,32.995,6.327,65.588,13.988,97.727c16.214,68.025,44.953,130.062,89.35,184.375c32.677,39.975,70.762,73.667,116.772,97.848
		c3.052,1.604,5.205,1.488,8.143-0.168c31.602-17.808,59.266-40.604,84.794-66.193c35.993-36.079,64.714-77.293,86.77-123.135
		C466.206,251.906,481.029,179.397,482.748,103.886z"/>
	<path display="inline" d="M478.496,104.411c-1.702,74.755-16.377,146.539-48.927,214.195
		c-21.835,45.384-50.269,86.186-85.902,121.904c-25.273,25.333-52.661,47.901-83.946,65.531c-2.908,1.639-5.04,1.754-8.061,0.166
		c-45.55-23.939-83.255-57.294-115.605-96.869c-43.953-53.77-72.404-115.187-88.457-182.532
		c-7.584-31.818-12.199-64.085-13.848-96.75c-0.673-13.336-0.665-26.707-1.366-40.041c-0.226-4.291,1.066-5.94,5.231-6.855
		c27.687-6.084,55.215-13.01,81.446-23.83c22.501-9.281,44.467-19.879,66.535-30.182c12.23-5.71,24.116-12.154,36.279-18.015
		c24.432-11.774,48.509-9.75,72.277,2.204c22.069,11.099,43.967,22.569,66.321,33.064c35.932,16.871,73.767,28.228,112.483,36.657
		c4.719,1.027,6.148,2.856,5.647,7.51C478.111,95.134,478.496,99.793,478.496,104.411z M52.961,101.083
		c0,0.945-0.07,1.927,0.01,2.896c2.13,25.617,3.097,51.397,6.647,76.816c9.101,65.154,30.851,125.92,66.939,181.19
		c31.938,48.914,72.24,89.349,122.375,119.766c4.803,2.914,8.146,2.685,12.739-0.28c24.37-15.728,46.539-34.078,66.987-54.601
		c43.849-44.01,76.186-95.376,98.162-153.365c16.05-42.352,25.326-86.25,29.245-131.293c1.197-13.761,1.54-27.597,2.284-41.57
		c-2.503-0.643-4.381-1.151-6.273-1.607c-32.097-7.736-63.563-17.513-93.537-31.4c-24.354-11.284-48.349-23.376-72.221-35.657
		c-20.667-10.632-40.909-10.98-61.442-0.02c-9.881,5.274-20,10.101-29.938,15.272c-28.977,15.077-58.555,28.796-89.76,38.634
		C88.083,91.255,70.76,95.922,52.961,101.083z"/>
	<path fill="#FFFFFF" d="M52.915,100.526c17.978-5.213,35.477-9.928,52.745-15.373c31.52-9.938,61.396-23.796,90.666-39.025
		c10.038-5.223,20.259-10.099,30.24-15.426c20.741-11.071,41.187-10.719,62.063,0.02c24.114,12.405,48.351,24.62,72.951,36.018
		c30.277,14.028,62.061,23.904,94.482,31.718c1.911,0.46,3.808,0.974,6.336,1.623c-0.751,14.114-1.097,28.09-2.307,41.99
		c-3.959,45.498-13.329,89.839-29.541,132.619c-22.198,58.574-54.861,110.459-99.154,154.914
		c-20.655,20.731-43.048,39.266-67.664,55.153c-4.639,2.994-8.016,3.226-12.868,0.282c-50.641-30.724-91.35-71.567-123.611-120.975
		c-36.453-55.829-58.423-117.208-67.616-183.02c-3.586-25.676-4.563-51.716-6.714-77.592
		C52.844,102.472,52.915,101.481,52.915,100.526z M258.272,316.499c0,0.006,0,0.011,0,0.017c1.499,0,2.999,0.014,4.498-0.002
		c11.129-0.116,11.834,1.865,11.252-11.372c-0.562-12.784,3.301-23.637,11.036-33.778c10.393-13.627,20.503-27.523,29.865-41.871
		c15.125-23.179,16.968-47.559,2.252-71.51c-12.439-20.244-32.436-27.76-55.303-28.339c-36.633-0.928-63.199,20.467-70.057,55.93
		c-0.65,3.36-0.539,6.009,3.587,6.701c7.056,1.184,14.112,2.365,21.155,3.622c2.819,0.503,4.329-0.505,5.117-3.299
		c1.216-4.31,2.416-8.672,4.181-12.772c12.384-28.764,50.057-25.476,62.463-9.08c8.096,10.701,9.923,28.432,1.633,41.438
		c-10.811,16.961-22.898,33.105-34.301,49.693c-3.287,4.781-6.549,9.67-9.055,14.878c-5.567,11.572-4.05,24.105-3.848,36.372
		c0.019,1.146,2.529,3.03,4.05,3.219C250.57,316.814,254.44,316.499,258.272,316.499z M275.827,364.213
		c0-4.983-0.022-9.965,0.008-14.948c0.02-3.278-1.432-4.84-4.832-4.804c-8.469,0.09-16.941,0.075-25.411,0.004
		c-3.295-0.027-4.987,1.383-4.988,4.715c-0.001,9.799,0.005,19.598-0.008,29.397c-0.005,3.295,1.603,4.865,4.898,4.855
		c8.47-0.027,16.941-0.055,25.411,0.011c3.68,0.029,4.998-1.854,4.946-5.28C275.78,373.515,275.833,368.863,275.827,364.213z"/>
	<path display="inline" d="M256.264,314.897c-3.793,0-7.625,0.311-11.36-0.152c-1.506-0.187-3.991-2.052-4.009-3.187
		c-0.201-12.144-1.702-24.552,3.809-36.008c2.481-5.157,5.711-9.996,8.965-14.729c11.289-16.422,23.256-32.405,33.958-49.196
		c8.208-12.877,6.399-30.43-1.616-41.024c-12.282-16.232-49.578-19.487-61.838,8.989c-1.747,4.059-2.935,8.377-4.139,12.644
		c-0.78,2.766-2.275,3.764-5.066,3.266c-6.973-1.244-13.959-2.413-20.944-3.585c-4.085-0.685-4.194-3.308-3.551-6.634
		c6.789-35.108,33.089-56.289,69.356-55.371c22.638,0.574,42.435,8.014,54.75,28.056c14.569,23.711,12.744,47.848-2.229,70.795
		c-9.269,14.204-19.277,27.962-29.567,41.452c-7.658,10.04-11.482,20.783-10.926,33.44c0.576,13.105-0.122,11.143-11.14,11.259
		c-1.484,0.016-2.968,0.002-4.453,0.002C256.264,314.908,256.264,314.903,256.264,314.897z"/>
	<path display="inline" d="M273.647,362.134c0.003,4.604-0.049,9.209,0.021,13.811c0.051,3.392-1.253,5.256-4.897,5.227
		c-8.385-0.066-16.771-0.038-25.157-0.011c-3.262,0.01-4.854-1.544-4.849-4.806c0.013-9.701,0.007-19.402,0.008-29.103
		c0-3.298,1.676-4.695,4.938-4.668c8.385,0.07,16.772,0.085,25.157-0.004c3.366-0.036,4.804,1.511,4.784,4.756
		C273.622,352.268,273.644,357.201,273.647,362.134z"/>
</g>
</svg>
