<?xml version="1.0" encoding="utf-8"?>
<!-- Generator: Adobe Illustrator 16.0.0, SVG Export Plug-In . SVG Version: 6.00 Build 0)  -->
<!DOCTYPE svg PUBLIC "-//W3C//DTD SVG 1.1//EN" "http://www.w3.org/Graphics/SVG/1.1/DTD/svg11.dtd">
<svg version="1.1" id="Layer_1" xmlns="http://www.w3.org/2000/svg" xmlns:xlink="http://www.w3.org/1999/xlink" x="0px" y="0px"
	 width="512px" height="512px" viewBox="0 0 512 512" enable-background="new 0 0 512 512" xml:space="preserve">
<g>
	<line fill="none" stroke="#B35047" x1="32" y1="0" x2="32" y2="512"/>
	<line fill="none" stroke="#B35047" x1="64" y1="0" x2="64" y2="512"/>
	<line fill="none" stroke="#B35047" x1="96" y1="0" x2="96" y2="512"/>
	<line fill="none" stroke="#B35047" x1="128" y1="0" x2="128" y2="512"/>
	<line fill="none" stroke="#B35047" x1="160" y1="0" x2="160" y2="512"/>
	<line fill="none" stroke="#B35047" x1="192" y1="0" x2="192" y2="512"/>
	<line fill="none" stroke="#B35047" x1="224" y1="0" x2="224" y2="512"/>
	<line fill="none" stroke="#B35047" x1="256" y1="0" x2="256" y2="512"/>
	<line fill="none" stroke="#B35047" x1="288" y1="0" x2="288" y2="512"/>
	<line fill="none" stroke="#B35047" x1="320" y1="0" x2="320" y2="512"/>
	<line fill="none" stroke="#B35047" x1="352" y1="0" x2="352" y2="512"/>
	<line fill="none" stroke="#B35047" x1="384" y1="0" x2="384" y2="512"/>
	<line fill="none" stroke="#B35047" x1="416" y1="0" x2="416" y2="512"/>
	<line fill="none" stroke="#B35047" x1="448" y1="0" x2="448" y2="512"/>
	<line fill="none" stroke="#B35047" x1="480" y1="0" x2="480" y2="512"/>
	<line fill="none" stroke="#B35047" x1="0" y1="32" x2="512" y2="32"/>
	<line fill="none" stroke="#B35047" x1="0" y1="64" x2="512" y2="64"/>
	<line fill="none" stroke="#B35047" x1="0" y1="96" x2="512" y2="96"/>
	<line fill="none" stroke="#B35047" x1="0" y1="128" x2="512" y2="128"/>
	<line fill="none" stroke="#B35047" x1="0" y1="160" x2="512" y2="160"/>
	<line fill="none" stroke="#B35047" x1="0" y1="192" x2="512" y2="192"/>
	<line fill="none" stroke="#B35047" x1="0" y1="224" x2="512" y2="224"/>
	<line fill="none" stroke="#B35047" x1="0" y1="256" x2="512" y2="256"/>
	<line fill="none" stroke="#B35047" x1="0" y1="288" x2="512" y2="288"/>
	<line fill="none" stroke="#B35047" x1="0" y1="320" x2="512" y2="320"/>
	<line fill="none" stroke="#B35047" x1="0" y1="352" x2="512" y2="352"/>
	<line fill="none" stroke="#B35047" x1="0" y1="384" x2="512" y2="384"/>
	<line fill="none" stroke="#B35047" x1="0" y1="416" x2="512" y2="416"/>
	<line fill="none" stroke="#B35047" x1="0" y1="448" x2="512" y2="448"/>
	<line fill="none" stroke="#B35047" x1="0" y1="480" x2="512" y2="480"/>
	<rect fill="none" stroke="#B35047" width="512" height="512"/>
</g>
<g>
	<path display="none" fill-rule="evenodd" clip-rule="evenodd" fill="#FFFFFF" d="M618.746,257
		C497.831,377.916,376.916,498.83,256,619.746C135.085,498.829,14.169,377.916-106.747,257.001
		C14.168,136.085,135.084,15.169,255.999-105.745C376.916,15.169,497.831,136.084,618.746,257z M361.319,346.165
		c-0.647,0.18-1.292,0.361-1.938,0.545c-1.372-1.372-2.743-2.743-4.115-4.115c-68.451-68.451-136.896-136.904-205.37-205.332
		c-1.75-1.75-3.6-3.549-5.73-4.744c-6.833-3.84-15.231,1.079-14.395,8.844c0.366,3.38,2.778,7.083,5.292,9.609
		c68.577,68.797,137.285,137.463,205.973,206.15c1.354,1.354,2.706,2.706,4.06,4.06c-0.16,0.811-0.318,1.619-0.479,2.428
		c-1.767-0.481-3.533-1.38-5.3-1.383c-40.654-0.073-81.31-0.064-121.964-0.008c-2.465,0.005-5.019,0.21-7.378,0.87
		c-5.081,1.427-7.817,6.609-6.532,11.753c1.313,5.268,5.238,7.796,12.33,7.799c53.648,0.021,107.3,0.025,160.95,0.022
		c1.285,0.001,2.572-0.143,4.042-0.23c0.077-1.275,0.187-2.246,0.188-3.214c0.007-53.983,0.016-107.967-0.024-161.951
		c-0.002-1.802-0.269-3.666-0.779-5.396c-1.585-5.377-6.742-8.143-12.119-6.666c-5.041,1.385-7.545,5.486-7.548,12.563
		c-0.017,40.987-0.029,81.974,0.014,122.962C360.496,342.542,361.032,344.354,361.319,346.165z"/>
	<path fill-rule="evenodd" clip-rule="evenodd" d="M408.49,385.729c-0.418-2.627-1.194-5.255-1.198-7.882
		c-0.06-59.432-0.043-118.863-0.018-178.295c0.003-10.261,3.636-16.208,10.942-18.215c7.799-2.14,15.274,1.867,17.576,9.668
		c0.74,2.505,1.127,5.208,1.129,7.821c0.058,78.276,0.047,156.55,0.034,234.828c-0.001,1.406-0.161,2.813-0.271,4.66
		c-2.132,0.128-3.999,0.336-5.861,0.336c-77.793,0.003-155.586-0.003-233.379-0.034c-10.282-0.004-15.974-3.671-17.879-11.309
		c-1.861-7.455,2.107-14.974,9.474-17.039c3.42-0.959,7.122-1.258,10.699-1.264c58.948-0.082,117.896-0.095,176.845,0.012
		c2.563,0.004,5.124,1.307,7.686,2.007c0.232-1.174,0.465-2.349,0.695-3.522c-1.964-1.964-3.925-3.925-5.887-5.887
		C279.48,302.019,179.853,202.454,80.419,102.697c-3.648-3.662-7.146-9.033-7.673-13.935C71.53,77.505,83.707,70.374,93.618,75.939
		c3.087,1.734,5.769,4.343,8.306,6.88c99.287,99.221,198.536,198.479,297.79,297.732c1.987,1.988,3.977,3.976,5.965,5.965
		C406.615,386.253,407.553,385.99,408.49,385.729z"/>
</g>
</svg>
