<?xml version="1.0" encoding="utf-8"?>
<!-- Generator: Adobe Illustrator 16.0.0, SVG Export Plug-In . SVG Version: 6.00 Build 0)  -->
<!DOCTYPE svg PUBLIC "-//W3C//DTD SVG 1.1//EN" "http://www.w3.org/Graphics/SVG/1.1/DTD/svg11.dtd">
<svg version="1.1" id="Layer_1" xmlns="http://www.w3.org/2000/svg" xmlns:xlink="http://www.w3.org/1999/xlink" x="0px" y="0px"
	 width="512px" height="512px" viewBox="0 0 512 512" enable-background="new 0 0 512 512" xml:space="preserve">
<g>
	<line fill="none" stroke="#B35047" x1="32" y1="0" x2="32" y2="512"/>
	<line fill="none" stroke="#B35047" x1="64" y1="0" x2="64" y2="512"/>
	<line fill="none" stroke="#B35047" x1="96" y1="0" x2="96" y2="512"/>
	<line fill="none" stroke="#B35047" x1="128" y1="0" x2="128" y2="512"/>
	<line fill="none" stroke="#B35047" x1="160" y1="0" x2="160" y2="512"/>
	<line fill="none" stroke="#B35047" x1="192" y1="0" x2="192" y2="512"/>
	<line fill="none" stroke="#B35047" x1="224" y1="0" x2="224" y2="512"/>
	<line fill="none" stroke="#B35047" x1="256" y1="0" x2="256" y2="512"/>
	<line fill="none" stroke="#B35047" x1="288" y1="0" x2="288" y2="512"/>
	<line fill="none" stroke="#B35047" x1="320" y1="0" x2="320" y2="512"/>
	<line fill="none" stroke="#B35047" x1="352" y1="0" x2="352" y2="512"/>
	<line fill="none" stroke="#B35047" x1="384" y1="0" x2="384" y2="512"/>
	<line fill="none" stroke="#B35047" x1="416" y1="0" x2="416" y2="512"/>
	<line fill="none" stroke="#B35047" x1="448" y1="0" x2="448" y2="512"/>
	<line fill="none" stroke="#B35047" x1="480" y1="0" x2="480" y2="512"/>
	<line fill="none" stroke="#B35047" x1="0" y1="32" x2="512" y2="32"/>
	<line fill="none" stroke="#B35047" x1="0" y1="64" x2="512" y2="64"/>
	<line fill="none" stroke="#B35047" x1="0" y1="96" x2="512" y2="96"/>
	<line fill="none" stroke="#B35047" x1="0" y1="128" x2="512" y2="128"/>
	<line fill="none" stroke="#B35047" x1="0" y1="160" x2="512" y2="160"/>
	<line fill="none" stroke="#B35047" x1="0" y1="192" x2="512" y2="192"/>
	<line fill="none" stroke="#B35047" x1="0" y1="224" x2="512" y2="224"/>
	<line fill="none" stroke="#B35047" x1="0" y1="256" x2="512" y2="256"/>
	<line fill="none" stroke="#B35047" x1="0" y1="288" x2="512" y2="288"/>
	<line fill="none" stroke="#B35047" x1="0" y1="320" x2="512" y2="320"/>
	<line fill="none" stroke="#B35047" x1="0" y1="352" x2="512" y2="352"/>
	<line fill="none" stroke="#B35047" x1="0" y1="384" x2="512" y2="384"/>
	<line fill="none" stroke="#B35047" x1="0" y1="416" x2="512" y2="416"/>
	<line fill="none" stroke="#B35047" x1="0" y1="448" x2="512" y2="448"/>
	<line fill="none" stroke="#B35047" x1="0" y1="480" x2="512" y2="480"/>
	<rect fill="none" stroke="#B35047" width="512" height="512"/>
</g>
<g>
	<path display="none" fill-rule="evenodd" clip-rule="evenodd" fill="#FFFFFF" d="M512.5,0.5c0.001,171,0,341.999,0,513
		c-171-0.001-342,0.001-513,0.001c0-171,0-342.001,0-513C170.5,0.5,341.5,0.499,512.5,0.5z M393.521,245.577
		c-0.33,0.585-0.658,1.17-0.986,1.756c-1.939,0-3.879,0-5.818,0c-96.805,0-193.607-0.006-290.411,0.027
		c-2.475,0-5.055,0.036-7.407,0.697c-7.547,2.117-10.007,11.533-3.926,16.432c2.649,2.132,6.974,3.045,10.538,3.053
		c97.138,0.156,194.276,0.126,291.415,0.126c1.914,0,3.827,0,5.741,0c0.46,0.687,0.92,1.37,1.378,2.056
		c-1.59,0.909-3.474,1.522-4.726,2.77c-28.799,28.695-57.54,57.449-86.247,86.236c-1.74,1.746-3.4,3.697-4.602,5.832
		c-2.584,4.602-0.854,10.201,3.691,12.93c4.653,2.796,9.217,1.809,14.233-3.204c37.95-37.921,75.891-75.854,113.825-113.793
		c0.909-0.908,1.718-1.92,2.695-3.021c-0.848-0.956-1.457-1.72-2.14-2.405c-38.167-38.178-76.333-76.355-114.534-114.5
		c-1.275-1.273-2.782-2.402-4.365-3.264c-4.924-2.682-10.525-0.99-13.284,3.855c-2.585,4.543-1.456,9.215,3.546,14.221
		c28.971,28.994,57.943,57.984,86.957,86.938C390.377,243.598,392.037,244.499,393.521,245.577z"/>
	<path fill-rule="evenodd" clip-rule="evenodd" d="M454.852,240.198c-2.152-1.563-4.56-2.871-6.42-4.726
		c-42.066-41.982-84.079-84.019-126.086-126.062c-7.253-7.258-8.891-14.031-5.143-20.617c4.002-7.028,12.121-9.48,19.265-5.592
		c2.294,1.248,4.48,2.886,6.329,4.732c55.391,55.309,110.73,110.664,166.072,166.024c0.994,0.995,1.876,2.103,3.104,3.487
		c-1.417,1.598-2.59,3.064-3.907,4.382c-55.006,55.01-110.018,110.014-165.048,165c-7.273,7.268-13.891,8.699-20.639,4.646
		c-6.588-3.955-9.098-12.078-5.35-18.747c1.74-3.097,4.146-5.926,6.672-8.459c41.625-41.741,83.299-83.433,125.057-125.04
		c1.815-1.81,4.547-2.699,6.854-4.016c-0.666-0.994-1.332-1.989-1.999-2.982c-2.776,0-5.55,0-8.325,0
		c-140.852,0-281.701,0.045-422.55-0.184c-5.169-0.01-11.44-1.334-15.279-4.428c-8.82-7.101-5.251-20.753,5.692-23.826
		c3.409-0.956,7.15-1.008,10.738-1.009c140.366-0.047,280.731-0.04,421.098-0.04c2.812,0,5.623-0.001,8.436,0
		C453.896,241.896,454.374,241.046,454.852,240.198z"/>
</g>
</svg>
