<?xml version="1.0" encoding="utf-8"?>
<!-- Generator: Adobe Illustrator 16.0.0, SVG Export Plug-In . SVG Version: 6.00 Build 0)  -->
<!DOCTYPE svg PUBLIC "-//W3C//DTD SVG 1.1//EN" "http://www.w3.org/Graphics/SVG/1.1/DTD/svg11.dtd">
<svg version="1.1" id="Layer_1" xmlns="http://www.w3.org/2000/svg" xmlns:xlink="http://www.w3.org/1999/xlink" x="0px" y="0px"
	 width="512px" height="512px" viewBox="0 0 512 512" enable-background="new 0 0 512 512" xml:space="preserve">
<g>
	<line fill="none" stroke="#B35047" x1="32" y1="0" x2="32" y2="512"/>
	<line fill="none" stroke="#B35047" x1="64" y1="0" x2="64" y2="512"/>
	<line fill="none" stroke="#B35047" x1="96" y1="0" x2="96" y2="512"/>
	<line fill="none" stroke="#B35047" x1="128" y1="0" x2="128" y2="512"/>
	<line fill="none" stroke="#B35047" x1="160" y1="0" x2="160" y2="512"/>
	<line fill="none" stroke="#B35047" x1="192" y1="0" x2="192" y2="512"/>
	<line fill="none" stroke="#B35047" x1="224" y1="0" x2="224" y2="512"/>
	<line fill="none" stroke="#B35047" x1="256" y1="0" x2="256" y2="512"/>
	<line fill="none" stroke="#B35047" x1="288" y1="0" x2="288" y2="512"/>
	<line fill="none" stroke="#B35047" x1="320" y1="0" x2="320" y2="512"/>
	<line fill="none" stroke="#B35047" x1="352" y1="0" x2="352" y2="512"/>
	<line fill="none" stroke="#B35047" x1="384" y1="0" x2="384" y2="512"/>
	<line fill="none" stroke="#B35047" x1="416" y1="0" x2="416" y2="512"/>
	<line fill="none" stroke="#B35047" x1="448" y1="0" x2="448" y2="512"/>
	<line fill="none" stroke="#B35047" x1="480" y1="0" x2="480" y2="512"/>
	<line fill="none" stroke="#B35047" x1="0" y1="32" x2="512" y2="32"/>
	<line fill="none" stroke="#B35047" x1="0" y1="64" x2="512" y2="64"/>
	<line fill="none" stroke="#B35047" x1="0" y1="96" x2="512" y2="96"/>
	<line fill="none" stroke="#B35047" x1="0" y1="128" x2="512" y2="128"/>
	<line fill="none" stroke="#B35047" x1="0" y1="160" x2="512" y2="160"/>
	<line fill="none" stroke="#B35047" x1="0" y1="192" x2="512" y2="192"/>
	<line fill="none" stroke="#B35047" x1="0" y1="224" x2="512" y2="224"/>
	<line fill="none" stroke="#B35047" x1="0" y1="256" x2="512" y2="256"/>
	<line fill="none" stroke="#B35047" x1="0" y1="288" x2="512" y2="288"/>
	<line fill="none" stroke="#B35047" x1="0" y1="320" x2="512" y2="320"/>
	<line fill="none" stroke="#B35047" x1="0" y1="352" x2="512" y2="352"/>
	<line fill="none" stroke="#B35047" x1="0" y1="384" x2="512" y2="384"/>
	<line fill="none" stroke="#B35047" x1="0" y1="416" x2="512" y2="416"/>
	<line fill="none" stroke="#B35047" x1="0" y1="448" x2="512" y2="448"/>
	<line fill="none" stroke="#B35047" x1="0" y1="480" x2="512" y2="480"/>
	<rect fill="none" stroke="#B35047" width="512" height="512"/>
</g>
<g>
	<path display="none" fill-rule="evenodd" clip-rule="evenodd" fill="#FFFFFF" d="M256-105.746
		C376.916,15.169,497.83,136.085,618.746,257C497.83,377.915,376.916,498.831,256,619.746
		C135.084,498.831,14.169,377.915-106.746,257.001C14.169,136.085,135.084,15.169,256-105.746z M345.165,151.681
		c0.181,0.646,0.362,1.293,0.544,1.938c-1.371,1.372-2.742,2.743-4.113,4.114c-68.451,68.451-136.905,136.897-205.333,205.371
		c-1.75,1.75-3.548,3.6-4.745,5.73c-3.839,6.834,1.08,15.231,8.843,14.395c3.381-0.365,7.085-2.777,9.61-5.293
		c68.798-68.575,137.463-137.284,206.151-205.972c1.354-1.354,2.706-2.706,4.06-4.06c0.811,0.16,1.619,0.318,2.428,0.479
		c-0.481,1.767-1.38,3.532-1.383,5.3c-0.073,40.654-0.064,81.309-0.008,121.963c0.004,2.467,0.21,5.02,0.871,7.379
		c1.426,5.08,6.609,7.816,11.752,6.533c5.268-1.314,7.796-5.239,7.799-12.331c0.021-53.649,0.025-107.3,0.022-160.95
		c0.001-1.285-0.143-2.572-0.23-4.043c-1.274-0.076-2.245-0.186-3.214-0.188c-53.984-0.008-107.967-0.016-161.951,0.023
		c-1.802,0.002-3.667,0.27-5.394,0.779c-5.379,1.586-8.144,6.742-6.667,12.12c1.383,5.04,5.485,7.545,12.562,7.548
		c40.988,0.018,81.974,0.029,122.962-0.013C341.542,152.504,343.354,151.968,345.165,151.681z"/>
	<path fill-rule="evenodd" clip-rule="evenodd" d="M384.729,104.51c-2.627,0.417-5.254,1.194-7.881,1.198
		c-59.432,0.06-118.863,0.043-178.295,0.018c-10.261-0.004-16.208-3.635-18.215-10.943c-2.14-7.799,1.868-15.274,9.668-17.575
		c2.504-0.739,5.208-1.128,7.822-1.13c78.276-0.057,156.55-0.046,234.828-0.033c1.406,0.001,2.813,0.16,4.661,0.271
		c0.127,2.132,0.334,3.998,0.335,5.861c0.003,77.793-0.003,155.586-0.034,233.379c-0.004,10.282-3.671,15.974-11.309,17.879
		c-7.455,1.861-14.973-2.107-17.039-9.474c-0.959-3.42-1.258-7.122-1.264-10.699c-0.082-58.948-0.095-117.896,0.012-176.845
		c0.004-2.563,1.307-5.123,2.006-7.686c-1.174-0.232-2.348-0.465-3.521-0.695c-1.963,1.963-3.924,3.924-5.887,5.887
		c-99.597,99.597-199.16,199.225-298.918,298.658c-3.662,3.648-9.033,7.146-13.935,7.674c-11.257,1.215-18.388-10.962-12.822-20.873
		c1.734-3.087,4.343-5.77,6.879-8.307c99.221-99.287,198.479-198.535,297.733-297.789c1.987-1.988,3.976-3.977,5.965-5.965
		C385.254,106.386,384.99,105.447,384.729,104.51z"/>
</g>
</svg>
