<?xml version="1.0" encoding="utf-8"?>
<!-- Generator: Adobe Illustrator 17.0.0, SVG Export Plug-In . SVG Version: 6.00 Build 0)  -->
<!DOCTYPE svg PUBLIC "-//W3C//DTD SVG 1.1//EN" "http://www.w3.org/Graphics/SVG/1.1/DTD/svg11.dtd">
<svg version="1.1" id="Layer_1" xmlns="http://www.w3.org/2000/svg" xmlns:xlink="http://www.w3.org/1999/xlink" x="0px" y="0px"
	 width="512px" height="512px" viewBox="0 0 512 512" enable-background="new 0 0 512 512" xml:space="preserve">
<g>
	<line fill="none" stroke="#B35047" x1="32" y1="0" x2="32" y2="512"/>
	<line fill="none" stroke="#B35047" x1="64" y1="0" x2="64" y2="512"/>
	<line fill="none" stroke="#B35047" x1="96" y1="0" x2="96" y2="512"/>
	<line fill="none" stroke="#B35047" x1="128" y1="0" x2="128" y2="512"/>
	<line fill="none" stroke="#B35047" x1="160" y1="0" x2="160" y2="512"/>
	<line fill="none" stroke="#B35047" x1="192" y1="0" x2="192" y2="512"/>
	<line fill="none" stroke="#B35047" x1="224" y1="0" x2="224" y2="512"/>
	<line fill="none" stroke="#B35047" x1="256" y1="0" x2="256" y2="512"/>
	<line fill="none" stroke="#B35047" x1="288" y1="0" x2="288" y2="512"/>
	<line fill="none" stroke="#B35047" x1="320" y1="0" x2="320" y2="512"/>
	<line fill="none" stroke="#B35047" x1="352" y1="0" x2="352" y2="512"/>
	<line fill="none" stroke="#B35047" x1="384" y1="0" x2="384" y2="512"/>
	<line fill="none" stroke="#B35047" x1="416" y1="0" x2="416" y2="512"/>
	<line fill="none" stroke="#B35047" x1="448" y1="0" x2="448" y2="512"/>
	<line fill="none" stroke="#B35047" x1="480" y1="0" x2="480" y2="512"/>
	<line fill="none" stroke="#B35047" x1="0" y1="32" x2="512" y2="32"/>
	<line fill="none" stroke="#B35047" x1="0" y1="64" x2="512" y2="64"/>
	<line fill="none" stroke="#B35047" x1="0" y1="96" x2="512" y2="96"/>
	<line fill="none" stroke="#B35047" x1="0" y1="128" x2="512" y2="128"/>
	<line fill="none" stroke="#B35047" x1="0" y1="160" x2="512" y2="160"/>
	<line fill="none" stroke="#B35047" x1="0" y1="192" x2="512" y2="192"/>
	<line fill="none" stroke="#B35047" x1="0" y1="224" x2="512" y2="224"/>
	<line fill="none" stroke="#B35047" x1="0" y1="256" x2="512" y2="256"/>
	<line fill="none" stroke="#B35047" x1="0" y1="288" x2="512" y2="288"/>
	<line fill="none" stroke="#B35047" x1="0" y1="320" x2="512" y2="320"/>
	<line fill="none" stroke="#B35047" x1="0" y1="352" x2="512" y2="352"/>
	<line fill="none" stroke="#B35047" x1="0" y1="384" x2="512" y2="384"/>
	<line fill="none" stroke="#B35047" x1="0" y1="416" x2="512" y2="416"/>
	<line fill="none" stroke="#B35047" x1="0" y1="448" x2="512" y2="448"/>
	<line fill="none" stroke="#B35047" x1="0" y1="480" x2="512" y2="480"/>
	<rect x="0" fill="none" stroke="#B35047" width="512" height="512"/>
</g>
<image display="none" overflow="visible" width="512" height="512" xlink:href="../../../Knowledge/Icon/[+++++] (Full) iOS7 icons [icons8]/Transport/speedometer/speedometer-512.png" >
</image>
<g>
	<path display="none" fill="#FFFFFF" d="M513.5,434.5c0,26.333,0,52.667,0,79c-171,0-342,0-513,0c0-171,0-342,0-513
		c171,0,342,0,513,0c0,50.667,0,101.333,0,152c-1.481-3.866-2.611-7.915-4.502-11.569c-9.696-18.736-25.56-27.358-46.316-27.363
		c-136.818-0.035-273.636-0.018-410.454-0.018c-0.833,0-1.667,0-2.5,0.013c-29.538,0.493-48.727,25.203-48.52,49.672
		c0.743,87.651,0.312,175.311,0.27,262.968C1.473,440.5,7.445,451.89,17.903,461.182c10.291,9.144,22.654,11.98,36.078,11.967
		c71.492-0.071,142.984-0.033,214.476-0.033c64.493,0,128.986-0.049,193.478,0.031c17.401,0.022,32.199-5.596,42.455-20.012
		C508.345,447.576,510.516,440.749,513.5,434.5z M185.644,103.622c0-11.551,0.307-22.525-0.074-33.474
		c-0.534-15.358-12.697-27.351-28.055-27.58c-18.64-0.279-37.29-0.239-55.931-0.01c-13.576,0.166-25.968,9.734-27.471,23.057
		c-1.401,12.425-0.299,25.132-0.299,37.939c6.478,0,12.87,0,19.553,0c0.083-1.892,0.212-3.52,0.216-5.148
		c0.023-8.49-0.076-16.981,0.047-25.469c0.09-6.246,2.956-9.785,8.857-9.865c17.973-0.242,35.954-0.241,53.927-0.016
		c5.923,0.074,8.85,3.596,8.953,9.781c0.133,7.988,0.037,15.98,0.04,23.971c0.001,2.257,0,4.515,0,6.815
		C172.468,103.622,178.752,103.622,185.644,103.622z M441.611,103.633c0-11.703,0.34-22.842-0.084-33.953
		c-0.565-14.812-12.613-26.782-27.483-27.071c-18.97-0.37-37.956-0.319-56.928-0.02c-13.462,0.212-25.818,10.282-27.135,23.476
		c-1.228,12.3-0.262,24.819-0.262,37.499c6.552,0,12.944,0,19.875,0c0-9.714-0.016-19.158,0.004-28.602
		c0.02-9.205,2.745-12.024,11.851-12.058c14.149-0.052,28.299-0.015,42.449-0.015c16.736,0,17.509,0.769,17.509,17.405
		c0,7.758,0,15.517,0,23.337C428.446,103.633,434.731,103.633,441.611,103.633z"/>
	<path d="M511,431.96c-2.97,6.221-5.132,13.018-9.069,18.551c-10.21,14.351-24.942,19.944-42.265,19.922
		c-64.204-0.08-128.408-0.031-192.612-0.031c-71.172,0-142.344-0.038-213.516,0.033c-13.364,0.013-25.671-2.811-35.916-11.913
		c-10.412-9.251-16.357-20.59-16.35-34.821c0.041-87.265,0.47-174.533-0.269-261.791c-0.206-24.359,18.897-48.959,48.303-49.45
		c0.829-0.014,1.659-0.013,2.488-0.013c136.206-0.001,272.411-0.017,408.617,0.017c20.662,0.005,36.455,8.588,46.108,27.241
		c1.883,3.638,3.007,7.668,4.482,11.517C511,244.802,511,338.381,511,431.96z M256.162,134.041
		c-67.357,0-134.715-0.014-202.072,0.036c-3.79,0.003-7.702,0.021-11.349,0.899c-13.341,3.215-20.533,13.536-20.536,29.028
		c-0.017,84.943-0.019,169.887,0.001,254.83c0.005,19.293,10.884,30.044,30.36,30.056c36.831,0.023,73.662,0.007,110.492,0.007
		c99.045,0,198.09,0.011,297.135-0.011c18.444-0.004,29.846-10.746,29.862-28.525c0.08-85.939,0.083-171.878-0.095-257.816
		c-0.01-4.652-1.056-9.719-3.094-13.87c-5.432-11.065-15.236-14.708-27.14-14.688C391.872,134.1,324.017,134.042,256.162,134.041z"
		/>
	<path d="M184.611,102.563c-6.861,0-13.117,0-20.146,0c0-2.29,0.001-4.537,0-6.785c-0.002-7.955,0.093-15.911-0.039-23.863
		c-0.102-6.157-3.016-9.663-8.913-9.737c-17.893-0.224-35.793-0.226-53.686,0.016c-5.875,0.079-8.728,3.603-8.818,9.821
		c-0.122,8.45-0.024,16.903-0.046,25.355c-0.004,1.621-0.133,3.242-0.215,5.125c-6.654,0-13.017,0-19.466,0
		c0-12.75-1.097-25.4,0.298-37.769c1.496-13.263,13.832-22.788,27.348-22.954c18.558-0.227,37.124-0.267,55.681,0.01
		c15.289,0.229,27.398,12.168,27.93,27.457C184.917,80.14,184.611,91.064,184.611,102.563z"/>
	<path d="M439.432,102.575c-6.849,0-13.105,0-20.113,0c0-7.786,0-15.509,0-23.233c0-16.562-0.77-17.328-17.431-17.327
		c-14.086,0-28.173-0.037-42.259,0.015c-9.065,0.033-11.778,2.839-11.797,12.004c-0.02,9.402-0.004,18.803-0.004,28.474
		c-6.9,0-13.263,0-19.786,0c0-12.623-0.961-25.086,0.261-37.332c1.311-13.135,13.612-23.16,27.013-23.371
		c18.887-0.298,37.788-0.348,56.673,0.02c14.804,0.288,26.797,12.204,27.36,26.95C439.771,79.834,439.432,90.924,439.432,102.575z"
		/>
	<path display="none" fill="#FFFFFF" d="M257.517,135.242c68.16,0,136.32,0.059,204.48-0.055
		c11.958-0.02,21.806,3.639,27.262,14.754c2.047,4.169,3.098,9.259,3.107,13.932c0.179,86.325,0.176,172.65,0.096,258.975
		c-0.017,17.859-11.469,28.649-29.996,28.654c-99.49,0.023-198.981,0.011-298.471,0.011c-36.996,0-73.993,0.016-110.989-0.007
		c-19.563-0.012-30.492-10.811-30.496-30.191c-0.02-85.325-0.018-170.65-0.001-255.976c0.003-15.562,7.227-25.929,20.628-29.159
		c3.663-0.883,7.592-0.901,11.4-0.904C122.196,135.228,189.856,135.241,257.517,135.242z M441.516,277.936c-2.41,0-4.218,0-6.026,0
		c-10.16-0.001-20.321-0.106-30.478,0.057c-3.271,0.052-4.341-1.028-4.272-4.3c0.185-8.823,0.062-17.653,0.062-26.481
		c0-3.26,0-6.52,0-9.843c-10.535,0-20.281,0-30.632,0c0,13.532,0,26.769,0,40.565c-13.851,0-27.108,0-40.579,0
		c0,10.464,0,20.349,0,30.746c13.547,0,26.784,0,40.703,0c0,13.864,0,27.232,0,40.644c10.451,0,20.205,0,30.629,0
		c0-13.634,0-27.014,0-40.87c13.914,0,27.164,0,40.594,0C441.516,298.185,441.516,288.413,441.516,277.936z M73.485,308.294
		c37.663,0,74.741,0,111.836,0c0-10.198,0-20.07,0-30.001c-37.482,0-74.557,0-111.836,0C73.485,288.425,73.485,298.2,73.485,308.294
		z"/>
	<path d="M439.338,276.097c0,10.43,0,20.158,0,30.382c-13.37,0-26.56,0-40.412,0c0,13.794,0,27.115,0,40.687
		c-10.377,0-20.088,0-30.492,0c0-13.352,0-26.66,0-40.462c-13.856,0-27.034,0-40.521,0c0-10.351,0-20.191,0-30.608
		c13.411,0,26.609,0,40.397,0c0-13.734,0-26.912,0-40.383c10.305,0,20.007,0,30.495,0c0,3.309,0,6.554,0,9.799
		c0.001,8.788,0.123,17.578-0.061,26.362c-0.068,3.257,0.997,4.333,4.253,4.281c10.112-0.162,20.227-0.058,30.342-0.057
		C435.139,276.097,436.939,276.097,439.338,276.097z"/>
	<path d="M72.955,306.319c0-10.049,0-19.78,0-29.866c37.113,0,74.021,0,111.336,0c0,9.886,0,19.714,0,29.866
		C147.362,306.319,110.449,306.319,72.955,306.319z"/>
</g>
</svg>
