<?xml version="1.0" encoding="utf-8"?>
<!-- Generator: Adobe Illustrator 16.0.0, SVG Export Plug-In . SVG Version: 6.00 Build 0)  -->
<!DOCTYPE svg PUBLIC "-//W3C//DTD SVG 1.1//EN" "http://www.w3.org/Graphics/SVG/1.1/DTD/svg11.dtd">
<svg version="1.1" id="Layer_1" xmlns="http://www.w3.org/2000/svg" xmlns:xlink="http://www.w3.org/1999/xlink" x="0px" y="0px"
	 width="512px" height="512px" viewBox="0 0 512 512" enable-background="new 0 0 512 512" xml:space="preserve">
<g>
	<line fill="none" stroke="#B35047" x1="32" y1="0" x2="32" y2="512"/>
	<line fill="none" stroke="#B35047" x1="64" y1="0" x2="64" y2="512"/>
	<line fill="none" stroke="#B35047" x1="96" y1="0" x2="96" y2="512"/>
	<line fill="none" stroke="#B35047" x1="128" y1="0" x2="128" y2="512"/>
	<line fill="none" stroke="#B35047" x1="160" y1="0" x2="160" y2="512"/>
	<line fill="none" stroke="#B35047" x1="192" y1="0" x2="192" y2="512"/>
	<line fill="none" stroke="#B35047" x1="224" y1="0" x2="224" y2="512"/>
	<line fill="none" stroke="#B35047" x1="256" y1="0" x2="256" y2="512"/>
	<line fill="none" stroke="#B35047" x1="288" y1="0" x2="288" y2="512"/>
	<line fill="none" stroke="#B35047" x1="320" y1="0" x2="320" y2="512"/>
	<line fill="none" stroke="#B35047" x1="352" y1="0" x2="352" y2="512"/>
	<line fill="none" stroke="#B35047" x1="384" y1="0" x2="384" y2="512"/>
	<line fill="none" stroke="#B35047" x1="416" y1="0" x2="416" y2="512"/>
	<line fill="none" stroke="#B35047" x1="448" y1="0" x2="448" y2="512"/>
	<line fill="none" stroke="#B35047" x1="480" y1="0" x2="480" y2="512"/>
	<line fill="none" stroke="#B35047" x1="0" y1="32" x2="512" y2="32"/>
	<line fill="none" stroke="#B35047" x1="0" y1="64" x2="512" y2="64"/>
	<line fill="none" stroke="#B35047" x1="0" y1="96" x2="512" y2="96"/>
	<line fill="none" stroke="#B35047" x1="0" y1="128" x2="512" y2="128"/>
	<line fill="none" stroke="#B35047" x1="0" y1="160" x2="512" y2="160"/>
	<line fill="none" stroke="#B35047" x1="0" y1="192" x2="512" y2="192"/>
	<line fill="none" stroke="#B35047" x1="0" y1="224" x2="512" y2="224"/>
	<line fill="none" stroke="#B35047" x1="0" y1="256" x2="512" y2="256"/>
	<line fill="none" stroke="#B35047" x1="0" y1="288" x2="512" y2="288"/>
	<line fill="none" stroke="#B35047" x1="0" y1="320" x2="512" y2="320"/>
	<line fill="none" stroke="#B35047" x1="0" y1="352" x2="512" y2="352"/>
	<line fill="none" stroke="#B35047" x1="0" y1="384" x2="512" y2="384"/>
	<line fill="none" stroke="#B35047" x1="0" y1="416" x2="512" y2="416"/>
	<line fill="none" stroke="#B35047" x1="0" y1="448" x2="512" y2="448"/>
	<line fill="none" stroke="#B35047" x1="0" y1="480" x2="512" y2="480"/>
	<rect fill="none" stroke="#B35047" width="512" height="512"/>
</g>
<g>
	<path display="none" fill-rule="evenodd" clip-rule="evenodd" fill="#FFFFFF" d="M180.5,513.5c-60,0-120,0-180,0c0-171,0-342,0-513
		c171,0,342,0,513,0c0,171,0,342,0,513c-58.333,0-116.667,0-175,0c1.106-0.295,2.196-0.709,3.321-0.867
		c9.608-1.35,18.253-5.039,25.898-10.937c15.768-12.165,22.862-28.498,22.856-48.191c-0.015-51.159-0.005-102.318-0.005-153.479
		c0-58.991-0.019-117.983,0.015-176.975c0.008-13.546-3.25-26.051-11.544-36.94c-12.324-16.182-29.045-23.225-49.063-23.225
		c-47.66-0.002-95.32-0.029-142.979,0.048c-4.309,0.007-8.704,0.277-12.912,1.139c-28.204,5.775-49.566,32.197-49.628,61.528
		c-0.106,50.659-0.031,101.318-0.031,151.979c0,57.492,0.078,114.983-0.039,172.476c-0.043,21.322,9.039,37.705,25.754,50.4
		C159.217,507.348,169.562,511.06,180.5,513.5z"/>
	<path fill-rule="evenodd" clip-rule="evenodd" d="M178.5,481c-10.938-2.44-21.283-6.152-30.356-13.044
		c-16.716-12.695-25.797-29.078-25.754-50.4c0.117-57.492,0.039-114.983,0.039-172.476c0-50.66-0.075-101.319,0.031-151.979
		c0.062-29.331,21.424-55.753,49.628-61.528c4.208-0.861,8.603-1.132,12.912-1.139c47.66-0.077,95.319-0.05,142.979-0.048
		c20.019,0,36.739,7.043,49.063,23.225c8.294,10.89,11.552,23.395,11.544,36.94c-0.033,58.991-0.015,117.983-0.015,176.975
		c0,51.16-0.01,102.319,0.005,153.479c0.006,19.693-7.089,36.026-22.856,48.191c-7.646,5.897-16.29,9.587-25.898,10.937
		c-1.125,0.158-2.215,0.572-3.321,0.867C283.834,481,231.167,481,178.5,481z M368.198,255.93c0-54.312,0.032-108.623-0.059-162.936
		c-0.008-4.624-0.239-9.402-1.395-13.842c-4.664-17.933-18.539-28.146-38.078-28.177c-48.314-0.074-96.629-0.031-144.943,0
		c-2.319,0.001-4.681,0.114-6.951,0.55c-19.491,3.736-33.958,22.281-33.962,43.584c-0.02,106.958,0.308,213.917-0.229,320.872
		c-0.136,27.152,24.024,44.654,43.755,44.607c47.481-0.115,94.962-0.015,142.444-0.056c13.057-0.011,24.054-4.515,32.062-15.254
		c5.75-7.712,7.353-16.585,7.354-25.914C368.2,364.887,368.198,310.408,368.198,255.93z"/>
	<path display="none" fill-rule="evenodd" clip-rule="evenodd" fill="#FFFFFF" d="M370.198,288.43
		c0,54.479,0.002,108.957-0.002,163.436c-0.001,9.329-1.604,18.202-7.354,25.914c-8.008,10.739-19.005,15.243-32.062,15.254
		c-47.481,0.041-94.963-0.06-142.444,0.056c-19.731,0.047-43.892-17.455-43.755-44.607c0.537-106.955,0.209-213.914,0.229-320.872
		c0.004-21.303,14.472-39.848,33.962-43.584c2.27-0.436,4.631-0.549,6.951-0.55c48.314-0.031,96.628-0.074,144.943,0
		c19.539,0.03,33.414,10.244,38.078,28.177c1.155,4.439,1.387,9.218,1.395,13.842C370.23,179.807,370.198,234.118,370.198,288.43z
		 M165.407,283.104c0,51.646-0.005,103.292,0.004,154.938c0.001,10.542,3.52,14.063,14.11,14.066
		c51.812,0.015,103.625,0.013,155.438,0.002c11.342-0.002,14.633-3.292,14.633-14.543c0.002-102.958,0.002-205.917-0.001-308.875
		c0-11.33-3.181-14.489-14.609-14.491c-51.646-0.006-103.292-0.007-154.937,0.001c-11.498,0.001-14.635,3.112-14.636,14.465
		C165.405,180.146,165.407,231.625,165.407,283.104z M257.446,457.34c-8.544,0.023-15.134,6.597-15.163,15.127
		c-0.029,8.549,6.501,15.194,15.021,15.285c8.748,0.093,15.491-6.642,15.412-15.393C272.641,463.838,266.01,457.316,257.446,457.34z
		"/>
	<path fill-rule="evenodd" clip-rule="evenodd" d="M163.407,250.604c0-51.479-0.002-102.958,0.001-154.438
		c0-11.353,3.138-14.464,14.636-14.465c51.646-0.008,103.292-0.007,154.937-0.001c11.429,0.002,14.609,3.161,14.609,14.491
		c0.003,102.958,0.003,205.917,0.001,308.875c0,11.251-3.291,14.541-14.633,14.543c-51.813,0.011-103.625,0.013-155.438-0.002
		c-10.59-0.003-14.109-3.524-14.11-14.066C163.402,353.896,163.407,302.25,163.407,250.604z M326.822,398.766
		c0-99.087,0-197.761,0-296.334c-47.852,0-95.253,0-142.826,0c0,98.924,0,197.486,0,296.334
		C231.684,398.766,279.104,398.766,326.822,398.766z"/>
	<path fill-rule="evenodd" clip-rule="evenodd" d="M255.446,424.84c8.563-0.023,15.194,6.498,15.271,15.02
		c0.079,8.751-6.664,15.485-15.412,15.393c-8.521-0.091-15.051-6.736-15.021-15.285C240.312,431.437,246.902,424.863,255.446,424.84
		z"/>
	<path display="none" fill-rule="evenodd" clip-rule="evenodd" fill="#FFFFFF" d="M328.822,431.266c-47.718,0-95.139,0-142.826,0
		c0-98.848,0-197.41,0-296.334c47.573,0,94.975,0,142.826,0C328.822,233.505,328.822,332.179,328.822,431.266z"/>
</g>
<g display="none">
	<path fill-rule="evenodd" clip-rule="evenodd" fill="#FFFFFF" d="M0.511,510.5C0.507,339.547,0.507,168.594,0.507-2.43
		c170.904,0,341.816,0,512.86,0c0,170.93,0,341.93,0,512.93C342.432,510.5,171.473,510.5,0.511,510.5z M134.84,400.866
		c-2.449,0.654-4.315,1.164-6.188,1.651c-15.675,4.078-30.91,9.253-44.862,17.715c-7.095,4.303-13.272,9.525-17.251,16.941
		c-6.357,11.846-2.314,25.838,10.083,35.65c13.064,10.342,28.317,16.044,44.038,20.583c38.026,10.98,77.059,15.077,116.458,16.135
		c50.466,1.354,100.599-1.394,149.742-14.069c18.264-4.711,36.102-10.636,51.295-22.482c11.877-9.261,16.689-22.157,11.054-33.648
		c-2.819-5.748-7.463-11.16-12.526-15.141c-13.706-10.772-30.128-16.031-46.679-20.723c-3.106-0.881-6.241-1.666-10.092-2.689
		c53.587-39.587,85.333-91.248,91.461-157.025c6.15-66.021-14.588-123.587-60.905-170.716
		C330.7-8.113,204.829-12.769,119.354,59.291C72.21,99.035,45.872,150.448,42.996,212.094
		C39.321,290.875,71.864,353.212,134.84,400.866z"/>
	<path display="inline" fill-rule="evenodd" clip-rule="evenodd" d="M131.84,396.866c-62.976-47.654-95.519-109.991-91.844-188.772
		c2.876-61.646,29.214-113.059,76.357-152.803c85.476-72.06,211.347-67.404,291.112,13.757
		c46.317,47.129,67.056,104.694,60.905,170.716c-6.128,65.777-37.874,117.438-91.461,157.025c3.851,1.023,6.985,1.809,10.092,2.689
		c16.551,4.691,32.973,9.95,46.679,20.723c5.063,3.98,9.707,9.393,12.526,15.141c5.636,11.491,0.823,24.388-11.054,33.648
		c-15.193,11.847-33.031,17.771-51.295,22.482c-49.144,12.676-99.276,15.423-149.742,14.069
		c-39.399-1.058-78.432-5.154-116.458-16.135c-15.72-4.539-30.974-10.241-44.038-20.583c-12.396-9.813-16.439-23.805-10.083-35.65
		c3.979-7.416,10.156-12.639,17.251-16.941c13.952-8.462,29.187-13.637,44.862-17.715
		C127.524,398.03,129.391,397.521,131.84,396.866z M59.915,219.634c-0.278,106.643,86.94,194.18,194.053,194.762
		c106.881,0.581,195.235-87.583,195.117-194.696c-0.118-107.031-87.128-194.076-194.302-194.381
		C147.72,25.014,60.195,112.292,59.915,219.634z M264.162,486.691c11.104-0.683,32.09-1.439,52.967-3.386
		c28.715-2.678,57.237-7.08,84.166-17.96c8.629-3.486,16.712-8.798,24.248-14.354c5.021-3.702,4.48-7.844-0.055-12.334
		c-2.34-2.316-5.051-4.374-7.889-6.051c-18.642-11.018-39.402-15.712-60.275-20.147c-4.217-0.896-7.624-0.118-11.363,1.684
		c-21.469,10.352-44.082,16.879-67.801,19.334c-41.229,4.266-80.609-2.215-117.918-20.578c-1.529-0.753-3.536-1.223-5.171-0.945
		c-6.063,1.028-12.108,2.248-18.081,3.718c-16.511,4.064-32.834,8.731-47.385,17.938c-12.39,7.84-12.49,14.079-0.572,22.479
		c1.086,0.766,2.163,1.637,3.379,2.115c12.189,4.8,24.103,10.639,36.671,14.072C170.016,483.463,212.042,486.175,264.162,486.691z"
		/>
	<path fill-rule="evenodd" clip-rule="evenodd" fill="#FFFFFF" d="M62.915,223.634c0.28-107.342,87.805-194.62,194.868-194.315
		c107.174,0.305,194.184,87.35,194.302,194.381c0.118,107.113-88.236,195.277-195.117,194.696
		C149.855,417.813,62.637,330.276,62.915,223.634z M134.573,224.003c0.315,67.893,55.822,123.032,123.399,122.582
		c67.8-0.451,122.727-55.638,122.449-123.027c-0.277-67.633-55.354-122.62-122.895-122.697
		C189.952,100.783,134.261,156.56,134.573,224.003z"/>
	<path fill-rule="evenodd" clip-rule="evenodd" fill="#FFFFFF" d="M267.162,490.691c-52.121-0.517-94.146-3.229-135.08-14.415
		c-12.568-3.434-24.482-9.272-36.671-14.072c-1.216-0.479-2.292-1.35-3.379-2.115c-11.918-8.399-11.817-14.639,0.572-22.479
		c14.551-9.207,30.875-13.874,47.385-17.938c5.972-1.47,12.017-2.689,18.081-3.718c1.635-0.277,3.643,0.192,5.171,0.945
		c37.309,18.363,76.69,24.844,117.918,20.578c23.719-2.455,46.332-8.982,67.801-19.334c3.739-1.802,7.146-2.579,11.363-1.684
		c20.873,4.436,41.634,9.13,60.275,20.147c2.838,1.677,5.549,3.734,7.889,6.051c4.535,4.49,5.076,8.632,0.055,12.334
		c-7.536,5.556-15.619,10.867-24.248,14.354c-26.929,10.88-55.451,15.282-84.166,17.96
		C299.252,489.252,278.266,490.009,267.162,490.691z"/>
	<path display="inline" fill-rule="evenodd" clip-rule="evenodd" d="M131.573,220.003c-0.313-67.443,55.378-123.22,122.954-123.143
		c67.541,0.077,122.617,55.064,122.895,122.697c0.277,67.39-54.649,122.576-122.449,123.027
		C187.396,343.035,131.888,287.896,131.573,220.003z M254.512,322.191c56.396-0.023,102.234-45.942,102.245-102.424
		c0.011-56.524-45.756-102.304-102.268-102.297c-56.516,0.008-102.284,45.809-102.247,102.319
		C152.28,276.283,198.152,322.215,254.512,322.191z"/>
	<path fill-rule="evenodd" clip-rule="evenodd" fill="#FFFFFF" d="M257.512,326.191c-56.36,0.023-102.232-45.908-102.269-102.401
		c-0.037-56.511,45.731-102.312,102.247-102.319c56.512-0.007,102.278,45.772,102.268,102.297
		C359.746,280.249,313.907,326.168,257.512,326.191z M258.156,141.826c-44.049-1.071-81.529,35.491-82.573,80.552
		c-1.027,44.327,34.897,82.021,79.262,83.165c46.047,1.188,83.491-34.388,84.571-80.354
		C340.476,180.116,304.244,142.948,258.156,141.826z"/>
	<path display="inline" fill-rule="evenodd" clip-rule="evenodd" d="M255.156,137.826c46.088,1.122,82.319,38.29,81.26,83.362
		c-1.08,45.967-38.523,81.543-84.571,80.354c-44.365-1.145-80.29-38.838-79.262-83.165
		C173.627,173.317,211.107,136.755,255.156,137.826z M315.799,220c0.164-33.91-27.063-61.414-60.947-61.567
		c-33.989-0.153-61.298,26.812-61.64,60.864c-0.342,34.023,27.128,61.832,61.187,61.939
		C288.146,281.343,315.635,253.928,315.799,220z"/>
	<path fill-rule="evenodd" clip-rule="evenodd" fill="#FFFFFF" d="M318.799,224c-0.164,33.928-27.652,61.343-61.4,61.236
		c-34.059-0.107-61.529-27.916-61.187-61.939c0.342-34.053,27.651-61.018,61.64-60.864C291.736,162.586,318.963,190.09,318.799,224z
		"/>
</g>
<g display="none">
	<path fill-rule="evenodd" clip-rule="evenodd" fill="#FFFFFF" d="M513.5,387.5c0,42,0,84,0,126c-171,0-342,0-513,0
		c0-171,0-342,0-513c171,0,342,0,513,0c0,42.333,0,84.667,0,127c-0.403,0.293-0.778,0.639-1.214,0.872
		c-42.939,23.12-85.883,46.233-128.837,69.328c-0.809,0.435-1.742,0.636-3.019,1.088c0-17.423,0.125-34.409-0.077-51.392
		c-0.06-4.95-0.395-10.074-1.725-14.804c-6.98-24.824-25.971-38.978-51.994-38.988c-90.494-0.036-180.988-0.041-271.482,0.06
		c-4.945,0.006-10.068,0.437-14.802,1.763c-24.587,6.888-38.821,25.909-38.836,51.581C1.474,220.67,1.466,294.332,1.576,367.993
		c0.007,4.943,0.447,10.069,1.792,14.796c6.971,24.5,25.973,38.592,51.787,38.604c90.494,0.042,180.988,0.043,271.481-0.057
		c4.946-0.005,10.071-0.415,14.806-1.736c24.589-6.863,38.885-25.933,38.979-51.498c0.058-15.832,0.003-31.664,0.024-47.496
		c0.002-1.392,0.191-2.783,0.339-4.776c13.733,7.395,26.901,14.464,40.051,21.568C451.728,354.091,482.612,370.799,513.5,387.5z"/>
	<path display="inline" fill-rule="evenodd" clip-rule="evenodd" d="M508.939,384.2c-30.578-16.534-61.154-33.075-91.739-49.601
		c-13.018-7.033-26.054-14.033-39.65-21.354c-0.146,1.974-0.333,3.352-0.335,4.729c-0.021,15.674,0.032,31.348-0.024,47.021
		c-0.093,25.31-14.246,44.188-38.589,50.983c-4.688,1.308-9.761,1.714-14.657,1.719c-89.589,0.099-179.178,0.098-268.767,0.056
		c-25.556-0.012-44.368-13.963-51.269-38.218c-1.332-4.68-1.767-9.754-1.774-14.648c-0.108-72.925-0.101-145.85-0.061-218.775
		c0.015-25.415,14.106-44.246,38.448-51.065c4.687-1.313,9.759-1.739,14.654-1.745c89.588-0.1,179.178-0.095,268.767-0.059
		c25.763,0.011,44.563,14.022,51.474,38.599c1.317,4.682,1.648,9.755,1.708,14.655c0.2,16.813,0.076,33.629,0.076,50.878
		c1.264-0.448,2.188-0.647,2.988-1.077c42.524-22.864,85.038-45.746,127.549-68.635c0.431-0.231,0.802-0.573,1.201-0.863
		C508.939,212.6,508.939,298.399,508.939,384.2z M190.171,113.636c-43.886,0-87.771-0.004-131.657,0.011
		c-2.637,0.001-5.276,0.115-7.911,0.239c-6.673,0.314-12.456,2.867-17.521,7.127c-8.57,7.21-10.817,16.852-10.81,27.507
		c0.051,71.273,0.026,142.546,0.032,213.82c0,1.482,0.006,2.973,0.126,4.449c1.571,19.347,13.094,30.491,32.479,30.517
		c89.751,0.12,179.503,0.104,269.253-0.076c5.121-0.011,10.664-0.992,15.278-3.114c12.639-5.815,17.478-16.64,17.396-30.161
		c-0.159-26.394-0.255-52.788-0.243-79.183c0.02-45.532,0.243-91.064,0.091-136.596c-0.019-5.633-0.745-11.727-2.979-16.798
		c-5.784-13.139-16.969-17.837-30.888-17.793C278.603,113.725,234.386,113.637,190.171,113.636z M488.321,349.841
		c0-63.304,0-125.678,0-188.259c-0.855,0.27-1.342,0.344-1.749,0.564c-35.536,19.109-71.087,38.193-106.523,57.486
		c-1.474,0.804-2.646,3.564-2.664,5.425c-0.189,19.951-0.021,39.905-0.205,59.855c-0.034,3.748,0.955,5.77,4.442,7.615
		c27.074,14.328,54.004,28.93,80.977,43.449C470.985,340.491,479.368,345.015,488.321,349.841z"/>
	<path fill-rule="evenodd" clip-rule="evenodd" fill="#FFFFFF" d="M191.511,114.204c44.662,0,89.325,0.089,133.987-0.053
		c14.061-0.045,25.357,4.701,31.2,17.973c2.256,5.123,2.99,11.278,3.009,16.968c0.153,45.991-0.072,91.983-0.092,137.976
		c-0.012,26.661,0.085,53.322,0.245,79.982c0.082,13.658-4.806,24.592-17.572,30.466c-4.66,2.144-10.259,3.135-15.432,3.146
		c-90.657,0.183-181.315,0.198-271.973,0.077c-19.581-0.025-31.22-11.283-32.807-30.825c-0.121-1.491-0.128-2.996-0.128-4.494
		c-0.006-71.993,0.02-143.986-0.032-215.979c-0.007-10.763,2.262-20.502,10.919-27.785c5.116-4.304,10.957-6.882,17.698-7.199
		c2.662-0.125,5.327-0.24,7.991-0.241C102.853,114.199,147.182,114.203,191.511,114.204z"/>
	<path fill-rule="evenodd" clip-rule="evenodd" fill="#FFFFFF" d="M492.673,352.794c-9.043-4.875-17.511-9.444-25.982-14.005
		c-27.245-14.666-54.446-29.415-81.794-43.888c-3.522-1.864-4.522-3.906-4.487-7.691c0.186-20.152,0.016-40.308,0.207-60.46
		c0.018-1.88,1.202-4.668,2.691-5.479c35.794-19.488,71.704-38.765,107.599-58.067c0.412-0.222,0.903-0.297,1.767-0.569
		C492.673,225.847,492.673,288.852,492.673,352.794z"/>
</g>
<g display="none">
	<path display="inline" fill-rule="evenodd" clip-rule="evenodd" d="M417.859,508.941c-108.239,0-216.479,0-324.72,0
		c0-30.277,0-60.557,0-90.668c-0.896-0.26-1.202-0.424-1.508-0.426c-18.639-0.033-37.277-0.051-55.917-0.076
		c-21.081-0.027-33.648-12.496-33.651-33.432c-0.009-68.951-0.008-137.901-0.001-206.853c0.002-21.025,12.478-33.52,33.518-33.555
		c17.32-0.029,34.64,0.001,51.96-0.017c1.756-0.002,3.512-0.149,5.746-0.25c0-47.302,0-94.224,0-141.204
		c108.417,0,216.329,0,324.735,0c0,47.326,0,94.252,0,141.464c19.616,0,38.747-0.313,57.856,0.188
		c5.896,0.155,12.106,1.688,17.511,4.083c8.889,3.942,12.869,12.262,15.551,21.175c0,74.58,0,149.161,0,223.739
		c-0.285,0.385-0.686,0.729-0.838,1.16c-5.847,16.586-15.479,23.486-32.889,23.498c-17.312,0.012-34.623,0.004-51.936,0.004
		c-1.738,0-3.477,0-5.418,0C417.859,448.641,417.859,478.791,417.859,508.941z M417.841,397.09c1.895,0.109,3.336,0.264,4.777,0.266
		c17.652,0.016,35.304,0.043,52.954-0.006c9.709-0.027,13.101-3.363,13.105-13.131c0.039-68.957,0.04-137.913-0.002-206.87
		c-0.007-9.701-3.476-13.007-13.208-13.009c-22.931-0.003-45.861,0.049-68.792,0.047c-123.889-0.012-247.779-0.04-371.669-0.044
		c-9.058,0-12.663,3.425-12.67,12.543c-0.059,69.286-0.057,138.571-0.001,207.858c0.007,9.135,3.541,12.564,12.627,12.598
		c17.981,0.068,35.963,0.027,53.944,0.012c1.274,0,2.548-0.156,4.431-0.279c0-37.094,0-73.932,0-110.717
		c108.431,0,216.231,0,324.504,0C417.841,323.424,417.841,360.133,417.841,397.09z M396.897,488.381c0-60.877,0-121.432,0-181.963
		c-94.563,0-188.663,0-283.009,0c0,60.768,0,121.225,0,181.963C208.388,488.381,302.637,488.381,396.897,488.381z M113.965,22.623
		c0,40.487,0,80.65,0,120.899c94.573,0,188.816,0,282.972,0c0-40.542,0-80.679,0-120.899
		C302.378,22.623,208.246,22.623,113.965,22.623z"/>
	<path fill-rule="evenodd" clip-rule="evenodd" fill="#FFFFFF" d="M513.5,170.5c-2.709-9.003-6.729-17.407-15.708-21.389
		c-5.459-2.42-11.732-3.969-17.688-4.125c-19.303-0.506-38.627-0.189-58.441-0.189c0-47.688,0-95.089,0-142.893
		c-109.501,0-218.503,0-328.015,0c0,47.454,0,94.85,0,142.63c-2.257,0.102-4.03,0.25-5.804,0.252
		c-17.495,0.018-34.99-0.013-52.485,0.017c-21.253,0.036-33.854,12.657-33.856,33.895c-0.007,69.647-0.009,139.294,0.001,208.941
		c0.003,21.146,12.698,33.741,33.991,33.771c18.827,0.025,37.654,0.042,56.481,0.076c0.309,0.001,0.618,0.168,1.523,0.431
		c0,30.415,0,61,0,91.584c-30.988,0-61.976,0-92.982,0c0-170.922,0-341.844,0-512.883c170.982,0,341.982,0,512.982,0
		C513.5,57.211,513.5,113.855,513.5,170.5z"/>
	<path fill-rule="evenodd" clip-rule="evenodd" fill="#FFFFFF" d="M421.5,513.5c0-30.455,0-60.91,0-92.09c1.961,0,3.717,0,5.473,0
		c17.487,0,34.974,0.009,52.46-0.003c17.585-0.013,27.315-6.983,33.221-23.736c0.154-0.436,0.559-0.782,0.847-1.171c0,39,0,78,0,117
		C482.833,513.5,452.167,513.5,421.5,513.5z"/>
	<path fill-rule="evenodd" clip-rule="evenodd" fill="#FFFFFF" d="M421.48,400.519c0-37.332,0-74.411,0-111.852
		c-109.366,0-218.255,0-327.781,0c0,37.157,0,74.367,0,111.835c-1.901,0.124-3.188,0.281-4.476,0.282
		c-18.163,0.016-36.326,0.057-54.489-0.012c-9.179-0.034-12.748-3.497-12.755-12.726c-0.056-69.986-0.058-139.972,0.001-209.957
		c0.008-9.21,3.649-12.67,12.798-12.67c125.141,0.005,250.283,0.032,375.423,0.045c23.162,0.002,46.324-0.051,69.486-0.048
		c9.831,0.002,13.335,3.342,13.342,13.141c0.043,69.653,0.041,139.306,0.002,208.959c-0.005,9.867-3.431,13.236-13.237,13.264
		c-17.829,0.05-35.659,0.021-53.489,0.005C424.851,400.784,423.395,400.629,421.48,400.519z M421.452,216.621
		c0.041,11.257,9.067,20.276,20.323,20.308c11.172,0.031,20.396-9.047,20.545-20.22c0.15-11.292-9.251-20.598-20.709-20.497
		C430.313,196.312,421.411,205.324,421.452,216.621z"/>
	<path fill-rule="evenodd" clip-rule="evenodd" fill="#FFFFFF" d="M400.326,492.731c-95.213,0-190.414,0-285.868,0
		c0-61.352,0-122.42,0-183.802c95.3,0,190.349,0,285.868,0C400.326,370.072,400.326,431.238,400.326,492.731z M257.471,349.59
		c-32.637,0-65.274-0.021-97.912,0.041c-2.626,0.006-5.366,0.218-7.854,0.98c-6.402,1.961-9.098,10.86-4.157,15.287
		c2.76,2.473,7.317,4.115,11.072,4.13c65.773,0.242,131.548,0.182,197.323,0.145c2.14-0.001,4.333-0.225,6.408-0.728
		c5.272-1.278,8.188-5.966,7.258-11.31c-0.99-5.694-5.151-8.533-12.725-8.537C323.745,349.581,290.608,349.591,257.471,349.59z
		 M257.368,452.115c32.47,0,64.94,0.015,97.411-0.027c2.478-0.004,5.014-0.136,7.42-0.67c5.292-1.176,8.287-5.88,7.434-11.203
		c-0.922-5.75-5.08-8.656-12.589-8.658c-66.273-0.012-132.546-0.016-198.819,0.031c-2.126,0.002-4.335,0.301-6.362,0.927
		c-6.689,2.063-9.309,10.942-4.096,15.565c2.662,2.361,7.062,3.834,10.693,3.865C191.427,452.233,224.398,452.114,257.368,452.115z
		 M237.063,390.569c-25.813,0-51.625-0.003-77.438,0.001c-9.25,0.002-14.356,3.522-14.542,10.005
		c-0.192,6.7,5.104,10.584,14.473,10.585c51.459,0.003,102.919,0.011,154.378-0.027c2.476-0.002,5.432,0.34,7.313-0.838
		c2.841-1.779,6.073-4.355,7.11-7.306c2.39-6.796-3.263-12.39-11.856-12.403C290.021,390.542,263.542,390.569,237.063,390.569z"/>
	<path fill-rule="evenodd" clip-rule="evenodd" fill="#FFFFFF" d="M114.536,22.269c95.233,0,190.316,0,285.83,0
		c0,40.626,0,81.168,0,122.12c-95.105,0-190.301,0-285.83,0C114.536,103.733,114.536,63.164,114.536,22.269z"/>
	<path display="inline" fill-rule="evenodd" clip-rule="evenodd" d="M417.813,215.032c-0.041-11.184,8.772-20.106,19.957-20.205
		c11.344-0.1,20.651,9.113,20.502,20.292c-0.146,11.061-9.279,20.048-20.339,20.018
		C426.789,235.105,417.853,226.176,417.813,215.032z"/>
	<path display="inline" fill-rule="evenodd" clip-rule="evenodd" d="M255.471,346.672c32.807,0,65.611-0.01,98.418,0.008
		c7.498,0.004,11.617,2.814,12.598,8.451c0.92,5.291-1.966,9.932-7.186,11.197c-2.055,0.498-4.226,0.719-6.344,0.721
		c-65.117,0.037-130.234,0.096-195.35-0.145c-3.717-0.014-8.229-1.641-10.961-4.088c-4.891-4.383-2.223-13.193,4.116-15.135
		c2.464-0.754,5.176-0.965,7.776-0.971C190.849,346.65,223.161,346.672,255.471,346.672z"/>
	<path display="inline" fill-rule="evenodd" clip-rule="evenodd" d="M255.369,448.172c-32.641-0.002-65.281,0.117-97.919-0.168
		c-3.595-0.031-7.951-1.49-10.586-3.828c-5.161-4.576-2.567-13.367,4.055-15.408c2.006-0.621,4.194-0.916,6.299-0.918
		c65.61-0.047,131.22-0.043,196.83-0.031c7.435,0.002,11.551,2.879,12.464,8.572c0.845,5.27-2.121,9.926-7.359,11.09
		c-2.383,0.529-4.894,0.66-7.346,0.664C319.66,448.186,287.514,448.172,255.369,448.172z"/>
	<path display="inline" fill-rule="evenodd" clip-rule="evenodd" d="M235.267,387.24c26.215,0,52.429-0.027,78.644,0.018
		c8.508,0.014,14.104,5.551,11.737,12.279c-1.026,2.92-4.227,5.471-7.039,7.232c-1.862,1.166-4.79,0.828-7.24,0.83
		c-50.944,0.037-101.889,0.029-152.834,0.025c-9.274,0-14.518-3.846-14.328-10.479c0.184-6.418,5.238-9.902,14.396-9.904
		C184.157,387.238,209.712,387.24,235.267,387.24z"/>
</g>
<g display="none">
	<path fill-rule="evenodd" clip-rule="evenodd" fill="#FFFFFF" d="M513.5,406.5c0,35.667,0,71.333,0,107c-171,0-342,0-513,0
		c0-171,0-342,0-513c171,0,342,0,513,0c0,39.333,0,78.667,0,118c-0.226-0.234-0.556-0.429-0.66-0.708
		c-6.789-18.123-15.551-24.2-34.938-24.201c-30.829-0.002-61.66-0.079-92.488,0.092c-4.142,0.023-6.916-1.221-9.171-4.595
		c-5.55-8.303-11.119-16.6-16.96-24.697c-5.829-8.082-13.674-11.917-23.939-11.875c-51.826,0.212-103.655,0.22-155.481-0.005
		c-10.459-0.045-18.408,3.835-24.321,12.114c-5.803,8.126-11.387,16.411-16.967,24.693c-2.154,3.197-4.818,4.385-8.782,4.364
		c-31.662-0.165-63.326-0.12-94.989-0.082c-20.542,0.024-33.295,12.853-33.298,33.462c-0.013,90.322-0.012,180.646,0,270.969
		c0.003,20.928,12.639,33.508,33.648,33.516c42.162,0.016,84.324,0.005,126.485,0.005c106.155,0,212.309-0.036,318.464,0.053
		c11.246,0.01,20.719-3.421,27.305-12.707C510.037,415.19,511.504,410.657,513.5,406.5z"/>
	<path display="inline" fill-rule="evenodd" clip-rule="evenodd" d="M508.939,418.855c-1.976,4.115-3.428,8.604-6.031,12.273
		c-6.521,9.193-15.898,12.59-27.032,12.58c-105.094-0.088-210.187-0.053-315.279-0.053c-41.74,0-83.48,0.011-125.221-0.004
		c-20.799-0.008-33.309-12.463-33.312-33.181c-0.011-89.421-0.012-178.84,0-268.259c0.003-20.403,12.629-33.103,32.965-33.127
		c31.347-0.038,62.693-0.082,94.039,0.081c3.924,0.021,6.562-1.155,8.694-4.32c5.524-8.2,11.052-16.402,16.797-24.446
		c5.854-8.197,13.724-12.038,24.078-11.993c51.308,0.222,102.619,0.214,153.926,0.005c10.164-0.042,17.93,3.755,23.701,11.756
		c5.782,8.017,11.296,16.231,16.79,24.451c2.232,3.34,4.979,4.572,9.079,4.548c30.52-0.169,61.043-0.093,91.563-0.091
		c19.192,0.001,27.867,6.018,34.588,23.959c0.104,0.276,0.431,0.469,0.653,0.701C508.939,228.775,508.939,323.815,508.939,418.855z
		 M255.322,423.465c73.072,0,146.146,0.005,219.219-0.006c10.894-0.002,14.149-3.246,14.151-14.2
		c0.015-88.579,0.016-177.158-0.001-265.736c-0.002-10.997-3.102-14.029-14.202-14.035c-31.012-0.015-62.024-0.2-93.032,0.104
		c-10.397,0.103-18.16-3.872-23.975-12.112c-5.604-7.94-11.087-15.969-16.496-24.043c-2.234-3.336-5.012-4.567-9.102-4.557
		c-50.804,0.129-101.609,0.146-152.414-0.02c-4.53-0.016-7.443,1.477-9.852,5.071c-5.503,8.211-11.001,16.434-16.807,24.43
		c-5.46,7.521-12.805,11.297-22.418,11.205c-25.235-0.244-50.475-0.084-75.712-0.081c-7.093,0.001-14.189-0.109-21.278,0.061
		c-7.056,0.171-10.477,3.598-11.024,10.654c-0.114,1.477-0.079,2.967-0.08,4.451c-0.003,87.92-0.005,175.839,0.012,263.758
		c0,2.138,0.065,4.299,0.375,6.408c0.677,4.609,3.464,7.402,8.004,8.21c2.252,0.4,4.592,0.423,6.892,0.423
		C110.164,423.469,182.743,423.465,255.322,423.465z"/>
	<path fill-rule="evenodd" clip-rule="evenodd" fill="#FFFFFF" d="M257.32,411.156c-73.313,0-146.624,0.004-219.936-0.017
		c-2.323-0.001-4.687-0.023-6.962-0.428c-4.586-0.815-7.402-3.637-8.085-8.293c-0.313-2.131-0.378-4.313-0.378-6.473
		c-0.018-88.808-0.016-177.614-0.013-266.422c0-1.499-0.035-3.004,0.081-4.496c0.553-7.128,4.009-10.589,11.136-10.762
		c7.161-0.172,14.328-0.061,21.493-0.062c25.492-0.004,50.986-0.165,76.477,0.081c9.71,0.094,17.129-3.721,22.645-11.317
		c5.864-8.077,11.418-16.383,16.977-24.677c2.433-3.63,5.375-5.138,9.951-5.122c51.317,0.168,102.636,0.151,153.954,0.021
		c4.131-0.011,6.936,1.232,9.192,4.603c5.464,8.156,11.003,16.266,16.663,24.286c5.873,8.323,13.715,12.338,24.217,12.234
		c31.321-0.307,62.647-0.119,93.972-0.104c11.213,0.006,14.344,3.069,14.346,14.177c0.017,89.474,0.016,178.947,0.001,268.421
		c-0.002,11.064-3.29,14.342-14.294,14.344C404.942,411.161,331.131,411.156,257.32,411.156z M257.137,380.423
		c72.875,0.521,132.907-59.125,133.406-132.551c0.498-73.405-58.737-133.061-132.68-133.62
		c-73.019-0.552-132.801,58.776-133.405,132.394C123.858,319.823,183.438,379.896,257.137,380.423z M88.354,185.851
		c0.002-0.088,0.004-0.176,0.006-0.264c2.329,0,4.666,0.136,6.983-0.023c10.21-0.702,18.058-8.852,18.688-19.303
		c0.609-10.093-6.734-19.584-16.879-20.815c-5.717-0.694-11.658-0.684-17.374,0.018c-9.715,1.19-16.801,10.07-16.762,19.95
		c0.037,9.602,7.11,18.346,16.382,19.926C82.328,185.839,85.366,185.698,88.354,185.851z"/>
	<path display="inline" fill-rule="evenodd" clip-rule="evenodd" d="M255.141,393.039c-72.963-0.522-131.946-59.994-131.352-132.439
		c0.598-72.881,59.782-131.616,132.071-131.07c73.203,0.554,131.846,59.613,131.353,132.285
		C386.719,334.506,327.286,393.556,255.141,393.039z M256.075,149.674c-61.078-0.722-111.644,49.494-112.104,111.328
		c-0.453,60.828,48.873,110.535,110.706,111.562c61.088,1.013,111.753-48.497,112.194-110.907
		C367.305,200.231,318.505,150.61,256.075,149.674z"/>
	<path display="inline" fill-rule="evenodd" clip-rule="evenodd" d="M88.046,200.413c-2.958-0.151-5.967-0.012-8.867-0.507
		c-9.179-1.564-16.181-10.221-16.218-19.727c-0.039-9.781,6.977-18.572,16.594-19.75c5.659-0.694,11.541-0.705,17.2-0.018
		c10.044,1.219,17.314,10.616,16.711,20.607c-0.624,10.347-8.394,18.415-18.502,19.11c-2.293,0.158-4.607,0.023-6.913,0.023
		C88.05,200.238,88.048,200.326,88.046,200.413z"/>
	<path fill-rule="evenodd" clip-rule="evenodd" fill="#FFFFFF" d="M258.081,134.6c63.061,0.945,112.354,51.067,111.916,113.113
		c-0.445,63.04-51.622,113.051-113.327,112.027c-62.458-1.036-112.282-51.245-111.825-112.688
		C145.31,184.594,196.386,133.871,258.081,134.6z M257.657,155.216c-50.878-0.178-92.188,41.028-92.245,92.011
		c-0.057,50.623,40.922,91.841,91.68,92.217c50.642,0.375,92.316-41.035,92.492-91.902
		C349.76,196.595,308.736,155.394,257.657,155.216z"/>
	<path display="inline" fill-rule="evenodd" clip-rule="evenodd" d="M255.655,170.084c50.568,0.176,91.182,40.965,91.009,91.402
		c-0.174,50.358-41.432,91.354-91.567,90.983c-50.25-0.372-90.819-41.179-90.764-91.295
		C164.39,210.702,205.286,169.908,255.655,170.084z M255.495,332.022c39.122,0.005,70.81-31.554,70.981-70.692
		c0.17-38.839-31.736-70.91-70.726-71.091c-39.09-0.182-71.385,32.047-71.228,71.082
		C184.681,300.451,216.369,332.019,255.495,332.022z"/>
	<path fill-rule="evenodd" clip-rule="evenodd" fill="#FFFFFF" d="M257.495,318.79c-39.521-0.004-71.53-31.891-71.688-71.416
		c-0.159-39.429,32.462-71.983,71.947-71.8c39.383,0.183,71.611,32.578,71.439,71.81
		C329.021,286.917,297.013,318.795,257.495,318.79z"/>
</g>
<g display="none">
	<path fill-rule="evenodd" clip-rule="evenodd" fill="#FFFFFF" d="M513.5,105.5c0,135.917,0,271.834,0,408c-136,0-272,0-408,0
		c11.507-2.305,18.329-10.054,24.449-19.501c19.913-30.741,40.075-61.328,60.685-91.604c8.331-12.239,9.08-24.771,3.001-37.28
		c-8.205-16.885-17.64-33.18-26.833-49.568c-1.849-3.296-1.667-5.342,0.604-8.266c40.465-52.104,86.749-98.367,138.69-139.028
		c3.839-3.006,6.477-3.283,10.802-0.814c16.028,9.148,32.074,18.362,48.691,26.353c12.15,5.842,24.413,5.241,36.382-2.896
		c30.426-20.687,61.16-40.928,92.057-60.906C503.5,123.862,511.141,116.957,513.5,105.5z"/>
	<path fill-rule="evenodd" clip-rule="evenodd" fill="#FFFFFF" d="M94.5,513.5c-31.333,0-62.667,0-94,0c0-171,0-342,0-513
		c171,0,342,0,513,0c0,31.333,0,62.667,0,94c-2.687-6.188-4.354-13.12-8.235-18.437c-16.733-22.918-35.188-44.365-57.236-62.479
		c-10.9-8.955-22.85-14.463-37.291-11.366c-14.601,3.132-29.531,5.412-43.606,10.168c-39.537,13.358-74.305,35.658-107.438,60.526
		c-51.492,38.647-97.609,83.143-140.661,130.878c-32.539,36.079-62.42,74.157-85.871,116.913
		c-14.238,25.96-25.268,53.058-30.351,82.499c-3.143,18.201-0.151,34.106,13.111,47.391c12.107,12.128,23.906,24.629,36.736,35.951
		C65.143,497.563,77.399,509.435,94.5,513.5z"/>
	<path display="inline" fill-rule="evenodd" clip-rule="evenodd" d="M94.131,509.028c-16.93-4.025-29.064-15.777-41.425-26.686
		c-12.702-11.209-24.382-23.586-36.369-35.592c-13.129-13.15-16.091-28.898-12.979-46.916c5.032-29.148,15.952-55.975,30.047-81.675
		c23.216-42.328,52.799-80.025,85.012-115.744c42.622-47.258,88.277-91.308,139.255-129.569
		c32.802-24.62,67.222-46.696,106.363-59.921C377.97,8.218,392.751,5.96,407.206,2.86c14.297-3.066,26.126,2.387,36.918,11.252
		c21.828,17.932,40.098,39.165,56.664,61.854c3.843,5.263,5.493,12.125,8.152,18.252c0,3.63,0,7.26,0,10.89
		c-2.336,11.343-9.899,18.179-19.275,24.243c-30.588,19.779-61.015,39.817-91.137,60.297c-11.849,8.056-23.989,8.651-36.018,2.867
		c-16.451-7.91-32.337-17.032-48.204-26.089c-4.282-2.444-6.894-2.169-10.694,0.806c-51.422,40.255-97.243,86.055-137.303,137.638
		c-2.249,2.895-2.429,4.92-0.599,8.184c9.101,16.225,18.442,32.357,26.564,49.072c6.018,12.385,5.276,24.791-2.971,36.908
		c-20.404,29.973-40.364,60.254-60.078,90.688c-6.059,9.354-12.813,17.025-24.205,19.307
		C101.391,509.028,97.761,509.028,94.131,509.028z M413.992,22.678c-16.113,0.833-30.457,4.483-44.452,9.544
		c-36.183,13.084-68.3,33.419-98.933,56.235c-45.136,33.617-85.787,72.234-124.15,113.266
		c-36.125,38.639-69.528,79.436-95.185,126.005c-12.292,22.312-22.042,45.591-27.117,70.769c-2.933,14.551-1.75,27.305,9.861,37.928
		c13.37,12.232,26.291,24.953,39.707,37.133c5.099,4.631,10.756,8.795,16.645,12.371c8.417,5.113,14.628,3.361,20.016-4.764
		c20.59-31.057,41.041-62.205,61.849-93.113c3.891-5.779,4.022-11.295,1.874-17.275c-1.163-3.236-2.727-6.365-4.408-9.375
		c-9.32-16.691-18.674-33.364-28.174-49.953c-1.431-2.498-1.472-4.307,0.242-6.604c6.704-8.982,12.938-18.332,19.943-27.068
		c23.166-28.89,49.098-55.231,75.89-80.711c20.928-19.904,42.584-38.983,66.764-54.985c2.648-1.754,4.576-2.102,7.453-0.333
		c7.578,4.657,15.367,8.981,23.16,13.279c11.249,6.203,22.469,12.479,33.914,18.307c6.675,3.398,12.983,3.17,19.85-1.485
		c30.975-21.003,62.331-41.444,93.541-62.101c6.004-3.974,7.765-8.368,5.439-15.183c-1.095-3.209-2.981-6.233-4.94-9.041
		c-2.922-4.188-6.128-8.19-9.381-12.131c-13.775-16.686-27.983-32.958-45.449-45.996C423.487,24.065,418.757,21.44,413.992,22.678z"
		/>
	<path fill-rule="evenodd" clip-rule="evenodd" fill="#FFFFFF" d="M417.593,22.237c4.813-1.25,9.591,1.401,14.099,4.767
		c17.643,13.17,31.994,29.605,45.908,46.46c3.286,3.981,6.524,8.023,9.476,12.254c1.979,2.836,3.885,5.891,4.99,9.132
		c2.349,6.884,0.57,11.322-5.494,15.337c-31.525,20.865-63.198,41.513-94.486,62.728c-6.936,4.702-13.308,4.933-20.05,1.5
		c-11.561-5.888-22.894-12.227-34.257-18.492c-7.872-4.341-15.739-8.709-23.394-13.413c-2.906-1.787-4.854-1.436-7.529,0.336
		c-24.423,16.164-46.299,35.436-67.438,55.541c-27.063,25.737-53.256,52.345-76.656,81.526
		c-7.076,8.824-13.374,18.269-20.145,27.342c-1.731,2.32-1.689,4.146-0.244,6.67c9.596,16.757,19.044,33.599,28.459,50.458
		c1.698,3.041,3.278,6.2,4.453,9.471c2.17,6.041,2.037,11.611-1.893,17.449c-21.018,31.221-41.676,62.684-62.474,94.053
		c-5.442,8.208-11.715,9.978-20.218,4.813c-5.948-3.612-11.662-7.819-16.813-12.496c-13.551-12.303-26.603-25.153-40.107-37.508
		c-11.729-10.731-12.923-23.613-9.961-38.313c5.126-25.432,14.974-48.945,27.391-71.482c25.915-47.04,59.655-88.249,96.146-127.278
		c38.75-41.446,79.812-80.453,125.404-114.41c30.941-23.046,63.384-43.587,99.932-56.803
		C386.828,26.766,401.316,23.079,417.593,22.237z"/>
</g>
<g display="none">
	<path fill-rule="evenodd" clip-rule="evenodd" fill="#FFFFFF" d="M412.5,513.5c-137.334,0-274.667,0-412,0c0-171,0-342,0-513
		c171,0,342,0,513,0c0,136.333,0,272.667,0,409c-2.293-11.281-9.768-18.131-19.09-24.174c-30.878-20.013-61.61-40.265-92.029-60.968
		c-12.243-8.333-24.775-9.065-37.283-2.985c-16.886,8.207-33.185,17.64-49.571,26.839c-3.316,1.861-5.328,1.556-8.273-0.622
		c-27.553-20.379-52.696-43.516-76.336-68.18c-19.806-20.664-38.115-42.754-57.655-63.682c-7.95-8.516-8.244-15.349-1.747-25.155
		c8.597-12.978,15.724-27.053,22.313-41.2c5.699-12.237,5.162-24.421-2.964-36.393c-21.974-32.374-43.341-65.16-64.889-97.822
		c-4.66-7.064-10.992-11.299-19.312-12.909C95.271,0.043,84.992,3.003,76.025,9.628C53.064,26.595,31.455,45.107,13.29,67.335
		C4.472,78.123-0.838,89.992,2.216,104.229c3.132,14.601,5.411,29.53,10.156,43.609c13.331,39.553,35.715,74.267,60.499,107.458
		c34.301,45.938,73.637,87.361,115.369,126.521c35.284,33.109,72.501,63.857,113.854,89.256
		c23.752,14.588,48.428,27.381,75.356,35.027C388.909,509.355,400.804,511.08,412.5,513.5z"/>
	<path display="inline" fill-rule="evenodd" clip-rule="evenodd" d="M409.041,508.939c-11.58-2.395-23.355-4.102-34.701-7.324
		c-26.658-7.57-51.088-20.234-74.602-34.676c-40.939-25.145-77.784-55.586-112.715-88.363
		c-41.314-38.77-80.257-79.777-114.215-125.257c-24.536-32.86-46.696-67.227-59.894-106.384
		c-4.698-13.938-6.953-28.719-10.054-43.173c-3.024-14.095,2.234-25.845,10.963-36.525c17.983-22.005,39.376-40.333,62.108-57.13
		c8.876-6.559,19.053-9.489,30.331-7.305c8.236,1.594,14.505,5.786,19.119,12.78c21.333,32.335,42.486,64.793,64.24,96.844
		c8.045,11.852,8.577,23.914,2.935,36.029c-6.524,14.006-13.58,27.94-22.09,40.788c-6.432,9.708-6.141,16.473,1.729,24.904
		c19.345,20.718,37.471,42.588,57.079,63.045c23.404,24.418,48.296,47.322,75.573,67.498c2.915,2.156,4.907,2.459,8.19,0.615
		c16.223-9.107,32.359-18.445,49.076-26.57c12.383-6.02,24.789-5.294,36.91,2.955c30.115,20.496,60.539,40.547,91.109,60.359
		c9.229,5.982,16.629,12.764,18.898,23.932c0,3.631,0,7.26,0,10.891c-2.879,6.363-4.568,13.703-8.854,18.91
		c-14.516,17.643-29.525,34.928-45.193,51.549c-9.107,9.664-19.717,17.986-33.074,21.609
		C417.621,508.939,413.33,508.939,409.041,508.939z M412.564,488.305c8.191,0.322,11.15-0.893,19.137-7.424
		c15.795-12.916,29.363-27.973,42.105-43.803c4.336-5.385,8.732-10.818,12.262-16.73c4.943-8.283,3.178-14.373-4.752-19.631
		c-31.055-20.592-62.211-41.033-93.107-61.859c-5.953-4.016-11.588-4.105-17.73-1.867c-3.08,1.121-6.055,2.615-8.922,4.219
		c-16.541,9.252-33.086,18.498-49.502,27.967c-3.023,1.742-5.146,1.674-7.881-0.395c-8.807-6.66-18.031-12.787-26.637-19.691
		c-28.756-23.069-54.972-48.893-80.347-75.555c-20.025-21.042-39.201-42.833-55.289-67.153c-1.67-2.525-1.85-4.359-0.226-7.032
		c4.706-7.743,9.152-15.649,13.522-23.59c6.194-11.254,12.427-22.497,18.257-33.939c3.335-6.546,3.003-12.731-1.51-19.402
		c-21.063-31.134-41.708-62.553-62.284-94.013c-3.327-5.086-7.527-6.825-12.978-5.517c-3.285,0.789-6.733,2.063-9.402,4.062
		C66.912,42.208,47.712,58.722,31.003,78.093c-7.208,8.357-9.251,17.133-7.717,27.787c3.989,27.702,14.626,52.933,27.927,77.17
		c21.783,39.691,49.4,75.183,79.472,108.836c38.104,42.642,78.877,82.529,123.663,118.164
		c32.216,25.633,66.092,48.711,104.354,64.607C375.973,481.834,393.742,487.203,412.564,488.305z"/>
	<path fill-rule="evenodd" clip-rule="evenodd" fill="#FFFFFF" d="M425.5,513.5c13.492-3.66,24.207-12.066,33.408-21.828
		c15.826-16.79,30.987-34.25,45.649-52.069c4.327-5.26,6.034-12.675,8.942-19.103c0,31,0,62,0,93
		C484.167,513.5,454.833,513.5,425.5,513.5z"/>
	<path fill-rule="evenodd" clip-rule="evenodd" fill="#FFFFFF" d="M416.06,492.656c-19.014-1.112-36.963-6.536-54.408-13.784
		c-38.647-16.058-72.866-39.368-105.407-65.261c-45.238-35.995-86.423-76.285-124.912-119.357
		c-30.375-33.993-58.271-69.844-80.274-109.936c-13.436-24.482-24.181-49.969-28.209-77.95c-1.55-10.761,0.513-19.626,7.794-28.067
		c16.878-19.566,36.271-36.247,56.845-51.658c2.695-2.019,6.179-3.306,9.497-4.103c5.506-1.322,9.749,0.435,13.109,5.572
		c20.784,31.777,41.637,63.514,62.913,94.962c4.559,6.738,4.894,12.986,1.525,19.599c-5.889,11.559-12.184,22.914-18.441,34.282
		c-4.414,8.021-8.905,16.007-13.659,23.828c-1.641,2.699-1.459,4.552,0.229,7.103c16.25,24.565,35.62,46.577,55.847,67.831
		c25.631,26.932,52.112,53.016,81.158,76.317c8.692,6.975,18.011,13.163,26.907,19.892c2.761,2.088,4.905,2.158,7.96,0.397
		c16.582-9.563,33.294-18.904,50.002-28.248c2.896-1.62,5.901-3.13,9.012-4.263c6.205-2.26,11.896-2.169,17.91,1.886
		c31.208,21.038,62.679,41.686,94.047,62.485c8.011,5.312,9.793,11.463,4.8,19.828c-3.564,5.973-8.006,11.461-12.385,16.9
		c-12.871,15.99-26.576,31.198-42.53,44.245C427.321,491.755,424.334,492.981,416.06,492.656z"/>
</g>
<g display="none">
	<path fill-rule="evenodd" clip-rule="evenodd" fill="#FFFFFF" d="M513.5,513.493c-170.955,0.002-341.911,0.002-512.933,0.002
		c0-170.909,0-341.822,0-512.865c170.933,0,341.933,0,512.933-0.007C513.5,171.574,513.5,342.532,513.5,513.493z M370.449,175.707
		c0-20.999,0.04-41.998-0.013-62.996c-0.041-16.372-3.086-32.165-10.248-46.939C338.344,20.708,292.033-4.082,242.193,2.409
		c-56.34,7.339-97.476,53.839-97.622,110.547c-0.107,41.831-0.049,83.662-0.007,125.493c0.017,16.372,3.086,32.166,10.25,46.938
		c22.024,45.414,68.725,70.151,118.98,63.225c55.825-7.694,96.439-54.062,96.643-110.409
		C370.513,217.372,370.45,196.539,370.449,175.707z M124.879,512.312c88.256,0,176.281,0,264.59,0c0-3.896,0.001-7.377,0-10.858
		c-0.012-24.573-14.509-38.994-39.223-39.004c-18.664-0.007-37.328-0.001-55.992-0.001c-1.766,0-3.531,0-5.485,0
		c0-22.295,0-43.913,0-65.536c0.54-0.245,0.967-0.498,1.429-0.636c1.115-0.331,2.24-0.634,3.373-0.903
		c34.258-8.141,63.202-25.241,86.294-51.846c24.272-27.967,37.877-60.508,39.524-97.583c0.843-18.963,0.426-37.982,0.524-56.977
		c0.009-1.814-0.141-3.691-0.607-5.435c-1.367-5.104-6.489-7.619-11.393-5.638c-4.29,1.733-5.635,5.241-5.622,9.608
		c0.044,14.998-0.032,29.996,0.021,44.994c0.108,30.035-6.938,58.083-23.645,83.276c-22.758,34.318-54.461,55.819-94.9,63.382
		c-37.433,7.001-72.649-0.007-104.666-20.764c-30.384-19.698-50.559-47.236-60.729-82.073c-4.29-14.693-5.589-29.731-5.662-44.929
		c-0.07-14.664,0.087-29.33-0.063-43.993c-0.083-8.149-6.481-12.515-12.898-9.067c-3.894,2.093-4.704,5.707-4.698,9.743
		c0.024,14.997,0.093,29.996-0.013,44.993c-0.234,33.148,7.854,63.963,26.048,91.816c21.976,33.645,52.285,56.324,90.808,67.914
		c4.742,1.427,9.564,2.588,14.124,3.812c0,22.14,0,43.87,0,65.84c-2.232,0-4.055,0-5.878,0c-19.997,0.002-39.996-0.158-59.991,0.055
		c-18.349,0.196-32.949,12.802-35.148,30.531C124.231,499.244,124.879,505.63,124.879,512.312z"/>
	<path display="inline" fill-rule="evenodd" clip-rule="evenodd" d="M367.319,175.132c0.001,20.624,0.063,41.249-0.012,61.871
		c-0.201,55.784-40.409,101.688-95.676,109.305c-49.752,6.857-95.986-17.632-117.79-62.592
		c-7.093-14.626-10.132-30.261-10.148-46.47c-0.042-41.413-0.1-82.826,0.007-124.238c0.145-56.141,40.87-102.176,96.646-109.441
		c49.341-6.426,95.189,18.116,116.815,62.729c7.091,14.626,10.105,30.261,10.146,46.47
		C367.359,133.554,367.319,154.343,367.319,175.132z M346.306,134.408c-2.376,0-4.178,0.001-5.979,0
		c-15.84,0-31.679,0.036-47.518-0.019c-6.16-0.021-10.141-2.765-11.359-7.548c-1.764-6.906,3.006-12.472,11.205-12.55
		c15.838-0.152,31.679-0.049,47.518-0.052c1.939,0,3.879,0,6.388,0c-0.456-32.993-13.749-58.557-40.902-76.186
		c-31.528-20.468-72.989-19.606-102.587,1.401c-25.563,18.143-38.271,42.937-38.619,74.785c8.775,0,16.832-0.001,24.889,0.001
		c9.899,0.002,19.801-0.099,29.698,0.053c5.543,0.085,9.359,2.926,10.477,7.373c1.127,4.488-0.119,8.474-4.054,10.733
		c-2.413,1.385-5.614,1.893-8.471,1.925c-15.673,0.177-31.348,0.084-47.022,0.085c-1.736,0-3.473,0-5.205,0
		c0,7.123,0,13.482,0,20.378c2.062,0,3.838,0,5.614,0c15.84,0.001,31.679-0.036,47.518,0.021c6.205,0.023,9.95,2.344,11.444,6.779
		c2.402,7.131-2.63,13.299-11.192,13.358c-16.004,0.109-32.009,0.032-48.013,0.033c-1.752,0-3.505,0-5.437,0
		c0,6.999,0,13.362,0,20.352c1.99,0,3.759,0,5.529,0c15.674,0,31.35-0.117,47.021,0.105c2.975,0.042,6.361,0.774,8.796,2.358
		c3.791,2.467,4.771,6.573,3.197,10.972c-1.834,5.124-6.005,6.712-10.939,6.74c-13.034,0.072-26.069,0.026-39.103,0.027
		c-4.742,0.001-9.483,0-15.446,0c0.818,13.323,0.5,26.284,2.74,38.787c1.733,9.67,5.235,19.665,10.43,27.963
		c21.386,34.168,53.02,48.844,92.688,43.043c49.793-7.282,84.244-49.354,76.207-109.793c-1.741,0-3.531,0-5.32,0
		c-16.005-0.001-32.011,0.087-48.014-0.037c-8.761-0.069-13.887-7.456-10.286-14.601c2.32-4.607,6.6-5.561,11.273-5.562
		c15.839-0.001,31.68,0.006,47.519-0.014c1.756-0.002,3.513-0.148,5.26-0.226c0-6.899,0-13.267,0-20.115c-2.048,0-3.819,0-5.593,0
		c-16.004,0-32.009,0.077-48.012-0.032c-8.843-0.06-13.972-7.217-10.494-14.444c2.241-4.66,6.479-5.707,11.168-5.71
		c15.84-0.008,31.679-0.005,47.518-0.006c1.764,0,3.526,0,5.472,0C346.306,147.751,346.306,141.386,346.306,134.408z"/>
	<path display="inline" fill-rule="evenodd" clip-rule="evenodd" d="M124.205,508.371c0-6.615-0.641-12.938,0.121-19.084
		c2.177-17.553,16.631-30.033,34.797-30.227c19.795-0.211,39.594-0.053,59.392-0.055c1.805,0,3.609,0,5.819,0
		c0-21.75,0-43.264,0-65.182c-4.514-1.211-9.288-2.359-13.982-3.773c-38.137-11.475-68.144-33.928-89.899-67.234
		c-18.012-27.576-26.019-58.082-25.787-90.898c0.104-14.847,0.036-29.696,0.012-44.543c-0.006-3.996,0.796-7.574,4.651-9.646
		c6.353-3.413,12.687,0.909,12.769,8.977c0.148,14.516-0.007,29.036,0.063,43.553c0.072,15.045,1.359,29.933,5.605,44.479
		c10.068,34.488,30.041,61.752,60.121,81.252c31.696,20.551,66.561,27.488,103.619,20.557c40.034-7.486,71.421-28.771,93.951-62.748
		c16.539-24.941,23.516-52.709,23.408-82.443c-0.054-14.848,0.022-29.696-0.021-44.544c-0.013-4.323,1.318-7.796,5.566-9.512
		c4.854-1.961,9.925,0.528,11.278,5.582c0.462,1.726,0.61,3.584,0.602,5.38c-0.098,18.804,0.314,37.634-0.52,56.407
		c-1.631,36.704-15.1,68.919-39.129,96.606c-22.861,26.34-51.516,43.27-85.432,51.328c-1.121,0.266-2.234,0.566-3.339,0.895
		c-0.458,0.135-0.88,0.387-1.415,0.629c0,21.406,0,42.811,0,64.881c1.936,0,3.684,0,5.432,0c18.477,0,36.954-0.006,55.432,0
		c24.467,0.01,38.819,14.289,38.83,38.615c0.001,3.447,0,6.893,0,10.75C298.723,508.371,211.578,508.371,124.205,508.371z
		 M145.12,488.516c73.426,0,146.231,0,219.631,0c-1.935-4.682-5.019-7.359-9.296-8.605c-2.03-0.592-4.217-0.891-6.334-0.896
		c-22.768-0.063-45.535-0.121-68.303-0.012c-14.993,0.076-29.985,0.639-44.977,0.611c-25.55-0.045-51.1-0.486-76.649-0.521
		C153.041,479.084,148.159,481.955,145.12,488.516z M245.988,396.664c0,20.547,0,40.848,0,61.367c6.458,0,12.617,0,19.025,0
		c0-20.586,0-40.887,0-61.367C258.556,396.664,252.393,396.664,245.988,396.664z"/>
	<path fill-rule="evenodd" clip-rule="evenodd" fill="#FFFFFF" d="M349.223,134.571c0,7.049,0,13.479,0,20.585
		c-1.965,0-3.745,0-5.526,0c-15.999,0.001-31.998-0.002-47.998,0.006c-4.735,0.003-9.017,1.061-11.28,5.768
		c-3.513,7.3,1.668,14.529,10.6,14.59c16.165,0.109,32.331,0.032,48.497,0.032c1.791,0,3.581,0,5.649,0c0,6.917,0,13.35,0,20.318
		c-1.765,0.079-3.539,0.227-5.313,0.229c-15.999,0.02-31.999,0.013-47.998,0.014c-4.722,0.001-9.043,0.965-11.388,5.618
		c-3.637,7.217,1.541,14.679,10.391,14.748c16.165,0.125,32.332,0.036,48.498,0.037c1.808,0,3.615,0,5.374,0
		c8.119,61.05-26.681,103.546-76.977,110.901c-40.069,5.859-72.022-8.964-93.624-43.477c-5.247-8.383-8.785-18.478-10.535-28.246
		c-2.262-12.63-1.941-25.722-2.768-39.179c6.023,0,10.813,0.001,15.603,0c13.166-0.001,26.333,0.046,39.498-0.027
		c4.983-0.027,9.197-1.632,11.049-6.808c1.59-4.443,0.6-8.591-3.229-11.083c-2.459-1.6-5.88-2.339-8.885-2.382
		c-15.83-0.225-31.664-0.106-47.497-0.106c-1.787,0-3.575,0-5.584,0c0-7.061,0-13.488,0-20.558c1.951,0,3.722,0,5.492,0
		c16.166-0.001,32.333,0.077,48.498-0.033c8.648-0.06,13.732-6.29,11.305-13.493c-1.509-4.48-5.292-6.824-11.559-6.848
		c-15.999-0.058-31.999-0.021-47.998-0.021c-1.794,0-3.588,0-5.671,0c0-6.966,0-13.39,0-20.584c1.75,0,3.503,0,5.257,0
		c15.833-0.001,31.667,0.093,47.498-0.086c2.886-0.032,6.12-0.545,8.557-1.944c3.974-2.282,5.233-6.309,4.095-10.842
		c-1.128-4.491-4.983-7.361-10.583-7.447c-9.998-0.153-19.999-0.052-29.998-0.054c-8.138-0.002-16.277-0.001-25.14-0.001
		c0.352-32.17,13.188-57.214,39.009-75.54c29.897-21.219,71.777-22.09,103.624-1.415c27.428,17.807,40.854,43.629,41.315,76.955
		c-2.534,0-4.493,0-6.452,0c-15.999,0.003-32-0.101-47.998,0.053c-8.281,0.079-13.099,5.701-11.318,12.677
		c1.232,4.831,5.252,7.603,11.475,7.624c15.999,0.056,31.998,0.02,47.998,0.02C345.003,134.572,346.823,134.571,349.223,134.571z"/>
	<path fill-rule="evenodd" clip-rule="evenodd" fill="#FFFFFF" d="M146.005,492.255c3.07-6.627,8.001-9.526,14.214-9.519
		c25.808,0.037,51.616,0.482,77.424,0.527c15.143,0.027,30.287-0.542,45.431-0.617c22.997-0.112,45.995-0.052,68.993,0.012
		c2.138,0.006,4.347,0.309,6.397,0.905c4.32,1.258,7.436,3.964,9.39,8.691C293.713,492.255,220.173,492.255,146.005,492.255z"/>
	<path fill-rule="evenodd" clip-rule="evenodd" fill="#FFFFFF" d="M247.893,399.476c6.469,0,12.694,0,19.218,0
		c0,20.688,0,41.194,0,61.989c-6.473,0-12.695,0-19.218,0C247.893,440.735,247.893,420.23,247.893,399.476z"/>
</g>
<g display="none">
	<path fill-rule="evenodd" clip-rule="evenodd" fill="#FFFFFF" d="M513.5,400.5c0,37.667,0,75.333,0,113c-171,0-342,0-513,0
		c0-171,0-342,0-513c171,0,342,0,513,0c0,38.333,0,76.667,0,115c-0.297-0.564-0.744-1.099-0.868-1.699
		c-5.757-27.79-29.368-48.563-57.616-50.641c-1.991-0.146-3.991-0.263-5.987-0.264C321.399,62.885,193.77,63.205,66.143,62.69
		C27.958,62.537,1.646,95.594,1.578,125.044c-0.207,89.64-0.164,179.28-0.002,268.92c0.034,18.691,7.484,34.204,22.338,45.916
		c11.074,8.73,23.862,12.133,37.719,12.226c6.998,0.047,13.996,0.01,20.994,0.01c123.13,0,246.259-0.002,369.389,0.002
		c25.201,0,44.473-10.201,55.762-33.235C510.568,413.188,511.639,406.65,513.5,400.5z"/>
	<path display="inline" fill-rule="evenodd" clip-rule="evenodd" d="M508.941,397.068c-1.844,6.09-2.902,12.563-5.666,18.199
		c-11.176,22.803-30.254,32.902-55.203,32.902c-121.898-0.004-243.797-0.002-365.696-0.002c-6.928,0-13.856,0.037-20.784-0.01
		c-13.718-0.092-26.378-3.459-37.342-12.104C9.545,424.461,2.169,409.104,2.136,390.598c-0.16-88.742-0.203-177.487,0.002-266.23
		c0.067-29.156,26.117-61.882,63.92-61.73c126.35,0.51,252.704,0.192,379.057,0.204c1.975,0.001,3.955,0.116,5.926,0.261
		c27.967,2.056,51.342,22.622,57.041,50.134c0.123,0.595,0.564,1.124,0.859,1.683C508.941,208.969,508.941,303.02,508.941,397.068z
		 M255.23,427.809c64.172,0,128.342,0.027,192.514-0.059c4.582-0.008,9.324-0.256,13.715-1.424
		c17.494-4.648,27.221-18.813,27.229-39.283c0.033-87.102,0.031-174.204-0.037-261.305c-0.004-3.923-0.283-7.971-1.26-11.748
		c-4.307-16.656-22.5-31-42.344-30.952c-126.197,0.3-252.398,0.491-378.593-0.129c-25.757-0.127-44.258,23.119-44.219,43.772
		c0.164,87.101-0.013,174.204,0.235,261.303c0.019,6.402,1.261,13.338,3.945,19.088c6.939,14.871,19.763,20.771,35.806,20.758
		C126.557,427.775,190.894,427.809,255.23,427.809z"/>
	<path fill-rule="evenodd" clip-rule="evenodd" fill="#FFFFFF" d="M257.227,431.55c-64.987-0.001-129.973-0.033-194.959,0.022
		c-16.206,0.014-29.159-5.947-36.168-20.968c-2.71-5.808-3.966-12.814-3.984-19.28c-0.251-87.98-0.073-175.963-0.238-263.943
		c-0.04-20.862,18.648-44.343,44.666-44.215c127.47,0.627,254.945,0.434,382.417,0.131c20.045-0.048,38.422,14.44,42.772,31.265
		c0.986,3.814,1.269,7.903,1.271,11.866c0.068,87.981,0.072,175.964,0.037,263.945c-0.008,20.678-9.832,34.984-27.502,39.68
		c-4.437,1.18-9.226,1.431-13.854,1.438C386.865,431.578,322.046,431.55,257.227,431.55z M262.238,411.162
		c61.656,0,123.313,0.002,184.969-0.003c11.812-0.001,15.179-3.374,15.179-15.162c0.002-92.317,0.002-184.635,0-276.952
		c0-11.814-3.373-15.204-15.146-15.205c-122.979-0.003-245.958-0.003-368.937,0c-12.213,0-15.417,3.208-15.418,15.416
		c-0.002,92.151-0.002,184.302,0,276.453c0,12.243,3.198,15.451,15.384,15.451C139.593,411.163,200.916,411.162,262.238,411.162z
		 M57.661,257.388c-0.048-8.534-6.651-15.103-15.186-15.104c-8.545-0.002-15.163,6.551-15.227,15.08
		c-0.066,8.742,6.693,15.459,15.452,15.354C51.217,272.615,57.708,265.964,57.661,257.388z"/>
	<path display="inline" fill-rule="evenodd" clip-rule="evenodd" d="M260.191,407.625c-60.709,0-121.418,0-182.128-0.002
		c-12.063,0-15.229-3.176-15.23-15.297c-0.003-91.23-0.003-182.459,0-273.688c0-12.086,3.173-15.262,15.264-15.262
		c121.749-0.002,243.499-0.002,365.247,0c11.654,0.001,14.994,3.357,14.994,15.053c0.002,91.394,0.002,182.788,0,274.183
		c0,11.67-3.334,15.01-15.027,15.01C382.271,407.627,321.232,407.625,260.191,407.625z M437.672,124.114
		c-118.449,0-236.316,0-354.11,0c0,87.858,0,175.362,0,262.772c118.246,0,236.124,0,354.11,0
		C437.672,299.148,437.672,211.761,437.672,124.114z"/>
	<path display="inline" fill-rule="evenodd" clip-rule="evenodd" d="M57.66,255.389c0.047,8.49-6.379,15.074-14.811,15.176
		c-8.671,0.104-15.363-6.546-15.297-15.201c0.064-8.443,6.615-14.931,15.075-14.929C51.076,240.437,57.613,246.939,57.66,255.389z"
		/>
	<path fill-rule="evenodd" clip-rule="evenodd" fill="#FFFFFF" d="M441.511,124.788c0,88.532,0,176.802,0,265.426
		c-119.179,0-238.247,0-357.687,0c0-88.293,0-176.681,0-265.426C202.808,124.788,321.865,124.788,441.511,124.788z"/>
</g>
</svg>
