<?xml version="1.0" encoding="utf-8"?>
<!-- Generator: Adobe Illustrator 17.0.0, SVG Export Plug-In . SVG Version: 6.00 Build 0)  -->
<!DOCTYPE svg PUBLIC "-//W3C//DTD SVG 1.1//EN" "http://www.w3.org/Graphics/SVG/1.1/DTD/svg11.dtd">
<svg version="1.1" id="Layer_1" xmlns="http://www.w3.org/2000/svg" xmlns:xlink="http://www.w3.org/1999/xlink" x="0px" y="0px"
	 width="512px" height="512px" viewBox="0 0 512 512" enable-background="new 0 0 512 512" xml:space="preserve">
<g>
	<line fill="none" stroke="#B35047" x1="32" y1="0" x2="32" y2="512"/>
	<line fill="none" stroke="#B35047" x1="64" y1="0" x2="64" y2="512"/>
	<line fill="none" stroke="#B35047" x1="96" y1="0" x2="96" y2="512"/>
	<line fill="none" stroke="#B35047" x1="128" y1="0" x2="128" y2="512"/>
	<line fill="none" stroke="#B35047" x1="160" y1="0" x2="160" y2="512"/>
	<line fill="none" stroke="#B35047" x1="192" y1="0" x2="192" y2="512"/>
	<line fill="none" stroke="#B35047" x1="224" y1="0" x2="224" y2="512"/>
	<line fill="none" stroke="#B35047" x1="256" y1="0" x2="256" y2="512"/>
	<line fill="none" stroke="#B35047" x1="288" y1="0" x2="288" y2="512"/>
	<line fill="none" stroke="#B35047" x1="320" y1="0" x2="320" y2="512"/>
	<line fill="none" stroke="#B35047" x1="352" y1="0" x2="352" y2="512"/>
	<line fill="none" stroke="#B35047" x1="384" y1="0" x2="384" y2="512"/>
	<line fill="none" stroke="#B35047" x1="416" y1="0" x2="416" y2="512"/>
	<line fill="none" stroke="#B35047" x1="448" y1="0" x2="448" y2="512"/>
	<line fill="none" stroke="#B35047" x1="480" y1="0" x2="480" y2="512"/>
	<line fill="none" stroke="#B35047" x1="0" y1="32" x2="512" y2="32"/>
	<line fill="none" stroke="#B35047" x1="0" y1="64" x2="512" y2="64"/>
	<line fill="none" stroke="#B35047" x1="0" y1="96" x2="512" y2="96"/>
	<line fill="none" stroke="#B35047" x1="0" y1="128" x2="512" y2="128"/>
	<line fill="none" stroke="#B35047" x1="0" y1="160" x2="512" y2="160"/>
	<line fill="none" stroke="#B35047" x1="0" y1="192" x2="512" y2="192"/>
	<line fill="none" stroke="#B35047" x1="0" y1="224" x2="512" y2="224"/>
	<line fill="none" stroke="#B35047" x1="0" y1="256" x2="512" y2="256"/>
	<line fill="none" stroke="#B35047" x1="0" y1="288" x2="512" y2="288"/>
	<line fill="none" stroke="#B35047" x1="0" y1="320" x2="512" y2="320"/>
	<line fill="none" stroke="#B35047" x1="0" y1="352" x2="512" y2="352"/>
	<line fill="none" stroke="#B35047" x1="0" y1="384" x2="512" y2="384"/>
	<line fill="none" stroke="#B35047" x1="0" y1="416" x2="512" y2="416"/>
	<line fill="none" stroke="#B35047" x1="0" y1="448" x2="512" y2="448"/>
	<line fill="none" stroke="#B35047" x1="0" y1="480" x2="512" y2="480"/>
	<rect x="0" fill="none" stroke="#B35047" width="512" height="512"/>
</g>
<image display="none" overflow="visible" width="512" height="512" xlink:href="../../../Knowledge/Icon/[+++++] (Full) iOS7 icons [icons8]/Time_and_Date/week_view/week_view-512.png" >
</image>
<image display="none" overflow="visible" width="512" height="512" xlink:href="../../../Knowledge/Icon/[+++++] (Full) iOS7 icons [icons8]/Time_and_Date/day_view/day_view-512.png" >
</image>
<g>
	<path display="none" fill="#FFFFFF" d="M38.5,513.5c-12.661,0-25.322,0-37.987,0C0.508,342.582,0.508,171.663,0.508,0.623
		c170.991,0,341.992,0,512.992,0c0,19.562,0,39.22,0,58.877c-5.556-13.629-10.682-17.015-25.77-17.016
		c-19.997-0.001-39.994,0-59.991,0c-1.951,0-3.901,0-6.335,0c0-6.808,0.128-13.101-0.027-19.386
		c-0.319-12.956-8.977-21.43-21.922-21.587c-4.832-0.059-9.665-0.011-14.498-0.01c-17.275,0.003-25.098,7.765-25.118,24.926
		c-0.006,5.247-0.001,10.494-0.001,15.702c-61.854,0-122.91,0-184.287,0c0-5.995,0.013-11.639-0.003-17.282
		c-0.041-14.972-8.284-23.297-23.114-23.344c-4.999-0.016-9.999-0.014-14.998,0c-14.943,0.04-23.135,8.211-23.231,23.201
		c-0.037,5.785-0.006,11.571-0.006,17.781c-2.418,0-4.219,0-6.02,0c-20.497,0-40.994-0.002-61.491,0.001
		c-16.972,0.003-24.744,7.75-24.748,24.757c-0.013,65.324-0.014,130.648,0.027,195.972c0.002,2.476,0.14,5.043,0.79,7.41
		c1.859,6.769,10.686,9.696,15.475,4.658c2.43-2.556,4.038-6.966,4.074-10.558c0.31-31.159,0.179-62.323,0.179-93.485
		c0-1.784,0-3.569,0-5.498c150.381,0,300.24,0,450.571,0c0,2.297,0,4.268,0,6.239c0,104.818,0,209.636-0.001,314.454
		c0,6.612-0.007,6.622-6.36,6.622c-145.979,0.002-291.958,0.001-437.937,0.001c-1.956,0-3.912,0-6.273,0c0-2.637,0-4.613,0-6.589
		c0-37.328,0.02-74.656-0.042-111.984c-0.004-2.625-0.222-5.371-1.009-7.848c-1.974-6.216-9.992-8.426-15.167-4.467
		c-3.922,3-4.339,7.216-4.337,11.65c0.009,37.661,0.259,75.325-0.135,112.982C21.661,499.764,25.696,509.12,38.5,513.5z
		 M211.298,308.613c-2.754,0-4.513,0-6.271,0c-62.829,0-125.658-0.001-188.488,0.001c-9.421,0-14.911,3.768-14.939,10.229
		c-0.029,6.585,5.399,10.43,14.756,10.431c62.663,0.003,125.325,0.001,187.988,0.002c1.919,0,3.839,0,6.85,0
		c-1.976,2.153-3.111,3.485-4.344,4.72c-15.305,15.335-30.616,30.662-45.944,45.974c-3.589,3.585-6.301,7.53-4.41,12.862
		c2.777,7.832,11.506,8.94,18.207,2.26c24.667-24.591,49.277-49.24,73.9-73.875c0.687-0.687,1.289-1.459,2.789-3.171
		c-1.597-1.125-3.293-1.995-4.581-3.276c-17.132-17.042-34.206-34.143-51.296-51.228c-6.954-6.952-13.883-13.928-20.875-20.842
		c-3.502-3.463-7.49-5.641-12.534-3.464c-7.412,3.199-8.268,11.495-1.772,18.031c15.625,15.721,31.325,31.367,46.985,47.054
		C208.446,305.45,209.491,306.658,211.298,308.613z"/>
	<path d="M37.813,511c-12.754-4.363-16.772-13.682-16.637-26.593c0.392-37.509,0.143-75.024,0.134-112.537
		c-0.001-4.417,0.414-8.616,4.32-11.604c5.154-3.943,13.14-1.742,15.107,4.449c0.784,2.468,1.001,5.203,1.005,7.817
		c0.061,37.181,0.042,74.361,0.042,111.542c0,1.968,0,3.936,0,6.563c2.352,0,4.3,0,6.248,0c145.403,0,290.807,0,436.21-0.001
		c6.328,0,6.335-0.01,6.335-6.596c0.001-104.405,0.001-208.81,0.001-313.215c0-1.963,0-3.926,0-6.214
		c-149.738,0-299.006,0-448.794,0c0,1.922,0,3.699,0,5.476c0,31.039,0.131,62.08-0.178,93.116c-0.036,3.577-1.637,7.97-4.058,10.516
		c-4.77,5.018-13.562,2.103-15.414-4.64c-0.647-2.357-0.786-4.914-0.787-7.38c-0.04-65.066-0.039-130.133-0.027-195.199
		c0.003-16.94,7.745-24.656,24.65-24.659c20.416-0.003,40.832-0.001,61.249-0.001c1.794,0,3.588,0,5.996,0
		c0-6.186-0.031-11.949,0.006-17.711c0.096-14.93,8.255-23.07,23.14-23.109c4.98-0.013,9.959-0.015,14.939,0
		c14.771,0.047,22.982,8.339,23.022,23.252c0.015,5.622,0.002,11.243,0.002,17.214c61.135,0,121.951,0,183.561,0
		c0-5.188-0.005-10.414,0.001-15.64c0.02-17.094,7.812-24.825,25.019-24.828c4.814-0.001,9.628-0.048,14.441,0.01
		c12.893,0.156,21.517,8.598,21.835,21.502c0.154,6.261,0.027,12.529,0.027,19.31c2.424,0,4.367,0,6.31,0
		c19.918,0,39.837-0.001,59.755,0c15.028,0.001,20.134,3.373,25.668,16.949c0,145.092,0,290.185,0,435.277
		c-2.567,8.722-8.211,14.366-16.933,16.933C341.943,511,189.878,511,37.813,511z M41.951,143.509c149.644,0,298.812,0,448.137,0
		c0.182-1.168,0.461-2.125,0.462-3.082c0.026-24.732-0.051-49.464,0.098-74.195c0.024-3.977-1.979-4.11-4.958-4.1
		c-20.582,0.068-41.164,0.03-61.746,0.048c-1.453,0.001-2.906,0.176-4.739,0.295c0,6.62,0.15,12.911-0.032,19.192
		c-0.362,12.545-8.515,20.774-21.025,21.234c-5.47,0.201-10.954,0.071-16.431,0.052c-15.834-0.054-23.777-8.055-23.831-23.995
		c-0.018-5.424-0.003-10.848-0.003-16.459c-61.501,0-122.33,0-183.563,0c0,6.442,0.061,12.558-0.013,18.672
		c-0.157,13.064-8.348,21.358-21.449,21.765c-2.487,0.077-4.988-0.118-7.468,0.043c-25.746,1.674-33.8-7.056-32.204-31.989
		c0.176-2.751,0.024-5.522,0.024-8.442c-24.171,0-47.634,0-71.262,0C41.951,89.62,41.951,116.304,41.951,143.509z M133.923,21.438
		c0,20.727,0,40.803,0,60.872c6.788,0,13.154,0,20.061,0c0-19.657,0.03-38.986-0.098-58.314c-0.006-0.857-1.417-2.416-2.216-2.444
		C145.762,21.342,139.843,21.438,133.923,21.438z M398.41,82.41c0-20.374,0-40.352,0-60.594c-6.728,0-13.214,0-19.688,0
		c0,20.413,0,40.389,0,60.594C385.282,82.41,391.519,82.41,398.41,82.41z"/>
	<path display="none" fill="#FFFFFF" d="M496.5,513.5c8.756-2.577,14.423-8.244,17-17c0,5.667,0,11.333,0,17
		C507.833,513.5,502.167,513.5,496.5,513.5z"/>
	<path d="M209.93,306.921c-1.8-1.947-2.841-3.151-3.963-4.274c-15.598-15.624-31.237-31.209-46.8-46.868
		c-6.47-6.51-5.618-14.774,1.765-17.96c5.024-2.168,8.996,0.001,12.484,3.45c6.964,6.887,13.866,13.835,20.792,20.76
		c17.022,17.018,34.029,34.051,51.094,51.026c1.283,1.276,2.972,2.143,4.563,3.263c-1.494,1.706-2.094,2.475-2.778,3.159
		c-24.527,24.538-49.039,49.09-73.609,73.584c-6.674,6.653-15.368,5.55-18.135-2.251c-1.883-5.311,0.818-9.241,4.393-12.811
		c15.267-15.251,30.518-30.518,45.763-45.793c1.228-1.23,2.359-2.557,4.327-4.702c-3,0-4.911,0-6.823,0
		c-62.415,0-124.831,0.001-187.246-0.002c-9.321,0-14.727-3.83-14.698-10.39c0.028-6.436,5.496-10.188,14.88-10.189
		c62.581-0.002,125.163-0.001,187.744-0.001C205.435,306.921,207.187,306.921,209.93,306.921z"/>
	<path display="none" fill="#FFFFFF" d="M42.655,144.555c0-27.313,0-54.102,0-81.281c23.722,0,47.277,0,71.544,0
		c0,2.931,0.153,5.714-0.024,8.476c-1.602,25.031,6.484,33.796,32.332,32.115c2.489-0.162,5,0.034,7.497-0.043
		c13.153-0.408,21.376-8.735,21.534-21.851c0.074-6.138,0.013-12.278,0.013-18.746c61.475,0,122.545,0,184.289,0
		c0,5.633-0.015,11.078,0.003,16.524c0.054,16.004,8.029,24.037,23.925,24.09c5.499,0.019,11.004,0.149,16.496-0.053
		c12.56-0.462,20.745-8.724,21.108-21.318c0.182-6.306,0.032-12.622,0.032-19.268c1.84-0.119,3.298-0.295,4.757-0.296
		c20.664-0.018,41.327,0.02,61.99-0.048c2.99-0.01,5.001,0.123,4.977,4.117c-0.15,24.829-0.073,49.659-0.099,74.488
		c-0.001,0.961-0.281,1.921-0.463,3.094C342.649,144.555,192.891,144.555,42.655,144.555z"/>
	<path display="none" fill="#FFFFFF" d="M134.99,22c5.944,0,11.886-0.096,17.818,0.114c0.802,0.028,2.219,1.593,2.225,2.454
		c0.128,19.405,0.098,38.81,0.098,58.545c-6.934,0-13.325,0-20.141,0C134.99,62.965,134.99,42.809,134.99,22z"/>
	<path display="none" fill="#FFFFFF" d="M400.524,83.214c-6.918,0-13.18,0-19.766,0c0-20.285,0-40.339,0-60.833
		c6.499,0,13.011,0,19.766,0C400.524,42.702,400.524,62.76,400.524,83.214z"/>
</g>
<g display="none">
	<path fill="#FFFFFF" d="M513.5,323.5c0,63.333,0,126.667,0,190c-12.333,0-24.667,0-37,0c12.804-4.381,16.919-13.733,16.701-26.7
		c-0.453-26.992-0.12-53.996-0.166-80.995c-0.004-2.48-0.116-5.031-0.69-7.426c-1.352-5.643-6.657-8.544-12.283-6.998
		c-5.023,1.38-7.531,5.263-7.537,11.986c-0.026,27.999-0.007,55.998-0.022,83.998c-0.001,1.752-0.149,3.503-0.249,5.692
		c-2.132,0-3.772,0-5.412,0c-146.329,0-292.658-0.025-438.987,0.11c-4.945,0.005-6.018-1.472-6.012-6.184
		c0.131-105.33,0.099-210.661,0.11-315.991c0-1.763,0.149-3.526,0.23-5.326c150.31,0,300.074,0,450.331,0c0,2.037,0,3.825,0,5.613
		c0,20.999,0.003,41.999-0.002,62.998c-0.001,5.123,1.165,9.72,6.391,11.909c7.565,3.169,14.13-2.311,14.137-11.901
		c0.044-56.332,0.074-112.664-0.017-168.995c-0.024-14.632-8.497-22.783-23.168-22.8c-21.166-0.025-42.332-0.001-63.498-0.017
		c-1.748-0.001-3.496-0.147-5.581-0.241c0-7.036,0.2-13.523-0.043-19.994c-0.46-12.259-8.902-20.463-21.14-20.715
		c-5.831-0.12-11.666-0.049-17.499-0.018c-14.17,0.075-22.571,8.543-22.639,22.817c-0.028,5.937-0.005,11.874-0.005,17.843
		c-61.734,0-122.812,0-184.292,0c0-6.289,0.091-12.267-0.018-18.24c-0.256-13.97-8.721-22.333-22.602-22.42
		c-5.333-0.033-10.666-0.023-15.999-0.002c-14.389,0.057-22.856,8.58-22.94,23.105c-0.034,5.789-0.006,11.578-0.006,17.875
		c-2.274,0-4.059,0-5.845,0c-20.499,0-40.999-0.003-61.498,0.001C9.27,42.489,1.501,50.25,1.501,67.206
		C1.499,207.369,1.5,347.532,1.5,487.695c0,15.103,3.352,20.191,17,25.805c-5.998,0-11.996,0-17.995,0
		C0.503,342.565,0.503,171.63,0.503,0.598c170.997,0,341.997,0,512.997,0c0,104.646,0,209.274,0,313.902
		c-1.385-1.134-2.877-2.161-4.138-3.419c-22.295-22.249-44.548-44.539-66.858-66.773c-1.75-1.744-3.686-3.413-5.809-4.645
		c-4.571-2.653-10.206-1.015-12.976,3.481c-2.842,4.614-1.894,9.346,3.021,14.276c15.531,15.579,31.098,31.122,46.645,46.685
		c1.21,1.211,2.371,2.47,4.325,4.51c-3.085,0-4.889,0-6.693,0c-62.661,0-125.322-0.01-187.983,0.036
		c-2.631,0.002-5.342,0.221-7.877,0.876c-5.244,1.355-7.964,6.225-6.79,11.527c1.281,5.783,5.248,8.219,13.518,8.22
		c62.994,0.007,125.989,0.004,188.983,0.004c1.891,0,3.782,0,6.72,0c-2.006,2.139-3.083,3.352-4.227,4.498
		c-15.195,15.208-30.411,30.395-45.582,45.626c-1.514,1.52-3.003,3.158-4.099,4.984c-3.08,5.13-1.267,11.179,4.004,14.012
		c4.377,2.353,8.823,1.19,13.75-3.733c22.638-22.613,45.25-45.252,67.901-67.851C510.584,325.568,512.106,324.598,513.5,323.5z"/>
	<path display="inline" d="M17.954,511c-13.593-5.592-16.932-10.66-16.932-25.703c0-139.603-0.001-279.207,0.001-418.81
		c0-16.889,7.738-24.619,24.649-24.623c20.418-0.005,40.835-0.001,61.253-0.001c1.778,0,3.556,0,5.821,0
		c0-6.272-0.028-12.038,0.005-17.804c0.084-14.468,8.517-22.956,22.849-23.013c5.312-0.021,10.624-0.031,15.936,0.002
		c13.826,0.087,22.257,8.416,22.512,22.33c0.109,5.95,0.018,11.903,0.018,18.167c61.235,0,122.069,0,183.557,0
		c0-5.946-0.024-11.859,0.005-17.772c0.068-14.217,8.436-22.651,22.549-22.726c5.81-0.031,11.622-0.101,17.429,0.018
		c12.189,0.251,20.598,8.422,21.056,20.632c0.242,6.444,0.043,12.905,0.043,19.914c2.077,0.094,3.818,0.239,5.559,0.24
		c21.082,0.016,42.163-0.008,63.245,0.017c14.613,0.017,23.052,8.135,23.076,22.709c0.09,56.107,0.06,112.214,0.016,168.321
		c-0.007,9.552-6.546,15.01-14.081,11.854c-5.205-2.18-6.366-6.759-6.365-11.861c0.005-20.916,0.002-41.831,0.002-62.747
		c0-1.781,0-3.562,0-5.591c-149.658,0-298.823,0-448.534,0c-0.081,1.793-0.229,3.549-0.229,5.305
		c-0.011,104.91,0.021,209.82-0.11,314.73c-0.006,4.693,1.063,6.164,5.988,6.159c145.745-0.135,291.49-0.109,437.236-0.109
		c1.634,0,3.268,0,5.391,0c0.099-2.18,0.247-3.925,0.248-5.669c0.015-27.887-0.004-55.775,0.022-83.662
		c0.006-6.697,2.504-10.564,7.507-11.939c5.603-1.54,10.888,1.35,12.234,6.97c0.572,2.386,0.683,4.926,0.687,7.396
		c0.046,26.891-0.286,53.788,0.165,80.672c0.217,12.915-3.881,22.23-16.634,26.593C322.069,511,170.011,511,17.954,511z
		 M21.383,143.373c149.941,0,299.2,0,448.6,0c0-27.079,0-53.764,0-80.715c-23.761,0-47.347,0-71.263,0
		c0,6.595,0.122,12.728-0.025,18.854c-0.311,12.939-8.325,21.038-21.231,21.422c-5.97,0.178-11.951,0.133-17.924,0.018
		c-13.66-0.263-21.808-8.588-21.909-22.3c-0.044-5.942-0.007-11.885-0.007-18.142c-61.265,0-122.091,0-183.556,0
		c0,6.153,0.082,12.081-0.016,18.007c-0.234,14.046-8.401,22.235-22.362,22.446c-5.476,0.083-10.955,0.076-16.431,0.002
		c-14.175-0.193-22.403-8.546-22.504-22.812c-0.041-5.782-0.007-11.565-0.007-17.462c-1.191-0.21-1.984-0.472-2.778-0.473
		c-21.577-0.026-43.154,0.043-64.73-0.096c-3.706-0.024-3.894,1.864-3.884,4.666c0.062,16.763,0.03,33.527,0.03,50.291
		C21.383,125.687,21.383,134.296,21.383,143.373z M378.14,21.405c-5.36,0-10.31,0.223-15.23-0.071
		c-3.896-0.232-5.11,1.046-5.062,5.013c0.206,17.046,0.079,34.096,0.1,51.144c0.002,1.606,0.187,3.212,0.292,4.885
		c6.846,0,13.226,0,19.899,0C378.14,62.132,378.14,42.173,378.14,21.405z M133.121,82.436c0-20.494,0-40.564,0-60.562
		c-6.789,0-13.13,0-19.472,0c0,20.427,0,40.382,0,60.562C120.26,82.436,126.499,82.436,133.121,82.436z"/>
	<path display="inline" d="M510.978,321.758c-1.389,1.093-2.904,2.059-4.147,3.299c-22.561,22.509-45.082,45.058-67.63,67.58
		c-4.908,4.903-9.336,6.061-13.696,3.718c-5.25-2.822-7.056-8.846-3.988-13.956c1.092-1.819,2.575-3.451,4.083-4.965
		c15.111-15.171,30.266-30.297,45.4-45.444c1.14-1.141,2.212-2.349,4.21-4.48c-2.926,0-4.81,0-6.693,0
		c-62.743,0-125.486,0.003-188.229-0.004c-8.237-0.001-12.188-2.427-13.464-8.187c-1.17-5.28,1.54-10.132,6.763-11.481
		c2.525-0.652,5.224-0.871,7.845-0.873c62.411-0.046,124.822-0.036,187.233-0.036c1.797,0,3.594,0,6.666,0
		c-1.946-2.032-3.103-3.286-4.308-4.492c-15.485-15.501-30.99-30.982-46.459-46.498c-4.895-4.91-5.839-9.623-3.009-14.219
		c2.758-4.478,8.371-6.11,12.924-3.467c2.115,1.227,4.043,2.89,5.786,4.627c22.22,22.146,44.385,44.347,66.591,66.507
		c1.256,1.253,2.743,2.276,4.122,3.406C510.978,315.782,510.978,318.77,510.978,321.758z"/>
	<path fill="#FFFFFF" d="M21.943,144.4c0-9.113,0-17.757,0-26.4c0-16.831,0.033-33.662-0.03-50.492
		c-0.01-2.814,0.178-4.709,3.899-4.685c21.662,0.14,43.326,0.07,64.99,0.097c0.797,0.001,1.593,0.264,2.789,0.475
		c0,5.921-0.034,11.727,0.007,17.532c0.102,14.322,8.363,22.709,22.595,22.903c5.498,0.075,10.999,0.082,16.497-0.002
		c14.018-0.212,22.217-8.433,22.452-22.536c0.099-5.949,0.017-11.901,0.017-18.079c61.711,0,122.781,0,184.291,0
		c0,6.282-0.037,12.249,0.007,18.215c0.102,13.767,8.282,22.125,21.997,22.389c5.997,0.115,12.002,0.161,17.996-0.018
		c12.958-0.386,21.005-8.516,21.316-21.508c0.148-6.151,0.025-12.309,0.025-18.93c24.012,0,47.692,0,71.549,0
		c0,27.059,0,53.85,0,81.038C322.342,144.4,172.484,144.4,21.943,144.4z"/>
	<path fill="#FFFFFF" d="M380.13,21.944c0,20.851,0,40.89,0,61.215c-6.7,0-13.106,0-19.979,0c-0.105-1.68-0.291-3.292-0.293-4.905
		c-0.021-17.117,0.106-34.235-0.101-51.349c-0.048-3.983,1.171-5.266,5.083-5.033C369.778,22.167,374.749,21.944,380.13,21.944z"/>
	<path fill="#FFFFFF" d="M134.129,83.219c-6.649,0-12.913,0-19.55,0c0-20.26,0-40.295,0-60.804c6.367,0,12.734,0,19.55,0
		C134.129,42.492,134.129,62.643,134.129,83.219z"/>
</g>
<g display="none">
	<path display="inline" d="M510.993,58.787c0,145.093,0,290.186,0,435.28c-2.567,8.722-8.211,14.366-16.933,16.933
		c-158.706,0-317.412,0-476.118,0C4.35,505.408,1.008,500.338,1.008,485.305c0-140.073-0.004-280.145,0.005-420.218
		C1.014,50.19,9.26,41.867,24.037,41.846c21.077-0.03,42.155-0.008,63.232-0.008c1.747,0,3.494,0,5.469,0
		c0-6.72-0.069-12.686,0.014-18.65c0.188-13.503,8.763-22.051,22.182-22.164c5.144-0.044,10.29-0.014,15.434-0.006
		c15.443,0.024,23.614,8.176,23.69,23.656c0.027,5.58,0.004,11.161,0.004,16.838c68.27,0,135.886,0,203.877,0
		c0-6.278-0.093-12.234,0.019-18.187c0.262-13.902,8.698-22.217,22.532-22.303c5.145-0.032,10.29-0.015,15.435-0.004
		c14.998,0.032,23.287,8.384,23.335,23.52c0.018,5.599,0.003,11.197,0.003,17.301c2.253,0,4.037,0,5.821,0
		c20.082,0,40.163-0.001,60.245,0C500.353,41.839,505.457,45.211,510.993,58.787z M21.371,164.539c0,1.879,0,3.502,0,5.125
		c0,105.078,0.028,210.156-0.094,315.234c-0.005,4.536,1.189,5.84,5.794,5.837c152.554-0.118,305.109-0.122,457.663,0.011
		c4.914,0.004,6.003-1.445,5.997-6.15c-0.131-104.912-0.101-209.824-0.101-314.736c0-1.753,0-3.506,0-5.321
		C333.884,164.539,177.904,164.539,21.371,164.539z M21.642,143.32c156.416,0,312.495,0,468.67,0
		c0.133-1.055,0.285-1.701,0.286-2.348c0.019-24.901-0.051-49.802,0.106-74.701c0.025-3.945-1.898-4.156-4.919-4.145
		c-20.584,0.074-41.169,0.033-61.753,0.051c-1.455,0.001-2.909,0.173-4.772,0.292c0,6.6,0.146,12.887-0.031,19.165
		c-0.354,12.557-8.492,20.797-20.999,21.264c-5.471,0.204-10.955,0.072-16.433,0.054c-15.846-0.052-23.801-8.049-23.856-23.975
		c-0.019-5.428-0.003-10.855-0.003-16.387c-68.257,0-135.858,0-203.883,0c0,6.54,0.168,12.667-0.034,18.782
		c-0.437,13.223-8.561,21.238-21.728,21.556c-5.143,0.124-10.292,0.039-15.438,0.025c-16.161-0.042-24.096-8.012-24.116-24.213
		c-0.007-5.395-0.001-10.789-0.001-16.077c-1.224-0.263-1.7-0.453-2.176-0.454c-21.746-0.026-43.493,0.05-65.239-0.122
		c-4.137-0.033-3.975,2.245-3.971,5.078c0.037,23.905,0.016,47.809,0.033,71.714C21.384,140.34,21.549,141.8,21.642,143.32z
		 M133.305,82.396c0-20.356,0-40.346,0-60.575c-6.643,0-13.134,0-19.684,0c0,20.407,0,40.37,0,60.575
		C120.21,82.396,126.451,82.396,133.305,82.396z M378.616,82.345c6.807,0,13.169,0,19.679,0c0-20.369,0-40.44,0-60.556
		c-6.803,0-13.163,0-19.679,0C378.616,42.063,378.616,61.925,378.616,82.345z"/>
	<path fill="#FFFFFF" d="M511.002,59.594c-5.525-13.55-10.619-16.915-25.613-16.916c-20.043-0.001-40.086,0-60.129,0
		c-1.781,0-3.561,0-5.81,0c0-6.092,0.015-11.68-0.003-17.268c-0.049-15.107-8.321-23.443-23.291-23.475
		c-5.135-0.011-10.27-0.028-15.405,0.004c-13.807,0.085-22.228,8.385-22.489,22.26c-0.112,5.941-0.019,11.887-0.019,18.152
		c-67.861,0-135.348,0-203.487,0c0-5.666,0.023-11.236-0.004-16.806c-0.076-15.451-8.231-23.587-23.645-23.611
		c-5.135-0.008-10.27-0.037-15.405,0.006c-13.393,0.113-21.952,8.645-22.14,22.122c-0.083,5.953-0.014,11.908-0.014,18.615
		c-1.972,0-3.715,0-5.459,0c-21.037,0-42.074-0.021-63.111,0.008c-14.748,0.021-22.979,8.327-22.98,23.196
		c-0.009,139.805-0.005,279.61-0.005,419.415c0,15.004,3.335,20.064,16.901,25.646c-5.962,0-11.925,0-17.889,0
		C1.002,341.021,1.002,171.099,1.002,1.058c169.997,0,339.999,0,510,0C511.002,20.508,511.002,40.051,511.002,59.594z"/>
	<path fill="#FFFFFF" d="M494.101,510.942c8.705-2.562,14.339-8.196,16.901-16.901c0,5.634,0,11.267,0,16.901
		C505.368,510.942,499.735,510.942,494.101,510.942z"/>
	<path fill="#FFFFFF" d="M22.316,165.143c156.234,0,311.916,0,468.362,0c0,1.812,0,3.561,0,5.311
		c0,104.712-0.031,209.423,0.1,314.135c0.006,4.696-1.081,6.143-5.985,6.139c-152.263-0.133-304.525-0.129-456.788-0.011
		c-4.597,0.004-5.789-1.298-5.783-5.826c0.121-104.877,0.094-209.755,0.094-314.632C22.316,168.638,22.316,167.018,22.316,165.143z
		 M246.469,369.343c-20.919-18.901-41.365-37.375-61.98-56.001c-4.783,5.311-9.146,10.156-13.619,15.124
		c26.794,24.214,53.124,48.009,79.733,72.056c34.082-52.87,67.676-104.984,101.406-157.309c-5.94-3.827-11.434-7.368-17.104-11.021
		C305.337,278.048,276.116,323.366,246.469,369.343z"/>
	<path fill="#FFFFFF" d="M22.586,143.965c-0.092-1.517-0.257-2.975-0.258-4.432c-0.016-23.859,0.004-47.718-0.033-71.577
		c-0.004-2.828-0.166-5.101,3.963-5.069c21.704,0.171,43.409,0.096,65.114,0.122c0.475,0.001,0.95,0.191,2.172,0.453
		c0,5.278-0.006,10.662,0.001,16.047c0.02,16.17,7.94,24.125,24.07,24.167c5.136,0.013,10.275,0.099,15.408-0.025
		c13.142-0.317,21.25-8.318,21.687-21.515c0.202-6.103,0.034-12.219,0.034-18.746c67.894,0,135.366,0,203.493,0
		c0,5.521-0.016,10.939,0.003,16.356c0.055,15.895,7.994,23.877,23.81,23.929c5.468,0.018,10.941,0.15,16.402-0.054
		c12.483-0.466,20.606-8.69,20.959-21.223c0.177-6.266,0.031-12.541,0.031-19.128c1.859-0.118,3.311-0.29,4.763-0.292
		c20.545-0.017,41.09,0.023,61.635-0.05c3.016-0.011,4.934,0.2,4.91,4.137c-0.156,24.852-0.087,49.705-0.105,74.558
		c0,0.645-0.152,1.291-0.285,2.343C334.484,143.965,178.703,143.965,22.586,143.965z"/>
	<path fill="#FFFFFF" d="M134.036,83.157c-6.841,0-13.07,0-19.646,0c0-20.166,0-40.091,0-60.459c6.537,0,13.016,0,19.646,0
		C134.036,42.888,134.036,62.84,134.036,83.157z"/>
	<path fill="#FFFFFF" d="M378.878,83.107c0-20.381,0-40.205,0-60.44c6.504,0,12.851,0,19.642,0c0,20.078,0,40.11,0,60.44
		C392.022,83.107,385.672,83.107,378.878,83.107z"/>
	<path display="inline" d="M245.953,369.13c29.704-46.066,58.981-91.471,88.605-137.413c5.681,3.66,11.186,7.207,17.137,11.042
		c-33.795,52.425-67.453,104.638-101.6,157.61c-26.66-24.093-53.04-47.933-79.886-72.194c4.482-4.977,8.853-9.831,13.645-15.153
		C204.509,331.684,224.994,350.193,245.953,369.13z"/>
</g>
</svg>
