<?xml version="1.0" encoding="utf-8"?>
<!-- Generator: Adobe Illustrator 16.0.0, SVG Export Plug-In . SVG Version: 6.00 Build 0)  -->
<!DOCTYPE svg PUBLIC "-//W3C//DTD SVG 1.1//EN" "http://www.w3.org/Graphics/SVG/1.1/DTD/svg11.dtd">
<svg version="1.1" id="Layer_1" xmlns="http://www.w3.org/2000/svg" xmlns:xlink="http://www.w3.org/1999/xlink" x="0px" y="0px"
	 width="512px" height="512px" viewBox="0 0 512 512" enable-background="new 0 0 512 512" xml:space="preserve">
<g>
	<line fill="none" stroke="#B35047" x1="32" y1="0" x2="32" y2="512"/>
	<line fill="none" stroke="#B35047" x1="64" y1="0" x2="64" y2="512"/>
	<line fill="none" stroke="#B35047" x1="96" y1="0" x2="96" y2="512"/>
	<line fill="none" stroke="#B35047" x1="128" y1="0" x2="128" y2="512"/>
	<line fill="none" stroke="#B35047" x1="160" y1="0" x2="160" y2="512"/>
	<line fill="none" stroke="#B35047" x1="192" y1="0" x2="192" y2="512"/>
	<line fill="none" stroke="#B35047" x1="224" y1="0" x2="224" y2="512"/>
	<line fill="none" stroke="#B35047" x1="256" y1="0" x2="256" y2="512"/>
	<line fill="none" stroke="#B35047" x1="288" y1="0" x2="288" y2="512"/>
	<line fill="none" stroke="#B35047" x1="320" y1="0" x2="320" y2="512"/>
	<line fill="none" stroke="#B35047" x1="352" y1="0" x2="352" y2="512"/>
	<line fill="none" stroke="#B35047" x1="384" y1="0" x2="384" y2="512"/>
	<line fill="none" stroke="#B35047" x1="416" y1="0" x2="416" y2="512"/>
	<line fill="none" stroke="#B35047" x1="448" y1="0" x2="448" y2="512"/>
	<line fill="none" stroke="#B35047" x1="480" y1="0" x2="480" y2="512"/>
	<line fill="none" stroke="#B35047" x1="0" y1="32" x2="512" y2="32"/>
	<line fill="none" stroke="#B35047" x1="0" y1="64" x2="512" y2="64"/>
	<line fill="none" stroke="#B35047" x1="0" y1="96" x2="512" y2="96"/>
	<line fill="none" stroke="#B35047" x1="0" y1="128" x2="512" y2="128"/>
	<line fill="none" stroke="#B35047" x1="0" y1="160" x2="512" y2="160"/>
	<line fill="none" stroke="#B35047" x1="0" y1="192" x2="512" y2="192"/>
	<line fill="none" stroke="#B35047" x1="0" y1="224" x2="512" y2="224"/>
	<line fill="none" stroke="#B35047" x1="0" y1="256" x2="512" y2="256"/>
	<line fill="none" stroke="#B35047" x1="0" y1="288" x2="512" y2="288"/>
	<line fill="none" stroke="#B35047" x1="0" y1="320" x2="512" y2="320"/>
	<line fill="none" stroke="#B35047" x1="0" y1="352" x2="512" y2="352"/>
	<line fill="none" stroke="#B35047" x1="0" y1="384" x2="512" y2="384"/>
	<line fill="none" stroke="#B35047" x1="0" y1="416" x2="512" y2="416"/>
	<line fill="none" stroke="#B35047" x1="0" y1="448" x2="512" y2="448"/>
	<line fill="none" stroke="#B35047" x1="0" y1="480" x2="512" y2="480"/>
	<rect fill="none" stroke="#B35047" width="512" height="512"/>
</g>
<image display="none" overflow="visible" width="512" height="512" xlink:href="../../../Knowledge/Icon/[+++++] (Full) iOS7 icons [icons8]/Industry/trash2/trash2-512.png"  transform="matrix(1 0 0 1 514 -65)">
</image>
<image display="none" overflow="visible" width="512" height="512" xlink:href="../../../Knowledge/Icon/[+++++] (Full) iOS7 icons [icons8]/Industry/recycling/recycling-512.png"  transform="matrix(1 0 0 1 514 -65)">
</image>
<image display="none" overflow="visible" width="512" height="512" xlink:href="../../../Knowledge/Icon/[+++++] (Full) iOS7 icons [icons8]/Industry/rack/rack-512.png"  transform="matrix(1 0 0 1 514 -65)">
</image>
<image display="none" overflow="visible" width="512" height="512" xlink:href="../../../Knowledge/Icon/[+++++] (Full) iOS7 icons [icons8]/Industry/ladder/ladder-512.png"  transform="matrix(1 0 0 1 514 -65)">
</image>
<image display="none" overflow="visible" width="512" height="512" xlink:href="../../../Knowledge/Icon/[+++++] (Full) iOS7 icons [icons8]/Industry/greentech/greentech-512.png"  transform="matrix(1 0 0 1 514 -65)">
</image>
<image display="none" overflow="visible" width="512" height="512" xlink:href="../../../Knowledge/Icon/[+++++] (Full) iOS7 icons [icons8]/Industry/gas2/gas2-512.png"  transform="matrix(1 0 0 1 514 -65)">
</image>
<g>
	<path display="none" fill-rule="evenodd" clip-rule="evenodd" fill="#FFFFFF" d="M223.5,513.5c-74.308,0-148.616,0-222.962,0
		c0-170.917,0-341.834,0-512.875c170.962,0,341.962,0,512.962,0c0,74.593,0,149.233,0,223.875c-2.101-5.85-6.581-8.124-12.463-9.01
		c-15.468-2.327-30.875-5.053-46.338-7.409c-3.38-0.515-5.071-1.718-5.971-5.234c-3.813-14.903-9.815-28.981-17.567-42.243
		c-1.877-3.211-1.384-5.219,0.561-7.938c9.297-13.004,18.45-26.11,27.6-39.219c4.93-7.061,4.53-11.559-1.534-17.646
		c-12.935-12.984-25.897-25.94-38.876-38.88c-6.634-6.612-10.848-6.973-18.361-1.592c-12.998,9.31-26.009,18.599-38.915,28.033
		c-2.413,1.764-4.18,2.253-7.029,0.589c-13.564-7.918-28.002-13.896-43.174-17.951c-3.097-0.827-4.327-2.276-4.826-5.27
		c-2.654-15.92-5.457-31.815-8.209-47.72c-1.438-8.312-5.129-11.491-13.512-11.502c-18.327-0.024-36.654-0.019-54.981-0.003
		c-9.693,0.008-12.878,2.957-14.421,12.73c-2.44,15.451-5.199,30.854-7.452,46.331c-0.538,3.695-2.394,4.62-5.423,5.813
		c-13.889,5.47-27.701,11.152-41.377,17.132c-3.032,1.325-4.996,1.84-7.91-0.306c-12.873-9.477-25.947-18.681-38.977-27.942
		c-7.418-5.272-11.709-4.967-18.008,1.305C83.228,69.615,70.138,82.679,57.091,95.786c-5.997,6.024-6.343,10.643-1.444,17.664
		c9.337,13.384,18.667,26.772,28.117,40.076c1.521,2.143,1.981,3.762,0.526,6.225c-8.164,13.824-14.054,28.619-18.592,44.004
		c-0.457,1.55-2.534,3.429-4.12,3.715c-15.883,2.869-31.813,5.481-47.746,8.072c-9.29,1.511-12.324,4.915-12.33,14.297
		c-0.011,18.16-0.017,36.321,0.002,54.481c0.009,9.276,2.91,12.618,11.896,14.168c15.741,2.716,31.455,5.593,47.21,8.224
		c3.245,0.542,4.389,2.132,5.568,5.141c5.625,14.361,11.576,28.604,17.778,42.726c1.184,2.694,1.193,4.293-0.478,6.593
		c-9.593,13.202-19.071,26.488-28.515,39.798c-5.003,7.05-4.597,11.469,1.526,17.617c13.051,13.104,26.122,26.187,39.233,39.229
		c6.081,6.049,10.607,6.408,17.644,1.505c13.389-9.329,26.778-18.659,40.092-28.095c2.122-1.504,3.753-2.028,6.231-0.562
		c13.817,8.178,28.613,14.063,43.999,18.601c1.557,0.459,3.446,2.533,3.736,4.122c2.842,15.55,5.54,31.131,7.917,46.758
		C216.225,505.929,218.16,510.644,223.5,513.5z"/>
	<path fill-rule="evenodd" clip-rule="evenodd" d="M221.84,508.939c-5.287-2.827-7.202-7.495-8.074-13.222
		c-2.354-15.471-5.024-30.896-7.838-46.29c-0.288-1.573-2.158-3.627-3.699-4.081c-15.232-4.491-29.88-10.318-43.559-18.414
		c-2.454-1.452-4.068-0.934-6.169,0.556c-13.181,9.341-26.436,18.578-39.691,27.813c-6.967,4.854-11.447,4.499-17.467-1.489
		c-12.98-12.913-25.92-25.865-38.841-38.838c-6.062-6.087-6.464-10.462-1.511-17.44c9.35-13.177,18.733-26.33,28.229-39.4
		c1.654-2.276,1.645-3.859,0.473-6.526c-6.141-13.981-12.031-28.081-17.601-42.299c-1.167-2.979-2.3-4.553-5.512-5.089
		c-15.598-2.604-31.155-5.453-46.738-8.142c-8.896-1.534-11.768-4.843-11.777-14.026c-0.019-17.979-0.013-35.958-0.002-53.937
		c0.006-9.288,3.01-12.658,12.207-14.154c15.773-2.565,31.543-5.151,47.268-7.992c1.57-0.283,3.626-2.144,4.079-3.678
		c4.492-15.231,10.324-29.878,18.406-43.564c1.44-2.438,0.985-4.041-0.521-6.162c-9.355-13.171-18.592-26.425-27.836-39.675
		c-4.85-6.952-4.507-11.523,1.43-17.488c12.917-12.976,25.875-25.909,38.851-38.826c6.236-6.209,10.484-6.512,17.828-1.292
		c12.9,9.169,25.843,18.281,38.587,27.663c2.885,2.124,4.829,1.615,7.831,0.303c13.54-5.92,27.213-11.545,40.964-16.96
		c2.999-1.181,4.837-2.096,5.369-5.754c2.23-15.323,4.961-30.571,7.377-45.868c1.528-9.676,4.681-12.596,14.277-12.604
		c18.144-0.015,36.288-0.021,54.432,0.003c8.299,0.011,11.953,3.159,13.376,11.387c2.725,15.745,5.499,31.481,8.127,47.242
		c0.494,2.963,1.712,4.398,4.778,5.217c15.02,4.015,29.313,9.933,42.741,17.772c2.821,1.647,4.57,1.163,6.959-0.583
		c12.777-9.34,25.658-18.537,38.526-27.753c7.438-5.327,11.61-4.97,18.178,1.576c12.849,12.81,25.682,25.637,38.487,38.491
		c6.004,6.027,6.399,10.48,1.519,17.47c-9.058,12.977-18.119,25.953-27.323,38.827c-1.925,2.692-2.413,4.68-0.556,7.859
		c7.675,13.129,13.617,27.066,17.393,41.821c0.89,3.481,2.564,4.672,5.91,5.182c15.309,2.333,30.562,5.031,45.875,7.335
		c5.823,0.877,10.259,3.128,12.338,8.919c0,21.78,0,43.56,0,65.34c-2.739,5.043-7.085,7.191-12.692,8.08
		c-15.457,2.444-30.842,5.338-46.27,7.971c-2.748,0.47-4.073,1.66-4.845,4.543c-4.063,15.178-10.01,29.629-17.96,43.196
		c-1.405,2.399-1.185,3.94,0.408,6.115c9.349,12.771,18.536,25.658,27.765,38.518c5.792,8.071,5.503,11.987-1.445,18.956
		c-12.579,12.616-25.171,25.218-37.777,37.807c-6.683,6.673-10.695,6.981-18.623,1.444c-12.976-9.063-25.966-18.103-38.866-27.271
		c-2.281-1.621-3.986-1.98-6.601-0.438c-13.543,7.988-27.982,13.976-43.176,17.985c-3.187,0.841-4.151,2.503-4.636,5.326
		c-2.675,15.587-5.573,31.137-8.104,46.746c-0.927,5.714-3.429,9.775-8.938,11.792C265.4,508.939,243.62,508.939,221.84,508.939z
		 M488.679,276.949c0-13.925,0.076-27.59-0.155-41.251c-0.017-1.02-2.115-2.668-3.442-2.901
		c-15.254-2.682-30.522-5.296-45.838-7.597c-6.599-0.992-10.207-4.444-11.744-10.801c-4.448-18.39-11.645-35.668-21.637-51.743
		c-3.367-5.418-3.051-10.428,0.628-15.556c6.343-8.841,12.529-17.794,18.778-26.703c3.387-4.828,6.764-9.662,9.749-13.927
		c-10.554-10.59-20.659-20.731-30.995-31.102c-12.8,9.19-26.064,18.405-38.96,28.107c-6.118,4.604-11.617,4.929-18.069,0.926
		c-15.364-9.532-31.86-16.569-49.519-20.534c-7.789-1.748-11.151-6.358-12.333-13.921c-2.462-15.761-5.418-31.444-8.257-47.648
		c-13.258,0-26.26,0.128-39.256-0.083c-3.63-0.058-4.664,1.176-5.187,4.663c-2.275,15.152-5.043,30.229-7.375,45.373
		c-0.954,6.194-4.277,9.688-10.206,11.133c-18.542,4.521-35.989,11.711-52.242,21.73c-5.094,3.139-9.937,2.86-14.721-0.565
		c-4.692-3.359-9.385-6.717-14.082-10.07c-9.089-6.489-18.182-12.974-26.925-19.212c-10.467,10.486-20.573,20.609-30.932,30.986
		c0.656,1.006,1.508,2.396,2.438,3.729c8.493,12.168,16.844,24.438,25.57,36.437c4.115,5.658,4.495,10.931,0.825,16.826
		c-9.918,15.933-16.946,33.106-21.328,51.334c-1.509,6.281-5.309,9.379-11.558,10.372c-15.132,2.405-30.207,5.174-45.35,7.503
		c-3.335,0.514-4.389,1.659-4.324,4.965c0.188,9.563,0.066,19.134,0.065,28.702c0,3.574,0,7.147,0,10.854
		c16.207,2.852,31.729,5.887,47.358,8.206c8.117,1.204,12.624,5.048,14.427,13.053c3.866,17.174,10.641,33.261,19.988,48.145
		c4.33,6.895,3.705,12.605-1.036,18.964c-9.552,12.808-18.652,25.953-27.559,38.429c10.499,10.411,20.74,20.564,31.266,31.001
		c12.947-9.039,26.545-18.339,39.913-27.96c5.528-3.979,10.696-4.262,16.401-0.716c16.082,9.998,33.404,17.071,51.797,21.497
		c5.831,1.403,9.01,4.961,9.972,10.798c2.224,13.493,4.558,26.969,6.778,40.463c1.62,9.84,1.571,9.848,11.534,9.849
		c11.187,0,22.375,0,33.757,0c3.045-17.021,6.096-33.528,8.908-50.074c1.045-6.148,4.441-9.591,10.369-11.021
		c18.556-4.479,36.002-11.678,52.224-21.753c5.416-3.365,10.393-3.048,15.542,0.631c12.209,8.72,24.527,17.284,36.812,25.898
		c1.455,1.021,2.97,1.954,3.911,2.571c10.495-10.477,20.627-20.589,31.019-30.963c-9.083-12.627-18.179-25.771-27.836-38.488
		c-4.874-6.418-5.229-12.116-0.998-18.931c9.358-15.072,16.308-31.262,20.126-48.621c1.8-8.18,6.618-11.649,14.597-12.854
		C457.179,282.745,472.693,279.753,488.679,276.949z"/>
	<path display="none" fill-rule="evenodd" clip-rule="evenodd" fill="#FFFFFF" d="M289.5,513.5c5.564-2.037,8.092-6.14,9.027-11.911
		c2.558-15.768,5.484-31.475,8.187-47.219c0.489-2.852,1.464-4.53,4.683-5.38c15.348-4.05,29.933-10.098,43.612-18.167
		c2.641-1.558,4.362-1.194,6.667,0.443c13.03,9.261,26.152,18.393,39.259,27.547c8.008,5.593,12.062,5.281,18.812-1.459
		c12.733-12.716,25.452-25.445,38.158-38.188c7.019-7.039,7.311-10.995,1.46-19.147c-9.321-12.989-18.602-26.008-28.045-38.907
		c-1.608-2.196-1.832-3.753-0.412-6.177c8.03-13.704,14.037-28.302,18.142-43.633c0.779-2.911,2.117-4.114,4.894-4.589
		c15.583-2.659,31.124-5.582,46.736-8.052c5.664-0.896,10.054-3.067,12.821-8.161c0,74.333,0,148.667,0,223
		C438.833,513.5,364.167,513.5,289.5,513.5z"/>
	<path display="none" fill-rule="evenodd" clip-rule="evenodd" fill="#FFFFFF" d="M493.034,279.166
		c-16.146,2.832-31.818,5.854-47.587,8.231c-8.06,1.216-12.927,4.721-14.744,12.983c-3.857,17.534-10.877,33.888-20.329,49.111
		c-4.273,6.884-3.915,12.64,1.008,19.122c9.755,12.847,18.942,26.123,28.117,38.877c-10.497,10.479-20.73,20.693-31.332,31.275
		c-0.951-0.623-2.48-1.566-3.95-2.597c-12.408-8.701-24.852-17.353-37.184-26.16c-5.201-3.716-10.229-4.036-15.699-0.638
		c-16.385,10.178-34.008,17.448-52.751,21.973c-5.987,1.445-9.418,4.923-10.474,11.133c-2.842,16.714-5.923,33.387-8.998,50.58
		c-11.498,0-22.799,0-34.099,0c-10.063-0.001-10.014-0.009-11.65-9.948c-2.243-13.63-4.6-27.241-6.847-40.871
		c-0.972-5.896-4.184-9.489-10.073-10.907c-18.579-4.471-36.077-11.615-52.321-21.714c-5.763-3.582-10.983-3.297-16.566,0.723
		c-13.502,9.719-27.238,19.112-40.316,28.243c-10.632-10.542-20.976-20.798-31.582-31.314c8.998-12.602,18.189-25.88,27.837-38.817
		c4.789-6.422,5.419-12.19,1.046-19.155c-9.441-15.034-16.285-31.283-20.19-48.631c-1.821-8.086-6.373-11.969-14.572-13.185
		c-15.787-2.342-31.466-5.408-47.837-8.288c0-3.744,0-7.354,0-10.964c0-9.665,0.124-19.332-0.066-28.992
		c-0.066-3.339,0.999-4.496,4.367-5.015c15.296-2.353,30.523-5.15,45.809-7.579c6.312-1.003,10.149-4.132,11.674-10.477
		c4.426-18.412,11.525-35.759,21.543-51.853c3.707-5.955,3.323-11.281-0.833-16.996c-8.814-12.119-17.25-24.514-25.828-36.805
		c-0.94-1.347-1.801-2.75-2.463-3.767c10.463-10.481,20.671-20.707,31.244-31.299c8.832,6.302,18.016,12.852,27.197,19.406
		c4.744,3.387,9.485,6.778,14.225,10.172c4.833,3.46,9.724,3.741,14.869,0.57c16.417-10.12,34.041-17.382,52.77-21.949
		c5.988-1.46,9.345-4.988,10.309-11.245c2.355-15.297,5.152-30.526,7.45-45.831c0.529-3.522,1.573-4.769,5.24-4.71
		c13.127,0.213,26.261,0.083,39.653,0.083c2.867,16.368,5.853,32.21,8.34,48.13c1.193,7.639,4.59,12.296,12.457,14.062
		c17.837,4.005,34.5,11.113,50.02,20.741c6.517,4.043,12.071,3.715,18.251-0.936c13.026-9.801,26.425-19.108,39.354-28.392
		c10.44,10.476,20.648,20.719,31.309,31.416c-3.016,4.308-6.427,9.19-9.848,14.067c-6.312,8.999-12.561,18.042-18.968,26.973
		c-3.716,5.18-4.035,10.24-0.634,15.713c10.093,16.237,17.361,33.69,21.854,52.266c1.553,6.421,5.198,9.908,11.863,10.91
		c15.47,2.324,30.893,4.965,46.301,7.674c1.341,0.235,3.46,1.9,3.478,2.931C493.111,251.297,493.034,265.101,493.034,279.166z
		 M400.741,257.664c0.257-79.002-63.989-143.34-143.2-143.405c-78.989-0.064-142.621,63.363-143.282,142.822
		c-0.656,78.749,63.476,143.199,142.95,143.66C336.077,401.198,400.482,336.996,400.741,257.664z"/>
	<path fill-rule="evenodd" clip-rule="evenodd" d="M397.309,255.662c-0.256,78.539-64.018,142.099-142.098,141.646
		c-78.679-0.456-142.168-64.262-141.52-142.224c0.655-78.665,63.65-141.458,141.85-141.394
		C333.959,113.756,397.563,177.45,397.309,255.662z M377.175,255.635c0.185-66.716-54.378-121.458-121.414-121.81
		c-66.628-0.35-121.415,54.145-121.936,121.288c-0.518,66.675,54.668,122.042,121.662,122.063
		C322.286,377.194,376.989,322.558,377.175,255.635z"/>
	<path display="none" fill-rule="evenodd" clip-rule="evenodd" fill="#FFFFFF" d="M380.404,257.637
		c-0.188,67.599-55.443,122.787-122.918,122.768c-67.67-0.021-123.414-55.947-122.891-123.296
		c0.527-67.821,55.867-122.866,123.168-122.513C325.477,134.952,380.591,190.246,380.404,257.637z M329.218,257.477
		c-0.033-39.351-31.982-71.393-71.487-71.694c-39.304-0.3-71.981,32.281-71.948,71.735c0.033,39.33,32.011,71.402,71.49,71.7
		C296.574,329.514,329.25,296.93,329.218,257.477z"/>
	<path fill-rule="evenodd" clip-rule="evenodd" d="M326.5,255.477c0.032,39.059-32.316,71.316-71.226,71.023
		c-39.084-0.295-70.742-32.046-70.775-70.982c-0.033-39.06,32.318-71.315,71.229-71.019
		C294.838,184.798,326.467,216.52,326.5,255.477z M255.334,306.078c28.075,0.062,50.674-22.39,50.744-50.41
		c0.069-28.059-22.4-50.676-50.412-50.746c-28.054-0.071-50.68,22.407-50.744,50.414
		C204.857,283.403,227.321,306.016,255.334,306.078z"/>
	<path display="none" fill-rule="evenodd" clip-rule="evenodd" fill="#FFFFFF" d="M257.332,308.589
		c-28.295-0.063-50.986-22.903-50.921-51.255c0.065-28.289,22.919-50.994,51.257-50.923c28.295,0.071,50.991,22.917,50.921,51.259
		C308.519,285.974,285.691,308.651,257.332,308.589z"/>
</g>
</svg>
