<?xml version="1.0" encoding="utf-8"?>
<!-- Generator: Adobe Illustrator 16.0.0, SVG Export Plug-In . SVG Version: 6.00 Build 0)  -->
<!DOCTYPE svg PUBLIC "-//W3C//DTD SVG 1.1//EN" "http://www.w3.org/Graphics/SVG/1.1/DTD/svg11.dtd">
<svg version="1.1" id="Layer_1" xmlns="http://www.w3.org/2000/svg" xmlns:xlink="http://www.w3.org/1999/xlink" x="0px" y="0px"
	 width="512px" height="512px" viewBox="0 0 512 512" enable-background="new 0 0 512 512" xml:space="preserve">
<g>
	<line fill="none" stroke="#B35047" x1="32" y1="0" x2="32" y2="512"/>
	<line fill="none" stroke="#B35047" x1="64" y1="0" x2="64" y2="512"/>
	<line fill="none" stroke="#B35047" x1="96" y1="0" x2="96" y2="512"/>
	<line fill="none" stroke="#B35047" x1="128" y1="0" x2="128" y2="512"/>
	<line fill="none" stroke="#B35047" x1="160" y1="0" x2="160" y2="512"/>
	<line fill="none" stroke="#B35047" x1="192" y1="0" x2="192" y2="512"/>
	<line fill="none" stroke="#B35047" x1="224" y1="0" x2="224" y2="512"/>
	<line fill="none" stroke="#B35047" x1="256" y1="0" x2="256" y2="512"/>
	<line fill="none" stroke="#B35047" x1="288" y1="0" x2="288" y2="512"/>
	<line fill="none" stroke="#B35047" x1="320" y1="0" x2="320" y2="512"/>
	<line fill="none" stroke="#B35047" x1="352" y1="0" x2="352" y2="512"/>
	<line fill="none" stroke="#B35047" x1="384" y1="0" x2="384" y2="512"/>
	<line fill="none" stroke="#B35047" x1="416" y1="0" x2="416" y2="512"/>
	<line fill="none" stroke="#B35047" x1="448" y1="0" x2="448" y2="512"/>
	<line fill="none" stroke="#B35047" x1="480" y1="0" x2="480" y2="512"/>
	<line fill="none" stroke="#B35047" x1="0" y1="32" x2="512" y2="32"/>
	<line fill="none" stroke="#B35047" x1="0" y1="64" x2="512" y2="64"/>
	<line fill="none" stroke="#B35047" x1="0" y1="96" x2="512" y2="96"/>
	<line fill="none" stroke="#B35047" x1="0" y1="128" x2="512" y2="128"/>
	<line fill="none" stroke="#B35047" x1="0" y1="160" x2="512" y2="160"/>
	<line fill="none" stroke="#B35047" x1="0" y1="192" x2="512" y2="192"/>
	<line fill="none" stroke="#B35047" x1="0" y1="224" x2="512" y2="224"/>
	<line fill="none" stroke="#B35047" x1="0" y1="256" x2="512" y2="256"/>
	<line fill="none" stroke="#B35047" x1="0" y1="288" x2="512" y2="288"/>
	<line fill="none" stroke="#B35047" x1="0" y1="320" x2="512" y2="320"/>
	<line fill="none" stroke="#B35047" x1="0" y1="352" x2="512" y2="352"/>
	<line fill="none" stroke="#B35047" x1="0" y1="384" x2="512" y2="384"/>
	<line fill="none" stroke="#B35047" x1="0" y1="416" x2="512" y2="416"/>
	<line fill="none" stroke="#B35047" x1="0" y1="448" x2="512" y2="448"/>
	<line fill="none" stroke="#B35047" x1="0" y1="480" x2="512" y2="480"/>
	<rect fill="none" stroke="#B35047" width="512" height="512"/>
</g>
<g>
	<path display="none" fill-rule="evenodd" clip-rule="evenodd" fill="#FFFFFF" d="M513.5,513.48c-170.945,0-341.891,0-512.918,0
		c0-170.885,0-341.788,0-512.836c170.918,0,341.918,0,512.918,0C513.5,171.545,513.5,342.503,513.5,513.48z M32.296,492.712
		c150.523,0,300.258,0,450.542,0c0-112.596,0-224.841,0-337.768c7.106,0,13.671,0,20.237,0c0-41.126,0-81.568,0-122.325
		c-163.798,0-327.336,0-491.093,0c0,40.849,0,81.401,0,122.674c6.844,0,13.389,0,20.314,0
		C32.296,268.121,32.296,380.229,32.296,492.712z"/>
	<path fill-rule="evenodd" clip-rule="evenodd" d="M31.296,490.712c0-112.483,0-224.591,0-337.419c-6.925,0-13.47,0-20.314,0
		c0-41.272,0-81.825,0-122.674c163.757,0,327.295,0,491.093,0c0,40.757,0,81.199,0,122.325c-6.566,0-13.131,0-20.237,0
		c0,112.927,0,225.172,0,337.768C331.554,490.712,181.819,490.712,31.296,490.712z M51.736,470.085c136.769,0,273.095,0,409.364,0
		c0-105.676,0-210.922,0-316.237c-136.604,0-272.924,0-409.364,0C51.736,259.414,51.736,364.534,51.736,470.085z M481.494,50.958
		c-150.318,0-300.05,0-449.899,0c0,27.257,0,54.171,0,81.15c150.151,0,300.015,0,449.899,0
		C481.494,104.91,481.494,78.107,481.494,50.958z"/>
	<path display="none" fill-rule="evenodd" clip-rule="evenodd" fill="#FFFFFF" d="M52.736,472.085c0-105.551,0-210.671,0-316.237
		c136.44,0,272.76,0,409.364,0c0,105.315,0,210.562,0,316.237C325.831,472.085,189.505,472.085,52.736,472.085z M258.006,196.429
		c-26.991,0-53.999-0.61-80.966,0.194c-21.266,0.635-36.719,23.453-31.054,44.03c4.692,17.044,18.104,26.979,36.772,26.997
		c49.823,0.048,99.647,0.02,149.471,0.007c1.997-0.001,4.001-0.073,5.991-0.236c17.575-1.435,32.152-17.69,31.992-35.643
		c-0.162-18.232-14.535-34.742-32.239-35.178C311.333,195.944,284.664,196.43,258.006,196.429z"/>
	<path display="none" fill-rule="evenodd" clip-rule="evenodd" fill="#FFFFFF" d="M482.494,52.958c0,27.149,0,53.952,0,81.15
		c-149.885,0-299.749,0-449.899,0c0-26.979,0-53.894,0-81.15C182.444,52.958,332.176,52.958,482.494,52.958z"/>
	<path fill-rule="evenodd" clip-rule="evenodd" d="M257.006,194.429c26.658,0.001,53.327-0.484,79.968,0.172
		c17.704,0.436,32.077,16.945,32.239,35.178c0.16,17.952-14.417,34.208-31.992,35.643c-1.99,0.163-3.994,0.235-5.991,0.236
		c-49.823,0.013-99.647,0.041-149.471-0.007c-18.668-0.018-32.08-9.953-36.772-26.997c-5.665-20.577,9.788-43.396,31.054-44.03
		C203.007,193.818,230.015,194.429,257.006,194.429z M256.793,214.516c-9.493,0-18.986-0.001-28.479,0.001
		c-15.822,0.002-31.645-0.106-47.464,0.051c-10.444,0.104-17.343,7.553-16.309,17.157c0.901,8.369,7.682,13.586,17.97,13.593
		c49.297,0.031,98.594,0.022,147.891-0.015c2.146-0.002,4.336-0.222,6.43-0.684c6.826-1.508,11.539-7.37,11.694-14.306
		c0.206-9.208-6.55-15.723-16.789-15.763C306.756,214.455,281.774,214.52,256.793,214.516z"/>
	<path display="none" fill-rule="evenodd" clip-rule="evenodd" fill="#FFFFFF" d="M257.793,216.518
		c24.981,0.002,49.963-0.063,74.944,0.033c10.239,0.04,16.995,6.555,16.789,15.763c-0.155,6.936-4.868,12.798-11.694,14.306
		c-2.094,0.462-4.283,0.682-6.43,0.684c-49.297,0.037-98.594,0.046-147.891,0.015c-10.288-0.007-17.069-5.224-17.97-13.593
		c-1.034-9.604,5.864-17.053,16.309-17.157c15.82-0.157,31.643-0.049,47.464-0.051C238.807,216.515,248.3,216.516,257.793,216.518z"
		/>
</g>
</svg>
