<?xml version="1.0" encoding="utf-8"?>
<!-- Generator: Adobe Illustrator 16.0.0, SVG Export Plug-In . SVG Version: 6.00 Build 0)  -->
<!DOCTYPE svg PUBLIC "-//W3C//DTD SVG 1.1//EN" "http://www.w3.org/Graphics/SVG/1.1/DTD/svg11.dtd">
<svg version="1.1" id="Layer_1" xmlns="http://www.w3.org/2000/svg" xmlns:xlink="http://www.w3.org/1999/xlink" x="0px" y="0px"
	 width="512px" height="512px" viewBox="0 0 512 512" enable-background="new 0 0 512 512" xml:space="preserve">
<g>
	<line fill="none" stroke="#B35047" x1="32" y1="0" x2="32" y2="512"/>
	<line fill="none" stroke="#B35047" x1="64" y1="0" x2="64" y2="512"/>
	<line fill="none" stroke="#B35047" x1="96" y1="0" x2="96" y2="512"/>
	<line fill="none" stroke="#B35047" x1="128" y1="0" x2="128" y2="512"/>
	<line fill="none" stroke="#B35047" x1="160" y1="0" x2="160" y2="512"/>
	<line fill="none" stroke="#B35047" x1="192" y1="0" x2="192" y2="512"/>
	<line fill="none" stroke="#B35047" x1="224" y1="0" x2="224" y2="512"/>
	<line fill="none" stroke="#B35047" x1="256" y1="0" x2="256" y2="512"/>
	<line fill="none" stroke="#B35047" x1="288" y1="0" x2="288" y2="512"/>
	<line fill="none" stroke="#B35047" x1="320" y1="0" x2="320" y2="512"/>
	<line fill="none" stroke="#B35047" x1="352" y1="0" x2="352" y2="512"/>
	<line fill="none" stroke="#B35047" x1="384" y1="0" x2="384" y2="512"/>
	<line fill="none" stroke="#B35047" x1="416" y1="0" x2="416" y2="512"/>
	<line fill="none" stroke="#B35047" x1="448" y1="0" x2="448" y2="512"/>
	<line fill="none" stroke="#B35047" x1="480" y1="0" x2="480" y2="512"/>
	<line fill="none" stroke="#B35047" x1="0" y1="32" x2="512" y2="32"/>
	<line fill="none" stroke="#B35047" x1="0" y1="64" x2="512" y2="64"/>
	<line fill="none" stroke="#B35047" x1="0" y1="96" x2="512" y2="96"/>
	<line fill="none" stroke="#B35047" x1="0" y1="128" x2="512" y2="128"/>
	<line fill="none" stroke="#B35047" x1="0" y1="160" x2="512" y2="160"/>
	<line fill="none" stroke="#B35047" x1="0" y1="192" x2="512" y2="192"/>
	<line fill="none" stroke="#B35047" x1="0" y1="224" x2="512" y2="224"/>
	<line fill="none" stroke="#B35047" x1="0" y1="256" x2="512" y2="256"/>
	<line fill="none" stroke="#B35047" x1="0" y1="288" x2="512" y2="288"/>
	<line fill="none" stroke="#B35047" x1="0" y1="320" x2="512" y2="320"/>
	<line fill="none" stroke="#B35047" x1="0" y1="352" x2="512" y2="352"/>
	<line fill="none" stroke="#B35047" x1="0" y1="384" x2="512" y2="384"/>
	<line fill="none" stroke="#B35047" x1="0" y1="416" x2="512" y2="416"/>
	<line fill="none" stroke="#B35047" x1="0" y1="448" x2="512" y2="448"/>
	<line fill="none" stroke="#B35047" x1="0" y1="480" x2="512" y2="480"/>
	<rect fill="none" stroke="#B35047" width="512" height="512"/>
</g>
<g>
	<path display="none" fill-rule="evenodd" clip-rule="evenodd" fill="#FFFFFF" d="M0.5,0.5c171,0,342,0,513,0c0,171,0,342,0,513
		c-171,0-342,0-513,0C0.5,342.5,0.5,171.5,0.5,0.5z M257.504,441.729c73.479,0,146.957,0.001,220.437-0.002
		c12.044,0,15.115-3.058,15.122-15.042c0.029-48.819,0.073-97.639,0.03-146.457c-0.002-2.448-0.435-5.002-1.207-7.327
		c-19.875-59.813-39.813-119.605-59.766-179.394c-2.607-7.813-5.776-10.055-13.914-10.056
		c-106.97-0.004-213.939-0.005-320.909,0.001c-8.833,0-11.796,2.154-14.591,10.54c-19.819,59.481-39.646,118.96-59.405,178.461
		c-0.824,2.482-1.416,5.18-1.418,7.777c-0.045,48.818,0.013,97.637,0.054,146.454c0.01,11.985,3.087,15.043,15.129,15.043
		C110.545,441.729,184.024,441.729,257.504,441.729z"/>
	<path fill-rule="evenodd" clip-rule="evenodd" d="M256.504,438.729c-73.479,0-146.958,0.001-220.438-0.001
		c-12.042,0-15.119-3.058-15.129-15.043c-0.042-48.817-0.1-97.636-0.054-146.454c0.002-2.598,0.594-5.295,1.418-7.777
		c19.759-59.501,39.586-118.979,59.405-178.461c2.794-8.386,5.758-10.54,14.591-10.54c106.97-0.006,213.939-0.005,320.909-0.001
		c8.138,0.001,11.307,2.243,13.914,10.056c19.952,59.788,39.891,119.58,59.766,179.394c0.772,2.325,1.205,4.879,1.207,7.327
		c0.043,48.818-0.001,97.638-0.03,146.457c-0.007,11.984-3.078,15.042-15.122,15.042
		C403.461,438.729,329.982,438.729,256.504,438.729z M467.293,264.664c-0.483-1.81-0.757-3.092-1.168-4.328
		c-17.234-51.747-34.527-103.475-51.631-155.266c-1.216-3.682-3.137-4.285-6.514-4.282c-100.979,0.069-201.958,0.078-302.936-0.03
		c-3.81-0.004-5.447,1.131-6.647,4.775c-12.527,38.067-25.252,76.068-37.92,114.09c-4.932,14.8-9.857,29.602-14.999,45.041
		c2.545,0,4.493,0,6.441,0c43.157,0,86.315-0.014,129.473,0.011c9.501,0.006,13.297,3.688,13.933,13.079
		c0.224,3.313,0.507,6.653,1.151,9.904c5.851,29.547,34.119,50.893,64.258,48.614c30.914-2.338,55.426-27.096,56.922-57.495
		c0.53-10.777,4.035-14.108,14.926-14.11c42.824-0.007,85.648-0.003,128.473-0.003C463.01,264.664,464.964,264.664,467.293,264.664z
		 M41.721,418.07c143.417,0,286.424,0,429.431,0c0-44.387,0-88.438,0-132.506c-44.627,0-88.893,0-133.114,0
		c-7.896,46.365-43.907,68.625-74.489,70.961c-19.074,1.457-36.777-2.791-52.635-13.562c-20.34-13.815-31.966-33.301-35.77-57.371
		c-44.704,0-88.947,0-133.422,0C41.721,329.804,41.721,373.73,41.721,418.07z"/>
	<path display="none" fill-rule="evenodd" clip-rule="evenodd" fill="#FFFFFF" d="M468.293,267.664c-2.329,0-4.283,0-6.238,0
		c-42.824,0-85.648-0.004-128.473,0.003c-10.891,0.002-14.396,3.333-14.926,14.11c-1.496,30.399-26.008,55.157-56.922,57.495
		c-30.14,2.278-58.407-19.067-64.258-48.614c-0.644-3.251-0.927-6.591-1.151-9.904c-0.636-9.391-4.432-13.073-13.933-13.079
		c-43.158-0.024-86.315-0.011-129.473-0.011c-1.948,0-3.896,0-6.441,0c5.141-15.439,10.067-30.241,14.999-45.041
		c12.668-38.021,25.394-76.022,37.92-114.09c1.2-3.645,2.837-4.779,6.647-4.775c100.979,0.108,201.958,0.1,302.936,0.03
		c3.377-0.003,5.298,0.601,6.514,4.282c17.104,51.791,34.396,103.519,51.631,155.266
		C467.536,264.572,467.81,265.854,468.293,267.664z"/>
	<path display="none" fill-rule="evenodd" clip-rule="evenodd" fill="#FFFFFF" d="M42.721,421.07c0-44.34,0-88.267,0-132.478
		c44.476,0,88.718,0,133.422,0c3.804,24.07,15.43,43.556,35.77,57.371c15.858,10.771,33.562,15.019,52.635,13.562
		c30.582-2.336,66.593-24.596,74.489-70.961c44.222,0,88.487,0,133.114,0c0,44.068,0,88.119,0,132.506
		C329.146,421.07,186.138,421.07,42.721,421.07z"/>
</g>
</svg>
