<?xml version="1.0" encoding="utf-8"?>
<!-- Generator: Adobe Illustrator 16.0.0, SVG Export Plug-In . SVG Version: 6.00 Build 0)  -->
<!DOCTYPE svg PUBLIC "-//W3C//DTD SVG 1.1//EN" "http://www.w3.org/Graphics/SVG/1.1/DTD/svg11.dtd">
<svg version="1.1" id="Layer_1" xmlns="http://www.w3.org/2000/svg" xmlns:xlink="http://www.w3.org/1999/xlink" x="0px" y="0px"
	 width="512px" height="512px" viewBox="0 0 512 512" enable-background="new 0 0 512 512" xml:space="preserve">
<g>
	<line fill="none" stroke="#B35047" x1="32" y1="0" x2="32" y2="512"/>
	<line fill="none" stroke="#B35047" x1="64" y1="0" x2="64" y2="512"/>
	<line fill="none" stroke="#B35047" x1="96" y1="0" x2="96" y2="512"/>
	<line fill="none" stroke="#B35047" x1="128" y1="0" x2="128" y2="512"/>
	<line fill="none" stroke="#B35047" x1="160" y1="0" x2="160" y2="512"/>
	<line fill="none" stroke="#B35047" x1="192" y1="0" x2="192" y2="512"/>
	<line fill="none" stroke="#B35047" x1="224" y1="0" x2="224" y2="512"/>
	<line fill="none" stroke="#B35047" x1="256" y1="0" x2="256" y2="512"/>
	<line fill="none" stroke="#B35047" x1="288" y1="0" x2="288" y2="512"/>
	<line fill="none" stroke="#B35047" x1="320" y1="0" x2="320" y2="512"/>
	<line fill="none" stroke="#B35047" x1="352" y1="0" x2="352" y2="512"/>
	<line fill="none" stroke="#B35047" x1="384" y1="0" x2="384" y2="512"/>
	<line fill="none" stroke="#B35047" x1="416" y1="0" x2="416" y2="512"/>
	<line fill="none" stroke="#B35047" x1="448" y1="0" x2="448" y2="512"/>
	<line fill="none" stroke="#B35047" x1="480" y1="0" x2="480" y2="512"/>
	<line fill="none" stroke="#B35047" x1="0" y1="32" x2="512" y2="32"/>
	<line fill="none" stroke="#B35047" x1="0" y1="64" x2="512" y2="64"/>
	<line fill="none" stroke="#B35047" x1="0" y1="96" x2="512" y2="96"/>
	<line fill="none" stroke="#B35047" x1="0" y1="128" x2="512" y2="128"/>
	<line fill="none" stroke="#B35047" x1="0" y1="160" x2="512" y2="160"/>
	<line fill="none" stroke="#B35047" x1="0" y1="192" x2="512" y2="192"/>
	<line fill="none" stroke="#B35047" x1="0" y1="224" x2="512" y2="224"/>
	<line fill="none" stroke="#B35047" x1="0" y1="256" x2="512" y2="256"/>
	<line fill="none" stroke="#B35047" x1="0" y1="288" x2="512" y2="288"/>
	<line fill="none" stroke="#B35047" x1="0" y1="320" x2="512" y2="320"/>
	<line fill="none" stroke="#B35047" x1="0" y1="352" x2="512" y2="352"/>
	<line fill="none" stroke="#B35047" x1="0" y1="384" x2="512" y2="384"/>
	<line fill="none" stroke="#B35047" x1="0" y1="416" x2="512" y2="416"/>
	<line fill="none" stroke="#B35047" x1="0" y1="448" x2="512" y2="448"/>
	<line fill="none" stroke="#B35047" x1="0" y1="480" x2="512" y2="480"/>
	<rect fill="none" stroke="#B35047" width="512" height="512"/>
</g>
<g>
	<path display="none" fill-rule="evenodd" clip-rule="evenodd" fill="#FFFFFF" d="M0.55,513.5c0-170.925,0-341.85,0-512.888
		c170.833,0,341.717,0,512.775,0c0,170.888,0,341.888,0,512.888C342.517,513.5,171.558,513.5,0.55,513.5z M257.582,124.456
		c-34.514-0.092-67.291,7.988-98.868,21.356c-37.424,15.844-71.172,37.723-101.872,64.162
		c-14.113,12.153-27.232,25.487-40.472,38.618c-6.184,6.132-5.813,11.381-0.009,17.956c0.882,1,1.767,1.998,2.689,2.96
		c40.305,42.038,85.968,76.619,139.756,99.7c28.673,12.304,58.546,19.97,89.869,21.2c45.438,1.786,87.589-10.407,127.757-30.553
		c35.071-17.59,66.619-40.345,95.49-66.802c9.326-8.546,18.146-17.665,26.892-26.813c5.855-6.123,5.602-11.2-0.01-17.604
		c-0.988-1.128-1.988-2.247-3.026-3.329c-40.212-41.886-85.731-76.396-139.359-99.411
		C324.909,132.374,292.088,124.392,257.582,124.456z"/>
	<path fill-rule="evenodd" clip-rule="evenodd" d="M255.578,122.455c34.51-0.063,67.331,7.919,98.841,21.441
		c53.628,23.016,99.147,57.525,139.359,99.411c1.038,1.082,2.038,2.201,3.026,3.329c5.611,6.404,5.865,11.481,0.01,17.604
		c-8.746,9.148-17.565,18.268-26.892,26.813c-28.871,26.457-60.419,49.212-95.49,66.802
		c-40.168,20.146-82.319,32.339-127.757,30.553c-31.323-1.23-61.195-8.896-89.869-21.2c-53.789-23.081-99.452-57.662-139.756-99.7
		c-0.922-0.962-1.807-1.96-2.689-2.96c-5.804-6.575-6.175-11.824,0.009-17.956c13.24-13.131,26.359-26.465,40.472-38.618
		c30.7-26.439,64.448-48.318,101.872-64.162C188.291,130.444,221.068,122.364,255.578,122.455z M143.854,172.361
		c-41.784,21.88-77.761,49.71-110.148,83.447c9.525,8.946,18.364,17.775,27.752,25.975c35.647,31.131,74.693,56.638,119.55,72.82
		c56.456,20.365,111.715,16.851,166.315-6.716c40.825-17.622,76.688-42.713,109.422-72.493c6.958-6.331,13.338-13.297,19.959-19.945
		c-25.248-28.622-89.968-77.15-109.229-82.012c26.803,61.634,0.41,120.873-37.892,149.292
		c-42.48,31.519-99.023,32.951-142.721,4.066C148.748,301.603,114.062,240.388,143.854,172.361z M256.305,142.845
		c-26.01,0.3-50.335,4.538-73.824,13.183c-2.499,0.92-5.044,2.706-6.694,4.784c-18.331,23.099-25.644,49.392-21.395,78.559
		c8.5,58.345,63.465,97.156,121.17,85.856c73.692-14.431,107.059-102.668,61.33-162.414c-2.022-2.643-4.819-5.324-7.833-6.476
		C305.342,147.277,280.653,143.163,256.305,142.845z"/>
	<path display="none" fill-rule="evenodd" clip-rule="evenodd" fill="#FFFFFF" d="M145.854,174.361
		c-29.792,68.026,4.894,129.241,43.008,154.435c43.698,28.885,100.241,27.452,142.721-4.066
		c38.302-28.419,64.694-87.658,37.892-149.292c19.262,4.861,83.981,53.39,109.229,82.012c-6.621,6.648-13.001,13.614-19.959,19.945
		c-32.733,29.78-68.597,54.871-109.422,72.493c-54.6,23.566-109.859,27.081-166.315,6.716
		c-44.857-16.183-83.903-41.689-119.55-72.82c-9.389-8.199-18.228-17.028-27.752-25.975
		C68.093,224.071,104.071,196.241,145.854,174.361z"/>
	<path display="none" fill-rule="evenodd" clip-rule="evenodd" fill="#FFFFFF" d="M258.305,144.845
		c24.349,0.318,49.037,4.433,72.754,13.492c3.014,1.151,5.811,3.833,7.833,6.476c45.729,59.746,12.362,147.983-61.33,162.414
		c-57.705,11.3-112.67-27.512-121.17-85.856c-4.249-29.167,3.064-55.46,21.395-78.559c1.649-2.078,4.195-3.864,6.694-4.784
		C207.969,149.383,232.294,145.145,258.305,144.845z M259.617,277.748c29.438-1.033,50.942-26.75,48.82-54.595
		c-2.181-28.616-26.242-48.711-53.056-47.406c-30.908,1.504-50.811,27.628-48.814,54.645
		C208.612,258.059,232.967,279.79,259.617,277.748z"/>
	<path fill-rule="evenodd" clip-rule="evenodd" d="M257.617,275.748c-26.65,2.042-51.005-19.689-53.05-47.356
		c-1.997-27.017,17.906-53.141,48.814-54.645c26.814-1.305,50.875,18.79,53.056,47.406
		C308.56,248.998,287.055,274.715,257.617,275.748z M255.708,255.441c16.692-0.168,30.574-14.175,30.47-30.746
		c-0.107-16.96-14.195-30.734-31.136-30.44c-16.831,0.292-30.614,14.365-30.219,30.856
		C225.226,241.975,239.111,255.609,255.708,255.441z"/>
	<path display="none" fill-rule="evenodd" clip-rule="evenodd" fill="#FFFFFF" d="M257.708,257.441
		c-16.597,0.168-30.482-13.467-30.885-30.33c-0.395-16.491,13.388-30.564,30.219-30.856c16.94-0.294,31.028,13.48,31.136,30.44
		C288.282,243.267,274.4,257.273,257.708,257.441z"/>
</g>
</svg>
