<?xml version="1.0" encoding="utf-8"?>
<!-- Generator: Adobe Illustrator 16.0.0, SVG Export Plug-In . SVG Version: 6.00 Build 0)  -->
<!DOCTYPE svg PUBLIC "-//W3C//DTD SVG 1.1//EN" "http://www.w3.org/Graphics/SVG/1.1/DTD/svg11.dtd">
<svg version="1.1" id="Layer_1" xmlns="http://www.w3.org/2000/svg" xmlns:xlink="http://www.w3.org/1999/xlink" x="0px" y="0px"
	 width="512px" height="512px" viewBox="0 0 512 512" enable-background="new 0 0 512 512" xml:space="preserve">
<g>
	<line fill="none" stroke="#B35047" x1="32" y1="0" x2="32" y2="512"/>
	<line fill="none" stroke="#B35047" x1="64" y1="0" x2="64" y2="512"/>
	<line fill="none" stroke="#B35047" x1="96" y1="0" x2="96" y2="512"/>
	<line fill="none" stroke="#B35047" x1="128" y1="0" x2="128" y2="512"/>
	<line fill="none" stroke="#B35047" x1="160" y1="0" x2="160" y2="512"/>
	<line fill="none" stroke="#B35047" x1="192" y1="0" x2="192" y2="512"/>
	<line fill="none" stroke="#B35047" x1="224" y1="0" x2="224" y2="512"/>
	<line fill="none" stroke="#B35047" x1="256" y1="0" x2="256" y2="512"/>
	<line fill="none" stroke="#B35047" x1="288" y1="0" x2="288" y2="512"/>
	<line fill="none" stroke="#B35047" x1="320" y1="0" x2="320" y2="512"/>
	<line fill="none" stroke="#B35047" x1="352" y1="0" x2="352" y2="512"/>
	<line fill="none" stroke="#B35047" x1="384" y1="0" x2="384" y2="512"/>
	<line fill="none" stroke="#B35047" x1="416" y1="0" x2="416" y2="512"/>
	<line fill="none" stroke="#B35047" x1="448" y1="0" x2="448" y2="512"/>
	<line fill="none" stroke="#B35047" x1="480" y1="0" x2="480" y2="512"/>
	<line fill="none" stroke="#B35047" x1="0" y1="32" x2="512" y2="32"/>
	<line fill="none" stroke="#B35047" x1="0" y1="64" x2="512" y2="64"/>
	<line fill="none" stroke="#B35047" x1="0" y1="96" x2="512" y2="96"/>
	<line fill="none" stroke="#B35047" x1="0" y1="128" x2="512" y2="128"/>
	<line fill="none" stroke="#B35047" x1="0" y1="160" x2="512" y2="160"/>
	<line fill="none" stroke="#B35047" x1="0" y1="192" x2="512" y2="192"/>
	<line fill="none" stroke="#B35047" x1="0" y1="224" x2="512" y2="224"/>
	<line fill="none" stroke="#B35047" x1="0" y1="256" x2="512" y2="256"/>
	<line fill="none" stroke="#B35047" x1="0" y1="288" x2="512" y2="288"/>
	<line fill="none" stroke="#B35047" x1="0" y1="320" x2="512" y2="320"/>
	<line fill="none" stroke="#B35047" x1="0" y1="352" x2="512" y2="352"/>
	<line fill="none" stroke="#B35047" x1="0" y1="384" x2="512" y2="384"/>
	<line fill="none" stroke="#B35047" x1="0" y1="416" x2="512" y2="416"/>
	<line fill="none" stroke="#B35047" x1="0" y1="448" x2="512" y2="448"/>
	<line fill="none" stroke="#B35047" x1="0" y1="480" x2="512" y2="480"/>
	<rect fill="none" stroke="#B35047" width="512" height="512"/>
</g>
<g>
	<path display="none" fill-rule="evenodd" clip-rule="evenodd" fill="#FFFFFF" d="M512.35,512.5c-170.883,0-341.841,0-512.824,0
		c0-170.941,0-341.883,0-512.912c170.875,0,341.774,0,512.824,0C512.35,170.5,512.35,341.5,512.35,512.5z M256.084,483.53
		c33.855-23.47,67.661-46.574,101.103-70.195c26.031-18.387,50.42-38.769,72.178-62.193c33.624-36.2,56.782-77.435,61.692-127.472
		c1.952-19.891,1.253-39.706-5.43-58.723c-17.808-50.68-53.138-81.725-106.146-90.854c-38.04-6.551-72.672,3.271-103.05,27.139
		c-7.127,5.6-13.458,12.213-20.149,18.353c-0.322-0.225-0.627-0.374-0.851-0.603c-1.981-2.023-3.952-4.058-5.918-6.096
		c-21.485-22.269-47.681-35.513-78.25-39.421c-38.108-4.871-72.461,5.021-102.039,29.478
		c-28.097,23.233-44.393,53.502-47.479,89.839c-3.553,41.845,7.498,80.452,29.396,116.08c21.797,35.462,50.985,64.212,84.034,88.755
		C174.986,427.182,215.984,455.146,256.084,483.53z"/>
	<path fill-rule="evenodd" clip-rule="evenodd" d="M256.084,483.53c-40.1-28.385-81.098-56.349-120.907-85.913
		c-33.048-24.543-62.237-53.293-84.034-88.755c-21.899-35.628-32.95-74.235-29.396-116.08c3.086-36.337,19.382-66.605,47.479-89.839
		c29.578-24.457,63.93-34.349,102.039-29.478c30.569,3.908,56.765,17.152,78.25,39.421c1.966,2.038,3.937,4.072,5.918,6.096
		c0.224,0.229,0.528,0.378,0.851,0.603c6.691-6.14,13.022-12.753,20.149-18.353c30.378-23.867,65.01-33.689,103.05-27.139
		c53.008,9.129,88.338,40.174,106.146,90.854c6.683,19.017,7.382,38.832,5.43,58.723c-4.91,50.037-28.068,91.271-61.692,127.472
		c-21.758,23.425-46.146,43.807-72.178,62.193C323.745,436.956,289.939,460.061,256.084,483.53z M256.828,153.974
		c-0.866-0.634-1.191-0.776-1.38-1.023c-3.731-4.904-7.433-9.831-11.168-14.732c-20.149-26.436-46.746-41.556-79.811-44.896
		c-59.864-6.047-114.896,37.885-121.904,97.584c-4.011,34.169,3.879,66.158,19.791,96.332c16.76,31.783,41.152,57.176,68.051,80.37
		c39.337,33.921,84.295,60.038,125.758,90.37c24.244-16.513,48.404-32.769,72.354-49.329c31.292-21.639,61.387-44.731,87.238-72.919
		c18.862-20.566,34.538-43.181,44.426-69.399c10.226-27.115,15.356-55.289,8.806-83.814c-10.753-46.826-40.165-77.259-87.291-87.094
		c-45.615-9.521-83.539,5.98-112.677,42.452C264.881,143.056,261.004,148.446,256.828,153.974z"/>
	<path fill-rule="evenodd" clip-rule="evenodd" stroke="#000000" d="M256.828,153.974c4.176-5.527,8.053-10.918,12.192-16.099
		c29.138-36.472,67.062-51.973,112.677-42.452c47.126,9.835,76.538,40.268,87.291,87.094c6.551,28.525,1.42,56.699-8.806,83.814
		c-9.888,26.219-25.563,48.833-44.426,69.399c-25.852,28.188-55.946,51.28-87.238,72.919
		c-23.949,16.561-48.109,32.816-72.354,49.329c-41.463-30.332-86.421-56.449-125.758-90.37
		c-26.899-23.194-51.292-48.587-68.051-80.37c-15.911-30.174-23.802-62.163-19.791-96.332
		c7.009-59.699,62.04-103.631,121.904-97.584c33.065,3.34,59.662,18.46,79.811,44.896c3.735,4.901,7.437,9.828,11.168,14.732
		C255.637,153.197,255.962,153.34,256.828,153.974z"/>
</g>
</svg>
