<?xml version="1.0" encoding="utf-8"?>
<!-- Generator: Adobe Illustrator 17.0.0, SVG Export Plug-In . SVG Version: 6.00 Build 0)  -->
<!DOCTYPE svg PUBLIC "-//W3C//DTD SVG 1.1//EN" "http://www.w3.org/Graphics/SVG/1.1/DTD/svg11.dtd">
<svg version="1.1" id="Layer_1" xmlns="http://www.w3.org/2000/svg" xmlns:xlink="http://www.w3.org/1999/xlink" x="0px" y="0px"
	 width="512px" height="512px" viewBox="0 0 512 512" enable-background="new 0 0 512 512" xml:space="preserve">
<g>
	<line fill="none" stroke="#B35047" x1="32" y1="0" x2="32" y2="512"/>
	<line fill="none" stroke="#B35047" x1="64" y1="0" x2="64" y2="512"/>
	<line fill="none" stroke="#B35047" x1="96" y1="0" x2="96" y2="512"/>
	<line fill="none" stroke="#B35047" x1="128" y1="0" x2="128" y2="512"/>
	<line fill="none" stroke="#B35047" x1="160" y1="0" x2="160" y2="512"/>
	<line fill="none" stroke="#B35047" x1="192" y1="0" x2="192" y2="512"/>
	<line fill="none" stroke="#B35047" x1="224" y1="0" x2="224" y2="512"/>
	<line fill="none" stroke="#B35047" x1="256" y1="0" x2="256" y2="512"/>
	<line fill="none" stroke="#B35047" x1="288" y1="0" x2="288" y2="512"/>
	<line fill="none" stroke="#B35047" x1="320" y1="0" x2="320" y2="512"/>
	<line fill="none" stroke="#B35047" x1="352" y1="0" x2="352" y2="512"/>
	<line fill="none" stroke="#B35047" x1="384" y1="0" x2="384" y2="512"/>
	<line fill="none" stroke="#B35047" x1="416" y1="0" x2="416" y2="512"/>
	<line fill="none" stroke="#B35047" x1="448" y1="0" x2="448" y2="512"/>
	<line fill="none" stroke="#B35047" x1="480" y1="0" x2="480" y2="512"/>
	<line fill="none" stroke="#B35047" x1="0" y1="32" x2="512" y2="32"/>
	<line fill="none" stroke="#B35047" x1="0" y1="64" x2="512" y2="64"/>
	<line fill="none" stroke="#B35047" x1="0" y1="96" x2="512" y2="96"/>
	<line fill="none" stroke="#B35047" x1="0" y1="128" x2="512" y2="128"/>
	<line fill="none" stroke="#B35047" x1="0" y1="160" x2="512" y2="160"/>
	<line fill="none" stroke="#B35047" x1="0" y1="192" x2="512" y2="192"/>
	<line fill="none" stroke="#B35047" x1="0" y1="224" x2="512" y2="224"/>
	<line fill="none" stroke="#B35047" x1="0" y1="256" x2="512" y2="256"/>
	<line fill="none" stroke="#B35047" x1="0" y1="288" x2="512" y2="288"/>
	<line fill="none" stroke="#B35047" x1="0" y1="320" x2="512" y2="320"/>
	<line fill="none" stroke="#B35047" x1="0" y1="352" x2="512" y2="352"/>
	<line fill="none" stroke="#B35047" x1="0" y1="384" x2="512" y2="384"/>
	<line fill="none" stroke="#B35047" x1="0" y1="416" x2="512" y2="416"/>
	<line fill="none" stroke="#B35047" x1="0" y1="448" x2="512" y2="448"/>
	<line fill="none" stroke="#B35047" x1="0" y1="480" x2="512" y2="480"/>
	<rect x="0" fill="none" stroke="#B35047" width="512" height="512"/>
</g>
<g display="none">
	<path fill="#FFFFFF" d="M513.5,301.5c0,70.667,0,141.333,0,212c-171,0-342,0-513,0c0-171,0-342,0-513c171,0,342,0,513,0
		c0,90.667,0,181.333,0,272c-0.285-1.108-0.747-2.204-0.828-3.327c-3.157-43.751-16.045-84.506-40.852-120.61
		C413.471,63.643,332.161,25.339,229.628,33.928c-45.381,3.802-86.798,20.345-123.247,47.776
		C40.33,131.415,5.161,197.933,1.769,280.553c-1.957,47.663,9.761,92.418,33.06,134.047c3.394,6.065,7.372,11.873,11.669,17.337
		c2.939,3.738,7.513,3.669,11.418,1.46c4.064-2.3,6.172-6.073,4.701-10.929c-0.797-2.631-2.046-5.125-3.218-7.992
		c4.934-2.873,9.928-5.518,14.619-8.622c2.411-1.596,4.918-3.667,6.246-6.134c2.161-4.015,1.148-8.052-2.277-11.282
		c-3.848-3.629-8.18-3.374-12.434-1.131c-5.571,2.938-10.964,6.216-16.398,9.328c-12.834-16.81-29.267-78.589-26.044-98.158
		c6.057,0,12.2,0.216,18.321-0.053c8.376-0.368,13.21-7.303,10.133-14.284c-2.096-4.755-6.299-6.109-11.05-6.177
		c-5.923-0.085-11.849-0.02-18.223-0.02c1.621-35.192,10.299-67.6,26.272-98.471c5.555,3.182,10.706,6.162,15.887,9.09
		c3.993,2.257,8.153,3.179,12.265,0.474c6.619-4.352,6.026-13.076-1.261-17.655c-5.302-3.332-10.794-6.363-16.605-9.764
		c19.07-29.444,42.778-53.338,72.142-72.008c3.183,5.501,5.816,10.526,8.93,15.233c1.595,2.411,3.706,4.939,6.199,6.192
		c4.02,2.02,8.126,1.057,11.272-2.448c3.493-3.892,3.207-8.245,0.944-12.491c-2.953-5.54-6.21-10.919-9.602-16.831
		c31.18-15.99,63.593-24.819,98.605-26.161c0,6.788-0.033,12.761,0.01,18.733c0.034,4.674,1.706,8.543,6.207,10.48
		c6.89,2.965,13.72-1.728,14.044-9.766c0.253-6.282,0.051-12.582,0.051-19.482c35.145,1.467,67.594,10.195,98.593,26.225
		c-3.331,5.803-6.4,10.928-9.25,16.171c-3.396,6.249-2.071,12.387,3.093,15.271c5.256,2.935,10.964,0.945,14.673-5.238
		c3.077-5.13,6.035-10.333,9.031-15.479c20.052,8.847,64.366,53.253,71.77,71.984c-2.517,1.475-5.076,2.984-7.644,4.477
		c-2.59,1.506-5.232,2.929-7.776,4.509c-4.028,2.502-7.062,5.762-6.293,10.924c1.156,7.755,8.586,10.992,16.066,6.987
		c5.497-2.943,10.845-6.165,16.543-9.424c15.973,31.104,24.724,63.477,26.181,97.682c-0.878,0.384-1.168,0.619-1.461,0.623
		c-5.496,0.072-10.993,0.061-16.488,0.183c-4.711,0.105-9.005,1.259-11.158,6.019c-3.256,7.199,1.725,14.221,10.336,14.469
		c6.104,0.175,12.217,0.034,18.806,0.034c-1.698,35.115-10.284,67.61-26.354,98.432c-5.586-3.203-10.383-6.231-15.439-8.736
		c-2.572-1.274-5.653-2.359-8.428-2.2c-4.832,0.278-7.82,3.611-8.596,8.327c-0.791,4.813,1.692,8.356,5.651,10.769
		c5.362,3.268,10.854,6.322,16.415,9.539c-0.94,1.658-1.63,2.783-2.233,3.953c-3.085,5.986-1.808,12.057,3.105,14.866
		c5.016,2.868,10.907,1.131,14.573-4.515c18.334-28.229,31.22-58.71,37.186-91.909C510.668,325.257,511.878,313.341,513.5,301.5z
		 M256.954,472.515c33.309,0,66.618,0.016,99.926-0.01c9.425-0.008,13.304-3.907,13.348-13.393
		c0.053-11.491,0.059-22.983-0.002-34.474c-0.051-9.654-3.768-13.462-13.251-13.466c-66.285-0.027-132.569-0.029-198.854,0.002
		c-9.537,0.004-13.308,3.842-13.351,13.371c-0.049,10.992-0.019,21.984-0.01,32.976c0.01,11.543,3.406,14.992,14.764,14.994
		C192.001,472.518,224.478,472.516,256.954,472.515z M420.368,196.904c-1-5.118-3.885-3.212-6.431-2.211
		c-41.473,16.303-82.926,32.659-124.453,48.822c-2.136,0.831-5.018,0.507-7.354-0.077c-7.345-1.836-14.491-5.287-21.9-5.914
		c-37.447-3.169-65.296,37.348-49.494,71.442c10.201,22.009,32.536,33.615,56.676,29.451c21.972-3.79,38.956-23.241,41.156-46.779
		c0.2-2.142,1.573-4.725,3.233-6.096c21.318-17.601,42.789-35.017,64.219-52.483C390.847,220.978,405.669,208.889,420.368,196.904z"
		/>
	<path display="inline" d="M511,304.68c-1.616,11.796-2.821,23.667-4.925,35.375c-5.943,33.073-18.78,63.439-37.045,91.56
		c-3.653,5.624-9.521,7.355-14.518,4.497c-4.894-2.799-6.167-8.847-3.093-14.81c0.601-1.165,1.288-2.286,2.224-3.938
		c-5.54-3.205-11.011-6.248-16.353-9.503c-3.944-2.404-6.418-5.933-5.629-10.728c0.772-4.698,3.75-8.019,8.563-8.295
		c2.764-0.159,5.834,0.922,8.396,2.191c5.037,2.496,9.815,5.512,15.38,8.703c16.009-30.705,24.563-63.077,26.254-98.059
		c-6.564,0-12.654,0.141-18.735-0.034c-8.578-0.246-13.54-7.242-10.297-14.414c2.145-4.742,6.423-5.892,11.116-5.997
		c5.474-0.122,10.95-0.111,16.425-0.183c0.292-0.004,0.581-0.238,1.456-0.62c-1.451-34.075-10.169-66.325-26.081-97.311
		c-5.677,3.248-11.004,6.457-16.481,9.389c-7.451,3.99-14.853,0.765-16.005-6.961c-0.767-5.142,2.256-8.39,6.269-10.882
		c2.534-1.574,5.166-2.991,7.747-4.492c2.559-1.487,5.108-2.991,7.615-4.46c-7.376-18.66-51.522-62.897-71.498-71.711
		c-2.985,5.127-5.931,10.31-8.997,15.421c-3.695,6.16-9.381,8.143-14.617,5.218c-5.144-2.873-6.464-8.989-3.082-15.213
		c2.839-5.224,5.896-10.329,9.215-16.11c-30.881-15.969-63.207-24.664-98.219-26.126c0,6.874,0.202,13.15-0.051,19.408
		c-0.323,8.008-7.127,12.683-13.991,9.729c-4.484-1.929-6.15-5.784-6.183-10.44c-0.043-5.949-0.01-11.899-0.01-18.662
		c-34.879,1.337-67.169,10.133-98.231,26.062c3.38,5.891,6.625,11.248,9.566,16.768c2.254,4.23,2.538,8.567-0.941,12.444
		c-3.134,3.492-7.225,4.452-11.229,2.439c-2.483-1.248-4.586-3.767-6.175-6.169c-3.103-4.689-5.725-9.695-8.896-15.175
		c-29.253,18.599-52.871,42.403-71.869,71.735c5.79,3.389,11.26,6.408,16.542,9.727c7.259,4.562,7.849,13.253,1.256,17.588
		c-4.097,2.694-8.241,1.776-12.219-0.472c-5.161-2.917-10.293-5.886-15.827-9.056c-15.912,30.754-24.558,63.039-26.173,98.098
		c6.35,0,12.253-0.064,18.154,0.02c4.732,0.068,8.919,1.416,11.008,6.154c3.065,6.954-1.751,13.863-10.095,14.23
		c-6.098,0.268-12.217,0.052-18.251,0.052c-3.21,19.495,13.161,81.04,25.946,97.786c5.414-3.1,10.786-6.366,16.336-9.293
		c4.238-2.235,8.554-2.489,12.387,1.126c3.411,3.217,4.421,7.24,2.268,11.239c-1.323,2.458-3.821,4.521-6.223,6.111
		c-4.673,3.093-9.648,5.727-14.563,8.59c1.168,2.857,2.412,5.341,3.206,7.962c1.465,4.838-0.635,8.597-4.684,10.888
		c-3.89,2.201-8.447,2.269-11.375-1.454c-4.28-5.443-8.243-11.23-11.625-17.271C10.934,375.881-0.739,331.296,1.21,283.813
		C4.589,201.506,39.624,135.24,105.425,85.718c36.31-27.327,77.57-43.807,122.779-47.595
		c102.144-8.557,183.146,29.602,241.273,114.2c24.713,35.967,37.552,76.567,40.697,120.152c0.081,1.119,0.542,2.21,0.825,3.315
		C511,285.42,511,295.05,511,304.68z"/>
	<path display="inline" d="M255.426,475.048c-32.353,0-64.706,0.003-97.059-0.001c-11.316-0.001-14.699-3.437-14.709-14.937
		c-0.009-10.95-0.039-21.901,0.01-32.851c0.043-9.493,3.799-13.316,13.3-13.321c66.033-0.031,132.066-0.028,198.1-0.002
		c9.448,0.004,13.151,3.797,13.201,13.415c0.06,11.448,0.055,22.896,0.002,34.344c-0.044,9.45-3.909,13.335-13.297,13.342
		C321.791,475.064,288.609,475.047,255.426,475.048z M347.442,434.563c-61.234,0-122.034,0-182.968,0c0,6.728,0,13.132,0,19.818
		c61.062,0,121.88,0,182.968,0C347.442,447.73,347.442,441.33,347.442,434.563z"/>
	<path display="inline" d="M418.221,200.481c-14.643,11.939-29.409,23.982-44.179,36.02c-21.348,17.4-42.738,34.75-63.975,52.284
		c-1.654,1.365-3.021,3.939-3.22,6.072c-2.192,23.449-19.112,42.826-41,46.601c-24.048,4.148-46.299-7.415-56.461-29.34
		c-15.743-33.965,12.001-74.328,49.306-71.172c7.381,0.625,14.5,4.062,21.817,5.891c2.327,0.581,5.198,0.905,7.326,0.076
		c41.37-16.102,82.666-32.396,123.982-48.637C414.351,197.282,417.225,195.383,418.221,200.481z M255.889,321.86
		c16.719,0.053,30.383-13.419,30.637-30.205c0.252-16.621-13.999-30.884-30.722-30.749c-16.609,0.134-30.451,14.061-30.397,30.586
		C225.461,308.168,239.151,321.807,255.889,321.86z"/>
	<path fill="#FFFFFF" d="M349.319,431.877c0,6.793,0,13.218,0,19.894c-61.321,0-122.37,0-183.665,0c0-6.712,0-13.14,0-19.894
		C226.82,431.877,287.852,431.877,349.319,431.877z"/>
	<path fill="#FFFFFF" d="M257.418,318.745c-16.802-0.053-30.544-13.744-30.598-30.484c-0.053-16.588,13.84-30.568,30.513-30.703
		c16.787-0.136,31.091,14.182,30.839,30.866C287.917,305.275,274.201,318.798,257.418,318.745z"/>
</g>
<g display="none">
	<path fill="#FFFFFF" d="M513.5,434.5c0,26.333,0,52.667,0,79c-171,0-342,0-513,0c0-171,0-342,0-513c171,0,342,0,513,0
		c0,50.667,0,101.333,0,152c-1.481-3.866-2.611-7.915-4.502-11.569c-9.696-18.736-25.56-27.358-46.316-27.363
		c-136.818-0.035-273.636-0.018-410.454-0.018c-0.833,0-1.667,0-2.5,0.013c-29.538,0.493-48.727,25.203-48.52,49.672
		c0.743,87.651,0.312,175.311,0.27,262.968C1.473,440.5,7.445,451.89,17.903,461.182c10.291,9.144,22.654,11.98,36.078,11.967
		c71.492-0.071,142.984-0.033,214.476-0.033c64.493,0,128.986-0.049,193.478,0.031c17.401,0.022,32.199-5.596,42.455-20.012
		C508.345,447.576,510.516,440.749,513.5,434.5z M185.644,103.622c0-11.551,0.307-22.525-0.074-33.474
		c-0.534-15.358-12.697-27.351-28.055-27.58c-18.64-0.279-37.29-0.239-55.931-0.01c-13.576,0.166-25.968,9.734-27.471,23.057
		c-1.401,12.425-0.299,25.132-0.299,37.939c6.478,0,12.87,0,19.553,0c0.083-1.892,0.212-3.52,0.216-5.148
		c0.023-8.49-0.076-16.981,0.047-25.469c0.09-6.246,2.956-9.785,8.857-9.865c17.973-0.242,35.954-0.241,53.927-0.016
		c5.923,0.074,8.85,3.596,8.953,9.781c0.133,7.988,0.037,15.98,0.04,23.971c0.001,2.257,0,4.515,0,6.815
		C172.468,103.622,178.752,103.622,185.644,103.622z M441.611,103.633c0-11.703,0.34-22.842-0.084-33.953
		c-0.565-14.812-12.613-26.782-27.483-27.071c-18.97-0.37-37.956-0.319-56.928-0.02c-13.462,0.212-25.818,10.282-27.135,23.476
		c-1.228,12.3-0.262,24.819-0.262,37.499c6.552,0,12.944,0,19.875,0c0-9.714-0.016-19.158,0.004-28.602
		c0.02-9.205,2.745-12.024,11.851-12.058c14.149-0.052,28.299-0.015,42.449-0.015c16.736,0,17.509,0.769,17.509,17.405
		c0,7.758,0,15.517,0,23.337C428.446,103.633,434.731,103.633,441.611,103.633z"/>
	<path display="inline" d="M511,431.96c-2.97,6.221-5.132,13.018-9.069,18.551c-10.21,14.351-24.942,19.944-42.265,19.922
		c-64.204-0.08-128.408-0.031-192.612-0.031c-71.172,0-142.344-0.038-213.516,0.033c-13.364,0.013-25.671-2.811-35.916-11.913
		c-10.412-9.251-16.357-20.59-16.35-34.821c0.041-87.265,0.47-174.533-0.269-261.791c-0.206-24.359,18.897-48.959,48.303-49.45
		c0.829-0.014,1.659-0.013,2.488-0.013c136.206-0.001,272.411-0.017,408.617,0.017c20.662,0.005,36.455,8.588,46.108,27.241
		c1.883,3.638,3.007,7.668,4.482,11.517C511,244.802,511,338.381,511,431.96z M256.162,134.041
		c-67.357,0-134.715-0.014-202.072,0.036c-3.79,0.003-7.702,0.021-11.349,0.899c-13.341,3.215-20.533,13.536-20.536,29.028
		c-0.017,84.943-0.019,169.887,0.001,254.83c0.005,19.293,10.884,30.044,30.36,30.056c36.831,0.023,73.662,0.007,110.492,0.007
		c99.045,0,198.09,0.011,297.135-0.011c18.444-0.004,29.846-10.746,29.862-28.525c0.08-85.939,0.083-171.878-0.095-257.816
		c-0.01-4.652-1.056-9.719-3.094-13.87c-5.432-11.065-15.236-14.708-27.14-14.688C391.872,134.1,324.017,134.042,256.162,134.041z"
		/>
	<path display="inline" d="M184.611,102.563c-6.861,0-13.117,0-20.146,0c0-2.29,0.001-4.537,0-6.785
		c-0.002-7.955,0.093-15.911-0.039-23.863c-0.102-6.157-3.016-9.663-8.913-9.737c-17.893-0.224-35.793-0.226-53.686,0.016
		c-5.875,0.079-8.728,3.603-8.818,9.821c-0.122,8.45-0.024,16.903-0.046,25.355c-0.004,1.621-0.133,3.242-0.215,5.125
		c-6.654,0-13.017,0-19.466,0c0-12.75-1.097-25.4,0.298-37.769c1.496-13.263,13.832-22.788,27.348-22.954
		c18.558-0.227,37.124-0.267,55.681,0.01c15.289,0.229,27.398,12.168,27.93,27.457C184.917,80.14,184.611,91.064,184.611,102.563z"
		/>
	<path display="inline" d="M439.432,102.575c-6.849,0-13.105,0-20.113,0c0-7.786,0-15.509,0-23.233
		c0-16.562-0.77-17.328-17.431-17.327c-14.086,0-28.173-0.037-42.259,0.015c-9.065,0.033-11.778,2.839-11.797,12.004
		c-0.02,9.402-0.004,18.803-0.004,28.474c-6.9,0-13.263,0-19.786,0c0-12.623-0.961-25.086,0.261-37.332
		c1.311-13.135,13.612-23.16,27.013-23.371c18.887-0.298,37.788-0.348,56.673,0.02c14.804,0.288,26.797,12.204,27.36,26.95
		C439.771,79.834,439.432,90.924,439.432,102.575z"/>
	<path fill="#FFFFFF" d="M257.517,135.242c68.16,0,136.32,0.059,204.48-0.055c11.958-0.02,21.806,3.639,27.262,14.754
		c2.047,4.169,3.098,9.259,3.107,13.932c0.179,86.325,0.176,172.65,0.096,258.975c-0.017,17.859-11.469,28.649-29.996,28.654
		c-99.49,0.023-198.981,0.011-298.471,0.011c-36.996,0-73.993,0.016-110.989-0.007c-19.563-0.012-30.492-10.811-30.496-30.191
		c-0.02-85.325-0.018-170.65-0.001-255.976c0.003-15.562,7.227-25.929,20.628-29.159c3.663-0.883,7.592-0.901,11.4-0.904
		C122.196,135.228,189.856,135.241,257.517,135.242z M441.516,277.936c-2.41,0-4.218,0-6.026,0
		c-10.16-0.001-20.321-0.106-30.478,0.057c-3.271,0.052-4.341-1.028-4.272-4.3c0.185-8.823,0.062-17.653,0.062-26.481
		c0-3.26,0-6.52,0-9.843c-10.535,0-20.281,0-30.632,0c0,13.532,0,26.769,0,40.565c-13.851,0-27.108,0-40.579,0
		c0,10.464,0,20.349,0,30.746c13.547,0,26.784,0,40.703,0c0,13.864,0,27.232,0,40.644c10.451,0,20.205,0,30.629,0
		c0-13.634,0-27.014,0-40.87c13.914,0,27.164,0,40.594,0C441.516,298.185,441.516,288.413,441.516,277.936z M73.485,308.294
		c37.663,0,74.741,0,111.836,0c0-10.198,0-20.07,0-30.001c-37.482,0-74.557,0-111.836,0C73.485,288.425,73.485,298.2,73.485,308.294
		z"/>
	<path display="inline" d="M439.338,276.097c0,10.43,0,20.158,0,30.382c-13.37,0-26.56,0-40.412,0c0,13.794,0,27.115,0,40.687
		c-10.377,0-20.088,0-30.492,0c0-13.352,0-26.66,0-40.462c-13.856,0-27.034,0-40.521,0c0-10.351,0-20.191,0-30.608
		c13.411,0,26.609,0,40.397,0c0-13.734,0-26.912,0-40.383c10.305,0,20.007,0,30.495,0c0,3.309,0,6.554,0,9.799
		c0.001,8.788,0.123,17.578-0.061,26.362c-0.068,3.257,0.997,4.333,4.253,4.281c10.112-0.162,20.227-0.058,30.342-0.057
		C435.139,276.097,436.939,276.097,439.338,276.097z"/>
	<path display="inline" d="M72.955,306.319c0-10.049,0-19.78,0-29.866c37.113,0,74.021,0,111.336,0c0,9.886,0,19.714,0,29.866
		C147.362,306.319,110.449,306.319,72.955,306.319z"/>
</g>
<image display="none" overflow="visible" width="512" height="512" xlink:href="../../../Knowledge/Icon/[+++++] (Full) iOS7 icons [icons8]/Users/group/group-512.png"  transform="matrix(1 0 0 1 -1.525879e-005 0)">
</image>
<image display="none" overflow="visible" width="512" height="512" xlink:href="../../../Knowledge/Icon/[+++++] (Full) iOS7 icons [icons8]/Users/user_male3/user_male3-512.png"  transform="matrix(1 0 0 1 -1.525879e-005 0)">
</image>
<image display="none" overflow="visible" width="512" height="512" xlink:href="../../../Knowledge/Icon/[+++++] (Full) iOS7 icons [icons8]/Users/user_female/user_female-512.png"  transform="matrix(1 0 0 1 -1.525879e-005 0)">
</image>
<image display="none" overflow="visible" width="512" height="512" xlink:href="../../../Knowledge/Icon/[+++++] (Full) iOS7 icons [icons8]/Users/user_male4/user_male4-512.png"  transform="matrix(1 0 0 1 -1.525879e-005 0)">
</image>
<image display="none" overflow="visible" width="512" height="512" xlink:href="../../../Knowledge/Icon/[+++++] (Full) iOS7 icons [icons8]/Users/user_female3/user_female3-512.png"  transform="matrix(1 0 0 1 -1.525879e-005 0)">
</image>
<g>
	<path d="M510.927,241.061c0,9.961,0,19.922,0,29.883c-0.308,1.757-0.669,3.506-0.915,5.272
		c-1.484,10.657-2.372,21.433-4.503,31.958c-12.165,60.094-44.566,108.276-89.619,148.359
		c-28.17,25.062-62.091,39.577-98.475,48.423c-10.095,2.454-20.398,4.053-30.606,6.045c-18.261,0-36.523,0-54.784,0
		c-5.014-0.966-10.008-2.048-15.044-2.882c-58.089-9.618-107.829-35.293-147.702-78.683C17.501,373.091-4.744,306.179,2.363,230.127
		c5.054-54.079,26.1-101.895,62.275-142.498C112.566,33.837,172.93,4.932,244.844,1.336c50.642-2.532,98.276,9.256,141.585,35.748
		c65.807,40.254,106.174,98.56,120.477,174.55C508.734,221.351,509.61,231.247,510.927,241.061z M422.588,420.715
		c87.212-86.828,94.14-235.578-1.004-330.715C326.363-5.215,170.429-0.683,81.222,99.513
		C-7.626,199.305,9.04,341.779,88.126,419.241c15.819-12.509,34.42-19.556,52.984-26.76c13.268-5.149,26.514-10.424,39.437-16.367
		c6.93-3.187,12.718-8.319,15.811-16.392c-2.268-0.386-4.179-0.726-6.095-1.035c-16.231-2.611-32.292-5.826-47.395-12.686
		c-14.711-6.682-20.629-15.68-20.115-31.252c5.979,0.346,7.861-3.893,8.664-8.652c1.516-8.976,3.305-17.98,3.815-27.038
		c1.128-20.048,1.361-40.145,2.279-60.207c1.124-24.566,3.491-48.99,10.842-72.629c7.516-24.172,19.835-45.173,40.625-60.451
		c18.457-13.564,39.538-19.743,62.003-22.053c15.476-1.592,29.961,1.483,43.648,8.83c2.213,1.188,4.852,1.66,7.347,2.23
		c8.833,2.02,18.121,2.841,26.448,6.119c18.739,7.376,29.885,22.486,37.291,40.602c9.115,22.298,11.884,45.872,12.76,69.624
		c0.942,25.539,0.681,51.12,1.37,76.672c0.299,11.087,1.109,22.229,2.78,33.18c0.809,5.306,4.292,10.168,6.263,15.346
		c1.076,2.828,2.323,5.959,2.093,8.842c-0.582,7.296-4.762,13.088-11.091,16.136c-9.785,4.712-19.87,9.096-30.253,12.186
		c-10.681,3.179-21.873,4.642-33.86,7.061c2.394,3.237,3.961,6.866,6.718,8.793c7.694,5.379,15.482,10.914,23.949,14.845
		C371.94,396.022,399.357,403.786,422.588,420.715z M368.912,324.541c-1.356-3.22-2.596-5.744-3.5-8.383
		c-5.133-14.985-5.53-30.607-5.923-46.196c-0.739-29.363-0.901-58.747-2.128-88.088c-0.756-18.076-3.647-35.959-10.634-52.908
		c-7.46-18.097-19.524-31.065-39.891-33.034c-9.504-0.919-18.075-2.564-26.632-7.378c-12.099-6.807-25.577-5.406-38.868-2.935
		c-29.328,5.451-51.976,20.089-65.714,47.151c-9.146,18.016-13.689,37.443-15.244,57.339c-2.041,26.124-2.675,52.356-4.063,78.534
		c-1,18.851-1.291,37.861-10.34,55.839c22.44,12.529,47.549,13.53,71.952,17.472c-0.445,6.286-1.04,12.063-1.218,17.853
		c-0.22,7.159-3.335,13.005-7.495,18.525c-6.903,9.158-16.153,15.369-26.461,19.689c-17.872,7.489-36.131,14.052-54.037,21.464
		c-7.991,3.307-15.521,7.729-24.252,12.146c51.555,37.869,105.281,64.338,170.314,58.275c49.787-4.641,93.883-22.51,132.692-54.86
		c-2.923-1.851-5.031-3.544-7.414-4.635c-14.753-6.754-29.602-13.297-44.351-20.06c-11.736-5.381-23.823-10.199-34.959-16.641
		c-20.903-12.093-28.61-28.869-25.158-51.712C320.414,338.262,345.982,337.16,368.912,324.541z"/>
	<path display="none" fill="#FFFFFF" d="M513.5,242.5c-1.323-9.852-2.202-19.787-4.038-29.543
		c-14.359-76.288-54.885-134.824-120.951-175.236C345.032,11.126,297.21-0.709,246.369,1.833
		c-72.197,3.61-132.798,32.629-180.915,86.633C29.136,129.228,8.007,177.232,2.934,231.524
		c-7.135,76.35,15.198,143.525,67.179,200.091c40.03,43.561,89.966,69.337,148.284,78.992c5.055,0.837,10.07,1.923,15.103,2.893
		c-77.641,0-155.282,0-232.961,0c0-170.917,0-341.834,0-512.876c170.961,0,341.961,0,512.961,0
		C513.5,81.221,513.5,161.86,513.5,242.5z"/>
	<path display="none" fill="#FFFFFF" d="M288.5,513.5c10.248-1.999,20.592-3.605,30.727-6.069
		c36.526-8.88,70.581-23.452,98.862-48.613c45.231-40.24,77.759-88.612,89.972-148.942c2.139-10.566,3.03-21.385,4.52-32.084
		c0.247-1.772,0.61-3.529,0.919-5.293c0,80.333,0,160.667,0,241C438.5,513.5,363.5,513.5,288.5,513.5z"/>
	<path display="none" fill="#FFFFFF" d="M424.813,422.861c-23.322-16.996-50.847-24.79-76.447-36.673
		c-8.5-3.946-16.318-9.503-24.043-14.903c-2.768-1.935-4.341-5.578-6.744-8.827c12.034-2.429,23.27-3.897,33.993-7.089
		c10.425-3.103,20.549-7.504,30.372-12.234c6.354-3.06,10.551-8.875,11.135-16.2c0.231-2.894-1.021-6.038-2.101-8.877
		c-1.978-5.198-5.475-10.08-6.287-15.406c-1.677-10.994-2.49-22.18-2.791-33.31c-0.692-25.652-0.429-51.334-1.375-76.973
		c-0.88-23.846-3.659-47.512-12.81-69.898c-7.435-18.187-18.625-33.357-37.438-40.762c-8.36-3.291-17.685-4.115-26.552-6.143
		c-2.505-0.573-5.155-1.046-7.376-2.239c-13.74-7.376-28.283-10.463-43.819-8.865c-22.554,2.32-43.717,8.522-62.247,22.14
		c-20.871,15.338-33.239,36.421-40.785,60.688c-7.379,23.732-9.756,48.253-10.884,72.915c-0.922,20.141-1.155,40.317-2.288,60.444
		c-0.512,9.093-2.308,18.132-3.83,27.144c-0.807,4.777-2.696,9.034-8.698,8.686c-0.516,15.634,5.425,24.667,20.194,31.375
		c15.163,6.887,31.286,10.115,47.582,12.736c1.924,0.309,3.842,0.651,6.119,1.039c-3.106,8.104-8.916,13.256-15.873,16.456
		c-12.974,5.967-26.272,11.263-39.592,16.431c-18.637,7.232-37.312,14.307-53.193,26.865c-79.397-77.767-96.128-220.8-6.931-320.984
		C171.662-0.193,328.209-4.743,423.805,90.846C519.323,186.357,512.368,335.691,424.813,422.861z"/>
	<path display="none" fill="#FFFFFF" d="M370.926,326.308c-23.02,12.669-48.689,13.775-73.612,17.526
		c-3.466,22.934,4.271,39.775,25.257,51.916c11.18,6.468,23.314,11.304,35.096,16.706c14.807,6.789,29.715,13.358,44.526,20.139
		c2.393,1.095,4.509,2.795,7.444,4.654c-38.961,32.477-83.231,50.416-133.214,55.076c-65.289,6.086-119.226-20.487-170.984-58.504
		c8.765-4.434,16.325-8.873,24.347-12.193c17.977-7.44,36.307-14.029,54.25-21.548c10.349-4.337,19.635-10.572,26.565-19.766
		c4.177-5.542,7.304-11.411,7.525-18.598c0.179-5.813,0.775-11.613,1.222-17.923c-24.498-3.957-49.706-4.962-72.235-17.54
		c9.084-18.049,9.376-37.133,10.38-56.059c1.394-26.281,2.031-52.616,4.079-78.843c1.56-19.974,6.121-39.478,15.304-57.565
		c13.793-27.168,36.529-41.864,65.973-47.336c13.344-2.48,26.874-3.887,39.021,2.947c8.59,4.832,17.195,6.484,26.736,7.406
		c20.447,1.977,32.559,14.996,40.048,33.164c7.014,17.015,9.917,34.968,10.676,53.116c1.232,29.456,1.394,58.956,2.136,88.434
		c0.394,15.65,0.793,31.333,5.946,46.377C368.319,320.542,369.565,323.076,370.926,326.308z"/>
</g>
<g display="none">
	<path display="inline" d="M510.989,241.074c0,9.96,0,19.921,0,29.881c-0.289,1.426-0.741,2.841-0.843,4.281
		c-2.851,40.077-14.405,77.548-35.45,111.68c-40.475,65.647-98.738,105.979-174.753,120.12c-9.58,1.782-19.328,2.664-28.998,3.963
		c-9.96,0-19.921,0-29.881,0c-3.605-0.411-7.209-0.832-10.816-1.231c-54.19-5.989-102.226-26.373-142.916-62.736
		C33.743,399.143,4.938,338.878,1.351,267.134c-2.533-50.655,9.044-98.434,35.789-141.595C84.924,48.427,154.697,6.64,245.308,1.421
		c50.449-2.906,97.951,9.26,141.126,35.653c65.84,40.248,106.215,98.562,120.532,174.566
		C508.797,221.36,509.672,231.259,510.989,241.074z M21.402,261.905c0.561,6.182,0.968,18.344,2.866,30.269
		c7.926,49.817,29.751,92.762,65.009,128.864c6.904,7.07,6.888,7.081,15.06,2.008c0.985-0.612,1.962-1.264,3.015-1.736
		c16.167-7.237,32.458-14.211,48.487-21.74c12.257-5.757,24.607-11.524,36.134-18.565c9.368-5.722,15.159-14.567,14.954-26.44
		c-0.184-10.615,0.173-21.239,0.191-31.86c0.002-1.031-0.419-2.358-1.129-3.052c-11.742-11.474-17.233-26.146-21.004-41.574
		c-1.058-4.327-1.506-8.178-6.764-9.515c-1.833-0.466-3.537-2.515-4.73-4.236c-6.096-8.788-8.236-18.781-7.599-29.254
		c0.2-3.288,1.436-7.241,3.624-9.521c3.983-4.15,3.414-8.024,2.278-12.959c-5.918-25.706-9.522-51.616-3.286-77.822
		c5.247-22.047,17.451-38.819,38.453-48.372c21.157-9.624,43.413-11.765,66.164-8.361c10.799,1.616,20.863,5.423,27.747,14.89
		c0.806,1.108,2.765,1.595,4.286,1.929c10.757,2.367,20.391,6.594,27.94,15.057c11.015,12.349,14.492,27.34,15.367,43.15
		c1.186,21.446-2.647,42.282-8.73,62.751c-0.899,3.024-1.128,5.228,1.519,7.917c2.28,2.316,3.906,5.928,4.438,9.193
		c1.866,11.435-0.872,22.079-7.39,31.599c-1.422,2.077-3.777,4.023-6.118,4.84c-3.235,1.129-3.985,3.023-4.624,6.073
		c-3.403,16.233-8.8,31.582-20.631,43.93c-1.06,1.106-1.422,3.266-1.423,4.938c-0.01,10.454,0.438,20.914,0.211,31.36
		c-0.181,8.312,3.278,14.841,8.934,20.279c3.794,3.648,7.869,7.406,12.518,9.689c13.512,6.634,27.453,12.388,41.083,18.792
		c14.372,6.752,28.713,13.599,42.766,20.979c3.67,1.928,5.49,1.909,8.301-0.957c60.314-61.485,83.27-134.765,65.461-218.915
		C458.822,82.876,338.092,0.009,208.739,26.315C99.262,48.578,21.487,144.683,21.402,261.905z"/>
	<path fill="#FFFFFF" d="M513.5,242.5c-1.323-9.855-2.201-19.793-4.039-29.551c-14.374-76.307-54.91-134.853-121.012-175.261
		C345.102,11.189,297.41-1.025,246.761,1.893C155.79,7.132,85.739,49.085,37.765,126.505C10.913,169.838-0.71,217.807,1.833,268.663
		c3.601,72.03,32.521,132.535,86.324,180.615c40.852,36.508,89.079,56.973,143.485,62.986c3.621,0.4,7.239,0.823,10.859,1.235
		c-80.64,0-161.28,0-241.96,0c0-170.917,0-341.833,0-512.875c170.96,0,341.96,0,512.96,0C513.5,81.22,513.5,161.86,513.5,242.5z"/>
	<path fill="#FFFFFF" d="M272.5,513.5c9.709-1.304,19.495-2.189,29.113-3.979c76.318-14.197,134.812-54.69,175.449-120.598
		c21.129-34.269,32.729-71.889,35.591-112.125c0.103-1.445,0.556-2.866,0.847-4.298c0,80.333,0,160.667,0,241
		C433.167,513.5,352.833,513.5,272.5,513.5z"/>
	<path fill="#FFFFFF" d="M21.963,263.413c0.086-117.688,78.17-214.176,188.083-236.528
		C339.914,0.475,461.125,83.672,487.187,206.818c17.88,84.485-5.168,158.056-65.721,219.786c-2.823,2.878-4.649,2.896-8.334,0.961
		c-14.108-7.41-28.507-14.284-42.936-21.063c-13.684-6.429-27.68-12.206-41.246-18.866c-4.668-2.292-8.758-6.064-12.568-9.727
		c-5.678-5.46-9.151-12.014-8.969-20.359c0.228-10.488-0.222-20.989-0.212-31.485c0.002-1.678,0.365-3.847,1.429-4.958
		c11.878-12.397,17.297-27.807,20.713-44.105c0.642-3.062,1.395-4.964,4.643-6.097c2.35-0.82,4.714-2.774,6.142-4.859
		c6.543-9.557,9.292-20.244,7.419-31.725c-0.535-3.278-2.167-6.904-4.456-9.229c-2.657-2.699-2.428-4.912-1.525-7.948
		c6.107-20.551,9.956-41.47,8.765-63.001c-0.878-15.873-4.37-30.924-15.428-43.322c-7.579-8.497-17.251-12.741-28.051-15.117
		c-1.527-0.336-3.494-0.825-4.303-1.937c-6.912-9.504-17.016-13.327-27.858-14.949c-22.841-3.418-45.186-1.268-66.428,8.394
		c-21.086,9.591-33.338,26.43-38.606,48.564c-6.262,26.31-2.643,52.323,3.299,78.131c1.141,4.955,1.712,8.844-2.287,13.01
		c-2.197,2.289-3.438,6.258-3.639,9.559c-0.64,10.514,1.508,20.547,7.629,29.37c1.199,1.728,2.909,3.785,4.749,4.253
		c5.278,1.342,5.729,5.209,6.791,9.553c3.786,15.49,9.299,30.22,21.088,41.74c0.713,0.696,1.135,2.029,1.133,3.064
		c-0.018,10.663-0.376,21.329-0.192,31.987c0.206,11.92-5.608,20.8-15.014,26.545c-11.573,7.069-23.972,12.859-36.278,18.639
		c-16.094,7.559-32.449,14.56-48.68,21.826c-1.058,0.473-2.038,1.129-3.027,1.743c-8.205,5.093-8.188,5.082-15.12-2.016
		c-35.398-36.246-57.31-79.362-65.268-129.377C22.936,281.831,22.526,269.62,21.963,263.413z"/>
</g>
<g display="none">
	<path fill="#FFFFFF" d="M0.078,0.078c13.334,0,26.667,0,40.001,0c0,13.334,0,26.667,0,40.001c-13.334,0-26.667,0-40.001,0
		C0.078,26.745,0.078,13.412,0.078,0.078z M5.688,36.064c10.159,0,20.256,0,30.407,0c-0.074-0.448-0.122-0.872-0.217-1.286
		c-0.445-1.925-1.68-3.253-3.365-4.133c-1.413-0.738-2.91-1.317-4.374-1.955c-0.921-0.401-1.836-0.811-2.576-1.511
		c-0.413-0.39-0.752-0.832-0.766-1.441c-0.014-0.638-0.021-1.275-0.045-1.913c-0.024-0.613,0.052-1.129,0.502-1.658
		c0.703-0.827,1.037-1.879,1.242-2.953c0.027-0.141,0.079-0.356,0.173-0.391c0.836-0.312,1.036-1.044,1.207-1.786
		c0.153-0.662,0.204-1.342-0.302-1.883c-0.212-0.227-0.192-0.403-0.12-0.65c0.541-1.864,0.867-3.753,0.591-5.699
		c-0.269-1.898-1.288-3.403-3.337-3.766c-0.117-0.021-0.261-0.082-0.327-0.172c-0.49-0.663-1.195-0.941-1.956-1.111
		c-1.31-0.292-2.622-0.178-3.91,0.106c-1.363,0.3-2.567,0.911-3.448,2.051c-0.916,1.186-1.227,2.566-1.29,4.018
		c-0.068,1.572,0.189,3.11,0.55,4.636c0.035,0.15,0.015,0.374-0.077,0.484c-0.718,0.859-0.467,2.928,0.455,3.575
		c0.084,0.059,0.199,0.079,0.272,0.147c0.101,0.093,0.227,0.204,0.254,0.326c0.295,1.324,0.732,2.575,1.716,3.567
		c0.062,0.063,0.089,0.185,0.089,0.28c0.001,0.833-0.024,1.667-0.01,2.499c0.014,0.786-0.35,1.373-0.92,1.853
		c-0.277,0.234-0.569,0.472-0.895,0.621c-1.335,0.609-2.682,1.192-4.03,1.771c-1.296,0.557-2.55,1.179-3.594,2.155
		C6.374,32.976,5.796,34.392,5.688,36.064z"/>
	<path display="inline" d="M17.269,511c1.683-26.256,10.77-48.484,29.828-66.293c16.398-15.323,36.086-25.09,56.438-33.832
		c21.171-9.093,42.325-18.237,63.283-27.803c5.111-2.333,9.703-6.079,14.053-9.746c8.942-7.538,14.654-16.753,14.44-29.09
		c-0.227-13.077,0.166-26.163,0.154-39.245c-0.001-1.487-0.425-3.412-1.399-4.393c-15.463-15.584-22.315-35.224-26.952-56.012
		c-0.429-1.924-2.404-3.653-3.988-5.12c-1.148-1.063-2.949-1.383-4.267-2.307c-14.481-10.15-18.417-42.641-7.144-56.133
		c1.433-1.715,1.759-5.239,1.202-7.595c-5.663-23.948-9.698-48.098-8.634-72.789c0.983-22.804,5.866-44.476,20.254-63.091
		c13.83-17.895,32.741-27.489,54.138-32.204c20.236-4.459,40.825-6.258,61.4-1.667c11.956,2.668,23.023,7.04,30.718,17.447
		c1.045,1.414,3.297,2.369,5.139,2.695c32.172,5.7,48.168,29.332,52.393,59.129c4.334,30.564-0.796,60.231-9.284,89.493
		c-1.124,3.876-1.44,6.636,1.888,10.201c7.939,8.506,7.135,19.174,4.739,29.573c-2.687,11.658-5.821,23.148-18.953,28.046
		c-1.486,0.554-2.302,3.938-2.724,6.145c-3.225,16.873-8.46,33.384-19.505,46.373c-7.069,8.314-8.259,16.41-7.887,26.038
		c0.387,10.005,0.492,20.021,0.712,30.032c0.21,9.56,5.547,16.496,12.025,22.627c11.63,11.006,25.999,17.435,40.456,23.734
		c22.995,10.02,46.492,19.114,68.681,30.698c26.464,13.816,45.86,34.674,52.845,64.901c1.5,6.49,2.246,13.153,3.413,20.186
		C335.338,511,176.781,511,17.269,511z"/>
</g>
<g display="none">
	<path display="inline" d="M270.945,511c-9.96,0-19.921,0-29.881,0c-3.605-0.411-7.209-0.832-10.816-1.231
		c-54.19-5.989-102.226-26.373-142.916-62.736C33.743,399.143,4.938,338.878,1.351,267.134
		c-2.533-50.655,9.044-98.434,35.789-141.595C84.924,48.427,154.697,6.64,245.308,1.421c50.449-2.906,97.951,9.26,141.126,35.653
		c65.84,40.248,106.215,98.562,120.532,174.566c1.831,9.719,2.706,19.618,4.023,29.434c0,9.96,0,19.921,0,29.881
		c-0.289,1.426-0.741,2.841-0.843,4.281c-2.851,40.077-14.405,77.548-35.45,111.68c-40.475,65.647-98.738,105.979-174.753,120.12
		C290.363,508.819,280.615,509.701,270.945,511z M306.037,352.175c-2.162,12.385,4.542,21.401,14.186,28.882
		c12.901,10.008,28.415,14.811,43.041,21.421c16.126,7.288,32.073,14.994,47.871,22.968c3.353,1.693,5.116,2.103,7.897-0.72
		c60.597-61.535,83.693-134.993,65.705-219.305C457.687,78.638,331.698-1.072,205.663,26.917
		C108.091,48.586,34.702,128.962,23.199,227.857c-7.19,61.818,7.79,118.238,44.914,168.347
		c8.432,11.382,18.429,21.605,27.792,32.462c19.471-13.683,40.615-20.727,60.961-29.538c12.106-5.243,24.032-11.219,35.212-18.192
		c10.562-6.587,16.277-16.725,14.607-30.097c-8.743-1.397-17.602-2.545-26.347-4.27c-13.833-2.73-27.629-5.757-39.685-13.683
		c-6.716-4.416-7.33-7.295-3.428-14c1.162-1.996,2.457-4.094,2.894-6.303c1.922-9.728,4.439-19.453,5.102-29.29
		c1.328-19.694,1.509-39.464,2.303-59.197c0.882-21.907,2.709-43.726,7.926-65.095c4.986-20.421,13.178-39.346,27.913-54.756
		c16.771-17.54,38.052-25.94,61.614-29.536c17.328-2.645,33.699-0.853,48.555,9.341c1.215,0.834,3.159,0.781,4.774,0.83
		c29.011,0.885,47.716,14.154,58.383,41.314c8.437,21.482,10.948,44.069,11.777,66.802c1.144,31.34,1.159,62.72,2.173,94.066
		c0.352,10.888,1.458,21.946,7.282,31.676c3.798,6.346,3.531,9.786-2.948,13.689c-5.488,3.306-11.327,6.599-17.453,8.166
		C340.706,344.892,323.66,348.279,306.037,352.175z"/>
	<path fill="#FFFFFF" d="M513.5,242.5c-1.323-9.855-2.201-19.793-4.039-29.551c-14.374-76.307-54.91-134.853-121.012-175.261
		C345.102,11.189,297.41-1.025,246.761,1.893C155.79,7.132,85.739,49.085,37.765,126.505C10.913,169.838-0.71,217.807,1.833,268.663
		c3.601,72.03,32.521,132.535,86.324,180.615c40.852,36.508,89.079,56.973,143.485,62.986c3.621,0.4,7.239,0.823,10.859,1.235
		c-80.64,0-161.28,0-241.96,0c0-170.917,0-341.833,0-512.875c170.96,0,341.96,0,512.96,0C513.5,81.22,513.5,161.86,513.5,242.5z"/>
	<path fill="#FFFFFF" d="M272.5,513.5c9.709-1.304,19.495-2.189,29.113-3.979c76.318-14.197,134.812-54.69,175.449-120.598
		c21.129-34.269,32.729-71.889,35.591-112.125c0.103-1.445,0.556-2.866,0.847-4.298c0,80.333,0,160.667,0,241
		C433.167,513.5,352.833,513.5,272.5,513.5z"/>
	<path fill="#FFFFFF" d="M307.732,354.043c17.693-3.911,34.807-7.312,51.686-11.628c6.151-1.573,12.013-4.879,17.523-8.198
		c6.504-3.919,6.773-7.372,2.96-13.743c-5.847-9.769-6.958-20.871-7.311-31.802c-1.017-31.471-1.033-62.976-2.181-94.44
		c-0.833-22.823-3.353-45.5-11.824-67.068c-10.71-27.268-29.489-40.59-58.615-41.478c-1.621-0.049-3.573,0.003-4.792-0.834
		c-14.915-10.235-31.351-12.033-48.748-9.378c-23.655,3.61-45.021,12.044-61.859,29.654c-14.794,15.472-23.018,34.472-28.024,54.974
		c-5.238,21.455-7.072,43.36-7.958,65.355c-0.798,19.811-0.979,39.66-2.312,59.432c-0.666,9.876-3.193,19.64-5.122,29.407
		c-0.438,2.218-1.739,4.324-2.905,6.328c-3.918,6.732-3.301,9.622,3.442,14.055c12.104,7.958,25.955,10.997,39.843,13.738
		c8.78,1.733,17.674,2.885,26.451,4.287c1.676,13.426-4.062,23.603-14.665,30.217c-11.224,7.001-23.197,13.001-35.352,18.264
		c-20.427,8.846-41.656,15.917-61.204,29.655c-9.401-10.901-19.437-21.164-27.903-32.591
		C31.589,347.939,16.549,291.295,23.768,229.23c11.549-99.289,85.23-179.985,183.191-201.74
		C333.495-0.61,459.986,79.417,487.143,206.705c18.06,84.648-5.128,158.398-65.966,220.177c-2.791,2.835-4.561,2.422-7.928,0.723
		c-15.861-8.006-31.871-15.742-48.061-23.06c-14.684-6.637-30.26-11.458-43.212-21.506
		C312.292,375.528,305.561,366.477,307.732,354.043z"/>
</g>
</svg>
