<?xml version="1.0" encoding="utf-8"?>
<!-- Generator: Adobe Illustrator 17.0.0, SVG Export Plug-In . SVG Version: 6.00 Build 0)  -->
<!DOCTYPE svg PUBLIC "-//W3C//DTD SVG 1.1//EN" "http://www.w3.org/Graphics/SVG/1.1/DTD/svg11.dtd">
<svg version="1.1" id="Layer_1" xmlns="http://www.w3.org/2000/svg" xmlns:xlink="http://www.w3.org/1999/xlink" x="0px" y="0px"
	 width="512px" height="512px" viewBox="0 0 512 512" enable-background="new 0 0 512 512" xml:space="preserve">
<g>
	<line fill="none" stroke="#B35047" x1="32" y1="0" x2="32" y2="512"/>
	<line fill="none" stroke="#B35047" x1="64" y1="0" x2="64" y2="512"/>
	<line fill="none" stroke="#B35047" x1="96" y1="0" x2="96" y2="512"/>
	<line fill="none" stroke="#B35047" x1="128" y1="0" x2="128" y2="512"/>
	<line fill="none" stroke="#B35047" x1="160" y1="0" x2="160" y2="512"/>
	<line fill="none" stroke="#B35047" x1="192" y1="0" x2="192" y2="512"/>
	<line fill="none" stroke="#B35047" x1="224" y1="0" x2="224" y2="512"/>
	<line fill="none" stroke="#B35047" x1="256" y1="0" x2="256" y2="512"/>
	<line fill="none" stroke="#B35047" x1="288" y1="0" x2="288" y2="512"/>
	<line fill="none" stroke="#B35047" x1="320" y1="0" x2="320" y2="512"/>
	<line fill="none" stroke="#B35047" x1="352" y1="0" x2="352" y2="512"/>
	<line fill="none" stroke="#B35047" x1="384" y1="0" x2="384" y2="512"/>
	<line fill="none" stroke="#B35047" x1="416" y1="0" x2="416" y2="512"/>
	<line fill="none" stroke="#B35047" x1="448" y1="0" x2="448" y2="512"/>
	<line fill="none" stroke="#B35047" x1="480" y1="0" x2="480" y2="512"/>
	<line fill="none" stroke="#B35047" x1="0" y1="32" x2="512" y2="32"/>
	<line fill="none" stroke="#B35047" x1="0" y1="64" x2="512" y2="64"/>
	<line fill="none" stroke="#B35047" x1="0" y1="96" x2="512" y2="96"/>
	<line fill="none" stroke="#B35047" x1="0" y1="128" x2="512" y2="128"/>
	<line fill="none" stroke="#B35047" x1="0" y1="160" x2="512" y2="160"/>
	<line fill="none" stroke="#B35047" x1="0" y1="192" x2="512" y2="192"/>
	<line fill="none" stroke="#B35047" x1="0" y1="224" x2="512" y2="224"/>
	<line fill="none" stroke="#B35047" x1="0" y1="256" x2="512" y2="256"/>
	<line fill="none" stroke="#B35047" x1="0" y1="288" x2="512" y2="288"/>
	<line fill="none" stroke="#B35047" x1="0" y1="320" x2="512" y2="320"/>
	<line fill="none" stroke="#B35047" x1="0" y1="352" x2="512" y2="352"/>
	<line fill="none" stroke="#B35047" x1="0" y1="384" x2="512" y2="384"/>
	<line fill="none" stroke="#B35047" x1="0" y1="416" x2="512" y2="416"/>
	<line fill="none" stroke="#B35047" x1="0" y1="448" x2="512" y2="448"/>
	<line fill="none" stroke="#B35047" x1="0" y1="480" x2="512" y2="480"/>
	<rect x="0" fill="none" stroke="#B35047" width="512" height="512"/>
</g>
<image display="none" overflow="visible" width="512" height="512" xlink:href="../../../Knowledge/Icon/[+++++] (Full) iOS7 icons [icons8]/Shopping/shopping_bag/shopping_bag-512.png"  transform="matrix(1 0 0 1 -1.525879e-005 0)">
</image>
<image display="none" overflow="visible" width="512" height="512" xlink:href="../../../Knowledge/Icon/[+++++] (Full) iOS7 icons [icons8]/Shopping/shopping_basket/shopping_basket-512.png"  transform="matrix(1 0 0 1 -1.525879e-005 0)">
</image>
<image display="none" overflow="visible" width="512" height="512" xlink:href="../../../Knowledge/Icon/[+++++] (Full) iOS7 icons [icons8]/Shopping/sell/sell-512.png"  transform="matrix(1 0 0 1 -1.525879e-005 0)">
</image>
<image display="none" overflow="visible" width="512" height="512" xlink:href="../../../Knowledge/Icon/[+++++] (Full) iOS7 icons [icons8]/Shopping/sale/sale-512.png"  transform="matrix(1 0 0 1 -1.525879e-005 0)">
</image>
<image display="none" overflow="visible" width="512" height="512" xlink:href="../../../Knowledge/Icon/[+++++] (Full) iOS7 icons [icons8]/Shopping/price_tag_usd/price_tag_usd-512.png"  transform="matrix(1 0 0 1 -1.525879e-005 0)">
</image>
<image display="none" overflow="visible" width="512" height="512" xlink:href="../../../Knowledge/Icon/[+++++] (Full) iOS7 icons [icons8]/Shopping/price_tag/price_tag-512.png"  transform="matrix(1 0 0 1 -1.525879e-005 0)">
</image>
<image display="none" overflow="visible" width="512" height="512" xlink:href="../../../Knowledge/Icon/[+++++] (Full) iOS7 icons [icons8]/Shopping/money/money-512.png"  transform="matrix(1 0 0 1 -1.525879e-005 0)">
</image>
<image display="none" overflow="visible" width="512" height="512" xlink:href="../../../Knowledge/Icon/[+++++] (Full) iOS7 icons [icons8]/Shopping/money_bag/money_bag-512.png"  transform="matrix(1 0 0 1 -1.525879e-005 0)">
</image>
<image display="none" overflow="visible" width="512" height="512" xlink:href="../../../Knowledge/Icon/[+++++] (Full) iOS7 icons [icons8]/Shopping/money_box/money_box-512.png"  transform="matrix(1 0 0 1 -1.525879e-005 0)">
</image>
<image display="none" overflow="visible" width="512" height="512" xlink:href="../../../Knowledge/Icon/[+++++] (Full) iOS7 icons [icons8]/Shopping/gift/gift-512.png"  transform="matrix(1 0 0 1 -1.525879e-005 0)">
</image>
<image display="none" overflow="visible" width="512" height="512" xlink:href="../../../Knowledge/Icon/[+++++] (Full) iOS7 icons [icons8]/Shopping/delivery/delivery-512.png"  transform="matrix(1 0 0 1 -1.525879e-005 0)">
</image>
<image display="none" overflow="visible" width="512" height="512" xlink:href="../../../Knowledge/Icon/[+++++] (Full) iOS7 icons [icons8]/Shopping/credit_card/credit_card-512.png"  transform="matrix(1 0 0 1 -1.525879e-005 0)">
</image>
<image display="none" overflow="visible" width="512" height="512" xlink:href="../../../Knowledge/Icon/[+++++] (Full) iOS7 icons [icons8]/Shopping/cash_receiving/cash_receiving-512.png"  transform="matrix(1 0 0 1 -1.525879e-005 0)">
</image>
<image display="none" overflow="visible" width="512" height="512" xlink:href="../../../Knowledge/Icon/[+++++] (Full) iOS7 icons [icons8]/Shopping/card_inserting/card_inserting-512.png"  transform="matrix(0.0781 0 0 0.0781 -1.525879e-005 0)">
</image>
<image display="none" overflow="visible" width="512" height="512" xlink:href="../../../Knowledge/Icon/[+++++] (Full) iOS7 icons [icons8]/Shopping/card_in_use/card_in_use-512.png"  transform="matrix(1 0 0 1 -1.525879e-005 0)">
</image>
<image display="none" overflow="visible" width="512" height="512" xlink:href="../../../Knowledge/Icon/[+++++] (Full) iOS7 icons [icons8]/Shopping/box2/box2-512.png"  transform="matrix(1 0 0 1 -1.525879e-005 0)">
</image>
<g>
	<path display="none" fill="#FFFFFF" d="M513.5,178.5c0,111.667,0,223.333,0,335c-171,0-342,0-513,0c0-171,0-342,0-513
		c171,0,342,0,513,0c0,57.333,0,114.667,0,172c-0.255-0.191-0.601-0.327-0.752-0.58c-20.569-34.445-41.123-68.898-61.681-103.35
		c-2.556-4.284-6.408-6.046-11.304-5.839c-2.496,0.106-4.996,0.147-7.494,0.148c-89.16,0.007-178.32,0.02-267.48-0.029
		c-5.342-0.003-9.975,1.148-14.367,4.524c-34.078,26.189-68.303,52.188-102.41,78.34c-2.047,1.569-3.967,3.697-5.117,5.983
		c-12.942,25.715-25.734,51.505-38.521,77.298c-0.95,1.917-1.766,3.955-2.271,6.027c-1.262,5.176,1.718,10.67,6.9,11.302
		c3.351,0.409,7.202-0.451,10.355-1.827c7.693-3.357,15.112-7.345,23.126-11.32c0,2.836,0,4.831,0,6.825
		c0,65.495,0,130.99,0.001,196.486c0,1.5-0.07,3.005,0.031,4.499c0.453,6.713,3.885,10.305,10.586,11.041
		c1.484,0.163,2.996,0.085,4.495,0.086c100.158,0.033,200.317,0.06,300.475,0.102c4.636,0.002,8.218-1.798,11.136-5.46
		c25.956-32.576,51.947-65.125,78.016-97.611c3.398-4.234,4.995-8.71,4.966-14.198c-0.158-29.164-0.001-58.329-0.155-87.493
		c-0.023-4.292,1.069-7.412,4.228-10.501c15.131-14.797,30.047-29.815,44.929-44.865C505.485,187.746,509.408,183.039,513.5,178.5z"
		/>
	<path d="M507,178.53c-4.015,4.453-7.864,9.071-12.075,13.33c-14.6,14.765-29.233,29.499-44.078,44.016
		c-3.099,3.031-4.17,6.092-4.148,10.302c0.151,28.612-0.004,57.225,0.152,85.837c0.029,5.384-1.538,9.775-4.871,13.929
		c-25.575,31.871-51.074,63.803-76.539,95.763c-2.862,3.592-6.376,5.359-10.925,5.357c-98.263-0.041-196.525-0.067-294.788-0.1
		c-1.471,0-2.955,0.076-4.41-0.084c-6.574-0.722-9.941-4.246-10.386-10.832c-0.099-1.465-0.03-2.942-0.03-4.413
		C44.9,367.379,44.9,303.124,44.9,238.868c0-1.956,0-3.913,0-6.696c-7.862,3.899-15.14,7.812-22.688,11.105
		c-3.094,1.35-6.872,2.194-10.159,1.793c-5.083-0.62-8.008-6.01-6.769-11.088c0.496-2.033,1.296-4.033,2.228-5.913
		c12.545-25.305,25.094-50.607,37.792-75.835c1.128-2.242,3.012-4.33,5.02-5.869c33.462-25.657,67.038-51.164,100.472-76.857
		c4.309-3.312,8.855-4.441,14.095-4.438c87.472,0.048,174.945,0.035,262.417,0.028c2.451,0,4.904-0.041,7.352-0.145
		c4.803-0.203,8.582,1.526,11.09,5.729c20.168,33.8,40.333,67.601,60.513,101.394c0.148,0.248,0.488,0.382,0.738,0.569
		C507,174.606,507,176.568,507,178.53z M65.283,426.434c93.766,0,187.164,0,280.471,0c0-87.046,0-173.736,0-260.348
		c-93.61,0-186.859,0-280.471,0C65.283,252.972,65.283,339.538,65.283,426.434z M85.248,145.04c2.43,0.119,3.375,0.205,4.319,0.205
		c86.297,0.006,172.593,0.025,258.89-0.107c2.127-0.003,4.771-1.157,6.297-2.662c18.038-17.786,35.911-35.74,53.82-53.659
		c0.876-0.876,1.673-1.83,3.019-3.312c-1.799-0.103-2.875-0.219-3.951-0.219c-80.249-0.008-160.499-0.027-240.748,0.092
		c-2.21,0.003-4.78,1.009-6.57,2.358c-17.741,13.379-35.351,26.93-53,40.431C100.336,133.513,93.345,138.852,85.248,145.04z
		 M484.079,173.727c-16.348-27.235-32.688-54.456-49.193-81.953c-1.027,0.888-1.665,1.373-2.226,1.934
		c-20.331,20.33-40.609,40.712-61.04,60.941c-2.33,2.307-1.882,3.856-0.446,6.235c15.181,25.149,30.266,50.356,45.398,75.535
		c0.621,1.033,1.444,1.946,2.084,2.797C440.524,217.326,462.103,195.725,484.079,173.727z M366.837,407.637
		c20.01-25.028,39.212-48.984,58.278-73.048c1.068-1.349,1.417-3.583,1.425-5.408c0.095-21.405,0.067-42.811,0.045-64.216
		c-0.001-1.179-0.232-2.358-0.384-3.808c-9.137,7.213-14.502,6.253-20.216-3.262c-11.934-19.873-23.846-39.759-35.783-59.63
		c-0.87-1.448-1.865-2.821-3.365-5.076C366.837,264.968,366.837,335.613,366.837,407.637z M43.845,200.164
		c-1.967,4.025-3.934,8.05-6.322,12.938C45.696,209.118,45.1,211.985,43.845,200.164z"/>
	<path display="none" fill="#FFFFFF" d="M63.261,431.187c0-88.573,0-176.809,0-265.371c95.418,0,190.467,0,285.883,0
		c0,88.283,0,176.646,0,265.371C254.036,431.187,158.837,431.187,63.261,431.187z M205.954,226.694
		c16.485,0,32.97-0.005,49.455,0.003c4.789,0.002,8.973-1.237,11.119-5.971c3.35-7.391-1.871-14.296-10.927-14.318
		c-26.476-0.064-52.952-0.024-79.428-0.023c-6.661,0-13.322-0.072-19.981,0.037c-4.863,0.08-8.794,1.916-10.473,6.861
		c-2.416,7.117,2.458,13.303,10.78,13.369C172.984,226.784,189.469,226.691,205.954,226.694z"/>
	<path display="none" fill="#FFFFFF" d="M83.61,144.364c8.254-6.307,15.38-11.749,22.501-17.197
		c17.99-13.761,35.94-27.574,54.023-41.211c1.825-1.376,4.444-2.401,6.697-2.404c81.798-0.121,163.595-0.103,245.393-0.094
		c1.097,0,2.194,0.118,4.027,0.223c-1.372,1.51-2.185,2.482-3.077,3.375c-18.254,18.264-36.471,36.564-54.858,54.694
		c-1.556,1.534-4.251,2.71-6.419,2.713c-87.961,0.134-175.923,0.115-263.885,0.109C87.05,144.573,86.087,144.485,83.61,144.364z"/>
	<path display="none" fill="#FFFFFF" d="M490.137,173.604c-22.4,22.423-44.395,44.441-66.684,66.753
		c-0.653-0.868-1.491-1.798-2.124-2.851c-15.424-25.665-30.801-51.358-46.274-76.993c-1.464-2.425-1.92-4.004,0.455-6.356
		c20.825-20.619,41.495-41.395,62.218-62.117c0.572-0.572,1.221-1.066,2.269-1.971C456.818,118.097,473.473,145.843,490.137,173.604
		z"/>
	<path display="none" fill="#FFFFFF" d="M370.633,412.027c0-73.414,0-145.421,0-218.586c1.529,2.298,2.543,3.698,3.43,5.174
		c12.167,20.255,24.31,40.524,36.474,60.78c5.824,9.698,11.293,10.678,20.606,3.325c0.155,1.478,0.39,2.68,0.391,3.882
		c0.022,21.818,0.051,43.637-0.046,65.455c-0.008,1.86-0.363,4.138-1.452,5.512C410.601,362.098,391.029,386.516,370.633,412.027z"
		/>
	<path display="none" fill="#FFFFFF" d="M41.409,200.552c1.279,12.049,1.886,9.126-6.444,13.187
		C37.4,208.757,39.405,204.654,41.409,200.552z"/>
	<path d="M205.276,225.811c-16.173-0.001-32.347,0.089-48.519-0.039c-8.165-0.065-12.946-6.134-10.576-13.116
		c1.647-4.852,5.503-6.653,10.274-6.731c6.533-0.107,13.069-0.036,19.603-0.037c25.975-0.001,51.95-0.04,77.924,0.023
		c8.885,0.022,14.007,6.796,10.72,14.047c-2.106,4.645-6.211,5.861-10.908,5.858C237.622,225.807,221.449,225.812,205.276,225.811z"
		/>
</g>
<g display="none">
	<path fill="#FFFFFF" d="M513.5,178.5c0,111.667,0,223.333,0,335c-171,0-342,0-513,0c0-171,0-342,0-513c171,0,342,0,513,0
		c0,57.333,0,114.667,0,172c-0.15-0.072-0.37-0.102-0.442-0.221c-20.5-34.273-41.018-68.534-61.443-102.851
		c-2.633-4.423-6.194-6.746-11.33-6.733c-28.657,0.071-57.315,0.207-85.972,0.045c-2.428-0.014-5.445-1.48-7.171-3.258
		c-12.643-13.035-25.014-26.335-37.498-39.526c-6.879-7.27-11.645-7.496-19.288-0.986c-13.437,11.445-26.865,22.899-40.249,34.307
		c-0.457-0.248-0.819-0.342-1.029-0.573c-4.141-4.563-8.213-9.19-12.405-13.706c-5.98-6.444-11.836-6.541-18.036-0.307
		c-6.698,6.734-13.436,13.433-19.927,20.363c-2.59,2.765-5.26,4.046-9.117,3.916c-8.155-0.276-16.331,0.086-24.49-0.14
		c-5.947-0.165-10.862,1.582-15.63,5.254c-33.654,25.91-67.482,51.596-101.178,77.452c-2.173,1.667-4.238,3.895-5.462,6.313
		c-10.74,21.229-21.276,42.562-31.877,63.862c-2.669,5.363-5.527,10.64-7.974,16.101c-1.956,4.364-2.022,8.698,1.868,12.355
		c3.813,3.583,8.068,3.559,12.433,1.465c7.199-3.455,14.302-7.111,21.465-10.644c1.081-0.533,2.263-0.86,3.734-1.408
		c0,2.57,0,4.566,0,6.561c0,65.484,0,130.969,0.002,196.453c0,1.666-0.099,3.344,0.064,4.996c0.593,6.013,3.71,9.333,9.667,10.293
		c1.468,0.236,2.985,0.227,4.48,0.227c100.475,0.041,200.95,0.071,301.425,0.106c4.623,0.002,8.196-1.826,11.117-5.494
		c25.946-32.575,51.936-65.116,78.002-97.595c3.399-4.235,4.978-8.718,4.948-14.201c-0.157-29.325-0.006-58.653-0.154-87.978
		c-0.02-3.96,1.027-6.824,3.892-9.64c15.208-14.952,30.268-30.057,45.267-45.219C505.487,187.745,509.408,183.038,513.5,178.5z"/>
	<path display="inline" d="M507,202.303c-4.013,4.451-7.859,9.068-12.069,13.324c-14.711,14.871-29.482,29.686-44.398,44.351
		c-2.81,2.762-3.836,5.57-3.817,9.455c0.145,28.763-0.003,57.527,0.151,86.289c0.029,5.379-1.52,9.775-4.853,13.929
		c-25.565,31.856-51.056,63.772-76.504,95.721c-2.866,3.598-6.369,5.39-10.904,5.389c-98.546-0.035-197.092-0.064-295.638-0.104
		c-1.466-0.001-2.954,0.009-4.394-0.223c-5.843-0.941-8.9-4.198-9.481-10.095c-0.16-1.62-0.062-3.266-0.063-4.9
		c-0.002-64.227-0.002-128.454-0.002-192.681c0-1.957,0-3.914,0-6.435c-1.443,0.537-2.603,0.858-3.663,1.381
		c-7.025,3.465-13.991,7.051-21.053,10.44c-4.28,2.054-8.454,2.078-12.194-1.436c-3.816-3.586-3.751-7.837-1.832-12.118
		c2.401-5.357,5.204-10.533,7.821-15.792c10.397-20.891,20.73-41.814,31.265-62.635c1.2-2.372,3.226-4.556,5.357-6.192
		c33.049-25.36,66.227-50.552,99.235-75.965c4.677-3.601,9.498-5.314,15.33-5.153c8.002,0.221,16.021-0.133,24.02,0.137
		c3.783,0.128,6.402-1.128,8.942-3.841c6.366-6.797,12.975-13.368,19.544-19.972c6.081-6.114,11.824-6.019,17.69,0.301
		c4.111,4.43,8.105,8.968,12.167,13.443c0.206,0.227,0.561,0.319,1.009,0.562c13.127-11.19,26.297-22.424,39.476-33.649
		c7.497-6.385,12.171-6.163,18.918,0.967c12.243,12.938,24.377,25.982,36.778,38.767c1.692,1.745,4.651,3.182,7.033,3.196
		c28.106,0.16,56.214,0.025,84.321-0.044c5.037-0.012,8.53,2.266,11.112,6.604c20.033,33.658,40.158,67.262,60.264,100.876
		c0.07,0.117,0.285,0.146,0.433,0.217C507,198.38,507,200.341,507,202.303z M65.41,189.701c0,87.142,0,173.81,0,260.442
		c93.725,0,187.098,0,280.393,0c0-87.018,0-173.684,0-260.442C252.35,189.701,159.252,189.701,65.41,189.701z M418.196,262.886
		c21.981-22.013,43.637-43.7,65.662-65.758c-16.032-26.71-32.423-54.017-48.533-80.856c-22.058,22.001-43.759,43.648-65.741,65.574
		C385.611,208.565,401.883,235.691,418.196,262.886z M426.623,284.43c-9.153,7.635-14.934,6.693-20.447-2.481
		c-12.021-20.003-24.002-40.031-36.012-60.041c-0.854-1.422-1.814-2.78-3.221-4.924c0,71.776,0,142.407,0,213.038
		c0.358,0.268,0.716,0.537,1.074,0.805c0.329-0.719,0.527-1.543,1.005-2.142c18.542-23.23,37.146-46.411,55.592-69.718
		c1.264-1.597,1.908-4.108,1.925-6.202c0.147-18.295,0.085-36.591,0.085-54.887C426.623,293.7,426.623,289.52,426.623,284.43z
		 M226.21,85.219c-27.403,27.962-54.306,55.413-81.879,83.55c52.541,0,103.883,0,156.229,0
		C275.506,140.615,251.028,113.108,226.21,85.219z M261.708,94.817c1.876,2.142,3.564,4.095,5.28,6.024
		c15.855,17.823,31.672,35.679,47.6,53.437c4.536,5.057,8.584,11.751,14.339,14.178c5.831,2.458,13.498,0.627,20.359,0.523
		c1.358-0.021,3.1-0.325,3.995-1.19c6.908-6.684,13.652-13.539,20.753-20.649c-25.925-27.507-51.612-54.761-77.417-82.14
		C284.781,75.109,273.365,84.86,261.708,94.817z M174.597,110.842c-7.65-2.989-12.687-0.814-17.816,3.197
		c-22.138,17.311-44.575,34.24-66.891,51.324c-1.192,0.912-2.271,1.971-4.214,3.671c9.505,0,17.816,0.228,26.1-0.141
		c2.433-0.109,5.384-1.319,7.092-3.029c16.519-16.535,32.796-33.311,49.224-49.938C170.009,113.983,172.416,112.524,174.597,110.842
		z M387.512,132.117c7.886-7.878,15.413-15.397,22.645-22.622c-13.949,0-28.558,0-43.959,0
		C373.799,117.562,380.817,125.01,387.512,132.117z M37.768,236.417c7.766-2.663,8.971-5.272,6.237-12.539
		C41.951,228.008,39.995,231.94,37.768,236.417z"/>
	<path fill="#FFFFFF" d="M63.266,165.651c95.679,0,190.599,0,285.882,0c0,88.457,0,176.819,0,265.54c-95.122,0-190.322,0-285.882,0
		C63.266,342.863,63.266,254.499,63.266,165.651z M205.974,226.696c15.985,0,31.971,0.041,47.956-0.044
		c2.459-0.013,5.033-0.245,7.345-1.01c4.055-1.341,6.087-4.689,6.201-8.776c0.12-4.307-1.85-7.849-6.084-9.35
		c-2.283-0.81-4.861-1.08-7.308-1.086c-26.476-0.073-52.952-0.047-79.428-0.045c-6.161,0-12.324-0.075-18.483,0.038
		c-4.864,0.089-8.789,1.928-10.458,6.879c-2.4,7.117,2.478,13.286,10.804,13.351C173.003,226.782,189.489,226.691,205.974,226.696z"
		/>
	<path fill="#FFFFFF" d="M422.957,240.269c-16.632-27.728-33.222-55.384-49.563-82.627c22.412-22.355,44.539-44.425,67.028-66.857
		c16.425,27.364,33.137,55.206,49.483,82.439C467.448,195.714,445.368,217.826,422.957,240.269z"/>
	<path fill="#FFFFFF" d="M431.549,262.235c0,5.19,0,9.452,0,13.714c0,18.654,0.063,37.308-0.087,55.961
		c-0.017,2.134-0.674,4.695-1.962,6.323c-18.807,23.762-37.775,47.397-56.68,71.082c-0.488,0.611-0.69,1.451-1.025,2.184
		c-0.365-0.274-0.73-0.547-1.095-0.821c0-72.014,0-144.027,0-217.209c1.434,2.186,2.414,3.57,3.284,5.02
		c12.246,20.401,24.461,40.821,36.717,61.216C416.323,269.059,422.217,270.02,431.549,262.235z"/>
	<path fill="#FFFFFF" d="M227.213,59.124c25.304,28.435,50.261,56.481,75.805,85.185c-53.371,0-105.718,0-159.287,0
		C171.844,115.622,199.274,87.633,227.213,59.124z"/>
	<path fill="#FFFFFF" d="M263.406,68.91c11.885-10.152,23.525-20.093,35.593-30.401c26.31,27.915,52.5,55.702,78.932,83.748
		c-7.241,7.249-14.116,14.238-21.16,21.053c-0.912,0.883-2.689,1.193-4.073,1.214c-6.995,0.107-14.812,1.973-20.758-0.533
		c-5.867-2.474-9.995-9.3-14.62-14.455c-16.24-18.105-32.367-36.311-48.532-54.483C267.04,73.086,265.319,71.094,263.406,68.91z"/>
	<path fill="#FFFFFF" d="M174.589,85.249c-2.223,1.715-4.677,3.203-6.633,5.182c-16.749,16.953-33.345,34.057-50.187,50.916
		c-1.742,1.743-4.75,2.978-7.231,3.089c-8.446,0.377-16.92,0.144-26.611,0.144c1.981-1.733,3.081-2.813,4.297-3.743
		c22.753-17.418,45.628-34.679,68.2-52.328C161.654,84.419,166.79,82.201,174.589,85.249z"/>
	<path fill="#FFFFFF" d="M391.673,106.94c-6.827-7.246-13.982-14.84-21.731-23.064c15.702,0,30.597,0,44.819,0
		C407.388,91.242,399.714,98.908,391.673,106.94z"/>
	<path fill="#FFFFFF" d="M35.082,213.282c2.27-4.565,4.265-8.574,6.359-12.785C44.228,207.907,43,210.567,35.082,213.282z"/>
	<path display="inline" d="M205.378,249.571c-16.168-0.003-32.338,0.087-48.505-0.04c-8.166-0.064-12.95-6.114-10.597-13.095
		c1.637-4.856,5.487-6.659,10.258-6.747c6.041-0.111,12.085-0.037,18.128-0.037c25.968-0.001,51.935-0.027,77.903,0.044
		c2.4,0.007,4.929,0.271,7.168,1.065c4.153,1.473,6.084,4.947,5.967,9.171c-0.111,4.009-2.105,7.292-6.082,8.608
		c-2.267,0.75-4.792,0.978-7.204,0.991C236.735,249.614,221.057,249.574,205.378,249.571z"/>
</g>
<g display="none">
	<path fill="#FFFFFF" d="M513.5,472.5c0,13.667,0,27.333,0,41c-171,0-342,0-513,0c0-171,0-342,0-513c171,0,342,0,513,0
		c0,68.667,0,137.333,0,206c-5.665-0.039-11.342-0.32-16.99-0.032c-3.835,0.196-5.326-1.034-6.346-4.875
		c-14.765-55.63-29.739-111.205-44.67-166.79c-2.182-8.122-4.399-16.234-6.716-24.778C293.471,48.994,148.763,87.803,3.9,126.654
		c0.411,1.895,0.661,3.352,1.045,4.773c17.05,63.107,33.902,126.268,51.314,189.275c4.655,16.846,7.191,33.61,6.85,51.137
		c-0.612,31.48-0.173,62.98-0.173,94.472c0,1.954,0,3.908,0,6.189C213.555,472.5,363.527,472.5,513.5,472.5z"/>
	<path display="inline" d="M507,483.789c-147.736,0-295.472,0-443.844,0c0-2.247,0-4.172,0-6.096c0-31.022-0.433-62.053,0.17-93.063
		c0.336-17.266-2.162-33.779-6.748-50.374C39.426,272.188,22.825,209.968,6.029,147.803c-0.378-1.4-0.624-2.835-1.029-4.702
		c142.703-38.271,285.252-76.502,428.392-114.89c2.282,8.417,4.467,16.408,6.616,24.408
		c14.708,54.757,29.459,109.503,44.004,164.303c1.004,3.785,2.473,4.995,6.251,4.803c5.564-0.284,11.156-0.007,16.736,0.031
		C507,309.1,507,396.445,507,483.789z M284.991,463.703c44.652,0,89.305,0.012,133.957-0.019c4.423-0.003,8.848-0.438,13.267-0.363
		c5.367,0.091,9.189-2.514,11.761-6.782c2.61-4.331,4.865-8.917,6.863-13.568c3.155-7.348,8.315-12.4,15.735-15.304
		c4.574-1.79,9.031-3.879,13.604-5.674c4.902-1.925,6.79-5.304,6.761-10.621c-0.164-30.698-0.201-61.398,0.005-92.095
		c0.052-7.674-2.844-12.887-9.82-15.912c-8.113-3.519-16.189-7.127-24.342-10.55c-8.119-3.408-13.806-9.126-17.349-17.16
		c-2.578-5.845-5.172-11.702-8.154-17.345c-4.278-8.092-9.912-14.834-19.833-15.905c-4.557-0.492-9.165-0.713-13.75-0.721
		c-34.474-0.058-68.949-0.031-103.423-0.031c-39.071,0-78.145,0.29-117.211-0.145c-15.303-0.17-25.837,5.685-31.786,19.787
		c-1.591,3.772-3.601,7.376-5.056,11.195c-4.11,10.786-11.584,17.918-22.357,21.999c-7.344,2.782-14.539,5.996-21.662,9.314
		c-6.199,2.888-9.047,7.626-8.965,14.893c0.314,27.575,0.126,55.156,0.126,82.735c0,18.081-0.112,18.378,16.913,24.787
		c9.882,3.72,17.097,9.661,20.318,19.754c4.253,13.327,12.842,18.209,26.995,17.993C193.381,463.264,239.19,463.703,284.991,463.703
		z M162.339,221.549c-0.174-3.215-0.282-5.666-0.444-8.112c-1.185-17.881,2.161-34.886,9.653-51.145
		c18.784-40.767,63.786-60.492,105.713-44.794c38.913,14.569,59.355,44.705,66.119,84.834c1.049,6.226,1.073,12.625,1.585,19.114
		c39.738,0,79.242,0,118.982,0c-0.123-1.141-0.103-2.119-0.346-3.027c-8.248-30.868-16.565-61.718-24.751-92.602
		c-1.581-5.964-5.446-9.256-11.179-10.385c-6.262-1.233-12.576-2.569-18.921-2.941c-14.671-0.86-26.563-6.238-34.837-18.851
		c-2.321-3.538-5.329-6.669-8.277-9.743c-6.246-6.513-13.445-11.154-23.016-9.861c-3.715,0.502-7.401,1.373-11.028,2.344
		C278.254,90.661,224.922,104.97,171.6,119.313c-20.564,5.532-41.116,11.11-61.641,16.783c-8.508,2.352-14.399,7.749-16.886,16.314
		c-1.547,5.328-3.232,10.756-3.684,16.236c-1.215,14.716-7.191,26.323-19.935,34.226c-3.056,1.895-5.809,4.28-8.684,6.464
		c-13.068,9.926-13.934,12.422-9.666,28.176c3.621,13.366,7.279,26.722,10.921,40.082c0.403-0.036,0.805-0.072,1.208-0.108
		c0-18.519,0-37.037,0-55.935C96.6,221.549,129.211,221.549,162.339,221.549z M183.216,221.289c47.096,0,93.908,0,140.802,0
		c0.183-0.953,0.417-1.582,0.408-2.207c-0.382-28.234-10.301-52.231-32.244-70.482c-22.617-18.813-52.484-21.452-76.068-7.249
		C190.943,156.511,177.127,189.859,183.216,221.289z M441.784,241.843c4.207,8.915,8.143,17.509,12.344,25.972
		c0.977,1.969,2.516,4.217,4.381,5.093c9.092,4.271,18.381,8.119,27.975,12.28c0-14.851,0-29.004,0-43.344
		C471.387,241.843,456.665,241.843,441.784,241.843z M83.544,241.894c0,14.664,0,28.746,0,43.325
		c9.46-4.069,18.609-7.96,27.706-11.971c1.142-0.503,2.396-1.436,2.939-2.504c4.842-9.522,9.535-19.119,14.349-28.85
		C113.405,241.894,98.685,241.894,83.544,241.894z M375.636,64.57c6.296,7.415,12.13,14.441,18.167,21.288
		c1.57,1.781,3.603,3.924,5.721,4.322c10.039,1.89,20.181,3.233,31.008,4.881c-3.884-14.468-7.547-28.109-11.318-42.157
		C404.414,56.866,390.114,60.694,375.636,64.57z M29.545,157.408c3.815,14.16,7.497,27.823,11.3,41.935
		c8.098-6.296,15.799-12.064,23.197-18.196c1.736-1.439,3.052-3.983,3.527-6.237c2.011-9.524,3.631-19.13,5.476-29.148
		C58.821,149.57,44.654,153.363,29.545,157.408z M486.55,442.173c-12.87,1.534-19.646,9.084-22.084,21.222c7.28,0,14.528,0,22.084,0
		C486.55,456.145,486.55,449.197,486.55,442.173z M105.671,463.471c-2.45-12.53-9.54-19.843-21.983-21.376c0,6.949,0,14.05,0,21.376
		C91.159,463.471,98.308,463.471,105.671,463.471z"/>
	<path fill="#FFFFFF" d="M288.13,452.109c-46.495,0-92.997-0.446-139.481,0.265c-14.368,0.22-23.087-4.736-27.404-18.265
		c-3.269-10.246-10.594-16.277-20.626-20.053c-17.283-6.506-17.169-6.807-17.169-25.162c0-27.996,0.191-55.995-0.128-83.988
		c-0.084-7.377,2.808-12.187,9.1-15.119c7.231-3.368,14.534-6.631,21.99-9.455c10.936-4.143,18.524-11.382,22.696-22.332
		c1.477-3.877,3.517-7.535,5.133-11.364c6.04-14.316,16.733-20.259,32.268-20.086c39.657,0.442,79.323,0.147,118.986,0.147
		c34.996,0,69.992-0.027,104.989,0.032c4.655,0.008,9.332,0.232,13.958,0.732c10.071,1.088,15.791,7.932,20.133,16.146
		c3.028,5.728,5.661,11.674,8.278,17.607c3.596,8.155,9.369,13.96,17.612,17.42c8.277,3.474,16.475,7.137,24.711,10.709
		c7.081,3.071,10.021,8.363,9.968,16.153c-0.21,31.162-0.172,62.327-0.005,93.489c0.029,5.398-1.887,8.828-6.864,10.782
		c-4.642,1.822-9.166,3.943-13.81,5.76c-7.533,2.948-12.771,8.077-15.973,15.536c-2.028,4.722-4.317,9.377-6.967,13.774
		c-2.611,4.333-6.491,6.977-11.939,6.885c-4.486-0.076-8.979,0.366-13.468,0.369C378.787,452.122,333.459,452.109,288.13,452.109z
		 M196.095,335.37c0.321,30.517,8.27,53.968,25.102,74.262c33.474,40.357,92.173,42.958,128.811,5.679
		c41.305-42.029,40.324-113.001-2.128-153.913c-29.428-28.361-73.953-32.527-107.37-9.39
		C210.051,273.098,197.109,303.455,196.095,335.37z M472.515,344.609c0.051-19.619-16.332-36.042-35.877-35.965
		c-19.576,0.077-36.076,16.688-35.827,36.068c0.25,19.524,16.225,35.513,35.681,35.712
		C455.993,380.624,472.464,364.248,472.515,344.609z M175.533,344.663c0.078-19.658-16.214-36.049-35.804-36.022
		c-19.544,0.026-36.05,16.598-35.874,36.017c0.177,19.473,16.147,35.508,35.621,35.766
		C158.974,380.682,175.455,364.337,175.533,344.663z"/>
	<path fill="#FFFFFF" d="M163.621,206.29c-33.63,0-66.734,0-100.608,0c0,19.185,0,37.983,0,56.782
		c-0.409,0.037-0.817,0.073-1.226,0.11c-3.697-13.563-7.41-27.12-11.086-40.689c-4.333-15.993-3.454-18.526,9.812-28.602
		c2.918-2.216,5.713-4.638,8.815-6.561c12.938-8.022,19.004-19.805,20.237-34.744c0.459-5.563,2.169-11.073,3.74-16.482
		c2.525-8.694,8.505-14.173,17.142-16.561c20.836-5.76,41.699-11.422,62.575-17.037c54.13-14.56,108.269-29.085,162.415-43.583
		c3.682-0.986,7.424-1.87,11.195-2.379c9.715-1.313,17.024,3.399,23.364,10.011c2.992,3.12,6.046,6.299,8.402,9.89
		c8.399,12.805,20.472,18.264,35.365,19.136c6.441,0.377,12.85,1.734,19.207,2.986c5.82,1.146,9.743,4.488,11.348,10.542
		c8.311,31.352,16.753,62.669,25.126,94.004c0.246,0.922,0.226,1.915,0.351,3.073c-40.342,0-80.444,0-120.784,0
		c-0.519-6.588-0.544-13.083-1.609-19.403c-6.866-40.737-27.618-71.329-67.12-86.118c-42.562-15.935-88.245,4.088-107.314,45.472
		c-7.605,16.505-11.002,33.768-9.799,51.92C163.335,200.539,163.444,203.026,163.621,206.29z M400.712,127.554
		c-19.527-0.197-36.015,16.127-36.118,35.76c-0.103,19.491,16.397,36.038,35.909,36.012c19.349-0.025,35.496-16.026,35.878-35.553
		C436.76,144.408,420.359,127.753,400.712,127.554z"/>
	<path fill="#FFFFFF" d="M184.814,206.026c-6.181-31.905,7.843-65.759,33.397-81.148c23.941-14.418,54.26-11.74,77.22,7.358
		c22.275,18.528,32.345,42.888,32.732,71.549c0.009,0.635-0.229,1.273-0.415,2.241C280.145,206.026,232.624,206.026,184.814,206.026
		z"/>
	<path fill="#FFFFFF" d="M447.297,226.891c15.106,0,30.051,0,45.377,0c0,14.558,0,28.925,0,44.001
		c-9.739-4.223-19.17-8.13-28.399-12.465c-1.893-0.889-3.455-3.171-4.447-5.17C455.563,244.665,451.567,235.941,447.297,226.891z"/>
	<path fill="#FFFFFF" d="M83.633,226.943c15.371,0,30.313,0,45.675,0c-4.887,9.878-9.651,19.62-14.566,29.287
		c-0.552,1.085-1.825,2.031-2.984,2.542c-9.234,4.071-18.522,8.022-28.125,12.152C83.633,256.124,83.633,241.829,83.633,226.943z"/>
	<path fill="#FFFFFF" d="M380.148,46.934c14.696-3.934,29.214-7.82,44.237-11.842c3.829,14.26,7.546,28.108,11.49,42.795
		c-10.991-1.673-21.286-3.037-31.478-4.955c-2.149-0.405-4.213-2.58-5.807-4.388C392.461,61.594,386.539,54.461,380.148,46.934z"/>
	<path fill="#FFFFFF" d="M28.817,141.178c15.338-4.106,29.719-7.957,44.158-11.822c-1.872,10.169-3.517,19.921-5.559,29.589
		c-0.483,2.288-1.819,4.871-3.581,6.332c-7.51,6.225-15.328,12.081-23.548,18.472C36.427,169.422,32.69,155.552,28.817,141.178z"/>
	<path fill="#FFFFFF" d="M492.741,430.254c0,7.13,0,14.183,0,21.543c-7.67,0-15.028,0-22.418,0
		C472.798,439.475,479.675,431.812,492.741,430.254z"/>
	<path fill="#FFFFFF" d="M106.095,451.874c-7.475,0-14.732,0-22.315,0c0-7.437,0-14.646,0-21.7
		C96.411,431.73,103.609,439.154,106.095,451.874z"/>
	<path display="inline" d="M194.329,348.704c0.999-31.439,13.747-61.343,43.753-82.119c32.918-22.792,76.78-18.688,105.769,9.25
		c41.818,40.302,42.785,110.215,2.096,151.617c-36.091,36.724-93.915,34.161-126.89-5.594
		C202.475,401.867,194.645,378.767,194.329,348.704z M355.591,355.111c-0.11-23.275-6.348-42.165-19.854-58.511
		c-24.168-29.249-64.465-32.767-93.204-8.117c-35.329,30.302-37.571,90.74-4.603,124.09c26.045,26.346,63.134,28.023,90.61,3.496
		C347.237,399.378,355.145,377.636,355.591,355.111z"/>
	<path display="inline" d="M466.626,357.806c-0.05,19.346-16.275,35.478-35.485,35.281c-19.166-0.196-34.903-15.947-35.149-35.179
		c-0.245-19.091,16.009-35.454,35.293-35.53C450.538,322.301,466.676,338.479,466.626,357.806z M431.298,372.662
		c8.4,0.015,15.028-6.552,15.03-14.89c0.001-8.352-6.602-14.966-14.956-14.981c-8.37-0.015-14.986,6.55-15.027,14.911
		C416.305,366.047,422.903,372.647,431.298,372.662z"/>
	<path display="inline" d="M174.073,357.859c-0.077,19.38-16.311,35.482-35.519,35.228c-19.184-0.254-34.916-16.05-35.09-35.233
		c-0.174-19.129,16.086-35.454,35.339-35.48C158.101,322.348,174.15,338.495,174.073,357.859z M139.007,372.667
		c8.341-0.082,14.929-6.816,14.807-15.138c-0.122-8.322-6.846-14.833-15.216-14.733c-8.356,0.099-14.894,6.794-14.79,15.144
		C123.912,366.292,130.577,372.75,139.007,372.667z"/>
	<path display="inline" d="M395.894,143.988c19.354,0.196,35.51,16.602,35.137,35.68c-0.377,19.236-16.283,34.997-35.343,35.022
		c-19.221,0.025-35.475-16.275-35.373-35.475C360.417,159.874,376.659,143.793,395.894,143.988z M395.606,194.26
		c8.422,0.025,15.002-6.495,15.01-14.872c0.008-8.44-6.471-14.973-14.881-15.005c-8.422-0.032-14.955,6.445-15.007,14.877
		C380.676,187.643,387.215,194.235,395.606,194.26z"/>
	<path fill="#FFFFFF" d="M359.799,341.874c-0.453,22.866-8.48,44.937-27.461,61.881c-27.892,24.898-65.543,23.196-91.982-3.549
		c-33.467-33.855-31.191-95.208,4.673-125.969c29.174-25.023,70.081-21.452,94.615,8.24
		C353.354,299.07,359.687,318.246,359.799,341.874z"/>
	<path fill="#FFFFFF" d="M436.652,359.691c-8.523-0.015-15.221-6.716-15.179-15.186c0.041-8.488,6.757-15.152,15.254-15.137
		c8.481,0.015,15.184,6.729,15.182,15.208C451.908,353.04,445.18,359.705,436.652,359.691z"/>
	<path fill="#FFFFFF" d="M139.936,359.696c-8.558,0.084-15.324-6.472-15.429-14.95c-0.106-8.477,6.531-15.273,15.014-15.374
		c8.497-0.101,15.322,6.508,15.446,14.956C155.091,352.776,148.404,359.613,139.936,359.696z"/>
	<path fill="#FFFFFF" d="M400.419,178.587c-8.518-0.025-15.156-6.717-15.103-15.227c0.053-8.56,6.685-15.134,15.234-15.102
		c8.537,0.032,15.114,6.664,15.106,15.232C415.648,171.995,408.969,178.613,400.419,178.587z"/>
</g>
<g display="none">
	<path fill="#FFFFFF" d="M512.412,512.456c-170.883,0-341.841,0-512.825,0c0-170.942,0-341.883,0-512.912
		c170.875,0,341.775,0,512.825,0C512.412,170.456,512.412,341.456,512.412,512.456z M390.298,112.867
		c-0.722-18.246-0.402-36.27-2.413-54.029c-2.232-19.712-16.285-29.61-36.015-27.035c-9.374,1.224-18.77,2.909-27.886,5.381
		c-57.642,15.631-115.199,31.576-172.804,47.344c-24.553,6.721-49.218,12.989-71.527,25.989
		c-20.349,11.858-34.028,28.155-36.159,52.38c-0.962,10.94-1.834,21.932-1.859,32.902c-0.164,72.163-0.122,144.327-0.011,216.49
		c0.008,5.114,0.457,10.403,1.8,15.309c7.538,27.519,29.102,43.848,57.645,43.858c103.663,0.035,207.325,0.034,310.987-0.05
		c4.962-0.004,10.075-0.331,14.858-1.537c27.486-6.929,44.621-29.083,44.643-57.581c0.058-72.497,0.051-144.994-0.054-217.49
		c-0.007-4.778-0.524-9.696-1.725-14.309c-7.133-27.397-32.926-46.945-61.744-46.954c-98.162-0.029-196.325,0.054-294.487-0.089
		c-13.143-0.019-25.958,0.709-37.893,6.876c-0.114,0.059-0.429-0.272-0.881-0.577c1.787-1.611,3.411-3.294,5.248-4.698
		c13.133-10.039,27.959-17.034,43.674-21.456c64.857-18.246,129.837-36.064,194.847-53.761c11.84-3.223,23.962-5.606,36.088-7.519
		c8.955-1.413,12.422,1.157,13.092,10.04c1.089,14.424,1.091,28.931,1.527,43.404c0.069,2.279,0.01,4.561,0.01,7.11
		C376.305,112.867,382.713,112.867,390.298,112.867z"/>
	<path display="inline" d="M408.555,97.928c-8.652,0-15.962,0-23.997,0c0-2.907,0.067-5.511-0.011-8.11
		c-0.498-16.509-0.5-33.057-1.742-49.511c-0.765-10.133-4.72-13.064-14.934-11.453c-13.833,2.182-27.66,4.9-41.166,8.577
		c-74.157,20.187-148.28,40.512-222.263,61.325c-17.927,5.043-34.839,13.024-49.819,24.475c-2.095,1.602-3.948,3.521-5.986,5.359
		c0.516,0.348,0.875,0.725,1.005,0.658c13.614-7.035,28.232-7.865,43.224-7.843c111.974,0.164,223.949,0.069,335.923,0.102
		c32.872,0.01,62.295,22.309,70.432,53.561c1.37,5.262,1.959,10.872,1.967,16.322c0.121,82.697,0.128,165.395,0.062,248.093
		c-0.026,32.508-19.572,57.779-50.925,65.683c-5.456,1.376-11.289,1.748-16.949,1.753c-118.248,0.096-236.497,0.097-354.745,0.057
		c-32.558-0.011-57.158-18.637-65.756-50.029c-1.533-5.597-2.045-11.63-2.054-17.464c-0.127-82.317-0.175-164.635,0.012-246.952
		c0.028-12.514,1.024-25.053,2.121-37.532c2.43-27.634,18.034-46.223,41.247-59.75c25.448-14.829,53.583-21.979,81.591-29.646
		c65.71-17.987,131.366-36.175,197.119-54.006c10.399-2.82,21.117-4.742,31.81-6.138c22.506-2.937,38.536,8.354,41.082,30.839
		C408.097,56.556,407.732,77.115,408.555,97.928z M255.988,483.714c57.983,0,115.966,0.039,173.948-0.066
		c5.278-0.01,10.734-0.247,15.799-1.565c20.922-5.445,32.231-21.43,32.243-45.144c0.043-80.986,0.039-161.971-0.044-242.957
		c-0.005-4.521-0.331-9.181-1.443-13.537c-4.677-18.317-24.802-35.617-47.682-35.569c-115.015,0.241-230.031,0.327-345.045-0.062
		c-24.892-0.084-42.146,17.416-46.774,34.726c-2.783,10.41-2.826,21.745-2.858,32.669c-0.222,75.472-0.141,150.945-0.097,226.417
		c0.009,14.877,5.105,27.445,17.317,36.642c8.962,6.749,19.279,8.452,30.117,8.45C139.642,483.708,197.815,483.714,255.988,483.714z
		"/>
	<path fill="#FFFFFF" d="M256.549,451.065c-50.997,0-101.994-0.005-152.992,0.005c-9.502,0.002-18.546-1.491-26.402-7.408
		c-10.705-8.062-15.173-19.08-15.181-32.122c-0.039-66.163-0.109-132.326,0.085-198.489c0.028-9.576,0.065-19.513,2.505-28.639
		c4.057-15.175,19.183-30.517,41.005-30.443c100.827,0.341,201.656,0.265,302.483,0.054c20.057-0.042,37.7,15.124,41.8,31.182
		c0.975,3.819,1.261,7.904,1.265,11.867c0.073,70.996,0.076,141.992,0.039,212.988c-0.011,20.789-9.924,34.802-28.266,39.576
		c-4.44,1.155-9.223,1.363-13.85,1.372C358.21,451.1,307.38,451.066,256.549,451.065z M369.346,302.669
		c0.064,14.007,11.522,25.468,25.467,25.472c13.862,0.005,25.5-11.578,25.601-25.48c0.103-14.07-11.765-25.83-25.857-25.623
		C380.423,277.246,369.281,288.573,369.346,302.669z"/>
	<path display="inline" d="M384.656,314.437c-0.073-16.079,12.636-29.001,28.758-29.237c16.075-0.236,29.612,13.178,29.495,29.228
		c-0.116,15.858-13.391,29.071-29.204,29.066C397.799,343.488,384.729,330.415,384.656,314.437z"/>
</g>
<g display="none">
	<path fill="#FFFFFF" d="M261.5,512.5c-87.333,0-174.667,0-262,0c0-171,0-342,0-513c171,0,342,0,513,0c0,171,0,342,0,513
		c-35.667,0-71.333,0-107,0c0.592-0.26,1.16-0.627,1.779-0.766c31.018-6.935,43.452-40.392,24.431-65.719
		c-0.675-0.899-1.411-1.958-1.555-3.019c-1.37-10.157-3.825-12.404-13.906-12.405c-45.829-0.005-91.657,0.027-137.486-0.03
		c-7.992-0.01-16-0.135-23.972-0.649c-11.523-0.742-19.501-6.814-22.868-17.79c-4.282-13.956-7.838-28.135-11.924-43.008
		c3.017,0,5.141,0,7.265,0c58.994,0,117.988,0.006,176.983-0.008c8.78-0.002,11.611-1.947,14.631-9.921
		c23.742-62.693,47.486-125.385,71.174-188.097c0.808-2.14,1.412-4.486,1.478-6.755c0.21-7.186-7.117-12.359-13.353-8.813
		c-3.207,1.824-5.953,5.745-7.322,9.325c-22.804,59.668-45.393,119.418-67.874,179.208c-1.336,3.554-2.952,4.685-6.741,4.676
		c-58.494-0.133-116.988-0.142-175.482,0.009c-4.31,0.011-5.884-1.253-6.916-5.457c-18.007-73.353-36.15-146.672-54.39-219.967
		c-5.421-21.785-10.413-43.728-17.077-65.139c-7.613-24.463-23.345-35.886-48.835-36.687c-21.31-0.67-42.654-0.313-63.982-0.363
		c-4.14-0.01-8.353-0.246-12.407,0.407c-9.937,1.6-16.971,10.637-16.602,20.7c0.353,9.61,7.861,18.082,17.125,19.324
		c10.6,1.42,19.933-4.412,22.82-14.302c0.542-1.858,0.925-3.762,1.42-5.804c14.407,0,28.56-0.001,42.713,0
		c26.416,0.002,35.36,6.95,41.741,32.661c15.027,60.551,29.986,121.118,45.008,181.67c12.658,51.025,25.294,102.055,38.102,153.042
		c3.121,12.424,7.96,24.071,18.6,32.246c2.17,1.667,4.456,3.182,6.671,4.754c-12.564,18.191-11.689,38.26,2.07,53.57
		C243.449,506.767,252.143,510.261,261.5,512.5z M328.276,201.069c0-3.616,0-5.601,0-7.586c0-55.819,0.011-111.638-0.035-167.457
		c-0.002-2.634-0.21-5.348-0.863-7.886c-1.326-5.159-6.329-7.934-11.57-6.766c-5.667,1.263-8.188,5.216-8.189,13.014
		c-0.01,56.652-0.005,113.304-0.005,169.956c0,1.756,0,3.511,0,6.285c-1.983-1.819-3.194-2.852-4.318-3.973
		c-9.204-9.176-18.374-18.386-27.593-27.547c-3.455-3.433-7.318-5.947-12.456-3.853c-7.603,3.1-8.775,11.467-2.354,17.931
		c18.199,18.324,36.495,36.552,54.765,54.806c0.687,0.687,1.493,1.255,2.305,1.928c0.642-0.516,1.197-0.885,1.659-1.346
		c18.387-18.372,36.774-36.744,55.122-55.155c1.157-1.161,2.153-2.548,2.962-3.978c2.819-4.98,1.348-10.402-3.507-13.351
		c-4.554-2.766-9.066-1.913-13.818,2.818C350.026,179.222,339.728,189.591,328.276,201.069z"/>
	<path display="inline" d="M271.482,507c-9.368-2.242-18.073-5.74-24.707-13.121c-13.777-15.329-14.652-35.422-2.073-53.635
		c-2.218-1.574-4.507-3.091-6.679-4.76c-10.653-8.185-15.498-19.846-18.623-32.285c-12.824-51.049-25.475-102.141-38.149-153.228
		c-15.04-60.626-30.017-121.267-45.063-181.891C129.8,42.336,120.845,35.38,94.397,35.378c-14.17-0.001-28.341,0-42.765,0
		c-0.496,2.044-0.879,3.951-1.422,5.811c-2.89,9.902-12.235,15.742-22.848,14.32c-9.276-1.243-16.793-9.725-17.146-19.347
		c-0.37-10.075,6.674-19.124,16.622-20.725c4.058-0.653,8.277-0.417,12.422-0.407c21.355,0.049,42.724-0.308,64.06,0.363
		c25.521,0.802,41.272,12.239,48.894,36.732c6.672,21.437,11.67,43.407,17.098,65.218c18.262,73.384,36.428,146.793,54.457,220.234
		c1.033,4.209,2.609,5.474,6.924,5.463c58.565-0.151,117.131-0.142,175.696-0.009c3.793,0.009,5.411-1.123,6.749-4.682
		c22.509-59.863,45.125-119.686,67.957-179.426c1.37-3.584,4.119-7.511,7.33-9.337c6.243-3.55,13.579,1.629,13.369,8.824
		c-0.066,2.271-0.67,4.62-1.48,6.763c-23.718,62.789-47.49,125.557-71.261,188.326c-3.023,7.983-5.858,9.931-14.648,9.933
		c-59.066,0.014-118.132,0.008-177.198,0.008c-2.127,0-4.253,0-7.274,0c4.091,14.891,7.651,29.087,11.938,43.06
		c3.372,10.99,11.359,17.068,22.896,17.812c7.982,0.514,15.999,0.64,24.001,0.65c45.884,0.057,91.769,0.025,137.653,0.03
		c10.093,0.001,12.551,2.251,13.923,12.42c0.143,1.062,0.88,2.122,1.556,3.022c19.043,25.357,6.594,58.855-24.461,65.798
		c-0.62,0.139-1.189,0.506-1.781,0.767c-3.671,0-7.342,0-11.013,0c-0.439-0.225-0.853-0.556-1.319-0.659
		c-23.449-5.177-36.439-22.991-33.626-46.687c0.551-4.645,2.491-9.125,3.862-13.932c-20.326,0-40.428,0-60.487,0
		c-0.067,0.456-0.156,0.645-0.105,0.782c0.284,0.768,0.594,1.527,0.91,2.282c6.559,15.697,4.719,30.233-5.939,43.601
		c-6.568,8.239-15.681,11.973-25.443,14.611C278.824,507,275.153,507,271.482,507z M409.852,445.825
		c-11.451,0.037-20.3,8.927-20.22,20.317c0.079,11.274,9.216,20.252,20.53,20.171c11.221-0.08,20.44-9.367,20.333-20.481
		C430.386,454.559,421.337,445.789,409.852,445.825z M256.399,465.828c-0.063,11.378,8.792,20.367,20.163,20.467
		c11.238,0.099,20.476-8.922,20.629-20.144c0.153-11.16-8.964-20.288-20.302-20.327
		C265.347,445.785,256.462,454.459,256.399,465.828z"/>
	<path fill="#FFFFFF" d="M272.5,512.5c9.751-2.635,18.852-6.365,25.412-14.593c10.645-13.352,12.483-27.87,5.932-43.548
		c-0.315-0.755-0.625-1.513-0.909-2.28c-0.051-0.137,0.038-0.326,0.105-0.781c20.034,0,40.113,0,60.414,0
		c-1.369,4.801-3.306,9.275-3.857,13.915c-2.809,23.667,10.166,41.46,33.586,46.63c0.465,0.103,0.879,0.434,1.317,0.658
		C353.833,512.5,313.167,512.5,272.5,512.5z"/>
	<path display="inline" d="M338.339,195.191c11.466-11.492,21.777-21.874,32.146-32.198c4.757-4.736,9.274-5.59,13.834-2.821
		c4.861,2.952,6.334,8.381,3.511,13.367c-0.81,1.432-1.807,2.821-2.966,3.983c-18.371,18.433-36.78,36.827-55.189,55.222
		c-0.462,0.462-1.018,0.831-1.661,1.348c-0.813-0.675-1.62-1.243-2.308-1.931c-18.292-18.276-36.61-36.526-54.831-54.873
		c-6.428-6.473-5.256-14.849,2.357-17.953c5.144-2.097,9.012,0.42,12.471,3.857c9.23,9.172,18.411,18.393,27.626,27.581
		c1.125,1.122,2.337,2.156,4.323,3.978c0-2.778,0-4.535,0-6.293c0-56.721-0.004-113.442,0.005-170.163
		c0.001-7.807,2.525-11.765,8.199-13.029c5.247-1.169,10.256,1.609,11.584,6.774c0.653,2.541,0.862,5.258,0.864,7.895
		c0.047,55.887,0.035,111.774,0.035,167.661C338.339,189.583,338.339,191.57,338.339,195.191z"/>
	<path fill="#FFFFFF" d="M399.702,451.4c11.471-0.037,20.508,8.723,20.618,19.983c0.108,11.101-9.1,20.376-20.308,20.456
		c-11.3,0.081-20.427-8.886-20.505-20.147C379.428,460.316,388.265,451.436,399.702,451.4z"/>
	<path fill="#FFFFFF" d="M246.435,471.378c0.063-11.355,8.937-20.018,20.465-19.979c11.323,0.039,20.429,9.156,20.277,20.302
		c-0.153,11.208-9.38,20.218-20.604,20.119C255.217,491.72,246.372,482.742,246.435,471.378z"/>
</g>
<g display="none">
	<path fill="#FFFFFF" d="M262.5,513.5c-87.333,0-174.667,0-262,0c0-171,0-342,0-513c171,0,342,0,513,0c0,171,0,342,0,513
		c-35.667,0-71.333,0-107,0c0.592-0.26,1.16-0.627,1.779-0.766c31.018-6.935,43.452-40.392,24.431-65.719
		c-0.675-0.899-1.411-1.958-1.555-3.019c-1.37-10.157-3.825-12.404-13.906-12.405c-45.829-0.005-91.657,0.027-137.486-0.03
		c-7.992-0.01-16-0.135-23.972-0.649c-11.523-0.742-19.501-6.814-22.868-17.79c-4.282-13.956-7.838-28.135-11.924-43.008
		c3.017,0,5.141,0,7.265,0c58.994,0,117.988,0.006,176.983-0.008c8.78-0.002,11.611-1.947,14.631-9.921
		c23.742-62.693,47.486-125.385,71.174-188.097c0.808-2.14,1.412-4.486,1.478-6.755c0.21-7.186-7.117-12.359-13.353-8.813
		c-3.207,1.824-5.953,5.745-7.322,9.325c-22.804,59.668-45.393,119.418-67.874,179.208c-1.336,3.554-2.952,4.685-6.741,4.676
		c-58.494-0.133-116.988-0.142-175.482,0.009c-4.31,0.011-5.884-1.253-6.916-5.457c-18.007-73.353-36.15-146.672-54.39-219.967
		c-5.421-21.785-10.413-43.728-17.077-65.139c-7.613-24.463-23.345-35.886-48.835-36.687c-21.31-0.67-42.654-0.313-63.982-0.363
		c-4.14-0.01-8.353-0.246-12.407,0.407c-9.937,1.6-16.971,10.637-16.602,20.7c0.353,9.61,7.861,18.082,17.125,19.324
		c10.6,1.42,19.933-4.412,22.82-14.302c0.542-1.858,0.925-3.762,1.42-5.804c14.407,0,28.56-0.001,42.713,0
		c26.416,0.002,35.36,6.95,41.741,32.661c15.027,60.551,29.986,121.118,45.008,181.67c12.658,51.025,25.294,102.055,38.102,153.042
		c3.121,12.424,7.96,24.071,18.6,32.246c2.17,1.667,4.456,3.182,6.671,4.754c-12.564,18.191-11.689,38.26,2.07,53.57
		C244.449,507.767,253.143,511.261,262.5,513.5z M329.276,46.691c10.939,10.97,20.757,20.862,30.643,30.684
		c1.636,1.625,3.421,3.207,5.399,4.359c5.245,3.053,11.221,1.087,13.884-4.34c2.122-4.325,0.947-8.668-3.761-13.383
		c-17.895-17.924-35.811-35.827-53.729-53.728c-0.882-0.881-1.86-1.667-2.893-2.585c-19.352,19.334-38.478,38.372-57.497,57.516
		c-3.062,3.082-4.715,6.893-2.954,11.38c2.974,7.578,11.457,8.83,17.914,2.483c9.625-9.461,19.108-19.067,28.671-28.591
		c0.95-0.946,2.041-1.752,3.661-3.127c0,2.966,0,4.958,0,6.951c0,55.987-0.002,111.975,0.002,167.962
		c0.001,9.198,3.597,14.361,10.072,14.508c6.735,0.152,10.587-5.106,10.587-14.493c0.003-55.987,0.002-111.975,0.002-167.962
		C329.276,52.334,329.276,50.345,329.276,46.691z"/>
	<path display="inline" d="M271.369,507.135c-9.299-2.223-17.941-5.693-24.526-13.014c-13.676-15.204-14.545-35.132-2.058-53.197
		c-2.201-1.561-4.474-3.065-6.63-4.721c-10.575-8.118-15.385-19.684-18.486-32.021c-12.73-50.632-25.289-101.306-37.87-151.976
		c-14.93-60.13-29.797-120.276-44.733-180.404c-6.342-25.532-15.231-32.431-41.486-32.434c-14.067-0.001-28.134,0-42.452,0
		c-0.492,2.028-0.873,3.919-1.412,5.764c-2.869,9.821-12.146,15.613-22.681,14.203c-9.208-1.233-16.67-9.646-17.021-19.189
		c-0.367-9.992,6.625-18.967,16.501-20.556c4.029-0.648,8.216-0.413,12.331-0.404c21.199,0.049,42.411-0.305,63.592,0.36
		c25.334,0.796,40.97,12.139,48.536,36.432c6.623,21.262,11.584,43.052,16.973,64.685c18.129,72.784,36.162,145.592,54.058,218.434
		c1.026,4.174,2.59,5.43,6.874,5.419c58.137-0.15,116.274-0.141,174.411-0.008c3.765,0.009,5.371-1.114,6.7-4.643
		c22.344-59.374,44.795-118.707,67.46-177.959c1.36-3.555,4.089-7.449,7.277-9.26c6.197-3.521,13.479,1.616,13.271,8.752
		c-0.066,2.253-0.665,4.582-1.469,6.708c-23.544,62.276-47.142,124.531-70.74,186.787c-3.001,7.918-5.815,9.849-14.541,9.852
		c-58.634,0.014-117.268,0.008-175.902,0.008c-2.111,0-4.222,0-7.221,0c4.061,14.769,7.595,28.849,11.851,42.708
		c3.347,10.9,11.276,16.929,22.729,17.666c7.923,0.51,15.882,0.634,23.825,0.644c45.549,0.057,91.097,0.025,136.646,0.03
		c10.019,0.001,12.459,2.232,13.821,12.318c0.142,1.053,0.874,2.105,1.545,2.998c18.904,25.15,6.546,58.374-24.282,65.261
		c-0.615,0.137-1.18,0.502-1.768,0.761c-3.644,0-7.289,0-10.933,0c-0.435-0.223-0.847-0.552-1.309-0.654
		c-23.277-5.134-36.172-22.803-33.38-46.305c0.547-4.607,2.473-9.05,3.834-13.818c-20.177,0-40.133,0-60.045,0
		c-0.067,0.452-0.155,0.64-0.104,0.776c0.282,0.762,0.59,1.514,0.903,2.264c6.511,15.569,4.684,29.986-5.896,43.245
		c-6.52,8.171-15.566,11.875-25.257,14.492C278.657,507.135,275.013,507.135,271.369,507.135z M408.852,446.459
		c-11.403,0.006-20.218,8.748-20.197,20.027c0.02,11.207,9.006,20.136,20.255,20.127c11.146-0.009,20.315-9.122,20.309-20.185
		C429.213,455.288,420.201,446.452,408.852,446.459z M276.351,446.464c-11.34,0.054-20.058,8.889-19.955,20.222
		c0.102,11.224,9.132,20.045,20.401,19.929c11.12-0.114,20.269-9.393,20.092-20.379
		C296.709,455.035,287.748,446.409,276.351,446.464z"/>
	<path fill="#FFFFFF" d="M273.5,513.5c9.751-2.635,18.852-6.365,25.412-14.593c10.645-13.352,12.483-27.87,5.932-43.548
		c-0.315-0.755-0.625-1.513-0.909-2.28c-0.051-0.137,0.038-0.326,0.105-0.781c20.035,0,40.113,0,60.414,0
		c-1.369,4.801-3.306,9.275-3.857,13.915c-2.809,23.667,10.166,41.46,33.586,46.63c0.465,0.103,0.879,0.434,1.317,0.658
		C354.833,513.5,314.167,513.5,273.5,513.5z"/>
	<path display="inline" d="M337.62,43.701c0,3.627,0,5.6,0,7.574c0,55.566,0.002,111.133-0.002,166.699
		c-0.001,9.316-3.823,14.535-10.507,14.384c-6.427-0.145-9.996-5.27-9.997-14.399c-0.004-55.566-0.002-111.133-0.002-166.699
		c0-1.978,0-3.955,0-6.899c-1.607,1.365-2.69,2.165-3.633,3.104c-9.491,9.452-18.902,18.987-28.455,28.376
		c-6.408,6.299-14.828,5.057-17.779-2.464c-1.747-4.453-0.107-8.235,2.932-11.294c18.876-19,37.859-37.895,57.065-57.083
		c1.025,0.912,1.996,1.691,2.871,2.566c17.783,17.766,35.565,35.535,53.325,53.324c4.672,4.68,5.839,8.99,3.733,13.283
		c-2.642,5.387-8.574,7.338-13.78,4.308c-1.963-1.143-3.735-2.713-5.359-4.326C358.221,64.406,348.478,54.589,337.62,43.701z"/>
	<path fill="#FFFFFF" d="M400.828,452.398c11.419-0.006,20.486,8.892,20.492,20.11c0.006,11.14-9.219,20.317-20.433,20.326
		c-11.318,0.009-20.359-8.982-20.38-20.268C380.486,461.207,389.355,452.404,400.828,452.398z"/>
	<path fill="#FFFFFF" d="M267.513,452.403c11.468-0.055,20.483,8.632,20.665,19.91c0.178,11.063-9.027,20.408-20.216,20.522
		c-11.338,0.116-20.423-8.767-20.526-20.069C247.331,461.353,256.103,452.457,267.513,452.403z"/>
</g>
<g display="none">
	<path fill="#FFFFFF" d="M262.5,513.5c-87.333,0-174.667,0-262,0c0-171,0-342,0-513c171,0,342,0,513,0c0,171,0,342,0,513
		c-35.667,0-71.333,0-107,0c0.592-0.26,1.159-0.627,1.778-0.766c31.024-6.937,43.449-40.378,24.428-65.724
		c-0.675-0.899-1.409-1.96-1.55-3.021c-1.357-10.141-3.824-12.396-13.915-12.397c-45.833-0.005-91.666,0.028-137.498-0.03
		c-7.993-0.01-15.995-0.2-23.975-0.645c-11.386-0.634-19.245-6.608-22.608-17.355c-4.407-14.087-8.033-28.418-12.218-43.446
		c3.081,0,5.209,0,7.337,0c58.833,0,117.666,0.004,176.499-0.005c9.417-0.001,12.094-1.83,15.338-10.4
		c14.078-37.185,28.147-74.374,42.221-111.56c9.657-25.517,19.333-51.028,28.965-76.555c2.75-7.288,1.195-12.95-4.615-15.305
		c-2.503-1.014-5.528-1.013-8.316-1.014c-79.166-0.049-158.333-0.039-237.499-0.04c-22.5,0-45.001-0.136-67.498,0.12
		c-4.245,0.048-5.788-1.354-6.63-5.261c-1.857-8.617-4.065-17.161-6.259-25.702c-5.586-21.746-10.432-43.726-17.084-65.144
		c-7.612-24.508-23.343-35.966-48.788-36.759c-21.313-0.664-42.658-0.314-63.988-0.365c-4.141-0.01-8.353-0.246-12.408,0.4
		C8.259,24.112,1.209,33.107,1.548,43.171c0.324,9.614,7.807,18.11,17.069,19.381c10.593,1.453,19.962-4.364,22.866-14.243
		c0.547-1.86,0.918-3.773,1.417-5.859c14.372,0,28.525-0.001,42.678,0c26.46,0.002,35.402,6.913,41.778,32.617
		c14.102,56.843,28.097,113.713,42.202,170.556c13.584,54.743,27.192,109.48,40.931,164.184
		c3.122,12.431,7.949,24.076,18.585,32.258c2.17,1.67,4.46,3.183,6.678,4.757c-12.563,18.212-11.692,38.258,2.069,53.571
		C244.447,507.766,253.142,511.261,262.5,513.5z"/>
	<path display="inline" d="M271.324,507.5c-9.299-2.224-17.94-5.694-24.524-13.016c-13.674-15.207-14.54-35.113-2.056-53.198
		c-2.204-1.562-4.479-3.066-6.636-4.724c-10.569-8.125-15.365-19.689-18.468-32.033c-13.653-54.323-27.175-108.679-40.674-163.04
		c-14.017-56.446-27.923-112.92-41.937-169.367c-6.337-25.525-15.222-32.388-41.516-32.39c-14.064-0.001-28.128,0-42.41,0
		c-0.496,2.072-0.865,3.971-1.408,5.818C48.81,55.361,39.5,61.137,28.973,59.694c-9.204-1.262-16.64-9.699-16.962-19.246
		c-0.337-9.995,6.669-18.927,16.565-20.502c4.03-0.641,8.216-0.407,12.33-0.397c21.197,0.051,42.407-0.297,63.586,0.363
		c25.285,0.787,40.917,12.166,48.481,36.502c6.611,21.268,11.426,43.095,16.977,64.69c2.18,8.481,4.374,16.966,6.219,25.523
		c0.837,3.879,2.37,5.272,6.588,5.224c22.356-0.254,44.716-0.119,67.074-0.119c78.669,0,157.338-0.009,236.007,0.039
		c2.77,0.002,5.776,0,8.263,1.007c5.774,2.339,7.319,7.962,4.586,15.199c-9.571,25.349-19.186,50.682-28.783,76.021
		c-13.985,36.928-27.967,73.857-41.956,110.783c-3.224,8.51-5.883,10.326-15.242,10.327c-58.463,0.008-116.927,0.004-175.39,0.005
		c-2.115,0-4.23,0-7.291,0c4.159,14.924,7.762,29.155,12.141,43.144c3.341,10.672,11.151,16.604,22.466,17.234
		c7.929,0.441,15.882,0.63,23.824,0.64c45.545,0.058,91.09,0.026,136.635,0.03c10.027,0.001,12.479,2.241,13.827,12.311
		c0.141,1.054,0.87,2.107,1.541,3c18.901,25.17,6.555,58.377-24.274,65.266c-0.615,0.137-1.179,0.502-1.767,0.76
		c-3.644,0-7.287,0-10.931,0c-0.435-0.223-0.847-0.552-1.309-0.654c-23.273-5.134-36.166-22.803-33.375-46.305
		c0.547-4.607,2.472-9.05,3.833-13.818c-20.174,0-40.126,0-60.034,0c-0.067,0.452-0.155,0.64-0.104,0.776
		c0.282,0.762,0.59,1.514,0.903,2.264c6.51,15.569,4.683,29.986-5.895,43.245c-6.519,8.171-15.563,11.875-25.253,14.492
		C278.611,507.5,274.968,507.5,271.324,507.5z M475.422,172.133c-97.846,0-195.09,0-292.57,0c0.224,1.268,0.338,2.24,0.571,3.182
		c13.539,54.692,27.151,109.365,40.516,164.099c1.104,4.523,3,5.479,7.346,5.467c57.633-0.153,115.268-0.165,172.901,0.018
		c4.549,0.014,6.531-1.308,8.119-5.543c18.04-48.11,36.299-96.138,54.489-144.192C469.645,187.634,472.445,180.085,475.422,172.133z
		 M408.839,446.823c-11.419-0.007-20.243,8.696-20.25,19.972c-0.006,11.217,8.942,20.159,20.196,20.18
		c11.152,0.022,20.321-9.041,20.361-20.126C429.186,455.727,420.165,446.83,408.839,446.823z M276.745,446.824
		c-11.467-0.052-20.306,8.524-20.391,19.786c-0.085,11.299,8.664,20.221,19.957,20.352c11.158,0.13,20.33-8.771,20.529-19.922
		C297.038,455.992,287.975,446.875,276.745,446.824z"/>
	<path fill="#FFFFFF" d="M273.5,513.5c9.751-2.635,18.852-6.365,25.412-14.593c10.645-13.352,12.483-27.87,5.932-43.548
		c-0.315-0.755-0.625-1.513-0.909-2.28c-0.051-0.137,0.038-0.326,0.105-0.781c20.035,0,40.113,0,60.414,0
		c-1.369,4.801-3.306,9.275-3.857,13.915c-2.809,23.667,10.166,41.46,33.586,46.63c0.465,0.103,0.879,0.434,1.317,0.658
		C354.833,513.5,314.167,513.5,273.5,513.5z"/>
	<path fill="#FFFFFF" d="M467.889,175.78c-2.996,8.007-5.814,15.609-8.682,23.192c-18.305,48.391-36.68,96.756-54.834,145.204
		c-1.598,4.265-3.593,5.597-8.171,5.582c-57.998-0.184-115.996-0.172-173.994-0.018c-4.373,0.012-6.281-0.951-7.392-5.506
		c-13.45-55.118-27.148-110.175-40.772-165.25c-0.235-0.949-0.349-1.927-0.575-3.204C271.565,175.78,369.424,175.78,467.889,175.78z
		 M304.505,257.488c-10.576,10.566-20.715,20.65-30.785,30.804c-1.623,1.636-3.197,3.432-4.334,5.417
		c-2.802,4.892-1.169,10.464,3.65,13.34c4.475,2.671,9.022,1.746,13.81-3.028c10.605-10.572,21.149-21.206,32.67-32.77
		c1.35,1.852,2.256,3.492,3.525,4.774c9.376,9.473,18.763,18.938,28.275,28.275c5.232,5.136,11.244,5.56,15.539,1.444
		c4.317-4.137,3.893-10.782-1.181-15.96c-5.946-6.069-11.942-12.094-18.033-18.017c-4.741-4.611-9.662-9.038-14.71-13.74
		c11.011-11.023,21.144-21.122,31.209-31.288c1.622-1.639,3.21-3.423,4.349-5.407c2.8-4.877,1.18-10.474-3.603-13.356
		c-4.483-2.701-9.041-1.806-13.825,2.951c-10.622,10.563-21.178,21.192-33.095,33.132c-1.153-1.902-1.849-3.74-3.111-5.022
		c-9.232-9.382-18.56-18.669-27.895-27.948c-3.457-3.436-7.334-5.935-12.465-3.878c-7.562,3.032-8.71,11.485-2.322,17.956
		C282.699,235.831,293.36,246.361,304.505,257.488z"/>
	<path fill="#FFFFFF" d="M400.885,452.397c11.397,0.007,20.476,8.967,20.436,20.167c-0.04,11.162-9.267,20.289-20.49,20.267
		c-11.325-0.022-20.33-9.026-20.324-20.322C380.513,461.154,389.393,452.39,400.885,452.397z"/>
	<path fill="#FFFFFF" d="M267.956,452.398c11.301,0.052,20.421,9.233,20.222,20.357c-0.2,11.229-9.43,20.193-20.659,20.062
		c-11.365-0.132-20.169-9.117-20.083-20.495C247.521,460.982,256.416,452.346,267.956,452.398z"/>
	<path display="inline" d="M313.065,253.272c-11.075-11.049-21.669-21.506-32.128-32.096c-6.348-6.426-5.207-14.82,2.308-17.831
		c5.098-2.043,8.951,0.439,12.386,3.851c9.276,9.215,18.546,18.437,27.72,27.754c1.254,1.273,1.946,3.098,3.091,4.987
		c11.843-11.857,22.332-22.412,32.888-32.901c4.754-4.724,9.283-5.613,13.738-2.931c4.753,2.862,6.363,8.419,3.58,13.263
		c-1.132,1.97-2.709,3.742-4.322,5.369c-10.002,10.095-20.071,20.124-31.013,31.07c5.017,4.669,9.906,9.065,14.618,13.644
		c6.053,5.882,12.011,11.864,17.92,17.892c5.041,5.142,5.463,11.741,1.173,15.849c-4.267,4.086-10.242,3.665-15.441-1.434
		c-9.452-9.272-18.78-18.671-28.097-28.078c-1.26-1.273-2.161-2.901-3.503-4.74c-11.449,11.484-21.927,22.043-32.465,32.542
		c-4.759,4.741-9.276,5.659-13.723,3.007c-4.788-2.856-6.412-8.39-3.627-13.247c1.13-1.971,2.694-3.755,4.307-5.38
		C292.48,273.777,302.556,263.764,313.065,253.272z"/>
</g>
<g display="none">
	<path fill="#FFFFFF" d="M262.5,513.5c-87.333,0-174.667,0-262,0c0-171,0-342,0-513c171,0,342,0,513,0c0,171,0,342,0,513
		c-35.667,0-71.333,0-107,0c0.589-0.26,1.155-0.627,1.771-0.765c31.019-6.942,43.462-40.406,24.443-65.715
		c-0.676-0.899-1.414-1.957-1.558-3.017c-1.381-10.171-3.825-12.41-13.9-12.411c-45.829-0.005-91.659,0.024-137.488-0.027
		c-7.827-0.009-15.661-0.192-23.478-0.574c-11.809-0.576-19.876-6.716-23.331-17.854c-4.327-13.947-7.869-28.137-11.97-43.021
		c3.003,0,5.13,0,7.256,0c58.662,0,117.324,0.002,175.986-0.003c10.247-0.001,12.572-1.648,16.217-11.293
		c16.467-43.57,32.939-87.138,49.418-130.704c7.18-18.982,14.437-37.936,21.549-56.943c3.55-9.487-0.864-15.796-10.981-15.922
		c-5.665-0.07-11.344-0.235-16.995,0.062c-3.844,0.202-6.497-1.134-9.178-3.833c-26.897-27.074-53.911-54.032-80.909-81.005
		c-7.225-7.218-12.324-7.177-19.597,0.085c-9.316,9.303-18.61,18.628-27.929,27.928c-1.009,1.007-2.12,1.91-3.393,3.05
		c-10.387-10.409-20.491-20.555-30.619-30.678c-7.726-7.722-12.574-7.71-20.311,0.024c-24.75,24.743-49.809,49.191-74.051,74.423
		c-7.341,7.64-14.731,11.739-25.151,9.933c-0.162-0.028-0.336-0.025-0.499-0.001c-2.935,0.434-3.993-1.005-4.624-3.777
		c-2.066-9.082-4.382-18.11-6.704-27.132c-5.596-21.742-10.435-43.723-17.095-65.136c-7.611-24.469-23.348-35.904-48.824-36.703
		c-21.311-0.668-42.654-0.313-63.984-0.363c-4.14-0.01-8.353-0.246-12.407,0.405C8.224,24.129,1.188,33.154,1.551,43.219
		c0.346,9.612,7.848,18.089,17.112,19.337c10.599,1.428,19.94-4.4,22.831-14.288c0.543-1.857,0.923-3.761,1.42-5.817
		c14.398,0,28.551-0.001,42.705,0c26.426,0.002,35.373,6.94,41.749,32.651c14.095,56.841,28.092,113.706,42.196,170.544
		c13.583,54.739,27.19,109.472,40.93,164.171c3.122,12.43,7.952,24.073,18.588,32.253c2.169,1.668,4.457,3.182,6.672,4.755
		c-12.564,18.196-11.69,38.259,2.07,53.57C244.448,507.767,253.143,511.261,262.5,513.5z"/>
	<path display="inline" d="M271.319,507c-9.298-2.223-17.938-5.693-24.522-13.014c-13.673-15.205-14.542-35.128-2.057-53.197
		c-2.202-1.562-4.475-3.065-6.63-4.722c-10.569-8.123-15.368-19.685-18.471-32.028c-13.653-54.319-27.174-108.67-40.672-163.027
		c-14.016-56.442-27.924-112.911-41.93-169.356c-6.335-25.532-15.226-32.421-41.486-32.423c-14.064-0.001-28.128,0-42.436,0
		c-0.494,2.042-0.871,3.933-1.411,5.777c-2.872,9.819-12.155,15.607-22.687,14.189c-9.206-1.24-16.661-9.657-17.004-19.202
		c-0.36-9.995,6.632-18.957,16.513-20.543c4.028-0.646,8.215-0.412,12.329-0.402c21.195,0.049,42.404-0.303,63.581,0.361
		c25.315,0.793,40.953,12.149,48.516,36.448c6.619,21.264,11.427,43.091,16.988,64.682c2.307,8.959,4.609,17.924,6.662,26.943
		c0.627,2.753,1.678,4.182,4.594,3.751c0.162-0.024,0.335-0.027,0.496,0.001c10.354,1.794,17.698-2.276,24.993-9.863
		c24.089-25.056,48.99-49.333,73.584-73.904c7.688-7.68,12.506-7.692,20.183-0.024c10.064,10.052,20.105,20.128,30.426,30.464
		c1.265-1.131,2.369-2.029,3.371-3.028c9.26-9.235,18.496-18.495,27.753-27.733c7.227-7.211,12.294-7.252,19.473-0.084
		c26.828,26.785,53.672,53.555,80.399,80.441c2.664,2.68,5.301,4.007,9.12,3.806c5.615-0.295,11.258-0.132,16.887-0.062
		c10.052,0.125,14.439,6.389,10.911,15.811c-7.068,18.875-14.279,37.697-21.414,56.547c-16.375,43.262-32.743,86.527-49.107,129.793
		c-3.622,9.578-5.932,11.213-16.115,11.214c-58.293,0.005-116.585,0.002-174.878,0.002c-2.113,0-4.226,0-7.21,0
		c4.075,14.78,7.595,28.871,11.894,42.721c3.433,11.061,11.45,17.158,23.184,17.73c7.768,0.379,15.552,0.561,23.33,0.57
		c45.541,0.051,91.082,0.023,136.622,0.027c10.012,0.001,12.44,2.225,13.813,12.324c0.143,1.053,0.877,2.104,1.548,2.996
		c18.899,25.132,6.534,58.364-24.289,65.257c-0.613,0.137-1.175,0.501-1.76,0.759c-3.644,0-7.287,0-10.931,0
		c-0.435-0.223-0.847-0.552-1.309-0.654c-23.273-5.134-36.166-22.803-33.374-46.305c0.547-4.607,2.472-9.05,3.833-13.818
		c-20.173,0-40.125,0-60.033,0c-0.067,0.452-0.155,0.64-0.104,0.776c0.282,0.762,0.59,1.514,0.903,2.264
		c6.509,15.569,4.683,29.986-5.895,43.245c-6.519,8.171-15.563,11.875-25.252,14.492C278.607,507,274.963,507,271.319,507z
		 M475.416,171.631c-97.845,0-195.087,0-292.565,0c0.222,1.264,0.334,2.237,0.567,3.179c13.538,54.692,27.15,109.365,40.516,164.099
		c1.103,4.516,2.989,5.485,7.341,5.473c57.633-0.154,115.266-0.165,172.898,0.016c4.541,0.014,6.533-1.295,8.124-5.537
		c18.038-48.111,36.297-96.139,54.488-144.193C469.635,187.139,472.436,179.59,475.416,171.631z M226.976,150.892
		c42.265,0,84.684,0,126.647,0c-21.181-21.169-42.418-42.395-63.316-63.281C269.548,108.354,248.285,129.6,226.976,150.892z
		 M434.857,151.233c-21.299-21.31-42.585-42.606-63.561-63.593c-8.027,8.021-16.537,16.523-25.23,25.209
		c12.13,12.16,24.458,24.61,36.956,36.888c1.095,1.076,3.293,1.409,4.988,1.432c9.599,0.132,19.202,0.064,28.803,0.064
		C423.025,151.233,429.237,151.233,434.857,151.233z M408.708,446.325c-11.384,0.023-20.178,8.803-20.125,20.094
		c0.052,11.191,9.086,20.111,20.319,20.063c11.137-0.048,20.298-9.217,20.237-20.256
		C429.077,455.063,420.083,446.302,408.708,446.325z M276.409,446.327c-11.37,0.027-20.117,8.798-20.06,20.115
		c0.057,11.244,9.014,20.088,20.289,20.033c11.14-0.054,20.284-9.229,20.197-20.267C296.747,455.03,287.778,446.3,276.409,446.327z"
		/>
	<path fill="#FFFFFF" d="M273.5,513.5c9.751-2.635,18.852-6.365,25.412-14.593c10.645-13.352,12.483-27.87,5.932-43.548
		c-0.315-0.755-0.625-1.513-0.909-2.28c-0.051-0.137,0.038-0.326,0.105-0.781c20.035,0,40.113,0,60.414,0
		c-1.369,4.801-3.306,9.275-3.857,13.915c-2.809,23.667,10.166,41.46,33.586,46.63c0.465,0.103,0.879,0.434,1.317,0.658
		C354.833,513.5,314.167,513.5,273.5,513.5z"/>
	<path fill="#FFFFFF" d="M467.891,175.778c-3,8.015-5.818,15.617-8.686,23.2c-18.305,48.391-36.68,96.756-54.833,145.204
		c-1.601,4.272-3.605,5.59-8.175,5.576c-57.998-0.182-115.996-0.172-173.994-0.016c-4.38,0.012-6.278-0.964-7.388-5.512
		c-13.45-55.118-27.149-110.175-40.773-165.25c-0.235-0.949-0.347-1.928-0.571-3.202
		C271.567,175.778,369.425,175.778,467.891,175.778z"/>
	<path fill="#FFFFFF" d="M217.876,154.893c21.444-21.441,42.842-42.836,63.732-63.725c21.03,21.032,42.402,42.407,63.717,63.725
		C303.096,154.893,260.409,154.893,217.876,154.893z"/>
	<path fill="#FFFFFF" d="M427.075,155.237c-5.656,0-11.907,0-18.158,0c-9.662,0-19.325,0.068-28.985-0.065
		c-1.706-0.023-3.918-0.359-5.02-1.442c-12.576-12.364-24.983-24.901-37.19-37.147c8.748-8.746,17.311-17.308,25.389-25.385
		C384.22,112.332,405.64,133.777,427.075,155.237z"/>
	<path fill="#FFFFFF" d="M400.76,452.399c11.447-0.023,20.498,8.8,20.56,20.041c0.062,11.117-9.157,20.35-20.365,20.398
		c-11.305,0.048-20.396-8.934-20.448-20.203C380.454,461.263,389.303,452.422,400.76,452.399z"/>
	<path fill="#FFFFFF" d="M267.622,452.402c11.441-0.028,20.467,8.764,20.555,20.021c0.087,11.115-9.114,20.355-20.325,20.409
		c-11.346,0.055-20.36-8.851-20.417-20.174C247.378,461.262,256.18,452.429,267.622,452.402z"/>
</g>
</svg>
