<?xml version="1.0" encoding="utf-8"?>
<!-- Generator: Adobe Illustrator 16.0.0, SVG Export Plug-In . SVG Version: 6.00 Build 0)  -->
<!DOCTYPE svg PUBLIC "-//W3C//DTD SVG 1.1//EN" "http://www.w3.org/Graphics/SVG/1.1/DTD/svg11.dtd">
<svg version="1.1" id="Layer_1" xmlns="http://www.w3.org/2000/svg" xmlns:xlink="http://www.w3.org/1999/xlink" x="0px" y="0px"
	 width="512px" height="512px" viewBox="0 0 512 512" enable-background="new 0 0 512 512" xml:space="preserve">
<g>
	<line fill="none" stroke="#B35047" x1="32" y1="0" x2="32" y2="512"/>
	<line fill="none" stroke="#B35047" x1="64" y1="0" x2="64" y2="512"/>
	<line fill="none" stroke="#B35047" x1="96" y1="0" x2="96" y2="512"/>
	<line fill="none" stroke="#B35047" x1="128" y1="0" x2="128" y2="512"/>
	<line fill="none" stroke="#B35047" x1="160" y1="0" x2="160" y2="512"/>
	<line fill="none" stroke="#B35047" x1="192" y1="0" x2="192" y2="512"/>
	<line fill="none" stroke="#B35047" x1="224" y1="0" x2="224" y2="512"/>
	<line fill="none" stroke="#B35047" x1="256" y1="0" x2="256" y2="512"/>
	<line fill="none" stroke="#B35047" x1="288" y1="0" x2="288" y2="512"/>
	<line fill="none" stroke="#B35047" x1="320" y1="0" x2="320" y2="512"/>
	<line fill="none" stroke="#B35047" x1="352" y1="0" x2="352" y2="512"/>
	<line fill="none" stroke="#B35047" x1="384" y1="0" x2="384" y2="512"/>
	<line fill="none" stroke="#B35047" x1="416" y1="0" x2="416" y2="512"/>
	<line fill="none" stroke="#B35047" x1="448" y1="0" x2="448" y2="512"/>
	<line fill="none" stroke="#B35047" x1="480" y1="0" x2="480" y2="512"/>
	<line fill="none" stroke="#B35047" x1="0" y1="32" x2="512" y2="32"/>
	<line fill="none" stroke="#B35047" x1="0" y1="64" x2="512" y2="64"/>
	<line fill="none" stroke="#B35047" x1="0" y1="96" x2="512" y2="96"/>
	<line fill="none" stroke="#B35047" x1="0" y1="128" x2="512" y2="128"/>
	<line fill="none" stroke="#B35047" x1="0" y1="160" x2="512" y2="160"/>
	<line fill="none" stroke="#B35047" x1="0" y1="192" x2="512" y2="192"/>
	<line fill="none" stroke="#B35047" x1="0" y1="224" x2="512" y2="224"/>
	<line fill="none" stroke="#B35047" x1="0" y1="256" x2="512" y2="256"/>
	<line fill="none" stroke="#B35047" x1="0" y1="288" x2="512" y2="288"/>
	<line fill="none" stroke="#B35047" x1="0" y1="320" x2="512" y2="320"/>
	<line fill="none" stroke="#B35047" x1="0" y1="352" x2="512" y2="352"/>
	<line fill="none" stroke="#B35047" x1="0" y1="384" x2="512" y2="384"/>
	<line fill="none" stroke="#B35047" x1="0" y1="416" x2="512" y2="416"/>
	<line fill="none" stroke="#B35047" x1="0" y1="448" x2="512" y2="448"/>
	<line fill="none" stroke="#B35047" x1="0" y1="480" x2="512" y2="480"/>
	<rect fill="none" stroke="#B35047" width="512" height="512"/>
</g>
<g>
	<path display="none" fill-rule="evenodd" clip-rule="evenodd" fill="#FFFFFF" d="M513.5,513.494
		c-170.955,0.002-341.911,0.002-512.933,0.002c0-170.91,0-341.824,0-512.867c170.933,0,341.933,0,512.933-0.006
		C513.5,171.575,513.5,342.533,513.5,513.494z M288.029,226.627c2.1,0.144,3.555,0.33,5.011,0.33
		c38.152,0.017,76.304,0.021,114.456-0.012c1.984-0.001,4.018-0.146,5.943-0.588c5.982-1.376,9.105-7.19,7.152-13.037
		c-1.648-4.936-5.252-7.063-12.3-7.069c-26.156-0.023-52.313-0.01-78.469-0.01c-1.71,0-3.421,0-5.132,0
		c-0.281-0.558-0.563-1.115-0.844-1.673c1.485-1.063,3.155-1.941,4.431-3.216c39.374-39.318,78.633-78.753,118.121-117.957
		c7.469-7.414,6.122-13.767,2.576-17.45c-4.479-4.652-11.086-3.49-17.365,2.787c-39.469,39.46-78.935,78.923-118.407,118.378
		c-1.2,1.199-2.468,2.329-4.444,4.188c0-3.083,0-4.896,0-6.71c0-25.323,0.011-50.646-0.018-75.97
		c-0.003-2.324,0.051-4.716-0.446-6.96c-1.729-7.793-11.313-10.866-16.535-4.88c-2.324,2.664-3.551,7.15-3.576,10.821
		c-0.25,37.983-0.154,75.969-0.154,113.953C288.029,223.041,288.029,224.528,288.029,226.627z M206.241,190.099
		c-0.431,0.2-0.862,0.401-1.293,0.602c-1.089-1.234-2.115-2.531-3.276-3.693c-39.222-39.234-78.457-78.457-117.69-117.681
		c-6.865-6.864-13.695-8.201-18.08-3.248c-3.544,4.003-4.758,9.992,3.497,18.163c39.43,39.024,78.544,78.369,117.762,117.608
		c1.185,1.186,2.278,2.464,4.05,4.392c-28.368,0-55.517-0.01-82.666,0.019c-2.324,0.003-4.713-0.034-6.958,0.465
		c-6.636,1.475-10.007,9.18-6.536,14.857c2.756,4.508,7.222,5.409,12.12,5.404c38.318-0.031,76.636-0.013,114.954-0.032
		c1.443-0.001,2.885-0.226,4.531-0.362c0.119-1.616,0.298-2.912,0.298-4.207c0.016-38.485,0.021-76.97-0.011-115.454
		c-0.001-1.816-0.176-3.679-0.596-5.442c-1.408-5.911-7.3-9.031-13.098-7.062c-4.798,1.629-6.982,5.195-6.994,11.854
		c-0.038,21.824-0.015,43.649-0.015,65.474C206.241,177.869,206.241,183.984,206.241,190.099z M204.542,323.827
		c0.566,0.369,1.133,0.738,1.699,1.107c0,1.795,0,3.59,0,5.384c0,25.49-0.009,50.98,0.017,76.47
		c0.002,2.158-0.035,4.377,0.417,6.465c1.694,7.817,11.235,10.979,16.496,5.029c2.34-2.646,3.616-7.128,3.641-10.789
		c0.256-37.983,0.162-75.969,0.145-113.954c0-1.747-0.186-3.493-0.287-5.265c-1.806-0.106-2.962-0.233-4.119-0.233
		c-38.485-0.011-76.969-0.018-115.454,0.013c-1.818,0.002-3.677,0.164-5.446,0.565c-5.99,1.358-9.177,7.142-7.267,12.97
		c1.647,5.026,5.172,7.151,12.23,7.158c26.156,0.027,52.313,0.012,78.469,0.012c1.733,0,3.467,0,6.255,0
		c-2.11,2.21-3.318,3.527-4.581,4.791c-39.69,39.709-79.395,79.404-119.071,119.128c-5.382,5.389-6.032,12.094-1.766,16.346
		c4.329,4.315,10.953,3.655,16.342-1.63c0.476-0.467,0.944-0.941,1.416-1.412c39.35-39.343,78.706-78.681,118.023-118.057
		C202.856,326.768,203.604,325.202,204.542,323.827z M288.322,288.344c-0.126,1.539-0.275,2.521-0.275,3.503
		c-0.014,38.817-0.021,77.635,0.012,116.452c0.002,1.816,0.191,3.684,0.639,5.438c1.445,5.654,7.201,8.699,12.792,6.905
		c5.111-1.64,7.249-5.104,7.257-12.153c0.029-26.157,0.013-52.315,0.013-78.473c0-1.751,0-3.503,0-6.342
		c2.164,2.061,3.471,3.252,4.72,4.501c39.238,39.219,78.467,78.447,117.721,117.65c1.638,1.636,3.342,3.311,5.299,4.498
		c6.96,4.224,15.55-0.308,15.066-8.389c-0.201-3.362-2.437-7.241-4.909-9.732c-39.433-39.731-79.042-79.286-118.683-118.809
		c-1.221-1.217-3.215-1.658-4.849-2.461c0.589-0.725,1.177-1.449,1.766-2.174c1.609,0,3.22,0,4.829,0
		c25.656,0,51.313,0.013,76.969-0.021c2.321-0.003,4.723,0.024,6.948-0.522c7.503-1.844,10.429-11.173,4.723-16.326
		c-2.523-2.28-6.782-3.674-10.265-3.697c-38.483-0.254-76.968-0.163-115.453-0.148C291.344,288.044,290.046,288.219,288.322,288.344
		z"/>
	<path fill-rule="evenodd" clip-rule="evenodd" d="M295.193,215.36c0-2.729,0-4.662,0-6.597c0-49.38-0.124-98.761,0.201-148.14
		c0.033-4.771,1.627-10.604,4.648-14.067c6.79-7.782,19.249-3.787,21.496,6.344c0.646,2.918,0.576,6.026,0.58,9.048
		c0.037,32.921,0.022,65.841,0.022,98.761c0,2.357,0,4.715,0,8.724c2.57-2.416,4.218-3.885,5.778-5.444
		c51.314-51.291,102.62-102.593,153.929-153.892c8.163-8.16,16.753-9.671,22.575-3.623c4.609,4.789,6.36,13.047-3.349,22.686
		c-51.335,50.965-102.371,102.23-153.558,153.344c-1.658,1.657-3.829,2.8-5.76,4.181c0.365,0.726,0.731,1.45,1.097,2.175
		c2.225,0,4.448,0,6.671,0c34.004,0,68.007-0.018,102.01,0.013c9.162,0.009,13.847,2.774,15.99,9.19
		c2.539,7.601-1.521,15.159-9.299,16.948c-2.503,0.575-5.146,0.763-7.726,0.764c-49.599,0.044-99.195,0.037-148.793,0.016
		C299.814,215.789,297.923,215.546,295.193,215.36z"/>
	<path fill-rule="evenodd" clip-rule="evenodd" d="M188.869,167.873c0-7.948,0-15.898,0-23.847
		c0.001-28.371-0.029-56.744,0.02-85.116c0.015-8.656,2.854-13.293,9.092-15.41c7.538-2.561,15.198,1.495,17.027,9.18
		c0.546,2.293,0.773,4.714,0.774,7.075c0.042,50.029,0.035,100.06,0.015,150.09c0,1.684-0.232,3.368-0.388,5.47
		c-2.14,0.178-4.015,0.47-5.891,0.471c-49.813,0.025-99.626,0.001-149.439,0.042c-6.367,0.007-12.173-1.165-15.756-7.025
		c-4.512-7.381-0.13-17.397,8.497-19.314c2.918-0.649,6.024-0.601,9.045-0.604c35.294-0.037,70.587-0.024,107.465-0.024
		c-2.304-2.506-3.725-4.168-5.265-5.709C113.082,132.138,62.234,80.99,10.975,30.258C0.243,19.636,1.821,11.85,6.429,6.646
		c5.7-6.439,14.579-4.701,23.504,4.223c51.003,50.99,102.008,101.98,152.996,152.984c1.51,1.511,2.844,3.197,4.26,4.802
		C187.748,168.394,188.309,168.133,188.869,167.873z"/>
	<path fill-rule="evenodd" clip-rule="evenodd" d="M186.66,341.719c-1.22,1.789-2.191,3.824-3.693,5.328
		C131.854,398.236,80.691,449.375,29.537,500.52c-0.613,0.613-1.222,1.23-1.841,1.836c-7.006,6.871-15.616,7.729-21.244,2.119
		c-5.547-5.527-4.701-14.244,2.295-21.25c51.58-51.641,103.195-103.244,154.793-154.865c1.641-1.643,3.212-3.355,5.955-6.229
		c-3.625,0-5.878,0-8.132,0c-34.003,0-68.006,0.02-102.009-0.016c-9.176-0.008-13.758-2.771-15.899-9.305
		c-2.482-7.578,1.66-15.096,9.447-16.861c2.3-0.521,4.717-0.732,7.08-0.734c50.03-0.039,100.061-0.031,150.091-0.018
		c1.503,0,3.007,0.166,5.354,0.305c0.132,2.303,0.373,4.572,0.374,6.844c0.021,49.381,0.144,98.762-0.188,148.141
		c-0.032,4.758-1.69,10.584-4.733,14.025c-6.839,7.734-19.243,3.625-21.444-6.539c-0.588-2.713-0.541-5.598-0.543-8.404
		c-0.034-33.135-0.022-66.273-0.022-99.41c0-2.332,0-4.666,0-6.998C188.133,342.68,187.396,342.199,186.66,341.719z"/>
	<path fill-rule="evenodd" clip-rule="evenodd" d="M295.574,295.592c2.241-0.162,3.929-0.391,5.614-0.391
		c50.031-0.02,100.061-0.139,150.089,0.191c4.527,0.031,10.063,1.842,13.344,4.807c7.418,6.699,3.615,18.828-6.139,21.225
		c-2.894,0.711-6.016,0.676-9.033,0.68c-33.353,0.043-66.706,0.027-100.06,0.027c-2.092,0-4.186,0-6.277,0
		c-0.766,0.941-1.53,1.885-2.296,2.826c2.124,1.043,4.717,1.617,6.304,3.199c51.533,51.379,103.025,102.801,154.287,154.451
		c3.215,3.238,6.121,8.281,6.382,12.652c0.629,10.506-10.538,16.396-19.586,10.904c-2.544-1.543-4.76-3.721-6.889-5.848
		c-51.03-50.963-102.027-101.961-153.037-152.945c-1.623-1.623-3.322-3.172-6.136-5.852c0,3.691,0,5.969,0,8.246
		c0,34.004,0.022,68.01-0.016,102.014c-0.011,9.164-2.79,13.668-9.435,15.799c-7.268,2.332-14.75-1.625-16.629-8.977
		c-0.582-2.279-0.828-4.707-0.831-7.068c-0.043-50.463-0.032-100.926-0.015-151.389
		C295.217,298.867,295.411,297.592,295.574,295.592z"/>
</g>
<g display="none">
	<path fill-rule="evenodd" clip-rule="evenodd" fill="#FFFFFF" d="M514.5,514.461c-171.267,0-342.533,0-513.9,0
		c0-171.186,0-342.411,0-513.798c171.233,0,342.567,0,513.9,0C514.5,171.842,514.5,343.133,514.5,514.461z M174.851,440.414
		c54.806,0,108.878,0,163.218,0c0-5.744,0-11.18,0-17.145c-3.175-0.263-6.31-0.367-9.396-0.805
		c-10.85-1.536-21.823-2.563-32.483-4.966c-11.021-2.484-16.547-10.74-17.653-21.656c-0.905-8.934-1.514-17.939-1.524-26.914
		c-0.109-90.309-0.069-180.617-0.054-270.926c0-1.736,0.22-3.473,0.351-5.41c13.921,0,27.247-0.246,40.561,0.07
		c13.14,0.312,26.291,0.882,39.392,1.911c12.579,0.989,22.608,6.802,28.545,18.26c3.271,6.313,6.32,12.842,8.516,19.584
		c2.861,8.787,4.776,17.882,7.174,27.136c6.412-0.952,12.548-1.862,18.414-2.733c-2.112-31.905-4.174-63.051-6.248-94.368
		c-3.47,0-6.975-0.151-10.455,0.076c-1.336,0.088-3.089,0.677-3.842,1.658c-5.509,7.181-13.168,8.235-21.439,8.23
		c-76.479-0.043-152.958-0.015-229.438-0.013c-6.664,0.001-13.401,0.557-19.964-0.266c-4.204-0.526-9.542-2.002-11.925-4.998
		c-5.057-6.354-10.915-4.472-16.856-4.434c-2.332,32.438-4.63,64.413-6.945,96.622c6.422,0,12.377,0,18.602,0
		c0.476-1.588,0.921-3.17,1.424-4.733c3.712-11.551,7.127-23.21,11.235-34.619c4.977-13.818,14.07-23.217,29.502-24.883
		c4.628-0.499,9.239-1.474,13.871-1.567c21.483-0.438,42.971-0.651,64.457-0.914c1.253-0.016,2.51,0.23,4.169,0.395
		c0,2.317,0,4.291,0,6.264c0,88.977,0.011,177.952-0.021,266.928c-0.003,6.495-0.198,12.996-0.506,19.485
		c-1.124,23.734-9.149,32.254-32.929,34.898c-7.94,0.883-15.929,1.345-23.853,2.34c-1.407,0.176-3.605,1.936-3.719,3.128
		C174.591,430.646,174.851,435.311,174.851,440.414z"/>
	<path display="inline" fill-rule="evenodd" clip-rule="evenodd" d="M147.771,504.896c0-6.737-0.344-12.894,0.234-18.961
		c0.149-1.574,3.052-3.897,4.908-4.129c10.46-1.313,21.006-1.924,31.486-3.089c31.39-3.49,41.982-14.736,43.467-46.065
		c0.405-8.566,0.663-17.147,0.667-25.721c0.043-117.448,0.028-234.896,0.028-352.345c0-2.604,0-5.209,0-8.269
		c-2.189-0.216-3.849-0.541-5.503-0.521c-28.361,0.347-56.726,0.628-85.083,1.207c-6.114,0.123-12.201,1.41-18.31,2.068
		c-20.371,2.199-32.374,14.605-38.942,32.846c-5.424,15.06-9.931,30.45-14.831,45.697c-0.663,2.063-1.251,4.151-1.88,6.248
		c-8.216,0-16.077,0-24.555,0c3.057-42.516,6.091-84.724,9.168-127.541c7.842-0.051,15.575-2.536,22.25,5.852
		c3.146,3.955,10.192,5.903,15.741,6.598c8.663,1.086,17.558,0.353,26.354,0.351c100.952-0.002,201.904-0.04,302.857,0.017
		c10.918,0.007,21.028-1.386,28.3-10.864c0.994-1.295,3.308-2.072,5.071-2.188c4.594-0.3,9.221-0.101,13.801-0.101
		c2.738,41.339,5.459,82.451,8.247,124.566c-7.743,1.149-15.843,2.351-24.307,3.607c-3.164-12.215-5.692-24.22-9.469-35.818
		c-2.898-8.9-6.924-17.519-11.241-25.852c-7.836-15.124-21.074-22.797-37.679-24.103c-17.293-1.358-34.653-2.111-51.997-2.522
		c-17.574-0.418-35.165-0.093-53.54-0.093c-0.173,2.557-0.463,4.849-0.463,7.141c-0.021,119.208-0.073,238.415,0.071,357.622
		c0.014,11.847,0.816,23.734,2.012,35.527c1.461,14.409,8.754,25.307,23.303,28.586c14.071,3.172,28.557,4.527,42.878,6.555
		c4.074,0.577,8.213,0.716,12.403,1.063c0,7.873,0,15.048,0,22.631C291.49,504.896,220.114,504.896,147.771,504.896z"/>
</g>
<g display="none">
	<path fill-rule="evenodd" clip-rule="evenodd" fill="#FFFFFF" d="M0.533,513.5c0-170.937,0-341.872,0-512.904
		c170.861,0,341.756,0,512.809,0c0,170.904,0,341.904,0,512.904C342.483,513.5,171.525,513.5,0.533,513.5z M400.797,141.335
		c-1.747-1.841-2.462-2.53-3.104-3.281c-15.787-18.441-34.284-33.546-56.064-44.306c-57.477-28.396-115.549-28.677-171.574,1.979
		c-61.056,33.407-93.041,86.643-96.535,156.479c-0.197,3.933,0.548,7.902,0.645,11.86c0.204,8.44-0.275,16.946,0.688,25.291
		c0.338,2.933,3.529,6.652,6.364,7.959c7.039,3.243,13.602-2.333,13.419-10.786c-0.23-10.716-1.055-21.439-0.814-32.142
		c0.539-23.925,5.387-47.006,16.511-68.327c31.848-61.047,82.658-92.303,151.249-92.048c46.766,0.173,85.947,19.896,117.803,54.062
		c1.822,1.955,3.375,4.161,5.721,7.082c-13.644,0-25.946-0.001-38.249,0c-8.666,0.001-17.332-0.017-25.998,0.015
		c-5.007,0.019-9.291,1.498-11.202,6.62c-2.76,7.401,2.423,13.707,11.35,13.723c32.164,0.055,64.328,0.036,96.492,0.019
		c1.25-0.001,2.5-0.278,3.907-0.445c0-33.728,0.017-67.049-0.045-100.37c-0.003-1.79-0.418-3.667-1.045-5.354
		c-2.255-6.074-10.836-8.52-15.186-3.758c-2.411,2.64-4.07,6.967-4.144,10.572c-0.395,19.49-0.188,38.993-0.188,58.491
		C400.797,136.438,400.797,138.206,400.797,141.335z M202.199,428.984c-0.359-4.38-2.831-7.372-6.726-9.574
		c-12.401-7.012-24.757-14.104-37.083-21.249c-5.433-3.149-11.663-2.37-14.715,2.058c-3.162,4.586-2.122,10.632,2.872,14.561
		c3.911,3.076,7.891,6.216,12.265,8.523c10.237,5.401,20.498,10.894,31.207,15.214C196.116,440.977,201.988,435.699,202.199,428.984
		z M86.273,333.956c0.175,0.812,0.301,2.506,0.903,4.011c5.832,14.575,13.568,28.091,23.125,40.531
		c2.756,3.587,6.408,5.827,11.264,4.433c7.655-2.199,9.4-9.671,4.818-17.191c-6.973-11.446-13.376-23.239-20.04-34.874
		c-0.821-1.434-1.65-2.884-2.658-4.185c-2.971-3.833-7.139-4.352-11.222-2.855C88.473,325.287,86.204,328.591,86.273,333.956z
		 M261.382,452.409c0.009-0.251,0.018-0.501,0.026-0.752c1.998,0,4.011,0.154,5.992-0.028c6.497-0.599,10.563-4.822,10.307-10.546
		c-0.258-5.725-4.629-9.499-11.181-9.694c-8.985-0.269-17.969-0.565-26.954-0.842c-7.023-0.216-11.842,3.178-12.533,8.811
		c-0.726,5.921,3.332,10.744,10.46,11.496C245.427,451.689,253.418,451.917,261.382,452.409z M432.587,324.568
		c-0.055-6.01-2.389-9.269-6.589-10.923c-4.467-1.758-9.768-0.125-11.936,4.479c-3.725,7.906-6.878,16.11-9.784,24.361
		c-1.686,4.786,1.001,8.548,5.089,10.688c4.167,2.182,8.747,1.835,11.668-2.181C427.056,342.717,430.032,333.054,432.587,324.568z
		 M387.155,372.508c-1.014,0.439-3.706,0.896-5.365,2.452c-5.919,5.554-11.672,11.313-17.119,17.329
		c-3.407,3.764-3.19,9.268-0.262,12.768c3.257,3.893,9.38,5.369,13.422,1.796c6.907-6.105,13.638-12.66,19.182-19.98
		C401.497,380.952,396.094,372.617,387.155,372.508z M313.247,443.838c8.477-3.597,17.116-6.86,25.369-10.913
		c5.044-2.477,6.604-8.093,4.696-12.74c-1.849-4.503-7.182-7.373-12.458-5.51c-7.937,2.803-15.681,6.233-23.285,9.863
		c-4.115,1.966-5.855,7.039-4.437,11.047C304.713,440.044,307.775,442.738,313.247,443.838z M420.948,272.65
		c0.116,0.019,0.233,0.037,0.351,0.055c0,1.831-0.147,3.675,0.026,5.488c0.539,5.605,4.477,9.654,9.459,9.887
		c4.802,0.224,9.521-3.117,10.268-8.362c0.671-4.713,0.601-9.646,0.036-14.384c-0.519-4.357-5.084-7.89-9.241-7.654
		c-4.396,0.248-8.171,2.018-9.477,6.69C421.621,267.054,421.404,269.886,420.948,272.65z"/>
	<path display="inline" fill-rule="evenodd" clip-rule="evenodd" d="M442.783,104.409c0-4.067,0-6.367,0-8.667
		c0-25.348-0.27-50.701,0.243-76.039c0.096-4.687,2.253-10.313,5.387-13.743c5.654-6.19,16.811-3.012,19.741,4.885
		c0.815,2.193,1.354,4.634,1.358,6.961c0.08,43.317,0.059,86.635,0.059,130.481c-1.829,0.217-3.454,0.577-5.079,0.578
		c-41.813,0.023-83.627,0.047-125.44-0.023c-11.604-0.021-18.342-8.218-14.754-17.84c2.484-6.658,8.054-8.582,14.563-8.606
		c11.266-0.04,22.531-0.018,33.798-0.019c15.993-0.001,31.986,0,49.724,0c-3.05-3.797-5.068-6.665-7.438-9.207
		c-41.412-44.416-92.348-70.055-153.144-70.279C172.633,42.559,106.58,83.191,65.178,162.553
		c-14.461,27.718-20.764,57.723-21.464,88.825c-0.313,13.912,0.758,27.854,1.058,41.784c0.237,10.988-8.294,18.237-17.445,14.021
		c-3.686-1.698-7.833-6.534-8.272-10.347c-1.251-10.848-0.629-21.905-0.894-32.878c-0.125-5.146-1.094-10.307-0.838-15.419
		c4.542-90.786,46.123-159.992,125.495-203.422C215.65,5.267,291.144,5.632,365.863,42.546
		c28.314,13.988,52.36,33.624,72.884,57.598C439.582,101.12,440.512,102.016,442.783,104.409z"/>
	<path display="inline" fill-rule="evenodd" clip-rule="evenodd" d="M184.606,478.354c-0.275,8.729-7.909,15.59-15.835,12.392
		c-13.921-5.616-27.261-12.756-40.568-19.778c-5.686-3-10.859-7.081-15.943-11.08c-6.492-5.107-7.845-12.967-3.734-18.929
		c3.969-5.756,12.067-6.77,19.13-2.675c16.023,9.289,32.086,18.509,48.208,27.624C180.926,468.77,184.139,472.659,184.606,478.354z"
		/>
	<path display="inline" fill-rule="evenodd" clip-rule="evenodd" d="M33.902,354.816c-0.09-6.975,2.859-11.27,8.046-13.17
		c5.308-1.945,10.727-1.271,14.588,3.712c1.312,1.691,2.389,3.576,3.456,5.44c8.663,15.125,16.987,30.456,26.052,45.336
		c5.957,9.776,3.688,19.489-6.263,22.349c-6.313,1.813-11.062-1.1-14.644-5.763c-12.423-16.172-22.481-33.742-30.063-52.69
		C34.294,358.074,34.13,355.871,33.902,354.816z"/>
	<path display="inline" fill-rule="evenodd" clip-rule="evenodd" d="M261.543,508.806c-10.352-0.64-20.741-0.936-31.047-2.022
		c-9.266-0.978-14.541-7.248-13.598-14.945c0.898-7.322,7.163-11.734,16.293-11.453c11.68,0.359,23.359,0.745,35.04,1.094
		c8.518,0.254,14.199,5.161,14.535,12.603c0.333,7.441-4.953,12.932-13.399,13.71c-2.575,0.237-5.192,0.037-7.789,0.037
		C261.566,508.154,261.555,508.479,261.543,508.806z"/>
	<path display="inline" fill-rule="evenodd" clip-rule="evenodd" d="M484.11,342.612c-3.321,11.031-7.191,23.593-15.018,34.352
		c-3.797,5.22-9.751,5.671-15.168,2.834c-5.314-2.781-8.808-7.671-6.616-13.894c3.778-10.726,7.878-21.392,12.72-31.67
		c2.818-5.984,9.709-8.106,15.517-5.821C481.005,330.563,484.039,334.8,484.11,342.612z"/>
	<path display="inline" fill-rule="evenodd" clip-rule="evenodd" d="M425.049,404.934c11.62,0.143,18.645,10.978,12.814,18.674
		c-7.207,9.517-15.956,18.037-24.936,25.975c-5.255,4.646-13.215,2.726-17.449-2.335c-3.807-4.55-4.089-11.705,0.341-16.598
		c7.081-7.82,14.561-15.308,22.255-22.528C420.231,406.098,423.731,405.505,425.049,404.934z"/>
	<path display="inline" fill-rule="evenodd" clip-rule="evenodd" d="M328.968,497.663c-7.112-1.43-11.094-4.933-13.148-10.729
		c-1.845-5.21,0.418-11.805,5.768-14.36c9.886-4.719,19.953-9.179,30.271-12.822c6.859-2.423,13.793,1.309,16.196,7.162
		c2.48,6.042,0.451,13.343-6.105,16.563C351.22,488.744,339.987,492.987,328.968,497.663z"/>
	<path display="inline" fill-rule="evenodd" clip-rule="evenodd" d="M468.979,275.119c0.593-3.594,0.875-7.275,1.849-10.765
		c1.697-6.074,6.604-8.375,12.319-8.697c5.404-0.306,11.34,4.286,12.014,9.95c0.734,6.16,0.825,12.572-0.047,18.699
		c-0.97,6.818-7.105,11.162-13.348,10.871c-6.478-0.302-11.596-5.565-12.297-12.853c-0.226-2.357-0.034-4.755-0.034-7.135
		C469.283,275.167,469.131,275.144,468.979,275.119z"/>
</g>
<g display="none">
	<path fill-rule="evenodd" clip-rule="evenodd" fill="#FFFFFF" d="M0.533,513.5c0-170.937,0-341.872,0-512.904
		c170.861,0,341.756,0,512.809,0c0,170.904,0,341.904,0,512.904C342.483,513.5,171.525,513.5,0.533,513.5z M130.85,155.156
		c0.168-0.995,0.128-1.364,0.289-1.597c0.471-0.685,1.001-1.331,1.543-1.963c18.479-21.535,40.882-37.472,67.524-47.382
		c41.124-15.295,82.271-14.616,122.106,3.111c53.886,23.98,86.235,65.861,96.689,124.115c1.845,10.277,2.978,20.767,3.342,31.196
		c0.27,7.73-1.429,15.511-1.899,23.29c-0.416,6.866,3.373,11.788,8.946,12.362c5.753,0.593,10.775-3.906,11.194-10.832
		c0.627-10.384,1.06-20.799,1.035-31.199c-0.073-31.433-7.775-61.013-23.164-88.379c-19.88-35.353-48.367-61.631-85.387-78.344
		c-34.358-15.51-70.319-20.032-107.377-13.478c-39.365,6.962-73.098,24.993-100.928,53.827c-3.287,3.405-6.467,6.914-10.561,11.301
		c0-2.921,0-4.683,0-6.444c0-18.997,0.023-37.995-0.031-56.993c-0.006-2.31-0.189-4.675-0.716-6.914
		c-1.289-5.486-6.234-8.468-11.74-7.322c-5.193,1.08-8.104,5.3-8.111,12.134c-0.033,31.997-0.016,63.993-0.008,95.99
		c0,1.126,0.093,2.252,0.156,3.67c1.932,0.092,3.555,0.232,5.178,0.235c11.665,0.017,23.331,0.005,34.996,0.003
		c19.831-0.004,39.662-0.02,59.493-0.004c5.139,0.004,9.719-1.141,11.849-6.417c2.957-7.325-2.178-13.882-11.04-13.932
		c-19.331-0.107-38.662-0.035-57.993-0.036C134.479,155.156,132.723,155.156,130.85,155.156z M321.866,440.261
		c0.329-0.335,0.657-0.669,0.985-1.003c1.769-0.423,3.748-0.472,5.273-1.327c13.293-7.455,26.574-14.939,39.671-22.73
		c2.076-1.235,3.779-3.834,4.665-6.177c1.72-4.551,0.14-8.549-3.9-11.242c-4.491-2.994-8.665-1.511-12.95,1.027
		c-11.402,6.752-22.958,13.244-34.433,19.874c-1.858,1.074-3.836,2.088-5.373,3.537c-3.267,3.079-4.052,7.327-1.894,10.896
		C315.676,436.034,319.15,437.918,321.866,440.261z M428.703,334.211c0.19-5.566-2.981-9.788-7.375-10.736
		c-5.556-1.199-9.536,1.429-12.644,7.133c-6.414,11.773-13.285,23.297-19.781,35.026c-1.391,2.512-2.709,5.44-2.792,8.215
		c-0.138,4.582,2.644,7.725,7.114,9.058c4.8,1.432,8.567-0.609,11.347-4.226c9.56-12.437,17.331-25.934,23.168-40.511
		C428.347,336.657,428.524,334.974,428.703,334.211z M253.253,452.128c0.019,0.098,0.037,0.196,0.056,0.294
		c8.126-0.51,16.264-0.883,24.375-1.582c4.576-0.395,8.355-2.458,9.756-7.231c1.959-6.683-2.42-12.95-9.688-12.993
		c-10.477-0.063-20.957,0.596-31.436,0.955c-0.329,0.011-0.656,0.111-0.98,0.188c-4.778,1.125-7.485,4.174-7.976,9.009
		c-0.476,4.688,2.307,8.859,7.043,10.155C247.25,451.7,250.296,451.751,253.253,452.128z M201.011,443.968
		c0.199-0.431,0.399-0.86,0.599-1.291c4.951,0.326,8.372-2.041,10.026-6.5c1.59-4.287,0.78-8.937-3.304-10.937
		c-8.423-4.126-17.194-7.634-26.05-10.747c-4.477-1.573-8.259,1.225-10.22,5.172c-2.061,4.147-1.946,9.219,2.304,11.577
		C182.956,436.011,192.097,439.784,201.011,443.968z M152.676,397.754c-0.182-0.579-0.226-2.751-1.332-3.909
		c-6.529-6.833-13.037-13.732-20.109-19.979c-3.532-3.119-8.135-1.746-11.401,1.257c-3.083,2.834-4.806,6.857-2.378,10.814
		c2.4,3.911,5.389,7.575,8.647,10.817c3.974,3.955,8.083,8.087,12.888,10.817C145.237,411.121,152.559,406.104,152.676,397.754z
		 M82.447,323.14c-0.403,0.196-0.805,0.393-1.208,0.589c3.989,8.833,7.643,17.84,12.108,26.425
		c2.228,4.282,7.532,5.199,11.795,3.333c4.243-1.856,7.117-6.329,5.539-10.937c-2.935-8.57-6.423-16.995-10.324-25.174
		c-2.147-4.502-6.901-5.134-11.288-3.699C84.789,315.076,82.484,318.482,82.447,323.14z M73.15,272.409
		c0.318,2.615,0.382,5.292,1.009,7.831c1.248,5.057,5.364,8.096,10.055,7.794c4.806-0.309,8.553-3.661,9.331-8.767
		c0.37-2.427,0.077-4.948,0.168-7.423c0.398-10.813-4.922-14.123-10.291-14.088C77.6,257.796,72.327,261.76,73.15,272.409z"/>
	<path display="inline" fill-rule="evenodd" clip-rule="evenodd" d="M91.902,122.35c2.434,0,4.718,0,7.002,0
		c25.131,0.001,50.262-0.093,75.392,0.047c11.52,0.064,18.195,8.588,14.352,18.111c-2.77,6.859-8.724,8.347-15.404,8.342
		c-25.78-0.021-51.561,0-77.341,0.005c-15.165,0.003-30.33,0.018-45.495-0.004c-2.109-0.004-4.22-0.187-6.73-0.306
		c-0.082-1.844-0.203-3.307-0.203-4.771c-0.01-41.597-0.031-83.191,0.011-124.788c0.01-8.884,3.794-14.369,10.544-15.773
		C61.186,1.724,67.614,5.6,69.29,12.731c0.685,2.911,0.923,5.986,0.931,8.988c0.071,24.698,0.041,49.396,0.041,74.092
		c0,2.29,0,4.58,0,8.377c5.321-5.702,9.456-10.264,13.729-14.69c36.179-37.484,80.032-60.925,131.206-69.976
		c48.176-8.521,94.925-2.642,139.591,17.521c48.125,21.728,85.159,55.889,111.003,101.848
		c20.005,35.575,30.018,74.029,30.113,114.893c0.031,13.52-0.531,27.06-1.346,40.559c-0.545,9.003-7.074,14.853-14.553,14.081
		c-7.245-0.746-12.171-7.145-11.631-16.07c0.612-10.113,2.82-20.228,2.47-30.277c-0.474-13.559-1.946-27.194-4.345-40.555
		c-13.59-75.73-55.645-130.176-125.696-161.351c-51.786-23.045-105.277-23.928-158.738-4.044
		c-34.635,12.883-63.759,33.601-87.781,61.596c-0.705,0.821-1.394,1.662-2.006,2.552C92.069,120.576,92.12,121.056,91.902,122.35z"
		/>
	<path display="inline" fill-rule="evenodd" clip-rule="evenodd" d="M340.223,492.985c-3.53-3.046-8.047-5.495-10.342-9.288
		c-2.806-4.64-1.784-10.162,2.462-14.165c1.998-1.885,4.569-3.202,6.985-4.599c14.917-8.619,29.939-17.059,44.762-25.836
		c5.571-3.3,10.997-5.229,16.836-1.336c5.252,3.502,7.306,8.699,5.07,14.615c-1.151,3.045-3.365,6.424-6.064,8.029
		c-17.025,10.129-34.291,19.858-51.572,29.55c-1.983,1.112-4.557,1.176-6.855,1.726C341.077,492.115,340.65,492.55,340.223,492.985z
		"/>
	<path display="inline" fill-rule="evenodd" clip-rule="evenodd" d="M479.111,355.12c-0.232,0.992-0.464,3.181-1.252,5.147
		c-7.588,18.95-17.691,36.496-30.118,52.663c-3.613,4.701-8.512,7.354-14.751,5.494c-5.813-1.733-9.428-5.818-9.249-11.775
		c0.108-3.606,1.822-7.414,3.63-10.68c8.445-15.248,17.377-30.229,25.716-45.534c4.039-7.415,9.214-10.831,16.437-9.272
		C475.235,342.396,479.358,347.884,479.111,355.12z"/>
	<path display="inline" fill-rule="evenodd" clip-rule="evenodd" d="M251.025,508.412c-3.843-0.489-7.803-0.556-11.504-1.567
		c-6.157-1.685-9.774-7.106-9.156-13.202c0.638-6.285,4.157-10.249,10.369-11.711c0.421-0.1,0.847-0.23,1.273-0.244
		c13.622-0.467,27.247-1.322,40.866-1.241c9.448,0.056,15.141,8.203,12.594,16.891c-1.82,6.206-6.733,8.889-12.683,9.401
		c-10.543,0.909-21.122,1.394-31.687,2.057C251.074,508.668,251.05,508.539,251.025,508.412z"/>
	<path display="inline" fill-rule="evenodd" clip-rule="evenodd" d="M183.111,497.805c-11.589-5.439-23.473-10.345-34.639-16.544
		c-5.524-3.065-5.673-9.658-2.994-15.05c2.549-5.132,7.466-8.769,13.285-6.724c11.513,4.047,22.914,8.607,33.865,13.972
		c5.309,2.6,6.362,8.644,4.295,14.217c-2.151,5.797-6.599,8.874-13.035,8.45C183.63,496.686,183.37,497.244,183.111,497.805z"/>
	<path display="inline" fill-rule="evenodd" clip-rule="evenodd" d="M120.275,437.727c-0.151,10.855-9.671,17.377-17.789,12.764
		c-6.246-3.55-11.588-8.921-16.754-14.063c-4.236-4.215-8.121-8.979-11.242-14.063c-3.156-5.145-0.916-10.375,3.092-14.059
		c4.246-3.904,10.229-5.689,14.821-1.635c9.193,8.12,17.653,17.09,26.141,25.973C119.982,434.15,120.039,436.974,120.275,437.727z"
		/>
	<path display="inline" fill-rule="evenodd" clip-rule="evenodd" d="M28.978,340.728c0.049-6.054,3.045-10.482,8.61-12.302
		c5.702-1.864,11.883-1.043,14.674,4.81c5.07,10.632,9.605,21.584,13.421,32.726c2.051,5.989-1.686,11.804-7.201,14.218
		c-5.542,2.426-12.438,1.233-15.334-4.333c-5.804-11.16-10.555-22.869-15.74-34.353C27.931,341.238,28.454,340.983,28.978,340.728z"
		/>
	<path display="inline" fill-rule="evenodd" clip-rule="evenodd" d="M16.892,274.778c-1.07-13.845,5.785-18.997,13.354-19.048
		c6.979-0.046,13.895,4.258,13.378,18.313c-0.119,3.218,0.261,6.495-0.22,9.65c-1.01,6.637-5.882,10.995-12.129,11.396
		c-6.099,0.393-11.45-3.559-13.072-10.132C17.389,281.658,17.306,278.178,16.892,274.778z"/>
</g>
<g display="none">
	<path fill-rule="evenodd" clip-rule="evenodd" fill="#FFFFFF" d="M0.542,513.5c0-170.93,0-341.86,0-512.895
		c170.846,0,341.734,0,512.79,0c0,170.895,0,341.895,0,512.895C342.502,513.5,171.543,513.5,0.542,513.5z M57.633,247.332
		c1.75-3.567,4.537-6.975,4.988-10.667c0.802-6.563,0.445-13.313,0.093-19.959c-0.331-6.242-4.662-10.293-10.112-10.209
		c-5.551,0.086-9.835,4.601-10.082,10.882c-0.163,4.159,0.04,8.331-0.054,12.494c-0.148,6.604-0.499,13.238,7.549,17.267
		c-3.281,0.191-5.228,0.305-7.273,0.424c0,75.021,0,149.762,0,224.723c75.019,0,149.762,0,224.693,0
		c0.146-2.401,0.278-4.588,0.447-7.357c2.875,5.816,7.217,7.781,12.885,7.62c5.495-0.156,11.002,0.097,16.495-0.074
		c6.675-0.209,11.292-4.533,11.246-10.221c-0.047-5.791-4.55-9.897-11.349-10.106c-4.828-0.148-9.669,0.098-14.496-0.071
		c-6.074-0.213-11.507,0.773-14.995,7.958c0-65.891-0.03-130.376,0.134-194.86c0.006-2.119,1.535-4.688,3.123-6.283
		c38.563-38.732,77.229-77.362,115.888-115.998c0.968-0.967,2.077-1.792,3.689-3.171c0,2.716,0,4.536,0,6.356
		c0,25.994-0.009,51.989,0.007,77.984c0.004,6.515,2.288,10.644,6.647,12.226c7.443,2.701,14.196-2.646,14.213-11.58
		c0.07-38.992,0.034-77.984,0.012-116.978c-0.001-1.264-0.272-2.528-0.458-4.132c-2.146,0-3.954,0-5.764,0
		c-15.664,0-31.327,0-46.991,0c-22.329,0-44.658,0.003-66.987-0.001c-5.311-0.001-10.043,1.342-12.338,6.631
		c-3.168,7.306,2.289,14.229,11.191,14.248c26.495,0.055,52.99,0.02,79.485,0.021c1.714,0,3.428,0,6.024,0
		c-1.353,1.503-1.868,2.132-2.44,2.705c-39.116,39.121-78.208,78.268-117.458,117.254c-1.724,1.713-4.91,2.751-7.419,2.759
		c-52.656,0.155-105.313,0.117-157.969,0.117C78.956,247.332,67.653,247.332,57.633,247.332z M247.182,62.838c0-0.03,0-0.06,0-0.09
		c3.497,0,7.017,0.259,10.485-0.058c5.974-0.544,9.862-4.631,9.888-9.913c0.025-5.145-4.076-9.844-9.729-10.148
		c-6.976-0.376-14.005-0.379-20.979,0.024c-5.853,0.338-9.915,4.839-9.916,9.958c-0.001,5.451,4.158,9.719,10.259,10.182
		C240.502,63.044,243.85,62.838,247.182,62.838z M431.583,62.869c0-0.046,0.001-0.092,0.001-0.138c3.493,0,7.012,0.267,10.475-0.059
		c5.951-0.561,9.827-4.713,9.779-9.985c-0.05-5.494-4.202-9.858-10.271-10.123c-6.48-0.282-12.99-0.251-19.475-0.007
		c-6.413,0.241-10.756,4.56-10.743,10.139c0.013,5.707,4.253,9.793,10.746,10.144C425.249,63.01,428.42,62.869,431.583,62.869z
		 M452.178,328.967c0.045,0,0.09,0,0.135,0c0,3.663-0.292,7.354,0.067,10.981c0.562,5.671,4.65,9.461,9.717,9.557
		c5.127,0.096,9.935-3.979,10.25-9.629c0.398-7.141,0.413-14.346-0.067-21.479c-0.393-5.822-5.164-9.79-10.25-9.544
		c-5.305,0.256-9.336,4.26-9.804,10.119C451.961,322.284,452.178,325.634,452.178,328.967z M369.958,62.829c0,0.011,0,0.021,0,0.033
		c3.151,0,6.304,0.007,9.455-0.008c0.494-0.003,0.989-0.094,1.481-0.165c5.629-0.81,9.438-4.661,9.595-9.696
		c0.157-5.045-3.901-9.963-9.488-10.313c-7.104-0.446-14.274-0.427-21.382-0.015c-5.772,0.334-9.872,4.934-9.856,9.964
		c0.017,5.349,4.251,9.689,10.247,10.154C363.308,63.038,366.641,62.829,369.958,62.829z M62.827,104.094
		c-0.044,0-0.088,0-0.131-0.001c0-3.646,0.288-7.319-0.067-10.93c-0.554-5.634-4.601-9.439-9.635-9.612
		c-5.042-0.174-9.96,3.881-10.313,9.48c-0.447,7.103-0.425,14.273-0.016,21.381c0.333,5.783,4.902,9.863,9.956,9.859
		c5.354-0.003,9.691-4.224,10.16-10.23C63.038,110.744,62.827,107.411,62.827,104.094z M472.779,146.205
		c-0.273-5.168-0.122-9.358-0.806-13.408c-0.849-5.03-5.13-8.326-9.722-8.261c-4.697,0.067-9.305,3.391-9.628,8.362
		c-0.524,8.07-0.439,16.229,0.101,24.302c0.308,4.596,5.077,8.295,9.404,7.991c4.564-0.319,8.561-2.24,9.512-7.215
		C472.44,153.794,472.488,149.467,472.779,146.205z M472.503,206.604c-0.03,0-0.06,0-0.09,0c0-3.664,0.317-7.361-0.072-10.982
		c-0.626-5.823-5.094-9.801-10.216-9.642c-5.291,0.165-9.565,4.144-9.855,10.017c-0.338,6.81-0.333,13.665,0.033,20.474
		c0.335,6.245,4.706,10.229,10.184,10.086c5.387-0.141,9.622-4.472,9.982-10.459C472.659,212.942,472.503,209.769,472.503,206.604z
		 M472.831,268.75c-0.337-4.937-0.252-9.307-1.024-13.52c-0.888-4.843-5.055-7.847-9.608-7.771c-4.583,0.075-9.156,3.19-9.477,7.949
		c-0.559,8.265-0.473,16.621,0.057,24.894c0.279,4.371,4.927,7.896,9.159,7.723c4.623-0.188,8.654-2.047,9.659-7.042
		C472.439,276.793,472.486,272.443,472.831,268.75z M472.512,390.792c-0.021,0-0.044,0-0.065,0c0-3.496,0.263-7.016-0.058-10.481
		c-0.563-6.084-4.982-10.104-10.421-9.907c-5.331,0.193-9.464,4.14-9.738,10.068c-0.309,6.645-0.3,13.326,0.019,19.97
		c0.312,6.492,4.766,10.657,10.395,10.393c5.749-0.271,9.607-4.542,9.85-11.053C472.604,396.789,472.512,393.789,472.512,390.792z
		 M349.449,472.504c0-0.019,0-0.036,0-0.055c3.496,0,7.016,0.254,10.483-0.057c5.895-0.528,9.878-4.658,9.983-9.879
		c0.11-5.495-3.943-9.971-10.062-10.262c-6.81-0.324-13.662-0.321-20.467,0.06c-6.214,0.347-10.159,4.776-9.956,10.273
		c0.201,5.445,4.466,9.545,10.527,9.888C343.113,472.65,346.285,472.504,349.449,472.504z M62.688,62.796c0-0.03,0-0.06,0-0.09
		c3.646,0,7.321,0.289,10.933-0.066c5.803-0.57,9.836-5.002,9.677-10.084c-0.163-5.188-4.22-9.655-9.905-9.944
		c-6.948-0.354-13.947-0.358-20.892,0.041c-5.767,0.331-9.85,4.82-9.925,9.902c-0.079,5.348,4.084,9.678,10.166,10.192
		C56.034,63.025,59.371,62.796,62.688,62.796z M185.822,62.871c0-0.046,0-0.093,0-0.139c3.497,0,7.019,0.266,10.485-0.06
		c5.891-0.553,9.943-4.856,9.862-9.992c-0.086-5.426-4.339-9.853-10.346-10.112c-6.488-0.279-13.003-0.255-19.494-0.014
		c-6.362,0.236-10.848,4.658-10.818,10.131c0.03,5.606,4.408,9.806,10.813,10.156C179.481,63.014,182.655,62.871,185.822,62.871z
		 M308.01,62.86c0-0.033,0-0.066,0-0.1c3.663,0,7.347,0.25,10.983-0.057c5.884-0.498,10.013-4.718,10.069-9.821
		c0.061-5.371-4.198-10.007-10.161-10.294c-6.647-0.32-13.332-0.297-19.981-0.008c-6.156,0.268-10.373,4.534-10.479,9.909
		c-0.112,5.675,4.149,9.932,10.577,10.338C302.004,63.017,305.012,62.86,308.01,62.86z M472.506,83.578c-0.021,0-0.042,0-0.063,0
		c0-3.495,0.265-7.016-0.059-10.48c-0.554-5.934-4.668-9.848-9.922-9.908c-5.553-0.064-9.939,3.938-10.222,10.096
		c-0.313,6.808-0.312,13.66,0.085,20.462c0.361,6.222,4.792,10.114,10.318,9.884c5.499-0.229,9.499-4.433,9.832-10.564
		C472.646,89.912,472.506,86.741,472.506,83.578z M42.221,165.169c0.111,0.006,0.222,0.011,0.333,0.017
		c0,3.496-0.011,6.992,0.012,10.488c0.003,0.49,0.156,0.983,0.268,1.469c1.172,5.078,4.967,8.373,9.708,8.438
		c4.979,0.068,9.567-3.32,9.918-8.635c0.514-7.774,0.417-15.633-0.073-23.414c-0.305-4.834-4.477-8.125-9.07-8.429
		c-4.811-0.319-9.12,2.578-10.16,7.693C42.34,156.818,42.497,161.037,42.221,165.169z M410.813,472.793
		c0.006-0.198,0.013-0.396,0.019-0.594c3.972,0,8.003,0.433,11.899-0.105c5.263-0.727,8.794-5.164,8.699-9.895
		c-0.098-4.865-3.653-9.396-8.898-9.707c-7.751-0.46-15.577-0.368-23.328,0.14c-4.751,0.311-8.104,4.541-8.45,9.058
		c-0.351,4.566,2.74,9.096,7.742,10.124C402.499,472.637,406.7,472.502,410.813,472.793z M124.118,62.82c0-0.041,0-0.082,0-0.123
		c3.659,0,7.346,0.288,10.971-0.065c5.715-0.559,9.403-4.525,9.542-9.672c0.14-5.201-3.817-9.974-9.502-10.306
		c-7.132-0.417-14.331-0.42-21.459,0.042c-5.84,0.378-9.681,4.998-9.522,10.229c0.164,5.375,4.041,9.353,9.987,9.846
		C117.441,63.045,120.789,62.82,124.118,62.82z M472.511,452.353c-0.017,0-0.033,0-0.05,0c0-3.483,0.238-6.987-0.053-10.446
		c-0.506-6.006-4.966-10.31-10.173-10.213c-5.382,0.1-9.738,4.309-10.005,10.365c-0.293,6.621-0.297,13.277,0.027,19.896
		c0.312,6.373,4.959,10.743,10.379,10.429c5.595-0.324,9.603-4.764,9.854-11.074C472.609,458.328,472.511,455.339,472.511,452.353z"
		/>
	<path display="inline" fill-rule="evenodd" clip-rule="evenodd" d="M23.65,243.694c11.623,0,24.734,0,37.846,0
		c61.081,0,122.163,0.044,183.244-0.136c2.91-0.01,6.605-1.214,8.605-3.2c45.53-45.225,90.877-90.635,136.251-136.015
		c0.664-0.665,1.263-1.395,2.831-3.138c-3.012,0-5,0-6.988,0c-30.734-0.002-61.469,0.039-92.203-0.024
		c-10.326-0.021-16.656-8.053-12.981-16.527c2.662-6.136,8.151-7.693,14.312-7.692c25.902,0.005,51.804,0.002,77.705,0.002
		c18.171,0,36.34,0,54.51,0c2.1,0,4.197,0,6.687,0c0.215,1.859,0.53,3.327,0.531,4.793c0.026,45.231,0.067,90.463-0.014,135.693
		c-0.02,10.364-7.853,16.566-16.487,13.433c-5.057-1.835-7.706-6.624-7.711-14.182c-0.018-30.154-0.008-60.309-0.008-90.462
		c0-2.111,0-4.223,0-7.373c-1.87,1.6-3.157,2.557-4.279,3.679c-44.845,44.817-89.697,89.628-134.43,134.558
		c-1.843,1.85-3.616,4.83-3.623,7.288c-0.19,74.802-0.155,149.605-0.155,226.038c4.046-8.334,10.349-9.479,17.395-9.231
		c5.6,0.196,11.215-0.089,16.815,0.083c7.887,0.242,13.109,5.006,13.164,11.724c0.054,6.598-5.303,11.613-13.045,11.855
		c-6.372,0.198-12.761-0.095-19.135,0.086c-6.575,0.188-11.611-2.092-14.946-8.839c-0.196,3.213-0.35,5.749-0.519,8.534
		c-86.92,0-173.622,0-260.644,0c0-86.954,0-173.654,0-260.678c2.373-0.139,4.631-0.27,8.437-0.492
		c-9.335-4.673-8.928-12.369-8.757-20.029c0.108-4.829-0.126-9.668,0.063-14.493c0.286-7.286,5.255-12.522,11.694-12.622
		c6.322-0.098,11.346,4.601,11.73,11.842c0.408,7.71,0.821,15.539-0.108,23.152C28.913,235.604,25.681,239.556,23.65,243.694z
		 M30.158,267.518c0,71.477,0,142.269,0,213.146c71.353,0,142.296,0,213.044,0c0-71.391,0-142.206,0-213.146
		C172.016,267.518,101.329,267.518,30.158,267.518z"/>
	<path display="inline" fill-rule="evenodd" clip-rule="evenodd" d="M243.526,29.681c-3.864,0-7.748,0.239-11.59-0.052
		c-7.077-0.537-11.902-5.487-11.9-11.811c0.002-5.938,4.714-11.159,11.503-11.552c8.089-0.468,16.243-0.464,24.335-0.028
		c6.557,0.354,11.314,5.805,11.285,11.772c-0.029,6.128-4.54,10.868-11.47,11.499c-4.023,0.367-8.106,0.067-12.162,0.067
		C243.527,29.612,243.527,29.646,243.526,29.681z"/>
	<path display="inline" fill-rule="evenodd" clip-rule="evenodd" d="M457.433,29.718c-3.67,0-7.348,0.163-11.007-0.034
		c-7.532-0.407-12.451-5.146-12.466-11.767c-0.015-6.472,5.023-11.481,12.463-11.761c7.521-0.283,15.073-0.319,22.59,0.008
		c7.041,0.307,11.857,5.369,11.915,11.742c0.056,6.116-4.44,10.934-11.344,11.583c-4.017,0.378-8.099,0.068-12.15,0.068
		C457.434,29.61,457.433,29.664,457.433,29.718z"/>
	<path display="inline" fill-rule="evenodd" clip-rule="evenodd" d="M481.322,338.391c0-3.866-0.252-7.752,0.056-11.593
		c0.542-6.797,5.219-11.441,11.372-11.738c5.899-0.286,11.435,4.316,11.89,11.07c0.558,8.274,0.541,16.632,0.078,24.915
		c-0.365,6.555-5.942,11.281-11.89,11.17c-5.877-0.111-10.62-4.508-11.271-11.086c-0.417-4.207-0.078-8.489-0.078-12.738
		C481.427,338.391,481.374,338.391,481.322,338.391z"/>
	<path display="inline" fill-rule="evenodd" clip-rule="evenodd" d="M385.947,29.671c-3.849,0-7.715,0.242-11.54-0.054
		c-6.955-0.539-11.867-5.574-11.887-11.778c-0.018-5.835,4.737-11.171,11.434-11.559c8.245-0.478,16.563-0.5,24.803,0.018
		c6.481,0.406,11.189,6.111,11.007,11.963c-0.182,5.841-4.601,10.309-11.13,11.248c-0.571,0.083-1.146,0.188-1.719,0.191
		c-3.655,0.018-7.313,0.009-10.968,0.009C385.947,29.695,385.947,29.684,385.947,29.671z"/>
	<path display="inline" fill-rule="evenodd" clip-rule="evenodd" d="M29.675,77.538c0,3.848,0.245,7.714-0.054,11.539
		c-0.544,6.968-5.574,11.863-11.786,11.867c-5.862,0.004-11.162-4.729-11.548-11.438c-0.475-8.244-0.5-16.563,0.019-24.802
		c0.409-6.495,6.114-11.198,11.963-10.997c5.84,0.2,10.534,4.615,11.177,11.15c0.411,4.188,0.077,8.449,0.077,12.679
		C29.573,77.538,29.624,77.538,29.675,77.538z"/>
	<path display="inline" fill-rule="evenodd" clip-rule="evenodd" d="M505.22,126.387c-0.337,3.784-0.393,8.804-1.32,13.655
		c-1.104,5.771-5.739,7.999-11.034,8.369c-5.02,0.353-10.552-3.938-10.909-9.27c-0.626-9.365-0.725-18.829-0.116-28.19
		c0.375-5.767,5.72-9.622,11.168-9.7c5.327-0.076,10.293,3.747,11.277,9.582C505.078,115.531,504.902,120.393,505.22,126.387z"/>
	<path display="inline" fill-rule="evenodd" clip-rule="evenodd" d="M504.899,196.449c0,3.672,0.182,7.354-0.04,11.012
		c-0.418,6.945-5.331,11.97-11.579,12.133c-6.354,0.165-11.425-4.455-11.813-11.7c-0.425-7.897-0.43-15.85-0.038-23.749
		c0.336-6.813,5.295-11.428,11.433-11.619c5.941-0.185,11.124,4.43,11.85,11.185c0.452,4.2,0.084,8.489,0.084,12.739
		C504.83,196.449,504.864,196.449,504.899,196.449z"/>
	<path display="inline" fill-rule="evenodd" clip-rule="evenodd" d="M505.28,268.539c-0.4,4.284-0.454,9.33-1.433,14.19
		c-1.165,5.795-5.842,7.95-11.204,8.169c-4.91,0.2-10.301-3.888-10.625-8.958c-0.613-9.597-0.714-19.29-0.065-28.877
		c0.371-5.52,5.677-9.134,10.993-9.221c5.282-0.089,10.115,3.396,11.146,9.014C504.987,257.743,504.889,262.813,505.28,268.539z"/>
	<path display="inline" fill-rule="evenodd" clip-rule="evenodd" d="M504.909,410.107c0,3.477,0.106,6.957-0.022,10.428
		c-0.281,7.553-4.757,12.508-11.426,12.821c-6.529,0.307-11.696-4.524-12.058-12.056c-0.369-7.706-0.379-15.457-0.021-23.164
		c0.318-6.878,5.112-11.455,11.297-11.68c6.309-0.229,11.435,4.435,12.088,11.492c0.372,4.021,0.067,8.104,0.067,12.158
		C504.858,410.107,504.885,410.107,504.909,410.107z"/>
	<path display="inline" fill-rule="evenodd" clip-rule="evenodd" d="M362.157,504.894c-3.671,0-7.35,0.17-11.009-0.036
		c-7.031-0.397-11.979-5.153-12.212-11.47c-0.235-6.377,4.341-11.515,11.549-11.917c7.894-0.442,15.843-0.445,23.742-0.069
		c7.097,0.338,11.799,5.529,11.671,11.903c-0.122,6.057-4.743,10.847-11.581,11.46c-4.022,0.36-8.104,0.065-12.16,0.065
		C362.157,504.852,362.157,504.872,362.157,504.894z"/>
	<path display="inline" fill-rule="evenodd" clip-rule="evenodd" d="M29.514,29.633c-3.848,0-7.718,0.266-11.538-0.057
		c-7.055-0.598-11.884-5.62-11.792-11.823c0.087-5.896,4.823-11.104,11.513-11.487c8.057-0.463,16.175-0.457,24.234-0.048
		c6.596,0.336,11.301,5.519,11.49,11.536c0.186,5.895-4.493,11.035-11.225,11.697c-4.189,0.412-8.452,0.077-12.683,0.077
		C29.514,29.563,29.514,29.598,29.514,29.633z"/>
	<path display="inline" fill-rule="evenodd" clip-rule="evenodd" d="M172.35,29.72c-3.674,0-7.355,0.165-11.019-0.034
		c-7.429-0.406-12.508-5.277-12.543-11.781c-0.033-6.349,5.169-11.478,12.55-11.752c7.529-0.279,15.087-0.308,22.613,0.016
		c6.968,0.302,11.901,5.437,12.001,11.73c0.095,5.958-4.606,10.95-11.439,11.591c-4.021,0.378-8.106,0.069-12.163,0.069
		C172.35,29.612,172.35,29.666,172.35,29.72z"/>
	<path display="inline" fill-rule="evenodd" clip-rule="evenodd" d="M314.087,29.707c-3.478,0-6.967,0.182-10.431-0.037
		c-7.456-0.472-12.399-5.409-12.27-11.992c0.124-6.235,5.015-11.185,12.156-11.494c7.714-0.336,15.468-0.363,23.179,0.009
		c6.917,0.333,11.857,5.71,11.787,11.94c-0.066,5.921-4.855,10.815-11.681,11.393c-4.219,0.356-8.491,0.066-12.741,0.066
		C314.087,29.63,314.087,29.669,314.087,29.707z"/>
	<path display="inline" fill-rule="evenodd" clip-rule="evenodd" d="M504.902,53.739c0,3.67,0.163,7.348-0.035,11.007
		c-0.386,7.113-5.025,11.989-11.404,12.255c-6.411,0.268-11.551-4.248-11.97-11.465c-0.46-7.891-0.462-15.84-0.099-23.736
		c0.327-7.144,5.416-11.786,11.857-11.711c6.095,0.07,10.867,4.61,11.509,11.493c0.375,4.02,0.068,8.104,0.068,12.157
		C504.854,53.739,504.878,53.739,504.902,53.739z"/>
	<path display="inline" fill-rule="evenodd" clip-rule="evenodd" d="M5.771,148.385c0.32-4.793,0.139-9.687,1.087-14.353
		c1.206-5.934,6.204-9.295,11.785-8.924c5.328,0.352,10.168,4.17,10.521,9.777c0.569,9.025,0.682,18.142,0.085,27.16
		c-0.407,6.164-5.729,10.096-11.505,10.016c-5.499-0.074-9.901-3.896-11.262-9.787c-0.129-0.563-0.307-1.135-0.31-1.704
		c-0.027-4.055-0.015-8.11-0.015-12.166C6.029,148.397,5.9,148.392,5.771,148.385z"/>
	<path display="inline" fill-rule="evenodd" clip-rule="evenodd" d="M433.34,505.229c-4.771-0.337-9.646-0.181-14.288-1.136
		c-5.803-1.193-9.388-6.447-8.981-11.744c0.402-5.239,4.291-10.146,9.803-10.507c8.991-0.589,18.069-0.695,27.061-0.162
		c6.084,0.361,10.209,5.617,10.322,11.261c0.109,5.487-3.986,10.635-10.092,11.478c-4.52,0.624-9.196,0.122-13.803,0.122
		C433.354,504.771,433.347,504.999,433.34,505.229z"/>
	<path display="inline" fill-rule="evenodd" clip-rule="evenodd" d="M100.772,29.661c-3.861,0-7.745,0.26-11.58-0.057
		c-6.898-0.572-11.396-5.187-11.585-11.422c-0.186-6.068,4.271-11.428,11.045-11.866c8.269-0.535,16.619-0.532,24.893-0.048
		c6.596,0.385,11.186,5.921,11.022,11.954c-0.161,5.97-4.438,10.571-11.068,11.22c-4.204,0.41-8.481,0.075-12.726,0.075
		C100.773,29.565,100.772,29.613,100.772,29.661z"/>
	<path display="inline" fill-rule="evenodd" clip-rule="evenodd" d="M504.908,481.518c0,3.465,0.114,6.933-0.023,10.391
		c-0.291,7.32-4.94,12.47-11.431,12.846c-6.287,0.365-11.678-4.704-12.039-12.097c-0.376-7.679-0.372-15.399-0.032-23.08
		c0.31-7.025,5.363-11.908,11.606-12.023c6.04-0.112,11.214,4.88,11.8,11.847c0.338,4.013,0.062,8.077,0.062,12.117
		C504.87,481.518,504.889,481.518,504.908,481.518z"/>
	<path fill-rule="evenodd" clip-rule="evenodd" fill="#FFFFFF" d="M63.243,267.869c61.354,0,122.291,0,183.659,0
		c0,61.155,0,122.203,0,183.746c-60.99,0-122.147,0-183.659,0C63.243,390.515,63.243,329.487,63.243,267.869z"/>
</g>
<g display="none">
	<path fill-rule="evenodd" clip-rule="evenodd" fill="#FFFFFF" d="M513.5,350.5c0,54.333,0,108.667,0,163c-171,0-342,0-513,0
		c0-171,0-342,0-513c171,0,342,0,513,0c0,104.667,0,209.333,0,314c-0.332-1.605-0.816-3.195-0.973-4.817
		c-4.785-49.621-27.529-89.044-67.454-118.661c-25.093-18.615-53.235-30.628-83.37-38.364c-2.859-0.734-5.824-2.46-7.923-4.547
		c-36.515-36.314-72.901-72.758-109.316-109.173c-1.061-1.061-2.068-2.184-3.204-3.157c-5.213-4.465-10.532-4.437-15.647,0.107
		c-1.492,1.325-2.663,3.074-4.291,4.167c-1.665,1.117-3.69,2.308-5.593,2.367c-22.017,0.687-43.913,2.507-65.473,7.156
		c-23.275,5.019-45.627,12.318-64.633,27.489C65.938,92.78,58.6,115.331,65.488,139.53c3.86,13.561,11.986,24.316,22.626,33.655
		c-1.271,1.344-2.374,2.565-3.535,3.728c-13.075,13.088-26.213,26.111-39.229,39.257c-31.104,31.415-31.407,78.364-0.325,109.765
		c37.518,37.902,75.36,75.483,113.076,113.19c9.729,9.727,21.07,16.915,34.449,20.301c29.695,7.516,55.263-0.135,76.819-21.689
		c50.204-50.201,100.405-100.406,150.56-150.657c1.388-1.39,2.226-3.327,3.963-5.996c4.033,4.804,7.121,7.808,9.407,11.332
		c6.922,10.673,10.684,22.719,12.035,35.145c2.049,18.849,2.865,37.832,4.226,56.756c1.011,14.042,2.947,27.861,10.793,40.039
		c8.581,13.319,23.055,14.953,33.133,3.661c2.407-2.698,4.435-5.853,6.103-9.073c6.529-12.611,9.085-26.361,10.865-40.265
		C511.652,369.309,512.497,359.895,513.5,350.5z"/>
	<path display="inline" fill-rule="evenodd" clip-rule="evenodd" d="M501,358.5c-1.003,9.395-1.848,18.809-3.047,28.178
		c-1.78,13.903-4.336,27.653-10.865,40.265c-1.668,3.221-3.695,6.375-6.103,9.073c-10.078,11.292-24.552,9.658-33.133-3.661
		c-7.846-12.178-9.782-25.997-10.793-40.039c-1.36-18.924-2.177-37.907-4.226-56.756c-1.352-12.426-5.113-24.472-12.035-35.145
		c-2.286-3.524-5.374-6.528-9.407-11.332c-1.737,2.669-2.575,4.606-3.963,5.996c-50.154,50.251-100.355,100.456-150.56,150.657
		c-21.556,21.555-47.124,29.205-76.819,21.689c-13.379-3.386-24.719-10.574-34.449-20.301
		c-37.716-37.707-75.559-75.288-113.076-113.19c-31.082-31.4-30.779-78.35,0.325-109.765c13.016-13.146,26.154-26.169,39.229-39.257
		c1.161-1.162,2.264-2.384,3.535-3.728c-10.64-9.339-18.767-20.095-22.626-33.655c-6.888-24.199,0.451-46.75,20.136-62.463
		c19.006-15.171,41.358-22.471,64.633-27.489c21.561-4.649,43.456-6.47,65.473-7.156c1.902-0.06,3.928-1.25,5.593-2.367
		c1.628-1.093,2.798-2.842,4.291-4.167c5.116-4.544,10.434-4.572,15.647-0.107c1.136,0.974,2.143,2.097,3.204,3.157
		c36.415,36.415,72.801,72.858,109.316,109.173c2.099,2.087,5.063,3.813,7.923,4.547c30.135,7.736,58.277,19.749,83.37,38.364
		c39.925,29.617,62.669,69.04,67.454,118.661c0.156,1.622,0.641,3.212,0.973,4.817C501,334.5,501,346.5,501,358.5z M108.308,177.867
		c4.164,1.87,7.583,3.578,11.127,4.97c37.107,14.564,76.021,19.073,115.46,20.452c1.725,0.061,3.879-1.436,5.218-2.808
		c8.22-8.417,21.439-8.786,29.58-0.633c8.18,8.192,7.861,21.688-0.697,29.502c-8.575,7.828-21.916,7.063-29.332-2.043
		c-2.063-2.534-4.229-3.13-7.169-3.366c-17.257-1.387-34.574-2.37-51.733-4.563c-29.187-3.73-57.597-10.648-83.971-24.241
		c-3.079-1.588-4.722-1.454-7.159,1.03c-13.771,14.036-27.793,27.827-41.644,41.787c-24.079,24.27-24.213,58.247-0.153,82.412
		c37.039,37.202,74.133,74.349,111.442,111.278c5.007,4.956,10.944,9.443,17.239,12.544c22.039,10.856,46.745,6.089,65.096-12.213
		c52.629-52.486,105.133-105.097,157.711-157.634c5.059-5.056,10.292-9.937,15.088-14.554
		C349.997,195.374,286.049,131.427,221.92,67.299c-3.046,2.08-7.167,4.07-10.237,7.117c-33.236,32.99-66.309,66.145-99.42,99.261
		C111.106,174.833,110.015,176.054,108.308,177.867z M426.426,275.432c10.735,11.063,15.007,17.777,19.723,30.341
		c7.592,20.227,9.658,41.394,10.797,62.729c0.62,11.634,1.005,23.294,2.096,34.886c0.61,6.49,2.306,12.919,6.982,18.741
		c5.082-6.909,7.12-14.43,8.832-22.005c4.803-21.259,5.59-42.91,5.563-64.577c-0.028-22.736-4.178-44.689-14-65.382
		c-13.074-27.544-33.729-48.08-59.506-63.668c-9.282-5.612-19.147-10.261-28.747-15.349c-0.4,0.57-0.801,1.142-1.202,1.713
		c1.442,1.135,3.015,2.138,4.306,3.423c17.824,17.764,35.629,35.547,53.393,53.371c6.253,6.274,6.258,11.864,0.04,18.173
		C432.137,270.43,429.321,272.786,426.426,275.432z M89.38,165.289c31.292-31.278,62.292-62.262,93.563-93.518
		c-11.333,1.567-22.896,2.809-34.321,4.825c-19.756,3.488-38.957,8.835-56.039,19.9c-8.804,5.703-16.408,12.606-19.77,22.998
		C67.576,135.685,74.677,154.486,89.38,165.289z"/>
	<path fill-rule="evenodd" clip-rule="evenodd" fill="#FFFFFF" d="M120.808,169.867c1.708-1.813,2.799-3.034,3.955-4.19
		c33.111-33.116,66.184-66.271,99.42-99.261c3.07-3.047,7.19-5.037,10.237-7.117c64.129,64.128,128.077,128.075,192.492,192.489
		c-4.796,4.617-10.029,9.498-15.088,14.554c-52.578,52.537-105.082,105.147-157.711,157.634
		c-18.352,18.302-43.058,23.069-65.096,12.213c-6.295-3.101-12.232-7.588-17.239-12.544
		c-37.309-36.93-74.403-74.076-111.442-111.278c-24.06-24.165-23.926-58.143,0.153-82.412c13.85-13.96,27.872-27.751,41.644-41.787
		c2.437-2.484,4.08-2.618,7.159-1.03c26.374,13.593,54.784,20.511,83.971,24.241c17.159,2.193,34.476,3.177,51.733,4.563
		c2.94,0.236,5.106,0.832,7.169,3.366c7.416,9.106,20.756,9.871,29.332,2.043c8.559-7.813,8.877-21.31,0.697-29.502
		c-8.141-8.153-21.359-7.784-29.58,0.633c-1.339,1.372-3.494,2.868-5.218,2.808c-39.439-1.379-78.353-5.888-115.46-20.452
		C128.391,173.445,124.972,171.737,120.808,169.867z"/>
	<path fill-rule="evenodd" clip-rule="evenodd" fill="#FFFFFF" d="M438.926,267.432c2.896-2.646,5.711-5.002,8.275-7.604
		c6.218-6.309,6.213-11.898-0.04-18.173c-17.764-17.824-35.568-35.607-53.393-53.371c-1.291-1.285-2.863-2.288-4.306-3.423
		c0.401-0.571,0.802-1.143,1.202-1.713c9.6,5.088,19.465,9.736,28.747,15.349c25.777,15.588,46.432,36.124,59.506,63.668
		c9.822,20.692,13.972,42.646,14,65.382c0.027,21.667-0.76,43.318-5.563,64.577c-1.712,7.575-3.75,15.096-8.832,22.005
		c-4.677-5.822-6.372-12.251-6.982-18.741c-1.091-11.592-1.476-23.252-2.096-34.886c-1.139-21.335-3.205-42.502-10.797-62.729
		C453.933,285.209,449.661,278.494,438.926,267.432z"/>
	<path fill-rule="evenodd" clip-rule="evenodd" fill="#FFFFFF" d="M101.88,157.289c-14.703-10.803-21.805-29.604-16.567-45.794
		c3.362-10.392,10.965-17.295,19.77-22.998c17.083-11.065,36.283-16.412,56.039-19.9c11.425-2.017,22.988-3.258,34.321-4.825
		C164.172,95.027,133.173,126.011,101.88,157.289z"/>
</g>
<g display="none">
	<path fill-rule="evenodd" clip-rule="evenodd" fill="#FFFFFF" d="M0.5,0.5c171,0,342,0,513,0c0,171,0,342,0,513c-171,0-342,0-513,0
		C0.5,342.5,0.5,171.5,0.5,0.5z M83.499,99.54c0.429-0.226,0.857-0.451,1.286-0.677c1.186,1.379,2.287,2.843,3.569,4.126
		c39.328,39.358,78.666,78.707,118.042,118.016c1.743,1.74,3.689,3.436,5.846,4.571c6.383,3.359,14.654-1.386,14.016-8.478
		c-0.321-3.562-2.394-7.644-4.952-10.223c-39.417-39.739-79.047-79.269-118.618-118.854c-1.229-1.229-2.358-2.558-4.16-4.522
		c16.268,0,31.543,0,46.82,0c12.994-0.001,25.988,0.084,38.98-0.032c8.488-0.075,13.38-6.213,11.094-13.591
		c-1.399-4.518-5.942-7.244-12.404-7.248c-38.648-0.022-77.296-0.015-115.943,0.002c-1.288,0-2.576,0.19-4.115,0.312
		c-0.131,1.195-0.327,2.15-0.328,3.105c-0.017,39.147-0.058,78.295,0.077,117.442c0.009,2.685,0.773,5.727,2.188,7.971
		c2.656,4.213,6.898,5.415,11.726,3.94c4.211-1.285,6.84-5.406,6.856-11.019c0.048-17.491,0.018-34.983,0.018-52.475
		C83.499,121.118,83.499,110.329,83.499,99.54z M415.486,83.499c0.247,0.475,0.494,0.95,0.742,1.426
		c-1.425,1.153-2.968,2.189-4.258,3.479c-39.245,39.205-78.471,78.43-117.672,117.678c-1.633,1.635-3.254,3.377-4.449,5.332
		c-3.098,5.063-1.307,11.176,3.892,14.039c4.552,2.507,9.123,1.331,14.184-3.729c39.702-39.69,79.395-79.392,119.099-119.08
		c1.221-1.221,2.538-2.344,4.478-4.126c0,17.983,0,34.938,0,51.893c0,11.327-0.093,22.656,0.033,33.982
		c0.094,8.466,6.289,13.354,13.652,11.021c4.45-1.409,7.183-6.032,7.187-12.458c0.021-38.647,0.014-77.295-0.003-115.942
		c-0.001-1.284-0.202-2.567-0.355-4.397c-2.054,0-3.838,0-5.623,0c-37.648,0-75.297-0.056-112.944,0.096
		c-3.346,0.014-7.093,0.658-9.936,2.272c-4.322,2.456-5.383,6.893-3.901,11.701c1.285,4.174,5.458,6.788,11.07,6.796
		c26.32,0.037,52.642,0.018,78.962,0.018C411.59,83.499,413.538,83.499,415.486,83.499z M85.12,416.522
		c-0.54-0.368-1.081-0.737-1.621-1.105c0-19.806,0-39.61,0-59.416c0-8.662,0.162-17.329-0.054-25.985
		c-0.202-8.079-6.568-12.755-13.724-10.415c-4.432,1.449-7.092,6.046-7.096,12.536c-0.018,38.481-0.013,76.963,0.005,115.443
		c0,1.441,0.205,2.884,0.352,4.804c10.46,0,20.584,0,30.708,0c29.485,0,58.971-0.012,88.457,0.011
		c5.236,0.004,10.082-0.96,12.758-6.016c3.841-7.258-1.588-14.83-10.678-14.854c-26.487-0.067-52.974-0.024-79.461-0.024
		c-1.764,0-3.527,0-6.29,0c1.898-2.04,3.051-3.359,4.287-4.597c39.336-39.35,78.686-78.686,118.005-118.052
		c1.632-1.634,3.243-3.386,4.434-5.344c2.951-4.851,1.275-10.885-3.588-13.764c-4.724-2.796-9.316-1.689-14.603,3.596
		c-39.584,39.572-79.167,79.146-118.713,118.758C87.032,413.367,86.17,415.039,85.12,416.522z M431.501,416.557
		c-2.068-1.939-3.39-3.112-4.637-4.358c-39.35-39.338-78.686-78.688-118.053-118.006c-1.633-1.632-3.39-3.239-5.351-4.425
		c-4.85-2.93-10.881-1.218-13.747,3.667c-2.772,4.723-1.651,9.274,3.667,14.595c39.691,39.702,79.392,79.396,119.083,119.098
		c1.198,1.198,2.334,2.46,4.144,4.374c-22.362,0-43.512,0-64.661,0c-7.329,0.001-14.664-0.169-21.987,0.053
		c-8.066,0.245-12.729,6.64-10.351,13.781c1.475,4.424,6.049,7.037,12.585,7.04c38.481,0.018,76.962,0.013,115.443-0.006
		c1.438,0,2.874-0.213,4.747-0.36c0-13.664,0-26.957,0-40.251c0-26.32-0.013-52.641,0.011-78.961
		c0.005-5.244-0.984-10.083-6.065-12.729c-7.286-3.793-14.783,1.649-14.805,10.763c-0.063,26.487-0.023,52.975-0.023,79.462
		C431.501,412.045,431.501,413.798,431.501,416.557z"/>
	<path display="inline" fill-rule="evenodd" clip-rule="evenodd" d="M29.297,50.152c0,14.025,0,28.051-0.001,42.077
		c0,22.738,0.039,45.479-0.023,68.217c-0.021,7.296-3.438,12.653-8.913,14.324c-6.276,1.917-11.79,0.354-15.243-5.123
		c-1.839-2.917-2.833-6.872-2.845-10.361C2.097,108.395,2.151,57.503,2.172,6.61c0.001-1.241,0.256-2.482,0.426-4.037
		c2-0.157,3.675-0.404,5.35-0.404c50.241-0.021,100.483-0.032,150.726-0.003c8.401,0.005,14.306,3.55,16.125,9.423
		c2.973,9.591-3.387,17.57-14.422,17.668c-16.89,0.151-33.782,0.04-50.674,0.042c-19.859,0-39.719,0-60.866,0
		c2.343,2.554,3.811,4.28,5.407,5.879c51.442,51.462,102.961,102.85,154.203,154.511c3.326,3.353,6.021,8.659,6.438,13.29
		c0.83,9.219-9.923,15.388-18.221,11.021c-2.805-1.477-5.334-3.681-7.601-5.942C137.875,156.955,86.736,105.802,35.609,54.636
		c-1.667-1.668-3.099-3.571-4.64-5.363C30.412,49.565,29.854,49.858,29.297,50.152z"/>
	<path display="inline" fill-rule="evenodd" clip-rule="evenodd" d="M460.881,29.299c-2.533,0-5.066,0-7.598,0
		c-34.217,0-68.434,0.025-102.65-0.023c-7.295-0.01-12.721-3.408-14.391-8.834c-1.926-6.252-0.547-12.019,5.072-15.212
		c3.695-2.099,8.566-2.937,12.916-2.954c48.941-0.197,97.885-0.124,146.826-0.124c2.322,0,4.641,0,7.311,0
		c0.199,2.379,0.461,4.047,0.463,5.716c0.021,50.242,0.029,100.483,0.004,150.726c-0.006,8.354-3.559,14.363-9.344,16.195
		c-9.572,3.031-17.625-3.322-17.748-14.328c-0.164-14.724-0.043-29.451-0.043-44.177c0-22.042,0-44.082,0-67.461
		c-2.521,2.317-4.234,3.777-5.82,5.364c-51.615,51.595-103.215,103.206-154.828,154.804c-6.578,6.578-12.521,8.106-18.439,4.848
		c-6.758-3.723-9.086-11.669-5.059-18.251c1.555-2.542,3.662-4.807,5.783-6.932c50.963-51.022,101.955-102.015,152.975-152.981
		c1.676-1.676,3.682-3.022,5.535-4.521C461.523,30.534,461.201,29.916,460.881,29.299z"/>
	<path display="inline" fill-rule="evenodd" clip-rule="evenodd" d="M31.404,462.229c1.365-1.928,2.485-4.102,4.132-5.751
		c51.409-51.494,102.867-102.94,154.327-154.385c6.872-6.871,12.842-8.309,18.982-4.675c6.322,3.743,8.501,11.588,4.665,17.894
		c-1.549,2.545-3.643,4.822-5.764,6.946c-51.115,51.177-102.27,102.313-153.407,153.468c-1.607,1.608-3.106,3.323-5.573,5.976
		c3.592,0,5.884,0,8.177,0c34.433,0,68.866-0.056,103.299,0.031c11.817,0.031,18.875,9.875,13.882,19.31
		c-3.479,6.572-9.778,7.826-16.585,7.82c-38.331-0.029-76.663-0.014-114.994-0.014c-13.16,0-26.321,0-39.92,0
		c-0.19-2.496-0.456-4.371-0.457-6.245c-0.022-50.024-0.029-100.05-0.006-150.076c0.004-8.438,3.463-14.413,9.225-16.297
		c9.302-3.042,17.578,3.037,17.841,13.54c0.279,11.253,0.068,22.52,0.069,33.78c0.001,25.748,0.001,51.494,0.001,77.241
		C30,461.271,30.702,461.75,31.404,462.229z"/>
	<path display="inline" fill-rule="evenodd" clip-rule="evenodd" d="M481.699,462.273c0-3.587,0-5.865,0-8.143
		c0-34.434-0.051-68.867,0.031-103.301c0.027-11.848,9.773-18.922,19.246-13.991c6.605,3.438,7.891,9.729,7.885,16.547
		c-0.031,34.217-0.014,68.433-0.014,102.649c0,17.282,0,34.563,0,52.326c-2.436,0.191-4.303,0.469-6.172,0.469
		c-50.025,0.023-100.051,0.03-150.076,0.007c-8.496-0.004-14.443-3.4-16.361-9.151c-3.092-9.284,2.971-17.598,13.457-17.916
		c9.52-0.288,19.055-0.067,28.584-0.068c27.494,0,54.988,0,84.059,0c-2.352-2.488-3.828-4.129-5.387-5.687
		c-51.6-51.612-103.209-103.214-154.809-154.827c-6.912-6.916-8.371-12.833-4.766-18.973c3.725-6.351,11.566-8.576,17.871-4.768
		c2.549,1.542,4.832,3.631,6.955,5.753c51.178,51.113,102.314,102.268,153.469,153.407
		C477.293,458.228,479.01,459.752,481.699,462.273z"/>
</g>
<g display="none">
	<path fill-rule="evenodd" clip-rule="evenodd" fill="#FFFFFF" d="M0.5,0.5c171,0,342,0,513,0c0,171,0,342,0,513c-171,0-342,0-513,0
		C0.5,342.5,0.5,171.5,0.5,0.5z M259.578,451.885c-0.248-0.542-0.496-1.083-0.744-1.625c1.412-1.15,2.945-2.181,4.221-3.468
		c73.168-73.874,146.322-147.762,219.459-221.667c14.018-14.164,14.285-32.65,0.485-46.627
		c-41.443-41.974-82.933-83.903-124.501-125.753c-13.902-13.996-32.216-14.071-46.092-0.073
		C222.314,143.556,132.284,234.501,42.298,325.49c-13.771,13.925-13.699,32.401,0.003,46.289
		c31.479,31.909,63.06,63.717,94.568,95.597c3.445,3.484,7.272,5.295,12.37,5.289c89.644-0.1,179.289-0.066,268.934-0.107
		c2.13-0.001,4.354-0.229,6.372-0.865c6.82-2.149,9.063-10.154,4.593-15.728c-3.087-3.847-7.362-4.083-11.76-4.082
		c-50.655,0.004-101.31,0.002-151.965,0.002C263.468,451.885,261.523,451.885,259.578,451.885z"/>
	<path display="inline" fill-rule="evenodd" clip-rule="evenodd" d="M252.427,459.606c2.043,0,4.084,0,6.127,0
		c53.188,0,106.375,0.003,159.563-0.002c4.617-0.001,9.106,0.247,12.348,4.286c4.694,5.853,2.339,14.258-4.823,16.515
		c-2.119,0.668-4.454,0.907-6.69,0.908c-94.127,0.043-188.254,0.008-282.38,0.112c-5.353,0.007-9.371-1.895-12.988-5.553
		c-33.084-33.475-66.244-66.872-99.297-100.377c-14.387-14.582-14.464-33.982-0.004-48.604
		C118.769,231.354,213.3,135.861,307.896,40.434c14.569-14.698,33.799-14.619,48.396,0.077
		c43.646,43.941,87.21,87.968,130.726,132.04c14.49,14.676,14.209,34.086-0.51,48.958
		c-76.793,77.601-153.605,155.183-230.432,232.751c-1.339,1.352-2.949,2.433-4.432,3.641
		C251.906,458.47,252.167,459.038,252.427,459.606z M328.87,349.667c-51.726-48.145-102.982-95.853-154.289-143.606
		c-0.893,0.835-1.548,1.407-2.159,2.025c-43.924,44.372-87.854,88.737-131.755,133.134c-7.197,7.278-7.106,12.791,0.216,20.194
		c31.239,31.582,62.529,63.113,93.693,94.771c2.578,2.618,5.191,3.519,8.757,3.486c23.955-0.218,47.912-0.337,71.868-0.26
		c3.812,0.013,6.45-1.086,9.128-3.806c33.5-34.019,67.122-67.918,100.706-101.854C326.25,352.524,327.401,351.234,328.87,349.667z
		 M197.107,197.229c5.849-6.639,12.122-7.785,17.113-3.449c5.138,4.464,4.645,10.789-1.595,17.981
		c5.83,5.436,11.666,10.879,17.456,16.276c6.706-5.558,12.081-6.044,16.656-1.782c4.52,4.21,4.4,9.609-0.597,16.695
		c5.685,5.299,11.408,10.637,17.24,16.073c5.226-3.793,10.531-5.094,15.485-0.527c5.091,4.689,4.032,10.217,0.689,15.569
		c5.273,4.902,10.185,9.637,15.327,14.102c0.977,0.849,3.117,1.258,4.307,0.798c4.344-1.682,8.291-1.387,11.796,1.619
		c3.57,3.062,3.912,7.064,3.141,11.514c-0.284,1.639,0.21,4.039,1.302,5.177c4.111,4.285,8.546,8.272,13.022,12.185
		c0.975,0.851,2.688,1.44,3.952,1.28c9.036-1.145,12.081,0.778,15.25,10.998c3.684-4.009,6.812-7.758,10.308-11.124
		c3.625-3.492,7.606-6.615,12.183-10.542c-9.156-2.759-12.41-6.41-12.172-12.003c0.209-4.893,3.815-9.083,8.552-9.936
		c5.969-1.073,9.559,1.598,12.594,8.392c6.577-6.317,13.562-13.026,20.394-19.589c-6.087-1.82-9.643-5.867-9.407-11.043
		c0.218-4.833,3.665-9.311,8.607-9.834c2.707-0.286,6.08,0.408,8.262,1.933c2.303,1.61,3.548,4.735,5.267,7.214
		c6.028-5.936,12.127-11.93,18.206-17.944c0.576-0.57,1.022-1.272,1.569-1.965c-7.593-3.666-10.308-7.443-9.452-12.893
		c0.759-4.825,4.677-8.475,9.616-8.958c5.312-0.521,9.142,2.541,11.401,8.29c6.392-6.251,13.146-12.856,19.812-19.375
		c-4.612-1.41-8.282-4.285-8.585-10.027c-0.236-4.439,1.606-7.916,5.566-9.899c6.24-3.127,11.047-0.289,15.779,4.098
		c-1.686-3.976-3.591-7.675-6.379-10.502c-42.266-42.853-84.643-85.594-127.004-128.353c-8.505-8.586-12.915-8.562-21.499,0.105
		c-42.724,43.138-85.439,86.283-128.153,129.431c-1.097,1.108-2.147,2.266-3.318,3.504c1.292,1.141,2.442,2.15,3.586,3.168
		C194.551,194.924,195.709,195.972,197.107,197.229z"/>
	<path fill-rule="evenodd" clip-rule="evenodd" fill="#FFFFFF" d="M332.381,347.18c-1.398,1.493-2.495,2.722-3.652,3.89
		c-31.984,32.32-64.006,64.605-95.91,97.005c-2.551,2.59-5.063,3.636-8.693,3.624c-22.815-0.073-45.631,0.04-68.446,0.247
		c-3.396,0.031-5.884-0.826-8.339-3.32c-29.68-30.149-59.48-60.179-89.231-90.257c-6.974-7.051-7.06-12.302-0.206-19.233
		c41.81-42.282,83.649-84.535,125.481-126.794c0.582-0.589,1.207-1.134,2.057-1.929C234.303,255.892,283.119,301.328,332.381,347.18
		z"/>
	<path fill-rule="evenodd" clip-rule="evenodd" fill="#FFFFFF" d="M206.893,202.001c-1.333-1.197-2.435-2.195-3.546-3.185
		c-1.088-0.97-2.185-1.932-3.415-3.018c1.116-1.18,2.116-2.281,3.161-3.337c40.68-41.093,81.361-82.184,122.051-123.268
		c8.175-8.254,12.375-8.277,20.476-0.101c40.344,40.723,80.703,81.429,120.956,122.241c2.655,2.692,4.47,6.215,6.075,10.002
		c-4.508-4.179-9.085-6.881-15.028-3.903c-3.771,1.89-5.526,5.2-5.302,9.429c0.289,5.469,3.784,8.206,8.177,9.55
		c-6.348,6.208-12.781,12.499-18.868,18.452c-2.152-5.476-5.8-8.391-10.858-7.896c-4.704,0.461-8.436,3.937-9.158,8.531
		c-0.815,5.19,1.771,8.787,9.002,12.279c-0.521,0.659-0.946,1.328-1.495,1.871c-5.789,5.729-11.598,11.437-17.339,17.09
		c-1.637-2.36-2.822-5.337-5.016-6.87c-2.078-1.452-5.29-2.113-7.868-1.841c-4.707,0.498-7.99,4.763-8.198,9.365
		c-0.224,4.93,3.163,8.784,8.96,10.518c-6.507,6.25-13.159,12.64-19.423,18.656c-2.891-6.471-6.31-9.015-11.994-7.992
		c-4.511,0.812-7.945,4.803-8.145,9.462c-0.227,5.327,2.872,8.805,11.593,11.432c-4.358,3.74-8.15,6.714-11.603,10.04
		c-3.33,3.206-6.309,6.776-9.817,10.595c-3.018-9.733-5.918-11.564-14.523-10.475c-1.203,0.152-2.836-0.409-3.764-1.22
		c-4.264-3.726-8.487-7.522-12.402-11.604c-1.04-1.084-1.511-3.37-1.24-4.931c0.735-4.237,0.409-8.05-2.991-10.966
		c-3.338-2.862-7.097-3.144-11.233-1.542c-1.133,0.438-3.172,0.049-4.102-0.76c-4.898-4.252-9.575-8.761-14.598-13.43
		c3.184-5.098,4.191-10.362-0.656-14.828c-4.719-4.349-9.771-3.11-14.748,0.502c-5.555-5.178-11.006-10.261-16.419-15.308
		c4.759-6.748,4.873-11.891,0.568-15.9c-4.357-4.059-9.477-3.596-15.863,1.697c-5.514-5.141-11.072-10.324-16.624-15.501
		c5.941-6.85,6.411-12.874,1.519-17.125C218.438,194.586,212.463,195.678,206.893,202.001z M339.476,93.511
		c5.547-0.03,10.137-4.725,10.037-10.265c-0.101-5.572-4.767-10-10.392-9.86c-5.433,0.135-9.706,4.51-9.731,9.966
		C329.363,88.985,333.887,93.541,339.476,93.511z M318.717,175.633c0.026-5.631-4.499-10.18-10.091-10.146
		c-5.519,0.034-10.185,4.799-10.069,10.282c0.112,5.33,4.578,9.744,9.951,9.835C314.197,185.701,318.689,181.313,318.717,175.633z
		 M431.677,185.61c5.649-0.04,10.051-4.589,9.928-10.259c-0.117-5.414-4.493-9.783-9.879-9.864
		c-5.54-0.083-10.223,4.521-10.236,10.065C421.476,181.132,426.053,185.651,431.677,185.61z M339.46,196.285
		c-5.688-0.02-10.118,4.43-10.067,10.114c0.047,5.378,4.412,9.877,9.746,10.045c5.481,0.173,10.285-4.447,10.372-9.978
		C349.599,200.872,345.089,196.305,339.46,196.285z M318.72,114.324c0.092-5.668-4.346-10.231-9.971-10.256
		c-5.532-0.024-10.253,4.672-10.2,10.146c0.051,5.238,4.58,9.88,9.846,10.088C313.822,124.518,318.63,119.871,318.72,114.324z
		 M339.276,154.929c5.562,0.074,10.241-4.518,10.245-10.054c0.004-5.486-4.778-10.262-10.206-10.193
		c-5.275,0.067-9.788,4.571-9.922,9.902C329.252,150.253,333.646,154.854,339.276,154.929z M237.251,175.392
		c-0.098,5.699,4.284,10.199,9.957,10.225c5.55,0.024,10.259-4.634,10.21-10.102c-0.048-5.299-4.516-9.847-9.843-10.02
		C241.986,165.314,237.349,169.76,237.251,175.392z M380.319,175.742c0.11-5.422-4.642-10.23-10.137-10.26
		c-5.357-0.028-9.859,4.293-10.091,9.686c-0.24,5.597,4.168,10.313,9.769,10.45C375.402,185.754,380.208,181.216,380.319,175.742z
		 M288.127,206.365c0.046-5.526-4.613-10.136-10.211-10.104c-5.366,0.03-9.896,4.396-10.098,9.73
		c-0.203,5.379,4.527,10.342,9.973,10.461C283.217,216.571,288.082,211.822,288.127,206.365z M400.708,196.277
		c-5.549,0.075-10.205,4.862-10.013,10.295c0.187,5.268,4.809,9.808,10.057,9.877c5.479,0.073,10.184-4.627,10.178-10.165
		C410.924,200.663,406.366,196.202,400.708,196.277z M318.735,236.913c-0.051-5.565-4.789-10.192-10.271-10.029
		c-5.29,0.157-9.837,4.739-9.923,9.997c-0.087,5.412,4.713,10.288,10.141,10.302C314.195,247.197,318.786,242.507,318.735,236.913z
		 M339.26,277.757c5.658,0.073,10.234-4.381,10.257-9.983c0.022-5.491-4.727-10.246-10.181-10.193
		c-5.311,0.051-9.797,4.504-9.938,9.863C329.248,273.139,333.595,277.684,339.26,277.757z M380.334,113.944
		c-0.131-5.459-5.017-10.053-10.508-9.88c-5.57,0.176-9.991,4.96-9.726,10.525c0.257,5.359,4.867,9.798,10.114,9.735
		C375.592,124.263,380.461,119.267,380.334,113.944z M288.162,144.938c0.044-5.363-4.873-10.305-10.225-10.275
		c-5.379,0.029-10.246,5.002-10.144,10.362c0.101,5.261,4.669,9.799,9.979,9.913C283.279,155.057,288.117,150.399,288.162,144.938z
		 M410.939,144.74c-0.075-5.518-4.917-10.233-10.321-10.052c-5.232,0.175-9.837,4.825-9.938,10.036
		c-0.106,5.408,4.67,10.213,10.166,10.228C406.361,154.967,411.015,150.26,410.939,144.74z M370.315,247.181
		c5.444-0.129,10.206-5.111,9.997-10.458c-0.216-5.479-5.195-10.104-10.59-9.832c-5.336,0.269-9.711,4.869-9.684,10.18
		C360.068,242.561,364.896,247.309,370.315,247.181z"/>
	<path display="inline" fill-rule="evenodd" clip-rule="evenodd" d="M336.319,83.314c-5.868,0.031-10.618-4.752-10.59-10.667
		c0.026-5.729,4.514-10.323,10.218-10.465c5.906-0.146,10.806,4.503,10.911,10.354C346.963,78.354,342.144,83.282,336.319,83.314z"
		/>
	<path display="inline" fill-rule="evenodd" clip-rule="evenodd" d="M314.522,169.542c-0.028,5.964-4.745,10.572-10.72,10.471
		c-5.642-0.096-10.33-4.73-10.448-10.327c-0.121-5.757,4.778-10.76,10.572-10.796C309.799,158.854,314.55,163.63,314.522,169.542z"
		/>
	<path display="inline" fill-rule="evenodd" clip-rule="evenodd" d="M433.131,180.019c-5.905,0.043-10.712-4.702-10.697-10.561
		c0.015-5.822,4.931-10.655,10.748-10.568c5.655,0.085,10.25,4.673,10.373,10.357C443.684,175.2,439.063,179.977,433.131,180.019z"
		/>
	<path display="inline" fill-rule="evenodd" clip-rule="evenodd" d="M336.303,191.228c5.91,0.021,10.646,4.816,10.554,10.69
		c-0.092,5.807-5.136,10.658-10.891,10.477c-5.601-0.177-10.185-4.9-10.233-10.547C325.679,195.879,330.33,191.207,336.303,191.228z
		"/>
	<path display="inline" fill-rule="evenodd" clip-rule="evenodd" d="M314.525,105.168c-0.094,5.824-5.143,10.703-10.841,10.478
		c-5.529-0.218-10.285-5.092-10.339-10.592c-0.055-5.748,4.901-10.68,10.711-10.654C309.963,94.426,314.622,99.217,314.525,105.168z
		"/>
	<path display="inline" fill-rule="evenodd" clip-rule="evenodd" d="M336.11,147.803c-5.912-0.078-10.526-4.909-10.377-10.861
		c0.141-5.598,4.879-10.327,10.418-10.397c5.699-0.072,10.72,4.942,10.716,10.703C346.863,143.06,341.949,147.881,336.11,147.803z"
		/>
	<path display="inline" fill-rule="evenodd" clip-rule="evenodd" d="M228.984,169.289c0.102-5.913,4.972-10.581,10.84-10.392
		c5.593,0.182,10.284,4.957,10.335,10.521c0.051,5.741-4.893,10.633-10.721,10.607C233.481,179.998,228.881,175.273,228.984,169.289
		z"/>
	<path display="inline" fill-rule="evenodd" clip-rule="evenodd" d="M379.205,169.657c-0.117,5.747-5.163,10.513-10.981,10.37
		c-5.881-0.145-10.51-5.097-10.258-10.973c0.243-5.662,4.971-10.2,10.596-10.17C374.331,158.915,379.321,163.964,379.205,169.657z"
		/>
	<path display="inline" fill-rule="evenodd" clip-rule="evenodd" d="M282.403,201.812c-0.047,5.729-5.156,10.716-10.853,10.592
		c-5.718-0.125-10.685-5.336-10.472-10.983c0.211-5.601,4.968-10.186,10.603-10.217C277.56,191.169,282.451,196.009,282.403,201.812
		z"/>
	<path display="inline" fill-rule="evenodd" clip-rule="evenodd" d="M400.613,191.219c5.941-0.078,10.727,4.605,10.732,10.508
		c0.007,5.814-4.934,10.75-10.687,10.673c-5.51-0.072-10.363-4.84-10.56-10.37C389.898,196.324,394.787,191.298,400.613,191.219z"/>
	<path display="inline" fill-rule="evenodd" clip-rule="evenodd" d="M314.542,233.887c0.054,5.873-4.767,10.799-10.557,10.783
		c-5.699-0.015-10.738-5.135-10.647-10.817c0.09-5.521,4.864-10.331,10.419-10.497C309.514,223.185,314.488,228.043,314.542,233.887
		z"/>
	<path display="inline" fill-rule="evenodd" clip-rule="evenodd" d="M336.093,276.772c-5.948-0.077-10.513-4.849-10.354-10.829
		c0.147-5.627,4.858-10.303,10.435-10.356c5.727-0.056,10.713,4.938,10.689,10.703C346.839,272.173,342.034,276.85,336.093,276.772z
		"/>
	<path display="inline" fill-rule="evenodd" clip-rule="evenodd" d="M379.221,104.77c0.133,5.588-4.979,10.834-10.625,10.899
		c-5.51,0.066-10.351-4.595-10.62-10.222c-0.279-5.844,4.363-10.867,10.212-11.052C373.953,94.214,379.083,99.037,379.221,104.77z"
		/>
	<path display="inline" fill-rule="evenodd" clip-rule="evenodd" d="M282.44,137.313c-0.048,5.733-5.127,10.624-10.908,10.5
		c-5.576-0.12-10.373-4.885-10.479-10.409c-0.107-5.628,5.003-10.85,10.65-10.88C277.323,126.493,282.486,131.682,282.44,137.313z"
		/>
	<path display="inline" fill-rule="evenodd" clip-rule="evenodd" d="M411.356,137.105c0.079,5.795-4.808,10.737-10.599,10.723
		c-5.771-0.016-10.786-5.061-10.674-10.739c0.106-5.472,4.941-10.354,10.435-10.538C406.193,126.36,411.277,131.312,411.356,137.105
		z"/>
	<path display="inline" fill-rule="evenodd" clip-rule="evenodd" d="M368.701,244.668c-5.691,0.134-10.76-4.852-10.79-10.616
		c-0.029-5.576,4.564-10.406,10.168-10.688c5.664-0.285,10.893,4.57,11.119,10.323C379.417,239.301,374.418,244.532,368.701,244.668
		z"/>
</g>
<g display="none">
	<path fill-rule="evenodd" clip-rule="evenodd" fill="#FFFFFF" d="M513.35,513.5c-170.883,0-341.841,0-512.824,0
		c0-170.941,0-341.883,0-512.912c170.875,0,341.774,0,512.824,0C513.35,171.5,513.35,342.5,513.35,513.5z M61.679,410.968
		c2.094-1.802,3.835-3.115,5.363-4.643C174.398,299,281.741,191.661,389.054,84.293c1.861-1.862,4.117-3.875,4.806-6.223
		c0.811-2.764,1.022-6.38-0.111-8.906c-3.176-7.077-11.21-7.262-17.729-0.744C266.665,177.753,157.307,287.083,48.067,396.53
		c-2.681,2.686-4.837,6.478-5.862,10.138c-6.594,23.545-12.846,47.186-19.122,70.818c-2.919,10.991,3.476,17.35,14.465,14.424
		c23.623-6.289,47.261-12.528,70.799-19.12c3.66-1.025,7.448-3.188,10.134-5.868c109.213-109.004,218.308-218.126,327.393-327.257
		c1.513-1.513,2.937-3.206,4.015-5.043c2.869-4.891,1.31-10.372-3.578-13.31c-4.88-2.933-9.203-1.813-14.932,3.915
		C323.683,232.92,215.985,340.611,108.332,448.347c-1.495,1.496-2.427,3.556-3.865,5.718c-13.797-13.813-26.26-26.284-38.711-38.766
		C64.601,414.142,63.511,412.919,61.679,410.968z M470.285,114.873c30.198-24.12,27.486-58.753,8.062-78.196
		c-19.136-19.152-53.643-22.542-78.211,7.972C423.528,68.065,446.893,91.455,470.285,114.873z"/>
	<path display="inline" fill-rule="evenodd" clip-rule="evenodd" d="M45.959,419.724c1.961,2.088,3.127,3.396,4.362,4.635
		c13.323,13.354,26.658,26.698,41.421,41.479c1.539-2.313,2.536-4.517,4.136-6.117c115.188-115.277,230.426-230.507,345.66-345.738
		c6.13-6.129,10.756-7.326,15.978-4.188c5.229,3.143,6.898,9.008,3.828,14.241c-1.153,1.965-2.677,3.777-4.296,5.396
		C340.327,246.2,223.596,362.961,106.738,479.595c-2.874,2.868-6.927,5.182-10.844,6.279c-25.186,7.053-50.479,13.729-75.754,20.458
		c-11.759,3.131-18.602-3.673-15.479-15.434c6.716-25.287,13.404-50.582,20.46-75.775c1.097-3.916,3.404-7.974,6.272-10.848
		c116.887-117.108,233.9-234.092,350.909-351.078c6.975-6.974,15.571-6.776,18.97,0.797c1.213,2.703,0.986,6.572,0.119,9.529
		c-0.736,2.512-3.15,4.666-5.143,6.658C281.426,185.065,166.569,299.918,51.698,414.756C50.063,416.391,48.2,417.796,45.959,419.724
		z"/>
	<path display="inline" fill-rule="evenodd" clip-rule="evenodd" d="M483.168,102.902c-25.03-25.057-50.029-50.084-75.06-75.141
		c26.288-32.649,63.21-29.022,83.686-8.529C512.578,40.037,515.48,77.094,483.168,102.902z"/>
</g>
<g display="none">
	<path fill-rule="evenodd" clip-rule="evenodd" fill="#FFFFFF" d="M513.5,416.5c0,32.333,0,64.667,0,97c-171,0-342,0-513,0
		c0-171,0-342,0-513c171,0,342,0,513,0c0,29,0,58,0,87c-1.607-2.021-2.897-4.448-4.874-5.999
		c-17.265-13.553-36.857-19.586-58.782-17.44c-21.063,2.061-39.95,9.988-57.041,22.18
		c-52.474,37.429-104.869,74.968-157.207,112.588c-3.15,2.264-5.271,2.514-8.71,0.437c-26.93-16.267-54.016-32.274-81.049-48.369
		c-2.055-1.224-4.077-2.504-6.216-3.82c2.01-2.314,3.802-4.078,5.25-6.089c17.673-24.561,19.32-50.457,5.482-77.104
		c-14.073-27.101-36.964-40.448-67.32-41.67C48.211,20.812,17.846,36.542,5.892,71.625c-7.753,22.754-5.434,44.65,7.287,65.165
		c9.664,15.586,23.973,25.596,40.523,32.757c19.991,8.649,40.331,16.588,59.873,26.155c26.106,12.78,46.601,32.312,62.83,56.7
		c-10.987,16.469-24.195,30.619-39.891,42.472c-18.682,14.105-40.096,22.832-61.505,31.666
		c-11.975,4.941-24.201,9.657-35.358,16.125C2.42,364.244-9.348,409.913,12.256,447.155c12.176,20.989,31.07,32.045,54.793,34.72
		c30.197,3.404,56.831-3.822,75.831-29.181c12.681-16.924,19.438-36.031,15.552-57.601c-2.547-14.141-8.276-26.873-18.916-37.344
		c2.348-1.459,4.293-2.713,6.282-3.896c27.036-16.09,54.125-32.09,81.059-48.35c3.468-2.094,5.629-1.779,8.764,0.473
		c51.662,37.133,103.291,74.313,155.258,111.016c9.561,6.753,20.134,12.554,31.004,16.872c25.604,10.174,51.321,10.663,76.031-3.365
		C504.045,427.02,510.569,423.679,513.5,416.5z"/>
	<path display="inline" fill-rule="evenodd" clip-rule="evenodd" d="M508.945,417.859c-2.902,7.106-9.361,10.414-15.43,13.859
		c-24.463,13.889-49.924,13.404-75.271,3.332c-10.762-4.275-21.229-10.019-30.693-16.703
		c-51.447-36.336-102.561-73.145-153.706-109.906c-3.103-2.229-5.243-2.541-8.676-0.468c-26.664,16.097-53.483,31.938-80.248,47.866
		c-1.968,1.171-3.895,2.412-6.219,3.856c10.533,10.366,16.205,22.972,18.726,36.971c3.848,21.354-2.842,40.27-15.396,57.024
		c-18.811,25.104-45.178,32.259-75.073,28.889c-23.486-2.647-42.191-13.593-54.246-34.372c-21.388-36.87-9.737-82.082,27.12-103.445
		c11.046-6.403,23.149-11.072,35.005-15.964c21.194-8.746,42.395-17.385,60.89-31.35c15.539-11.734,28.615-25.742,39.492-42.047
		c-16.066-24.145-36.356-43.481-62.201-56.133c-19.347-9.472-39.483-17.331-59.274-25.894c-16.385-7.09-30.551-17-40.118-32.429
		c-12.593-20.31-14.89-41.987-7.214-64.514c11.835-34.732,41.896-50.305,76.371-48.918c30.052,1.209,52.715,14.424,66.647,41.253
		c13.699,26.38,12.068,52.018-5.428,76.333c-1.433,1.991-3.207,3.736-5.197,6.028c2.118,1.303,4.119,2.571,6.153,3.782
		c26.763,15.934,53.578,31.781,80.238,47.885c3.405,2.057,5.505,1.809,8.624-0.432c51.814-37.244,103.686-74.408,155.635-111.462
		c16.92-12.069,35.617-19.918,56.471-21.958c21.705-2.124,41.102,3.849,58.193,17.266c1.957,1.535,3.234,3.938,4.826,5.939
		c0,1.32,0,2.64,0,3.96c-2.377,3.006-4.236,6.71-7.209,8.913c-66.219,49.069-132.561,97.97-198.873,146.912
		c-1.395,1.029-2.709,2.164-4.379,3.503c1.828,1.415,3.213,2.532,4.645,3.588c65.918,48.643,131.861,97.252,197.703,145.998
		c3.162,2.342,5.43,5.89,8.113,8.876C508.945,415.219,508.945,416.539,508.945,417.859z M480.914,95.364
		c-9.486-4.992-18.73-6.663-28.426-6.416c-19.334,0.492-36.291,7.778-51.715,18.778c-63.355,45.192-126.564,90.592-189.926,135.781
		c-5.493,3.918-9.659,8.516-13.141,14.315c-17.658,29.42-40.783,53.703-71.413,69.498c-20.44,10.541-42.013,18.896-63.138,28.093
		c-10.548,4.592-20.104,10.414-27.933,19.061c-21.398,23.633-14.933,65.61,12.842,81.229c14.818,8.333,30.861,9.229,47.055,5.633
		c21.332-4.737,34.177-18.955,40.581-39.216c5.913-18.706,1.14-34.993-12.384-48.975c-8.829-9.126-8.336-19.643,1.255-27.987
		c1.976-1.721,4.192-3.21,6.451-4.548c16.869-9.999,33.868-19.782,50.646-29.932c15.786-9.548,32.032-18.529,46.899-29.374
		c67.54-49.268,134.663-99.105,201.935-148.739C447.076,120.338,463.646,108.107,480.914,95.364z M480.766,415.483
		c-1.748-1.388-2.869-2.337-4.047-3.206c-44.057-32.502-88.117-64.995-132.176-97.493c-20.039-14.78-40.051-29.599-60.164-44.278
		c-1.289-0.941-3.99-1.746-4.945-1.072c-10.727,7.576-21.238,15.455-32.182,23.527c1.465,1.15,2.439,1.977,3.474,2.719
		c50.41,36.094,100.775,72.247,151.269,108.224c13.197,9.404,27.881,15.632,44.086,17.569
		C457.908,422.887,469.389,421.434,480.766,415.483z M211.389,218.274c-1.583-1.057-2.755-1.917-3.998-2.658
		c-23.642-14.078-47.313-28.106-70.923-42.237c-4.368-2.614-8.894-5.188-12.649-8.558c-8.903-7.991-8.946-18.174-0.808-26.94
		c2.788-3.003,5.721-6.018,7.812-9.494c10.091-16.776,9.423-33.846,0.404-50.783C118.759,54.19,98.203,46.195,72.95,47.833
		C27.05,50.81,14.011,96.262,27.531,124.299c7.145,14.817,19.204,23.996,33.846,30.246c14.838,6.333,29.884,12.184,44.677,18.617
		c23.02,10.011,44.08,23.114,61.682,41.223c6.726,6.919,12.907,14.368,19.227,21.453
		C195.023,230.042,203.019,224.292,211.389,218.274z"/>
	<path fill-rule="evenodd" clip-rule="evenodd" fill="#FFFFFF" d="M513.5,412.5c-2.711-3.016-5.002-6.6-8.195-8.965
		c-66.507-49.239-133.115-98.34-199.7-147.474c-1.446-1.066-2.846-2.195-4.691-3.624c1.687-1.354,3.015-2.499,4.423-3.539
		c66.982-49.436,133.995-98.831,200.883-148.396c3.002-2.225,4.88-5.967,7.281-9.003C513.5,198.5,513.5,305.5,513.5,412.5z"/>
	<path fill-rule="evenodd" clip-rule="evenodd" fill="#FFFFFF" d="M485.187,90.747c-17.442,12.872-34.181,25.227-50.92,37.577
		C366.314,178.459,298.514,228.8,230.292,278.565c-15.017,10.954-31.427,20.026-47.373,29.671
		c-16.948,10.252-34.118,20.134-51.158,30.233c-2.281,1.352-4.52,2.856-6.516,4.594c-9.688,8.43-10.186,19.052-1.268,28.271
		c13.661,14.123,18.481,30.574,12.509,49.469c-6.468,20.466-19.443,34.827-40.99,39.612c-16.358,3.633-32.563,2.728-47.531-5.689
		c-28.055-15.776-34.586-58.178-12.972-82.049c7.908-8.734,17.56-14.615,28.214-19.254c21.338-9.29,43.129-17.729,63.776-28.376
		c30.938-15.954,54.297-40.482,72.134-70.2c3.517-5.858,7.725-10.502,13.273-14.46c64-45.646,127.848-91.504,191.845-137.152
		c15.578-11.111,32.707-18.471,52.237-18.968C466.266,84.018,475.604,85.705,485.187,90.747z M83.104,366.115
		c-13.491,0.362-24.37,6.168-33.018,16.239c-13.574,15.808-13.048,38.985,1.011,52.034c12.46,11.564,31.668,13.328,47.402,4.353
		c15.515-8.851,23.245-26.027,19.511-43.356C114.239,377.883,99.864,365.826,83.104,366.115z M237.055,236.183
		c-6.053-0.017-11.187,5.043-11.2,11.038c-0.013,5.932,5.208,11.193,11.133,11.22c5.858,0.027,11.196-5.273,11.228-11.15
		C248.248,241.351,243.071,236.198,237.055,236.183z"/>
	<path fill-rule="evenodd" clip-rule="evenodd" fill="#FFFFFF" d="M485.035,414.101c-11.491,6.01-23.088,7.478-35.035,6.05
		c-16.368-1.957-31.201-8.248-44.532-17.747c-51.003-36.34-101.878-72.858-152.796-109.317c-1.045-0.749-2.029-1.584-3.509-2.745
		c11.054-8.154,21.673-16.113,32.507-23.766c0.965-0.681,3.693,0.132,4.996,1.083c20.315,14.828,40.529,29.796,60.771,44.726
		c44.504,32.826,89.011,65.647,133.512,98.479C482.139,411.74,483.27,412.698,485.035,414.101z"/>
	<path fill-rule="evenodd" clip-rule="evenodd" fill="#FFFFFF" d="M212.938,214.899c-8.455,6.079-16.531,11.887-24.673,17.74
		c-6.384-7.156-12.627-14.68-19.421-21.669c-17.78-18.292-39.053-31.527-62.305-41.64c-14.943-6.498-30.141-12.407-45.128-18.805
		c-14.79-6.313-26.971-15.585-34.188-30.552c-13.656-28.32-0.485-74.231,45.878-77.238c25.508-1.654,46.272,6.422,58.867,30.072
		c9.11,17.107,9.784,34.35-0.409,51.296c-2.112,3.511-5.075,6.557-7.891,9.59c-8.221,8.854-8.178,19.141,0.815,27.212
		c3.793,3.404,8.365,6.004,12.777,8.645c23.848,14.274,47.758,28.444,71.639,42.664
		C210.155,212.963,211.339,213.832,212.938,214.899z M77.385,60.425c-14.954-0.195-28.022,7.734-33.857,20.545
		c-8.486,18.629,0.302,41.993,19.667,52.289c16.085,8.552,33.322,6.94,44.307-4.527c11.756-12.273,14.403-26.839,8.586-42.51
		C110.223,70.42,94.885,60.653,77.385,60.425z"/>
	<path display="inline" fill-rule="evenodd" clip-rule="evenodd" d="M82.851,367.975c16.594-0.282,30.826,11.653,34.559,28.98
		c3.697,17.155-3.956,34.16-19.315,42.923c-15.577,8.886-34.593,7.14-46.928-4.31c-13.919-12.918-14.44-35.864-1.001-51.514
		C58.727,374.084,69.497,368.337,82.851,367.975z M76.738,425.087c11.965,0.027,21.229-8.435,21.307-19.461
		c0.069-9.826-6.567-17.473-15.11-17.409c-11.145,0.084-22.295,10.975-22.329,21.808C60.58,418.775,67.316,425.064,76.738,425.087z"
		/>
	<path display="inline" fill-rule="evenodd" clip-rule="evenodd" d="M235.264,239.345c5.957,0.016,11.081,5.116,11.049,10.997
		c-0.032,5.818-5.316,11.066-11.116,11.039c-5.866-0.026-11.035-5.235-11.021-11.107
		C224.189,244.337,229.272,239.328,235.264,239.345z"/>
	<path display="inline" fill-rule="evenodd" clip-rule="evenodd" d="M77.191,65.345c17.325,0.226,32.509,9.895,38.316,25.539
		c5.758,15.514,3.138,29.934-8.501,42.085c-10.875,11.353-27.94,12.948-43.864,4.482c-19.172-10.193-27.872-33.324-19.47-51.766
		C49.45,73.001,62.387,65.151,77.191,65.345z M98.045,105.204c-0.031-10.908-9.428-19.622-21.233-19.69
		c-9.162-0.052-16.205,6.532-16.199,15.143c0.007,11.045,11.571,22.2,22.739,21.935C91.634,122.394,98.072,114.776,98.045,105.204z"
		/>
	<path fill-rule="evenodd" clip-rule="evenodd" fill="#FFFFFF" d="M76.927,423.801c-9.517-0.022-16.321-6.375-16.294-15.215
		c0.033-10.942,11.296-21.942,22.554-22.027c8.629-0.064,15.332,7.659,15.262,17.585C98.371,415.281,89.013,423.828,76.927,423.801z
		"/>
	<path fill-rule="evenodd" clip-rule="evenodd" fill="#FFFFFF" d="M98.45,100.687c0.027,9.669-6.476,17.364-14.842,17.563
		c-11.281,0.268-22.961-11-22.968-22.156c-0.006-8.698,7.108-15.349,16.363-15.296C88.927,80.866,98.418,89.668,98.45,100.687z"/>
</g>
</svg>
