<?xml version="1.0" encoding="utf-8"?>
<!-- Generator: Adobe Illustrator 16.0.0, SVG Export Plug-In . SVG Version: 6.00 Build 0)  -->
<!DOCTYPE svg PUBLIC "-//W3C//DTD SVG 1.1//EN" "http://www.w3.org/Graphics/SVG/1.1/DTD/svg11.dtd">
<svg version="1.1" id="Layer_1" xmlns="http://www.w3.org/2000/svg" xmlns:xlink="http://www.w3.org/1999/xlink" x="0px" y="0px"
	 width="512px" height="512px" viewBox="0 0 512 512" enable-background="new 0 0 512 512" xml:space="preserve">
<g>
	<line fill="none" stroke="#B35047" x1="32" y1="0" x2="32" y2="512"/>
	<line fill="none" stroke="#B35047" x1="64" y1="0" x2="64" y2="512"/>
	<line fill="none" stroke="#B35047" x1="96" y1="0" x2="96" y2="512"/>
	<line fill="none" stroke="#B35047" x1="128" y1="0" x2="128" y2="512"/>
	<line fill="none" stroke="#B35047" x1="160" y1="0" x2="160" y2="512"/>
	<line fill="none" stroke="#B35047" x1="192" y1="0" x2="192" y2="512"/>
	<line fill="none" stroke="#B35047" x1="224" y1="0" x2="224" y2="512"/>
	<line fill="none" stroke="#B35047" x1="256" y1="0" x2="256" y2="512"/>
	<line fill="none" stroke="#B35047" x1="288" y1="0" x2="288" y2="512"/>
	<line fill="none" stroke="#B35047" x1="320" y1="0" x2="320" y2="512"/>
	<line fill="none" stroke="#B35047" x1="352" y1="0" x2="352" y2="512"/>
	<line fill="none" stroke="#B35047" x1="384" y1="0" x2="384" y2="512"/>
	<line fill="none" stroke="#B35047" x1="416" y1="0" x2="416" y2="512"/>
	<line fill="none" stroke="#B35047" x1="448" y1="0" x2="448" y2="512"/>
	<line fill="none" stroke="#B35047" x1="480" y1="0" x2="480" y2="512"/>
	<line fill="none" stroke="#B35047" x1="0" y1="32" x2="512" y2="32"/>
	<line fill="none" stroke="#B35047" x1="0" y1="64" x2="512" y2="64"/>
	<line fill="none" stroke="#B35047" x1="0" y1="96" x2="512" y2="96"/>
	<line fill="none" stroke="#B35047" x1="0" y1="128" x2="512" y2="128"/>
	<line fill="none" stroke="#B35047" x1="0" y1="160" x2="512" y2="160"/>
	<line fill="none" stroke="#B35047" x1="0" y1="192" x2="512" y2="192"/>
	<line fill="none" stroke="#B35047" x1="0" y1="224" x2="512" y2="224"/>
	<line fill="none" stroke="#B35047" x1="0" y1="256" x2="512" y2="256"/>
	<line fill="none" stroke="#B35047" x1="0" y1="288" x2="512" y2="288"/>
	<line fill="none" stroke="#B35047" x1="0" y1="320" x2="512" y2="320"/>
	<line fill="none" stroke="#B35047" x1="0" y1="352" x2="512" y2="352"/>
	<line fill="none" stroke="#B35047" x1="0" y1="384" x2="512" y2="384"/>
	<line fill="none" stroke="#B35047" x1="0" y1="416" x2="512" y2="416"/>
	<line fill="none" stroke="#B35047" x1="0" y1="448" x2="512" y2="448"/>
	<line fill="none" stroke="#B35047" x1="0" y1="480" x2="512" y2="480"/>
	<rect fill="none" stroke="#B35047" width="512" height="512"/>
</g>
<image display="none" overflow="visible" width="512" height="512" xlink:href="../../../Knowledge/Icon/[+++++] (Full) iOS7 icons [icons8]/Movie_Genres/musical/musical-512.png" >
</image>
<image display="none" overflow="visible" width="512" height="512" xlink:href="../../../Knowledge/Icon/[+++++] (Full) iOS7 icons [icons8]/Movie_Genres/history/history-512.png" >
</image>
<g>
	<path display="none" fill-rule="evenodd" clip-rule="evenodd" fill="#FFFFFF" d="M513.5,191.5c0,107.333,0,214.667,0,322
		c-171,0-342,0-513,0c0-171,0-342,0-513c171,0,342,0,513,0c0,60,0,120,0,180c-0.359-1.271-0.756-2.531-1.072-3.812
		c-4.041-16.394-17.929-29.395-33.344-31.2c-19.206-2.25-35.298,5.909-43.301,22.629c-7.187,15.016-4.96,29.409,4.543,43.181
		c-29.802,26.832-59.572,53.638-89.857,80.906c-23.886-54.979-47.456-109.231-70.996-163.415
		c27.299-20.847,20.724-50.638,6.884-64.164c-16.116-15.75-42.229-15.604-58.032,0.32c-13.979,14.087-19.497,43.551,7.213,63.812
		c-23.577,54.265-47.187,108.604-71.016,163.449c-30.39-27.378-60.08-54.125-89.825-80.921c0.511-0.798,0.855-1.338,1.202-1.876
		c0.45-0.7,0.938-1.378,1.347-2.101c8.682-15.374,8.478-30.647-1.568-45.166c-9.518-13.756-26.692-20.017-42.198-16.266
		C14.372,150.5,1.069,167.461,1.547,186.593c0.486,19.445,14.103,35.687,33.484,39.3c3.651,0.68,4.772,2.135,5.576,5.45
		c9.438,38.964,19.063,77.882,28.572,116.829c1.614,6.61,4.051,13.281,4.148,19.953c0.396,27.15-0.013,54.312-0.03,81.469
		c-0.005,8.901,3.918,12.773,12.886,12.775c114.144,0.026,228.289,0.026,342.433,0.001c9.232-0.002,13.083-3.887,13.097-13.077
		c0.038-25.495,0.01-50.99,0.019-76.485c0.001-2.816-0.456-5.761,0.19-8.43c10.84-44.787,21.842-89.534,32.722-134.312
		c0.655-2.699,1.905-3.572,4.632-3.991c7.367-1.132,13.877-4.315,19.688-9.096C507.089,210.297,510.89,201.267,513.5,191.5z"/>
	<path fill-rule="evenodd" clip-rule="evenodd" d="M508.939,190.162c-2.584,9.669-6.346,18.609-14.391,25.225
		c-5.752,4.732-12.197,7.884-19.49,9.005c-2.699,0.415-3.938,1.279-4.586,3.951c-10.77,44.33-21.662,88.629-32.395,132.968
		c-0.639,2.643-0.188,5.558-0.188,8.346c-0.01,25.24,0.02,50.48-0.02,75.721c-0.012,9.099-3.824,12.944-12.965,12.946
		c-113.003,0.025-226.006,0.025-339.009-0.001c-8.878-0.002-12.763-3.835-12.757-12.647c0.017-26.886,0.422-53.775,0.03-80.654
		c-0.097-6.605-2.509-13.209-4.107-19.754c-9.414-38.558-18.943-77.087-28.287-115.661c-0.795-3.282-1.905-4.723-5.52-5.396
		c-19.188-3.577-32.669-19.656-33.15-38.907c-0.473-18.94,12.696-35.732,31.613-40.309c15.351-3.714,32.353,2.484,41.776,16.103
		c9.945,14.374,10.147,29.494,1.552,44.714c-0.405,0.716-0.888,1.387-1.333,2.08c-0.343,0.533-0.684,1.067-1.19,1.857
		c29.447,26.528,58.84,53.007,88.927,80.112c23.591-54.298,46.964-108.093,70.306-161.815
		c-26.443-20.058-20.981-49.227-7.141-63.173c15.645-15.766,41.497-15.91,57.452-0.317c13.701,13.391,20.211,42.884-6.814,63.522
		c23.304,53.642,46.639,107.352,70.285,161.781c29.982-26.996,59.455-53.534,88.959-80.098
		c-9.408-13.634-11.611-27.883-4.498-42.749c7.924-16.553,23.854-24.63,42.869-22.402c15.26,1.788,29.01,14.658,33.01,30.888
		c0.313,1.267,0.705,2.515,1.061,3.773C508.939,182.902,508.939,186.531,508.939,190.162z M450.652,224.465
		c-2.238,1.938-3.494,2.99-4.711,4.085c-30.9,27.814-61.789,55.64-92.717,83.424c-1.695,1.523-3.531,3.105-5.592,3.965
		c-6.158,2.569-11.102-0.427-14.646-8.588c-24.477-56.349-48.924-112.711-73.492-169.022c-0.779-1.787-2.757-3.05-4.175-4.557
		c-1.283,1.463-3.039,2.72-3.78,4.419c-24.622,56.467-49.141,112.978-73.694,169.475c-4.526,10.416-11.546,11.986-19.952,4.439
		c-19.028-17.083-38.014-34.213-57.019-51.32c-13.227-11.907-26.458-23.809-39.887-35.894c-0.104,0.782-0.246,1.124-0.175,1.414
		c10.375,42.396,20.81,84.779,31.064,127.204c0.762,3.152,2.409,3.329,4.898,3.328c105.756-0.025,211.513-0.034,317.271,0.04
		c3.199,0.002,4.539-0.909,5.293-4.15c3.814-16.361,7.93-32.65,11.924-48.969C437.643,277.7,444.008,251.64,450.652,224.465z
		 M93.44,437.438c108.3,0,216.177,0,323.927,0c0-20.299,0-40.15,0-59.91c-108.172,0-215.946,0-323.927,0
		C93.44,397.583,93.44,417.314,93.44,437.438z M62.7,184.458c-0.048-11.194-9.003-20.105-20.162-20.063
		c-11.165,0.042-20.054,9.02-20.019,20.219c0.035,11.15,9.101,20.21,20.17,20.157C53.744,204.717,62.748,195.577,62.7,184.458z
		 M488.471,184.407c-0.078-11.209-9.025-20.067-20.215-20.013c-11.143,0.053-20.016,9.064-19.963,20.269
		c0.051,11.093,9.24,20.228,20.223,20.106C479.652,204.647,488.549,195.568,488.471,184.407z M235.414,93.461
		c0.081,11.15,9.171,20.13,20.249,20.006c11.163-0.126,20.006-9.152,19.918-20.331c-0.09-11.211-9.013-19.993-20.242-19.923
		C244.152,73.283,235.333,82.246,235.414,93.461z"/>
	<path display="none" fill-rule="evenodd" clip-rule="evenodd" fill="#FFFFFF" d="M454.624,226.149
		c-6.712,27.45-13.143,53.773-19.585,80.094c-4.035,16.483-8.192,32.938-12.044,49.464c-0.763,3.273-2.115,4.194-5.348,4.192
		c-106.825-0.075-213.65-0.066-320.475-0.041c-2.514,0.001-4.178-0.177-4.947-3.361c-10.358-42.854-20.898-85.664-31.378-128.488
		c-0.072-0.293,0.072-0.639,0.177-1.429c13.564,12.207,26.929,24.229,40.29,36.257c19.197,17.28,38.375,34.583,57.594,51.839
		c8.491,7.623,15.582,6.036,20.154-4.484c24.802-57.067,49.568-114.149,74.439-171.187c0.749-1.716,2.522-2.985,3.818-4.464
		c1.433,1.522,3.43,2.799,4.217,4.604c24.816,56.879,49.511,113.811,74.234,170.729c3.58,8.243,8.573,11.27,14.794,8.675
		c2.081-0.868,3.936-2.467,5.648-4.006c31.239-28.064,62.44-56.172,93.653-84.267C451.095,229.17,452.363,228.107,454.624,226.149z"
		/>
	<path display="none" fill-rule="evenodd" clip-rule="evenodd" fill="#FFFFFF" d="M93.803,441.274c0-20.327,0-40.258,0-60.516
		c109.072,0,217.934,0,327.2,0c0,19.96,0,40.012,0,60.516C312.164,441.274,203.197,441.274,93.803,441.274z"/>
	<path display="none" fill-rule="evenodd" clip-rule="evenodd" fill="#FFFFFF" d="M62.752,185.738
		c0.048,11.231-9.046,20.464-20.212,20.518c-11.182,0.054-20.339-9.098-20.374-20.36c-0.036-11.313,8.944-20.381,20.221-20.423
		C53.658,165.43,62.703,174.431,62.752,185.738z"/>
	<path display="none" fill-rule="evenodd" clip-rule="evenodd" fill="#FFFFFF" d="M492.824,185.688
		c0.079,11.273-8.907,20.444-20.156,20.568c-11.095,0.123-20.377-9.104-20.429-20.31c-0.053-11.318,8.911-20.42,20.166-20.474
		C483.707,165.418,492.745,174.365,492.824,185.688z"/>
	<path display="none" fill-rule="evenodd" clip-rule="evenodd" fill="#FFFFFF" d="M237.21,93.822
		c-0.082-11.328,8.827-20.382,20.125-20.453c11.343-0.07,20.356,8.801,20.446,20.125c0.089,11.292-8.843,20.409-20.118,20.536
		C246.474,114.156,237.292,105.085,237.21,93.822z"/>
</g>
</svg>
