<?xml version="1.0" encoding="utf-8"?>
<!-- Generator: Adobe Illustrator 16.0.0, SVG Export Plug-In . SVG Version: 6.00 Build 0)  -->
<!DOCTYPE svg PUBLIC "-//W3C//DTD SVG 1.1//EN" "http://www.w3.org/Graphics/SVG/1.1/DTD/svg11.dtd">
<svg version="1.1" id="Layer_1" xmlns="http://www.w3.org/2000/svg" xmlns:xlink="http://www.w3.org/1999/xlink" x="0px" y="0px"
	 width="512px" height="512px" viewBox="0 0 512 512" enable-background="new 0 0 512 512" xml:space="preserve">
<g>
	<line fill="none" stroke="#B35047" x1="32" y1="0" x2="32" y2="512"/>
	<line fill="none" stroke="#B35047" x1="64" y1="0" x2="64" y2="512"/>
	<line fill="none" stroke="#B35047" x1="96" y1="0" x2="96" y2="512"/>
	<line fill="none" stroke="#B35047" x1="128" y1="0" x2="128" y2="512"/>
	<line fill="none" stroke="#B35047" x1="160" y1="0" x2="160" y2="512"/>
	<line fill="none" stroke="#B35047" x1="192" y1="0" x2="192" y2="512"/>
	<line fill="none" stroke="#B35047" x1="224" y1="0" x2="224" y2="512"/>
	<line fill="none" stroke="#B35047" x1="256" y1="0" x2="256" y2="512"/>
	<line fill="none" stroke="#B35047" x1="288" y1="0" x2="288" y2="512"/>
	<line fill="none" stroke="#B35047" x1="320" y1="0" x2="320" y2="512"/>
	<line fill="none" stroke="#B35047" x1="352" y1="0" x2="352" y2="512"/>
	<line fill="none" stroke="#B35047" x1="384" y1="0" x2="384" y2="512"/>
	<line fill="none" stroke="#B35047" x1="416" y1="0" x2="416" y2="512"/>
	<line fill="none" stroke="#B35047" x1="448" y1="0" x2="448" y2="512"/>
	<line fill="none" stroke="#B35047" x1="480" y1="0" x2="480" y2="512"/>
	<line fill="none" stroke="#B35047" x1="0" y1="32" x2="512" y2="32"/>
	<line fill="none" stroke="#B35047" x1="0" y1="64" x2="512" y2="64"/>
	<line fill="none" stroke="#B35047" x1="0" y1="96" x2="512" y2="96"/>
	<line fill="none" stroke="#B35047" x1="0" y1="128" x2="512" y2="128"/>
	<line fill="none" stroke="#B35047" x1="0" y1="160" x2="512" y2="160"/>
	<line fill="none" stroke="#B35047" x1="0" y1="192" x2="512" y2="192"/>
	<line fill="none" stroke="#B35047" x1="0" y1="224" x2="512" y2="224"/>
	<line fill="none" stroke="#B35047" x1="0" y1="256" x2="512" y2="256"/>
	<line fill="none" stroke="#B35047" x1="0" y1="288" x2="512" y2="288"/>
	<line fill="none" stroke="#B35047" x1="0" y1="320" x2="512" y2="320"/>
	<line fill="none" stroke="#B35047" x1="0" y1="352" x2="512" y2="352"/>
	<line fill="none" stroke="#B35047" x1="0" y1="384" x2="512" y2="384"/>
	<line fill="none" stroke="#B35047" x1="0" y1="416" x2="512" y2="416"/>
	<line fill="none" stroke="#B35047" x1="0" y1="448" x2="512" y2="448"/>
	<line fill="none" stroke="#B35047" x1="0" y1="480" x2="512" y2="480"/>
	<rect fill="none" stroke="#B35047" width="512" height="512"/>
</g>
<image display="none" overflow="visible" width="512" height="512" xlink:href="../../../Knowledge/Icon/[+++++] (Full) iOS7 icons [icons8]/Movie_Genres/musical/musical-512.png" >
</image>
<g>
	<path display="none" fill-rule="evenodd" clip-rule="evenodd" fill="#FFFFFF" d="M0.537,513.287c0-170.836,0-341.812,0-512.75
		c171.012,0,341.988,0,512.963,0c0,170.869,0,341.703,0,512.75C342.5,513.287,171.5,513.287,0.537,513.287z M411.162,390.569
		c0-2.953,0-5.259,0-7.563c-0.001-102.332-0.222-204.664,0.117-306.994c0.121-36.699-27.793-64.254-62.282-64.392
		c-38.831-0.155-77.664,0.029-116.496,0.04c-52.499,0.015-104.998-0.054-157.497,0.027c-30.97,0.047-56.601,20.338-62.021,49.764
		c-3.426,18.593,0.121,36.842,5.571,54.664c5.659,18.505,5.818,18.456,24.891,18.456c8.333,0,16.667-0.013,25,0.014
		c1.446,0.005,2.891,0.181,4.828,0.311c0,2.427,0,4.554,0,6.681c0,99.331,0.338,198.665-0.183,297.994
		c-0.181,34.523,27.499,63.731,62.477,63.753c104.998,0.066,209.996,0.104,314.993,0.106c9.043,0,17.391-2.617,24.939-7.646
		c14.699-9.791,23.161-23.817,26.304-40.846c4.22-22.862-1.502-42.887-18.93-58.976c-4.09-3.775-8.763-5.541-14.488-5.476
		C449.577,390.705,430.766,390.569,411.162,390.569z"/>
	<path fill-rule="evenodd" clip-rule="evenodd" d="M412.237,392.231c19.996,0,39.184,0.139,58.366-0.084
		c5.841-0.066,10.606,1.734,14.778,5.585c17.776,16.411,23.612,36.836,19.309,60.155c-3.206,17.369-11.837,31.676-26.83,41.663
		c-7.7,5.129-16.214,7.798-25.438,7.798c-107.097-0.003-214.194-0.041-321.293-0.108c-35.678-0.022-63.911-29.814-63.727-65.028
		c0.532-101.315,0.188-202.636,0.187-303.954c0-2.169,0-4.339,0-6.813c-1.975-0.133-3.45-0.313-4.924-0.317
		c-8.5-0.026-16.999-0.014-25.5-0.014c-19.454,0-19.617,0.05-25.389-18.825C6.217,94.109,2.6,75.495,6.095,56.531
		C11.624,26.517,37.767,5.819,69.356,5.771c53.549-0.083,107.098-0.013,160.647-0.028c39.608-0.011,79.218-0.199,118.825-0.041
		c35.18,0.14,63.651,28.246,63.528,65.679c-0.346,104.376-0.121,208.755-0.12,313.134
		C412.237,386.867,412.237,389.219,412.237,392.231z M407.697,486.196c-12.645-14.49-16.647-30.235-16.568-47.738
		c0.271-60.332,0.104-120.666,0.104-180.999c-0.001-62.543,0.036-125.086-0.026-187.628c-0.019-19.078-10.962-34.756-28.12-40.785
		c-27.14-9.536-55.946,11.564-55.364,40.627c0.312,15.593,3.404,30.661,8.937,45.247c2.367,6.236,1.45,11.501-3.197,14.024
		c-2.804,1.522-6.445,2.079-9.713,2.085c-69.68,0.112-139.36,0.085-209.041,0.085c-1.978,0-3.955,0-6.15,0
		c-0.1,2.128-0.231,3.625-0.232,5.122c-0.01,101.972-0.025,203.944,0.053,305.915c0.003,4.204,0.425,8.533,1.474,12.592
		c4.494,17.384,21.438,31.66,42.973,31.585c89.564-0.311,179.131-0.131,268.695-0.131
		C403.156,486.196,404.79,486.196,407.697,486.196z M302.895,26.804c-3.088,0-4.933,0-6.776,0c-25.485,0-50.971-0.001-76.457,0
		c-50.122,0-100.243-0.061-150.365,0.03C47.263,26.874,29.593,40.75,26.502,61.37c-2.38,15.875,0.872,31.454,5.912,46.559
		c0.4,1.196,3.11,2.284,4.756,2.3c13.759,0.122,27.52-0.076,41.279-0.068c69.658,0.039,139.315,0.113,208.973,0.158
		c1.614,0.001,3.229-0.202,5.233-0.336C286.218,81.128,280.638,52.805,302.895,26.804z M412.261,413.254
		c0,10.733,0.001,20.721-0.001,30.708c-0.003,14.514,6.219,26.03,17.836,34.244c9.712,6.866,20.554,10.874,32.509,5.85
		c24.214-10.178,30.537-52.275,10.474-69.217c-0.958-0.81-2.377-1.513-3.585-1.519C450.674,413.226,431.854,413.254,412.261,413.254
		z"/>
	<path display="none" fill-rule="evenodd" clip-rule="evenodd" fill="#FFFFFF" d="M406.711,482.692c-2.851,0-4.452,0-6.055,0
		c-87.809,0-175.619-0.177-263.427,0.128c-21.113,0.073-37.726-13.923-42.131-30.966c-1.028-3.979-1.442-8.223-1.445-12.345
		c-0.077-99.972-0.062-199.944-0.052-299.917c0-1.468,0.13-2.936,0.228-5.021c2.151,0,4.09,0,6.029,0
		c68.314,0,136.628,0.027,204.942-0.083c3.203-0.006,6.773-0.552,9.522-2.044c4.556-2.475,5.455-7.636,3.135-13.75
		c-5.424-14.3-8.456-29.072-8.762-44.359c-0.57-28.492,27.671-49.179,54.278-39.83c16.822,5.911,27.551,21.281,27.569,39.985
		c0.062,61.316,0.024,122.633,0.025,183.949c0,59.15,0.163,118.301-0.103,177.45C390.39,453.05,394.314,468.486,406.711,482.692z
		 M216.514,401.283c0,12.49-0.038,24.98,0.011,37.471c0.045,11.447,7.245,15.899,17.525,10.837
		c9.697-4.774,19.448-9.456,28.973-14.555c3.524-1.888,6.216-1.698,9.642,0.126c9.242,4.922,18.688,9.465,28.07,14.126
		c11.193,5.562,18.129,1.264,18.146-11.293c0.033-22.648,0.12-45.298-0.068-67.944c-0.047-5.565,0.001-10.669,4.378-14.973
		c1.667-1.64,2.477-4.313,3.271-6.653c4.703-13.872-2.006-28.813-16.459-37.528c-3.355-2.023-6.686-4.41-9.3-7.29
		c-16.557-18.235-47.208-18.922-64.579-1.44c-3.458,3.479-7.414,6.584-11.525,9.274c-17.604,11.521-23.023,31.26-9.794,47.442
		c1.115,1.364,1.616,3.595,1.637,5.431C216.581,376.636,216.514,388.96,216.514,401.283z M236.457,196.115
		c25.979,0,51.957,0.017,77.937-0.028c2.312-0.004,4.681-0.156,6.921-0.678c5.469-1.271,8.436-6.233,7.263-11.725
		c-1.162-5.436-5.247-8.127-12.539-8.128c-52.124-0.013-104.249-0.009-156.373-0.006c-9.46,0-14.755,3.799-14.596,10.448
		c0.156,6.524,5.26,10.111,14.45,10.113C185.166,196.12,210.811,196.115,236.457,196.115z M236.495,257.5
		c21.648,0,43.296,0.001,64.944-0.001c5.495,0,10.999,0.184,16.484-0.056c8.18-0.356,13.074-6.848,10.326-13.774
		c-2.254-5.682-7.251-6.642-12.75-6.637c-52.122,0.043-104.244,0.019-156.366,0.049c-2.15,0.002-4.356,0.108-6.438,0.588
		c-5.253,1.211-8.215,5.947-7.311,11.3c0.949,5.616,4.996,8.513,12.178,8.52C183.874,257.517,210.185,257.5,236.495,257.5z"/>
	<path display="none" fill-rule="evenodd" clip-rule="evenodd" fill="#FFFFFF" d="M303.963,32.308
		c-21.82,25.491-16.35,53.259-10.037,81.547c-1.966,0.132-3.549,0.331-5.131,0.33c-68.292-0.044-136.583-0.117-204.875-0.155
		c-13.49-0.008-26.981,0.187-40.47,0.066c-1.614-0.015-4.271-1.081-4.663-2.254c-4.941-14.81-8.129-30.083-5.796-45.646
		c3.03-20.215,20.354-33.819,41.955-33.858c49.139-0.089,98.278-0.029,147.417-0.029c24.986-0.001,49.972,0,74.958,0
		C299.127,32.308,300.936,32.308,303.963,32.308z"/>
	<path display="none" fill-rule="evenodd" clip-rule="evenodd" fill="#FFFFFF" d="M411.185,411.18c19.209,0,37.66-0.027,56.11,0.065
		c1.185,0.006,2.575,0.695,3.515,1.488c19.67,16.609,13.471,57.882-10.269,67.86c-11.721,4.926-22.35,0.996-31.871-5.735
		c-11.39-8.053-17.489-19.344-17.486-33.572C411.186,431.494,411.185,421.703,411.185,411.18z"/>
	<path fill-rule="evenodd" clip-rule="evenodd" d="M213.696,403.159c0-12.569,0.068-25.141-0.074-37.709
		c-0.021-1.873-0.532-4.147-1.669-5.539c-13.494-16.507-7.966-36.641,9.99-48.392c4.192-2.744,8.229-5.911,11.755-9.46
		c17.718-17.831,48.982-17.131,65.87,1.47c2.667,2.938,6.063,5.372,9.486,7.436c14.742,8.891,21.585,24.13,16.788,38.279
		c-0.81,2.387-1.636,5.113-3.336,6.786c-4.465,4.39-4.514,9.596-4.466,15.272c0.192,23.099,0.104,46.201,0.07,69.303
		c-0.019,12.808-7.093,17.191-18.51,11.519c-9.569-4.754-19.205-9.388-28.632-14.408c-3.494-1.86-6.239-2.054-9.834-0.129
		c-9.716,5.201-19.662,9.977-29.553,14.846c-10.485,5.164-17.829,0.623-17.875-11.053
		C213.657,428.64,213.696,415.899,213.696,403.159z M268.945,372.688c2.935-1.256,8.614-2.774,13.236-5.874
		c7.24-4.852,13.874-10.639,20.562-16.271c8.02-6.754,7.958-14.192,0.023-21.004c-1.53-1.313-3.409-2.213-5.007-3.458
		c-3.84-2.992-8.039-5.673-11.324-9.196c-9.723-10.429-24.931-12.446-36.401-3.999c-7.312,5.384-14.376,11.128-21.289,17.019
		c-7.491,6.384-7.385,13.81-0.025,20.343c1.382,1.227,3.086,2.086,4.54,3.241c4.336,3.443,8.9,6.664,12.86,10.502
		C251.799,369.493,258.444,372.166,268.945,372.688z M234.918,427.418c8.16-4.066,15.535-7.453,22.618-11.365
		c5.791-3.197,11.094-3.07,16.843,0.041c7.244,3.919,14.731,7.387,22.526,11.254c0-16.27,0-31.826,0-47.744
		c-20.746,15.524-41.204,15.344-61.987,0.094C234.918,395.78,234.918,411.144,234.918,427.418z"/>
	<path fill-rule="evenodd" clip-rule="evenodd" d="M234.039,193.888c-26.159,0-52.317,0.005-78.477-0.003
		c-9.374-0.002-14.58-3.66-14.739-10.315c-0.162-6.782,5.238-10.657,14.888-10.657c53.167-0.003,106.334-0.007,159.5,0.006
		c7.438,0.001,11.604,2.746,12.79,8.291c1.196,5.601-1.83,10.662-7.408,11.959c-2.284,0.532-4.701,0.688-7.059,0.691
		C287.035,193.905,260.537,193.888,234.039,193.888z"/>
	<path fill-rule="evenodd" clip-rule="evenodd" d="M234.077,256.5c-26.837,0-53.673,0.018-80.511-0.012
		c-7.325-0.007-11.453-2.961-12.422-8.689c-0.922-5.46,2.1-10.291,7.458-11.526c2.124-0.488,4.374-0.598,6.566-0.6
		c53.165-0.03,106.329-0.006,159.493-0.05c5.609-0.005,10.706,0.975,13.005,6.77c2.804,7.065-2.189,13.687-10.532,14.05
		c-5.595,0.244-11.209,0.057-16.814,0.057C278.239,256.501,256.159,256.5,234.077,256.5z"/>
	<path display="none" fill-rule="evenodd" clip-rule="evenodd" fill="#FFFFFF" d="M270.68,371.409
		c-10.296-0.512-16.811-3.132-22.378-8.528c-3.882-3.763-8.357-6.92-12.608-10.296c-1.426-1.133-3.096-1.975-4.451-3.178
		c-7.214-6.405-7.319-13.685,0.025-19.943c6.777-5.775,13.704-11.407,20.871-16.686c11.246-8.281,26.156-6.303,35.688,3.921
		c3.221,3.454,7.338,6.083,11.103,9.016c1.566,1.221,3.408,2.104,4.909,3.391c7.778,6.678,7.839,13.971-0.023,20.592
		c-6.557,5.522-13.061,11.196-20.158,15.953C279.125,368.688,273.557,370.178,270.68,371.409z"/>
	<path display="none" fill-rule="evenodd" clip-rule="evenodd" fill="#FFFFFF" d="M237.319,425.066c0-15.955,0-31.018,0-46.785
		c20.376,14.951,40.433,15.128,60.771-0.092c0,15.605,0,30.857,0,46.808c-7.642-3.791-14.982-7.191-22.084-11.033
		c-5.637-3.05-10.836-3.175-16.513-0.04C252.549,417.759,245.319,421.079,237.319,425.066z"/>
</g>
<g display="none">
	<path fill-rule="evenodd" clip-rule="evenodd" fill="#FFFFFF" d="M513.5,191.5c0,107.333,0,214.667,0,322c-171,0-342,0-513,0
		c0-171,0-342,0-513c171,0,342,0,513,0c0,60,0,120,0,180c-0.359-1.271-0.756-2.531-1.072-3.812
		c-4.041-16.394-17.929-29.395-33.344-31.2c-19.206-2.25-35.298,5.909-43.301,22.629c-7.187,15.016-4.96,29.409,4.543,43.181
		c-29.802,26.832-59.572,53.638-89.857,80.906c-23.886-54.979-47.456-109.231-70.996-163.415
		c27.299-20.847,20.724-50.638,6.884-64.164c-16.116-15.75-42.229-15.604-58.032,0.32c-13.979,14.087-19.497,43.551,7.213,63.812
		c-23.577,54.265-47.187,108.604-71.016,163.449c-30.39-27.378-60.08-54.125-89.825-80.921c0.511-0.798,0.855-1.338,1.202-1.876
		c0.45-0.7,0.938-1.378,1.347-2.101c8.682-15.374,8.478-30.647-1.568-45.166c-9.518-13.756-26.692-20.017-42.198-16.266
		C14.372,150.5,1.069,167.461,1.547,186.593c0.486,19.445,14.103,35.687,33.484,39.3c3.651,0.68,4.772,2.135,5.576,5.45
		c9.438,38.964,19.063,77.882,28.572,116.829c1.614,6.61,4.051,13.281,4.148,19.953c0.396,27.15-0.013,54.312-0.03,81.469
		c-0.005,8.901,3.918,12.773,12.886,12.775c114.144,0.026,228.289,0.026,342.433,0.001c9.232-0.002,13.083-3.887,13.097-13.077
		c0.038-25.495,0.01-50.99,0.019-76.485c0.001-2.816-0.456-5.761,0.19-8.43c10.84-44.787,21.842-89.534,32.722-134.312
		c0.655-2.699,1.905-3.572,4.632-3.991c7.367-1.132,13.877-4.315,19.688-9.096C507.089,210.297,510.89,201.267,513.5,191.5z"/>
	<path display="inline" fill-rule="evenodd" clip-rule="evenodd" d="M508.939,190.162c-2.584,9.669-6.346,18.609-14.391,25.225
		c-5.752,4.732-12.197,7.884-19.49,9.005c-2.699,0.415-3.938,1.279-4.586,3.951c-10.77,44.33-21.662,88.629-32.395,132.968
		c-0.639,2.643-0.188,5.558-0.188,8.346c-0.01,25.24,0.02,50.48-0.02,75.721c-0.012,9.099-3.824,12.944-12.965,12.946
		c-113.003,0.025-226.006,0.025-339.009-0.001c-8.878-0.002-12.763-3.835-12.757-12.647c0.017-26.886,0.422-53.775,0.03-80.654
		c-0.097-6.605-2.509-13.209-4.107-19.754c-9.414-38.558-18.943-77.087-28.287-115.661c-0.795-3.282-1.905-4.723-5.52-5.396
		c-19.188-3.577-32.669-19.656-33.15-38.907c-0.473-18.94,12.696-35.732,31.613-40.309c15.351-3.714,32.353,2.484,41.776,16.103
		c9.945,14.374,10.147,29.494,1.552,44.714c-0.405,0.716-0.888,1.387-1.333,2.08c-0.343,0.533-0.684,1.067-1.19,1.857
		c29.447,26.528,58.84,53.007,88.927,80.112c23.591-54.298,46.964-108.093,70.306-161.815
		c-26.443-20.058-20.981-49.227-7.141-63.173c15.645-15.766,41.497-15.91,57.452-0.317c13.701,13.391,20.211,42.884-6.814,63.522
		c23.304,53.642,46.639,107.352,70.285,161.781c29.982-26.996,59.455-53.534,88.959-80.098
		c-9.408-13.634-11.611-27.883-4.498-42.749c7.924-16.553,23.854-24.63,42.869-22.402c15.26,1.788,29.01,14.658,33.01,30.888
		c0.313,1.267,0.705,2.515,1.061,3.773C508.939,182.902,508.939,186.531,508.939,190.162z M450.652,224.465
		c-2.238,1.938-3.494,2.99-4.711,4.085c-30.9,27.814-61.789,55.64-92.717,83.424c-1.695,1.523-3.531,3.105-5.592,3.965
		c-6.158,2.569-11.102-0.427-14.646-8.588c-24.477-56.349-48.924-112.711-73.492-169.022c-0.779-1.787-2.757-3.05-4.175-4.557
		c-1.283,1.463-3.039,2.72-3.78,4.419c-24.622,56.467-49.141,112.978-73.694,169.475c-4.526,10.416-11.546,11.986-19.952,4.439
		c-19.028-17.083-38.014-34.213-57.019-51.32c-13.227-11.907-26.458-23.809-39.887-35.894c-0.104,0.782-0.246,1.124-0.175,1.414
		c10.375,42.396,20.81,84.779,31.064,127.204c0.762,3.152,2.409,3.329,4.898,3.328c105.756-0.025,211.513-0.034,317.271,0.04
		c3.199,0.002,4.539-0.909,5.293-4.15c3.814-16.361,7.93-32.65,11.924-48.969C437.643,277.7,444.008,251.64,450.652,224.465z
		 M93.44,437.438c108.3,0,216.177,0,323.927,0c0-20.299,0-40.15,0-59.91c-108.172,0-215.946,0-323.927,0
		C93.44,397.583,93.44,417.314,93.44,437.438z M62.7,184.458c-0.048-11.194-9.003-20.105-20.162-20.063
		c-11.165,0.042-20.054,9.02-20.019,20.219c0.035,11.15,9.101,20.21,20.17,20.157C53.744,204.717,62.748,195.577,62.7,184.458z
		 M488.471,184.407c-0.078-11.209-9.025-20.067-20.215-20.013c-11.143,0.053-20.016,9.064-19.963,20.269
		c0.051,11.093,9.24,20.228,20.223,20.106C479.652,204.647,488.549,195.568,488.471,184.407z M235.414,93.461
		c0.081,11.15,9.171,20.13,20.249,20.006c11.163-0.126,20.006-9.152,19.918-20.331c-0.09-11.211-9.013-19.993-20.242-19.923
		C244.152,73.283,235.333,82.246,235.414,93.461z"/>
	<path fill-rule="evenodd" clip-rule="evenodd" fill="#FFFFFF" d="M454.624,226.149c-6.712,27.45-13.143,53.773-19.585,80.094
		c-4.035,16.483-8.192,32.938-12.044,49.464c-0.763,3.273-2.115,4.194-5.348,4.192c-106.825-0.075-213.65-0.066-320.475-0.041
		c-2.514,0.001-4.178-0.177-4.947-3.361c-10.358-42.854-20.898-85.664-31.378-128.488c-0.072-0.293,0.072-0.639,0.177-1.429
		c13.564,12.207,26.929,24.229,40.29,36.257c19.197,17.28,38.375,34.583,57.594,51.839c8.491,7.623,15.582,6.036,20.154-4.484
		c24.802-57.067,49.568-114.149,74.439-171.187c0.749-1.716,2.522-2.985,3.818-4.464c1.433,1.522,3.43,2.799,4.217,4.604
		c24.816,56.879,49.511,113.811,74.234,170.729c3.58,8.243,8.573,11.27,14.794,8.675c2.081-0.868,3.936-2.467,5.648-4.006
		c31.239-28.064,62.44-56.172,93.653-84.267C451.095,229.17,452.363,228.107,454.624,226.149z"/>
	<path fill-rule="evenodd" clip-rule="evenodd" fill="#FFFFFF" d="M93.803,441.274c0-20.327,0-40.258,0-60.516
		c109.072,0,217.934,0,327.2,0c0,19.96,0,40.012,0,60.516C312.164,441.274,203.197,441.274,93.803,441.274z"/>
	<path fill-rule="evenodd" clip-rule="evenodd" fill="#FFFFFF" d="M62.752,185.738c0.048,11.231-9.046,20.464-20.212,20.518
		c-11.182,0.054-20.339-9.098-20.374-20.36c-0.036-11.313,8.944-20.381,20.221-20.423C53.658,165.43,62.703,174.431,62.752,185.738z
		"/>
	<path fill-rule="evenodd" clip-rule="evenodd" fill="#FFFFFF" d="M492.824,185.688c0.079,11.273-8.907,20.444-20.156,20.568
		c-11.095,0.123-20.377-9.104-20.429-20.31c-0.053-11.318,8.911-20.42,20.166-20.474
		C483.707,165.418,492.745,174.365,492.824,185.688z"/>
	<path fill-rule="evenodd" clip-rule="evenodd" fill="#FFFFFF" d="M237.21,93.822c-0.082-11.328,8.827-20.382,20.125-20.453
		c11.343-0.07,20.356,8.801,20.446,20.125c0.089,11.292-8.843,20.409-20.118,20.536C246.474,114.156,237.292,105.085,237.21,93.822z
		"/>
</g>
</svg>
