<?xml version="1.0" encoding="utf-8"?>
<!-- Generator: Adobe Illustrator 17.0.0, SVG Export Plug-In . SVG Version: 6.00 Build 0)  -->
<!DOCTYPE svg PUBLIC "-//W3C//DTD SVG 1.1//EN" "http://www.w3.org/Graphics/SVG/1.1/DTD/svg11.dtd">
<svg version="1.1" id="Layer_1" xmlns="http://www.w3.org/2000/svg" xmlns:xlink="http://www.w3.org/1999/xlink" x="0px" y="0px"
	 width="512px" height="512px" viewBox="0 0 512 512" enable-background="new 0 0 512 512" xml:space="preserve">
<g>
	<line fill="none" stroke="#B35047" x1="32" y1="0" x2="32" y2="512"/>
	<line fill="none" stroke="#B35047" x1="64" y1="0" x2="64" y2="512"/>
	<line fill="none" stroke="#B35047" x1="96" y1="0" x2="96" y2="512"/>
	<line fill="none" stroke="#B35047" x1="128" y1="0" x2="128" y2="512"/>
	<line fill="none" stroke="#B35047" x1="160" y1="0" x2="160" y2="512"/>
	<line fill="none" stroke="#B35047" x1="192" y1="0" x2="192" y2="512"/>
	<line fill="none" stroke="#B35047" x1="224" y1="0" x2="224" y2="512"/>
	<line fill="none" stroke="#B35047" x1="256" y1="0" x2="256" y2="512"/>
	<line fill="none" stroke="#B35047" x1="288" y1="0" x2="288" y2="512"/>
	<line fill="none" stroke="#B35047" x1="320" y1="0" x2="320" y2="512"/>
	<line fill="none" stroke="#B35047" x1="352" y1="0" x2="352" y2="512"/>
	<line fill="none" stroke="#B35047" x1="384" y1="0" x2="384" y2="512"/>
	<line fill="none" stroke="#B35047" x1="416" y1="0" x2="416" y2="512"/>
	<line fill="none" stroke="#B35047" x1="448" y1="0" x2="448" y2="512"/>
	<line fill="none" stroke="#B35047" x1="480" y1="0" x2="480" y2="512"/>
	<line fill="none" stroke="#B35047" x1="0" y1="32" x2="512" y2="32"/>
	<line fill="none" stroke="#B35047" x1="0" y1="64" x2="512" y2="64"/>
	<line fill="none" stroke="#B35047" x1="0" y1="96" x2="512" y2="96"/>
	<line fill="none" stroke="#B35047" x1="0" y1="128" x2="512" y2="128"/>
	<line fill="none" stroke="#B35047" x1="0" y1="160" x2="512" y2="160"/>
	<line fill="none" stroke="#B35047" x1="0" y1="192" x2="512" y2="192"/>
	<line fill="none" stroke="#B35047" x1="0" y1="224" x2="512" y2="224"/>
	<line fill="none" stroke="#B35047" x1="0" y1="256" x2="512" y2="256"/>
	<line fill="none" stroke="#B35047" x1="0" y1="288" x2="512" y2="288"/>
	<line fill="none" stroke="#B35047" x1="0" y1="320" x2="512" y2="320"/>
	<line fill="none" stroke="#B35047" x1="0" y1="352" x2="512" y2="352"/>
	<line fill="none" stroke="#B35047" x1="0" y1="384" x2="512" y2="384"/>
	<line fill="none" stroke="#B35047" x1="0" y1="416" x2="512" y2="416"/>
	<line fill="none" stroke="#B35047" x1="0" y1="448" x2="512" y2="448"/>
	<line fill="none" stroke="#B35047" x1="0" y1="480" x2="512" y2="480"/>
	<rect x="0" fill="none" stroke="#B35047" width="512" height="512"/>
</g>
<image display="none" overflow="visible" width="512" height="512" xlink:href="../../../Knowledge/Icon/[+++++] (Full) iOS7 icons [icons8]/Very_Basic/scales_of_Balance/scales_of_Balance-512.png"  transform="matrix(1 0 0 1 -1.525879e-005 0)">
</image>
<image display="none" overflow="visible" width="512" height="512" xlink:href="../../../Knowledge/Icon/[+++++] (Full) iOS7 icons [icons8]/Very_Basic/reload/reload-512.png"  transform="matrix(1 0 0 1 -1.525879e-005 0)">
</image>
<image display="none" overflow="visible" width="512" height="512" xlink:href="../../../Knowledge/Icon/[+++++] (Full) iOS7 icons [icons8]/Very_Basic/recycle_sign/recycle_sign-512.png"  transform="matrix(1 0 0 1 -1.525879e-005 0)">
</image>
<image display="none" overflow="visible" width="512" height="512" xlink:href="../../../Knowledge/Icon/[+++++] (Full) iOS7 icons [icons8]/Very_Basic/puzzle/puzzle-512.png"  transform="matrix(1 0 0 1 -1.525879e-005 0)">
</image>
<image display="none" overflow="visible" width="512" height="512" xlink:href="../../../Knowledge/Icon/[+++++] (Full) iOS7 icons [icons8]/Very_Basic/presentation/presentation-512.png"  transform="matrix(1 0 0 1 -1.525879e-005 0)">
</image>
<image display="none" overflow="visible" width="512" height="512" xlink:href="../../../Knowledge/Icon/[+++++] (Full) iOS7 icons [icons8]/Very_Basic/plugin/plugin-512.png"  transform="matrix(1 0 0 1 -1.525879e-005 0)">
</image>
<image display="none" overflow="visible" width="512" height="512" xlink:href="../../../Knowledge/Icon/[+++++] (Full) iOS7 icons [icons8]/Very_Basic/plus/plus-512.png"  transform="matrix(1 0 0 1 -1.525879e-005 0)">
</image>
<image display="none" overflow="visible" width="512" height="512" xlink:href="../../../Knowledge/Icon/[+++++] (Full) iOS7 icons [icons8]/Very_Basic/picture/picture-512.png"  transform="matrix(1 0 0 1 -1.525879e-005 0)">
</image>
<image display="none" overflow="visible" width="512" height="512" xlink:href="../../../Knowledge/Icon/[+++++] (Full) iOS7 icons [icons8]/Very_Basic/paper_clip/paper_clip-512.png"  transform="matrix(1 0 0 1 -1.525879e-005 0)">
</image>
<image display="none" overflow="visible" width="512" height="512" xlink:href="../../../Knowledge/Icon/[+++++] (Full) iOS7 icons [icons8]/Very_Basic/opened_folder/opened_folder-512.png"  transform="matrix(1 0 0 1 -1.525879e-005 0)">
</image>
<image display="none" overflow="visible" width="512" height="512" xlink:href="../../../Knowledge/Icon/[+++++] (Full) iOS7 icons [icons8]/Very_Basic/no_smoking/no_smoking-512.png"  transform="matrix(1 0 0 1 -1.525879e-005 0)">
</image>
<image display="none" overflow="visible" width="512" height="512" xlink:href="../../../Knowledge/Icon/[+++++] (Full) iOS7 icons [icons8]/Very_Basic/not_listen/not_listen-512.png"  transform="matrix(1 0 0 1 -1.525879e-005 0)">
</image>
<image display="none" overflow="visible" width="512" height="512" xlink:href="../../../Knowledge/Icon/[+++++] (Full) iOS7 icons [icons8]/Very_Basic/minus/minus-512.png"  transform="matrix(1 0 0 1 -1.525879e-005 0)">
</image>
<image display="none" overflow="visible" width="512" height="512" xlink:href="../../../Knowledge/Icon/[+++++] (Full) iOS7 icons [icons8]/Very_Basic/megaphone/megaphone-512.png"  transform="matrix(1 0 0 1 -1.525879e-005 0)">
</image>
<image display="none" overflow="visible" width="512" height="512" xlink:href="../../../Knowledge/Icon/[+++++] (Full) iOS7 icons [icons8]/Very_Basic/megaphone2/megaphone2-512.png"  transform="matrix(1 0 0 1 -1.525879e-005 0)">
</image>
<image display="none" overflow="visible" width="512" height="512" xlink:href="../../../Knowledge/Icon/[+++++] (Full) iOS7 icons [icons8]/Very_Basic/message/message-512.png"  transform="matrix(1 0 0 1 -1.525879e-005 0)">
</image>
<image display="none" overflow="visible" width="512" height="512" xlink:href="../../../Knowledge/Icon/[+++++] (Full) iOS7 icons [icons8]/Very_Basic/male/male-512.png"  transform="matrix(1 0 0 1 -1.525879e-005 0)">
</image>
<image display="none" overflow="visible" width="512" height="512" xlink:href="../../../Knowledge/Icon/[+++++] (Full) iOS7 icons [icons8]/Very_Basic/lock/lock-512.png"  transform="matrix(1 0 0 1 -1.525879e-005 0)">
</image>
<image display="none" overflow="visible" width="512" height="512" xlink:href="../../../Knowledge/Icon/[+++++] (Full) iOS7 icons [icons8]/Very_Basic/listen/listen-512.png"  transform="matrix(1 0 0 1 -1.525879e-005 0)">
</image>
<image display="none" overflow="visible" width="512" height="512" xlink:href="../../../Knowledge/Icon/[+++++] (Full) iOS7 icons [icons8]/Very_Basic/key/key-512.png"  transform="matrix(1 0 0 1 -1.525879e-005 0)">
</image>
<image display="none" overflow="visible" width="512" height="512" xlink:href="../../../Knowledge/Icon/[+++++] (Full) iOS7 icons [icons8]/Very_Basic/info/info-512.png"  transform="matrix(1 0 0 1 -1.525879e-005 0)">
</image>
<image display="none" overflow="visible" width="512" height="512" xlink:href="../../../Knowledge/Icon/[+++++] (Full) iOS7 icons [icons8]/Very_Basic/idea/idea-512.png"  transform="matrix(1 0 0 1 -1.525879e-005 0)">
</image>
<image display="none" overflow="visible" width="512" height="512" xlink:href="../../../Knowledge/Icon/[+++++] (Full) iOS7 icons [icons8]/Very_Basic/home/home-512.png"  transform="matrix(1 0 0 1 -1.525879e-005 0)">
</image>
<image display="none" overflow="visible" width="512" height="512" xlink:href="../../../Knowledge/Icon/[+++++] (Full) iOS7 icons [icons8]/Very_Basic/help2/help2-512.png"  transform="matrix(1 0 0 1 -1.525879e-005 0)">
</image>
<image display="none" overflow="visible" width="512" height="512" xlink:href="../../../Knowledge/Icon/[+++++] (Full) iOS7 icons [icons8]/Very_Basic/help/help-512.png"  transform="matrix(1 0 0 1 -1.525879e-005 0)">
</image>
<image display="none" overflow="visible" width="512" height="512" xlink:href="../../../Knowledge/Icon/[+++++] (Full) iOS7 icons [icons8]/Very_Basic/glasses/glasses-512.png"  transform="matrix(1 0 0 1 -1.525879e-005 0)">
</image>
<image display="none" overflow="visible" width="512" height="512" xlink:href="../../../Knowledge/Icon/[+++++] (Full) iOS7 icons [icons8]/Very_Basic/folder/folder-512.png"  transform="matrix(1 0 0 1 -1.525879e-005 0)">
</image>
<image display="none" overflow="visible" width="512" height="512" xlink:href="../../../Knowledge/Icon/[+++++] (Full) iOS7 icons [icons8]/Very_Basic/flag/flag-512.png"  transform="matrix(1 0 0 1 -1.525879e-005 0)">
</image>
<image display="none" overflow="visible" width="512" height="512" xlink:href="../../../Knowledge/Icon/[+++++] (Full) iOS7 icons [icons8]/Very_Basic/flash_light/flash_light-512.png"  transform="matrix(1 0 0 1 -1.525879e-005 0)">
</image>
<image display="none" overflow="visible" width="512" height="512" xlink:href="../../../Knowledge/Icon/[+++++] (Full) iOS7 icons [icons8]/Very_Basic/filter/filter-512.png"  transform="matrix(1 0 0 1 -1.525879e-005 0)">
</image>
<image display="none" overflow="visible" width="512" height="512" xlink:href="../../../Knowledge/Icon/[+++++] (Full) iOS7 icons [icons8]/Very_Basic/female/female-512.png"  transform="matrix(1 0 0 1 -1.525879e-005 0)">
</image>
<image display="none" overflow="visible" width="512" height="512" xlink:href="../../../Knowledge/Icon/[+++++] (Full) iOS7 icons [icons8]/Very_Basic/download/download-512.png"  transform="matrix(1 0 0 1 -1.525879e-005 0)">
</image>
<image display="none" overflow="visible" width="512" height="512" xlink:href="../../../Knowledge/Icon/[+++++] (Full) iOS7 icons [icons8]/Very_Basic/document/document-512.png"  transform="matrix(1 0 0 1 -1.525879e-005 0)">
</image>
<image display="none" overflow="visible" width="512" height="512" xlink:href="../../../Knowledge/Icon/[+++++] (Full) iOS7 icons [icons8]/Very_Basic/design/design-512.png"  transform="matrix(1 0 0 1 -1.525879e-005 0)">
</image>
<image display="none" overflow="visible" width="512" height="512" xlink:href="../../../Knowledge/Icon/[+++++] (Full) iOS7 icons [icons8]/Very_Basic/copy/copy-512.png"  transform="matrix(1 0 0 1 -1.525879e-005 0)">
</image>
<image display="none" overflow="visible" width="512" height="512" xlink:href="../../../Knowledge/Icon/[+++++] (Full) iOS7 icons [icons8]/Very_Basic/code/code-512.png"  transform="matrix(1 0 0 1 -1.525879e-005 0)">
</image>
<image display="none" overflow="visible" width="512" height="512" xlink:href="../../../Knowledge/Icon/[+++++] (Full) iOS7 icons [icons8]/Very_Basic/briefcase/briefcase-512.png"  transform="matrix(1 0 0 1 -1.525879e-005 0)">
</image>
<image display="none" overflow="visible" width="512" height="512" xlink:href="../../../Knowledge/Icon/[+++++] (Full) iOS7 icons [icons8]/Very_Basic/brain/brain-512.png"  transform="matrix(1 0 0 1 -1.525879e-005 0)">
</image>
<image display="none" overflow="visible" width="512" height="512" xlink:href="../../../Knowledge/Icon/[+++++] (Full) iOS7 icons [icons8]/Very_Basic/bluetooth/bluetooth-512.png"  transform="matrix(1 0 0 1 -1.525879e-005 0)">
</image>
<image display="none" overflow="visible" width="512" height="512" xlink:href="../../../Knowledge/Icon/[+++++] (Full) iOS7 icons [icons8]/Very_Basic/bookmark/bookmark-512.png"  transform="matrix(1 0 0 1 -1.525879e-005 0)">
</image>
<image display="none" overflow="visible" width="512" height="512" xlink:href="../../../Knowledge/Icon/[+++++] (Full) iOS7 icons [icons8]/Very_Basic/archive/archive-512.png"  transform="matrix(1 0 0 1 -1.525879e-005 0)">
</image>
<image display="none" overflow="visible" width="512" height="512" xlink:href="../../../Knowledge/Icon/[+++++] (Full) iOS7 icons [icons8]/Very_Basic/wifi/wifi-512.png"  transform="matrix(1 0 0 1 -1.525879e-005 0)">
</image>
<image display="none" overflow="visible" width="512" height="512" xlink:href="../../../Knowledge/Icon/[+++++] (Full) iOS7 icons [icons8]/Very_Basic/upload/upload-512.png"  transform="matrix(1 0 0 1 -1.525879e-005 0)">
</image>
<image display="none" overflow="visible" width="512" height="512" xlink:href="../../../Knowledge/Icon/[+++++] (Full) iOS7 icons [icons8]/Very_Basic/update/update-512.png"  transform="matrix(1 0 0 1 -1.525879e-005 0)">
</image>
<image display="none" overflow="visible" width="512" height="512" xlink:href="../../../Knowledge/Icon/[+++++] (Full) iOS7 icons [icons8]/Very_Basic/unlock/unlock-512.png"  transform="matrix(1 0 0 1 -1.525879e-005 0)">
</image>
<image display="none" overflow="visible" width="512" height="512" xlink:href="../../../Knowledge/Icon/[+++++] (Full) iOS7 icons [icons8]/Very_Basic/umbrella/umbrella-512.png"  transform="matrix(1 0 0 1 -1.525879e-005 0)">
</image>
<image display="none" overflow="visible" width="512" height="512" xlink:href="../../../Knowledge/Icon/[+++++] (Full) iOS7 icons [icons8]/Very_Basic/toolbox/toolbox-512.png"  transform="matrix(1 0 0 1 -1.525879e-005 0)">
</image>
<image display="none" overflow="visible" width="512" height="512" xlink:href="../../../Knowledge/Icon/[+++++] (Full) iOS7 icons [icons8]/Very_Basic/tones/tones-512.png"  transform="matrix(1 0 0 1 -1.525879e-005 0)">
</image>
<image display="none" overflow="visible" width="512" height="512" xlink:href="../../../Knowledge/Icon/[+++++] (Full) iOS7 icons [icons8]/Very_Basic/student/student-512.png"  transform="matrix(1 0 0 1 -1.525879e-005 0)">
</image>
<image display="none" overflow="visible" width="512" height="512" xlink:href="../../../Knowledge/Icon/[+++++] (Full) iOS7 icons [icons8]/Very_Basic/speech_bubble/speech_bubble-512.png"  transform="matrix(1 0 0 1 -1.525879e-005 0)">
</image>
<image display="none" overflow="visible" width="512" height="512" xlink:href="../../../Knowledge/Icon/[+++++] (Full) iOS7 icons [icons8]/Very_Basic/smoking/smoking-512.png"  transform="matrix(1 0 0 1 -1.525879e-005 0)">
</image>
<g>
	<path display="none" fill="#FFFFFF" d="M1.058,511c0-169.962,0-339.923,0-509.97c169.897,0,339.817,0,509.885,0
		c0,169.933,0,339.952,0,509.97C341.035,511,171.058,511,1.058,511z M379.416,1.985c-0.046-0.328-0.093-0.657-0.139-0.985
		c-18.705,2.309-37.518,3.974-56.091,7.08c-27.183,4.546-51.282,15.351-71.023,35.626c-38.96,40.013-46.679,95.653-18.871,143.738
		c1.815,3.139,0.855,4.511-1.357,6.532c-67.39,61.571-134.755,123.17-202.071,184.823c-27.916,25.568-38.353,71.95-5.33,106.772
		c34.532,36.413,82.629,27.611,109.11-1.25c26.765-29.17,52.513-59.271,79.103-88.604c34.6-38.17,69.623-75.957,104.356-114.008
		c2.982-3.267,5.202-3.786,9.087-1.259c11.357,7.39,24.006,11.88,37.221,14.553c62.409,12.624,120.775-30.507,135.904-82.408
		c6.533-22.411,9.601-45.298,10.63-68.502c0.469-10.578,0.673-21.213,0.139-31.778c-0.493-9.766-9.446-14.706-18.164-10.462
		c-2.9,1.412-5.594,3.547-7.893,5.841c-20.401,20.366-40.652,40.884-61.093,61.209c-1.684,1.674-4.402,3.098-6.718,3.225
		c-21.455,1.179-42.607-1.213-63.588-5.73c-4.082-0.879-5.744-2.837-6.565-6.677c-4.314-20.179-6.608-40.523-4.889-61.145
		c0.235-2.815,1.735-6.09,3.715-8.104c18.231-18.551,36.698-36.87,55.093-55.26c3.046-3.045,6.261-5.947,9.07-9.198
		c3.821-4.422,6.206-9.482,4.039-15.472c-2.402-6.643-7.982-8.39-14.293-8.526C392.34,1.876,385.877,1.985,379.416,1.985z"/>
	<path d="M378.575,1.988c6.479,0,12.96-0.109,19.436,0.031c6.329,0.137,11.925,1.889,14.333,8.55
		c2.172,6.007-0.219,11.081-4.051,15.516c-2.817,3.26-6.041,6.17-9.096,9.224c-18.447,18.442-36.966,36.812-55.248,55.416
		c-1.986,2.02-3.491,5.305-3.726,8.127c-1.724,20.68,0.577,41.081,4.903,61.318c0.823,3.851,2.49,5.815,6.584,6.696
		c21.04,4.53,42.251,6.929,63.767,5.746c2.322-0.128,5.048-1.555,6.737-3.235c20.499-20.383,40.806-40.958,61.265-61.382
		c2.305-2.301,5.008-4.442,7.916-5.858c8.743-4.256,17.721,0.698,18.215,10.491c0.535,10.595,0.331,21.26-0.14,31.868
		c-1.032,23.269-4.109,46.221-10.66,68.695c-15.172,52.047-73.702,95.3-136.287,82.64c-13.253-2.681-25.937-7.184-37.326-14.594
		c-3.895-2.535-6.122-2.013-9.112,1.263c-34.831,38.158-69.952,76.051-104.65,114.329c-26.665,29.416-52.486,59.602-79.326,88.854
		c-26.555,28.942-74.788,37.768-109.417,1.253c-33.116-34.92-22.65-81.433,5.345-107.072
		c67.505-61.827,135.06-123.599,202.64-185.344c2.218-2.027,3.182-3.403,1.361-6.551c-27.887-48.22-20.146-104.017,18.924-144.143
		C270.76,23.494,294.927,12.659,322.187,8.1c18.625-3.114,37.491-4.784,56.249-7.1C378.482,1.329,378.528,1.658,378.575,1.988z
		 M245.055,206.409c-0.66,0.507-1.079,0.782-1.444,1.116c-68.296,62.466-136.839,124.665-204.728,187.57
		c-20.563,19.054-28.406,53.428-2.047,79.947c13.641,13.725,29.717,20.466,49.205,16.413c15.186-3.159,26.944-11.623,37.322-23.155
		c60.017-66.693,120.372-133.081,180.603-199.581c0.521-0.575,0.907-1.271,1.537-2.17
		C285.338,246.486,265.324,226.574,245.055,206.409z M490.752,128.344c-2.321,2.218-3.632,3.417-4.883,4.674
		c-17.11,17.2-34.317,34.306-51.245,51.684c-4.474,4.592-9.515,7.123-15.745,7.397c-25.537,1.125-50.733-1.208-75.57-7.394
		c-8.834-2.2-13.916-7.715-16.114-16.387c-5.551-21.897-7.384-44.167-6.964-66.68c0.197-10.56,3.55-19.227,11.71-26.834
		c16.764-15.628,32.607-32.242,48.819-48.462c1.241-1.242,2.399-2.567,4.114-4.41c-1.681-0.141-2.595-0.296-3.507-0.284
		c-20.135,0.265-40.103,1.983-59.841,6.242c-21.722,4.687-41.033,13.344-56.833,29.731c-38.789,40.228-40.427,97.126-2.551,138.111
		c18.028,19.508,37.178,38.015,56.388,56.383c17.447,16.682,38.672,24.973,62.896,26.315c42.659,2.364,80.357-28.303,93.323-57.039
		C487.89,192.265,489.351,161.031,490.752,128.344z"/>
	<path display="none" fill="#FFFFFF" d="M246.272,205.832c20.211,20.108,40.169,39.965,60.278,59.971
		c-0.629,0.896-1.014,1.591-1.533,2.164c-60.062,66.313-120.247,132.515-180.096,199.02c-10.349,11.5-22.074,19.941-37.217,23.09
		c-19.433,4.042-35.463-2.681-49.066-16.367c-26.284-26.445-18.464-60.723,2.041-79.723
		c67.698-62.728,136.049-124.752,204.153-187.043C245.196,206.612,245.614,206.338,246.272,205.832z"/>
	<path display="none" fill="#FFFFFF" d="M491.279,127.987c-1.397,32.594-2.854,63.741-15.96,92.788
		c-12.93,28.656-50.522,59.236-93.061,56.879c-24.156-1.338-45.321-9.606-62.719-26.241c-19.155-18.316-38.252-36.772-56.229-56.224
		c-37.77-40.87-36.135-97.608,2.544-137.723c15.756-16.341,35.013-24.973,56.673-29.648c19.683-4.247,39.594-5.96,59.673-6.225
		c0.909-0.012,1.821,0.142,3.497,0.283c-1.71,1.838-2.864,3.159-4.102,4.397c-16.166,16.173-31.965,32.742-48.681,48.325
		c-8.137,7.586-11.481,16.229-11.677,26.759c-0.419,22.449,1.41,44.657,6.945,66.492c2.192,8.647,7.26,14.147,16.069,16.341
		c24.767,6.168,49.893,8.495,75.358,7.373c6.212-0.274,11.24-2.797,15.701-7.376c16.88-17.329,34.039-34.387,51.101-51.539
		C487.657,131.394,488.964,130.199,491.279,127.987z"/>
</g>
<g display="none">
	<path fill="#FFFFFF" d="M217.5,513.5c-72.309,0-144.617,0-216.963,0c0-170.917,0-341.833,0-512.875c170.963,0,341.963,0,512.963,0
		c0,72.258,0,144.567,0,216.875c-23.819-3.874-47.626-7.824-71.47-11.534c-3.236-0.503-4.148-2.137-5.199-4.847
		c-4.025-10.373-8.172-20.716-12.803-30.828c-1.41-3.079-1.244-4.928,0.613-7.542c12.828-18.059,25.506-36.225,38.221-54.365
		c1.015-1.449,1.947-2.956,2.58-3.922c-18.75-18.763-37.101-37.126-55.641-55.68c-1.035,0.713-2.401,1.62-3.731,2.575
		c-17.994,12.923-36.027,25.792-53.925,38.847c-2.678,1.953-4.496,1.849-7.495,0.481c-10.271-4.687-20.723-9.014-31.288-12.994
		c-2.952-1.112-4.24-2.443-4.723-5.389c-1.992-12.154-4.116-24.286-6.242-36.417c-2-11.409-4.063-22.807-6.095-34.186
		c-26.475,0-52.431,0-78.604,0c-0.415,2.245-0.843,4.339-1.186,6.446c-3.449,21.194-6.873,42.391-10.339,63.582
		c-0.392,2.394-0.711,4.363-3.848,5.527c-11.204,4.156-22.145,9.017-33.289,13.342c-1.608,0.624-4.233,0.44-5.627-0.498
		c-8.011-5.392-15.79-11.128-23.653-16.742c-11.629-8.303-23.262-16.601-34.213-24.416C86.763,67.723,68.322,86.168,49.69,104.805
		c0.78,1.146,1.882,2.802,3.021,4.432c12.406,17.746,24.81,35.493,37.241,53.221c1.361,1.941,2.209,3.401,0.951,6.179
		c-4.998,11.041-9.378,22.36-14.249,33.461c-0.683,1.555-2.677,3.245-4.315,3.557c-11.28,2.144-22.626,3.941-33.952,5.844
		c-12.241,2.056-24.483,4.105-36.675,6.15c0,26.521,0,52.477,0,78.518c1.613,0.386,3.035,0.806,4.485,1.061
		c21.471,3.787,42.934,7.626,64.433,11.253c3.701,0.624,5.437,2.159,6.775,5.803c3.776,10.283,7.959,20.444,12.581,30.374
		c1.59,3.415,1.409,5.509-0.701,8.413c-12.04,16.575-23.894,33.286-35.808,49.953c-1.712,2.394-3.408,4.799-4.842,6.819
		c18.79,18.723,37.18,37.047,55.889,55.69c20.192-14.122,40.77-28.513,60.324-42.19c13.063,5.082,25.307,9.771,37.461,14.679
		c1.351,0.545,2.93,2.218,3.165,3.581C209.598,465.549,213.528,489.528,217.5,513.5z"/>
	<path display="inline" d="M216.036,511c-3.958-23.887-7.874-47.782-11.983-71.644c-0.234-1.358-1.808-3.025-3.154-3.568
		c-12.112-4.891-24.313-9.564-37.33-14.628c-19.486,13.628-39.991,27.969-60.112,42.041c-18.644-18.578-36.969-36.838-55.693-55.495
		c1.428-2.012,3.119-4.409,4.825-6.795c11.872-16.608,23.684-33.261,35.682-49.777c2.102-2.894,2.283-4.98,0.698-8.384
		c-4.606-9.895-8.774-20.02-12.537-30.268c-1.333-3.63-3.064-5.16-6.751-5.782c-21.423-3.613-42.81-7.439-64.206-11.213
		c-1.445-0.255-2.861-0.673-4.469-1.058c0-25.95,0-51.814,0-78.242c12.149-2.037,24.349-4.079,36.546-6.128
		c11.286-1.896,22.592-3.687,33.832-5.823c1.632-0.31,3.62-1.994,4.3-3.544c4.854-11.062,9.218-22.341,14.199-33.343
		c1.253-2.768,0.409-4.223-0.948-6.157c-12.388-17.665-24.747-35.351-37.11-53.034c-1.136-1.624-2.233-3.275-3.011-4.417
		c18.567-18.571,36.943-36.952,55.655-55.668c10.913,7.787,22.504,16.057,34.093,24.331c7.835,5.594,15.587,11.309,23.569,16.683
		c1.39,0.935,4.005,1.118,5.608,0.497c11.105-4.31,22.008-9.154,33.172-13.295c3.126-1.16,3.444-3.122,3.834-5.508
		c3.454-21.116,6.866-42.239,10.303-63.358c0.342-2.1,0.768-4.187,1.182-6.423c26.081,0,51.946,0,78.328,0
		c2.024,11.34,4.081,22.697,6.073,34.066c2.119,12.088,4.235,24.178,6.22,36.289c0.481,2.935,1.765,4.262,4.707,5.37
		c10.528,3.966,20.944,8.277,31.178,12.948c2.989,1.364,4.8,1.468,7.469-0.479c17.835-13.008,35.805-25.832,53.735-38.71
		c1.326-0.952,2.686-1.856,3.718-2.566c18.476,18.488,36.761,36.787,55.446,55.484c-0.631,0.962-1.559,2.464-2.571,3.908
		c-12.67,18.076-25.303,36.178-38.086,54.174c-1.85,2.605-2.017,4.447-0.611,7.515c4.615,10.076,8.747,20.382,12.758,30.719
		c1.048,2.701,1.957,4.329,5.181,4.83c23.761,3.697,47.484,7.633,71.219,11.494c0,26.241,0,52.481,0,78.722
		c-24.001,4.179-48.013,8.299-71.977,12.679c-1.542,0.282-3.266,2.342-3.97,3.978c-4.446,10.333-8.413,20.875-13.03,31.127
		c-1.337,2.969-1.527,4.792,0.438,7.481c13.117,17.945,26.048,36.027,39.03,54.071c0.941,1.308,1.805,2.671,2.185,3.236
		c-18.735,18.697-37.123,37.046-55.708,55.593c-1.084-0.746-2.724-1.858-4.346-2.996c-17.792-12.475-35.582-24.952-53.368-37.435
		c-1.883-1.321-3.355-2.415-6.161-1.151c-11.003,4.953-22.246,9.372-33.319,14.175c-1.367,0.593-2.996,2.171-3.243,3.522
		c-4.372,23.965-8.549,47.965-12.767,71.958C268.517,511,242.276,511,216.036,511z M277.487,490.603
		c3.885-22.006,7.73-43.213,11.297-64.467c0.71-4.233,2.194-6.566,6.679-7.613c17.421-4.066,33.586-11.315,48.853-20.555
		c2.652-1.605,4.503-1.528,7.066,0.299c16.894,12.042,33.917,23.903,50.908,35.808c1.441,1.01,2.955,1.916,3.498,2.266
		c10.707-10.662,20.902-20.815,31.306-31.175c-12.674-17.616-25.615-35.695-38.692-53.675c-1.756-2.414-2.384-4.276-0.677-7.064
		c9.682-15.814,16.623-32.806,20.993-50.816c0.706-2.91,2.206-4.013,4.979-4.457c8.351-1.339,16.671-2.871,25.003-4.334
		c13.843-2.431,27.685-4.867,41.892-7.366c0-14.135,0.076-27.894-0.16-41.648c-0.017-0.986-2.213-2.569-3.579-2.801
		c-20.275-3.454-40.559-6.876-60.897-9.928c-4.599-0.69-6.71-2.445-7.818-7.006c-4.174-17.195-11.118-33.312-20.264-48.449
		c-1.598-2.645-1.49-4.531,0.335-7.093c12.035-16.898,23.889-33.926,35.788-50.921c1.016-1.451,1.936-2.969,2.353-3.613
		c-10.603-10.694-20.738-20.917-31.069-31.338c-17.464,12.536-35.317,25.223-52.988,38.158c-3.104,2.272-5.311,2.724-8.745,0.614
		c-15.071-9.259-31.209-16.155-48.449-20.22c-4.224-0.996-5.721-3.122-6.407-7.28c-3.533-21.422-7.405-42.789-11.261-64.757
		c-1.955,0-3.739,0-5.522,0c-9.466,0-18.932,0-28.397,0c-10.138,0-10.049,0.014-11.625,9.899
		c-2.976,18.674-5.989,37.342-9.226,55.972c-0.322,1.851-2.007,4.542-3.55,4.939c-19.583,5.038-38.048,12.65-55.363,23.462
		c-19.336-13.8-38.498-27.476-57.257-40.865c-10.452,10.583-20.655,20.914-31.13,31.521c0.651,0.944,1.672,2.441,2.71,3.926
		c11.497,16.466,22.899,33,34.584,49.332c2.197,3.071,2.216,5.232,0.312,8.34c-9.244,15.088-16.098,31.252-20.243,48.448
		c-1.131,4.69-3.474,6.179-7.922,6.868c-19.995,3.1-39.924,6.627-59.911,9.781c-3.034,0.479-3.789,1.672-3.765,4.48
		c0.108,12.454,0.039,24.91,0.076,37.364c0.003,0.935,0.331,1.869,0.535,2.95c21.41,3.783,42.619,7.614,63.867,11.207
		c3.888,0.658,5.949,2.106,6.912,6.162c4.168,17.553,11.165,33.999,20.604,49.363c1.849,3.01,1.534,5.059-0.512,7.866
		c-11.927,16.364-23.632,32.889-35.401,49.368c-1.025,1.435-1.966,2.929-2.602,3.881c10.597,10.54,20.8,20.689,31.28,31.113
		c1.056-0.715,2.566-1.706,4.046-2.742c16.451-11.519,32.98-22.929,49.274-34.667c3.245-2.338,5.52-2.29,8.754-0.337
		c14.561,8.794,30.015,15.651,46.623,19.461c5.727,1.314,7.779,4.029,8.611,9.799c2.841,19.695,6.348,39.296,9.771,58.903
		c0.234,1.339,1.861,3.464,2.87,3.481C249.586,490.679,263.344,490.603,277.487,490.603z"/>
	<path fill="#FFFFFF" d="M296.5,513.5c4.234-24.077,8.425-48.162,12.812-72.212c0.247-1.356,1.883-2.939,3.255-3.534
		c11.112-4.821,22.395-9.254,33.437-14.225c2.817-1.268,4.294-0.17,6.183,1.156c17.849,12.528,35.702,25.048,53.557,37.567
		c1.628,1.142,3.274,2.257,4.362,3.006c18.651-18.612,37.103-37.027,55.904-55.79c-0.381-0.567-1.249-1.935-2.193-3.247
		c-13.028-18.108-26.004-36.253-39.168-54.262c-1.972-2.698-1.782-4.528-0.44-7.507c4.634-10.288,8.615-20.868,13.076-31.237
		c0.706-1.642,2.437-3.709,3.984-3.992c24.049-4.396,48.145-8.529,72.231-12.724c0,72.333,0,144.667,0,217
		C441.167,513.5,368.833,513.5,296.5,513.5z"/>
	<path fill="#FFFFFF" d="M279.168,493.031c-14.193,0-27.999,0.076-41.801-0.157c-1.012-0.017-2.646-2.15-2.88-3.494
		c-3.436-19.676-6.955-39.346-9.806-59.111c-0.835-5.79-2.894-8.515-8.642-9.834c-16.667-3.823-32.175-10.704-46.788-19.529
		c-3.245-1.96-5.528-2.008-8.785,0.339c-16.351,11.779-32.939,23.229-49.448,34.789c-1.485,1.039-3,2.035-4.06,2.752
		c-10.517-10.461-20.756-20.645-31.39-31.223c0.638-0.955,1.583-2.455,2.611-3.895c11.81-16.537,23.557-33.121,35.526-49.542
		c2.053-2.817,2.37-4.873,0.514-7.894c-9.472-15.418-16.493-31.922-20.677-49.537c-0.967-4.07-3.035-5.524-6.937-6.184
		c-21.324-3.606-42.607-7.451-64.093-11.247c-0.205-1.085-0.534-2.022-0.537-2.961c-0.037-12.499,0.031-24.998-0.077-37.496
		c-0.024-2.818,0.734-4.015,3.778-4.496c20.058-3.165,40.057-6.705,60.123-9.816c4.464-0.692,6.816-2.186,7.95-6.893
		c4.16-17.257,11.038-33.478,20.314-48.619c1.911-3.119,1.892-5.287-0.313-8.369c-11.725-16.39-23.168-32.982-34.706-49.506
		c-1.041-1.491-2.066-2.993-2.719-3.94c10.513-10.645,20.751-21.012,31.24-31.632c18.826,13.436,38.055,27.16,57.46,41.009
		c17.376-10.851,35.906-18.489,55.559-23.545c1.548-0.398,3.24-3.099,3.562-4.956c3.248-18.695,6.271-37.43,9.258-56.169
		c1.581-9.92,1.493-9.934,11.666-9.934c9.499,0,18.998,0,28.498,0c1.79,0,3.58,0,5.542,0c3.869,22.046,7.755,43.488,11.3,64.986
		c0.688,4.173,2.191,6.307,6.43,7.306c17.301,4.079,33.496,10.999,48.62,20.291c3.446,2.117,5.661,1.664,8.776-0.616
		c17.733-12.981,35.65-25.712,53.175-38.293c10.368,10.457,20.538,20.716,31.179,31.448c-0.419,0.646-1.342,2.17-2.362,3.626
		c-11.941,17.055-23.836,34.143-35.914,51.101c-1.831,2.571-1.939,4.464-0.336,7.118c9.179,15.191,16.147,31.365,20.336,48.621
		c1.111,4.578,3.229,6.338,7.845,7.031c20.41,3.063,40.765,6.497,61.112,9.963c1.37,0.233,3.574,1.822,3.591,2.811
		c0.237,13.802,0.161,27.61,0.161,41.795c-14.257,2.507-28.148,4.952-42.04,7.392c-8.361,1.468-16.71,3.006-25.091,4.35
		c-2.782,0.446-4.288,1.553-4.996,4.473c-4.385,18.073-11.35,35.125-21.067,50.996c-1.713,2.798-1.083,4.666,0.679,7.089
		c13.122,18.044,26.11,36.186,38.828,53.865c-10.441,10.397-20.672,20.585-31.417,31.285c-0.546-0.352-2.065-1.261-3.511-2.274
		c-17.051-11.948-34.135-23.85-51.088-35.935c-2.572-1.833-4.43-1.911-7.091-0.3c-15.32,9.272-31.542,16.547-49.025,20.627
		c-4.5,1.05-5.989,3.392-6.702,7.639C286.926,449.665,283.068,470.947,279.168,493.031z M349.585,257.446
		c-0.04-50.935-41.37-92.161-92.264-92.031c-50.775,0.129-91.765,41.111-91.907,91.889c-0.142,50.891,41.077,92.23,92.014,92.281
		C308.34,349.637,349.625,308.36,349.585,257.446z"/>
	<path display="inline" d="M347.656,255.847c0.04,50.735-41.1,91.867-91.832,91.815c-50.758-0.052-91.832-41.245-91.69-91.957
		c0.141-50.599,40.987-91.437,91.583-91.566C306.432,164.011,347.616,205.091,347.656,255.847z M327.324,256.559
		c0.859-38.672-30.867-71.042-70.646-72.081c-38.59-1.008-71.002,30.647-72.2,70.515c-1.163,38.7,31.09,71.617,70.883,72.342
		C294.122,328.042,326.442,296.255,327.324,256.559z"/>
	<path fill="#FFFFFF" d="M329.181,258.161c-0.885,39.836-33.319,71.735-72.217,71.026c-39.933-0.728-72.3-33.761-71.133-72.598
		c1.202-40.009,33.728-71.776,72.455-70.764C298.205,186.867,330.043,219.352,329.181,258.161z"/>
</g>
<g display="none">
	<path fill="#FFFFFF" d="M0.504,513.5C0.503,342.544,0.503,171.587,0.503,0.565c170.912,0,341.827,0,512.869,0
		c0,170.935,0,341.935,0.004,512.935C342.422,513.5,171.464,513.5,0.504,513.5z M318.745,347.322
		c44.85,44.851,89.491,89.493,133.762,133.764c9.558-9.553,19.057-19.048,29.111-29.096
		c-43.961-43.96-88.221-88.219-132.473-132.471c66.792-80.555,47.699-189.742-21.368-247.191
		C259.323,15.39,158.197,19.433,93.926,82.938C30.914,145.2,24.334,245.594,81.702,316.233
		C137.26,384.642,238.848,403.255,318.745,347.322z"/>
	<path display="inline" d="M320.484,358.99c-90.796,63.562-206.24,42.411-269.375-35.329C-14.085,243.387-6.607,129.299,65,58.545
		c73.037-72.167,187.957-76.762,265.749-12.057c78.487,65.284,100.185,189.364,24.282,280.907
		c50.288,50.287,100.585,100.583,150.542,150.539c-11.425,11.419-22.22,22.209-33.082,33.065
		C422.182,460.69,371.452,409.959,320.484,358.99z M378.898,198.52c-1.003-97.726-78.49-174.114-174.759-174.237
		C107.737,24.16,29.506,103.087,29.872,198.921c0.368,96.505,78.608,174.496,174.667,174.206
		C300.79,372.837,378.337,295.6,378.898,198.52z"/>
	<path fill="#FFFFFF" d="M370.148,206.113c-0.493,85.428-68.733,153.394-153.432,153.649
		c-84.529,0.255-153.378-68.374-153.702-153.296c-0.322-84.332,68.519-153.785,153.35-153.677
		C301.079,52.897,369.265,120.117,370.148,206.113z M226.637,216.277c24.462,0,48.026,0,71.536,0c0-6.916,0-13.338,0-20.321
		c-23.877,0-47.445,0-71.597,0c0-24.101,0-47.641,0-71.21c-7.001,0-13.403,0-20.378,0c0,23.844,0,47.376,0,71.51
		c-24.119,0-47.666,0-71.335,0c0,7.02,0,13.422,0,20.301c23.855,0,47.421,0,71.699,0c0,24.139,0,47.81,0,71.48
		c6.989,0,13.255,0,20.075,0C226.637,264.22,226.637,240.664,226.637,216.277z"/>
	<path display="inline" d="M215.813,210.071c0,27.713,0,54.482,0,81.548c-7.751,0-14.871,0-22.813,0c0-26.899,0-53.798,0-81.23
		c-27.59,0-54.37,0-81.479,0c0-7.817,0-15.092,0-23.07c26.897,0,53.656,0,81.065,0c0-27.426,0-54.168,0-81.264
		c7.926,0,15.202,0,23.157,0c0,26.783,0,53.534,0,80.922c27.446,0,54.229,0,81.363,0c0,7.936,0,15.234,0,23.093
		C270.389,210.071,243.612,210.071,215.813,210.071z"/>
</g>
<g display="none">
	<path fill="#FFFFFF" d="M513.35,513.5c-170.883,0-341.841,0-512.825,0c0-170.942,0-341.883,0-512.912
		c170.875,0,341.775,0,512.825,0C513.35,171.5,513.35,342.5,513.35,513.5z M452.548,481.526c9.868-9.869,19.278-19.28,28.972-28.975
		c-21.964-21.963-44.102-44.1-66.241-66.235c-22.131-22.128-44.263-44.255-66.639-66.627c20.18-24.281,33.553-51.436,39.015-82.298
		c5.489-31.019,2.987-61.316-7.82-90.961c-10.756-29.506-28.274-54.318-52.393-74.197C259.257,16.037,159.222,18.679,94.395,82.447
		C33.18,142.662,25.73,236.995,73.811,305.691c26.345,37.64,62.343,61.656,107.395,70.866
		c49.658,10.152,95.451-0.195,137.389-29.112c22.355,22.393,44.591,44.678,66.841,66.949
		C407.805,436.786,430.19,459.163,452.548,481.526z"/>
	<path display="inline" d="M472.311,511c-25.378-25.384-50.787-50.784-76.179-76.201c-25.256-25.28-50.495-50.576-75.871-75.993
		c-47.603,32.823-99.583,44.568-155.95,33.045c-51.137-10.455-91.999-37.715-121.903-80.44
		c-54.577-77.976-46.12-185.053,23.365-253.403c73.584-72.382,187.134-75.381,264.529-11.594
		c27.377,22.564,47.262,50.728,59.471,84.22c12.267,33.65,15.107,68.04,8.876,103.249c-6.199,35.031-21.38,65.854-44.285,93.416
		c25.399,25.395,50.521,50.511,75.642,75.628c25.13,25.126,50.258,50.254,75.19,75.183C494.193,489.115,483.512,499.797,472.311,511
		z M378.778,198.593c-0.102-95.961-78.51-174.386-174.344-174.383C108.48,24.213,30.39,102.337,30.153,198.567
		c-0.236,95.89,78.06,174.166,174.254,174.209C300.475,372.818,378.881,294.498,378.778,198.593z"/>
	<path fill="#FFFFFF" d="M370.147,206.301c0.09,84.491-68.984,153.489-153.619,153.452
		c-84.745-0.038-153.723-68.997-153.515-153.475C63.222,121.5,132.018,52.675,216.553,52.672
		C300.981,52.669,370.057,121.761,370.147,206.301z M134.931,196.365c0,6.646,0,13.178,0,19.826c54.556,0,108.883,0,163.277,0
		c0-6.744,0-13.16,0-19.826C243.877,196.365,189.824,196.365,134.931,196.365z"/>
	<path display="inline" d="M111.786,187.315c62.309,0,123.664,0,185.334,0c0,7.567,0,14.85,0,22.505c-61.742,0-123.408,0-185.334,0
		C111.786,202.273,111.786,194.859,111.786,187.315z"/>
</g>
<g display="none">
	<path fill="#FFFFFF" d="M513.35,513.5c-170.883,0-341.841,0-512.825,0c0-170.942,0-341.883,0-512.912
		c170.875,0,341.775,0,512.825,0C513.35,171.5,513.35,342.5,513.35,513.5z M318.502,347.566
		c44.693,44.694,89.434,89.436,133.66,133.663c9.828-9.83,19.321-19.324,29.021-29.026c-21.791-21.785-43.94-43.927-66.087-66.071
		c-22.111-22.107-44.22-44.215-66.287-66.278c66.057-79.669,49.503-188.702-20.766-247.186
		c-66.95-55.721-167.386-55.019-233.484,9.601c-62.054,60.665-71.293,161.008-13.441,233.254
		C134.926,382.72,236.565,404.602,318.502,347.566z"/>
	<path display="inline" d="M320.378,359.168c-93.074,64.789-208.529,39.933-269.653-36.399
		c-65.716-82.067-55.221-196.049,15.268-264.96c75.083-73.403,189.172-74.201,265.222-10.906
		c79.82,66.433,98.625,190.288,23.589,280.786c25.066,25.063,50.181,50.176,75.298,75.288c25.158,25.153,50.318,50.305,75.07,75.052
		c-11.018,11.02-21.802,21.805-32.966,32.971C421.969,460.761,371.147,409.938,320.378,359.168z M204.324,24.189
		C107.9,24.741,29.697,103.2,30.162,198.921c0.469,96.56,78.637,174.437,174.628,174.104
		c96.32-0.334,174.337-77.643,174.083-174.571C378.617,100.644,300.431,24.887,204.324,24.189z"/>
	<path fill="#FFFFFF" d="M216.335,52.672c84.606,0.614,153.436,67.306,153.662,153.412c0.223,85.329-68.458,153.387-153.252,153.681
		c-84.504,0.293-153.318-68.265-153.731-153.27C62.605,122.228,131.45,53.158,216.335,52.672z"/>
</g>
<g display="none">
	<path fill="#FFFFFF" d="M513.5,288.5c0,75,0,150,0,225c-171,0-342,0-513,0c0-171,0-342,0-513c171,0,342,0,513,0
		c0,89.667,0,179.333,0,269c-0.313-0.922-0.761-1.821-0.918-2.769c-5.93-35.969-25.935-60.543-59.94-73.524
		c-6.29-2.401-13.046-3.584-19.564-5.323c1.363-67.127-41.135-118.143-93.687-133.019c-70.943-20.081-124.362,5.92-162.397,67.685
		c-0.578-0.307-1.447-0.756-2.305-1.228c-25.02-13.773-50.058-13.804-74.426,1.104c-18.788,11.494-29.68,28.694-32.94,50.596
		c-0.401,2.692-0.537,5.126-3.974,6.611C15.176,200.442-8.03,248.451,5.505,298.845c10.346,38.52,47.576,69.221,87.519,70.656
		c30.124,1.082,60.306,0.541,90.463,0.662c1.802,0.007,3.677-0.302,5.396-0.849c4.256-1.354,6.602-4.496,6.859-8.869
		c0.259-4.39-1.744-7.901-5.84-9.538c-2.388-0.955-5.174-1.254-7.783-1.263c-26.329-0.087-52.66,0.032-78.988-0.119
		c-5.968-0.034-12.042-0.321-17.879-1.458c-34.01-6.629-60.4-36.513-62.94-69.407c-3.147-40.763,22.713-72.213,54.238-82.188
		c8.268-2.616,10.23-5.33,10.538-14.053c0.715-20.218,9.984-35.348,27.734-44.837c18.843-10.073,41.626-6.88,57.689,7.424
		c6.142,5.469,11.98,6.303,16.275,1.646c2.166-2.348,3.319-5.685,4.723-8.673c20.237-43.054,53.925-67.111,101.543-69.125
		c36.627-1.549,67.354,12.852,90.963,40.942c19.971,23.762,28.539,51.605,25.952,82.593c-0.959,11.491,2.281,15.774,13.765,16.111
		c41.113,1.205,73.373,40.694,66.407,81.285c-6.04,35.197-34.299,59.466-70.08,59.751c-29.661,0.237-59.325-0.011-88.987,0.146
		c-3.197,0.017-6.782,0.61-9.491,2.155c-4.198,2.394-5.198,6.739-3.824,11.371c1.326,4.469,5.654,6.974,12.058,6.981
		c29.829,0.03,59.66,0.227,89.487-0.041c40.832-0.368,74.115-24.057,87.221-61.929C510.733,301.836,511.868,295.082,513.5,288.5z
		 M247.332,447.525c-2.009-1.841-3.22-2.87-4.341-3.988c-9.199-9.18-18.38-18.379-27.571-27.568
		c-3.618-3.616-7.689-5.994-12.925-3.77c-7.288,3.095-8.34,11.388-2.112,17.659c18.317,18.442,36.733,36.786,55.118,55.161
		c0.565,0.565,1.216,1.044,1.844,1.577c0.608-0.37,1.086-0.549,1.415-0.878c18.749-18.717,37.532-37.401,56.15-56.248
		c1.745-1.766,3.044-4.455,3.499-6.91c0.841-4.539-1.19-8.134-5.438-10.167c-4.681-2.241-8.835-0.804-12.283,2.534
		c-6.943,6.72-13.769,13.566-20.502,20.496c-3.776,3.887-7.271,8.049-10.892,12.086c-0.542-0.345-1.084-0.69-1.626-1.036
		c0-1.759,0-3.518,0-5.277c0-56.318,0.012-112.636-0.037-168.954c-0.002-2.629-0.127-5.393-0.922-7.861
		c-2.192-6.808-10.864-9.219-15.537-3.892c-2.329,2.656-3.668,7.093-3.682,10.731c-0.223,56.65-0.156,113.302-0.157,169.953
		C247.333,442.927,247.332,444.682,247.332,447.525z"/>
	<path display="inline" d="M511,277.063c-1.626,6.559-2.758,13.288-4.958,19.648c-13.06,37.738-46.225,61.343-86.913,61.71
		c-29.721,0.268-59.447,0.072-89.17,0.041c-6.381-0.007-10.693-2.502-12.015-6.956c-1.37-4.615-0.373-8.945,3.81-11.33
		c2.7-1.54,6.271-2.131,9.457-2.148c29.557-0.156,59.116,0.09,88.672-0.145c35.654-0.284,63.813-24.468,69.832-59.54
		c6.942-40.448-25.204-79.796-66.172-80.997c-11.444-0.336-14.673-4.604-13.717-16.054c2.578-30.878-5.96-58.622-25.86-82.3
		C360.441,71,329.823,56.65,293.325,58.194c-47.45,2.007-81.018,25.979-101.183,68.881c-1.399,2.977-2.548,6.302-4.707,8.642
		c-4.28,4.64-10.097,3.81-16.217-1.64c-16.006-14.254-38.708-17.436-57.484-7.398c-17.687,9.455-26.923,24.531-27.636,44.678
		c-0.307,8.692-2.262,11.396-10.501,14.003c-31.414,9.94-57.182,41.279-54.046,81.897c2.531,32.778,28.828,62.556,62.717,69.162
		c5.816,1.134,11.869,1.419,17.816,1.453c26.236,0.15,52.473,0.031,78.709,0.118c2.6,0.009,5.376,0.307,7.755,1.259
		c4.082,1.632,6.077,5.13,5.819,9.504c-0.257,4.358-2.594,7.488-6.835,8.837c-1.713,0.545-3.581,0.853-5.377,0.846
		c-30.05-0.12-60.125,0.419-90.142-0.659c-39.802-1.43-76.9-32.022-87.209-70.406c-13.487-50.215,9.637-98.054,57.64-118.789
		c3.425-1.479,3.56-3.905,3.96-6.587c3.249-21.825,14.102-38.964,32.824-50.417c24.282-14.855,49.232-14.823,74.163-1.1
		c0.854,0.47,1.721,0.918,2.296,1.224c37.9-61.547,91.13-87.456,161.822-67.445c52.366,14.823,94.713,65.658,93.355,132.548
		c6.495,1.733,13.227,2.911,19.495,5.304c33.884,12.935,53.819,37.422,59.728,73.263c0.156,0.944,0.603,1.84,0.914,2.759
		C511,264.441,511,270.752,511,277.063z"/>
	<path display="inline" d="M245.775,435.524c0-2.833,0-4.581,0-6.33c0-56.451-0.067-112.902,0.156-169.352
		c0.014-3.625,1.348-8.046,3.669-10.693c4.656-5.308,13.298-2.905,15.482,3.878c0.792,2.459,0.916,5.213,0.918,7.833
		c0.049,56.119,0.037,112.237,0.037,168.356c0,1.753,0,3.505,0,5.258c0.54,0.344,1.08,0.688,1.621,1.032
		c3.609-4.023,7.091-8.17,10.854-12.044c6.709-6.906,13.511-13.727,20.43-20.424c3.436-3.326,7.575-4.757,12.24-2.525
		c4.233,2.026,6.257,5.608,5.419,10.131c-0.453,2.446-1.748,5.125-3.487,6.885c-18.552,18.78-37.268,37.398-55.951,56.049
		c-0.328,0.327-0.805,0.506-1.41,0.875c-0.625-0.531-1.274-1.008-1.837-1.571c-18.32-18.31-36.67-36.589-54.923-54.966
		c-6.206-6.248-5.158-14.512,2.104-17.596c5.218-2.216,9.275,0.153,12.879,3.757c9.159,9.156,18.307,18.322,27.474,27.47
		C242.566,432.665,243.772,433.69,245.775,435.524z"/>
</g>
<g display="none">
	<path fill="#FFFFFF" d="M513.5,288.5c0,75,0,150,0,225c-171,0-342,0-513,0c0-171,0-342,0-513c171,0,342,0,513,0
		c0,89.667,0,179.333,0,269c-0.313-0.922-0.761-1.821-0.918-2.769c-5.93-35.969-25.935-60.543-59.94-73.524
		c-6.29-2.401-13.046-3.584-19.564-5.323c1.363-67.127-41.135-118.143-93.687-133.019c-70.943-20.081-124.362,5.92-162.397,67.685
		c-0.578-0.307-1.447-0.756-2.305-1.228c-25.02-13.773-50.058-13.804-74.426,1.104c-18.788,11.494-29.68,28.694-32.94,50.596
		c-0.401,2.692-0.537,5.126-3.974,6.611C15.176,200.442-8.03,248.451,5.505,298.845c10.346,38.52,47.576,69.221,87.519,70.656
		c30.124,1.082,60.306,0.541,90.463,0.662c1.802,0.007,3.677-0.302,5.396-0.849c4.256-1.354,6.602-4.496,6.859-8.869
		c0.259-4.39-1.744-7.901-5.84-9.538c-2.388-0.955-5.174-1.254-7.783-1.263c-26.329-0.087-52.66,0.032-78.988-0.119
		c-5.968-0.034-12.042-0.321-17.879-1.458c-34.01-6.629-60.4-36.513-62.94-69.407c-3.147-40.763,22.713-72.213,54.238-82.188
		c8.268-2.616,10.23-5.33,10.538-14.053c0.715-20.218,9.984-35.348,27.734-44.837c18.843-10.073,41.626-6.88,57.689,7.424
		c6.142,5.469,11.98,6.303,16.275,1.646c2.166-2.348,3.319-5.685,4.723-8.673c20.237-43.054,53.925-67.111,101.543-69.125
		c36.627-1.549,67.354,12.852,90.963,40.942c19.971,23.762,28.539,51.605,25.952,82.593c-0.959,11.491,2.281,15.774,13.765,16.111
		c41.113,1.205,73.373,40.694,66.407,81.285c-6.04,35.197-34.299,59.466-70.08,59.751c-29.661,0.237-59.325-0.011-88.987,0.146
		c-3.197,0.017-6.782,0.61-9.491,2.155c-4.198,2.394-5.198,6.739-3.824,11.371c1.326,4.469,5.654,6.974,12.058,6.981
		c29.829,0.03,59.66,0.227,89.487-0.041c40.832-0.368,74.115-24.057,87.221-61.929C510.733,301.836,511.868,295.082,513.5,288.5z
		 M247.332,261.654c0,3.415,0,5.199,0,6.983c0,56.162-0.014,112.324,0.041,168.486c0.003,2.792,0.153,5.732,1.014,8.346
		c2.048,6.219,10.043,8.271,15.202,4.239c3.733-2.918,4.092-6.95,4.091-11.222c-0.021-56.662-0.013-113.325-0.013-169.987
		c0-1.764,0-3.527,0-6.421c2.021,1.832,3.232,2.842,4.345,3.952c9.205,9.179,18.373,18.393,27.592,27.557
		c3.449,3.428,7.294,5.999,12.461,3.993c7.775-3.018,8.844-11.575,2.193-18.256c-18.107-18.188-36.28-36.31-54.437-54.449
		c-0.677-0.676-1.46-1.246-2.38-2.023c-1.393,1.299-2.625,2.38-3.781,3.535c-17.212,17.197-34.283,34.54-51.68,51.547
		c-7.769,7.595-6.279,13.65-2.737,17.393c4.554,4.813,10.779,3.649,17.32-2.89C226.446,282.557,236.323,272.669,247.332,261.654z"/>
	<path display="inline" d="M511,277.001c-1.626,6.559-2.758,13.288-4.958,19.648c-13.06,37.738-46.225,61.343-86.913,61.71
		c-29.721,0.268-59.447,0.072-89.17,0.041c-6.381-0.007-10.693-2.502-12.015-6.956c-1.37-4.615-0.373-8.945,3.81-11.33
		c2.7-1.54,6.271-2.131,9.457-2.148c29.557-0.156,59.116,0.09,88.672-0.145c35.654-0.284,63.813-24.468,69.832-59.54
		c6.942-40.448-25.204-79.796-66.172-80.997c-11.444-0.336-14.673-4.604-13.717-16.054c2.578-30.878-5.96-58.622-25.86-82.3
		c-23.525-27.991-54.143-42.341-90.641-40.797c-47.45,2.007-81.018,25.979-101.183,68.881c-1.399,2.977-2.548,6.302-4.707,8.642
		c-4.28,4.64-10.097,3.81-16.217-1.64c-16.006-14.254-38.708-17.436-57.484-7.398c-17.687,9.455-26.923,24.531-27.636,44.678
		c-0.307,8.692-2.262,11.396-10.501,14.003c-31.414,9.94-57.182,41.279-54.046,81.897c2.531,32.778,28.828,62.556,62.717,69.162
		c5.816,1.134,11.869,1.419,17.816,1.453c26.236,0.15,52.473,0.031,78.709,0.118c2.6,0.009,5.376,0.307,7.755,1.259
		c4.082,1.632,6.077,5.13,5.819,9.504c-0.257,4.358-2.594,7.488-6.835,8.837c-1.713,0.545-3.581,0.853-5.377,0.846
		c-30.05-0.12-60.125,0.419-90.142-0.659c-39.802-1.43-76.9-32.022-87.209-70.406c-13.487-50.215,9.637-98.054,57.64-118.789
		c3.425-1.479,3.56-3.905,3.96-6.587c3.249-21.825,14.102-38.964,32.824-50.417c24.282-14.855,49.232-14.823,74.163-1.1
		c0.854,0.47,1.721,0.918,2.296,1.224c37.9-61.547,91.13-87.456,161.822-67.445c52.366,14.823,94.713,65.658,93.355,132.548
		c6.495,1.733,13.227,2.911,19.495,5.304c33.884,12.935,53.819,37.422,59.728,73.263c0.156,0.944,0.603,1.84,0.914,2.759
		C511,264.379,511,270.69,511,277.001z"/>
	<path display="inline" d="M245.775,250.25c-10.97,10.976-20.812,20.828-30.661,30.675c-6.517,6.516-12.721,7.676-17.259,2.88
		c-3.529-3.73-5.014-9.763,2.727-17.332c17.336-16.947,34.346-34.228,51.497-51.365c1.152-1.151,2.379-2.228,3.768-3.523
		c0.916,0.774,1.697,1.342,2.371,2.016c18.093,18.074,36.201,36.133,54.244,54.256c6.627,6.657,5.562,15.184-2.185,18.191
		c-5.149,1.999-8.98-0.563-12.416-3.979c-9.186-9.132-18.322-18.314-27.494-27.46c-1.109-1.106-2.316-2.113-4.33-3.938
		c0,2.883,0,4.641,0,6.398c0,56.462-0.007,112.924,0.013,169.386c0.002,4.257-0.356,8.275-4.076,11.183
		c-5.141,4.018-13.107,1.973-15.149-4.224c-0.858-2.605-1.008-5.534-1.011-8.317c-0.055-55.963-0.041-111.926-0.041-167.889
		C245.775,255.431,245.775,253.653,245.775,250.25z"/>
</g>
<g display="none">
	<path fill="#FFFFFF" d="M513.5,329.5c0,61.333,0,122.667,0,184c-171,0-342,0-513,0c0-171,0-342,0-513c171,0,342,0,513,0
		c0,103.333,0,206.667,0,310c-0.327-1.094-0.772-2.168-0.963-3.285c-6.019-35.281-25.607-59.65-58.931-72.682
		c-6.577-2.572-13.656-3.86-20.504-5.735c1.355-68.482-43.118-117.673-94.499-133.568c-26.978-8.346-54.16-8.486-81.085,0.237
		c-35.946,11.646-62.182,34.953-79.797,68.43c-1.369-0.738-2.387-1.252-3.373-1.822c-44.178-25.541-99.66,1.282-106.893,51.804
		c-0.606,4.231-2.58,6.047-6.306,7.623C13.677,241.58-10.334,296.661,7.206,344.883c14.797,40.681,50.515,66.093,94.646,66.195
		c106.309,0.246,212.619,0.205,318.928,0.016c41.335-0.073,74.831-24.067,87.905-62.351
		C510.814,342.508,511.921,335.923,513.5,329.5z"/>
	<path display="inline" d="M511,277.185c-1.573,6.398-2.675,12.956-4.796,19.167c-13.022,38.133-46.385,62.031-87.556,62.104
		c-105.888,0.188-211.776,0.229-317.663-0.016c-43.956-0.102-79.533-25.413-94.271-65.933
		c-17.47-48.031,6.445-102.893,53.728-122.891c3.712-1.57,5.678-3.379,6.281-7.593c7.204-50.322,62.466-77.038,106.469-51.599
		c0.982,0.568,1.996,1.08,3.36,1.815c17.546-33.344,43.677-56.558,79.481-68.158c26.818-8.689,53.892-8.549,80.763-0.236
		c51.177,15.832,95.474,64.828,94.124,133.038c6.822,1.868,13.872,3.15,20.423,5.712c33.193,12.98,52.703,37.253,58.698,72.394
		c0.19,1.113,0.634,2.182,0.959,3.272C511,264.569,511,270.877,511,277.185z M184.846,146.438
		c-4.954-4.486-8.837-8.101-12.824-11.598c-16.237-14.241-34.74-17.975-54.56-9.587c-19.594,8.292-29.97,23.892-31.114,45.317
		c-0.201,3.773,1.304,8.709-0.562,11.037c-2.089,2.605-7.106,2.886-10.868,4.12c-36.3,11.909-58.909,49.479-52.299,86.927
		c6.824,38.658,38.228,65.239,78.05,65.299c106.062,0.162,212.125,0.092,318.187-0.036c6.242-0.008,12.648-0.68,18.697-2.178
		c31.977-7.919,54.35-37.838,52.863-70.148c-1.587-34.482-25.705-62.193-58.887-67.144c-7.454-1.112-15.107-0.899-23.382-1.334
		c5.274-30.585,1.545-59.751-15.578-86.283c-17.196-26.646-41.427-43.536-72.394-50.246c-23.341-5.058-46.251-2.817-68.206,6.717
		C217.044,82.467,196.421,110.173,184.846,146.438z"/>
	<path fill="#FFFFFF" d="M186.047,198.232c11.622-36.409,32.327-64.225,67.392-79.452c22.042-9.572,45.043-11.822,68.477-6.744
		c31.09,6.737,55.418,23.694,72.683,50.446c17.191,26.638,20.935,55.92,15.64,86.627c8.308,0.436,15.991,0.223,23.475,1.34
		c33.314,4.971,57.528,32.792,59.121,67.412c1.493,32.439-20.969,62.477-53.073,70.428c-6.073,1.504-12.504,2.179-18.771,2.186
		c-106.484,0.129-212.969,0.199-319.454,0.036c-39.981-0.061-71.51-26.747-78.361-65.559c-6.636-37.597,16.063-75.317,52.507-87.273
		c3.777-1.239,8.814-1.522,10.911-4.137c1.874-2.337,0.362-7.292,0.564-11.081c1.148-21.51,11.565-37.172,31.237-45.498
		c19.899-8.421,38.476-4.673,54.777,9.625C177.174,190.099,181.074,193.728,186.047,198.232z"/>
</g>
</svg>
